<?xml version="1.0" standalone="no"?>
<!DOCTYPE svg PUBLIC "-//W3C//DTD SVG 20010904//EN"
 "http://www.w3.org/TR/2001/REC-SVG-20010904/DTD/svg10.dtd">
<svg version="1.0" xmlns="http://www.w3.org/2000/svg"
 width="800.000000pt" height="800.000000pt" viewBox="0 0 800.000000 800.000000"
 preserveAspectRatio="xMidYMid meet">
<metadata>
Created by potrace 1.11, written by Peter Selinger 2001-2013
</metadata>
<g transform="translate(0.000000,800.000000) scale(0.100000,-0.100000)"
fill="#000000" stroke="none">
<path d="M3957 7874 c-1 -1 -45 -4 -98 -8 -53 -4 -104 -8 -115 -10 -10 -2 -44
-7 -75 -10 -31 -4 -67 -9 -80 -11 -13 -3 -37 -8 -54 -11 -16 -2 -48 -10 -70
-16 -22 -5 -51 -12 -65 -14 -40 -7 -192 -54 -227 -70 -17 -8 -36 -14 -42 -14
-11 0 -212 -84 -246 -103 -11 -6 -22 -12 -25 -13 -13 -3 -46 -18 -50 -23 -3
-3 -25 -16 -50 -29 -58 -29 -90 -48 -168 -99 -35 -24 -66 -43 -68 -43 -3 0
-12 -6 -19 -12 -8 -7 -30 -24 -51 -38 -20 -14 -47 -35 -60 -47 -13 -12 -30
-26 -38 -30 -44 -25 -244 -215 -346 -329 -96 -107 -243 -312 -320 -449 -46
-80 -140 -274 -140 -287 0 -8 -4 -18 -9 -23 -9 -10 -87 -228 -96 -269 -2 -11
-9 -39 -15 -61 -17 -64 -18 -66 -34 -145 -9 -41 -19 -97 -22 -125 -3 -27 -7
-56 -9 -63 -16 -47 -24 -464 -11 -572 4 -25 8 -72 11 -105 3 -33 9 -69 12 -80
3 -11 7 -36 8 -56 1 -20 5 -41 8 -46 3 -4 8 -29 12 -53 3 -25 10 -58 15 -75 5
-16 16 -57 25 -90 116 -429 358 -848 671 -1159 103 -104 217 -203 294 -256 19
-13 41 -30 48 -37 7 -7 18 -13 23 -13 5 0 9 -7 9 -15 0 -18 -42 -109 -52 -113
-5 -2 -8 -8 -8 -13 0 -5 -28 -66 -61 -137 -34 -70 -83 -172 -109 -227 -26 -55
-78 -163 -115 -240 -37 -77 -97 -201 -132 -275 -36 -74 -105 -218 -154 -319
-49 -102 -92 -195 -95 -208 -4 -13 -9 -23 -13 -23 -3 0 -12 -15 -20 -33 -19
-43 -157 -331 -313 -654 -60 -123 -67 -178 -33 -251 12 -26 35 -58 52 -72 16
-14 133 -77 261 -140 214 -106 236 -115 286 -113 29 0 68 9 86 18 43 22 101
75 94 86 -3 5 0 9 5 9 6 0 11 4 11 9 0 9 64 144 199 426 103 213 111 230 111
243 0 7 5 12 10 12 6 0 10 4 10 9 0 5 39 89 86 188 79 164 128 266 251 523 25
52 83 172 128 265 45 94 110 229 144 300 34 72 86 178 114 236 l52 107 50 -14
c28 -7 66 -16 85 -19 19 -4 42 -8 50 -10 8 -2 29 -7 45 -10 17 -2 40 -7 52 -9
12 -3 57 -8 100 -12 43 -3 92 -8 108 -10 37 -4 367 -4 415 0 157 14 196 18
214 22 12 2 39 6 61 9 22 4 47 7 55 9 8 1 33 6 55 10 279 54 579 165 830 308
68 39 145 88 155 98 3 3 31 23 62 44 32 21 65 46 75 55 10 9 48 41 83 70 131
110 252 241 362 391 108 146 111 150 131 190 7 14 24 43 37 65 25 40 89 168
129 256 40 92 92 245 126 374 22 86 40 169 61 279 3 16 7 48 9 70 3 23 7 57
10 76 25 191 25 640 -1 775 -3 17 -7 46 -9 65 -2 19 -4 35 -5 35 -1 0 -3 11
-5 25 -5 36 -43 199 -55 240 -6 19 -13 42 -15 50 -8 36 -59 181 -92 260 -36
88 -132 281 -143 290 -4 3 -9 13 -13 22 -3 10 -28 49 -54 88 -26 39 -52 79
-58 88 -9 16 -46 66 -85 116 -140 178 -385 413 -540 516 -12 8 -28 21 -36 28
-7 6 -15 12 -18 12 -3 0 -40 23 -83 51 -65 42 -352 194 -361 190 -1 -1 -18 5
-37 13 -55 23 -234 83 -300 101 -66 17 -78 20 -150 35 -82 17 -131 25 -220 36
-89 11 -400 25 -408 18z"/>
</g>
</svg>
