<svg enable-background="new 0 0 122 102" viewBox="0 0 122 102" xmlns="http://www.w3.org/2000/svg" xmlns:xlink="http://www.w3.org/1999/xlink"><linearGradient id="a"><stop offset="0" stop-color="#4dbaed"/><stop offset="1" stop-color="#5c6ddd"/></linearGradient><linearGradient id="b" gradientTransform="matrix(109 0 0 -100 8640 34586.7383)" gradientUnits="userSpaceOnUse" x1="-78.7652" x2="-78.7652" xlink:href="#a" y1="345.8613" y2="344.8754"/><linearGradient id="c" gradientUnits="userSpaceOnUse" x1="54.5912" x2="54.5912" xlink:href="#a" y1=".02962" y2="99.7759"/><linearGradient id="d" gradientTransform="matrix(13 0 0 -10 1067.0006 3260.3198)" gradientUnits="userSpaceOnUse" x1="-73.4028" x2="-73.4028" xlink:href="#a" y1="323.7038" y2="322.7179"/><linearGradient id="e" gradientUnits="userSpaceOnUse" x1="112.7631" x2="112.7631" xlink:href="#a" y1="22.7068" y2="33.7164"/><linearGradient id="f" gradientTransform="matrix(13 0 0 -10 1067.0006 3300.3213)" gradientUnits="userSpaceOnUse" x1="-73.4028" x2="-73.4028" xlink:href="#a" y1="323.76" y2="322.774"/><linearGradient id="g" gradientUnits="userSpaceOnUse" x1="112.7631" x2="112.7631" xlink:href="#a" y1="62.1453" y2="73.1549"/><linearGradient id="h" gradientTransform="matrix(9 0 0 -4 753 1192.3588)" gradientUnits="userSpaceOnUse" x1="-70.6992" x2="-70.6992" xlink:href="#a" y1="286.8464" y2="285.8605"/><linearGradient id="i" gradientUnits="userSpaceOnUse" x1="116.7069" x2="116.7069" xlink:href="#a" y1="44.3979" y2="49.4918"/><linearGradient id="j" gradientTransform="matrix(5 0 0 -4 333 1199.3588)" gradientUnits="userSpaceOnUse" x1="-63.3723" x2="-63.3723" xlink:href="#a" y1="286.871" y2="285.885"/><linearGradient id="k" gradientUnits="userSpaceOnUse" x1="16.1387" x2="16.1387" xlink:href="#a" y1="51.2997" y2="56.3935"/><g stroke-miterlimit="10" stroke-width="1.15" transform="translate(0 .948718)"><path d="m108.3 46.6c0-6-4.5-11-10.3-11.7v-30.3c0-1.9-1.2-3.4-3-3.9s-3.6.3-4.5 1.9c-6.4 11-16.4 18.5-29.8 22.3-10.1 2.9-18.5 2.5-18.6 2.5s-.2 0-.4 0h-21.3c-10.8 0-19.5 8.8-19.5 19.6 0 10.2 7.8 18.6 17.7 19.5l6.4 26.7c.9 3.5 4 6 7.6 6h4.5c2.4 0 4.7-1.1 6.1-3 1.5-1.9 2-4.4 1.5-6.7l-5.5-22.9h2.7.4c.1 0 8.4-.4 18.6 2.5 13.4 3.8 23.4 11.3 29.8 22.3.7 1.3 2 2 3.5 2 .4 0 .7 0 1.1-.1 1.8-.5 3-2 3-3.9v-30.2c5.8-.7 10.3-5.7 10.3-11.7v-.9zm-68.9 41 .7 3c.2 1 0 1.9-.6 2.7s-1.5 1.2-2.5 1.2h-4.5c-1.5 0-2.7-1-3.1-2.4l-6.2-25.5h11l1.6 6.8h-1.1c-1.3 0-2.3 1-2.3 2.3s1 2.3 2.3 2.3h2.2l1.2 4.8h-.7c-1.3 0-2.3 1-2.3 2.3s1 2.3 2.3 2.3h2zm.3-35.6h-14.5c-1.3 0-2.3 1-2.3 2.3s1 2.3 2.3 2.3h14.5v5.3h-3.4-.1-15.8s0 0-.1 0c-8.2 0-14.8-6.7-14.8-14.9s6.7-14.9 14.8-14.9h19.3v19.9zm53.6-14.9v19.8 30.2c-7-10.9-17.8-18.7-31.5-22.6-7.6-2.1-14.1-2.6-17.5-2.6v-7.6-22.2c3.4-.1 9.9-.5 17.5-2.6 13.7-3.9 24.5-11.6 31.5-22.6zm10.4 10.3c0 3.4-2.4 6.3-5.7 7v-14.8c3.2.7 5.7 3.5 5.7 7z" fill="url(#b)" stroke="url(#c)"/><path d="m109 33.1c.6 0 1.3-.2 1.8-.6l7.6-5.6c1.1-.8 1.1-2.1.2-3-1-.9-2.6-.9-3.7-.1l-7.6 5.6c-1.1.8-1.1 2.1-.2 3 .5.5 1.2.7 1.9.7z" fill="url(#d)" stroke="url(#e)"/><path d="m110.7 63.3c-1.1-.8-2.7-.7-3.7.1-1 .9-.9 2.2.2 3l7.6 5.6c.5.4 1.1.6 1.8.6s1.4-.2 1.9-.7c1-.9.9-2.2-.2-3z" fill="url(#f)" stroke="url(#g)"/><path d="m119 45h-4.7c-1.2 0-2.1.9-2.1 2s.9 2 2.1 2h4.7c1.2 0 2.1-.9 2.1-2s-.9-2-2.1-2z" fill="url(#h)" stroke="url(#i)"/><path d="m18.4 53.1c-.1-.1-.1-.2-.2-.3s-.2-.2-.3-.3-.2-.2-.4-.2c-.1-.1-.3-.1-.4-.2-.2 0-.3-.1-.5-.1-.3-.1-.6-.1-1 0-.2 0-.3.1-.5.1-.1 0-.3.1-.4.2s-.3.2-.4.2c-.1.1-.2.2-.3.3s-.2.2-.2.3c-.1.1-.1.2-.1.4v.4.4c0 .1.1.2.1.4.1.1.1.2.2.3s.2.2.3.3.2.2.4.2c.1.1.3.1.4.2.1 0 .3.1.5.1h.5.5c.2 0 .3-.1.5-.1.1 0 .3-.1.4-.2s.3-.2.4-.2c.1-.1.2-.2.3-.3s.2-.2.2-.3c.1-.1.1-.2.1-.4 0-.1 0-.3 0-.4s0-.3 0-.4c0-.2 0-.3-.1-.4z" fill="url(#j)" stroke="url(#k)"/></g></svg>