<?xml version="1.0" encoding="utf-8"?>
<!-- Generator: Adobe Illustrator 24.0.3, SVG Export Plug-In . SVG Version: 6.00 Build 0)  -->
<svg version="1.1" id="Calque_1" xmlns="http://www.w3.org/2000/svg" xmlns:xlink="http://www.w3.org/1999/xlink" x="0px" y="0px"
	 viewBox="0 0 122 102" style="enable-background:new 0 0 122 102;" xml:space="preserve">
<style type="text/css">
	.st0{fill:url(#Shape_1_);stroke:url(#Shape_2_);stroke-width:1.15;stroke-miterlimit:10;}
	.st1{fill:url(#Path_4_);stroke:url(#Path_5_);stroke-width:1.15;stroke-miterlimit:10;}
	.st2{fill:url(#Path_6_);stroke:url(#Path_7_);stroke-width:1.15;stroke-miterlimit:10;}
	.st3{fill:url(#Path_8_);stroke:url(#Path_9_);stroke-width:1.15;stroke-miterlimit:10;}
	.st4{fill:url(#Path_10_);stroke:url(#Path_11_);stroke-width:1.15;stroke-miterlimit:10;}
</style>
<title>ad</title>
<g id="Page-1">
	<g id="announcement-personnal-desktop" transform="translate(-615.000000, -845.000000)">
		<g id="ad" transform="translate(615.000000, 845.948718)">
			
				<linearGradient id="Shape_1_" gradientUnits="userSpaceOnUse" x1="-78.7652" y1="345.8613" x2="-78.7652" y2="344.8754" gradientTransform="matrix(109 0 0 -100 8640 34586.7383)">
				<stop  offset="0" style="stop-color:#4DBAED"/>
				<stop  offset="1" style="stop-color:#5C6DDD"/>
			</linearGradient>
			<linearGradient id="Shape_2_" gradientUnits="userSpaceOnUse" x1="54.5912" y1="2.961965e-02" x2="54.5912" y2="99.7759">
				<stop  offset="0" style="stop-color:#4DBAED"/>
				<stop  offset="1" style="stop-color:#5C6DDD"/>
			</linearGradient>
			<path id="Shape" class="st0" d="M108.3,46.6c0-6-4.5-11-10.3-11.7V4.6c0-1.9-1.2-3.4-3-3.9c-1.8-0.5-3.6,0.3-4.5,1.9
				c-6.4,11-16.4,18.5-29.8,22.3c-10.1,2.9-18.5,2.5-18.6,2.5c-0.1,0-0.2,0-0.4,0H20.4C9.6,27.4,0.9,36.2,0.9,47
				c0,10.2,7.8,18.6,17.7,19.5L25,93.2c0.9,3.5,4,6,7.6,6h4.5c2.4,0,4.7-1.1,6.1-3c1.5-1.9,2-4.4,1.5-6.7l-5.5-22.9h2.7
				c0.1,0,0.2,0,0.4,0c0.1,0,8.4-0.4,18.6,2.5c13.4,3.8,23.4,11.3,29.8,22.3c0.7,1.3,2,2,3.5,2c0.4,0,0.7,0,1.1-0.1
				c1.8-0.5,3-2,3-3.9V59.2c5.8-0.7,10.3-5.7,10.3-11.7V46.6z M39.4,87.6l0.7,3c0.2,1,0,1.9-0.6,2.7c-0.6,0.8-1.5,1.2-2.5,1.2h-4.5
				c-1.5,0-2.7-1-3.1-2.4l-6.2-25.5h11l1.6,6.8h-1.1c-1.3,0-2.3,1-2.3,2.3c0,1.3,1,2.3,2.3,2.3h2.2l1.2,4.8h-0.7
				c-1.3,0-2.3,1-2.3,2.3c0,1.3,1,2.3,2.3,2.3H39.4L39.4,87.6z M39.7,52H25.2c-1.3,0-2.3,1-2.3,2.3c0,1.3,1,2.3,2.3,2.3h14.5v5.3
				h-3.4c0,0-0.1,0-0.1,0H20.4c0,0,0,0-0.1,0c-8.2,0-14.8-6.7-14.8-14.9c0-8.2,6.7-14.9,14.8-14.9h19.3V52L39.7,52z M93.3,37.1v19.8
				v30.2c-7-10.9-17.8-18.7-31.5-22.6c-7.6-2.1-14.1-2.6-17.5-2.6v-7.6V32.1c3.4-0.1,9.9-0.5,17.5-2.6c13.7-3.9,24.5-11.6,31.5-22.6
				V37.1L93.3,37.1z M103.7,47.4c0,3.4-2.4,6.3-5.7,7V39.6c3.2,0.7,5.7,3.5,5.7,7V47.4z"/>
			
				<linearGradient id="Path_4_" gradientUnits="userSpaceOnUse" x1="-73.4028" y1="323.7038" x2="-73.4028" y2="322.7179" gradientTransform="matrix(13 0 0 -10 1067.0006 3260.3198)">
				<stop  offset="0" style="stop-color:#4DBAED"/>
				<stop  offset="1" style="stop-color:#5C6DDD"/>
			</linearGradient>
			<linearGradient id="Path_5_" gradientUnits="userSpaceOnUse" x1="112.7631" y1="22.7068" x2="112.7631" y2="33.7164">
				<stop  offset="0" style="stop-color:#4DBAED"/>
				<stop  offset="1" style="stop-color:#5C6DDD"/>
			</linearGradient>
			<path id="Path" class="st1" d="M109,33.1c0.6,0,1.3-0.2,1.8-0.6l7.6-5.6c1.1-0.8,1.1-2.1,0.2-3c-1-0.9-2.6-0.9-3.7-0.1l-7.6,5.6
				c-1.1,0.8-1.1,2.1-0.2,3C107.6,32.9,108.3,33.1,109,33.1z"/>
			
				<linearGradient id="Path_6_" gradientUnits="userSpaceOnUse" x1="-73.4028" y1="323.76" x2="-73.4028" y2="322.774" gradientTransform="matrix(13 0 0 -10 1067.0006 3300.3213)">
				<stop  offset="0" style="stop-color:#4DBAED"/>
				<stop  offset="1" style="stop-color:#5C6DDD"/>
			</linearGradient>
			<linearGradient id="Path_7_" gradientUnits="userSpaceOnUse" x1="112.7631" y1="62.1453" x2="112.7631" y2="73.1549">
				<stop  offset="0" style="stop-color:#4DBAED"/>
				<stop  offset="1" style="stop-color:#5C6DDD"/>
			</linearGradient>
			<path id="Path_1_" class="st2" d="M110.7,63.3c-1.1-0.8-2.7-0.7-3.7,0.1c-1,0.9-0.9,2.2,0.2,3l7.6,5.6c0.5,0.4,1.1,0.6,1.8,0.6
				c0.7,0,1.4-0.2,1.9-0.7c1-0.9,0.9-2.2-0.2-3L110.7,63.3z"/>
			
				<linearGradient id="Path_8_" gradientUnits="userSpaceOnUse" x1="-70.6992" y1="286.8464" x2="-70.6992" y2="285.8605" gradientTransform="matrix(9 0 0 -4 753 1192.3588)">
				<stop  offset="0" style="stop-color:#4DBAED"/>
				<stop  offset="1" style="stop-color:#5C6DDD"/>
			</linearGradient>
			<linearGradient id="Path_9_" gradientUnits="userSpaceOnUse" x1="116.7069" y1="44.3979" x2="116.7069" y2="49.4918">
				<stop  offset="0" style="stop-color:#4DBAED"/>
				<stop  offset="1" style="stop-color:#5C6DDD"/>
			</linearGradient>
			<path id="Path_2_" class="st3" d="M119,45h-4.7c-1.2,0-2.1,0.9-2.1,2s0.9,2,2.1,2h4.7c1.2,0,2.1-0.9,2.1-2S120.2,45,119,45z"/>
			
				<linearGradient id="Path_10_" gradientUnits="userSpaceOnUse" x1="-63.3723" y1="286.871" x2="-63.3723" y2="285.885" gradientTransform="matrix(5 0 0 -4 333 1199.3588)">
				<stop  offset="0" style="stop-color:#4DBAED"/>
				<stop  offset="1" style="stop-color:#5C6DDD"/>
			</linearGradient>
			<linearGradient id="Path_11_" gradientUnits="userSpaceOnUse" x1="16.1387" y1="51.2997" x2="16.1387" y2="56.3935">
				<stop  offset="0" style="stop-color:#4DBAED"/>
				<stop  offset="1" style="stop-color:#5C6DDD"/>
			</linearGradient>
			<path id="Path_3_" class="st4" d="M18.4,53.1c-0.1-0.1-0.1-0.2-0.2-0.3c-0.1-0.1-0.2-0.2-0.3-0.3c-0.1-0.1-0.2-0.2-0.4-0.2
				c-0.1-0.1-0.3-0.1-0.4-0.2c-0.2,0-0.3-0.1-0.5-0.1c-0.3-0.1-0.6-0.1-1,0c-0.2,0-0.3,0.1-0.5,0.1c-0.1,0-0.3,0.1-0.4,0.2
				c-0.1,0.1-0.3,0.2-0.4,0.2c-0.1,0.1-0.2,0.2-0.3,0.3c-0.1,0.1-0.2,0.2-0.2,0.3c-0.1,0.1-0.1,0.2-0.1,0.4c0,0.1,0,0.3,0,0.4
				c0,0.1,0,0.3,0,0.4c0,0.1,0.1,0.2,0.1,0.4c0.1,0.1,0.1,0.2,0.2,0.3c0.1,0.1,0.2,0.2,0.3,0.3c0.1,0.1,0.2,0.2,0.4,0.2
				c0.1,0.1,0.3,0.1,0.4,0.2c0.1,0,0.3,0.1,0.5,0.1c0.2,0,0.3,0,0.5,0c0.2,0,0.3,0,0.5,0c0.2,0,0.3-0.1,0.5-0.1
				c0.1,0,0.3-0.1,0.4-0.2c0.1-0.1,0.3-0.2,0.4-0.2c0.1-0.1,0.2-0.2,0.3-0.3c0.1-0.1,0.2-0.2,0.2-0.3c0.1-0.1,0.1-0.2,0.1-0.4
				c0-0.1,0-0.3,0-0.4c0-0.1,0-0.3,0-0.4C18.5,53.3,18.5,53.2,18.4,53.1z"/>
		</g>
	</g>
</g>
</svg>
