<?xml version="1.0" encoding="UTF-8"?>
<svg width="122px" height="102px" viewBox="0 0 122 102" version="1.1" xmlns="http://www.w3.org/2000/svg" xmlns:xlink="http://www.w3.org/1999/xlink">
    <title>ad</title>
    <defs>
        <linearGradient x1="50%" y1="0%" x2="50%" y2="100%" id="linearGradient-1">
            <stop stop-color="#4DBAED" offset="0%"></stop>
            <stop stop-color="#5C6DDD" offset="100%"></stop>
        </linearGradient>
        <linearGradient x1="50%" y1="0%" x2="50%" y2="100%" id="linearGradient-2">
            <stop stop-color="#4DBAED" offset="0%"></stop>
            <stop stop-color="#5C6DDD" offset="100%"></stop>
        </linearGradient>
        <linearGradient x1="50%" y1="0%" x2="50%" y2="100%" id="linearGradient-3">
            <stop stop-color="#4DBAED" offset="0%"></stop>
            <stop stop-color="#5C6DDD" offset="100%"></stop>
        </linearGradient>
        <linearGradient x1="50%" y1="0%" x2="50%" y2="100%" id="linearGradient-4">
            <stop stop-color="#4DBAED" offset="0%"></stop>
            <stop stop-color="#5C6DDD" offset="100%"></stop>
        </linearGradient>
    </defs>
    <g id="Page-1" stroke="none" stroke-width="1" fill="none" fill-rule="evenodd">
        <g id="announcement-personnal-desktop" transform="translate(-615.000000, -845.000000)" fill-rule="nonzero">
            <g id="ad" transform="translate(615.000000, 845.948718)">
                <path d="M109,46.6886498 C109,40.5788798 104.412926,35.5279403 98.5163746,34.8184906 L98.5163746,4.15325956 C98.5163746,2.27572372 97.3036238,0.685815456 95.4984508,0.197252368 C93.6937509,-0.290835694 91.8497926,0.471104211 90.910431,2.09402671 C84.4604792,13.2385854 74.3015626,20.8560843 60.7158209,24.735375 C50.4426769,27.6686536 41.965246,27.2435064 41.8834184,27.2385186 C41.7590216,27.2313932 41.6353342,27.237331 41.5128294,27.2496817 L19.7904473,27.2496817 C8.87805492,27.2496817 0,36.1658987 0,47.1251976 C0,57.4477258 7.87696791,65.9544713 17.9107781,66.9085588 L24.4626597,93.9664509 C25.3301265,97.5490885 28.5001172,100.051282 32.171479,100.051282 L36.7188216,100.051282 C39.1686823,100.051282 41.4421171,98.9418614 42.9561636,97.0073226 C44.4702102,95.0727838 45.0063463,92.5919664 44.4276409,90.2011662 L38.8096816,67.0004761 L41.5088089,67.0004761 C41.6317868,67.0130642 41.7559471,67.019002 41.8812899,67.0118767 C41.9654825,67.0071264 50.4426769,66.5815041 60.7158209,69.5150203 C74.3013261,73.3943109 84.4602427,81.0118099 90.910431,92.1561311 C91.6603594,93.4522364 92.9868647,94.1992131 94.4096239,94.1992131 C94.7690976,94.1992131 95.1344837,94.1514731 95.4984508,94.0531429 C97.3036238,93.5645798 98.5163746,91.9749091 98.5163746,90.0973732 L98.5163746,59.4316672 C104.412926,58.722455 109,53.6715155 109,47.5617455 L109,46.6886498 Z M39.0842533,88.2378883 L39.8313437,91.32365 C40.0652381,92.289138 39.8488444,93.2909655 39.2372661,94.0721439 C38.6261608,94.8533223 37.7080838,95.3012708 36.7188216,95.3012708 L32.171479,95.3012708 C30.6888864,95.3012708 29.4089708,94.2908929 29.0587204,92.8442046 L22.8008032,67.0007136 L33.9418871,67.0007136 L35.6122574,73.8992624 L34.4818072,73.8992624 C33.1756405,73.8992624 32.1168485,74.9626056 32.1168485,76.2743868 C32.1168485,77.586168 33.1756405,78.6495112 34.4818072,78.6495112 L36.7623368,78.6495112 L37.9339374,83.4876396 L37.1927593,83.4876396 C35.8865926,83.4876396 34.8278006,84.5509827 34.8278006,85.862764 C34.8278006,87.1745452 35.8865926,88.2378883 37.1927593,88.2378883 L39.0842533,88.2378883 L39.0842533,88.2378883 Z M39.3843665,52.1713869 L24.6870943,52.1713869 C23.3809276,52.1713869 22.3221356,53.2347301 22.3221356,54.5465113 C22.3221356,55.8582925 23.3809276,56.9216357 24.6870943,56.9216357 L39.3843665,56.9216357 L39.3843665,62.2504648 L35.9293984,62.2504648 C35.8861196,62.2480897 35.8430774,62.245002 35.7990892,62.245002 L19.7904473,62.245002 C19.7679802,62.245002 19.7457496,62.2483272 19.7232825,62.2488022 C11.4499475,62.2119878 4.72991738,55.4426458 4.72991738,47.1251976 C4.72991738,38.7851858 11.4861314,31.9999305 19.7904473,31.9999305 L39.3843665,31.9999305 L39.3843665,52.1713869 L39.3843665,52.1713869 Z M93.7859843,37.1052604 L93.7859843,57.1451349 L93.7859843,87.7768767 C86.6986761,76.707372 75.7051656,68.8202964 61.8495821,64.9006286 C54.1778926,62.7302399 47.5515149,62.2967797 44.1142839,62.2404893 L44.1142839,54.5465113 L44.1142839,32.009906 C47.5519879,31.9536156 54.1786021,31.5199178 61.8495821,29.3497667 C75.7049291,25.4298614 86.6986761,17.5430233 93.7859843,6.47351858 L93.7859843,37.1052604 L93.7859843,37.1052604 Z M104.26961,47.5617455 C104.26961,51.047003 101.794207,53.9624682 98.5159016,54.6275031 L98.5159016,39.6228922 C101.793971,40.287927 104.26961,43.2033922 104.26961,46.6886498 L104.26961,47.5617455 Z" id="Shape" fill="url(#linearGradient-1)"></path>
                <path d="M109.662345,33.0512821 C110.301932,33.0512821 110.943648,32.8651896 111.453614,32.4880336 L119.130522,26.8105933 C120.217261,26.0067864 120.296045,24.6399471 119.306189,23.7572508 C118.316333,22.8747707 116.633125,22.8110108 115.54612,23.6146016 L107.869478,29.2918258 C106.782739,30.0956327 106.703955,31.4624719 107.693811,32.3451682 C108.219215,32.8135333 108.939449,33.0512821 109.662345,33.0512821 Z" id="Path" fill="url(#linearGradient-2)"></path>
                <path d="M111.45388,63.6146016 C110.366875,62.8110108 108.683667,62.8747707 107.693811,63.7572508 C106.703955,64.639731 106.782739,66.0067864 107.869478,66.8105933 L115.54612,72.4878175 C116.056618,72.8651896 116.698068,73.0512821 117.337655,73.0512821 C118.060551,73.0512821 118.781052,72.8135333 119.306189,72.3451682 C120.296045,71.4626881 120.217261,70.0956327 119.130522,69.2918258 L111.45388,63.6146016 Z" id="Path" fill="url(#linearGradient-2)"></path>
                <path d="M119.864617,45.0512821 L115.135383,45.0512821 C113.956011,45.0512821 113,45.9466821 113,47.0512821 C113,48.1558821 113.956011,49.0512821 115.135383,49.0512821 L119.864617,49.0512821 C121.043989,49.0512821 122,48.1558821 122,47.0512821 C122,45.9466821 121.043989,45.0512821 119.864617,45.0512821 Z" id="Path" fill="url(#linearGradient-3)"></path>
                <path d="M17.81,53.2865909 C17.7475,53.1645604 17.67,53.0485314 17.58,52.9405044 C17.4875,52.8304768 17.385,52.7284513 17.27,52.6364283 C17.1525,52.5444053 17.025,52.4603843 16.8875,52.3883663 C16.7525,52.3163483 16.6075,52.2543328 16.4575,52.2043203 C16.305,52.1543078 16.1475,52.1162983 15.99,52.0902918 C15.6675,52.0382788 15.335,52.0382788 15.0125,52.0902918 C14.8525,52.1162983 14.695,52.1543078 14.545,52.2043203 C14.395,52.2543328 14.2475,52.3163483 14.1125,52.3883663 C13.975,52.4603843 13.8475,52.5444053 13.7325,52.6364283 C13.6175,52.7284513 13.5125,52.8304768 13.4225,52.9405044 C13.3325,53.0485314 13.255,53.1645604 13.1925,53.2865909 C13.13,53.4066209 13.0825,53.5326524 13.05,53.6606844 C13.0175,53.7887164 13,53.9207494 13,54.0507819 C13,54.1808144 13.0175,54.3128474 13.05,54.44288 C13.0825,54.5689115 13.13,54.694943 13.1925,54.8169735 C13.255,54.9370035 13.3325,55.0530325 13.4225,55.1610595 C13.5125,55.271087 13.6175,55.3731125 13.7325,55.4651355 C13.8475,55.5571585 13.975,55.6411795 14.1125,55.715198 C14.2475,55.787216 14.395,55.8492315 14.545,55.899244 C14.695,55.9492565 14.8525,55.987266 15.0125,56.0132725 C15.175,56.0392791 15.3375,56.0512821 15.5,56.0512821 C15.665,56.0512821 15.8275,56.0392791 15.99,56.0132725 C16.15,55.987266 16.305,55.9492565 16.4575,55.899244 C16.6075,55.8492315 16.7525,55.787216 16.8875,55.715198 C17.025,55.6411795 17.1525,55.5571585 17.27,55.4651355 C17.385,55.3731125 17.4875,55.271087 17.58,55.1610595 C17.67,55.0530325 17.7475,54.9370035 17.81,54.8169735 C17.8725,54.694943 17.92,54.5689115 17.9525,54.44288 C17.985,54.3128474 18,54.1808144 18,54.0507819 C18,53.9207494 17.985,53.7887164 17.9525,53.6606844 C17.92,53.5326524 17.8725,53.4066209 17.81,53.2865909 Z" id="Path" fill="url(#linearGradient-4)"></path>
            </g>
        </g>
    </g>
</svg>