<?xml version="1.0" encoding="UTF-8"?>
<svg width="172px" height="140px" viewBox="0 0 172 140" version="1.1" xmlns="http://www.w3.org/2000/svg" xmlns:xlink="http://www.w3.org/1999/xlink">
    <title>ad</title>
    <defs>
        <linearGradient x1="50%" y1="0%" x2="50%" y2="100%" id="linearGradient-1">
            <stop stop-color="#4DBAED" offset="0%"></stop>
            <stop stop-color="#5C6DDD" offset="100%"></stop>
        </linearGradient>
        <linearGradient x1="50%" y1="0%" x2="50%" y2="100%" id="linearGradient-2">
            <stop stop-color="#4DBAED" offset="0%"></stop>
            <stop stop-color="#5C6DDD" offset="100%"></stop>
        </linearGradient>
        <linearGradient x1="50%" y1="0%" x2="50%" y2="100%" id="linearGradient-3">
            <stop stop-color="#4DBAED" offset="0%"></stop>
            <stop stop-color="#5C6DDD" offset="100%"></stop>
        </linearGradient>
        <linearGradient x1="50%" y1="0%" x2="50%" y2="100%" id="linearGradient-4">
            <stop stop-color="#4DBAED" offset="0%"></stop>
            <stop stop-color="#5C6DDD" offset="100%"></stop>
        </linearGradient>
    </defs>
    <g id="Page-1" stroke="none" stroke-width="1" fill="none" fill-rule="evenodd">
        <g id="choice-before-going-setting-desktop" transform="translate(-1034.000000, -720.000000)" fill-rule="nonzero">
            <g id="ad" transform="translate(1034.727865, 720.000000)">
                <path d="M153.272135,65.2923148 C153.272135,56.7386368 146.833398,49.6673215 138.556588,48.674092 L138.556588,5.74276851 C138.556588,3.11421834 136.854286,0.888346767 134.320419,0.204358444 C131.787217,-0.478964844 129.198908,0.587751023 127.880355,2.85984252 C118.826753,18.4622247 104.566989,29.1267232 85.4970948,34.5577301 C71.0769935,38.6643202 59.1774804,38.069114 59.0626215,38.0621312 C58.8880094,38.0521557 58.7143932,38.0604686 58.5424369,38.0777595 L28.0513868,38.0777595 C12.733992,38.0777595 0.272135124,50.5604633 0.272135124,65.9034818 C0.272135124,80.3550212 11.3287965,92.2644649 25.4129521,93.6001874 L34.6096299,131.481236 C35.8272669,136.496929 40.2768867,140 45.4302662,140 L51.8132333,140 C55.2520286,140 58.4431802,138.446811 60.5684015,135.738457 C62.6936228,133.030102 63.4461809,129.556958 62.6338697,126.209838 L54.7481102,93.7288716 L58.5367935,93.7288716 C58.7094138,93.7464951 58.8836939,93.754808 59.0596338,93.7448325 C59.1778123,93.7381821 71.0769935,93.1423109 85.4970948,97.2492335 C104.566657,102.68024 118.826421,113.344739 127.880355,128.946789 C128.933007,130.761336 130.794982,131.807103 132.792066,131.807103 C133.296648,131.807103 133.80953,131.740267 134.320419,131.602605 C136.854286,130.918617 138.556588,128.693078 138.556588,126.064528 L138.556588,83.1325392 C146.833398,82.1396422 153.272135,75.0683268 153.272135,66.5146488 L153.272135,65.2923148 Z M55.1335182,123.461249 L56.1821864,127.781315 C56.5104969,129.132998 56.2067516,130.535557 55.3482976,131.629207 C54.4905076,132.722856 53.2018308,133.349984 51.8132333,133.349984 L45.4302662,133.349984 C43.3491959,133.349984 41.5526171,131.935455 41.0609812,129.910092 L32.2769323,93.7292041 L47.9153345,93.7292041 L50.2599827,103.387172 L48.6732039,103.387172 C46.8397773,103.387172 45.353583,104.875853 45.353583,106.712347 C45.353583,108.54884 46.8397773,110.037521 48.6732039,110.037521 L51.8743144,110.037521 L53.5188546,116.810901 L52.4784854,116.810901 C50.6450587,116.810901 49.1588645,118.299581 49.1588645,120.136075 C49.1588645,121.972568 50.6450587,123.461249 52.4784854,123.461249 L55.1335182,123.461249 L55.1335182,123.461249 Z M55.5547781,72.9681468 L34.9246619,72.9681468 C33.0912353,72.9681468 31.605041,74.4568273 31.605041,76.293321 C31.605041,78.1298147 33.0912353,79.6184951 34.9246619,79.6184951 L55.5547781,79.6184951 L55.5547781,87.0788558 L50.7051439,87.0788558 C50.6443948,87.0755307 50.5839777,87.0712079 50.5222328,87.0712079 L28.0513868,87.0712079 C28.0198504,87.0712079 27.988646,87.0758632 27.9571096,87.0765282 C16.3440798,87.024988 6.91137695,77.5479092 6.91137695,65.9034818 C6.91137695,54.2274653 16.39487,44.7281078 28.0513868,44.7281078 L55.5547781,44.7281078 L55.5547781,72.9681468 L55.5547781,72.9681468 Z M131.916682,51.8755696 L131.916682,79.931394 L131.916682,122.815833 C121.968442,107.318526 106.537184,96.2766201 87.088521,90.7890852 C76.3200028,87.750541 67.0187569,87.1436967 62.1940199,87.0648901 L62.1940199,76.293321 L62.1940199,44.7420735 C67.0194208,44.6632669 76.3209986,44.0560901 87.088521,41.0178785 C106.536852,35.5300111 121.968442,24.4884378 131.916682,8.99113114 L131.916682,51.8755696 L131.916682,51.8755696 Z M146.632229,66.5146488 C146.632229,71.3940094 143.157582,75.4756606 138.555924,76.4067094 L138.555924,55.4002542 C143.15725,56.331303 146.632229,60.4129543 146.632229,65.2923148 L146.632229,66.5146488 Z" id="Shape" fill="url(#linearGradient-1)"></path>
                <path d="M155.548867,46 C156.336051,46 157.125856,45.7394706 157.753506,45.2114522 L167.202008,37.2630357 C168.539534,36.137706 168.636498,34.2241311 167.418214,32.9883563 C166.199929,31.7528841 164.128289,31.6636202 162.790436,32.7886473 L153.342262,40.7367612 C152.004737,41.8620909 151.907772,43.7756658 153.126056,45.0114407 C153.772707,45.6671517 154.659149,46 155.548867,46 Z" id="Path" fill="url(#linearGradient-2)"></path>
                <path d="M157.753834,86.7886473 C156.415981,85.6636202 154.344341,85.7528841 153.126056,86.9883563 C151.907772,88.2238285 152.004737,90.137706 153.342262,91.2630357 L162.790436,99.2111496 C163.418742,99.7394706 164.208219,100 164.995403,100 C165.885121,100 166.771891,99.6671517 167.418214,99.0114407 C168.636498,97.7759684 168.539534,95.8620909 167.202008,94.7367612 L157.753834,86.7886473 Z" id="Path" fill="url(#linearGradient-2)"></path>
                <path d="M166.950428,63 L159.593842,63 C157.759264,63 156.272135,64.3431 156.272135,66 C156.272135,67.6569 157.759264,69 159.593842,69 L166.950428,69 C168.785007,69 170.272135,67.6569 170.272135,66 C170.272135,64.3431 168.785007,63 166.950428,63 Z" id="Path" fill="url(#linearGradient-3)"></path>
                <path d="M24.0061351,73.8529632 C23.9186351,73.6699175 23.8101351,73.495874 23.6841351,73.3338335 C23.5546351,73.1687922 23.4111351,73.0157539 23.2501351,72.8777194 C23.0856351,72.7396849 22.9071351,72.6136534 22.7146351,72.5056264 C22.5256351,72.3975994 22.3226351,72.3045761 22.1126351,72.2295574 C21.8991351,72.1545386 21.6786351,72.0975244 21.4581351,72.0585146 C21.0066351,71.9804951 20.5411351,71.9804951 20.0896351,72.0585146 C19.8656351,72.0975244 19.6451351,72.1545386 19.4351351,72.2295574 C19.2251351,72.3045761 19.0186351,72.3975994 18.8296351,72.5056264 C18.6371351,72.6136534 18.4586351,72.7396849 18.2976351,72.8777194 C18.1366351,73.0157539 17.9896351,73.1687922 17.8636351,73.3338335 C17.7376351,73.495874 17.6291351,73.6699175 17.5416351,73.8529632 C17.4541351,74.0330083 17.3876351,74.2220555 17.3421351,74.4141035 C17.2966351,74.6061515 17.2721351,74.8042011 17.2721351,74.9992498 C17.2721351,75.1942986 17.2966351,75.3923481 17.3421351,75.5873968 C17.3876351,75.7764441 17.4541351,75.9654914 17.5416351,76.1485371 C17.6291351,76.3285821 17.7376351,76.5026257 17.8636351,76.6646662 C17.9896351,76.8297074 18.1366351,76.9827457 18.2976351,77.1207802 C18.4586351,77.2588147 18.6371351,77.3848462 18.8296351,77.495874 C19.0186351,77.603901 19.2251351,77.6969242 19.4351351,77.771943 C19.6451351,77.8469617 19.8656351,77.903976 20.0896351,77.9429857 C20.3171351,77.9819955 20.5446351,78 20.7721351,78 C21.0031351,78 21.2306351,77.9819955 21.4581351,77.9429857 C21.6821351,77.903976 21.8991351,77.8469617 22.1126351,77.771943 C22.3226351,77.6969242 22.5256351,77.603901 22.7146351,77.495874 C22.9071351,77.3848462 23.0856351,77.2588147 23.2501351,77.1207802 C23.4111351,76.9827457 23.5546351,76.8297074 23.6841351,76.6646662 C23.8101351,76.5026257 23.9186351,76.3285821 24.0061351,76.1485371 C24.0936351,75.9654914 24.1601351,75.7764441 24.2056351,75.5873968 C24.2511351,75.3923481 24.2721351,75.1942986 24.2721351,74.9992498 C24.2721351,74.8042011 24.2511351,74.6061515 24.2056351,74.4141035 C24.1601351,74.2220555 24.0936351,74.0330083 24.0061351,73.8529632 Z" id="Path" fill="url(#linearGradient-4)"></path>
            </g>
        </g>
    </g>
</svg>