<svg height="30" viewBox="0 0 32 30" width="32" xmlns="http://www.w3.org/2000/svg" xmlns:xlink="http://www.w3.org/1999/xlink"><linearGradient id="a" x1="50%" x2="50%" y1="0%" y2="100%"><stop offset="0" stop-color="#4baeee"/><stop offset="1" stop-color="#556fe3"/></linearGradient><g fill="none"><g transform="translate(1 1)"><path d="m25.5886747.02270082h-21.1773494c-2.41969879 0-4.38120482 1.93497746-4.38120482 4.32195082v16.04757786c0 2.3869734 1.96150603 4.3219508 4.38120482 4.3219508h2.56072289v2.6312746c0 1.2295287 1.32783133 2.0160943 2.42801205 1.4381742l7.74746986-4.0695082h8.4411446c2.4196988 0 4.3812048-1.9349775 4.3812048-4.3219508v-16.04751846c0-2.38697336-1.961506-4.32195082-4.3812048-4.32195082z" fill="#f9f6f9"/><path d="m1.72506024 4.34435451v16.04787499c0 2.3868545 1.96186747 4.3215943 4.38144578 4.3215943h-1.69554216c-2.41957832 0-4.38084338-1.9347398-4.38084338-4.3215943v-16.04787499c0-2.38685451 1.96126506-4.32218853 4.38084338-4.32218853h1.69554216c-2.41957831 0-4.38144578 1.93539345-4.38144578 4.32218853z" fill="#dddaec"/><path d="m9.47391566 28.7447049-.07379518.0384488c-1.10024096.5779201-2.42843373-.2085861-2.42843373-1.4378176v-2.6315123h1.69554217v2.6315123c0 .6169631.33421686 1.1226209.80668674 1.3993688z" fill="#dddaec"/><g fill="url(#a)" transform="translate(4.036145 6.180328)"><path d="m6.85192771 1.025875c-.00457831-.01188525-.00927711-.02371107-.01415663-.03547746-.23945783-.57429508-.80060241-.94511475-1.43-.94511475-.00054216 0-.00108433 0-.0016265 0-.63.00059426-1.19120482.37272131-1.4296988.94796721-.00403614.0097459-.0079518.01955123-.01174698.02935656l-3.82114458 9.89696314c-.2586747.6698524.08222891 1.419752.76126506 1.6748688.6789759.2551763 1.43921686-.0811168 1.69783132-.7509692l.62891567-1.628873h4.32301204l.62174699 1.6251885c.19879518.5198013.69945783.8400121 1.23114458.8400121.15433735 0 .31138554-.0270018.46433735-.0839916.67981927-.2530963 1.02295177-1.0019262.76638557-1.6726106zm-2.61813253 6.59286475 1.16921687-3.02836065 1.15855422 3.02836065z"/><path d="m20.6003012 2.31328484c-.9527108-1.25722132-2.3850602-1.94965574-4.0331928-1.94965574h-2.7968072c-.3493976 0-.6843976.13709631-.9312048.38098156-.2468072.24394467-.3851205.57471106-.3844602.91932377 0 .03749795.007171 3.76031352.007171 4.85755942 0 1.33982377.0127711 4.85078485.0128916 4.88608405.0012651.3442561.1411446.6739528.3887952.9164713.246506.2413893.5796988.3767623.9268674.3767623h.005c.0845181-.0003566 2.0792772-.0079037 2.8766266-.0216312 1.5454819-.0266229 2.9209036-.7162643 3.8728313-1.9419303.855-1.10081148 1.3258434-2.59419262 1.3258434-4.20505943 0-1.66322131-.4392772-3.12213524-1.2703615-4.21890573zm-2.1442771 6.84530737c-.4668675.60109631-1.0825904.91237089-1.83.92526639-.351747.0060615-.9604819.0109344-1.5243976.0145-.0037349-1.14900614-.0084337-2.76456762-.0084337-3.57680532 0-.68060861-.0027109-2.36676844-.0047591-3.56206762h1.478735c.8327108 0 1.4625301.29701229 1.9255421.90803278.4814458.63532582.7465663 1.58168853.7465663 2.66479099-.0000602 1.04334631-.2781928 1.97604098-.783253 2.62628278z"/></g><g fill="#9dc6fb"><g transform="translate(4.036145 6.180328)"><path d="m5.40295181 4.5903791 1.15855421 3.02836065h.88144579l-1.59722892-4.1751086z"/><path d="m1.78626506 12.5944385c-.67903614-.2551168-1.01993976-1.0050164-.76126506-1.6748688l3.82108434-9.89696314c.00379518-.00986476.00771084-.01967008.01174699-.02935656.18114457-.43684221.54855421-.75602049.99066265-.88485656-.14060241-.0410041-.28861446-.06311065-.44078314-.06311065-.00054217 0-.00108433 0-.0016265 0-.63.00059426-1.19120482.37272131-1.4296988.94796721-.00403614.0097459-.00795181.01955123-.01174699.02935656l-3.82108433 9.89696314c-.2586747.6698524.08222891 1.419752.76126506 1.6748688.30427711.1143361.62469879.1096414.90915662.0096271-.00921686-.003209-.01849397-.0061804-.02771084-.0096271z"/><path d="m9.05777108 11.8397848-.62174698-1.6251885h-.88144579l.62174699 1.6251885c.19879518.5198013.69945783.8399898 1.23114458.8399898.1463253 0 .295-.0251967.44042169-.0762439-.35150603-.1235471-.64807229-.3922725-.79012049-.7637459z"/></g><g transform="translate(16.445784 6.536885)"><path d="m6.08301205 3.51096107c.48144578.63532582.74656626 1.58168852.74656626 2.66479098 0 1.04334631-.27813253 1.97604098-.78319277 2.62628279-.46686747.60109631-1.08259036.9123709-1.83.92526639-.16704819.00285246-.3923494.00546721-.64295181.00784426v.00671517c.56391567-.00356558 1.17265061-.00843853 1.5243976-.0145.74740963-.0128955 1.36313253-.32417009 1.83-.9252664.50506024-.6502418.78319277-1.58293647.78319277-2.62628278 0-1.08310246-.26518073-2.02946517-.74662651-2.66479099-.46295181-.61102049-1.09283132-.90803279-1.92554217-.90803279h-.88144578c.83277108 0 1.4626506.29695287 1.92560241.90797337z"/><path d="m1.33524096 11.9676107c-.2476506-.2425185-.38753012-.5722152-.38879518-.9164714-.00012048-.0352991-.01289156-3.54631963-.01289156-4.88608397 0-1.09730533-.0070482-4.82006148-.00716868-4.85755943-.00066265-.3446127.1376506-.6753791.38445783-.91932377s.58186747-.38098156.93120482-.38098156h-.88144578c-.34939759 0-.68439759.13703689-.93120482.38098156s-.38512048.57471107-.3844602.91932377c.00006261.03749795.00717104 3.7602541.00717104 4.85755943 0 1.33982377.01277109 4.85078487.01289157 4.88608397.00126506.3442562.14114458.6739529.38879518.9164714.24650603.2413893.5796988.3767623.92686747.3767623h.005c.03331325 0 .36379518-.0013669.80024096-.0036845-.31933734-.0183627-.62228915-.1494569-.85066265-.3730778z"/></g></g></g><g fill="#000" transform="translate(1)"><path d="m25.2991406.0525h-20.59828123c-2.59207031 0-4.70085937 2.1422619-4.70085937 4.77547619v16.07392861c0 2.6332142 2.10878906 4.7754762 4.70085937 4.7754762h2.05125v2.1891666c0 .7366072.37107422 1.4026786.99269532 1.7819048.32630859.1990476.68888672.2990476 1.05234375.2990476.32888672 0 .65847656-.0819048.96251953-.246369l7.43876953-4.0238096h8.1006445c2.5920703 0 4.7008594-2.1422619 4.7008594-4.7754762v-16.07386901c0-2.63321429-2.1087305-4.77547619-4.7008008-4.77547619zm3.8219531 20.8494048c0 2.1408928-1.7145117 3.882619-3.8219531 3.882619h-8.2103906c-.0720117 0-.1429688.0179762-.206543.052381l-7.53556638 4.0761309c-.36509765.1975-.79476562.18625-1.1493164-.0300595-.35460938-.2163095-.5663086-.5963095-.5663086-1.0164286v-2.6355952c0-.2465476-.19675781-.4464286-.43945312-.4464286h-2.49070312c-2.10744141 0-3.82195313-1.7417262-3.82195313-3.882619v-16.07392861c0-2.14089286 1.71451172-3.88261905 3.82195313-3.88261905h20.59828122c2.1074414 0 3.8219531 1.74172619 3.8219531 3.88261905z"/><path d="m11.4130078 7.54053571c-.0055664-.01577381-.0118359-.03196428-.0197461-.05208333-.301289-.74279762-1.0067578-1.22279762-1.79947264-1.22279762-.79037109.00077381-1.49466797.48077381-1.7953125 1.22315476-.00328125.00779762-.00638672.01571429-.00925781.02339286-.00275391.00642857-.00539062.01297619-.00785156.01952381l-2.73691406 7.30000001c-.08636719.2304167.02742187.4883333.25423828.5760714.22675781.0878572.48070312-.0279166.56707031-.2582738l2.73439453-7.29321428c.00216797-.00541666.00421875-.01077381.00615234-.01595238.00140625-.00327381.00275391-.00648809.00410157-.00982143.16423828-.40785714.55054687-.67160714.98548828-.67202381.43312496 0 .81960936.2629762.98326176.6664881.0022851.00577381.0046289.01142857.0066211.01720238.0011132.00327381.0022851.0064881.003457.00970238l3.6830859 9.91339284c.1633594.4403572-.0563672.9338095-.4900195 1.1-.0962695.0369643-.1959961.0557143-.2964258.0557143-.3473437 0-.6631641-.2221429-.785918-.5528571l-.6046875-1.6279762c-.0645703-.17375-.2282812-.2888096-.4111523-.2888096h-4.20527344c-.18234375 0-.34576172.1144048-.4106836.2875596l-.61177734 1.6317262c-.07974609.2130952-.23648438.3818452-.44121094.4750595-.20484375.0932738-.433125.0999405-.64289062.0188095-.20964844-.0810714-.37570313-.2402976-.46757813-.4483928-.091875-.2080953-.0984375-.4399405-.01857422-.6529762l.35449219-.9464286c.08630859-.2304762-.02759766-.4883333-.25441406-.5760119-.226875-.0876191-.48070313.0280357-.56701172.2584524l-.35449219.946369c-.33720703.9.10910156 1.9108333.99498047 2.2533929.19892578.0769047.40587891.1152381.61248047.1152381.23917969 0 .47783203-.0513691.70253906-.15375.4191211-.1908929.73992188-.53625.90316406-.9722024l.50390625-1.3439881h3.59853516l.4973438 1.3391071c.2510156.6761905.8973046 1.1305357 1.6082812 1.1305357.2069531 0 .4112109-.0381547.6068555-.1132738.8866406-.3398214 1.3361133-1.3492262 1.0019531-2.2503571z"/><path d="m8.45396484 14.7443452h2.26406246c.1442579 0 .2794336-.0719642.3614649-.1925.0820312-.1205952.1006055-.2744047.0496875-.4115476l-1.1268164-3.0333333c-.06451174-.1735714-.22787111-.2885119-.41050783-.2888095-.00023438 0-.00041016 0-.00064453 0-.18234375 0-.34576172.1144047-.4106836.2875595l-1.13724609 3.0333333c-.05144531.1372024-.03316406.2913691.04880859.4122619.08203125.1208334.21732422.1930357.361875.1930357zm1.1353125-2.2204166.49318356 1.3275595h-.99093746z"/><path d="m22.6749023 10.2732738c-.5315039-.72238094-1.280039-1.08869047-2.2248632-1.08869047h-1.4383008c-.1166602 0-.2285742.04714286-.3110156.13101191-.0824415.08386905-.1286133.19761905-.128438.31619047.0020512 1.19702379.004688 2.88559529.004688 3.56714289 0 .8628571.0050976 2.6159524.0082031 3.5841071.0003515.1186905.0472265.2322619.1302539.3157738.0823242.0827976.193418.1292262.3091992.1292262h.0028125c.6995508-.0045833 1.2000586-.0095238 1.4875195-.0146428.855586-.0151786 1.5890625-.396131 2.1211524-1.1016667.5497265-.7288095.8524219-1.7594643.8524219-2.9020833.0000585-1.1805358-.2889258-2.2233929-.8136329-2.9363691zm-.7364062 5.2954762c-.3736524.4954167-.8442774.7414286-1.4388281.7519643-.2201368.0039286-.5679493.0077381-1.0369922.011369-.0029883-.9927976-.0067969-2.3922619-.0067969-3.1331547 0-.6004762-.0020508-1.9822619-.0039258-3.1214881h.998086c.6710156 0 1.1542382.2320833 1.5209179.7304166.4118555.5597024.6386719 1.4126786.6386719 2.4018453.0000586.9473809-.2383008 1.7852381-.6711328 2.3590476z"/><path d="m24.6364453 9.34458333c-.2150391.11434524-.2980664.38410715-.1855664.60255953.4697461.91172614.7180664 2.03994044.7180664 3.26261904 0 1.5166071-.4258008 2.9158929-1.1990039 3.9403571-.8427539 1.1173215-2.0593945 1.746012-3.4258008 1.7704167-.7701562.013631-2.7118945.0213691-2.7949219.0213691-.2230664 0-.4334765-.0880953-.5921484-.2477977-.1569141-.1582142-.2473242-.3778571-.2480859-.6010119 0-.0049404-.0002344-.0779166-.0006446-.2035714-.0077343-2.3466071-.0116601-3.9247619-.0116601-4.6904762 0-.9283928-.0049219-3.69446427-.0065625-4.60345236l-.0004688-.26279762c-.0003515-.22547619.0890039-.44577381.2454493-.60476191.1586132-.16148809.3698437-.25041666.5947265-.25041666h2.7199219c1.1773242 0 2.2276172.40392857 3.037207 1.16815476.1778321.16785714.455918.15744048.6210938-.02321429.1651758-.18059523.1549804-.46309523-.0228516-.63095238-.9751172-.92035714-2.2322461-1.40684524-3.6354492-1.40684524h-2.7199219c-.4601367 0-.8923242.18208334-1.216582.51232143-.3201563.32517857-.5033203.77619048-.502561 1.2364881l.0004711.26363095c.0016407.90880952.0065625 3.67428572.0065625 4.60184522 0 .7667262.0039258 2.3458929.0116602 4.6935119l.0006445.2021429c.0015821.4598214.1866211.9092857.508125 1.2335119.3247266.3266667.7548047.5066071 1.2157032.5066071.0786914 0 2.0304492-.0077976 2.8055273-.0214881 1.6400391-.0292262 3.0989648-.7822023 4.1080078-2.12.8901563-1.1793452 1.3803516-2.7716071 1.3803516-4.4835119 0-1.3858333-.2753321-2.6227976-.8182617-3.67666664-.1124414-.2185119-.3779297-.30285714-.5930274-.18857143z"/></g></g></svg>