<?xml version="1.0" encoding="utf-8"?>
<!-- Generator: Adobe Illustrator 24.0.3, SVG Export Plug-In . SVG Version: 6.00 Build 0)  -->
<svg version="1.1" id="Calque_1" xmlns="http://www.w3.org/2000/svg" xmlns:xlink="http://www.w3.org/1999/xlink" x="0px" y="0px"
	 viewBox="0 0 32 30" style="enable-background:new 0 0 32 30;" xml:space="preserve">
<style type="text/css">
	.st0{fill:url(#SVGID_1_);}
	.st1{fill:url(#SVGID_2_);}
	.st2{fill:#2B65B5;}
</style>
<g>
	<g transform="translate(1 1)">
		<g transform="translate(4.036145 6.180328)">
			
				<linearGradient id="SVGID_1_" gradientUnits="userSpaceOnUse" x1="-741.8146" y1="44.6172" x2="-741.8146" y2="45.6172" gradientTransform="matrix(10.6663 0 0 12.6345 7917.8472 -563.9496)">
				<stop  offset="0" style="stop-color:#4BAEEE"/>
				<stop  offset="1" style="stop-color:#556FE3"/>
			</linearGradient>
			<path class="st0" d="M6.9,0.7C6.8,0.7,6.8,0.7,6.9,0.7c-0.3-0.6-0.8-1-1.4-1l0,0C4.8-0.2,4.2,0.1,4,0.7l0,0l-3.8,9.9
				C-0.1,11.3,0.3,12,1,12.3s1.4-0.1,1.7-0.8l0.6-1.6h4.3l0.6,1.6c0.2,0.5,0.7,0.8,1.2,0.8c0.2,0,0.3,0,0.5-0.1c0.7-0.3,1-1,0.8-1.7
				L6.9,0.7z M4.2,7.3l1.2-3l1.2,3H4.2z"/>
			
				<linearGradient id="SVGID_2_" gradientUnits="userSpaceOnUse" x1="-731.7582" y1="45.6924" x2="-731.7582" y2="46.6924" gradientTransform="matrix(9.416 0 0 12.3372 6907.4355 -563.6418)">
				<stop  offset="0" style="stop-color:#4BAEEE"/>
				<stop  offset="1" style="stop-color:#556FE3"/>
			</linearGradient>
			<path class="st1" d="M20.6,2c-1-1.3-2.4-1.9-4-1.9h-2.8c-0.3,0-0.7,0.1-0.9,0.4c-0.2,0.2-0.4,0.6-0.4,0.9c0,0,0,3.8,0,4.9
				c0,1.3,0,4.9,0,4.9c0,0.3,0.1,0.7,0.4,0.9c0.2,0.2,0.6,0.4,0.9,0.4l0,0c0.1,0,2.1,0,2.9,0c1.5,0,2.9-0.7,3.9-1.9
				c0.9-1.1,1.3-2.6,1.3-4.2C21.9,4.6,21.4,3.1,20.6,2z M18.5,8.9c-0.5,0.6-1.1,0.9-1.8,0.9c-0.4,0-1,0-1.5,0c0-1.1,0-2.8,0-3.6
				c0-0.7,0-2.4,0-3.6h1.5c0.8,0,1.5,0.3,1.9,0.9c0.5,0.6,0.7,1.6,0.7,2.7C19.2,7.3,19,8.2,18.5,8.9z"/>
		</g>
	</g>
	<g transform="translate(1)">
		<path class="st2" d="M25.3,0.1H4.7C2.1,0.1,0,2.2,0,4.8v16.1c0,2.6,2.1,4.8,4.7,4.8h2.1v2.2c0,0.7,0.4,1.4,1,1.8
			C8.1,29.9,8.5,30,8.9,30c0.3,0,0.7-0.1,1-0.2l7.4-4h8.1c2.6,0,4.7-2.1,4.7-4.8V4.8C30,2.2,27.9,0.1,25.3,0.1z M29.1,20.9
			c0,2.1-1.7,3.9-3.8,3.9h-8.2c-0.1,0-0.1,0-0.2,0.1L9.4,29c-0.4,0.2-0.8,0.2-1.1,0c-0.4-0.2-0.6-0.6-0.6-1v-2.6
			c0-0.2-0.2-0.4-0.4-0.4H4.7c-2.1,0-3.8-1.7-3.8-3.9V4.8c0-2.1,1.7-3.9,3.8-3.9h20.6c2.1,0,3.8,1.7,3.8,3.9
			C29.1,4.8,29.1,20.9,29.1,20.9z"/>
		<path class="st2" d="M11.4,7.5L11.4,7.5c-0.3-0.8-1-1.3-1.8-1.3S8.1,6.7,7.8,7.4l0,0l0,0L5,14.8c-0.1,0.2,0,0.5,0.3,0.6
			c0.2,0.1,0.5,0,0.6-0.3l2.7-7.3l0,0l0,0c0.2-0.4,0.6-0.7,1-0.7s0.8,0.3,1,0.7l0,0l0,0l3.7,9.9c0.2,0.4-0.1,0.9-0.5,1.1
			c-0.1,0-0.2,0.1-0.3,0.1c-0.3,0-0.7-0.2-0.8-0.6l-0.6-1.6c-0.1-0.2-0.2-0.3-0.4-0.3H7.5c-0.2,0-0.3,0.1-0.4,0.3l-0.6,1.6
			c-0.1,0.2-0.2,0.4-0.4,0.5c-0.2,0.1-0.4,0.1-0.6,0S5.1,18.6,5,18.4c-0.1-0.2-0.1-0.4,0-0.7l0.4-0.9c0.1-0.2,0-0.5-0.3-0.6
			c-0.2-0.1-0.5,0-0.6,0.3l-0.4,0.9c-0.3,0.9,0.1,1.9,1,2.3c0.2,0.1,0.4,0.1,0.6,0.1s0.5-0.1,0.7-0.2c0.4-0.2,0.7-0.5,0.9-1l0.5-1.3
			h3.6l0.5,1.3c0.3,0.7,0.9,1.1,1.6,1.1c0.2,0,0.4,0,0.6-0.1c0.9-0.3,1.3-1.3,1-2.3L11.4,7.5z"/>
		<path class="st2" d="M8.5,14.7h2.3c0.1,0,0.3-0.1,0.4-0.2c0.1-0.1,0.1-0.3,0-0.4l-1.1-3c-0.1-0.2-0.2-0.3-0.4-0.3l0,0
			c-0.2,0-0.3,0.1-0.4,0.3l-1.1,3c-0.1,0.1,0,0.3,0,0.4C8.2,14.7,8.3,14.7,8.5,14.7z M9.6,12.5l0.5,1.3h-1L9.6,12.5z"/>
		<path class="st2" d="M22.7,10.3c-0.5-0.7-1.3-1.1-2.2-1.1H19c-0.1,0-0.2,0-0.3,0.1s-0.1,0.2-0.1,0.3c0,1.2,0,2.9,0,3.6
			c0,0.9,0,2.6,0,3.6c0,0.1,0,0.2,0.1,0.3c0.1,0.1,0.2,0.1,0.3,0.1l0,0c0.7,0,1.2,0,1.5,0c0.9,0,1.6-0.4,2.1-1.1
			c0.5-0.7,0.9-1.8,0.9-2.9C23.5,12,23.2,11,22.7,10.3z M21.9,15.6c-0.4,0.5-0.8,0.7-1.4,0.8c-0.2,0-0.6,0-1,0c0-1,0-2.4,0-3.1
			c0-0.6,0-2,0-3.1h1c0.7,0,1.2,0.2,1.5,0.7c0.4,0.6,0.6,1.4,0.6,2.4C22.6,14.2,22.4,15,21.9,15.6z"/>
		<path class="st2" d="M24.6,9.3c-0.2,0.1-0.3,0.4-0.2,0.6c0.5,0.9,0.7,2,0.7,3.3c0,1.5-0.4,2.9-1.2,3.9c-0.8,1.1-2.1,1.7-3.4,1.8
			c-0.8,0-2.7,0-2.8,0c-0.2,0-0.4-0.1-0.6-0.2c-0.2-0.2-0.2-0.4-0.2-0.6c0,0,0-0.1,0-0.2c0-2.3,0-3.9,0-4.7c0-0.9,0-3.7,0-4.6V8.3
			c0-0.2,0.1-0.4,0.2-0.6c0.2-0.2,0.4-0.3,0.6-0.3h2.7c1.2,0,2.2,0.4,3,1.2c0.2,0.2,0.5,0.2,0.6,0c0.2-0.2,0.2-0.5,0-0.6
			c-1-0.9-2.2-1.4-3.6-1.4h-2.7c-0.5,0-0.9,0.2-1.2,0.5C16.2,7.4,16,7.9,16,8.3v0.3c0,0.9,0,3.7,0,4.6c0,0.8,0,2.3,0,4.7v0.2
			c0,0.5,0.2,0.9,0.5,1.2c0.3,0.3,0.8,0.5,1.2,0.5c0.1,0,2,0,2.8,0c1.6,0,3.1-0.8,4.1-2.1c0.9-1.2,1.4-2.8,1.4-4.5
			c0-1.4-0.3-2.6-0.8-3.7C25.1,9.3,24.9,9.2,24.6,9.3z"/>
	</g>
</g>
</svg>
