<?xml version="1.0" encoding="UTF-8"?>
<svg width="32px" height="30px" viewBox="0 0 32 30" version="1.1" xmlns="http://www.w3.org/2000/svg" xmlns:xlink="http://www.w3.org/1999/xlink">
    <title>addd</title>
    <defs>
        <linearGradient x1="50%" y1="0%" x2="50%" y2="100%" id="linearGradient-1">
            <stop stop-color="#4BAEEE" offset="0%"></stop>
            <stop stop-color="#556FE3" offset="100%"></stop>
        </linearGradient>
        <linearGradient x1="50%" y1="0%" x2="50%" y2="100%" id="linearGradient-2">
            <stop stop-color="#4BAEEE" offset="0%"></stop>
            <stop stop-color="#556FE3" offset="100%"></stop>
        </linearGradient>
    </defs>
    <g id="Page-1" stroke="none" stroke-width="1" fill="none" fill-rule="evenodd">
        <g id="workers-personnal-desktop" transform="translate(-902.000000, -1272.000000)" fill-rule="nonzero">
            <g id="addd" transform="translate(902.761905, 1272.000000)">
                <g id="Group" transform="translate(0.238095, 1.000000)">
                    <path d="M25.5886747,0.0227008197 L4.4113253,0.0227008197 C1.99162651,0.0227008197 0.0301204819,1.95767828 0.0301204819,4.34465164 L0.0301204819,20.3922295 C0.0301204819,22.7792029 1.99162651,24.7141803 4.4113253,24.7141803 L6.97204819,24.7141803 L6.97204819,27.3454549 C6.97204819,28.5749836 8.29987952,29.3615492 9.40006024,28.7836291 L17.1475301,24.7141209 L25.5886747,24.7141209 C28.0083735,24.7141209 29.9698795,22.7791434 29.9698795,20.3921701 L29.9698795,4.34465164 C29.9698795,1.95767828 28.0083735,0.0227008197 25.5886747,0.0227008197 Z" id="Path" fill="#F9F6F9"></path>
                    <path d="M1.72506024,4.34435451 L1.72506024,20.3922295 C1.72506024,22.779084 3.68692771,24.7138238 6.10650602,24.7138238 L4.41096386,24.7138238 C1.99138554,24.7138238 0.0301204819,22.779084 0.0301204819,20.3922295 L0.0301204819,4.34435451 C0.0301204819,1.9575 1.99138554,0.0221659836 4.41096386,0.0221659836 L6.10650602,0.0221659836 C3.68692771,0.0221659836 1.72506024,1.95755943 1.72506024,4.34435451 Z" id="Path" fill="#DDDAEC"></path>
                    <path d="M9.47391566,28.7447049 L9.40012048,28.7831537 C8.29987952,29.3610738 6.97168675,28.5745676 6.97168675,27.3453361 L6.97168675,24.7138238 L8.66722892,24.7138238 L8.66722892,27.3453361 C8.66722892,27.9622992 9.00144578,28.467957 9.47391566,28.7447049 Z" id="Path" fill="#DDDAEC"></path>
                    <g transform="translate(4.036145, 6.180328)" id="Shape">
                        <path d="M6.85192771,1.025875 C6.8473494,1.01398975 6.8426506,1.00216393 6.83777108,0.990397541 C6.59831325,0.416102459 6.03716867,0.0452827869 5.40777108,0.0452827869 C5.40722892,0.0452827869 5.40668675,0.0452827869 5.40614458,0.0452827869 C4.77614458,0.0458770492 4.21493976,0.418004098 3.97644578,0.99325 C3.97240964,1.0029959 3.96849398,1.01280123 3.9646988,1.02260656 L0.143554217,10.9195697 C-0.115120482,11.5894221 0.225783133,12.3393217 0.904819277,12.5944385 C1.58379518,12.8496148 2.34403614,12.5133217 2.6026506,11.8434693 L3.23156627,10.2145963 L7.55457831,10.2145963 L8.1763253,11.8397848 C8.37512048,12.3595861 8.87578313,12.6797969 9.40746988,12.6797969 C9.56180723,12.6797969 9.71885542,12.6527951 9.87180723,12.5958053 C10.5516265,12.342709 10.894759,11.5938791 10.6381928,10.9231947 L6.85192771,1.025875 Z M4.23379518,7.61873975 L5.40301205,4.5903791 L6.56156627,7.61873975 L4.23379518,7.61873975 Z" fill="url(#linearGradient-1)"></path>
                        <path d="M20.6003012,2.31328484 C19.6475904,1.05606352 18.215241,0.363629098 16.5671084,0.363629098 L13.7703012,0.363629098 C13.4209036,0.363629098 13.0859036,0.50072541 12.8390964,0.744610656 C12.5922892,0.988555328 12.4539759,1.31932172 12.4546362,1.66393443 C12.4546362,1.70143238 12.4618072,5.42424795 12.4618072,6.52149385 C12.4618072,7.86131762 12.4745783,11.3722787 12.4746988,11.4075779 C12.4759639,11.751834 12.6158434,12.0815307 12.863494,12.3240492 C13.11,12.5654385 13.4431928,12.7008115 13.7903614,12.7008115 L13.7953614,12.7008115 C13.8798795,12.7004549 15.8746386,12.6929078 16.671988,12.6791803 C18.2174699,12.6525574 19.5928916,11.962916 20.5448193,10.73725 C21.3998193,9.63643852 21.8706627,8.14305738 21.8706627,6.53219057 C21.8706627,4.86896926 21.4313855,3.41005533 20.6003012,2.31328484 L20.6003012,2.31328484 Z M18.4560241,9.15859221 C17.9891566,9.75968852 17.3734337,10.0709631 16.6260241,10.0838586 C16.2742771,10.0899201 15.6655422,10.094793 15.1016265,10.0983586 C15.0978916,8.94935246 15.0931928,7.33379098 15.0931928,6.52155328 C15.0931928,5.84094467 15.0904819,4.15478484 15.0884337,2.95948566 L16.5671687,2.95948566 C17.3998795,2.95948566 18.0296988,3.25649795 18.4927108,3.86751844 C18.9741566,4.50284426 19.2392771,5.44920697 19.2392771,6.53230943 C19.2392169,7.57565574 18.9610843,8.50835041 18.4560241,9.15859221 L18.4560241,9.15859221 Z" fill="url(#linearGradient-2)"></path>
                    </g>
                    <g transform="translate(4.036145, 6.180328)" fill="#9DC6FB" id="Path">
                        <g>
                            <polygon points="5.40295181 4.5903791 6.56150602 7.61873975 7.44295181 7.61873975 5.84572289 3.44363115"></polygon>
                            <path d="M1.78626506,12.5944385 C1.10722892,12.3393217 0.766325301,11.5894221 1.025,10.9195697 L4.84608434,1.02260656 C4.84987952,1.0127418 4.85379518,1.00293648 4.85783133,0.99325 C5.0389759,0.556407787 5.40638554,0.237229508 5.84849398,0.108393443 C5.70789157,0.0673893443 5.55987952,0.0452827869 5.40771084,0.0452827869 C5.40716867,0.0452827869 5.40662651,0.0452827869 5.40608434,0.0452827869 C4.77608434,0.0458770492 4.21487952,0.418004098 3.97638554,0.99325 C3.9723494,1.0029959 3.96843373,1.01280123 3.96463855,1.02260656 L0.143554217,10.9195697 C-0.115120482,11.5894221 0.225783133,12.3393217 0.904819277,12.5944385 C1.20909639,12.7087746 1.52951807,12.7040799 1.8139759,12.6040656 C1.80475904,12.6008566 1.79548193,12.5978852 1.78626506,12.5944385 Z"></path>
                            <path d="M9.05777108,11.8397848 L8.4360241,10.2145963 L7.55457831,10.2145963 L8.1763253,11.8397848 C8.37512048,12.3595861 8.87578313,12.6797746 9.40746988,12.6797746 C9.55379518,12.6797746 9.70246988,12.6545779 9.84789157,12.6035307 C9.49638554,12.4799836 9.19981928,12.2112582 9.05777108,11.8397848 L9.05777108,11.8397848 Z"></path>
                        </g>
                        <g transform="translate(12.409639, 0.356557)">
                            <path d="M6.08301205,3.51096107 C6.56445783,4.14628689 6.82957831,5.09264959 6.82957831,6.17575205 C6.82957831,7.21909836 6.55144578,8.15179303 6.04638554,8.80203484 C5.57951807,9.40313115 4.96379518,9.71440574 4.21638554,9.72730123 C4.04933735,9.73015369 3.82403614,9.73276844 3.57343373,9.73514549 L3.57343373,9.74186066 C4.1373494,9.73829508 4.74608434,9.73342213 5.09783133,9.72736066 C5.84524096,9.71446516 6.46096386,9.40319057 6.92783133,8.80209426 C7.43289157,8.15185246 7.7110241,7.21915779 7.7110241,6.17581148 C7.7110241,5.09270902 7.44584337,4.14634631 6.96439759,3.51102049 C6.50144578,2.9 5.87156627,2.6029877 5.03885542,2.6029877 L4.15740964,2.6029877 C4.99018072,2.6029877 5.62006024,2.89994057 6.08301205,3.51096107 L6.08301205,3.51096107 Z"></path>
                            <path d="M1.33524096,11.9676107 C1.08759036,11.7250922 0.947710843,11.3953955 0.946445783,11.0511393 C0.946325301,11.0158402 0.933554217,7.50481967 0.933554217,6.16505533 C0.933554217,5.06775 0.926506024,1.34499385 0.926385542,1.3074959 C0.925722892,0.962883197 1.06403614,0.632116803 1.31084337,0.388172131 C1.5576506,0.144227459 1.89271084,0.00719057377 2.24204819,0.00719057377 L1.36060241,0.00719057377 C1.01120482,0.00719057377 0.676204819,0.144227459 0.42939759,0.388172131 C0.182590361,0.632116803 0.0442771084,0.962883197 0.0449373889,1.3074959 C0.045,1.34499385 0.0521084337,5.06775 0.0521084337,6.16505533 C0.0521084337,7.5048791 0.0648795181,11.0158402 0.065,11.0511393 C0.0662650602,11.3953955 0.206144578,11.7250922 0.453795181,11.9676107 C0.700301205,12.209 1.03349398,12.344373 1.38066265,12.344373 L1.38566265,12.344373 C1.4189759,12.344373 1.74945783,12.3430061 2.18590361,12.3406885 C1.86656627,12.3223258 1.56361446,12.1912316 1.33524096,11.9676107 L1.33524096,11.9676107 Z"></path>
                        </g>
                    </g>
                </g>
                <g id="Group" transform="translate(0.238095, 0.000000)" fill="#000000">
                    <path d="M25.2991406,0.0525 L4.70085937,0.0525 C2.10878906,0.0525 0,2.1947619 0,4.82797619 L0,20.9019048 C0,23.535119 2.10878906,25.677381 4.70085937,25.677381 L6.75210937,25.677381 L6.75210937,27.8665476 C6.75210937,28.6031548 7.12318359,29.2692262 7.74480469,29.6484524 C8.07111328,29.8475 8.43369141,29.9475 8.79714844,29.9475 C9.12603516,29.9475 9.455625,29.8655952 9.75966797,29.701131 L17.1984375,25.6773214 L25.299082,25.6773214 C27.8911523,25.6773214 29.9999414,23.5350595 29.9999414,20.9018452 L29.9999414,4.82797619 C29.9999414,2.1947619 27.8912109,0.0525 25.2991406,0.0525 Z M29.1210937,20.9019048 C29.1210937,23.0427976 27.406582,24.7845238 25.2991406,24.7845238 L17.08875,24.7845238 C17.0167383,24.7845238 16.9457812,24.8025 16.882207,24.8369048 L9.34664062,28.9130357 C8.98154297,29.1105357 8.551875,29.0992857 8.19732422,28.8829762 C7.84271484,28.6666667 7.63101562,28.2866667 7.63101562,27.8665476 L7.63101562,25.2309524 C7.63101562,24.9844048 7.43425781,24.7845238 7.1915625,24.7845238 L4.70085938,24.7845238 C2.59341797,24.7845238 0.87890625,23.0427976 0.87890625,20.9019048 L0.87890625,4.82797619 C0.87890625,2.68708333 2.59341797,0.945357143 4.70085938,0.945357143 L25.2991406,0.945357143 C27.406582,0.945357143 29.1210937,2.68708333 29.1210937,4.82797619 L29.1210937,20.9019048 Z" id="Shape"></path>
                    <path d="M11.4130078,7.54053571 C11.4074414,7.5247619 11.4011719,7.50857143 11.3932617,7.48845238 C11.0919727,6.74565476 10.3865039,6.26565476 9.59378906,6.26565476 C8.80341797,6.26642857 8.09912109,6.74642857 7.79847656,7.48880952 C7.79519531,7.49660714 7.79208984,7.50452381 7.78921875,7.51220238 C7.78646484,7.51863095 7.78382813,7.52517857 7.78136719,7.53172619 L5.04445313,14.8317262 C4.95808594,15.0621429 5.071875,15.3200595 5.29869141,15.4077976 C5.52544922,15.4956548 5.77939453,15.379881 5.86576172,15.1495238 L8.60015625,7.85630952 C8.60232422,7.85089286 8.604375,7.84553571 8.60630859,7.84035714 C8.60771484,7.83708333 8.6090625,7.83386905 8.61041016,7.83053571 C8.77464844,7.42267857 9.16095703,7.15892857 9.59589844,7.1585119 C10.0290234,7.1585119 10.4155078,7.4214881 10.5791602,7.825 C10.5814453,7.83077381 10.5837891,7.83642857 10.5857813,7.84220238 C10.5868945,7.84547619 10.5880664,7.84869048 10.5892383,7.85190476 L14.2723242,17.7652976 C14.4356836,18.2056548 14.215957,18.6991071 13.7823047,18.8652976 C13.6860352,18.9022619 13.5863086,18.9210119 13.4858789,18.9210119 C13.1385352,18.9210119 12.8227148,18.698869 12.6999609,18.3681548 L12.0952734,16.7401786 C12.0307031,16.5664286 11.8669922,16.451369 11.6841211,16.451369 L7.47884766,16.451369 C7.29650391,16.451369 7.13308594,16.5657738 7.06816406,16.7389286 L6.45638672,18.3706548 C6.37664063,18.58375 6.21990234,18.7525 6.01517578,18.8457143 C5.81033203,18.9389881 5.58205078,18.9456548 5.37228516,18.8645238 C5.16263672,18.7834524 4.99658203,18.6242262 4.90470703,18.416131 C4.81283203,18.2080357 4.80626953,17.9761905 4.88613281,17.7631548 L5.240625,16.8167262 C5.32693359,16.58625 5.21302734,16.3283929 4.98621094,16.2407143 C4.75933594,16.1530952 4.50550781,16.26875 4.41919922,16.4991667 L4.06470703,17.4455357 C3.7275,18.3455357 4.17380859,19.356369 5.0596875,19.6989286 C5.25861328,19.7758333 5.46556641,19.8141667 5.67216797,19.8141667 C5.91134766,19.8141667 6.15,19.7627976 6.37470703,19.6604167 C6.79382813,19.4695238 7.11462891,19.1241667 7.27787109,18.6882143 L7.78177734,17.3442262 L11.3803125,17.3442262 L11.8776563,18.6833333 C12.1286719,19.3595238 12.7749609,19.813869 13.4859375,19.813869 C13.6928906,19.813869 13.8971484,19.7757143 14.092793,19.7005952 C14.9794336,19.3607738 15.4289063,18.351369 15.0947461,17.4502381 L11.4130078,7.54053571 Z" id="Path"></path>
                    <path d="M8.45396484,14.7443452 L10.7180273,14.7443452 C10.8622852,14.7443452 10.9974609,14.672381 11.0794922,14.5518452 C11.1615234,14.43125 11.1800977,14.2774405 11.1291797,14.1402976 L10.0023633,11.1069643 C9.93785156,10.9333929 9.77449219,10.8184524 9.59185547,10.8181548 C9.59162109,10.8181548 9.59144531,10.8181548 9.59121094,10.8181548 C9.40886719,10.8181548 9.24544922,10.9325595 9.18052734,11.1057143 L8.04328125,14.1390476 C7.99183594,14.27625 8.01011719,14.4304167 8.09208984,14.5513095 C8.17412109,14.6721429 8.30941406,14.7443452 8.45396484,14.7443452 L8.45396484,14.7443452 Z M9.58927734,12.5239286 L10.0824609,13.8514881 L9.09152344,13.8514881 L9.58927734,12.5239286 Z" id="Shape"></path>
                    <path d="M22.6749023,10.2732738 C22.1433984,9.55089286 21.3948633,9.18458333 20.4500391,9.18458333 L19.0117383,9.18458333 C18.8950781,9.18458333 18.7831641,9.23172619 18.7007227,9.31559524 C18.6182812,9.39946429 18.5721094,9.51321429 18.5722847,9.63178571 C18.5743359,10.8288095 18.5769727,12.517381 18.5769727,13.1989286 C18.5769727,14.0617857 18.5820703,15.814881 18.5851758,16.7830357 C18.5855273,16.9017262 18.6324023,17.0152976 18.7154297,17.0988095 C18.7977539,17.1816071 18.9088477,17.2280357 19.0246289,17.2280357 L19.0274414,17.2280357 C19.7269922,17.2234524 20.2275,17.2185119 20.5149609,17.2133929 C21.3705469,17.1982143 22.1040234,16.8172619 22.6361133,16.1117262 C23.1858398,15.3829167 23.4885352,14.3522619 23.4885352,13.2096429 C23.4885937,12.0291071 23.1996094,10.98625 22.6749023,10.2732738 L22.6749023,10.2732738 Z M21.9384961,15.56875 C21.5648437,16.0641667 21.0942187,16.3101786 20.499668,16.3207143 C20.2795312,16.3246429 19.9317187,16.3284524 19.4626758,16.3320833 C19.4596875,15.3392857 19.4558789,13.9398214 19.4558789,13.1989286 C19.4558789,12.5984524 19.4538281,11.2166667 19.4519531,10.0774405 L20.4500391,10.0774405 C21.1210547,10.0774405 21.6042773,10.3095238 21.970957,10.8078571 C22.3828125,11.3675595 22.6096289,12.2205357 22.6096289,13.2097024 C22.6096875,14.1570833 22.3713281,14.9949405 21.9384961,15.56875 L21.9384961,15.56875 Z" id="Shape"></path>
                    <path d="M24.6364453,9.34458333 C24.4214062,9.45892857 24.3383789,9.72869048 24.4508789,9.94714286 C24.920625,10.858869 25.1689453,11.9870833 25.1689453,13.2097619 C25.1689453,14.726369 24.7431445,16.1256548 23.9699414,17.150119 C23.1271875,18.2674405 21.9105469,18.896131 20.5441406,18.9205357 C19.7739844,18.9341667 17.8322461,18.9419048 17.7492187,18.9419048 C17.5261523,18.9419048 17.3157422,18.8538095 17.1570703,18.6941071 C17.0001562,18.5358929 16.9097461,18.31625 16.9089844,18.0930952 C16.9089844,18.0881548 16.90875,18.0151786 16.9083398,17.8895238 C16.9006055,15.5429167 16.8966797,13.9647619 16.8966797,13.1990476 C16.8966797,12.2706548 16.8917578,9.50458333 16.8901172,8.59559524 L16.8896484,8.33279762 C16.8892969,8.10732143 16.9786523,7.88702381 17.1350977,7.72803571 C17.2937109,7.56654762 17.5049414,7.47761905 17.7298242,7.47761905 L20.4497461,7.47761905 C21.6270703,7.47761905 22.6773633,7.88154762 23.4869531,8.64577381 C23.6647852,8.81363095 23.9428711,8.80321429 24.1080469,8.62255952 C24.2732227,8.44196429 24.2630273,8.15946429 24.0851953,7.99160714 C23.1100781,7.07125 21.8529492,6.5847619 20.4497461,6.5847619 L17.7298242,6.5847619 C17.2696875,6.5847619 16.8375,6.76684524 16.5132422,7.09708333 C16.1930859,7.4222619 16.0099219,7.87327381 16.0106812,8.33357143 L16.0111523,8.59720238 C16.012793,9.5060119 16.0177148,12.2714881 16.0177148,13.1990476 C16.0177148,13.9657738 16.0216406,15.5449405 16.029375,17.8925595 L16.0300195,18.0947024 C16.0316016,18.5545238 16.2166406,19.0039881 16.5381445,19.3282143 C16.8628711,19.654881 17.2929492,19.8348214 17.7538477,19.8348214 C17.8325391,19.8348214 19.7842969,19.8270238 20.559375,19.8133333 C22.1994141,19.7841071 23.6583398,19.031131 24.6673828,17.6933333 C25.5575391,16.5139881 26.0477344,14.9217262 26.0477344,13.2098214 C26.0477344,11.8239881 25.7724023,10.5870238 25.2294727,9.53315476 C25.1170313,9.31464286 24.851543,9.23029762 24.6364453,9.34458333 L24.6364453,9.34458333 Z" id="Path"></path>
                </g>
            </g>
        </g>
    </g>
</svg>