<svg id="Capa_1" enable-background="new 0 0 512 512" height="512" viewBox="0 0 512 512" width="512" xmlns="http://www.w3.org/2000/svg"><g><g><path d="m431.772 12.382h-351.544c-40.167 0-72.728 32.561-72.728 72.728v270.042c0 40.167 32.561 72.728 72.728 72.728h42.508v44.278c0 20.69 22.042 33.926 40.305 24.201l128.608-68.48h140.123c40.167 0 72.728-32.561 72.728-72.728v-270.041c0-40.167-32.561-72.728-72.728-72.728z" fill="#f9f6f9"/><path d="m35.636 85.105v270.047c0 40.165 32.567 72.722 72.732 72.722h-28.146c-40.165 0-72.722-32.557-72.722-72.722v-270.047c0-40.165 32.557-72.732 72.722-72.732h28.146c-40.165 0-72.732 32.568-72.732 72.732z" fill="#dddaec"/><path d="m164.267 495.704-1.225.647c-18.264 9.725-40.312-3.51-40.312-24.195v-44.282h28.146v44.282c0 10.382 5.548 18.891 13.391 23.548z" fill="#dddaec"/><g fill="#bed8fb"><path d="m187.742 133.263c-.076-.2-.154-.399-.235-.597-3.975-9.664-13.29-15.904-23.738-15.904-.009 0-.018 0-.027 0-10.458.01-19.774 6.272-23.733 15.952-.067.164-.132.329-.195.494l-63.431 166.542c-4.294 11.272 1.365 23.891 12.637 28.184 11.271 4.294 23.891-1.365 28.184-12.637l10.44-27.41h71.762l10.321 27.348c3.3 8.747 11.611 14.136 20.437 14.135 2.562 0 5.169-.454 7.708-1.413 11.285-4.259 16.981-16.86 12.722-28.146zm-43.461 110.942 19.409-50.96 19.232 50.96z"/><path d="m415.965 154.927c-15.815-21.156-39.592-32.808-66.951-32.808h-46.427c-5.8 0-11.361 2.307-15.458 6.411-4.097 4.105-6.393 9.671-6.382 15.47.001.631.119 63.277.119 81.741 0 22.546.212 81.627.214 82.221.021 5.793 2.343 11.341 6.454 15.422 4.092 4.062 9.623 6.34 15.386 6.34h.083c1.403-.006 34.516-.133 47.752-.364 25.655-.448 48.487-12.053 64.289-32.678 14.193-18.524 22.009-43.654 22.009-70.761 0-27.988-7.292-52.538-21.088-70.994zm-35.595 115.19c-7.75 10.115-17.971 15.353-30.378 15.57-5.839.102-15.944.184-25.305.244-.062-19.335-.14-46.521-.14-60.189 0-11.453-.045-39.827-.079-59.941h24.547c13.823 0 24.278 4.998 31.964 15.28 7.992 10.691 12.393 26.616 12.393 44.842-.001 17.557-4.618 33.252-13.002 44.194z"/></g><g fill="#9dc6fb"><g><path d="m163.689 193.245 19.232 50.96h14.632l-26.514-70.257z"/><path d="m103.652 327.934c-11.272-4.293-16.931-16.912-12.637-28.184l63.43-166.542c.063-.166.128-.331.195-.494 3.007-7.351 9.106-12.722 16.445-14.89-2.334-.69-4.791-1.062-7.317-1.062-.009 0-.018 0-.027 0-10.458.01-19.774 6.272-23.733 15.952-.067.164-.132.329-.195.494l-63.43 166.542c-4.294 11.272 1.365 23.891 12.637 28.184 5.051 1.924 10.37 1.845 15.092.162-.153-.054-.307-.104-.46-.162z"/><path d="m224.359 315.235-10.321-27.348h-14.632l10.321 27.348c3.3 8.747 11.611 14.135 20.437 14.135 2.429 0 4.897-.424 7.311-1.283-5.835-2.079-10.758-6.601-13.116-12.852z"/></g><g><path d="m380.978 181.081c7.992 10.691 12.393 26.616 12.393 44.842 0 17.557-4.617 33.252-13.001 44.194-7.75 10.115-17.971 15.353-30.378 15.57-2.773.048-6.513.092-10.673.132v.113c9.361-.06 19.466-.142 25.305-.244 12.407-.217 22.628-5.455 30.378-15.57 8.384-10.942 13.001-26.637 13.001-44.194 0-18.226-4.402-34.151-12.394-44.842-7.685-10.282-18.141-15.28-31.964-15.28h-14.632c13.824-.001 24.28 4.997 31.965 15.279z"/><path d="m302.165 323.386c-4.111-4.081-6.433-9.629-6.454-15.422-.002-.594-.214-59.676-.214-82.221 0-18.465-.117-81.11-.119-81.741-.011-5.799 2.285-11.365 6.382-15.47s9.659-6.411 15.458-6.411h-14.632c-5.8 0-11.361 2.306-15.458 6.411s-6.393 9.671-6.382 15.47c.001.631.119 63.276.119 81.741 0 22.546.212 81.627.214 82.221.021 5.793 2.343 11.341 6.454 15.422 4.092 4.062 9.623 6.34 15.386 6.34h.083c.553-.002 6.039-.023 13.284-.062-5.301-.309-10.33-2.515-14.121-6.278z"/></g></g></g><g><path d="m431.772 4.882h-351.544c-44.238 0-80.228 35.99-80.228 80.228v270.042c0 44.238 35.99 80.228 80.228 80.228h35.008v36.778c0 12.375 6.333 23.565 16.942 29.936 5.569 3.344 11.757 5.024 17.96 5.024 5.613 0 11.238-1.376 16.427-4.139l126.955-67.6h138.251c44.238 0 80.228-35.99 80.228-80.228v-270.041c.001-44.238-35.989-80.228-80.227-80.228zm65.228 350.27c0 35.967-29.261 65.228-65.228 65.228h-140.124c-1.229 0-2.44.302-3.525.88l-128.607 68.479c-6.231 3.318-13.564 3.129-19.615-.505-6.052-3.634-9.665-10.018-9.665-17.076v-44.278c0-4.142-3.358-7.5-7.5-7.5h-42.508c-35.967 0-65.228-29.261-65.228-65.228v-270.042c0-35.967 29.261-65.228 65.228-65.228h351.544c35.967 0 65.228 29.261 65.228 65.228z"/><path d="m194.782 130.681c-.095-.265-.202-.537-.337-.875-5.142-12.479-17.182-20.543-30.711-20.543-13.489.013-25.509 8.077-30.64 20.549-.056.131-.109.264-.158.393-.047.108-.092.218-.134.328l-46.71 122.64c-1.474 3.871.468 8.204 4.339 9.678 3.87 1.476 8.204-.469 9.678-4.339l46.667-122.526c.037-.091.072-.181.105-.268.024-.055.047-.109.07-.165 2.803-6.852 9.396-11.283 16.819-11.29 7.392 0 13.988 4.418 16.781 11.197.039.097.079.192.113.289.019.055.039.109.059.163l62.858 166.545c2.788 7.398-.962 15.688-8.363 18.48-1.643.621-3.345.936-5.059.936-5.928 0-11.318-3.732-13.413-9.288l-10.32-27.35c-1.102-2.919-3.896-4.852-7.017-4.852h-71.77c-3.112 0-5.901 1.922-7.009 4.831l-10.441 27.413c-1.361 3.58-4.036 6.415-7.53 7.981-3.496 1.567-7.392 1.679-10.972.316-3.578-1.362-6.412-4.037-7.98-7.533s-1.68-7.391-.317-10.97l6.05-15.9c1.473-3.872-.471-8.204-4.342-9.677-3.872-1.472-8.204.471-9.677 4.342l-6.05 15.899c-5.755 15.12 1.862 32.102 16.981 37.857 3.395 1.292 6.927 1.936 10.453 1.936 4.082 0 8.155-.863 11.99-2.583 7.153-3.207 12.628-9.009 15.414-16.333l8.6-22.579h61.415l8.488 22.497c4.284 11.36 15.314 18.993 27.448 18.993 3.532 0 7.018-.641 10.357-1.903 15.132-5.709 22.803-22.667 17.1-37.806z"/><path d="m144.281 251.705h38.64c2.462 0 4.769-1.209 6.169-3.234 1.4-2.026 1.717-4.61.848-6.914l-19.231-50.96c-1.101-2.916-3.889-4.847-7.006-4.852-.004 0-.007 0-.011 0-3.112 0-5.901 1.922-7.009 4.831l-19.409 50.96c-.878 2.305-.566 4.895.833 6.926 1.4 2.03 3.709 3.243 6.176 3.243zm19.376-37.303 8.417 22.303h-16.912z"/><path d="m386.985 176.591c-9.071-12.136-21.846-18.29-37.971-18.29h-24.547c-1.991 0-3.901.792-5.308 2.201s-2.195 3.32-2.192 5.312c.035 20.11.08 48.478.08 59.928 0 14.496.087 43.948.14 60.213.006 1.994.806 3.902 2.223 5.305 1.405 1.391 3.301 2.171 5.277 2.171h.048c11.939-.077 20.481-.16 25.387-.246 14.602-.255 27.12-6.655 36.201-18.508 9.382-12.244 14.548-29.559 14.548-48.755.001-19.833-4.931-37.353-13.886-49.331zm-12.568 88.964c-6.377 8.323-14.409 12.456-24.556 12.633-3.757.066-9.693.13-17.698.191-.051-16.679-.116-40.19-.116-52.637 0-10.088-.035-33.302-.067-52.441h17.034c11.452 0 19.699 3.899 25.957 12.271 7.029 9.403 10.9 23.733 10.9 40.351.001 15.916-4.067 29.992-11.454 39.632z"/><path d="m420.462 160.989c-3.67 1.921-5.087 6.453-3.167 10.123 8.017 15.317 12.255 34.271 12.255 54.812 0 25.479-7.267 48.987-20.463 66.198-14.383 18.771-35.147 29.333-58.467 29.743-13.144.229-46.283.359-47.7.359-3.807 0-7.398-1.48-10.106-4.163-2.678-2.658-4.221-6.348-4.234-10.097 0-.083-.004-1.309-.011-3.42-.132-39.423-.199-65.936-.199-78.8 0-15.597-.084-62.067-.112-77.338l-.008-4.415c-.006-3.788 1.519-7.489 4.189-10.16 2.707-2.713 6.312-4.207 10.15-4.207h46.42c20.093 0 38.018 6.786 51.835 19.625 3.035 2.82 7.781 2.645 10.6-.39 2.819-3.034 2.645-7.78-.39-10.6-16.642-15.462-38.097-23.635-62.045-23.635h-46.42c-7.853 0-15.229 3.059-20.763 8.607-5.464 5.463-8.59 13.04-8.577 20.773l.008 4.429c.028 15.268.112 61.728.112 77.311 0 12.881.067 39.411.199 78.851l.011 3.396c.027 7.725 3.185 15.276 8.672 20.723 5.542 5.488 12.882 8.511 20.748 8.511 1.343 0 34.653-.131 47.881-.361 27.99-.491 52.889-13.141 70.11-35.616 15.192-19.813 23.558-46.563 23.558-75.323 0-23.282-4.699-44.063-13.965-61.768-1.919-3.671-6.45-5.088-10.121-3.168z"/></g></g></svg>