<?xml version="1.0" encoding="utf-8"?>
<!-- Generator: Adobe Illustrator 24.0.3, SVG Export Plug-In . SVG Version: 6.00 Build 0)  -->
<svg version="1.1" id="Layer_1_1_" xmlns="http://www.w3.org/2000/svg" xmlns:xlink="http://www.w3.org/1999/xlink" x="0px" y="0px"
	 viewBox="0 0 512 512" style="enable-background:new 0 0 512 512;" xml:space="preserve">
<style type="text/css">
	.st0{fill:url(#SVGID_1_);}
	.st1{fill:url(#SVGID_2_);}
	.st2{fill:url(#SVGID_3_);}
	.st3{fill:url(#SVGID_4_);}
</style>
<linearGradient id="SVGID_1_" gradientUnits="userSpaceOnUse" x1="244.4695" y1="-2.1689" x2="271.4695" y2="516.8311">
	<stop  offset="0" style="stop-color:#4CB6EA"/>
	<stop  offset="1" style="stop-color:#5B6DDD"/>
</linearGradient>
<path class="st0" d="M400.6,104c-14.4-33.7-47.6-56-84.6-56c-32.2,0-61.9,17-78.5,44.2C221.2,79.1,201.2,72,180,72
	c-50.7,0-92,41.3-92,92v20H72c-30.9,0-56,25.1-56,56c0,28.2,20.9,51.5,48,55.4V432c0,13.2,10.8,24,24,24h360v-16h-40V295.6
	c49.2-4.1,88-45.4,88-95.6C496,147.3,453.3,104.3,400.6,104L400.6,104z M152,440h-32v-56h32V440z M232,440h-32v-96h32V440z M312,440
	h-32V304h32V440z M360,440V256h32v184H360z M408,279.6V248c0-4.4-3.6-8-8-8h-48c-4.4,0-8,3.6-8,8v192h-16V296c0-4.4-3.6-8-8-8h-48
	c-4.4,0-8,3.6-8,8v144h-16V336c0-4.4-3.6-8-8-8h-48c-4.4,0-8,3.6-8,8v104h-16v-64c0-4.4-3.6-8-8-8h-48c-4.4,0-8,3.6-8,8v64H88
	c-4.4,0-8-3.6-8-8V296h40v-16H72c-22.1,0-40-17.9-40-40s17.9-40,40-40h24c4.4,0,8-3.6,8-8v-28c0-41.9,34.1-76,76-76
	c20.4,0,39.6,8,54,22.6c1.8,1.9,4.5,2.7,7.1,2.3c2.6-0.5,4.8-2.2,5.9-4.5C259.4,81.4,286.5,64,316,64c32.1,0,60.8,20.4,71.6,50.7
	c1.1,3.2,4.2,5.3,7.5,5.3h4.9c44.1,0,80,35.9,80,80C480,241.4,448.4,275.6,408,279.6L408,279.6z"/>
<linearGradient id="SVGID_2_" gradientUnits="userSpaceOnUse" x1="414.3044" y1="-11.0043" x2="441.3044" y2="507.9957">
	<stop  offset="0" style="stop-color:#4CB6EA"/>
	<stop  offset="1" style="stop-color:#5B6DDD"/>
</linearGradient>
<path class="st1" d="M400,144v16c17.6,0,32,14.4,32,32h16C448,165.5,426.5,144,400,144z"/>
<linearGradient id="SVGID_3_" gradientUnits="userSpaceOnUse" x1="428.153" y1="-11.7247" x2="455.153" y2="507.2753">
	<stop  offset="0" style="stop-color:#4CB6EA"/>
	<stop  offset="1" style="stop-color:#5B6DDD"/>
</linearGradient>
<path class="st2" d="M432,208h16v16h-16V208z"/>
<linearGradient id="SVGID_4_" gradientUnits="userSpaceOnUse" x1="239.6261" y1="-1.917" x2="266.6261" y2="517.083">
	<stop  offset="0" style="stop-color:#4CB6EA"/>
	<stop  offset="1" style="stop-color:#5B6DDD"/>
</linearGradient>
<path class="st3" d="M351.8,118.1c-0.6-2.6-2.5-4.7-5-5.6s-5.3-0.5-7.4,1l-56,40c-2.8,2-4,5.6-3,9s4.1,5.6,7.6,5.6h9.5
	c-24.4,33.9-65.1,53.5-107.2,50.9l-45.8-2.9c-2.2-0.2-4.4,0.6-6,2.2s-2.5,3.6-2.5,5.8v64c0,2.2,0.9,4.3,2.5,5.8
	c1.5,1.4,3.5,2.2,5.5,2.2c0.1,0,0.3,0,0.4,0l67.7-3.2c62.7-3,115.7-47.9,128.8-109.3l0.5-2.3l14.2,9.5c2.7,1.8,6.3,1.8,9-0.1
	c2.7-1.9,4-5.3,3.2-8.5L351.8,118.1z M340.4,161.3c-2.2-1.5-5-1.8-7.4-0.8c-2.5,1-4.3,3.1-4.8,5.7l-3,13.8
	c-11.6,54.3-58.5,94-113.9,96.7l-59.3,2.8v-47.1l37.3,2.3c53,3.4,103.9-24.5,129.7-71c1.4-2.5,1.3-5.5-0.1-7.9
	c-1.3-2.2-3.5-3.6-6-3.9l26.2-18.7l8.1,32.5L340.4,161.3z"/>
</svg>
