<svg enable-background="new 0 0 512 512" viewBox="0 0 512 512" xmlns="http://www.w3.org/2000/svg" xmlns:xlink="http://www.w3.org/1999/xlink"><linearGradient id="a"><stop offset="0" stop-color="#4cb6ea"/><stop offset="1" stop-color="#5b6ddd"/></linearGradient><linearGradient id="b" gradientUnits="userSpaceOnUse" x1="244.4695" x2="271.4695" xlink:href="#a" y1="-2.1689" y2="516.8311"/><linearGradient id="c" gradientUnits="userSpaceOnUse" x1="414.3044" x2="441.3044" xlink:href="#a" y1="-11.0043" y2="507.9957"/><linearGradient id="d" gradientUnits="userSpaceOnUse" x1="428.153" x2="455.153" xlink:href="#a" y1="-11.7247" y2="507.2753"/><linearGradient id="e" gradientUnits="userSpaceOnUse" x1="239.6261" x2="266.6261" xlink:href="#a" y1="-1.917" y2="517.083"/><path d="m400.6 104c-14.4-33.7-47.6-56-84.6-56-32.2 0-61.9 17-78.5 44.2-16.3-13.1-36.3-20.2-57.5-20.2-50.7 0-92 41.3-92 92v20h-16c-30.9 0-56 25.1-56 56 0 28.2 20.9 51.5 48 55.4v136.6c0 13.2 10.8 24 24 24h360v-16h-40v-144.4c49.2-4.1 88-45.4 88-95.6 0-52.7-42.7-95.7-95.4-96zm-248.6 336h-32v-56h32zm80 0h-32v-96h32zm80 0h-32v-136h32zm48 0v-184h32v184zm48-160.4v-31.6c0-4.4-3.6-8-8-8h-48c-4.4 0-8 3.6-8 8v192h-16v-144c0-4.4-3.6-8-8-8h-48c-4.4 0-8 3.6-8 8v144h-16v-104c0-4.4-3.6-8-8-8h-48c-4.4 0-8 3.6-8 8v104h-16v-64c0-4.4-3.6-8-8-8h-48c-4.4 0-8 3.6-8 8v64h-16c-4.4 0-8-3.6-8-8v-136h40v-16h-48c-22.1 0-40-17.9-40-40s17.9-40 40-40h24c4.4 0 8-3.6 8-8v-28c0-41.9 34.1-76 76-76 20.4 0 39.6 8 54 22.6 1.8 1.9 4.5 2.7 7.1 2.3 2.6-.5 4.8-2.2 5.9-4.5 12.4-27 39.5-44.4 69-44.4 32.1 0 60.8 20.4 71.6 50.7 1.1 3.2 4.2 5.3 7.5 5.3h4.9c44.1 0 80 35.9 80 80 0 41.4-31.6 75.6-72 79.6z" fill="url(#b)"/><path d="m400 144v16c17.6 0 32 14.4 32 32h16c0-26.5-21.5-48-48-48z" fill="url(#c)"/><path d="m432 208h16v16h-16z" fill="url(#d)"/><path d="m351.8 118.1c-.6-2.6-2.5-4.7-5-5.6s-5.3-.5-7.4 1l-56 40c-2.8 2-4 5.6-3 9s4.1 5.6 7.6 5.6h9.5c-24.4 33.9-65.1 53.5-107.2 50.9l-45.8-2.9c-2.2-.2-4.4.6-6 2.2s-2.5 3.6-2.5 5.8v64c0 2.2.9 4.3 2.5 5.8 1.5 1.4 3.5 2.2 5.5 2.2h.4l67.7-3.2c62.7-3 115.7-47.9 128.8-109.3l.5-2.3 14.2 9.5c2.7 1.8 6.3 1.8 9-.1s4-5.3 3.2-8.5zm-11.4 43.2c-2.2-1.5-5-1.8-7.4-.8-2.5 1-4.3 3.1-4.8 5.7l-3 13.8c-11.6 54.3-58.5 94-113.9 96.7l-59.3 2.8v-47.1l37.3 2.3c53 3.4 103.9-24.5 129.7-71 1.4-2.5 1.3-5.5-.1-7.9-1.3-2.2-3.5-3.6-6-3.9l26.2-18.7 8.1 32.5z" fill="url(#e)"/></svg>