<?xml version="1.0" encoding="utf-8"?>
<!-- Generator: Adobe Illustrator 24.0.3, SVG Export Plug-In . SVG Version: 6.00 Build 0)  -->
<svg version="1.1" id="Calque_1" xmlns="http://www.w3.org/2000/svg" xmlns:xlink="http://www.w3.org/1999/xlink" x="0px" y="0px"
	 viewBox="0 0 512 512" style="enable-background:new 0 0 512 512;" xml:space="preserve">
<style type="text/css">
	.st0{fill:url(#SVGID_1_);stroke:#FFFFFF;stroke-width:5;stroke-miterlimit:10;}
	.st1{fill:url(#SVGID_2_);stroke:#FFFFFF;stroke-width:5;stroke-miterlimit:10;}
	.st2{fill:url(#SVGID_3_);stroke:#FFFFFF;stroke-width:5;stroke-miterlimit:10;}
	.st3{fill:url(#SVGID_4_);stroke:#FFFFFF;stroke-width:5;stroke-miterlimit:10;}
	.st4{fill:url(#SVGID_5_);stroke:#FFFFFF;stroke-width:5;stroke-miterlimit:10;}
	.st5{fill:url(#SVGID_6_);stroke:#FFFFFF;stroke-width:5;stroke-miterlimit:10;}
	.st6{fill:url(#SVGID_7_);stroke:#FFFFFF;stroke-width:5;stroke-miterlimit:10;}
	.st7{fill:url(#SVGID_8_);stroke:#FFFFFF;stroke-width:5;stroke-miterlimit:10;}
	.st8{fill:url(#SVGID_9_);stroke:#FFFFFF;stroke-width:5;stroke-miterlimit:10;}
	.st9{fill:url(#SVGID_10_);stroke:#FFFFFF;stroke-width:5;stroke-miterlimit:10;}
</style>
<linearGradient id="SVGID_1_" gradientUnits="userSpaceOnUse" x1="242.2806" y1="83.9" x2="267.1078" y2="592.3625" gradientTransform="matrix(1 0 0 1 0 -82.0001)">
	<stop  offset="0" style="stop-color:#4CB6EA"/>
	<stop  offset="1" style="stop-color:#5B6DDD"/>
</linearGradient>
<path class="st0" d="M475.2,439.6c19.2,0,34.7-15.6,34.7-34.7V51.8c0-27.4-22.2-49.7-49.7-49.7H51.1C23.7,2.1,1.4,24.4,1.4,51.8
	v353.1c0,19.2,15.6,34.7,34.7,34.7h11v51.1H11.3c-5.5,0-9.9,4.5-9.9,9.9c0,5.5,4.5,9.9,9.9,9.9h488.6c5.5,0,9.9-4.5,9.9-9.9
	c0-5.5-4.5-9.9-9.9-9.9h-35.8v-51.1H475.2z M21.3,51.8C21.3,35.4,34.7,22,51.1,22h409.2c16.4,0,29.8,13.4,29.8,29.8v21.8H22.3
	c-0.3,0-0.7,0-1,0.1V51.8z M110.7,490.7H67v-89.4h43.7V490.7z M221.9,490.7h-43.7V291.5h43.7V490.7z M333.1,490.7h-43.7V375.5h43.7
	V490.7z M454.3,256.8h-63.6c-5.5,0-9.9,4.5-9.9,9.9v50.2c0,5.5,4.5,9.9,9.9,9.9s9.9-4.5,9.9-9.9v-40.2h43.7v214h-43.7v-107
	c0-5.5-4.5-9.9-9.9-9.9s-9.9,4.5-9.9,9.9v107.1H353V365.6c0-5.5-4.5-9.9-9.9-9.9h-63.6c-5.5,0-9.9,4.5-9.9,9.9v125.1h-27.8V281.6
	c0-5.5-4.5-9.9-9.9-9.9h-63.6c-5.5,0-9.9,4.5-9.9,9.9v209.1h-27.8v-99.3c0-5.5-4.5-9.9-9.9-9.9H57c-5.5,0-9.9,4.5-9.9,9.9v28.3h-11
	c-8.1,0-14.8-6.7-14.8-14.8V93.4c0.3,0,0.7,0.1,1,0.1H490v311.4c0,8.1-6.7,14.8-14.8,14.8h-11V266.8
	C464.2,261.3,459.7,256.8,454.3,256.8z"/>
<linearGradient id="SVGID_2_" gradientUnits="userSpaceOnUse" x1="331.6957" y1="79.534" x2="356.523" y2="587.9966" gradientTransform="matrix(1 0 0 1 0 -82.0001)">
	<stop  offset="0" style="stop-color:#4CB6EA"/>
	<stop  offset="1" style="stop-color:#5B6DDD"/>
</linearGradient>
<path class="st1" d="M446.3,37.9H222c-5.5,0-9.9,4.5-9.9,9.9s4.5,9.9,9.9,9.9h224.3c5.5,0,9.9-4.5,9.9-9.9S451.8,37.9,446.3,37.9z"
	/>
<linearGradient id="SVGID_3_" gradientUnits="userSpaceOnUse" x1="102.6871" y1="90.716" x2="127.5144" y2="599.1786" gradientTransform="matrix(1 0 0 1 0 -82.0001)">
	<stop  offset="0" style="stop-color:#4CB6EA"/>
	<stop  offset="1" style="stop-color:#5B6DDD"/>
</linearGradient>
<path class="st2" d="M111.7,40.8c-1.9-1.9-4.4-2.9-7.1-2.9s-5.2,1.1-7.1,2.9c-1.8,1.9-2.9,4.5-2.9,7.1s1.1,5.2,2.9,7.1
	c1.9,1.9,4.4,2.9,7.1,2.9s5.2-1.1,7.1-2.9c1.9-1.9,2.9-4.4,2.9-7.1S113.5,42.6,111.7,40.8z"/>
<linearGradient id="SVGID_4_" gradientUnits="userSpaceOnUse" x1="63.0816" y1="92.6498" x2="87.9088" y2="601.1125" gradientTransform="matrix(1 0 0 1 0 -82.0001)">
	<stop  offset="0" style="stop-color:#4CB6EA"/>
	<stop  offset="1" style="stop-color:#5B6DDD"/>
</linearGradient>
<path class="st3" d="M72,40.8c-1.9-1.8-4.5-2.9-7.1-2.9s-5.2,1.1-7.1,2.9c-1.8,1.9-2.9,4.5-2.9,7.1s1.1,5.2,2.9,7.1
	c1.9,1.9,4.4,2.9,7.1,2.9c2.6,0,5.2-1.1,7.1-2.9c1.9-1.9,2.9-4.4,2.9-7.1S73.8,42.6,72,40.8z"/>
<linearGradient id="SVGID_5_" gradientUnits="userSpaceOnUse" x1="142.3921" y1="88.7773" x2="167.2193" y2="597.24" gradientTransform="matrix(1 0 0 1 0 -82.0001)">
	<stop  offset="0" style="stop-color:#4CB6EA"/>
	<stop  offset="1" style="stop-color:#5B6DDD"/>
</linearGradient>
<path class="st4" d="M151.5,40.8c-1.9-1.9-4.4-2.9-7.1-2.9c-2.6,0-5.2,1.1-7.1,2.9c-1.9,1.9-2.9,4.4-2.9,7.1s1.1,5.2,2.9,7.1
	c1.9,1.9,4.4,2.9,7.1,2.9c2.7,0,5.2-1.1,7.1-2.9c1.9-1.9,2.9-4.4,2.9-7.1S153.3,42.6,151.5,40.8z"/>
<linearGradient id="SVGID_6_" gradientUnits="userSpaceOnUse" x1="373.2679" y1="77.504" x2="398.0952" y2="585.9667" gradientTransform="matrix(1 0 0 1 0 -82.0001)">
	<stop  offset="0" style="stop-color:#4CB6EA"/>
	<stop  offset="1" style="stop-color:#5B6DDD"/>
</linearGradient>
<path class="st5" d="M397.8,345.3c-1.9-1.9-4.4-2.9-7.1-2.9s-5.2,1.1-7.1,2.9c-1.9,1.9-2.9,4.4-2.9,7.1s1.1,5.2,2.9,7.1
	c1.9,1.9,4.4,2.9,7.1,2.9s5.2-1.1,7.1-2.9s2.9-4.4,2.9-7.1C400.6,349.7,399.5,347.1,397.8,345.3z"/>
<linearGradient id="SVGID_7_" gradientUnits="userSpaceOnUse" x1="244.2967" y1="83.8015" x2="269.1239" y2="592.2641" gradientTransform="matrix(1 0 0 1 0 -82.0001)">
	<stop  offset="0" style="stop-color:#4CB6EA"/>
	<stop  offset="1" style="stop-color:#5B6DDD"/>
</linearGradient>
<path class="st6" d="M422.5,137.1c-19.8,0-35.8,16-35.8,35.8c0,7.8,2.6,15.1,6.9,21l-65.9,65.9c-5.2-2.9-11-4.5-17.3-4.5
	c-5.7,0-10.9,1.3-15.7,3.7l-68.9-69c2.9-5.2,4.5-11,4.5-17.3c0-19.8-16-35.8-35.8-35.8s-35.8,16-35.8,35.8c0,6.9,2,13.3,5.4,18.8
	l-58.7,58.7c-5.2-2.9-11-4.5-17.3-4.5c-19.8,0-35.8,16-35.8,35.8s16,35.8,35.8,35.8s35.8-16,35.8-35.8c0-6.3-1.6-12.1-4.5-17.3
	l59.4-59.4c4.8,2.3,10,3.6,15.7,3.6c6.3,0,12.1-1.6,17.3-4.5l68.2,68.2c-3.4,5.5-5.4,11.9-5.4,18.8c0,19.8,16,35.8,35.8,35.8
	s35.8-16,35.8-35.8c0-6.3-1.6-12.1-4.5-17.3l67.7-67.7c4.1,1.6,8.4,2.5,13.1,2.5c19.8,0,35.8-16,35.8-35.8
	C458.2,153.2,442.3,137.1,422.5,137.1L422.5,137.1z M88.1,297.5c-8.7,0-15.9-7.2-15.9-15.9s7.2-15.9,15.9-15.9s15.9,7.2,15.9,15.9
	S97,297.5,88.1,297.5z M194.5,188.7c-8.7,0-15.9-7.2-15.9-15.9s7.2-15.9,15.9-15.9s15.9,7.2,15.9,15.9
	C210.4,181.6,203.2,188.7,194.5,188.7z M310.4,307c-8.7,0-15.9-7.2-15.9-15.9c0-8.7,7.2-15.9,15.9-15.9s15.9,7.2,15.9,15.9
	S319.1,307,310.4,307z M422.5,188.7c-8.7,0-15.9-7.2-15.9-15.9s7.2-15.9,15.9-15.9c8.7,0,15.9,7.2,15.9,15.9
	C438.4,181.6,431.2,188.7,422.5,188.7z"/>
<linearGradient id="SVGID_8_" gradientUnits="userSpaceOnUse" x1="135.2444" y1="89.1262" x2="160.0717" y2="597.5889" gradientTransform="matrix(1 0 0 1 0 -82.0001)">
	<stop  offset="0" style="stop-color:#4CB6EA"/>
	<stop  offset="1" style="stop-color:#5B6DDD"/>
</linearGradient>
<path class="st7" d="M148.7,130.2c-1.9-1.9-4.4-2.9-7.1-2.9c-2.6,0-5.2,1.1-7.1,2.9c-1.9,1.9-2.9,4.4-2.9,7.1c0,2.7,1.1,5.2,2.9,7.1
	c1.9,1.9,4.4,2.9,7.1,2.9c2.6,0,5.2-1.1,7.1-2.9c1.9-1.9,2.9-4.4,2.9-7.1C151.6,134.6,150.6,132,148.7,130.2z"/>
<linearGradient id="SVGID_9_" gradientUnits="userSpaceOnUse" x1="74.648" y1="92.0851" x2="99.4753" y2="600.5478" gradientTransform="matrix(1 0 0 1 0 -82.0001)">
	<stop  offset="0" style="stop-color:#4CB6EA"/>
	<stop  offset="1" style="stop-color:#5B6DDD"/>
</linearGradient>
<path class="st8" d="M104.7,127.2H57c-5.5,0-9.9,4.5-9.9,9.9c0,5.5,4.5,9.9,9.9,9.9h47.7c5.5,0,9.9-4.5,9.9-9.9
	S110.2,127.2,104.7,127.2z"/>
<linearGradient id="SVGID_10_" gradientUnits="userSpaceOnUse" x1="72.3247" y1="92.1985" x2="97.1519" y2="600.6613" gradientTransform="matrix(1 0 0 1 0 -82.0001)">
	<stop  offset="0" style="stop-color:#4CB6EA"/>
	<stop  offset="1" style="stop-color:#5B6DDD"/>
</linearGradient>
<path class="st9" d="M104.7,174.9H57c-5.5,0-9.9,4.5-9.9,9.9s4.5,9.9,9.9,9.9h47.7c5.5,0,9.9-4.5,9.9-9.9S110.2,174.9,104.7,174.9z"
	/>
</svg>
