<svg enable-background="new 0 0 512 512" viewBox="0 0 512 512" xmlns="http://www.w3.org/2000/svg" xmlns:xlink="http://www.w3.org/1999/xlink"><linearGradient id="a"><stop offset="0" stop-color="#4cb6ea"/><stop offset="1" stop-color="#5b6ddd"/></linearGradient><linearGradient id="b" gradientUnits="userSpaceOnUse" x1="105.226" x2="121.226" xlink:href="#a" y1="6.0554" y2="518.0554"/><linearGradient id="c" gradientUnits="userSpaceOnUse" x1="124.6444" x2="140.6444" xlink:href="#a" y1="5.4486" y2="517.4486"/><linearGradient id="d" gradientUnits="userSpaceOnUse" x1="245.7276" x2="261.7276" xlink:href="#a" y1="1.6648" y2="513.6647"/><linearGradient id="e" gradientUnits="userSpaceOnUse" x1="156.2159" x2="172.2159" xlink:href="#a" y1="4.462" y2="516.462"/><path d="m117.8 174.3c-3.9-3.9-10.2-3.9-14.1 0s-3.9 10.2 0 14.1 10.2 3.9 14.1 0c3.9-3.8 3.9-10.1 0-14.1z" fill="url(#b)"/><path d="m253.2 447.7c4.4-6 6.8-13.2 6.8-20.7 0-19.3-15.7-35-35-35h-170c-9.4 0-18.1 3.6-24.7 10.2-6.7 6.6-10.3 15.4-10.3 24.8 0 7.7 2.5 14.9 6.8 20.7-15.9 8.4-26.8 25.1-26.8 44.3v10c0 5.5 4.5 10 10 10h260c5.5 0 10-4.5 10-10v-10c0-19.2-10.9-35.9-26.8-44.3zm-208.8-31.3c2.8-2.8 6.6-4.4 10.6-4.4h170c8.3 0 15 6.7 15 15 0 4-1.6 7.8-4.4 10.6s-6.6 4.4-10.6 4.4h-170c-8.3 0-15-6.7-15-15 0-4 1.6-7.8 4.4-10.6zm-24.4 75.6c0-16.5 13.5-30 30-30h5 170 5c16.5 0 30 13.5 30 30z" fill="url(#c)"/><path d="m502.7 420.1c-3.4-5.3-7.4-9.9-12-13.8l-46.7-40.8c-.4-.5-.8-1.1-1.3-1.6-.8-.8-1.7-1.4-2.7-1.9l-28.3-24.6-130.8-114.1c5.4-5.6 8.3-12.9 8.3-20.7 0-8-3.1-15.6-8.8-21.2-2.5-2.5-5.3-4.4-8.3-5.8l12.1-12.1c3.4.9 6.9 1.4 10.3 1.4 10.2 0 20.5-3.9 28.3-11.7 7.6-7.6 11.7-17.6 11.7-28.3s-4.2-20.7-11.7-28.3l-84.8-84.9c-7.6-7.5-17.6-11.7-28.3-11.7s-20.7 4.2-28.3 11.7c-10.4 10.5-13.9 25.3-10.3 38.6l-120.7 120.8c-3.3-.9-6.8-1.4-10.4-1.4-10.7 0-20.7 4.2-28.3 11.7-15.6 15.6-15.6 41 0 56.6l84.8 84.8c7.8 7.8 18 11.7 28.3 11.7 10.2 0 20.5-3.9 28.3-11.7 10.4-10.4 13.9-25.3 10.3-38.6l12.1-12.1c1.5 3 3.4 5.8 5.9 8.3 5.7 5.7 13.2 8.8 21.2 8.8 7.8 0 15.1-2.9 20.7-8.3l139.3 160.1c.4.6.8 1.2 1.4 1.7.2.2.4.3.6.5l41.5 47.7c1 1.2 2.1 2.4 3.3 3.6 11.4 11.4 26.5 17.6 42.3 17.6 2.8 0 5.6-.2 8.4-.6 18.8-2.6 35.1-13.9 44.6-30.9 10.4-18.8 9.6-42.5-2-60.5zm-307.1-394.2c3.8-3.8 8.8-5.9 14.1-5.9s10.4 2.1 14.1 5.9l84.8 84.8c3.8 3.8 5.9 8.8 5.9 14.1s-2.1 10.4-5.9 14.1c-7.8 7.8-20.5 7.8-28.3 0l-84.9-84.9c-7.6-7.7-7.6-20.3.2-28.1zm-56.6 282.8c-7.8 7.8-20.5 7.8-28.3 0l-84.8-84.8c-7.8-7.8-7.8-20.5 0-28.3 3.8-3.8 8.8-5.9 14.1-5.9s10.4 2.1 14.1 5.8l84.9 84.9c7.8 7.8 7.8 20.5 0 28.3zm42.1-70.4-28 28-84.9-84.9 113.2-113.1 84.9 84.9-28 28c-.1.1-.2.2-.3.3l-56.6 56.5c-.1.1-.2.2-.3.3zm35.7 20.9-7.1 7.1c-1.9 1.9-4.4 2.9-7.1 2.9s-5.2-1-7.1-2.9-2.9-4.4-2.9-7.1c0-2.6 1-5.1 2.8-6.9l56.8-56.8c3.9-3.8 10.2-3.7 14 .1 1.9 1.9 2.9 4.4 2.9 7.1s-1 5.2-2.9 7.1l-7 7s-.1.1-.1.1zm20.7 7.5 29.2-29.2 123.7 107.9-45.2 45.2zm121 139 47.1-47.1 15.1 13.2-49 49zm128.7 65c-6.5 11.5-17.4 19.1-29.9 20.9-12.5 1.7-24.9-2.4-33.8-11.3-.8-.8-1.5-1.6-2.2-2.4 0 0-.1-.1-.1-.1l-36.4-41.8 51-51 41.8 36.4s.1.1.1.1c3.1 2.7 5.9 5.8 8.3 9.5 7.5 11.7 8 27.6 1.2 39.7z" fill="url(#d)"/><path d="m188.5 103.6c-3.9-3.9-10.2-3.9-14.1 0l-42.4 42.4c-3.9 3.9-3.9 10.2 0 14.1 2 2 4.5 2.9 7.1 2.9s5.1-1 7.1-2.9l42.4-42.4c3.8-3.8 3.8-10.2-.1-14.1z" fill="url(#e)"/></svg>