<svg enable-background="new 0 0 938 609" viewBox="0 0 938 609" xmlns="http://www.w3.org/2000/svg"><path d="m938.1 400.2-.1 80.8s-101.5-114.8-455-94.3c0-.1 363.6-74.9 455.1 13.5z" fill="#6493ce"/><path d="m938 256.5s-77.3-43-262.2 19.3c-26.4 8.9-39 13.1-62.5 25.5-33.9 17.9-108.2 54.7-157.4 64.7-1.4.3-2.7.8-4.1.9-9.1.7-31.3 5.1-55.8-6.3 0 0 11.5 10.3 36.9 18.2 28.6 8.9 60.4 10.3 90.5 4.6 77.3-14.8 333.4-56.7 414.7 16.8z" fill="#77a3d7"/><path d="m0 0s207.6 35.3 272.9 104.8 78.8 183.2 78.8 183.2l37.3-251.2-84.1-36.8z" fill="#dbedfb"/><path d="m168 0s123.9 20.7 162.8 110.9c0 0 24.1 43.5 20.7 176.3 0 0 1.9 47.1 43.9 73.5s308.6-360.7 308.6-360.7" fill="#58c4ed"/><path d="m705-.1s-122 45.2-197.8 99c-20.7 14.7-39.9 32-53.4 53.5-39.4 62.4-23.3 96.6-26.9 135.5-6.4 42.8-8 61-29 73 0 0 42.4.5 81.4-26.4 0 0 63.1-28.1 119-87.7 55.9-59.5 77.4-115 208.2-123.3 0 0 69.4-3.9 131.5 12.2v-135.7z" fill="#65c8f3"/><path d="m938.1 136.2s-110.7-32.8-213.3 1.2c-31.7 10.6-59.2 28.3-77.6 49.9-29 34.1-88 101.8-132.4 126.3-60.7 33.7-64.4 40.9-118.8 47.5 0 0 30.8 23.8 121.9-11.8 0 0 65.8-28.4 98.5-48.1s150-55 206.9-56.7c57-1.7 68.8-3.7 114.7 12.4z" fill="#59bbeb"/></svg>