<?xml version="1.0" encoding="utf-8"?>
<!-- Generator: Adobe Illustrator 24.0.3, SVG Export Plug-In . SVG Version: 6.00 Build 0)  -->
<svg version="1.1" id="Calque_1" xmlns="http://www.w3.org/2000/svg" xmlns:xlink="http://www.w3.org/1999/xlink" x="0px" y="0px"
	 viewBox="0 0 938 609" style="enable-background:new 0 0 938 609;" xml:space="preserve">
<style type="text/css">
	.st0{fill:#6493CE;}
	.st1{fill:#77A3D7;}
	.st2{fill:#DBEDFB;}
	.st3{fill:#58C4ED;}
	.st4{fill:#65C8F3;}
	.st5{fill:#59BBEB;}
</style>
<title>background</title>
<g id="Page-1">
	<g id="Home-desktop" transform="translate(-492.000000, -0.000000)">
		<g id="background" transform="translate(492.000000, 0.000000)">
			<path id="Path_1_" class="st0" d="M938,400.1V481c0,0-101.5-114.8-455-94.3C483,386.6,846.5,311.7,938,400.1z"/>
			<path id="Path_2_" class="st1" d="M937.9,256.5c0,0-77.2-43-262.1,19.3c-26.4,8.9-39,13.1-62.5,25.5
				C579.4,319.2,505.1,356,455.9,366c-1.4,0.3-2.7,0.8-4.1,0.9c-9.1,0.7-31.3,5.1-55.8-6.3c0,0,11.5,10.3,36.9,18.2
				c28.6,8.9,60.4,10.3,90.5,4.6c77.3-14.8,333.3-56.7,414.6,16.8L937.9,256.5L937.9,256.5z"/>
			<path id="Path_3_" class="st2" d="M0,0c0,0,207.6,35.3,272.9,104.8S351.7,288,351.7,288L389,36.8L304.9,0H0z"/>
			<path id="Path_4_" class="st3" d="M168,0c0,0,123.9,20.7,162.8,110.9c0,0,24.1,43.5,20.7,176.3c0,0,1.9,47.1,43.9,73.5
				S704,0,704,0"/>
			<path id="Path_5_" class="st4" d="M704.1,0c0,0-122,45.2-197.8,99c-20.7,14.7-39.9,32-53.4,53.5c-39.4,62.4-23.3,96.6-26.9,135.5
				c-6.4,42.8-8,61-29,73c0,0,42.4,0.5,81.4-26.4c0,0,63.1-28.1,119-87.7c55.9-59.5,77.4-115,208.2-123.3c0,0,69.4-3.9,131.5,12.2
				V0.1L704.1,0z"/>
			<path id="Path_6_" class="st5" d="M938,136.2c0,0-110.7-32.8-213.3,1.2c-31.7,10.6-59.2,28.3-77.6,49.9
				c-29,34.1-88,101.8-132.4,126.3c-60.7,33.7-64.4,40.9-118.8,47.5c0,0,30.8,23.8,121.9-11.8c0,0,65.8-28.4,98.5-48.1
				s150-55,206.9-56.7c57-1.7,68.8-3.7,114.7,12.4L938,136.2L938,136.2z"/>
		</g>
	</g>
</g>
</svg>
