<svg height="116" viewBox="0 0 55 116" width="55" xmlns="http://www.w3.org/2000/svg" xmlns:xlink="http://www.w3.org/1999/xlink"><linearGradient id="a"><stop offset=".001370142" stop-color="#5d72d9"/><stop offset="1" stop-color="#52bbeb"/></linearGradient><linearGradient id="b" x1="50.000206%" x2="50.000206%" xlink:href="#a" y1="99.374483%" y2="-.344807%"/><linearGradient id="c" x1="49.751015%" x2="49.751015%" xlink:href="#a" y1="1601.29444%" y2="-67.863072%"/><g fill="none" transform="translate(0 1.074468)"><path d="m49.6854441 83.4780505v-53.149551c2.9399671-.0890277 5.3145559-2.4705193 5.3145559-5.3861773 0-2.7153455-2.0353618-4.9632956-4.7039474-5.3416634-1.4699835-11.15072236-11.1944901-19.67512689-22.7960526-19.67512689-4.7491776 0-9.3174342 1.42444358-13.2072368 4.09527529-.7689145.53416634-.9498356 1.58024209-.4070724 2.33697774.5427631.75673565 1.6056743.9347911 2.3745888.40062476 3.3018092-2.27020695 7.1916118-3.49433815 11.2397204-3.49433815 9.7018914 0 17.8885691 7.01093325 19.3585526 16.29207345h-38.71710523c.49753289-3.0714565 1.71875-5.9871145 3.61842103-8.4798907.5653783-.7344787.4070724-1.78055448-.3618421-2.33697775-.7689145-.55642328-1.80921051-.40062476-2.3745888.33385396-.15830592.20031238-.29399671.40062476-.4296875.60093713-2.10320724 2.96017186-3.41488487 6.36548226-3.88980263 9.94884806-2.6459704.3783679-4.70394737 2.6263179-4.70394737 5.3416635 0 2.9156579 2.37458882 5.2971495 5.31455592 5.3861772v53.149551c-2.9399671.0890277-5.31455592 2.4705193-5.31455592 5.3861773 0 2.7153455 2.03536184 4.9632956 4.70394737 5.3416634 1.46998355 11.1507219 11.21710523 19.6973839 22.79605263 19.6973839s21.3260691-8.524405 22.7960526-19.6973839c2.6459704-.3783678 4.7039474-2.6263179 4.7039474-5.3416634 0-2.9379149-2.3745888-5.3194065-5.3145559-5.4084342zm-23.3388158-9.3033971c-.6558388-.645451-1.7413651-.645451-2.397204 0l-9.453125 9.3033971h-5.78947364v-5.6977743l37.58634864-36.9910192v11.4178056l-17.5493421 17.2713783c-.6106085.6009372-.6558388 1.624756-.0904605 2.270207.6332237.7344787 1.8092105.7789926 2.4876645.0890277l15.129523-14.8898868v11.4178056l-15.3782895 15.1124561h-11.6015625l7.0559211-6.9441625c.6558388-.645451.6558388-1.7137837 0-2.3592346zm-7.0559211-43.8461539-10.58388154 10.4162437v-10.4162437zm9.4078948 9.2588833c.6558388.645451 1.7413651.645451 2.3972039 0l9.3852796-9.2366264h5.7894737v5.6977743l-37.56373354 36.9910192v-11.4178056l17.59457234-17.3158922c.6558388-.645451.6558388-1.7137837 0-2.3592347s-1.7413651-.645451-2.3972039 0l-15.17475331 14.9344007v-11.4178056l15.40090461-15.1569699h11.6015625l-6.9880757 6.8773916c-.701069.6899649-.701069 1.7360406-.0452302 2.4037486zm17.5945723 33.4521671v10.4162436h-10.5838815zm-42.90090456-48.0972277c0-1.1351034.92722039-2.0476376 2.0805921-2.0476376h44.05427636c1.1533717 0 2.0805921.9125342 2.0805921 2.0476376 0 1.1351035-.9272204 2.0476377-2.0805921 2.0476377h-44.05427636c-1.15337171 0-2.0805921-.9125342-2.0805921-2.0476377zm24.10773026 85.6001558c-9.7018914 0-17.88856908-7.03319-19.35855263-16.292073h38.71710523c-1.4699835 9.258883-9.6566612 16.292073-19.3585526 16.292073zm22.0271382-19.6306126h-44.05427636c-1.15337171 0-2.0805921-.9125342-2.0805921-2.0476377 0-1.1351034.92722039-2.0476376 2.0805921-2.0476376h44.05427636c1.1533717 0 2.0805921.9125342 2.0805921 2.0476376 0 1.1351035-.9272204 2.0476377-2.0805921 2.0476377z" fill="url(#b)"/><path d="m14.2173913 4.92553191c-2.4811594 1.55555556-5.2173913 5.05555556-5.2173913 5.05555556l2.8753623 1.94444443s1.7855073-2.69934639 5.1246377-4.71241829" fill="url(#c)"/></g></svg>