<svg enable-background="new 0 0 512 512" viewBox="0 0 512 512" xmlns="http://www.w3.org/2000/svg" xmlns:xlink="http://www.w3.org/1999/xlink"><linearGradient id="a" gradientUnits="userSpaceOnUse" x1="260.8571" x2="254.857" y1="-.01342" y2="510.9866"><stop offset=".001225224" stop-color="#4db5e8"/><stop offset="1" stop-color="#5567ae"/></linearGradient><path d="m485.3 437.4h-13.2c-9.1-21.7-9.1-42.9 0-64.5h13.2c14.7 0 26.7-12 26.7-26.7s-12-26.7-26.7-26.7h-53c6.8-7.7 10.9-17.8 10.9-28.8v-83.5c0-24.2-19.7-43.8-43.8-43.8h-21.6c1.8-3.6 2.9-7.8 2.9-12.1 0-15-12.2-27.1-27.1-27.1h-7.4c-6.6-16.4-6.6-32.4 0-48.6h7.4c15 0 27.1-12.2 27.1-27.1 0-15-12.2-27.1-27.1-27.1h-253c-43.3 0-78.6 35.2-78.6 78.5 0 20.9 8.2 40.7 23 55.5 3 3 6.1 5.6 9.4 8h-5.8c-14.7 0-26.7 12-26.7 26.7s12 26.7 26.7 26.7h13.2c9.1 21.6 9.1 42.8 0 64.5h-13.2c-14.7 0-26.7 12-26.7 26.7 0 5.6 1.8 10.8 4.7 15.1-15.6 6.6-26.6 22.2-26.6 40.3v83.5c0 24.2 19.6 43.8 43.8 43.8h441.5c14.7 0 26.7-12 26.7-26.7 0-14.6-12-26.6-26.7-26.6zm0-102.8c6.4 0 11.7 5.2 11.7 11.7s-5.2 11.7-11.7 11.7h-135.3c-4.1 0-7.5 3.4-7.5 7.5s3.4 7.5 7.5 7.5h106.1c-2.9 8.2-4.7 16.5-5.4 24.8 0 0-3 14.8 5.4 39.8h-400.6c-1.2 0-2.2-1-2.2-2.2v-60.2c0-1.2 1-2.2 2.2-2.2h74.3v24.6c-.5 7.4 3.1 10.3 5.3 11.4s6.8 2.2 12.5-3c0 0 .1-.1.1-.1l21-20 21 20s.1.1.1.1c3.3 3 6.3 3.9 8.6 3.9 1.7 0 3-.5 3.9-.9 2.2-1.1 5.8-4 5.3-11.4v-24.6h105.4c4.1 0 7.5-3.4 7.5-7.5s-3.4-7.5-7.5-7.5h-105.3v-23.3zm-402-93.1c-.7-8.3-2.5-16.5-5.4-24.8h309.8c1.2 0 2.2 1 2.2 2.2v60.2c0 1.2-1 2.2-2.2 2.2h-180v-24.8h52.5c4.1 0 7.5-3.4 7.5-7.5s-3.4-7.5-7.5-7.5zm46.5 39.7h-52c2.9-8.2 4.8-16.5 5.4-24.8h46.5zm62.9-24.7-.1 131.4-18.7-17.9c-2.9-2.8-7.5-2.8-10.4 0l-18.8 17.9v-131.4zm-155.8-156.7c0-35 28.5-63.5 63.6-63.5h253c6.7 0 12.1 5.4 12.1 12.1s-5.4 12.1-12.1 12.1h-138.2c-4.1 0-7.5 3.4-7.5 7.5s3.4 7.5 7.5 7.5h114.8c-5.3 16.1-5.3 32.4 0 48.6h-229.6c-6.4 0-12.6-2.5-17.2-7.1s-7.2-10.7-7.2-17.2c0-13.4 10.9-24.3 24.3-24.3h77.8c4.1 0 7.5-3.4 7.5-7.5s-3.4-7.5-7.5-7.5h-77.8c-21.7 0-39.3 17.6-39.3 39.3 0 10.4 4.1 20.3 11.5 27.8 7.5 7.4 17.3 11.5 27.8 11.5h253c6.7 0 12.1 5.4 12.1 12.1s-5.4 12.1-12.1 12.1h-253c-16.9 0-32.9-6.6-44.9-18.7-11.9-11.9-18.6-27.9-18.6-44.8zm11.7 101.9c-6.4 0-11.7-5.2-11.7-11.7 0-6.4 5.2-11.7 11.7-11.7h350.7c15.9 0 28.8 12.9 28.8 28.8v83.5c0 15.9-12.9 28.8-28.8 28.8h-191.6v-23.3h180c9.5 0 17.2-7.7 17.2-17.2v-60.2c0-9.5-7.7-17.2-17.2-17.2zm0 94.5h81.2v23.3h-81.2c-6.4 0-11.7-5.2-11.7-11.7 0-6.3 5.3-11.6 11.7-11.6zm436.7 179.5h-441.5c-15.9 0-28.8-12.9-28.8-28.8v-83.5c0-15.9 12.9-28.8 28.8-28.8h86v23.3h-74.3c-9.5 0-17.2 7.7-17.2 17.2v60.2c0 9.5 7.7 17.2 17.2 17.2h429.9c6.4 0 11.7 5.2 11.7 11.7s-5.3 11.5-11.8 11.5z" fill="url(#a)"/></svg>