<?xml version="1.0" encoding="utf-8"?>
<!-- Generator: Adobe Illustrator 24.0.3, SVG Export Plug-In . SVG Version: 6.00 Build 0)  -->
<svg version="1.1" id="Capa_1" xmlns="http://www.w3.org/2000/svg" xmlns:xlink="http://www.w3.org/1999/xlink" x="0px" y="0px"
	 viewBox="0 0 512 512" style="enable-background:new 0 0 512 512;" xml:space="preserve">
<style type="text/css">
	.st0{fill:url(#SVGID_1_);}
</style>
<g>
	<linearGradient id="SVGID_1_" gradientUnits="userSpaceOnUse" x1="260.8571" y1="-1.342026e-02" x2="254.857" y2="510.9866">
		<stop  offset="1.225224e-03" style="stop-color:#4DB5E8"/>
		<stop  offset="1" style="stop-color:#5567AE"/>
	</linearGradient>
	<path class="st0" d="M485.3,437.4h-13.2c-9.1-21.7-9.1-42.9,0-64.5h13.2c14.7,0,26.7-12,26.7-26.7c0-14.7-12-26.7-26.7-26.7h-53
		c6.8-7.7,10.9-17.8,10.9-28.8v-83.5c0-24.2-19.7-43.8-43.8-43.8h-21.6c1.8-3.6,2.9-7.8,2.9-12.1c0-15-12.2-27.1-27.1-27.1h-7.4
		c-6.6-16.4-6.6-32.4,0-48.6h7.4c15,0,27.1-12.2,27.1-27.1c0-15-12.2-27.1-27.1-27.1h-253c-43.3,0-78.6,35.2-78.6,78.5
		c0,20.9,8.2,40.7,23,55.5c3,3,6.1,5.6,9.4,8h-5.8c-14.7,0-26.7,12-26.7,26.7s12,26.7,26.7,26.7h13.2c9.1,21.6,9.1,42.8,0,64.5H48.6
		c-14.7,0-26.7,12-26.7,26.7c0,5.6,1.8,10.8,4.7,15.1C11,329.7,0,345.3,0,363.4v83.5c0,24.2,19.6,43.8,43.8,43.8h441.5
		c14.7,0,26.7-12,26.7-26.7C512,449.4,500,437.4,485.3,437.4L485.3,437.4z M485.3,334.6c6.4,0,11.7,5.2,11.7,11.7
		s-5.2,11.7-11.7,11.7H350c-4.1,0-7.5,3.4-7.5,7.5s3.4,7.5,7.5,7.5h106.1c-2.9,8.2-4.7,16.5-5.4,24.8c0,0-3,14.8,5.4,39.8H55.5
		c-1.2,0-2.2-1-2.2-2.2v-60.2c0-1.2,1-2.2,2.2-2.2h74.3l0,24.6c-0.5,7.4,3.1,10.3,5.3,11.4c2.2,1.1,6.8,2.2,12.5-3
		c0,0,0.1-0.1,0.1-0.1l21-20l21,20c0,0,0.1,0.1,0.1,0.1c3.3,3,6.3,3.9,8.6,3.9c1.7,0,3-0.5,3.9-0.9c2.2-1.1,5.8-4,5.3-11.4l0-24.6
		h105.4c4.1,0,7.5-3.4,7.5-7.5s-3.4-7.5-7.5-7.5H207.7l0-23.3L485.3,334.6L485.3,334.6z M83.3,241.5c-0.7-8.3-2.5-16.5-5.4-24.8
		h309.8c1.2,0,2.2,1,2.2,2.2v60.2c0,1.2-1,2.2-2.2,2.2h-180l0-24.8h52.5c4.1,0,7.5-3.4,7.5-7.5s-3.4-7.5-7.5-7.5L83.3,241.5
		L83.3,241.5z M129.8,281.2H77.8c2.9-8.2,4.8-16.5,5.4-24.8h46.5L129.8,281.2z M192.7,256.5l-0.1,131.4L173.9,370
		c-2.9-2.8-7.5-2.8-10.4,0l-18.8,17.9l0-131.4L192.7,256.5L192.7,256.5z M36.9,99.8c0-35,28.5-63.5,63.6-63.5h253
		c6.7,0,12.1,5.4,12.1,12.1c0,6.7-5.4,12.1-12.1,12.1H215.3c-4.1,0-7.5,3.4-7.5,7.5s3.4,7.5,7.5,7.5h114.8
		c-5.3,16.1-5.3,32.4,0,48.6H100.5c-6.4,0-12.6-2.5-17.2-7.1c-4.6-4.6-7.2-10.7-7.2-17.2c0-13.4,10.9-24.3,24.3-24.3h77.8
		c4.1,0,7.5-3.4,7.5-7.5s-3.4-7.5-7.5-7.5h-77.8c-21.7,0-39.3,17.6-39.3,39.3c0,10.4,4.1,20.3,11.5,27.8
		c7.5,7.4,17.3,11.5,27.8,11.5h253c6.7,0,12.1,5.4,12.1,12.1c0,6.7-5.4,12.1-12.1,12.1h-253c-16.9,0-32.9-6.6-44.9-18.7
		C43.6,132.7,36.9,116.7,36.9,99.8L36.9,99.8z M48.6,201.7c-6.4,0-11.7-5.2-11.7-11.7c0-6.4,5.2-11.7,11.7-11.7h350.7
		c15.9,0,28.8,12.9,28.8,28.8v83.5c0,15.9-12.9,28.8-28.8,28.8H207.7l0-23.3h180c9.5,0,17.2-7.7,17.2-17.2v-60.2
		c0-9.5-7.7-17.2-17.2-17.2L48.6,201.7L48.6,201.7z M48.6,296.2h81.2l0,23.3H48.6c-6.4,0-11.7-5.2-11.7-11.7
		C36.9,301.5,42.2,296.2,48.6,296.2L48.6,296.2z M485.3,475.7H43.8c-15.9,0-28.8-12.9-28.8-28.8v-83.5c0-15.9,12.9-28.8,28.8-28.8
		h86l0,23.3H55.5c-9.5,0-17.2,7.7-17.2,17.2v60.2c0,9.5,7.7,17.2,17.2,17.2h429.9c6.4,0,11.7,5.2,11.7,11.7S491.8,475.7,485.3,475.7
		L485.3,475.7z"/>
</g>
</svg>
