<svg enable-background="new 0 0 512 512" viewBox="0 0 512 512" xmlns="http://www.w3.org/2000/svg" xmlns:xlink="http://www.w3.org/1999/xlink"><linearGradient id="a"><stop offset="0" stop-color="#4cb6ea"/><stop offset="1" stop-color="#5b6ddd"/></linearGradient><linearGradient id="b" gradientUnits="userSpaceOnUse" x1="255.5781" x2="256.5781" xlink:href="#a" y1="-.018707" y2="511.9813"/><linearGradient id="c" gradientUnits="userSpaceOnUse" x1="159.0472" x2="160.0472" xlink:href="#a" y1=".1698" y2="512.1698"/><path d="m488 368c4.4 0 8-3.6 8-8v-64c0-4.4-3.6-8-8-8h-112v-48h32c4.4 0 8-3.6 8-8v-64c0-4.4-3.6-8-8-8s-8 3.6-8 8v56h-80v-18.8l42-3.8c13.2-1.2 22.9-12.9 21.7-26.1-.3-3.5-1.4-6.8-3.1-9.8l-7.6-13.2c7.1-5.2 10.7-13.9 9.4-22.6l-3.1-21.2c-.5-3.2 1.1-6.4 3.9-8.1l4.5-2.6c3.2 5.5 8.4 9.6 14.6 11.2 2 .5 4.1.8 6.2.8 4.2 0 8.3-1.1 12-3.2l55.4-32c11.5-6.6 15.4-21.3 8.8-32.8l-8-13.9c-6.6-11.5-21.3-15.4-32.8-8.8l-55.4 32c-11.5 6.6-15.4 21.3-8.8 32.8l-4.5 2.6c-8.5 4.9-13.2 14.5-11.8 24.2l3.1 21.2c.3 2.2-.3 4.4-1.8 6.2l-7.2-12.5c-6.6-11.5-21.3-15.4-32.8-8.8-3 1.7-5.6 4.1-7.6 6.9l-25.4 36.3h-3.7v-56c0-4.4-3.6-8-8-8h-56v-56c0-4.4-3.6-8-8-8h-32c-4.4 0-8 3.6-8 8s3.6 8 8 8h24v48h-66.1c-3.8-5.4-8.5-10.1-13.9-13.9v-34.1h24c4.4 0 8-3.6 8-8s-3.6-8-8-8h-128c-4.4 0-8 3.6-8 8v96c0 4.4 3.6 8 8 8s8-3.6 8-8v-48h32c4.4 0 8-3.6 8-8s-3.6-8-8-8h-32v-24h80v26.4c-5.2-1.6-10.6-2.4-16-2.4-4.4 0-8 3.6-8 8s3.6 8 8 8c22.1 0 40 17.9 40 40v28c0 28.7 23.3 52 52 52 19.9 0 36 16.1 36 36v7.5c0 4.4 3.6 8 8 8s8-3.6 8-8v-7.5c0-1.4-.1-2.7-.2-4h24.2v48h-13.4c-2.2-3.5-4.2-7.2-5.7-11-1.5-4.1-6.2-6.2-10.3-4.7s-6.2 6.2-4.7 10.3c0 .1.1.2.1.4 12.8 32.1 43.9 53.1 78.4 53 33.4 0 60.5 27.1 60.5 60.5 0 4-.4 7.9-1.2 11.8l-15.6 78.1c-.9 4.3 1.9 8.6 6.2 9.4.5.1 1.1.2 1.6.2h48c4.4 0 8-3.6 8-8v-56h64v48h-40c-4.4 0-8 3.6-8 8s3.6 8 8 8h48c4.4 0 8-3.6 8-8v-64c0-4.4-3.6-8-8-8h-24v-48zm-91.4-302.9 55.4-32c1.2-.7 2.6-1.1 4-1.1.7 0 1.4.1 2.1.3 2 .6 3.8 1.9 4.8 3.7l8 13.9c1.1 1.8 1.4 4 .8 6.1-.5 2.1-1.9 3.8-3.7 4.9l-55.4 32c-1.8 1.1-4 1.3-6.1.8-2-.5-3.8-1.9-4.8-3.7l-8-13.9c-2.3-3.9-1-8.8 2.9-11zm83.4 286.9h-64v-48h64zm-181.3-174.1 31.6-44.8c1.5-2.1 3.9-3.4 6.5-3.4h.4c2.7.1 5.2 1.6 6.6 4l7.5 13-13.9 8c-3.8 2.2-5.1 7.1-2.9 10.9s7.1 5.1 10.9 2.9l13.9-8 7.5 13c2.2 3.8.9 8.7-2.9 10.9-1 .6-2.2 1-3.3 1.1l-54.6 5c-4.4.4-8.3-2.8-8.7-7.2-.2-1.9.3-3.8 1.4-5.4zm-26.7-65.9v48h-80v-48zm-96 0v48h-23.6c-.2-1.3-.3-2.7-.4-4v-28c0-5.4-.8-10.8-2.4-16zm-17.9 64h49.9v20c-6.3-2.6-13.1-4-20-4-12 0-23.2-6-29.9-16zm77.9 48c-2.8-6.6-6.9-12.5-12-17.4v-30.6h58.1c-3.6 12.7 3.7 25.8 16.4 29.4 1.8.5 3.6.8 5.5.9v17.7zm44 16h80v48h-80zm24 79.7c-14.5-.9-28.3-6.4-39.4-15.7h39.4zm16 1.3v-17h80v48h-29.5c-1-1.3-1.9-2.7-2.9-4-12-14.6-28.9-24.2-47.6-27zm49.8 159 9.6-48h20.6v48zm78.2-64h-65.4l.9-4.5c2.9-14.6 1.5-29.7-4.1-43.5h68.6z" fill="url(#b)"/><path d="m296 480h-272c-4.4 0-8 3.6-8 8s3.6 8 8 8h272c4.4 0 8-3.6 8-8s-3.6-8-8-8z" fill="url(#c)"/></svg>