<?xml version="1.0" encoding="utf-8"?>
<!-- Generator: Adobe Illustrator 24.0.3, SVG Export Plug-In . SVG Version: 6.00 Build 0)  -->
<svg version="1.1" id="Calque_1" xmlns="http://www.w3.org/2000/svg" xmlns:xlink="http://www.w3.org/1999/xlink" x="0px" y="0px"
	 viewBox="0 0 512 512" style="enable-background:new 0 0 512 512;" xml:space="preserve">
<style type="text/css">
	.st0{fill:url(#SVGID_1_);}
	.st1{fill:url(#SVGID_2_);}
</style>
<g id="Outline">
	<linearGradient id="SVGID_1_" gradientUnits="userSpaceOnUse" x1="255.5781" y1="-1.870720e-02" x2="256.5781" y2="511.9813">
		<stop  offset="0" style="stop-color:#4CB6EA"/>
		<stop  offset="1" style="stop-color:#5B6DDD"/>
	</linearGradient>
	<path class="st0" d="M488,368c4.4,0,8-3.6,8-8v-64c0-4.4-3.6-8-8-8H376v-48h32c4.4,0,8-3.6,8-8v-64c0-4.4-3.6-8-8-8s-8,3.6-8,8v56
		h-80v-18.8l42-3.8c13.2-1.2,22.9-12.9,21.7-26.1c-0.3-3.5-1.4-6.8-3.1-9.8l-7.6-13.2c7.1-5.2,10.7-13.9,9.4-22.6l-3.1-21.2
		c-0.5-3.2,1.1-6.4,3.9-8.1l4.5-2.6c3.2,5.5,8.4,9.6,14.6,11.2c2,0.5,4.1,0.8,6.2,0.8c4.2,0,8.3-1.1,12-3.2l55.4-32l0,0
		c11.5-6.6,15.4-21.3,8.8-32.8c0,0,0,0,0,0l-8-13.9c-6.6-11.5-21.3-15.4-32.8-8.8c0,0,0,0,0,0l-55.4,32
		c-11.5,6.6-15.4,21.3-8.8,32.8c0,0,0,0,0,0l-4.5,2.6c-8.5,4.9-13.2,14.5-11.8,24.2l3.1,21.2c0.3,2.2-0.3,4.4-1.8,6.2l-7.2-12.5
		c-6.6-11.5-21.3-15.4-32.8-8.8c-3,1.7-5.6,4.1-7.6,6.9L291.7,160H288v-56c0-4.4-3.6-8-8-8h-56V40c0-4.4-3.6-8-8-8h-32
		c-4.4,0-8,3.6-8,8s3.6,8,8,8h24v48h-66.1c-3.8-5.4-8.5-10.1-13.9-13.9V48h24c4.4,0,8-3.6,8-8s-3.6-8-8-8H24c-4.4,0-8,3.6-8,8v96
		c0,4.4,3.6,8,8,8s8-3.6,8-8V88h32c4.4,0,8-3.6,8-8s-3.6-8-8-8H32V48h80v26.4c-5.2-1.6-10.6-2.4-16-2.4c-4.4,0-8,3.6-8,8s3.6,8,8,8
		c22.1,0,40,17.9,40,40v28c0,28.7,23.3,52,52,52c19.9,0,36,16.1,36,36v7.5c0,4.4,3.6,8,8,8s8-3.6,8-8V244c0-1.4-0.1-2.7-0.2-4H264
		v48h-13.4c-2.2-3.5-4.2-7.2-5.7-11c-1.5-4.1-6.2-6.2-10.3-4.7c-4.1,1.5-6.2,6.2-4.7,10.3c0,0.1,0.1,0.2,0.1,0.4
		c12.8,32.1,43.9,53.1,78.4,53c33.4,0,60.5,27.1,60.5,60.5c0,4-0.4,7.9-1.2,11.8l-15.6,78.1c-0.9,4.3,1.9,8.6,6.2,9.4
		c0.5,0.1,1.1,0.2,1.6,0.2h48c4.4,0,8-3.6,8-8v-56h64v48h-40c-4.4,0-8,3.6-8,8s3.6,8,8,8h48c4.4,0,8-3.6,8-8v-64c0-4.4-3.6-8-8-8
		h-24v-48H488z M396.6,65.1l55.4-32c1.2-0.7,2.6-1.1,4-1.1c0.7,0,1.4,0.1,2.1,0.3c2,0.6,3.8,1.9,4.8,3.7l8,13.9
		c1.1,1.8,1.4,4,0.8,6.1c-0.5,2.1-1.9,3.8-3.7,4.9l0,0l-55.4,32c-1.8,1.1-4,1.3-6.1,0.8c-2-0.5-3.8-1.9-4.8-3.7l-8-13.9
		C391.4,72.2,392.7,67.3,396.6,65.1C396.6,65.1,396.6,65.1,396.6,65.1z M480,352h-64v-48h64V352z M298.7,177.9l31.6-44.8
		c1.5-2.1,3.9-3.4,6.5-3.4h0.4c2.7,0.1,5.2,1.6,6.6,4l7.5,13l-13.9,8c-3.8,2.2-5.1,7.1-2.9,10.9c2.2,3.8,7.1,5.1,10.9,2.9l13.9-8
		l7.5,13c2.2,3.8,0.9,8.7-2.9,10.9c-1,0.6-2.2,1-3.3,1.1l0,0l-54.6,5c-4.4,0.4-8.3-2.8-8.7-7.2C297.1,181.4,297.6,179.5,298.7,177.9
		L298.7,177.9z M272,112v48h-80v-48H272z M176,112v48h-23.6c-0.2-1.3-0.3-2.7-0.4-4v-28c0-5.4-0.8-10.8-2.4-16H176z M158.1,176H208
		v20c-6.3-2.6-13.1-4-20-4C176,192,164.8,186,158.1,176L158.1,176z M236,224c-2.8-6.6-6.9-12.5-12-17.4V176h58.1
		c-3.6,12.7,3.7,25.8,16.4,29.4c1.8,0.5,3.6,0.8,5.5,0.9V224H236z M280,240h80v48h-80V240z M304,319.7c-14.5-0.9-28.3-6.4-39.4-15.7
		H304V319.7z M320,321v-17h80v48h-29.5c-1-1.3-1.9-2.7-2.9-4C355.6,333.4,338.7,323.8,320,321z M369.8,480l9.6-48H400v48H369.8z
		 M448,416h-65.4l0.9-4.5c2.9-14.6,1.5-29.7-4.1-43.5H448V416z"/>
	<linearGradient id="SVGID_2_" gradientUnits="userSpaceOnUse" x1="159.0472" y1="0.1698" x2="160.0472" y2="512.1698">
		<stop  offset="0" style="stop-color:#4CB6EA"/>
		<stop  offset="1" style="stop-color:#5B6DDD"/>
	</linearGradient>
	<path class="st1" d="M296,480H24c-4.4,0-8,3.6-8,8s3.6,8,8,8h272c4.4,0,8-3.6,8-8S300.4,480,296,480z"/>
</g>
</svg>
