<svg enable-background="new 0 0 512 512" viewBox="0 0 512 512" xmlns="http://www.w3.org/2000/svg" xmlns:xlink="http://www.w3.org/1999/xlink"><linearGradient id="a"><stop offset=".001305151" stop-color="#4cb6ea"/><stop offset="1" stop-color="#5b6ddd"/></linearGradient><linearGradient id="b" gradientUnits="userSpaceOnUse" x1="131.343" x2="164.343" xlink:href="#a" y1="7.3832" y2="515.3832"/><linearGradient id="c" gradientUnits="userSpaceOnUse" x1="418.5903" x2="451.5903" xlink:href="#a" y1="-11.2765" y2="496.7234"/><linearGradient id="d" gradientUnits="userSpaceOnUse" x1="417.5553" x2="450.5553" xlink:href="#a" y1="-11.2093" y2="496.7907"/><linearGradient id="e" gradientUnits="userSpaceOnUse" x1="401.5128" x2="434.5128" xlink:href="#a" y1="-10.1672" y2="497.8328"/><linearGradient id="f" gradientUnits="userSpaceOnUse" x1="218.1137" x2="251.1137" xlink:href="#a" y1="1.7466" y2="509.7466"/><linearGradient id="g" gradientUnits="userSpaceOnUse" x1="210.9469" x2="243.9469" xlink:href="#a" y1="2.2121" y2="510.2121"/><linearGradient id="h" gradientUnits="userSpaceOnUse" x1="297.383" x2="330.383" xlink:href="#a" y1="-3.4028" y2="504.5972"/><linearGradient id="i" gradientUnits="userSpaceOnUse" x1="322.9388" x2="355.9388" xlink:href="#a" y1="-5.063" y2="502.937"/><linearGradient id="j" gradientUnits="userSpaceOnUse" x1="347.9055" x2="380.9055" xlink:href="#a" y1="-6.6848" y2="501.3152"/><linearGradient id="k" gradientUnits="userSpaceOnUse" x1="62.3769" x2="95.3769" xlink:href="#a" y1="11.8633" y2="519.8633"/><linearGradient id="l" gradientUnits="userSpaceOnUse" x1="72.4133" x2="105.4133" xlink:href="#a" y1="11.2113" y2="519.2114"/><linearGradient id="m" gradientUnits="userSpaceOnUse" x1="60.3069" x2="93.3069" xlink:href="#a" y1="11.9978" y2="519.9978"/><linearGradient id="n" gradientUnits="userSpaceOnUse" x1="179.8024" x2="212.8024" xlink:href="#a" y1="4.2353" y2="512.2353"/><path d="m296 432h-16v-78.4c0-4.4-3.6-8-8-8s-8 3.6-8 8v78.4h-208v-160h66.6c4.4 0 8-3.6 8-8s-3.6-8-8-8h-74.6c-4.4 0-8 3.6-8 8v168h-16c-4.4 0-8 3.6-8 8v16c0 22.1 17.9 40 40 40h208c22.1 0 40-17.9 40-40v-16c0-4.4-3.6-8-8-8zm-8 24c0 13.3-10.7 24-24 24h-16v-8c0-4.4-3.6-8-8-8s-8 3.6-8 8v8h-144v-8c0-4.4-3.6-8-8-8s-8 3.6-8 8v8h-16c-13.3 0-24-10.7-24-24v-8h256z" fill="url(#b)"/><path d="m432 64h16c4.4 0 8-3.6 8-8s-3.6-8-8-8h-16c-13.3 0-24 10.7-24 24v8h-8c-4.4 0-8 3.6-8 8s3.6 8 8 8h8v24c0 4.4 3.6 8 8 8s8-3.6 8-8v-24h8c4.4 0 8-3.6 8-8s-3.6-8-8-8h-8v-8c0-4.4 3.6-8 8-8z" fill="url(#c)"/><path d="m472 16h-96c-13.3 0-24 10.7-24 24v16c0 4.4 3.6 8 8 8s8-3.6 8-8v-16c0-4.4 3.6-8 8-8h96c4.4 0 8 3.6 8 8v96c0 4.4-3.6 8-8 8h-96c-4.4 0-8-3.6-8-8v-48c0-4.4-3.6-8-8-8s-8 3.6-8 8v48c0 13.3 10.7 24 24 24h96c13.3 0 24-10.7 24-24v-96c0-13.3-10.7-24-24-24z" fill="url(#d)"/><path d="m392 336c0 17.7 14.3 32 32 32s32-14.3 32-32-14.3-32-32-32-32 14.3-32 32zm48 0c0 8.8-7.2 16-16 16s-16-7.2-16-16 7.2-16 16-16 16 7.2 16 16z" fill="url(#e)"/><path d="m472 264h-96c-13.3 0-24 10.7-24 24v96c0 13.3 10.7 24 24 24h96c13.3 0 24-10.7 24-24v-16c0-4.4-3.6-8-8-8s-8 3.6-8 8v16c0 4.4-3.6 8-8 8h-96c-4.4 0-8-3.6-8-8v-96c0-4.4 3.6-8 8-8h96c4.4 0 8 3.6 8 8v48c0 4.4 3.6 8 8 8s8-3.6 8-8v-48c0-13.3-10.7-24-24-24z" fill="url(#e)"/><path d="m195.8 110.8c1.3.8 2.7 1.2 4.2 1.2 1.3 0 2.5-.3 3.6-.9l48-24c3.9-2 5.5-6.8 3.5-10.8-.8-1.5-2-2.7-3.5-3.5l-48-24c-3.9-2-8.8-.4-10.7 3.5-.6 1.1-.9 2.3-.9 3.6v48c0 2.9 1.4 5.4 3.8 6.9zm12.2-41.8 22.1 11-22.1 11z" fill="url(#f)"/><path d="m216 152c39.8 0 72-32.2 72-72s-32.2-72-72-72-72 32.2-72 72 32.2 72 72 72zm0-128c30.9 0 56 25.1 56 56s-25.1 56-56 56-56-25.1-56-56 25.1-56 56-56z" fill="url(#g)"/><path d="m296 184c2.5 0 4.9-1.2 6.4-3.2l24-32c2.6-3.5 1.9-8.6-1.6-11.2s-8.5-1.9-11.2 1.6l-24 32c-2.7 3.5-1.9 8.5 1.6 11.2 1.4 1 3.1 1.6 4.8 1.6z" fill="url(#h)"/><path d="m313.6 212.8c1.5 2 3.9 3.2 6.4 3.2 1.7 0 3.4-.6 4.8-1.6l32-24c3.5-2.7 4.3-7.7 1.6-11.2s-7.7-4.3-11.2-1.6l-32 24c-3.5 2.7-4.3 7.7-1.6 11.2z" fill="url(#i)"/><path d="m392 230.4c-.8-4.3-4.9-7.2-9.3-6.5-.1 0-.2 0-.3.1l-40 8c-4.4.4-7.6 4.4-7.2 8.8s4.4 7.6 8.8 7.2h1.6l40-8c4.3-.8 7.2-4.9 6.5-9.3-.1-.1-.1-.2-.1-.3z" fill="url(#j)"/><path d="m24 232h96c4.4 0 8-3.6 8-8v-128c0-4.4-3.6-8-8-8h-96c-4.4 0-8 3.6-8 8v128c0 4.4 3.6 8 8 8zm8-128h80v112h-80z" fill="url(#k)"/><path d="m88 120h-16c-4.4 0-8 3.6-8 8s3.6 8 8 8h16c4.4 0 8-3.6 8-8s-3.6-8-8-8z" fill="url(#l)"/><path d="m88 152h-32c-4.4 0-8 3.6-8 8s3.6 8 8 8h32c4.4 0 8-3.6 8-8s-3.6-8-8-8z" fill="url(#k)"/><path d="m88 184h-32c-4.4 0-8 3.6-8 8s3.6 8 8 8h32c4.4 0 8-3.6 8-8s-3.6-8-8-8z" fill="url(#m)"/><path d="m289 229.6c-2.2-3.8-7.1-5.2-11-3-3.8 2.2-5.2 7.1-3 11l35.3 61-128 48s0 0-.6 0h-.6l-20.8 12-13.8 8c-3.7 2.1-8.1 2.7-12.2 1.6s-7.6-3.8-9.7-7.4l-16-27.7c-3.9-7.5-1.3-16.8 6-21.1l27.7-16 20 34.6c1.4 2.5 4.1 4 7 4 4.4 0 8-3.5 8-8 0-1.4-.4-2.8-1.1-4l-20.6-35.6 100.4-82.8 3.3 5.7c2.2 3.8 7.1 5.2 11 3 3.8-2.2 5.2-7.1 3-11l-8-13.8c-1.2-2-3.2-3.4-5.5-3.8s-4.7.2-6.6 1.7l-112 92.3-34.2 19.5c-12.6 7.3-18.6 22.2-14.7 36.2l-8 4.6c-11.5 6.6-15.5 21.3-8.9 32.8 3.2 5.5 8.4 9.6 14.6 11.2 2 .5 4.1.8 6.2.8 4.2 0 8.3-1.1 12-3.2l8-4.6c3.8 4 8.7 6.8 14 8.3 2.7.8 5.6 1.1 8.4 1.1 5.6 0 11.1-1.5 16-4.3l7-4 16 27.8c6.6 11.4 21.3 15.4 32.7 8.8 11.5-6.6 15.4-21.3 8.8-32.8l-14.6-25.4 120-45c2.2-.8 3.9-2.6 4.7-4.8s.6-4.6-.6-6.6zm-189 136.7c-1.8 1.1-4 1.4-6.1.8-2-.5-3.8-1.9-4.9-3.7s-1.4-4-.8-6.1 1.9-3.8 3.8-4.9l7-4 8 13.8zm105.3 22.4c1.1 1.8 1.4 4 .8 6.1-.6 2-1.9 3.8-3.8 4.8-3.8 2.2-8.7.9-10.9-2.9l-16-27.8 13.3-7.6h.6z" fill="url(#n)"/></svg>