<svg height="29" viewBox="0 0 31 29" width="31" xmlns="http://www.w3.org/2000/svg" xmlns:xlink="http://www.w3.org/1999/xlink"><linearGradient id="a" x1="50%" x2="50%" y1="0%" y2="100%"><stop offset="0" stop-color="#4db8ec"/><stop offset="1" stop-color="#5c6fde"/></linearGradient><g fill="url(#a)" stroke="#fff" stroke-width=".3" transform="translate(.686192 1)"><path d="m26.7649794 0h-23.90234374c-1.40542383 0-2.54882813 1.14026987-2.54882813 2.541841v16.4937239c0 1.4015711 1.1434043 2.541841 2.54882813 2.541841h8.22948634l-.6230469 3.7280334h-1.09276757c-.46921094 0-.84960937.3793557-.84960937.8472804s.38039843.8472803.84960937.8472803h10.87499997c.469211 0 .8496094-.3793556.8496094-.8472803s-.3803984-.8472804-.8496094-.8472804h-1.0927675l-.6230469-3.7280334h8.2294863c1.4054238 0 2.5488281-1.1402699 2.5488281-2.541841v-16.4937239c0-1.40157113-1.1434043-2.541841-2.5488281-2.541841zm-9.3291074 25.3054393h-5.2441289l.6230469-3.7280334h3.9980351zm10.1787168-6.2698744c0 .4671903-.3811348.8472803-.8496094.8472803-.606168 0-23.19133398 0-23.90234374 0-.46847461 0-.84960938-.38009-.84960938-.8472803v-16.4937239c0-.46719037.38113477-.84728033.84960938-.84728033h11.10156254v.96025105c0 .46792468.3803984.84728033.8496093.84728033.469211 0 .8496094-.37935565.8496094-.84728033v-.96025105h11.1015625c.4684746 0 .8496094.38008996.8496094.84728033z"/><path d="m12.4593772 10.5578947c-.4718735 0-.8544304.3888211-.8544304.8684211v2.8368421h-1.93670889v-5.61578948c0-.4796-.38255696-.86842105-.85443038-.86842105s-.85443038.38882105-.85443038.86842105v5.61578948h-1.93670886v-8.39473685c0-.4796-.38255696-.86842105-.85443038-.86842105s-.85443038.38882105-.85443038.86842105v9.26315785c0 .4796.38255696.8684211.85443038.8684211h7.29113929c.4718734 0 .8544303-.3888211.8544303-.8684211v-3.7052631c0-.4796-.3825569-.8684211-.8544303-.8684211z"/><path d="m20.3138075 6c-2.7570115 0-5 2.24298851-5 5 0 1.3578736.5443678 2.5908621 1.4260345 3.4928161.0395977.0452299.0377012.043046.081092.0810919.901954.8816667 2.1349425 1.426092 3.4928735 1.426092 2.7570115 0 5-2.2429885 5-5 0-2.75701149-2.2429885-5-5-5zm3.1599426 4.137931h-2.2978736v-2.29787353c1.1144253.30436782 1.9935057 1.18344828 2.2978736 2.29787353zm-4.0220115-2.29787353v2.80287353l-1.981092 1.981092c-1.0658046-1.8585632-.0756322-4.22218392 1.981092-4.78396553zm-.7619541 6.00310343 1.981092-1.9810919h2.8028736c-.5626437 2.0597126-2.9279311 3.0454023-4.7839656 1.9810919z"/></g></svg>