<svg enable-background="new 0 0 34 30" viewBox="0 0 34 30" xmlns="http://www.w3.org/2000/svg" xmlns:xlink="http://www.w3.org/1999/xlink"><linearGradient id="a"><stop offset="0" stop-color="#4dbbed"/><stop offset="1" stop-color="#5c6ddd"/></linearGradient><linearGradient id="b" gradientTransform="matrix(34 0 0 -30 9240 1382.0001)" gradientUnits="userSpaceOnUse" x1="-271.2647" x2="-271.2647" xlink:href="#a" y1="46.0639" y2="45.0761"/><linearGradient id="c" gradientTransform="matrix(3 0 0 -2 572 -455.9999)" gradientUnits="userSpaceOnUse" x1="-186.1667" x2="-186.1667" xlink:href="#a" y1="-232.98" y2="-233.9679"/><linearGradient id="d" gradientTransform="matrix(3 0 0 -2 579 -455.9999)" gradientUnits="userSpaceOnUse" x1="-186.2" x2="-186.2" xlink:href="#a" y1="-232.98" y2="-233.9679"/><linearGradient id="e" gradientTransform="matrix(3 0 0 -2 585 -455.9999)" gradientUnits="userSpaceOnUse" x1="-186.2" x2="-186.2" xlink:href="#a" y1="-232.98" y2="-233.9679"/><linearGradient id="f" gradientTransform="matrix(3 0 0 -2 572 -449.9999)" gradientUnits="userSpaceOnUse" x1="-186.1667" x2="-186.1667" xlink:href="#a" y1="-232.9435" y2="-233.9313"/><linearGradient id="g" gradientTransform="matrix(3 0 0 -2 566 -449.9999)" gradientUnits="userSpaceOnUse" x1="-186.1333" x2="-186.1333" xlink:href="#a" y1="-232.9435" y2="-233.9313"/><linearGradient id="h" gradientTransform="matrix(3 0 0 -2 579 -449.9999)" gradientUnits="userSpaceOnUse" x1="-186.2" x2="-186.2" xlink:href="#a" y1="-232.9435" y2="-233.9313"/><linearGradient id="i" gradientTransform="matrix(3 0 0 -2 585 -449.9999)" gradientUnits="userSpaceOnUse" x1="-186.2" x2="-186.2" xlink:href="#a" y1="-232.9435" y2="-233.9313"/><linearGradient id="j" gradientTransform="matrix(3 0 0 -2 572 -443.9999)" gradientUnits="userSpaceOnUse" x1="-186.1667" x2="-186.1667" xlink:href="#a" y1="-232.907" y2="-233.8948"/><linearGradient id="k" gradientTransform="matrix(3 0 0 -2 566 -443.9999)" gradientUnits="userSpaceOnUse" x1="-186.1333" x2="-186.1333" xlink:href="#a" y1="-232.907" y2="-233.8948"/><linearGradient id="l" gradientTransform="matrix(3 0 0 -2 579 -443.9999)" gradientUnits="userSpaceOnUse" x1="-186.2" x2="-186.2" xlink:href="#a" y1="-232.907" y2="-233.8948"/><path d="m30.3 2.6h-2.1v-1.7c0-.5-.4-.9-.9-.9s-.9.4-.9.9v1.7h-8.6v-1.7c0-.5-.4-.9-.9-.9s-.9.4-.9.9v1.7h-8.5v-1.7c0-.5-.4-.9-.9-.9s-.9.5-.9.9v1.7h-2c-1.9 0-3.5 1.6-3.5 3.5v20.1c0 1.9 1.6 3.5 3.5 3.5h26.6c1.9 0 3.5-1.6 3.5-3.5v-20.1c0-1.9-1.6-3.5-3.5-3.5zm1.8 23.7c0 1-.8 1.7-1.7 1.7h-26.7c-1 0-1.7-.8-1.7-1.7v-20.2c0-1 .8-1.8 1.7-1.8h2v1.3c0 .5.4.9.9.9s.9-.4.9-.9v-1.3h8.7v1.3c0 .5.4.9.9.9s.9-.4.9-.9v-1.3h8.6v1.3c0 .5.4.9.9.9s.9-.4.9-.9v-1.3h2.1c1 0 1.7.8 1.7 1.8v20.2z" fill="url(#b)" stroke="#fff" stroke-miterlimit="10" stroke-width=".25"/><path d="m14.2 10h-1.4c-.4 0-.8.4-.8 1 0 .5.4 1 .8 1h1.4c.4 0 .8-.4.8-1s-.3-1-.8-1z" fill="url(#c)"/><path d="m21.1 10h-1.4c-.4 0-.8.4-.8 1 0 .5.4 1 .8 1h1.4c.4 0 .8-.4.8-1s-.3-1-.8-1z" fill="url(#d)"/><path d="m27.1 10h-1.4c-.4 0-.8.4-.8 1 0 .5.4 1 .8 1h1.4c.4 0 .8-.4.8-1s-.4-1-.8-1z" fill="url(#e)"/><path d="m14.2 15.9h-1.4c-.4 0-.8.4-.8 1 0 .5.4 1 .8 1h1.4c.4 0 .8-.4.8-1s-.3-1-.8-1z" fill="url(#f)"/><path d="m8.3 15.9h-1.4c-.4 0-.8.4-.8 1 0 .5.4 1 .8 1h1.4c.4 0 .8-.4.8-1s-.4-1-.8-1z" fill="url(#g)"/><path d="m21.1 15.9h-1.4c-.4 0-.8.4-.8 1 0 .5.4 1 .8 1h1.4c.4 0 .8-.4.8-1s-.3-1-.8-1z" fill="url(#h)"/><path d="m27.1 15.9h-1.4c-.4 0-.8.4-.8 1 0 .5.4 1 .8 1h1.4c.4 0 .8-.4.8-1s-.4-1-.8-1z" fill="url(#i)"/><path d="m14.2 21.8h-1.4c-.4 0-.8.4-.8 1 0 .5.4 1 .8 1h1.4c.4 0 .8-.4.8-1 0-.5-.3-1-.8-1z" fill="url(#j)"/><path d="m8.3 21.8h-1.4c-.4 0-.8.4-.8 1 0 .5.4 1 .8 1h1.4c.4 0 .8-.4.8-1 0-.5-.4-1-.8-1z" fill="url(#k)"/><path d="m21.1 21.8h-1.4c-.4 0-.8.4-.8 1 0 .5.4 1 .8 1h1.4c.4 0 .8-.4.8-1 0-.5-.3-1-.8-1z" fill="url(#l)"/></svg>