<svg height="266" viewBox="0 0 318 266" width="318" xmlns="http://www.w3.org/2000/svg" xmlns:xlink="http://www.w3.org/1999/xlink"><linearGradient id="a"><stop offset="0" stop-color="#010101" stop-opacity="0"/><stop offset=".95" stop-color="#010101"/></linearGradient><linearGradient id="b" x1="-.009044%" x2="99.999612%" xlink:href="#a" y1="49.977898%" y2="49.977898%"/><linearGradient id="c" x1="58.347458%" x2="30.29661%" xlink:href="#a" y1="33.005246%" y2="90.158654%"/><linearGradient id="d" x1="0%" x2="100.005944%" xlink:href="#a" y1="50.008107%" y2="50.008107%"/><linearGradient id="e" x1="63.034965%" x2="2.925767%" xlink:href="#a" y1="29.538972%" y2="134.894577%"/><linearGradient id="f" x1="84.36738%" x2="-90.314278%" xlink:href="#a" y1="-1.893694%" y2="280.974797%"/><linearGradient id="g"><stop offset="0" stop-color="#fff" stop-opacity="0"/><stop offset=".66" stop-color="#fff"/></linearGradient><linearGradient id="h" x1=".035791%" x2="100%" xlink:href="#g" y1="50.026838%" y2="50.026838%"/><linearGradient id="i" x1="0%" x2="100%" xlink:href="#g" y1="50%" y2="50%"/><linearGradient id="j" x1="0%" x2="99.962307%" xlink:href="#g" y1="50%" y2="50%"/><linearGradient id="k" x1="0%" x2="100%" xlink:href="#g" y1="49.971248%" y2="49.971248%"/><linearGradient id="l" x1="-.034294%" x2="100%" xlink:href="#g" y1="49.974684%" y2="49.974684%"/><linearGradient id="m" x1="0%" x2="100%" xlink:href="#g" y1="49.97432%" y2="49.97432%"/><linearGradient id="n" x1="0%" x2="100%" xlink:href="#g" y1="49.974503%" y2="49.974503%"/><g fill="none" fill-rule="evenodd" transform="translate(0 .53)"><path d="m313.965523 157.405001c-2.496176 3.856997-5.60812 7.439312-8.607504 11.044518-3.244367 3.954281-6.303341 8.011567-8.124159 12.589606-2.734538 6.867058-2.429965 14.392209-3.760818 21.574007-3.668121 20.103312-20.247498 37.299569-40.680388 47.388422-20.43289 10.088852-44.361752 13.785618-67.886723 14.375041-23.52497.589422-47.010214-1.756822-70.495458-2.947112-13.440949-.686706-27.4115898-1.087285-39.3296724-6.437867-7.6143305-3.387749-13.9044296-8.618158-19.7310478-14.066024-36.9328136-34.69581-57.2200386-82.204405-55.21382804-129.295255.46348099-10.918622 2.09890677-21.9173596 6.62115698-32.1263857 13.44756986-30.1177714 48.99656166-47.794723 82.76446226-61.6432897 18.94313-7.7883882 38.554997-15.21625582 59.411642-16.97307813 12.513986-1.04722633 25.12729 0 37.528717 1.75682231 25.868861 3.67387597 52.095263 10.99873772 71.150953 26.58123662 20.174666 16.492384 29.444285 39.6801495 38.131243 61.8435789 4.555356 11.7026107 8.607504 23.9145287 14.996921 34.9933827.794539 1.373411 1.542729 2.706765 2.264436 4.005784 4.998973 9.075961 7.720269 16.927297.960067 27.336613z" fill="#5b6edc" fill-rule="nonzero" opacity=".24"/><path d="m18.3979986 135.705646c-4.5423181 0-9.62438699.141098-12.80681356 3.414574s-3.21747532 8.585819-1.27577453 12.698828c1.9417008 4.11301 5.48863438 7.118399 9.11267519 9.827483 29.3988922 22.110071 67.2936015 29.299019 98.9846823 47.916912 19.206715 11.287848 37.803582 27.267207 60.03851 26.900352 17.622512-.289251 33.191167-10.977432 47.561155-21.256428 1.282784-.917137 2.663705-1.989483 2.937085-3.527452.399556-2.24346-1.647291-4.08479-3.504875-5.425222l-65.891652-48.297878c-7.949056-5.827351-15.97522-11.697032-24.9477-15.753602-32.6303874-14.8153-75.3828536-6.236535-110.2072924-6.497567z" fill="#5b6edc" fill-rule="nonzero" opacity=".51"/><path d="m67.6004045 168.099503s-19.2329962-17.212222-.1760618-37.251269l56.6496603-31.3672849c4.922209-.1349749 9.797469.9798899 14.162415 3.2386339 6.760775 3.692322 86.953425 65.847568 93.242354 72.080542s7.45798 18.950196 7.45798 18.950196.471846 4.187888-1.162008 6.00264-55.945413 31.19279-58.04407 30.711183c-2.098657-.481608-9.324236-3.238634-9.324236-3.238634z" fill="#5b6edc" fill-rule="nonzero"/><path d="m138.61157 56.5299337c.033491-1.0728649.614815-2.0553977 1.54333-2.6084822.928516-.5530845 2.077043-.6009639 3.049174-.1271128l57.125925 27.4614356s3.790413 2.3558466 3.662647 6.6737266c-.127767 4.31788 0 38.7202721 0 38.7202721s.454281 3.895938-5.777896.288328-57.558912-33.2912769-57.558912-33.2912769-2.250115-.9212415-2.583728-6.6315323c-.262631-4.4233657.255534-21.8917923.53946-30.4853581z" fill="#5b6edc" fill-rule="nonzero"/><path d="m138.61157 56.5299337c.033491-1.0728649.614815-2.0553977 1.54333-2.6084822.928516-.5530845 2.077043-.6009639 3.049174-.1271128l57.125925 27.4614356s3.790413 2.3558466 3.662647 6.6737266c-.127767 4.31788 0 38.7202721 0 38.7202721s.454281 3.895938-5.777896.288328-57.558912-33.2912769-57.558912-33.2912769-2.250115-.9212415-2.583728-6.6315323c-.262631-4.4233657.255534-21.8917923.53946-30.4853581z" fill="url(#b)" fill-rule="nonzero"/><path d="m138.610942 58.5248862c.037166-1.0709277.619171-2.0504263 1.546416-2.6025742.927245-.5521478 2.073672-.601881 3.04611-.1321434l57.133293 27.4807485s3.79043 2.355091 3.655565 6.6786163c-.134866 4.3235252 0 38.7008236 0 38.7008236s.461382 3.894688-5.770825.288235c-6.232206-3.606453-57.559183-33.2735691-57.559183-33.2735691s-2.250125-.9209461-2.590838-6.6364356c-.262633-4.4149168.262633-21.8777409.539462-30.5037011z" fill="#5b6edc" fill-rule="nonzero"/><path d="m137 77.47 65.545021 34.750036 1.454979 14.249964-66.794174-37.7036138z" fill="url(#c)" fill-rule="nonzero"/><path d="m312.70782 158.95403c-2.654279 4.720085-5.963327 9.104021-9.152686 13.51597-5.512734-1.680742-12.046344-2.745212-15.791904-7.115143-27.704478-32.33328-42.081236-31.864073-66.885016-42.529784-17.481631-7.535328-37.483771-12.500521-52.705393-23.9365718-2.485306-1.8488166-5.019896-4.7691064-3.900452-7.6333714 1.119444-2.8642651 4.745316-3.3334723 7.74458-3.3054599 8.147062.0605753 16.257263 1.0951175 24.156052 3.0813609.93115.3343593 1.935922.4117969 2.907738.224099 1.710848-.4902165 2.506428-2.5211135 2.436023-4.2928961-.274581-5.5394466-4.92837-7.7804364-10.011631-10.0284292-7.399595-3.2984569-15.566607-7.5843498-22.980283-10.8688005 7.371432.4201856 14.200745-3.6065929 21.47361-4.9441837 2.896941-.4698118 5.823785-.734261 8.758417-.7913495 7.373779-.2707862 14.756946-.5345694 22.149501-.7913495 2.485306-.0980433 5.041018-.1960866 7.427757.5182289 2.816211.8683835 5.188869 2.7452125 7.399595 4.6920723 11.264845 9.8043303 20.333045 21.8356442 30.415081 32.8515096 10.082036 11.0158649 42.489586 26.3316299 45.566297 27.8863169 5.287436 11.120911 8.181093 20.729155.992714 33.467781z" fill="#f3a984" fill-rule="nonzero"/><path d="m65.7225263 95.3152697c-9.860257-13.0110485-28.7496924-17.0484759-37.7225263-30.6704048 15.5299049-8.9806427 33.3206259-13.1374375 50.8155391-17.1748649 4.7963108 6.6143593 11.7618781 11.2345805 18.2555617 16.2269472 6.4936832 4.9923667 12.8676352 10.7571108 15.6144212 18.4457769 1.704416 4.7746967 1.880492 9.9426037 2.035439 15.0051865l.225377 7.4148234c.257539 1.231853-.432959 2.464982-1.619899 2.892904-4.433713 2.688429-9.019308 5.119606-13.7339296 7.281413-2.6833986 1.172609-5.4442705 2.169678-8.0854108 3.44059-4.4652879 2.141592-8.451649 5.041518-12.3887087 8.025703-5.176635 3.932104-4.4582448-2.183721-4.9301286-6.193062-1.0987143-8.685735-3.0848518-17.603183-8.465735-24.6950123z" fill="#fff" fill-rule="nonzero"/><path d="m68 130.89036s55.420307-31.0165261 56.826125-31.3654969 11.048739.8654479 17.887089 6.5885689c6.838351 5.723122 44.018347 34.652802 44.018347 34.652802s.875987 3.294285-.536895 5.192686-45.600775 26.682309-50.15732 25.46789c-4.556546-1.214418-48.5678283-46.776048-68.037346-40.53645z" fill="#5b6edc" fill-rule="nonzero"/><path d="m66 131.89036s55.420307-31.016526 56.826125-31.365497 11.048739.865448 17.887089 6.588569c6.838351 5.723122 44.018347 34.652802 44.018347 34.652802s.875987 3.294285-.536895 5.192686-45.600775 26.682309-50.15732 25.46789c-4.556546-1.214418-48.5678283-46.776048-68.037346-40.53645z" fill="url(#d)" fill-rule="nonzero"/><path d="m67.9671369 135.069153s1.7467591-6.567318 19.8597396 6.915533c18.1129805 13.48285 97.1731235 76.767284 97.1731235 76.767284l-2.104529 10.71803s-112.8588805-54.983009-114.5986246-60.860863c-1.739744-5.877854-15.3069416-19.346776-.3297095-33.539984z" fill="url(#e)" fill-rule="nonzero"/><path d="m188.746952 217.393998 48.618803-27.923998 1.634245 10.587498-52 26.412502z" fill="url(#f)" fill-rule="nonzero"/><path d="m209 181.822345-9.710957 5.647655-9.289043-7.352345 9.731707-5.647655z"/><g fill-rule="nonzero"><path d="m169 178.636398-10.350752 5.833602-9.649248-7.410628 10.708661-5.589372z" fill="url(#h)"/><path d="m180 172.259809-10.900806 6.210191-9.099194-7.086518 11.272345-5.913482z" fill="url(#i)"/><path d="m190 166.4575-10.083679 6.0125-8.916321-7.268182 10.405956-5.731818h.028646z" fill="url(#j)"/><path d="m199 161.168102-10.431373 6.301898-8.568627-7.07188 10.610483-5.92812z" fill="url(#k)"/><path d="m209 169.366709-10.205761 6.103291-9.794239-8.024304 9.986283-5.975696z" fill="url(#l)"/><path d="m219 176.103715-10.606379 6.366285-9.393621-7.728408 10.431125-6.271592z" fill="url(#i)"/><path d="m228 183.261045-10.947444 6.208955-9.052556-6.943497 10.818734-6.056503z" fill="url(#i)"/><path d="m217 188.627143-9.962547 5.842857-9.037453-7.178571 9.991011-5.821429z" fill="url(#i)"/><path d="m208 194.828787-10.959292 6.641213-9.040708-7.410042 11.00885-6.589958z" fill="url(#i)"/><path d="m197 200.589048-9.996686 5.880952-9.003314-7.147186 10.066642-5.852814z" fill="url(#i)"/><path d="m188 194.320053-9.82429 6.149947-9.17571-7.820486 9.851599-6.179514z" fill="url(#i)"/><path d="m179 186.522846-10.027797 5.947154-9.972203-8.052846 10.048645-5.947154z" fill="url(#i)"/><path d="m199 174.609702-9.922426 5.860298-10.077574-8.146893 9.929478-5.853107z" fill="url(#m)"/><path d="m190 180.276102-10.922252 6.193898-10.077748-7.799213 10.943365-6.200787z" fill="url(#i)"/><path d="m207 181.822345-9.710957 5.647655-9.289043-7.352345 9.731707-5.647655z" fill="url(#i)"/><path d="m198 188.044707-10.74266 6.425293-9.25734-7.581846 10.721934-6.418154z" fill="url(#n)"/></g></g></svg>