<?xml version="1.0" encoding="UTF-8"?>
<svg width="318px" height="266px" viewBox="0 0 318 266" version="1.1" xmlns="http://www.w3.org/2000/svg" xmlns:xlink="http://www.w3.org/1999/xlink">
    <title>Card Payment_Monochromatic</title>
    <defs>
        <linearGradient x1="-0.00904447538%" y1="49.9778978%" x2="99.9996117%" y2="49.9778978%" id="linearGradient-1">
            <stop stop-color="#010101" stop-opacity="0" offset="0%"></stop>
            <stop stop-color="#010101" offset="95%"></stop>
        </linearGradient>
        <linearGradient x1="58.3474576%" y1="33.0052458%" x2="30.2966102%" y2="90.1586538%" id="linearGradient-2">
            <stop stop-color="#010101" stop-opacity="0" offset="0%"></stop>
            <stop stop-color="#010101" offset="95%"></stop>
        </linearGradient>
        <linearGradient x1="0%" y1="50.0081066%" x2="100.005944%" y2="50.0081066%" id="linearGradient-3">
            <stop stop-color="#010101" stop-opacity="0" offset="0%"></stop>
            <stop stop-color="#010101" offset="95%"></stop>
        </linearGradient>
        <linearGradient x1="63.0349647%" y1="29.5389721%" x2="2.9257667%" y2="134.894577%" id="linearGradient-4">
            <stop stop-color="#010101" stop-opacity="0" offset="0%"></stop>
            <stop stop-color="#010101" offset="95%"></stop>
        </linearGradient>
        <linearGradient x1="84.3673801%" y1="-1.8936942%" x2="-90.314278%" y2="280.974797%" id="linearGradient-5">
            <stop stop-color="#010101" stop-opacity="0" offset="0%"></stop>
            <stop stop-color="#010101" offset="95%"></stop>
        </linearGradient>
        <linearGradient x1="0.0357909807%" y1="50.0268384%" x2="100%" y2="50.0268384%" id="linearGradient-6">
            <stop stop-color="#FFFFFF" stop-opacity="0" offset="0%"></stop>
            <stop stop-color="#FFFFFF" offset="66%"></stop>
        </linearGradient>
        <linearGradient x1="0%" y1="50%" x2="100%" y2="50%" id="linearGradient-7">
            <stop stop-color="#FFFFFF" stop-opacity="0" offset="0%"></stop>
            <stop stop-color="#FFFFFF" offset="66%"></stop>
        </linearGradient>
        <linearGradient x1="0%" y1="50%" x2="99.9623068%" y2="50%" id="linearGradient-8">
            <stop stop-color="#FFFFFF" stop-opacity="0" offset="0%"></stop>
            <stop stop-color="#FFFFFF" offset="66%"></stop>
        </linearGradient>
        <linearGradient x1="0%" y1="49.9712478%" x2="100%" y2="49.9712478%" id="linearGradient-9">
            <stop stop-color="#FFFFFF" stop-opacity="0" offset="0%"></stop>
            <stop stop-color="#FFFFFF" offset="66%"></stop>
        </linearGradient>
        <linearGradient x1="-0.0342935528%" y1="49.9746835%" x2="100%" y2="49.9746835%" id="linearGradient-10">
            <stop stop-color="#FFFFFF" stop-opacity="0" offset="0%"></stop>
            <stop stop-color="#FFFFFF" offset="66%"></stop>
        </linearGradient>
        <linearGradient x1="0%" y1="50%" x2="100%" y2="50%" id="linearGradient-11">
            <stop stop-color="#FFFFFF" stop-opacity="0" offset="0%"></stop>
            <stop stop-color="#FFFFFF" offset="66%"></stop>
        </linearGradient>
        <linearGradient x1="0%" y1="50%" x2="100%" y2="50%" id="linearGradient-12">
            <stop stop-color="#FFFFFF" stop-opacity="0" offset="0%"></stop>
            <stop stop-color="#FFFFFF" offset="66%"></stop>
        </linearGradient>
        <linearGradient x1="0%" y1="50%" x2="100%" y2="50%" id="linearGradient-13">
            <stop stop-color="#FFFFFF" stop-opacity="0" offset="0%"></stop>
            <stop stop-color="#FFFFFF" offset="66%"></stop>
        </linearGradient>
        <linearGradient x1="0%" y1="49.9743195%" x2="100%" y2="49.9743195%" id="linearGradient-14">
            <stop stop-color="#FFFFFF" stop-opacity="0" offset="0%"></stop>
            <stop stop-color="#FFFFFF" offset="66%"></stop>
        </linearGradient>
        <linearGradient x1="0%" y1="50%" x2="100%" y2="50%" id="linearGradient-15">
            <stop stop-color="#FFFFFF" stop-opacity="0" offset="0%"></stop>
            <stop stop-color="#FFFFFF" offset="66%"></stop>
        </linearGradient>
        <linearGradient x1="0%" y1="49.9745028%" x2="100%" y2="49.9745028%" id="linearGradient-16">
            <stop stop-color="#FFFFFF" stop-opacity="0" offset="0%"></stop>
            <stop stop-color="#FFFFFF" offset="66%"></stop>
        </linearGradient>
    </defs>
    <g id="Page-1" stroke="none" stroke-width="1" fill="none" fill-rule="evenodd">
        <g id="payment-final-desktop" transform="translate(-974.000000, -143.000000)">
            <g id="Card-Payment_Monochromatic" transform="translate(974.000000, 143.530000)">
                <path d="M313.965523,157.405001 C311.469347,161.261998 308.357403,164.844313 305.358019,168.449519 C302.113652,172.4038 299.054678,176.461086 297.23386,181.039125 C294.499322,187.906183 294.803895,195.431334 293.473042,202.613132 C289.804921,222.716444 273.225544,239.912701 252.792654,250.001554 C232.359764,260.090406 208.430902,263.787172 184.905931,264.376595 C161.380961,264.966017 137.895717,262.619773 114.410473,261.429483 C100.969524,260.742777 86.9988832,260.342198 75.0808006,254.991616 C67.4664701,251.603867 61.176371,246.373458 55.3497528,240.925592 C18.4169392,206.229782 -1.8702858,158.721187 0.135924763,111.630337 C0.599405752,100.711715 2.23483153,89.7129774 6.75708174,79.5039513 C20.2046516,49.3861799 55.7536434,31.7092283 89.521544,17.8606616 C108.464674,10.0722734 128.076541,2.64440578 148.933186,0.887583466 C161.447172,-0.159642863 174.060476,0.887583466 186.461903,2.64440578 C212.330764,6.31828175 238.557166,13.6431435 257.612856,29.2256424 C277.787522,45.7180264 287.057141,68.9057919 295.744099,91.0692213 C300.299455,102.771832 304.351603,114.98375 310.74102,126.062604 C311.535559,127.436015 312.283749,128.769369 313.005456,130.068388 C318.004429,139.144349 320.725725,146.995685 313.965523,157.405001 Z" id="Path" fill="#5B6EDC" fill-rule="nonzero" opacity="0.24"></path>
                <path d="M18.3979986,135.705646 C13.8556805,135.705646 8.77361161,135.846744 5.59118504,139.12022 C2.40875847,142.393696 2.37370972,147.706039 4.31541051,151.819048 C6.25711131,155.932058 9.80404489,158.937447 13.4280857,161.646531 C42.8269779,183.756602 80.7216872,190.94555 112.412768,209.563443 C131.619483,220.851291 150.21635,236.83065 172.451278,236.463795 C190.07379,236.174544 205.642445,225.486363 220.012433,215.207367 C221.295217,214.29023 222.676138,213.217884 222.949518,211.679915 C223.349074,209.436455 221.302227,207.595125 219.444643,206.254693 L153.552991,157.956815 C145.603935,152.129464 137.577771,146.259783 128.605291,142.203213 C95.9749036,127.387913 53.2224374,135.966678 18.3979986,135.705646 Z" id="Path" fill="#5B6EDC" fill-rule="nonzero" opacity="0.51"></path>
                <path d="M67.6004045,168.099503 C67.6004045,168.099503 48.3674083,150.887281 67.4243427,130.848234 L124.074003,99.4809491 C128.996212,99.3459742 133.871472,100.460839 138.236418,102.719583 C144.997193,106.411905 225.189843,168.567151 231.478772,174.800125 C237.767701,181.033099 238.936752,193.750321 238.936752,193.750321 C238.936752,193.750321 239.408598,197.938209 237.774744,199.752961 C236.14089,201.567713 181.829331,230.945751 179.730674,230.464144 C177.632017,229.982536 170.406438,227.22551 170.406438,227.22551 L67.6004045,168.099503 Z" id="Path" fill="#5B6EDC" fill-rule="nonzero"></path>
                <path d="M138.61157,56.5299337 C138.645061,55.4570688 139.226385,54.474536 140.1549,53.9214515 C141.083416,53.368367 142.231943,53.3204876 143.204074,53.7943387 L200.329999,81.2557743 C200.329999,81.2557743 204.120412,83.6116209 203.992646,87.9295009 C203.864879,92.2473809 203.992646,126.649773 203.992646,126.649773 C203.992646,126.649773 204.446927,130.545711 198.21475,126.938101 C191.982573,123.330491 140.655838,93.6468241 140.655838,93.6468241 C140.655838,93.6468241 138.405723,92.7255826 138.07211,87.0152918 C137.809479,82.5919261 138.327644,65.1234995 138.61157,56.5299337 Z" id="Path" fill="#5B6EDC" fill-rule="nonzero"></path>
                <path d="M138.61157,56.5299337 C138.645061,55.4570688 139.226385,54.474536 140.1549,53.9214515 C141.083416,53.368367 142.231943,53.3204876 143.204074,53.7943387 L200.329999,81.2557743 C200.329999,81.2557743 204.120412,83.6116209 203.992646,87.9295009 C203.864879,92.2473809 203.992646,126.649773 203.992646,126.649773 C203.992646,126.649773 204.446927,130.545711 198.21475,126.938101 C191.982573,123.330491 140.655838,93.6468241 140.655838,93.6468241 C140.655838,93.6468241 138.405723,92.7255826 138.07211,87.0152918 C137.809479,82.5919261 138.327644,65.1234995 138.61157,56.5299337 Z" id="Path" fill="url(#linearGradient-1)" fill-rule="nonzero"></path>
                <path d="M138.610942,58.5248862 C138.648108,57.4539585 139.230113,56.4744599 140.157358,55.922312 C141.084603,55.3701642 142.23103,55.320431 143.203468,55.7901686 L200.336761,83.2709171 C200.336761,83.2709171 204.127191,85.6260081 203.992326,89.9495334 C203.85746,94.2730586 203.992326,128.650357 203.992326,128.650357 C203.992326,128.650357 204.453708,132.545045 198.221501,128.938592 C191.989295,125.332139 140.662318,95.6650229 140.662318,95.6650229 C140.662318,95.6650229 138.412193,94.7440768 138.07148,89.0285873 C137.808847,84.6136705 138.334113,67.1508464 138.610942,58.5248862 Z" id="Path" fill="#5B6EDC" fill-rule="nonzero"></path>
                <polygon id="Path" fill="url(#linearGradient-2)" fill-rule="nonzero" points="137 77.47 202.545021 112.220036 204 126.47 137.205826 88.7663862"></polygon>
                <path d="M312.70782,158.95403 C310.053541,163.674115 306.744493,168.058051 303.555134,172.47 C298.0424,170.789258 291.50879,169.724788 287.76323,165.354857 C260.058752,133.021577 245.681994,133.490784 220.878214,122.825073 C203.396583,115.289745 183.394443,110.324552 168.172821,98.8885012 C165.687515,97.0396846 163.152925,94.1193948 164.272369,91.2551298 C165.391813,88.3908647 169.017685,87.9216575 172.016949,87.9496699 C180.164011,88.0102452 188.274212,89.0447874 196.173001,91.0310308 C197.104151,91.3653901 198.108923,91.4428277 199.080739,91.2551298 C200.791587,90.7649133 201.587167,88.7340163 201.516762,86.9622337 C201.242181,81.4227871 196.588392,79.1817973 191.505131,76.9338045 C184.105536,73.6353476 175.938524,69.3494547 168.524848,66.065004 C175.89628,66.4851896 182.725593,62.4584111 189.998458,61.1208203 C192.895399,60.6510085 195.822243,60.3865593 198.756875,60.3294708 C206.130654,60.0586846 213.513821,59.7949014 220.906376,59.5381213 C223.391682,59.440078 225.947394,59.3420347 228.334133,60.0563502 C231.150344,60.9247337 233.523002,62.8015627 235.733728,64.7484225 C246.998573,74.5527528 256.066773,86.5840667 266.148809,97.5999321 C276.230845,108.615797 308.638395,123.931562 311.715106,125.486249 C317.002542,136.60716 319.896199,146.215404 312.70782,158.95403 Z" id="Path" fill="#F3A984" fill-rule="nonzero"></path>
                <path d="M65.7225263,95.3152697 C55.8622693,82.3042212 36.9728339,78.2667938 28,64.6448649 C43.5299049,55.6642222 61.3206259,51.5074274 78.8155391,47.47 C83.6118499,54.0843593 90.5774172,58.7045805 97.0711008,63.6969472 C103.564784,68.6893139 109.938736,74.454058 112.685522,82.1427241 C114.389938,86.9174208 114.566014,92.0853278 114.720961,97.1479106 L114.946338,104.562734 C115.203877,105.794587 114.513379,107.027716 113.326439,107.455638 C108.892726,110.144067 104.307131,112.575244 99.5925094,114.737051 C96.9091108,115.90966 94.1482389,116.906729 91.5070986,118.177641 C87.0418107,120.319233 83.0554496,123.219159 79.1183899,126.203344 C73.9417549,130.135448 74.6601451,124.019623 74.1882613,120.010282 C73.089547,111.324547 71.1034095,102.407099 65.7225263,95.3152697 Z" id="Path" fill="#FFFFFF" fill-rule="nonzero"></path>
                <path d="M68,130.89036 C68,130.89036 123.420307,99.8738339 124.826125,99.5248631 C126.231943,99.1758923 135.874864,100.390311 142.713214,106.113432 C149.551565,111.836554 186.731561,140.766234 186.731561,140.766234 C186.731561,140.766234 187.607548,144.060519 186.194666,145.95892 C184.781784,147.857321 140.593891,172.641229 136.037346,171.42681 C131.4808,170.212392 87.4695177,124.650762 68,130.89036 Z" id="Path" fill="#5B6EDC" fill-rule="nonzero"></path>
                <path d="M66,131.89036 C66,131.89036 121.420307,100.873834 122.826125,100.524863 C124.231943,100.175892 133.874864,101.390311 140.713214,107.113432 C147.551565,112.836554 184.731561,141.766234 184.731561,141.766234 C184.731561,141.766234 185.607548,145.060519 184.194666,146.95892 C182.781784,148.857321 138.593891,173.641229 134.037346,172.42681 C129.4808,171.212392 85.4695177,125.650762 66,131.89036 Z" id="Path" fill="url(#linearGradient-3)" fill-rule="nonzero"></path>
                <path d="M67.9671369,135.069153 C67.9671369,135.069153 69.713896,128.501835 87.8268765,141.984686 C105.939857,155.467536 185,218.75197 185,218.75197 L182.895471,229.47 C182.895471,229.47 70.0365905,174.486991 68.2968464,168.609137 C66.5571024,162.731283 52.9899048,149.262361 67.9671369,135.069153 Z" id="Path" fill="url(#linearGradient-4)" fill-rule="nonzero"></path>
                <polygon id="Path" fill="url(#linearGradient-5)" fill-rule="nonzero" points="188.746952 217.393998 237.365755 189.47 239 200.057498 187 226.47"></polygon>
                <polygon id="Path" points="209 181.822345 199.289043 187.47 190 180.117655 199.731707 174.47"></polygon>
                <polygon id="Path" fill="url(#linearGradient-6)" fill-rule="nonzero" points="169 178.636398 158.649248 184.47 149 177.059372 159.708661 171.47"></polygon>
                <polygon id="Path" fill="url(#linearGradient-7)" fill-rule="nonzero" points="180 172.259809 169.099194 178.47 160 171.383482 171.272345 165.47"></polygon>
                <polygon id="Path" fill="url(#linearGradient-8)" fill-rule="nonzero" points="190 166.4575 179.916321 172.47 171 165.201818 181.405956 159.47 181.434602 159.47"></polygon>
                <polygon id="Path" fill="url(#linearGradient-9)" fill-rule="nonzero" points="199 161.168102 188.568627 167.47 180 160.39812 190.610483 154.47"></polygon>
                <polygon id="Path" fill="url(#linearGradient-10)" fill-rule="nonzero" points="209 169.366709 198.794239 175.47 189 167.445696 198.986283 161.47"></polygon>
                <polygon id="Path" fill="url(#linearGradient-11)" fill-rule="nonzero" points="219 176.103715 208.393621 182.47 199 174.741592 209.431125 168.47"></polygon>
                <polygon id="Path" fill="url(#linearGradient-7)" fill-rule="nonzero" points="228 183.261045 217.052556 189.47 208 182.526503 218.818734 176.47"></polygon>
                <polygon id="Path" fill="url(#linearGradient-12)" fill-rule="nonzero" points="217 188.627143 207.037453 194.47 198 187.291429 207.991011 181.47"></polygon>
                <polygon id="Path" fill="url(#linearGradient-11)" fill-rule="nonzero" points="208 194.828787 197.040708 201.47 188 194.059958 199.00885 187.47"></polygon>
                <polygon id="Path" fill="url(#linearGradient-12)" fill-rule="nonzero" points="197 200.589048 187.003314 206.47 178 199.322814 188.066642 193.47"></polygon>
                <polygon id="Path" fill="url(#linearGradient-13)" fill-rule="nonzero" points="188 194.320053 178.17571 200.47 169 192.649514 178.851599 186.47"></polygon>
                <polygon id="Path" fill="url(#linearGradient-11)" fill-rule="nonzero" points="179 186.522846 168.972203 192.47 159 184.417154 169.048645 178.47"></polygon>
                <polygon id="Path" fill="url(#linearGradient-14)" fill-rule="nonzero" points="199 174.609702 189.077574 180.47 179 172.323107 188.929478 166.47"></polygon>
                <polygon id="Path" fill="url(#linearGradient-15)" fill-rule="nonzero" points="190 180.276102 179.077748 186.47 169 178.670787 179.943365 172.47"></polygon>
                <polygon id="Path" fill="url(#linearGradient-12)" fill-rule="nonzero" points="207 181.822345 197.289043 187.47 188 180.117655 197.731707 174.47"></polygon>
                <polygon id="Path" fill="url(#linearGradient-16)" fill-rule="nonzero" points="198 188.044707 187.25734 194.47 178 186.888154 188.721934 180.47"></polygon>
            </g>
        </g>
    </g>
</svg>