<svg enable-background="new 0 0 512 512" viewBox="0 0 512 512" xmlns="http://www.w3.org/2000/svg" xmlns:xlink="http://www.w3.org/1999/xlink"><linearGradient id="a"><stop offset="0" stop-color="#4cb6ea"/><stop offset="1" stop-color="#5b6ddd"/></linearGradient><linearGradient id="b" gradientUnits="userSpaceOnUse" x1="252.6919" x2="262.6919" xlink:href="#a" y1="-2.2076" y2="512.7924"/><linearGradient id="c" gradientUnits="userSpaceOnUse" x1="326.5396" x2="336.5396" xlink:href="#a" y1="-3.6415" y2="511.3585"/><linearGradient id="d" gradientUnits="userSpaceOnUse" x1="435.8492" x2="445.8492" xlink:href="#a" y1="-5.7641" y2="509.2359"/><linearGradient id="e" gradientUnits="userSpaceOnUse" x1="182.7408" x2="192.7408" xlink:href="#a" y1="-.8493" y2="514.1506"/><linearGradient id="f" gradientUnits="userSpaceOnUse" x1="446.9518" x2="456.9518" xlink:href="#a" y1="-5.9796" y2="509.0204"/><linearGradient id="g" gradientUnits="userSpaceOnUse" x1="446.3307" x2="456.3307" xlink:href="#a" y1="-5.9676" y2="509.0324"/><linearGradient id="h" gradientUnits="userSpaceOnUse" x1="445.7096" x2="455.7096" xlink:href="#a" y1="-5.9555" y2="509.0445"/><linearGradient id="i" gradientUnits="userSpaceOnUse" x1="445.0885" x2="455.0885" xlink:href="#a" y1="-5.9435" y2="509.0565"/><path d="m120 8v82.4c-5.1-1.5-10.4-2.4-16-2.4-30.9 0-56 25.1-56 56 0 17.9 8.5 33.8 21.6 44.1-35.7 11.2-61.6 44.6-61.6 83.9v56c0 17.6 14.4 32 32 32h8v112c0 17.6 14.4 32 32 32 9.6 0 18.1-4.3 24-11.1 5.9 6.7 14.4 11.1 24 11.1 17.6 0 32-14.4 32-32v-197.9c0-3.5.4-6.9 1.3-10.1h342.7v-256zm-56 136c0-22.1 17.9-40 40-40s40 17.9 40 40-17.9 40-40 40-40-17.9-40-40zm47.7 117-7.7 7.7-7.7-7.7 5.1-61h2.6 2.6zm32.3 13.1v197.9c0 8.8-7.2 16-16 16s-16-7.2-16-16v-144h-16v144c0 8.8-7.2 16-16 16s-16-7.2-16-16v-216h-16v88h-8c-8.8 0-16-7.2-16-16v-56c0-36 26.6-65.9 61.2-71.1l-5.5 66.1 24.3 24.3 24.3-24.3-5.6-67h23.7c10.4 0 20.5-2.9 29.4-8.3l87.9-54.1c1.7-1 3.6-1.6 5.6-1.6 5.9 0 10.7 4.8 10.7 10.7v3.1c0 3.6-1.8 7-4.9 9l-105.5 68.3c-16 10.4-25.6 27.9-25.6 47zm88-138.1c0-41.4 31.6-75.6 72-79.6v82.9l58.6 58.6c-13.8 11.3-31.4 18.1-50.6 18.1-22.1 0-42.7-8.9-57.7-24.6l29.5-19.1c7.6-4.9 12.2-13.3 12.2-22.4v-3.1c0-14.7-12-26.7-26.7-26.7-4.9 0-9.8 1.4-14 4l-23.2 14.3c0-.9-.1-1.7-.1-2.4zm141.9 50.6-42.6-42.6h60.3c-1.6 16.1-8 30.7-17.7 42.6zm-53.9-58.6v-71.6c37.7 3.8 67.8 33.9 71.6 71.6zm168 120h-318.2c2.4-2.8 5.3-5.4 8.5-7.5l62.5-40.4c18.2 20.3 43.7 31.9 71.3 31.9 52.9 0 96-43.1 96-96s-43.1-96-96-96-96 43.1-96 96c0 3.9.3 7.8.8 11.7l-49.4 30.4c-6.3 3.9-13.6 5.9-21 5.9h-3.3c10.4-10.2 16.9-24.3 16.9-40 0-19-9.5-35.8-24-45.9v-74.1h352v224z" fill="url(#b)"/><path d="m447.8 382c14.6-10.1 24.2-27 24.2-46 0-30.9-25.1-56-56-56s-56 25.1-56 56c0 19.1 9.6 35.9 24.2 46-21.4 8.3-38.7 24.7-48.2 45.5-9.5-20.8-26.8-37.2-48.2-45.5 14.6-10.1 24.2-27 24.2-46 0-30.9-25.1-56-56-56s-56 25.1-56 56c0 19.1 9.6 35.9 24.2 46-32.8 12.8-56.2 44.7-56.2 82v40h160 16 160v-40c0-37.3-23.4-69.2-56.2-82zm-71.8-46c0-22.1 17.9-40 40-40s40 17.9 40 40-17.9 40-40 40-40-17.9-40-40zm-160 0c0-22.1 17.9-40 40-40s40 17.9 40 40-17.9 40-40 40-40-17.9-40-40zm112 152h-24v-64h-16v64h-64v-64h-16v64h-24v-24c0-39.7 32.3-72 72-72s72 32.3 72 72zm160 0h-24v-64h-16v64h-64v-64h-16v64h-24v-24c0-39.7 32.3-72 72-72s72 32.3 72 72z" fill="url(#c)"/><path d="m448 184h-40v24c0 13.2 10.8 24 24 24h16c13.2 0 24-10.8 24-24s-10.8-24-24-24zm0 32h-16c-4.4 0-8-3.6-8-8v-8h24c4.4 0 8 3.6 8 8s-3.6 8-8 8z" fill="url(#d)"/><path d="m176 88h40v-24c0-13.2-10.8-24-24-24h-16c-13.2 0-24 10.8-24 24s10.8 24 24 24zm0-32h16c4.4 0 8 3.6 8 8v8h-24c-4.4 0-8-3.6-8-8s3.6-8 8-8z" fill="url(#e)"/><path d="m424 40h48v16h-48z" fill="url(#f)"/><path d="m424 72h48v16h-48z" fill="url(#g)"/><path d="m424 104h48v16h-48z" fill="url(#h)"/><path d="m424 136h48v16h-48z" fill="url(#i)"/></svg>