<svg enable-background="new 0 0 41.7 38" viewBox="0 0 41.7 38" xmlns="http://www.w3.org/2000/svg"><g fill="#f10000" stroke="#fff" stroke-miterlimit="10" stroke-width=".25"><path d="m40.2 29.8-15.4-26.6c-.8-1.4-2.3-2.3-4-2.3s-3.2.9-4 2.3l-15.3 26.6c-.8 1.4-.8 3.2 0 4.6s2.3 2.3 4 2.3h11.9c.4 0 .8-.3.8-.8s-.3-.8-.8-.8h-11.9c-1.1 0-2.1-.6-2.6-1.5-.6-1-.6-2.1 0-3l15.3-26.7c.6-1 1.5-1.5 2.6-1.5s2.1.6 2.6 1.5l15.4 26.7c.6 1 .6 2.1 0 3-.6 1-1.5 1.5-2.6 1.5h-11.8c-.4 0-.8.3-.8.8s.3.8.8.8h11.9c1.7 0 3.2-.9 4-2.3s.8-3.2-.1-4.6z"/><path d="m37 32.6c.1-.2.1-.5 0-.8l-15.5-26.9c-.1-.2-.4-.4-.7-.4s-.5.1-.7.4l-15.4 26.9c-.1.2-.1.5 0 .8.1.2.4.4.6.4h31c.3 0 .6-.2.7-.4zm-30.1-1.5 13.8-23.9c0-.2.3-.2.3 0l13.8 23.9c.1.1 0 .3-.2.3h-27.5c-.2 0-.3-.2-.2-.3z"/><path d="m20.9 24.5c-1.5 0-2.7 1.2-2.7 2.7s1.2 2.7 2.7 2.7 2.7-1.2 2.7-2.7c-.1-1.5-1.3-2.7-2.7-2.7zm0 3.8c-.6 0-1.1-.5-1.1-1.1s.5-1.1 1.1-1.1 1.1.5 1.1 1.1c-.1.6-.5 1.1-1.1 1.1z"/><path d="m18.2 16.1v4.2c0 1.5 1.2 2.7 2.7 2.7s2.7-1.2 2.7-2.7v-4.2c0-1.5-1.2-2.7-2.7-2.7s-2.7 1.2-2.7 2.7zm3.7 0v4.2c0 .6-.5 1.1-1.1 1.1s-1.1-.5-1.1-1.1v-4.2c0-.6.5-1.1 1.1-1.1.7 0 1.1.5 1.1 1.1z"/><path d="m20.9 35.2c-.2 0-.4.1-.6.2-.1.1-.2.3-.2.6 0 .2.1.4.2.6.1.1.3.2.6.2.2 0 .4-.1.6-.2.1-.1.2-.3.2-.6 0-.2-.1-.4-.2-.6-.2-.2-.4-.2-.6-.2z"/></g></svg>