<?xml version="1.0" encoding="utf-8"?>
<!-- Generator: Adobe Illustrator 24.0.3, SVG Export Plug-In . SVG Version: 6.00 Build 0)  -->
<svg version="1.1" id="Layer_1" xmlns="http://www.w3.org/2000/svg" xmlns:xlink="http://www.w3.org/1999/xlink" x="0px" y="0px"
	 viewBox="0 0 41.7 38" style="enable-background:new 0 0 41.7 38;" xml:space="preserve">
<style type="text/css">
	.st0{fill:#F10000;stroke:#FFFFFF;stroke-width:0.25;stroke-miterlimit:10;}
</style>
<g id="XMLID_1166_">
	<g id="XMLID_77_">
		<path id="XMLID_78_" class="st0" d="M40.2,29.8L24.8,3.2c-0.8-1.4-2.3-2.3-4-2.3c-1.7,0-3.2,0.9-4,2.3L1.5,29.8
			c-0.8,1.4-0.8,3.2,0,4.6c0.8,1.4,2.3,2.3,4,2.3h11.9c0.4,0,0.8-0.3,0.8-0.8s-0.3-0.8-0.8-0.8H5.5c-1.1,0-2.1-0.6-2.6-1.5
			c-0.6-1-0.6-2.1,0-3L18.2,3.9c0.6-1,1.5-1.5,2.6-1.5c1.1,0,2.1,0.6,2.6,1.5l15.4,26.7c0.6,1,0.6,2.1,0,3c-0.6,1-1.5,1.5-2.6,1.5
			H24.4c-0.4,0-0.8,0.3-0.8,0.8s0.3,0.8,0.8,0.8h11.9c1.7,0,3.2-0.9,4-2.3C41.1,33,41.1,31.2,40.2,29.8L40.2,29.8z"/>
		<path id="XMLID_752_" class="st0" d="M37,32.6c0.1-0.2,0.1-0.5,0-0.8L21.5,4.9c-0.1-0.2-0.4-0.4-0.7-0.4s-0.5,0.1-0.7,0.4
			L4.7,31.8c-0.1,0.2-0.1,0.5,0,0.8C4.8,32.8,5.1,33,5.3,33h31C36.6,33,36.9,32.8,37,32.6L37,32.6z M6.9,31.1L20.7,7.2
			C20.7,7,21,7,21,7.2l13.8,23.9c0.1,0.1,0,0.3-0.2,0.3H7.1C6.9,31.4,6.8,31.2,6.9,31.1z"/>
		<path id="XMLID_755_" class="st0" d="M20.9,24.5c-1.5,0-2.7,1.2-2.7,2.7c0,1.5,1.2,2.7,2.7,2.7s2.7-1.2,2.7-2.7
			C23.5,25.7,22.3,24.5,20.9,24.5z M20.9,28.3c-0.6,0-1.1-0.5-1.1-1.1c0-0.6,0.5-1.1,1.1-1.1c0.6,0,1.1,0.5,1.1,1.1
			C21.9,27.8,21.5,28.3,20.9,28.3z"/>
		<path id="XMLID_758_" class="st0" d="M18.2,16.1v4.2c0,1.5,1.2,2.7,2.7,2.7s2.7-1.2,2.7-2.7v-4.2c0-1.5-1.2-2.7-2.7-2.7
			C19.4,13.4,18.2,14.6,18.2,16.1z M21.9,16.1v4.2c0,0.6-0.5,1.1-1.1,1.1c-0.6,0-1.1-0.5-1.1-1.1v-4.2c0-0.6,0.5-1.1,1.1-1.1
			C21.5,15,21.9,15.5,21.9,16.1z"/>
		<path id="XMLID_759_" class="st0" d="M20.9,35.2c-0.2,0-0.4,0.1-0.6,0.2c-0.1,0.1-0.2,0.3-0.2,0.6c0,0.2,0.1,0.4,0.2,0.6
			c0.1,0.1,0.3,0.2,0.6,0.2c0.2,0,0.4-0.1,0.6-0.2c0.1-0.1,0.2-0.3,0.2-0.6c0-0.2-0.1-0.4-0.2-0.6C21.3,35.2,21.1,35.2,20.9,35.2z"
			/>
	</g>
</g>
</svg>
