<svg enable-background="new 0 0 512 512" viewBox="0 0 512 512" xmlns="http://www.w3.org/2000/svg" xmlns:xlink="http://www.w3.org/1999/xlink"><linearGradient id="a"><stop offset="0" stop-color="#4cb6ea"/><stop offset="1" stop-color="#5b6ddd"/></linearGradient><linearGradient id="b" gradientTransform="matrix(1 0 0 -1 0 513.2756)" gradientUnits="userSpaceOnUse" x1="199.0435" x2="255.0434" xlink:href="#a" y1="555.507" y2="-1.493"/><linearGradient id="c"><stop offset=".001308381" stop-color="#4cb6ea"/><stop offset="1" stop-color="#5b6ddd"/></linearGradient><linearGradient id="d" gradientUnits="userSpaceOnUse" x1="213" x2="213" xlink:href="#c" y1="80.3" y2="112.9"/><linearGradient id="e" gradientTransform="matrix(1 0 0 -1 0 513.2756)" gradientUnits="userSpaceOnUse" x1="280.7817" x2="336.7816" xlink:href="#a" y1="563.7249" y2="6.7249"/><linearGradient id="f" gradientUnits="userSpaceOnUse" x1="299.15" x2="299.15" xlink:href="#c" y1="117.525" y2="146.975"/><linearGradient id="g" gradientTransform="matrix(1 0 0 -1 0 513.2756)" gradientUnits="userSpaceOnUse" x1="307.5002" x2="363.5002" xlink:href="#a" y1="566.4112" y2="9.4112"/><linearGradient id="h" gradientUnits="userSpaceOnUse" x1="334.8" x2="334.8" xlink:href="#c" y1="207.4" y2="229.4"/><linearGradient id="i" gradientTransform="matrix(1 0 0 -1 0 513.2756)" gradientUnits="userSpaceOnUse" x1="177.5664" x2="233.5663" xlink:href="#a" y1="553.3478" y2="-3.6522"/><linearGradient id="j" gradientUnits="userSpaceOnUse" x1="216.1" x2="216.1" xlink:href="#c" y1="326.9" y2="359.5"/><linearGradient id="k" gradientTransform="matrix(1 0 0 -1 0 513.2756)" gradientUnits="userSpaceOnUse" x1="93.1654" x2="149.1653" xlink:href="#a" y1="544.8622" y2="-12.1377"/><linearGradient id="l" gradientUnits="userSpaceOnUse" x1="126.95" x2="126.95" xlink:href="#c" y1="289.725" y2="319.175"/><linearGradient id="m" gradientTransform="matrix(1 0 0 -1 0 513.2756)" gradientUnits="userSpaceOnUse" x1="66.4369" x2="122.4368" xlink:href="#a" y1="542.175" y2="-14.825"/><linearGradient id="n" gradientUnits="userSpaceOnUse" x1="91.3" x2="91.3" xlink:href="#c" y1="207.4" y2="229.4"/><linearGradient id="o" gradientTransform="matrix(1 0 0 -1 0 513.2756)" gradientUnits="userSpaceOnUse" x1="110.3048" x2="166.3049" xlink:href="#a" y1="546.5854" y2="-10.4146"/><linearGradient id="p" gradientUnits="userSpaceOnUse" x1="126.95" x2="126.95" xlink:href="#c" y1="117.525" y2="146.975"/><linearGradient id="q" gradientTransform="matrix(1 0 0 -1 0 513.2756)" gradientUnits="userSpaceOnUse" x1="178.3994" x2="234.3993" xlink:href="#a" y1="553.4315" y2="-3.5685"/><linearGradient id="r" gradientUnits="userSpaceOnUse" x1="199.8372" x2="199.8372" xlink:href="#c" y1="139.4" y2="232.4366"/><linearGradient id="s" gradientTransform="matrix(1 0 0 -1 0 513.2756)" gradientUnits="userSpaceOnUse" x1="221.7992" x2="277.7991" xlink:href="#a" y1="557.7949" y2=".7949"/><linearGradient id="t" gradientUnits="userSpaceOnUse" x1="256.05" x2="256.05" xlink:href="#c" y1="1.8" y2="510.1"/><linearGradient id="u" gradientTransform="matrix(1 0 0 -1 0 513.2756)" gradientUnits="userSpaceOnUse" x1="335.3032" x2="391.3032" xlink:href="#a" y1="572.0411" y2="15.0411"/><linearGradient id="v" gradientTransform="matrix(1 0 0 -1 0 513.2756)" gradientUnits="userSpaceOnUse" x1="325.549" x2="381.549" xlink:href="#a" y1="565.3911" y2="8.3911"/><g stroke-miterlimit="10" stroke-width="7"><path d="m213 83.8c-4.1 0-7.5 3.4-7.5 7.5v10.6c0 4.1 3.4 7.5 7.5 7.5s7.5-3.4 7.5-7.5v-10.6c0-4.2-3.3-7.5-7.5-7.5z" fill="url(#b)" stroke="url(#d)"/><path d="m300.7 141.3 7.5-7.5c2.9-2.9 2.9-7.7 0-10.6s-7.7-2.9-10.6 0l-7.5 7.5c-2.9 2.9-2.9 7.7 0 10.6s7.7 2.9 10.6 0z" fill="url(#e)" stroke="url(#f)"/><path d="m340.1 225.9c4.1 0 7.5-3.4 7.5-7.5s-3.4-7.5-7.5-7.5h-10.6c-4.1 0-7.5 3.4-7.5 7.5s3.4 7.5 7.5 7.5z" fill="url(#g)" stroke="url(#h)"/><path d="m208.6 337.9v10.6c0 4.1 3.4 7.5 7.5 7.5s7.5-3.4 7.5-7.5v-10.6c0-4.1-3.4-7.5-7.5-7.5s-7.5 3.4-7.5 7.5z" fill="url(#i)" stroke="url(#j)"/><path d="m117.9 313.5c2.9 2.9 7.7 2.9 10.6 0l7.5-7.5c2.9-2.9 2.9-7.7 0-10.6s-7.7-2.9-10.6 0l-7.5 7.5c-2.9 2.9-2.9 7.7 0 10.6z" fill="url(#k)" stroke="url(#l)"/><path d="m96.6 225.9c4.1 0 7.5-3.4 7.5-7.5s-3.4-7.5-7.5-7.5h-10.6c-4.1 0-7.5 3.4-7.5 7.5s3.4 7.5 7.5 7.5z" fill="url(#m)" stroke="url(#n)"/><path d="m125.4 141.3c2.9 2.9 7.7 2.9 10.6 0s2.9-7.7 0-10.6l-7.5-7.5c-2.9-2.9-7.7-2.9-10.6 0s-2.9 7.7 0 10.6z" fill="url(#o)" stroke="url(#p)"/><path d="m205.5 203.7-13.6-13.3c-3-2.9-7.7-2.8-10.6.1-2.9 3-2.8 7.7.1 10.6l26.4 25.7c4.7 4.6 12.7 1.3 12.7-5.4v-71c0-4.1-3.4-7.5-7.5-7.5s-7.5 3.4-7.5 7.5z" fill="url(#q)" stroke="url(#r)"/><path d="m424.7 242.4c.9-8 1.4-16 1.4-24 0-54.8-20.8-106.8-58.5-146.6-2.9-3-7.6-3.1-10.6-.3-3 2.9-3.1 7.6-.3 10.6 35 36.9 54.3 85.3 54.3 136.3 0 6.4-.3 12.8-.9 19.3-10.4-2.8-21.3-4.3-32.5-4.5.4-4.9.7-9.9.7-14.8 0-91.1-74.1-165.3-165.3-165.3s-165.2 74.1-165.2 165.3c0 18.4 3 36.4 8.9 53.7 1.1 3.1 4 5.1 7.1 5.1.8 0 1.6-.1 2.4-.4 3.9-1.3 6-5.6 4.7-9.5-5.4-15.7-8.1-32.1-8.1-48.8 0-82.9 67.4-150.3 150.3-150.3s150.3 67.4 150.3 150.3c0 5.1-.3 10.2-.8 15.3-68.4 6.3-122.4 63.2-124.1 132.8-8.4 1.4-16.9 2.2-25.4 2.2-53.5 0-103.4-28.8-130.2-75.2-2.1-3.6-6.7-4.8-10.2-2.7-3.6 2.1-4.8 6.7-2.7 10.2 28.6 49.5 82.1 82.7 143.2 82.7 8.7 0 17.3-.7 25.9-2 .9 11.1 3.2 21.9 6.7 32.1-10.7 1.8-21.6 2.7-32.5 2.7-109.2 0-198-88.8-198-198s88.8-198 198-198c44.9 0 87.2 14.6 122.3 42.3 3.3 2.6 8 2 10.5-1.3 2.6-3.3 2-8-1.3-10.5-38-30.1-83.5-45.8-131.8-45.8-117.4 0-213 95.6-213 213.1s95.6 213 213 213c12.8 0 25.7-1.2 38.3-3.5 21.9 46.5 69.2 78.7 123.9 78.7 28.3 0 55.5-8.6 78.7-24.9 3.4-2.4 4.2-7.1 1.8-10.4-2.4-3.4-7.1-4.2-10.4-1.8-20.6 14.5-44.8 22.1-70 22.1-66.3 0-121.8-53.8-121.8-121.8 0-67.2 54.6-121.8 121.8-121.8s121.8 54.6 121.8 121.8c0 29.8-10.9 58.5-30.7 80.8-2.8 3.1-2.5 7.8.6 10.6s7.8 2.5 10.6-.6c22.2-25 34.5-57.3 34.5-90.8-.1-57.9-36.4-107.5-87.4-127.4z" fill="url(#s)" stroke="url(#t)"/></g><path d="m397.7 293.3c0-12.4-10.1-22.5-22.5-22.5s-22.5 10.1-22.5 22.5v89.6c0 12.4 10.1 22.5 22.5 22.5s22.5-10.1 22.5-22.5zm-15 89.6c0 4.1-3.4 7.5-7.5 7.5s-7.5-3.4-7.5-7.5v-89.6c0-4.1 3.4-7.5 7.5-7.5s7.5 3.4 7.5 7.5z" fill="url(#u)"/><path d="m375.2 414.4c-12.4 0-22.5 10.1-22.5 22.5v9.6c0 12.4 10.1 22.5 22.5 22.5s22.5-10.1 22.5-22.5v-9.6c0-12.4-10.1-22.5-22.5-22.5zm7.5 32.1c0 4.1-3.4 7.5-7.5 7.5s-7.5-3.4-7.5-7.5v-9.6c0-4.1 3.4-7.5 7.5-7.5s7.5 3.4 7.5 7.5z" fill="url(#v)"/></svg>