<?xml version="1.0" encoding="utf-8"?>
<!-- Generator: Adobe Illustrator 24.0.3, SVG Export Plug-In . SVG Version: 6.00 Build 0)  -->
<svg version="1.1" id="Capa_1" xmlns="http://www.w3.org/2000/svg" xmlns:xlink="http://www.w3.org/1999/xlink" x="0px" y="0px"
	 viewBox="0 0 512 512" style="enable-background:new 0 0 512 512;" xml:space="preserve">
<style type="text/css">
	.st0{fill:url(#SVGID_1_);stroke:url(#SVGID_2_);stroke-width:7;stroke-miterlimit:10;}
	.st1{fill:url(#SVGID_3_);stroke:url(#SVGID_4_);stroke-width:7;stroke-miterlimit:10;}
	.st2{fill:url(#SVGID_5_);stroke:url(#SVGID_6_);stroke-width:7;stroke-miterlimit:10;}
	.st3{fill:url(#SVGID_7_);stroke:url(#SVGID_8_);stroke-width:7;stroke-miterlimit:10;}
	.st4{fill:url(#SVGID_9_);stroke:url(#SVGID_10_);stroke-width:7;stroke-miterlimit:10;}
	.st5{fill:url(#SVGID_11_);stroke:url(#SVGID_12_);stroke-width:7;stroke-miterlimit:10;}
	.st6{fill:url(#SVGID_13_);stroke:url(#SVGID_14_);stroke-width:7;stroke-miterlimit:10;}
	.st7{fill:url(#SVGID_15_);stroke:url(#SVGID_16_);stroke-width:7;stroke-miterlimit:10;}
	.st8{fill:url(#SVGID_17_);stroke:url(#SVGID_18_);stroke-width:7;stroke-miterlimit:10;}
	.st9{fill:url(#SVGID_19_);}
	.st10{fill:url(#SVGID_20_);}
</style>
<g>
	
		<linearGradient id="SVGID_1_" gradientUnits="userSpaceOnUse" x1="199.0435" y1="555.507" x2="255.0434" y2="-1.493" gradientTransform="matrix(1 0 0 -1 0 513.2756)">
		<stop  offset="0" style="stop-color:#4CB6EA"/>
		<stop  offset="1" style="stop-color:#5B6DDD"/>
	</linearGradient>
	<linearGradient id="SVGID_2_" gradientUnits="userSpaceOnUse" x1="213" y1="80.3" x2="213" y2="112.9">
		<stop  offset="1.308381e-03" style="stop-color:#4CB6EA"/>
		<stop  offset="1" style="stop-color:#5B6DDD"/>
	</linearGradient>
	<path class="st0" d="M213,83.8c-4.1,0-7.5,3.4-7.5,7.5v10.6c0,4.1,3.4,7.5,7.5,7.5s7.5-3.4,7.5-7.5V91.3
		C220.5,87.1,217.2,83.8,213,83.8z"/>
	
		<linearGradient id="SVGID_3_" gradientUnits="userSpaceOnUse" x1="280.7817" y1="563.7249" x2="336.7816" y2="6.7249" gradientTransform="matrix(1 0 0 -1 0 513.2756)">
		<stop  offset="0" style="stop-color:#4CB6EA"/>
		<stop  offset="1" style="stop-color:#5B6DDD"/>
	</linearGradient>
	<linearGradient id="SVGID_4_" gradientUnits="userSpaceOnUse" x1="299.15" y1="117.525" x2="299.15" y2="146.975">
		<stop  offset="1.308381e-03" style="stop-color:#4CB6EA"/>
		<stop  offset="1" style="stop-color:#5B6DDD"/>
	</linearGradient>
	<path class="st1" d="M300.7,141.3l7.5-7.5c2.9-2.9,2.9-7.7,0-10.6s-7.7-2.9-10.6,0l-7.5,7.5c-2.9,2.9-2.9,7.7,0,10.6
		C293,144.2,297.8,144.2,300.7,141.3z"/>
	
		<linearGradient id="SVGID_5_" gradientUnits="userSpaceOnUse" x1="307.5002" y1="566.4112" x2="363.5002" y2="9.4112" gradientTransform="matrix(1 0 0 -1 0 513.2756)">
		<stop  offset="0" style="stop-color:#4CB6EA"/>
		<stop  offset="1" style="stop-color:#5B6DDD"/>
	</linearGradient>
	<linearGradient id="SVGID_6_" gradientUnits="userSpaceOnUse" x1="334.8" y1="207.4" x2="334.8" y2="229.4">
		<stop  offset="1.308381e-03" style="stop-color:#4CB6EA"/>
		<stop  offset="1" style="stop-color:#5B6DDD"/>
	</linearGradient>
	<path class="st2" d="M340.1,225.9c4.1,0,7.5-3.4,7.5-7.5s-3.4-7.5-7.5-7.5h-10.6c-4.1,0-7.5,3.4-7.5,7.5s3.4,7.5,7.5,7.5H340.1z"/>
	
		<linearGradient id="SVGID_7_" gradientUnits="userSpaceOnUse" x1="177.5664" y1="553.3478" x2="233.5663" y2="-3.6522" gradientTransform="matrix(1 0 0 -1 0 513.2756)">
		<stop  offset="0" style="stop-color:#4CB6EA"/>
		<stop  offset="1" style="stop-color:#5B6DDD"/>
	</linearGradient>
	<linearGradient id="SVGID_8_" gradientUnits="userSpaceOnUse" x1="216.1" y1="326.9" x2="216.1" y2="359.5">
		<stop  offset="1.308381e-03" style="stop-color:#4CB6EA"/>
		<stop  offset="1" style="stop-color:#5B6DDD"/>
	</linearGradient>
	<path class="st3" d="M208.6,337.9v10.6c0,4.1,3.4,7.5,7.5,7.5s7.5-3.4,7.5-7.5v-10.6c0-4.1-3.4-7.5-7.5-7.5
		S208.6,333.8,208.6,337.9z"/>
	
		<linearGradient id="SVGID_9_" gradientUnits="userSpaceOnUse" x1="93.1654" y1="544.8622" x2="149.1653" y2="-12.1377" gradientTransform="matrix(1 0 0 -1 0 513.2756)">
		<stop  offset="0" style="stop-color:#4CB6EA"/>
		<stop  offset="1" style="stop-color:#5B6DDD"/>
	</linearGradient>
	<linearGradient id="SVGID_10_" gradientUnits="userSpaceOnUse" x1="126.95" y1="289.725" x2="126.95" y2="319.175">
		<stop  offset="1.308381e-03" style="stop-color:#4CB6EA"/>
		<stop  offset="1" style="stop-color:#5B6DDD"/>
	</linearGradient>
	<path class="st4" d="M117.9,313.5c2.9,2.9,7.7,2.9,10.6,0l7.5-7.5c2.9-2.9,2.9-7.7,0-10.6s-7.7-2.9-10.6,0l-7.5,7.5
		C115,305.8,115,310.6,117.9,313.5z"/>
	
		<linearGradient id="SVGID_11_" gradientUnits="userSpaceOnUse" x1="66.4369" y1="542.175" x2="122.4368" y2="-14.825" gradientTransform="matrix(1 0 0 -1 0 513.2756)">
		<stop  offset="0" style="stop-color:#4CB6EA"/>
		<stop  offset="1" style="stop-color:#5B6DDD"/>
	</linearGradient>
	<linearGradient id="SVGID_12_" gradientUnits="userSpaceOnUse" x1="91.3" y1="207.4" x2="91.3" y2="229.4">
		<stop  offset="1.308381e-03" style="stop-color:#4CB6EA"/>
		<stop  offset="1" style="stop-color:#5B6DDD"/>
	</linearGradient>
	<path class="st5" d="M96.6,225.9c4.1,0,7.5-3.4,7.5-7.5s-3.4-7.5-7.5-7.5H86c-4.1,0-7.5,3.4-7.5,7.5s3.4,7.5,7.5,7.5H96.6z"/>
	
		<linearGradient id="SVGID_13_" gradientUnits="userSpaceOnUse" x1="110.3048" y1="546.5854" x2="166.3049" y2="-10.4146" gradientTransform="matrix(1 0 0 -1 0 513.2756)">
		<stop  offset="0" style="stop-color:#4CB6EA"/>
		<stop  offset="1" style="stop-color:#5B6DDD"/>
	</linearGradient>
	<linearGradient id="SVGID_14_" gradientUnits="userSpaceOnUse" x1="126.95" y1="117.525" x2="126.95" y2="146.975">
		<stop  offset="1.308381e-03" style="stop-color:#4CB6EA"/>
		<stop  offset="1" style="stop-color:#5B6DDD"/>
	</linearGradient>
	<path class="st6" d="M125.4,141.3c2.9,2.9,7.7,2.9,10.6,0s2.9-7.7,0-10.6l-7.5-7.5c-2.9-2.9-7.7-2.9-10.6,0s-2.9,7.7,0,10.6
		L125.4,141.3z"/>
	
		<linearGradient id="SVGID_15_" gradientUnits="userSpaceOnUse" x1="178.3994" y1="553.4315" x2="234.3993" y2="-3.5685" gradientTransform="matrix(1 0 0 -1 0 513.2756)">
		<stop  offset="0" style="stop-color:#4CB6EA"/>
		<stop  offset="1" style="stop-color:#5B6DDD"/>
	</linearGradient>
	<linearGradient id="SVGID_16_" gradientUnits="userSpaceOnUse" x1="199.8372" y1="139.4" x2="199.8372" y2="232.4366">
		<stop  offset="1.308381e-03" style="stop-color:#4CB6EA"/>
		<stop  offset="1" style="stop-color:#5B6DDD"/>
	</linearGradient>
	<path class="st7" d="M205.5,203.7l-13.6-13.3c-3-2.9-7.7-2.8-10.6,0.1c-2.9,3-2.8,7.7,0.1,10.6l26.4,25.7
		c4.7,4.6,12.7,1.3,12.7-5.4v-71c0-4.1-3.4-7.5-7.5-7.5s-7.5,3.4-7.5,7.5L205.5,203.7z"/>
	
		<linearGradient id="SVGID_17_" gradientUnits="userSpaceOnUse" x1="221.7992" y1="557.7949" x2="277.7991" y2="0.7949" gradientTransform="matrix(1 0 0 -1 0 513.2756)">
		<stop  offset="0" style="stop-color:#4CB6EA"/>
		<stop  offset="1" style="stop-color:#5B6DDD"/>
	</linearGradient>
	<linearGradient id="SVGID_18_" gradientUnits="userSpaceOnUse" x1="256.05" y1="1.8" x2="256.05" y2="510.1">
		<stop  offset="1.308381e-03" style="stop-color:#4CB6EA"/>
		<stop  offset="1" style="stop-color:#5B6DDD"/>
	</linearGradient>
	<path class="st8" d="M424.7,242.4c0.9-8,1.4-16,1.4-24c0-54.8-20.8-106.8-58.5-146.6c-2.9-3-7.6-3.1-10.6-0.3
		c-3,2.9-3.1,7.6-0.3,10.6c35,36.9,54.3,85.3,54.3,136.3c0,6.4-0.3,12.8-0.9,19.3c-10.4-2.8-21.3-4.3-32.5-4.5
		c0.4-4.9,0.7-9.9,0.7-14.8c0-91.1-74.1-165.3-165.3-165.3S47.8,127.2,47.8,218.4c0,18.4,3,36.4,8.9,53.7c1.1,3.1,4,5.1,7.1,5.1
		c0.8,0,1.6-0.1,2.4-0.4c3.9-1.3,6-5.6,4.7-9.5c-5.4-15.7-8.1-32.1-8.1-48.8c0-82.9,67.4-150.3,150.3-150.3s150.3,67.4,150.3,150.3
		c0,5.1-0.3,10.2-0.8,15.3c-68.4,6.3-122.4,63.2-124.1,132.8c-8.4,1.4-16.9,2.2-25.4,2.2c-53.5,0-103.4-28.8-130.2-75.2
		c-2.1-3.6-6.7-4.8-10.2-2.7c-3.6,2.1-4.8,6.7-2.7,10.2c28.6,49.5,82.1,82.7,143.2,82.7c8.7,0,17.3-0.7,25.9-2
		c0.9,11.1,3.2,21.9,6.7,32.1c-10.7,1.8-21.6,2.7-32.5,2.7c-109.2,0-198-88.8-198-198s88.8-198,198-198c44.9,0,87.2,14.6,122.3,42.3
		c3.3,2.6,8,2,10.5-1.3c2.6-3.3,2-8-1.3-10.5C306.8,21,261.3,5.3,213,5.3C95.6,5.3,0,100.9,0,218.4s95.6,213,213,213
		c12.8,0,25.7-1.2,38.3-3.5c21.9,46.5,69.2,78.7,123.9,78.7c28.3,0,55.5-8.6,78.7-24.9c3.4-2.4,4.2-7.1,1.8-10.4
		c-2.4-3.4-7.1-4.2-10.4-1.8c-20.6,14.5-44.8,22.1-70,22.1c-66.3,0-121.8-53.8-121.8-121.8c0-67.2,54.6-121.8,121.8-121.8
		s121.8,54.6,121.8,121.8c0,29.8-10.9,58.5-30.7,80.8c-2.8,3.1-2.5,7.8,0.6,10.6c3.1,2.8,7.8,2.5,10.6-0.6
		c22.2-25,34.5-57.3,34.5-90.8C512,311.9,475.7,262.3,424.7,242.4L424.7,242.4z"/>
	
		<linearGradient id="SVGID_19_" gradientUnits="userSpaceOnUse" x1="335.3032" y1="572.0411" x2="391.3032" y2="15.0411" gradientTransform="matrix(1 0 0 -1 0 513.2756)">
		<stop  offset="0" style="stop-color:#4CB6EA"/>
		<stop  offset="1" style="stop-color:#5B6DDD"/>
	</linearGradient>
	<path class="st9" d="M397.7,293.3c0-12.4-10.1-22.5-22.5-22.5s-22.5,10.1-22.5,22.5v89.6c0,12.4,10.1,22.5,22.5,22.5
		s22.5-10.1,22.5-22.5V293.3z M382.7,382.9c0,4.1-3.4,7.5-7.5,7.5s-7.5-3.4-7.5-7.5v-89.6c0-4.1,3.4-7.5,7.5-7.5s7.5,3.4,7.5,7.5
		V382.9z"/>
	
		<linearGradient id="SVGID_20_" gradientUnits="userSpaceOnUse" x1="325.549" y1="565.3911" x2="381.549" y2="8.3911" gradientTransform="matrix(1 0 0 -1 0 513.2756)">
		<stop  offset="0" style="stop-color:#4CB6EA"/>
		<stop  offset="1" style="stop-color:#5B6DDD"/>
	</linearGradient>
	<path class="st10" d="M375.2,414.4c-12.4,0-22.5,10.1-22.5,22.5v9.6c0,12.4,10.1,22.5,22.5,22.5s22.5-10.1,22.5-22.5v-9.6
		C397.7,424.5,387.6,414.4,375.2,414.4z M382.7,446.5c0,4.1-3.4,7.5-7.5,7.5s-7.5-3.4-7.5-7.5v-9.6c0-4.1,3.4-7.5,7.5-7.5
		s7.5,3.4,7.5,7.5V446.5z"/>
</g>
</svg>
