<svg height="352" viewBox="0 0 319 352" width="319" xmlns="http://www.w3.org/2000/svg" xmlns:xlink="http://www.w3.org/1999/xlink"><linearGradient id="a"><stop offset=".01"/><stop offset=".08" stop-opacity=".69"/><stop offset=".21" stop-opacity=".32"/><stop offset="1" stop-opacity="0"/></linearGradient><linearGradient id="b" x1="5.467943%" x2="129.950319%" xlink:href="#a" y1="-37.280476%" y2="177.61833%"/><linearGradient id="c"><stop offset=".01"/><stop offset=".13" stop-opacity=".69"/><stop offset=".25" stop-opacity=".32"/><stop offset="1" stop-opacity="0"/></linearGradient><linearGradient id="d" x1="73.271757%" x2="3.227949%" xlink:href="#c" y1="42.681639%" y2="64.066768%"/><linearGradient id="e" x1="5.205063%" x2="91.935388%" xlink:href="#c" y1="69.442903%" y2="32.445107%"/><linearGradient id="f" x1="151.465416%" x2="-208.245408%" xlink:href="#a" y1="11.502403%" y2="147.957712%"/><linearGradient id="g" x1="153.441232%" x2="-135.842238%" xlink:href="#a" y1="31.903479%" y2="82.288152%"/><linearGradient id="h" x1="154.68259%" x2="-134.60088%" xlink:href="#a" y1="23.572433%" y2="93.132523%"/><linearGradient id="i" x1="28.62069%" x2="89.586207%" xlink:href="#a" y1="14.664937%" y2="101.974068%"/><linearGradient id="j" x1="5.84538%" x2="116.169076%" xlink:href="#a" y1="26.516536%" y2="79.891091%"/><linearGradient id="k" x1="24.038102%" x2="69.929025%" xlink:href="#a" y1="18.697148%" y2="75.577209%"/><linearGradient id="l" x1="140.994768%" x2="-108.314947%" xlink:href="#a" y1="25.087862%" y2="104.931283%"/><linearGradient id="m" x1="45.10492%" x2="55.389243%" xlink:href="#a" y1="-32.837528%" y2="136.535479%"/><linearGradient id="n" x1="4.751131%" x2="120.076209%" xlink:href="#a" y1="-23.816743%" y2="164.317525%"/><linearGradient id="o" x1="12.038581%" x2="94.510598%" xlink:href="#a" y1="-18.514507%" y2="127.393997%"/><linearGradient id="p" x1=".208031%" x2="121.918931%" xlink:href="#a" y1="35.138046%" y2="69.705863%"/><linearGradient id="q" x1="-40.464104%" x2="194.633793%" xlink:href="#c" y1="-35.665399%" y2="192.243346%"/><linearGradient id="r" x1="5.862414%" x2="163.629353%" xlink:href="#c" y1="27.445558%" y2="108.037199%"/><linearGradient id="s" x1="24.044539%" x2="89.885826%" xlink:href="#c" y1="78.498997%" y2="8.240018%"/><linearGradient id="t" x1="18.321749%" x2="116.446141%" xlink:href="#c" y1="-54.337048%" y2="218.186028%"/><linearGradient id="u" x1="77.039877%" x2="-99.582822%" xlink:href="#a" y1="74.614932%" y2="-86.219791%"/><g fill="none" transform="translate(0 .044465)"><path d="m91.7820079 34.4989541c-5.6503562 8.1490005-10.3297019 17.4861278-15.3142224 26.4487368-18.6526488 33.5774978-41.6979641 62.5058041-58.0386832 98.3949831-16.34071919 35.889179-25.20003382 82.639388-12.14225485 120.995222 8.80382835 25.919245 26.37449405 44.296468 45.21209725 55.712818 16.1108984 9.929632 33.5391085 15.007662 51.1491333 14.904821 36.815168-.608556 70.948498-25.714193 106.949868-36.51065 15.961562-4.791251 32.367015-6.780072 48.143624-12.578647 11.18974-4.106786 22.139039-10.215308 31.442244-19.810724 25.717906-26.48748 34.817661-77.086186 27.225284-120.439902-7.592377-43.353715-29.38925-79.6948994-54.922202-106.5439832-43.307067-45.54916728-125.463801-84.382835-169.7048881-20.5726747z" fill="#5b6edc" opacity=".18"/><path d="m85 267.485878-49-1.530343 6.0791007 33.905013 34.7202332 1.094987z" fill="#5b6edc"/><path d="m85 267.485878-49-1.530343 6.0791007 33.905013 34.7202332 1.094987z" fill="url(#b)"/><path d="m33.0303115 181.955535c-1.2146624 2.437036-1.8136852 5.129686-1.7455979 7.846586-.6136867 12.303338-.5182243 24.849772 3.2048086 36.585887 5.4549934 17.259788 18.1651279 31.183764 30.5206879 44.567527-.9273489-1.472079 1.8137852-9.278149 2.1819973-11.141882.7227866-3.646434 1.5410356-7.279362 2.3047347-10.912291 1.2273735-5.753262 0-11.803642-1.4455733-17.462367-3.1554641-12.828697-9.3388707-24.733145-18.0423905-34.73566-4.9235558-5.689542-10.6405574-10.655374-16.9786668-14.7478z" fill="#5b6edc"/><path d="m33.0303115 181.955535c-1.2146624 2.437036-1.8136852 5.129686-1.7455979 7.846586-.6136867 12.303338-.5182243 24.849772 3.2048086 36.585887 5.4549934 17.259788 18.1651279 31.183764 30.5206879 44.567527-.9273489-1.472079 1.8137852-9.278149 2.1819973-11.141882.7227866-3.646434 1.5410356-7.279362 2.3047347-10.912291 1.2273735-5.753262 0-11.803642-1.4455733-17.462367-3.1554641-12.828697-9.3388707-24.733145-18.0423905-34.73566-4.9235558-5.689542-10.6405574-10.655374-16.9786668-14.7478z" fill="url(#d)"/><path d="m86.5716943 224.071284c4.1254346-9.166559 8.2913145-18.45444 9.8417229-28.389372s.1752636-20.719118-5.9050337-28.726377c-7.8464147 11.889566-15.7018173 23.774638-23.5662077 35.655217-4.5298889 6.861439-9.1406687 13.87116-11.3651677 21.797537-3.8962437 13.898121-.431418 35.277771 8.830587 46.547246 5.2848704-4.515878 7.752042-14.828257 10.6101862-21.204407z" fill="#5b6edc"/><path d="m86.5716943 224.071284c4.1254346-9.166559 8.2913145-18.45444 9.8417229-28.389372s.1752636-20.719118-5.9050337-28.726377c-7.8464147 11.889566-15.7018173 23.774638-23.5662077 35.655217-4.5298889 6.861439-9.1406687 13.87116-11.3651677 21.797537-3.8962437 13.898121-.431418 35.277771 8.830587 46.547246 5.2848704-4.515878 7.752042-14.828257 10.6101862-21.204407z" fill="url(#e)"/><path d="m35.0407035 253.95923 51.4239788 1.646667c4.2794058.136199 7.644598 3.667314 7.5326014 7.904002-.1447389 4.230747-3.7099592 7.553904-7.9850898 7.442936l-51.4772128-1.528107c-4.2761797-.143278-7.6372704-3.67009-7.5326014-7.904003.041662-2.061556.9148148-4.020932 2.424828-5.441373 1.5100131-1.42044 3.5313688-2.183872 5.6134958-2.120122z" fill="#5b6edc"/><path d="m169 251.955535 16.554904 39.392547 51.445096 8.607453-16.554904-46.184365z" fill="#5b6edc"/><path d="m169 251.955535 16.554904 39.392547 51.445096 8.607453-16.554904-46.184365z" fill="url(#f)"/><path d="m185.284098 290.955535-33.284098 8.513064 68.130893 19.486936 16.869107-19.486936z" fill="url(#g)"/><path d="m185.284098 290.955535-33.284098 8.660969 60.036926 29.339031 24.963074-29.339031z" fill="#5b6edc"/><path d="m185.284098 290.955535-33.284098 8.660969 60.036926 29.339031 24.963074-29.339031z" fill="url(#h)"/><path d="m159 251.955535 16.55167 39.392547 51.44833 8.607453-16.55167-46.184365z" fill="#5b6edc"/><path d="m170.466667 281.955535 45.533333-10.22293-6.36-17.934486-51.64-1.842584z" fill="url(#i)"/><path d="m174.270742 290.955535-33.270742 8.513064 68.130893 19.486936 16.869107-19.486936z" fill="#5b6edc"/><path d="m174.270742 290.955535-33.270742 8.513064 68.130893 19.486936 16.869107-19.486936z" fill="url(#j)"/><path d="m210.305566 320.227675 1.694434 9.72786-72-22.306273 1.707882-7.693727z" fill="#5b6edc"/><path d="m210.305566 320.227675 1.694434 9.72786-72-22.306273 1.707882-7.693727z" fill="url(#k)"/><path d="m293 88.404716v176.080759c0 1.985818-.793062 3.889914-2.203997 5.291585-1.410936 1.401671-3.323596 2.185545-5.315388 2.178475h-.805648l-197.9612306-22.035244c-3.8158388-.39759-6.7137364-3.60476-6.7137364-7.42985v-133.978274c0-3.82509 2.8978976-7.032261 6.7137364-7.429851l197.9612306-20.0806761c4.114543-.4541944 7.821129 2.4985696 8.284751 6.599849.026855.2677424.040282.5354847.040282.8032271z" fill="#5b6edc"/><path d="m293 88.404716v176.080759c0 1.985818-.793062 3.889914-2.203997 5.291585-1.410936 1.401671-3.323596 2.185545-5.315388 2.178475h-.805648l-197.9612306-22.035244c-3.8158388-.39759-6.7137364-3.60476-6.7137364-7.42985v-133.978274c0-3.82509 2.8978976-7.032261 6.7137364-7.429851l197.9612306-20.0806761c4.114543-.4541944 7.821129 2.4985696 8.284751 6.599849.026855.2677424.040282.5354847.040282.8032271z" fill="url(#l)"/><path d="m288 88.4220635v176.0641175c0 1.985631-.793062 3.889546-2.203997 5.291085-1.410936 1.401538-3.323596 2.185338-5.315388 2.178269h-.805648l-197.9612306-22.033161c-3.8158388-.397553-6.7137364-3.60442-6.7137364-7.429148v-133.965612c0-3.824729 2.8978976-7.031596 6.7137364-7.429148l198.0417956-20.1055506c1.978434-.1980012 3.954681.3960962 5.493489 1.6514466s2.513964 3.0689904 2.710697 5.0414796c.026341.2445356.040282.490281.040282.7362219z" fill="#5b6edc"/><path d="m84 230.688036v-123.452523l188-15.2799779v148.9999999z" fill="url(#m)"/><path d="m248 177.955535h-113v-53.973576l113-5.026424z" fill="url(#n)"/><path d="m248 239.955535-113-6.055741v-50.944259h113z" fill="url(#o)"/><path d="m288 242.307094v22.152334c0 1.992742-.793062 3.903477-2.203997 5.310036-1.410936 1.406558-3.323596 2.193165-5.315388 2.186071h-.805648l-197.9612306-22.11208c-3.8158388-.398976-6.7137364-3.61733-6.7137364-7.455758v-11.432162z" fill="url(#p)"/><path d="m108 129.979109c0 1.752091-2.688905 3.408365-4.007252 3.819012-.550178.123854-1.087797.302615-1.605511.53384-.515445.274638-.838806.830972-.835388 1.437262.065265.506464.456853.917111.561276 1.368822.06414.46165.014715.93283-.143582 1.368821-.509064 1.68365-2.5061637 2.737642-2.9891224 4.448669-2.7672226-.301141-4.0072516 0-6.7483684-.53384l-2.2320522-1.546768 3.4459753-6.761977c.4460519-.951467.9934114-1.846906 1.6316172-2.669202.7410108-.832825 1.5941168-1.547603 2.5322697-2.121673 2.3933538-1.62808 4.8876568-3.086835 7.4662798-4.36654-.391588.164259 2.923858 4.571863 2.923858 5.023574z" fill="url(#q)"/><path d="m115.461329 59.0018963-.282352.1092497c-1.553119.4905443-3.133468.8872683-4.732754 1.1880898l-3.643682.8739971c-1.084102.4399143-2.249292.6356054-3.415112.5735606.458533-1.109884 1.273691-2.029286 2.312595-2.6083351.779829-.3823737 1.680666-.5052796 2.447049-.9149657 1.581281-.900472 2.313754-2.8118785 1.747892-4.5611724-.172603-.5033365-.479895-.9478587-.887391-1.2836832-1.262801-.7218446-2.843946-.504373-3.872253.532592-.968936 1.0337191-1.867373 2.133316-2.689065 3.2911453-1.595384 1.4592914-3.2696878 2.8270374-5.0151054 4.0968614-1.6134388 1.4612139-2.8907444 3.6871752-2.2722596 5.7902307.6184849 2.1030555 3.2672135 1.8572438 5.109223 1.8572438 2.309686-.0329621 4.608961-.3214449 6.857114-.8603408 2.218479-.4916234 4.410066-1.1198088 6.615099-1.7070256 1.056766-.337786 2.134864-.6024127 3.226878-.7920599.722425.0262929 1.444297-.0659328 2.137806-.2731241.617376-.3202682 1.148216-.7891087 1.546212-1.3656204.754337-.8717225 1.224072-1.9595161 1.344533-3.1136147.080672-1.6114321-.994954-3.1818956-2.689065-2.7312409-1.319927.549718-2.604281 1.1837224-3.845362 1.8982124z" fill="#f9c6d6"/><path d="m106.661551 122.160504c.451265.881968.451265 1.914273 0 2.796241-.276848.327955-.641661.577552-1.055328.722034-.987679.457938-2.160858.340989-3.028926-.301942-.44125-.475264-.75211-1.048222-.904566-1.667242-.755024-2.26017-1.300785-4.579638-1.630961-6.931525-.0556934-.211104-.0556934-.432162 0-.643266.123279-.230026.327024-.411244.575633-.511988 1.274616-.669522 3.289332-1.194638 4.015726.275686.820243 2.04198 1.497877 4.133925 2.028422 6.262002z" fill="#f9c6d6"/><path d="m103.437675 121.976204c-.248863-.043641-.503229-.013725-.739402.086962-.165181.099425-.307081.243642-.413564.420315l-2.506447 3.362518c-.4887573.652212-1.0151112 1.550816-.6642086 2.304484.2468931.43739.6530826.720314 1.1028366.768162 1.226857.14242 2.463111-.129431 3.559156-.782655.789531-.405822 1.566529-.84063 2.318463-1.318919.567349-.294985 1.062546-.748164 1.441208-1.318919.576483-1.04354.751934-3.550935-.27571-4.348083-.526353-.391328-.990046-.115949-1.478803.159429-.723813.435846-1.527485.664481-2.343529.666706z" fill="#5b6edc"/><path d="m92.0319716 132.391408c-.0426288.17738-.0426288.361875 0 .539255.0964871.176795.2457017.321343.4282053.414812.550826.371009 1.1994934.582067 1.8698297.608391.6788915.026372 1.3304066-.260975 1.7556416-.774316.3131397-.478714.4994487-1.024908.5423933-1.590112.2442987-1.225745.3685541-2.471101.3711112-3.71948.0088872-.176598-.0524078-.349783-.1712821-.483947-.0969662-.067423-.2098399-.110209-.3282907-.124444-1.0562396-.221233-3.1258984-.760488-3.6540183.497774-.5260927 1.49171-.8008053 3.05575-.81359 4.632067z" fill="#f9c6d6"/><path d="m87.5323401 132.3349c-.8699266.03994-1.7296923.195065-2.5543246.460869-.8363493.288636-1.5129105.887592-1.8740969 1.659127-.1385581.384099-.1385581.800992 0 1.185091.2782353.584637.771859 1.052854 1.3882199 1.316769 2.9067548 1.490249 6.1985559 2.170415 9.4954243 1.961984.8448401.026439 1.6670244-.261875 2.2905628-.803229.4559412-.657933.670616-1.44004.6108168-2.225338l.1110576-3.700118c-.7402818.040528-1.4614603.238545-2.1100943.579378-1.2077513.395031-1.6797461-.553042-2.6931466-.776893-1.5640954-.103954-3.1358033.011406-4.664419.34236z" fill="#5b6edc"/><path d="m103.437675 121.976204c-.248863-.043641-.503229-.013725-.739402.086962-.165181.099425-.307081.243642-.413564.420315l-2.506447 3.362518c-.4887573.652212-1.0151112 1.550816-.6642086 2.304484.2468931.43739.6530826.720314 1.1028366.768162 1.226857.14242 2.463111-.129431 3.559156-.782655.789531-.405822 1.566529-.84063 2.318463-1.318919.567349-.294985 1.062546-.748164 1.441208-1.318919.576483-1.04354.751934-3.550935-.27571-4.348083-.526353-.391328-.990046-.115949-1.478803.159429-.723813.435846-1.527485.664481-2.343529.666706z" fill="url(#r)"/><path d="m87.5323401 132.3349c-.8699266.03994-1.7296923.195065-2.5543246.460869-.8363493.288636-1.5129105.887592-1.8740969 1.659127-.1385581.384099-.1385581.800992 0 1.185091.2782353.584637.771859 1.052854 1.3882199 1.316769 2.9067548 1.490249 6.1985559 2.170415 9.4954243 1.961984.8448401.026439 1.6670244-.261875 2.2905628-.803229.4559412-.657933.670616-1.44004.6108168-2.225338l.1110576-3.700118c-.7402818.040528-1.4614603.238545-2.1100943.579378-1.2077513.395031-1.6797461-.553042-2.6931466-.776893-1.5640954-.103954-3.1358033.011406-4.664419.34236z" fill="url(#s)"/><path d="m99.012373 90.4600503c-.8870707.0904234-1.7013127.52656-2.2629876 1.2121355-.5616748.6855755-.8245974 1.5642169-.7307293 2.4419698 0 .1461643 0 .2790408.0805484.425205.0154876 7.5447354 1.4353647 15.0220684 4.1885185 22.0575084.123253.527979.463992.980871.939732 1.24904.40768.146168.854245.146168 1.261925 0 1.652301-.454406 3.278996-.995536 4.873181-1.621094l-2.161383-14.337381c-.098911-.400762-.075552-.821553.067123-1.209176.160621-.267335.381073-.494628.644388-.664383 2.456521-1.7923482 5.050935-3.3917457 7.759499-4.7835563 2.161383-1.1028754 4.631535-2.3652027 5.222224-4.7171177.231506-.7928366.077733-1.6471348-.416167-2.3120521-.346581-.3313197-.751526-.5970251-1.194802-.7839717-1.470077-.9053587-3.155987-1.4096347-4.886605-1.4616421-1.342474.1461642-1.825764.9035605-2.926593 1.4749297-3.074265 1.4882175-7.141961 2.0994496-10.457872 3.0295855z" fill="#282328"/><path d="m110.27623 73.5887648c-.026581-.150915-.091336-.2915712-.187494-.4072641-.133174-.0963112-.294169-.1409997-.455342-.1263924-5.604314-.3619952-11.226831.2646215-16.633394 1.853754.4663578 1.5345999 1.1142403 3.00188 1.9285094 4.3675567 2.1695731 3.9883797 4.3391462 7.990803 6.5488966 11.9651391.272865.9651087.900501 1.7768319 1.744582 2.2562733.844082.4794415 1.835327.587248 2.755273.2996602l.308026-.1123487 8.343482-1.7694924c1.339242-.2808718-1.339243-7.513321-1.82137-8.8474621-1.044609-3.0895899-1.741016-6.3055722-2.531169-9.4794236z" fill="#fff"/><path d="m121.199903 90.7792484c-1.34367-.5358088-2.649542-1.1655812-3.90832-1.8848346-4.770847-2.7515833-.862526-4.127375.727756-7.3604854 1.132065-2.3388458.673848-5.1317029.080862-7.6631596-1.037727-4.4438071-2.425854-9.0527092-1.347697-13.4965163.126485-.720654.402164-1.4054558.808618-2.0086558.291026-.3750794.62595-.7123657.997296-1.0043279 1.003243-.9022709 2.164745-1.602496 3.423149-2.0636875 2.475508-.679392 5.113405-.3384575 7.344947.9492962 9.231723 4.801513 9.177815 20.1278321 8.301812 29.1392676-.025221 2.1012684-.632643 4.1523185-1.752006 5.9159041-1.81939 2.4489092-3.517488 1.5684025-5.822049 1.155665-3.11318-.5365587-5.889435-.495285-8.854368-1.6784658z" fill="#5b6edc"/><path d="m127.005662 62.1239188c-.799361 1.062536-1.973859 1.7231626-3.244409 1.8248993-.201016.0263697-.404191-.0254376-.572542-.1459919-.181853-.1931685-.284794-.4556586-.286272-.7299598 0-.5401701-.122687-1.2409315-.177215-1.9270936-.054528-.6861622-.163584-1.5475146-.231744-2.1460816-.137493-1.5937523-.695386-3.1127599-1.608572-4.3797583-.188319-.2718082-.403094-.5213979-.640702-.744559-1.554045-1.4599194 4.78482-.90515 5.61637-2.9198388.96787 1.3285266.886078 3.2118227 1.363197 4.8469325.283506.7960712.520255 1.6103484.708862 2.4380655.223251 1.3768447-.114121 2.7902024-.926973 3.8833857z" fill="#f9c6d6"/><path d="m123.055419 60.9555351-.087465-.2919891c-.087464-.7369246-.174929-1.4738492-.247816-2.043923-.14703-1.5178859-.743616-2.9645853-1.720138-4.1712716v-.1529466s5.364498-3.3648258 5.947595.5700738c.583098 3.9348995-3.892176 6.0900565-3.892176 6.0900565z" fill="url(#t)"/><path d="m118.026 52.8359346c-.089495.8099418.053207 1.6293417.41014 2.3550377.200587.3005626.446275.5656133.727667.7850126 2.096968 1.4278054 4.839607 1.2831095 6.787151-.3580759 1.890299-1.6937702 2.989222-4.1522121 3.016511-6.7483539.148025-1.3374803-.212904-2.6821299-1.005503-3.746025-.968735-.9794744-2.349437-1.3789981-3.664797-1.0604556-1.774354.4231212-3.389577 1.381169-4.64384 2.7544302-1.230419 1.4323036-1.534716 4.1867338-1.627329 6.0184299z" fill="#f9c6d6"/><path d="m99.4214642 100.530671c-1.025312 1.310538-1.830711 2.777563-2.3849586 4.344173-3.1271989 7.624943-5.1593345 15.650237-6.0365056 23.839321 2.5499107.321827 5.1304647.321827 7.6803754 0 .2155433-5.797596 1.1201287-11.549412 2.6948686-17.13535.257627-1.192861.712994-2.334732 1.347434-3.378801 1.272991-1.560748 2.923565-2.774124 4.796866-3.526289 4.122096-2.04092 8.436915-3.671213 12.881472-4.8670827 1.872934-.5229097 3.759342-.9921877 5.605327-1.6223609 1.578645-.4792117 3.05753-1.2377199 4.365687-2.2391264 2.304112-1.9173357 4.042302-6.1140215.997101-8.1788446-1.467364-.8018707-3.109514-1.2345508-4.783392-1.2603465l-5.147199-.4826859c-.970229-.2104769-1.981921.0764344-2.694868.7642527-3.826714 2.9363393-7.747747 5.550888-11.763101 8.2190684-2.533177 1.6625848-5.564904 3.1910902-7.5591068 5.5240719z" fill="#473f47"/><path d="m135.720165 65.6191104c-.016974.2785534.020299.5577111.109885.8229771.258725 4.0548369.222006 8.1222386-.109885 12.1720963-.096149 2.4954788-.439539 7.2740553-3.145454 8.5483424-5.082176 2.4025621-14.848194 1.4733944-14.848194 1.4733944-1.133286-.1755525-2.291451-.1304224-3.406431.1327383-.618102.1858335-1.167527.5044053-1.771894.7300603-2.21322.6090878-4.558434.6090878-6.771655 0-.393266-.049033-.771938-.1755309-1.112584-.3716671-.81073-.7221742-.889428-1.9331609-.178563-2.7476815.732421-.7557807 1.694419-1.2670912 2.747122-1.4601206 2.837657-.9179633 5.887681-1.0330994 8.79079-.3318456.384597.1061906.755458.225655 1.140055.3052979.454472.0661503.914165.0928046 1.373561.079643h3.447638c3.969591 0 7.705677 0 8.241365-4.5131001.21739-1.6862298.263394-3.3889792.137357-5.0838744-.233506-3.0662533-1.057642-6.0926851-.879079-9.1589383.001626-.9712775.246699-1.9277189.714251-2.787503.468095-.8614601 1.370853-1.4212134 2.376261-1.4733944 1.055762.0776408 1.990602.6883268 2.458674 1.6061326.343746.6449323.57575 1.3399648.68678 2.0574427z" fill="#f9c6d6"/><path d="m124.134563 50.4076386c.186582.947191.259362 1.9131644.216804 2.8775161.663961-.5944165.62331-2.0669482 1.504074-2.0264198.528459 0 .772363.75653.528459 1.2293613-.309656.4653235-.801509.7791624-1.355022.8646058-.149053 2.0264198 1.463424 3.4043852 2.791345 4.6337465 1.464082 1.4265933 2.488939 3.240478 2.953949 5.228163.528285 2.5444119.719619 5.1469068.569109 7.7409236.718162-.5673976 1.734428-.2701893 2.642293-.1756231 2.79139.1283408 5.274158-1.7551641 5.894346-4.471633.524279-2.6978419-.699345-5.4346193-3.06235-6.8492988-.770609-.3092352-1.454217-.8006942-1.991882-1.4320033-.59621-.9456625-.243904-2.2020428-.203253-3.3368379-.012428-2.5502725-1.749703-4.7708494-4.22767-5.403786.486052-.8879787.798719-1.8598307.921416-2.8640066.000457-1.3676385-.568828-2.6740355-1.571826-3.6070272-.995065-.903833-2.141683-1.6263165-3.387555-2.1344955-1.117856-.6441719-2.429645-.8693318-3.699211-.6349449-1.413332.5946985-2.466215 1.814369-2.845546 3.2963095-.712805-.3286022-1.556974-.1591833-2.086734.4187934-.514018.5829299-.772636 1.3467222-.718162 2.1209861.015886.5053371.1214 1.0038774.311655 1.4725317.474258-.5673976 1.043367-1.1212856 1.612476-.7160017.56911.405284.921415 1.2428708 1.436324 1.7021926.57112.4771953 1.193748.8895216 1.85638 1.2293613.6624.2172785 1.302225.4977738 1.910581.8375869z" fill="#ffa100"/><path d="m112.965774 48.7666067-.474116 2.5619423c-.068236.6999392-.636642 1.2540669-1.354617 1.3205888-2.560226-.4357943-8.832102-1.3205888-13.302338-.1584707-2.4402543.6073668-4.827329 1.4022055-7.1388313 2.3770599-.9211395.3961766-1.8287329-.6074709-1.679725-1.8224126l1.6255403-13.6945059c.1490079-1.2017359 1.2191552-1.7960008 2.0048331-1.0960888 3.2239883 2.839266 10.7014739 8.5177979 19.0594599 8.4913861.826317 0 1.449441.9772357 1.259794 2.0205009z" fill="#5b6edc"/><ellipse cx="90.366079" cy="46.402825" fill="#5b6edc" rx="8.771239" ry="4.183827" transform="matrix(.07880708 -.99688989 .99688989 .07880708 36.986085 132.830984)"/><ellipse cx="90.366079" cy="46.402825" fill="url(#u)" rx="8.771239" ry="4.183827" transform="matrix(.07880708 -.99688989 .99688989 .07880708 36.986085 132.830984)"/><path d="m104.951396 57.7478697h2.053695c.480488 0 .87.3895123.87.87v2.0536953c0 .4804878-.389512.87-.87.87h-2.053695c-.480488 0-.87-.3895122-.87-.87v-2.0536953c0-.4804877.389512-.87.87-.87z" fill="#5b6edc" transform="matrix(.31564904 -.94887601 .94887601 .31564904 15.930872 141.378133)"/><g fill="#fff"><path d="m310.639177 187.955535h-109.278354c-4.614506-.007468-8.353469-3.804587-8.360823-8.490866v-40.880945c.003291-4.549785 3.53733-8.288335 8.013568-8.477303l109.251643-5.140636c2.211003-.110553 4.374477.676755 6.013148 2.188239 1.638672 1.511485 2.617892 3.622947 2.721641 5.86859v.420474 46.021581c0 4.689376-3.743268 8.490866-8.360823 8.490866z" opacity=".89"/><path d="m241.89594 114.025632-78.867684 3.918221c-3.125251.198404-5.821319-2.154025-6.023212-5.255498-.006725-.129184-.006725-.258626 0-.38781v-28.5776036c.04644-3.2278093 2.529757-5.9053865 5.767191-6.2183367l78.908109-7.5154953c1.60884-.1746694 3.216647.3376652 4.422304 1.4091863 1.205656 1.071521 1.895472 2.6011873 1.897352 4.207376v32.1882513c-.040282 3.358014-2.722931 6.096763-6.10406 6.231709z"/><path d="m116.560536 198.955535-56.6967371-2.691829c-3.2856086-.158134-5.8675588-2.883877-5.8637989-6.190359v-23.308047c0-3.385303 2.7104171-6.140025 6.0780014-6.176902l56.6967366-.632863c1.633318-.017573 3.20682.617478 4.374304 1.765797 1.167484 1.14832 1.833301 2.71583 1.850958 4.357646v26.739659c-.010585 1.642932-.671881 3.213932-1.837628 4.365539-1.165746 1.151607-2.739879 1.788922-4.374246 1.771359z"/></g></g></svg>