<?xml version="1.0" encoding="UTF-8"?>
<svg width="319px" height="352px" viewBox="0 0 319 352" version="1.1" xmlns="http://www.w3.org/2000/svg" xmlns:xlink="http://www.w3.org/1999/xlink">
    <title>confidentiality</title>
    <defs>
        <linearGradient x1="5.46794338%" y1="-37.2804757%" x2="129.950319%" y2="177.61833%" id="linearGradient-1">
            <stop stop-color="#000000" offset="1%"></stop>
            <stop stop-color="#000000" stop-opacity="0.69" offset="8%"></stop>
            <stop stop-color="#000000" stop-opacity="0.32" offset="21%"></stop>
            <stop stop-color="#000000" stop-opacity="0" offset="100%"></stop>
        </linearGradient>
        <linearGradient x1="73.2717574%" y1="42.6816388%" x2="3.22794853%" y2="64.0667678%" id="linearGradient-2">
            <stop stop-color="#000000" offset="1%"></stop>
            <stop stop-color="#000000" stop-opacity="0.69" offset="13%"></stop>
            <stop stop-color="#000000" stop-opacity="0.32" offset="25%"></stop>
            <stop stop-color="#000000" stop-opacity="0" offset="100%"></stop>
        </linearGradient>
        <linearGradient x1="5.20506256%" y1="69.4429034%" x2="91.9353877%" y2="32.4451069%" id="linearGradient-3">
            <stop stop-color="#000000" offset="1%"></stop>
            <stop stop-color="#000000" stop-opacity="0.69" offset="13%"></stop>
            <stop stop-color="#000000" stop-opacity="0.32" offset="25%"></stop>
            <stop stop-color="#000000" stop-opacity="0" offset="100%"></stop>
        </linearGradient>
        <linearGradient x1="151.465416%" y1="11.5024029%" x2="-208.245408%" y2="147.957712%" id="linearGradient-4">
            <stop stop-color="#000000" offset="1%"></stop>
            <stop stop-color="#000000" stop-opacity="0.69" offset="8%"></stop>
            <stop stop-color="#000000" stop-opacity="0.32" offset="21%"></stop>
            <stop stop-color="#000000" stop-opacity="0" offset="100%"></stop>
        </linearGradient>
        <linearGradient x1="153.441232%" y1="31.9034791%" x2="-135.842238%" y2="82.2881523%" id="linearGradient-5">
            <stop stop-color="#000000" offset="1%"></stop>
            <stop stop-color="#000000" stop-opacity="0.69" offset="8%"></stop>
            <stop stop-color="#000000" stop-opacity="0.32" offset="21%"></stop>
            <stop stop-color="#000000" stop-opacity="0" offset="100%"></stop>
        </linearGradient>
        <linearGradient x1="154.68259%" y1="23.5724327%" x2="-134.60088%" y2="93.132523%" id="linearGradient-6">
            <stop stop-color="#000000" offset="1%"></stop>
            <stop stop-color="#000000" stop-opacity="0.69" offset="8%"></stop>
            <stop stop-color="#000000" stop-opacity="0.32" offset="21%"></stop>
            <stop stop-color="#000000" stop-opacity="0" offset="100%"></stop>
        </linearGradient>
        <linearGradient x1="28.6206897%" y1="14.664937%" x2="89.5862069%" y2="101.974068%" id="linearGradient-7">
            <stop stop-color="#000000" offset="1%"></stop>
            <stop stop-color="#000000" stop-opacity="0.69" offset="8%"></stop>
            <stop stop-color="#000000" stop-opacity="0.32" offset="21%"></stop>
            <stop stop-color="#000000" stop-opacity="0" offset="100%"></stop>
        </linearGradient>
        <linearGradient x1="5.84538026%" y1="26.5165358%" x2="116.169076%" y2="79.8910914%" id="linearGradient-8">
            <stop stop-color="#000000" offset="1%"></stop>
            <stop stop-color="#000000" stop-opacity="0.69" offset="8%"></stop>
            <stop stop-color="#000000" stop-opacity="0.32" offset="21%"></stop>
            <stop stop-color="#000000" stop-opacity="0" offset="100%"></stop>
        </linearGradient>
        <linearGradient x1="24.0381024%" y1="18.6971479%" x2="69.929025%" y2="75.5772089%" id="linearGradient-9">
            <stop stop-color="#000000" offset="1%"></stop>
            <stop stop-color="#000000" stop-opacity="0.69" offset="8%"></stop>
            <stop stop-color="#000000" stop-opacity="0.32" offset="21%"></stop>
            <stop stop-color="#000000" stop-opacity="0" offset="100%"></stop>
        </linearGradient>
        <linearGradient x1="140.994768%" y1="25.0878618%" x2="-108.314947%" y2="104.931283%" id="linearGradient-10">
            <stop stop-color="#000000" offset="1%"></stop>
            <stop stop-color="#000000" stop-opacity="0.69" offset="8%"></stop>
            <stop stop-color="#000000" stop-opacity="0.32" offset="21%"></stop>
            <stop stop-color="#000000" stop-opacity="0" offset="100%"></stop>
        </linearGradient>
        <linearGradient x1="45.1049201%" y1="-32.8375276%" x2="55.389243%" y2="136.535479%" id="linearGradient-11">
            <stop stop-color="#000000" offset="1%"></stop>
            <stop stop-color="#000000" stop-opacity="0.69" offset="8%"></stop>
            <stop stop-color="#000000" stop-opacity="0.32" offset="21%"></stop>
            <stop stop-color="#000000" stop-opacity="0" offset="100%"></stop>
        </linearGradient>
        <linearGradient x1="4.75113122%" y1="-23.816743%" x2="120.076209%" y2="164.317525%" id="linearGradient-12">
            <stop stop-color="#000000" offset="1%"></stop>
            <stop stop-color="#000000" stop-opacity="0.69" offset="8%"></stop>
            <stop stop-color="#000000" stop-opacity="0.32" offset="21%"></stop>
            <stop stop-color="#000000" stop-opacity="0" offset="100%"></stop>
        </linearGradient>
        <linearGradient x1="12.0385806%" y1="-18.5145073%" x2="94.5105978%" y2="127.393997%" id="linearGradient-13">
            <stop stop-color="#000000" offset="1%"></stop>
            <stop stop-color="#000000" stop-opacity="0.69" offset="8%"></stop>
            <stop stop-color="#000000" stop-opacity="0.32" offset="21%"></stop>
            <stop stop-color="#000000" stop-opacity="0" offset="100%"></stop>
        </linearGradient>
        <linearGradient x1="0.208031268%" y1="35.1380463%" x2="121.918931%" y2="69.7058627%" id="linearGradient-14">
            <stop stop-color="#000000" offset="1%"></stop>
            <stop stop-color="#000000" stop-opacity="0.69" offset="8%"></stop>
            <stop stop-color="#000000" stop-opacity="0.32" offset="21%"></stop>
            <stop stop-color="#000000" stop-opacity="0" offset="100%"></stop>
        </linearGradient>
        <linearGradient x1="-40.4641044%" y1="-35.6653992%" x2="194.633793%" y2="192.243346%" id="linearGradient-15">
            <stop stop-color="#000000" offset="1%"></stop>
            <stop stop-color="#000000" stop-opacity="0.69" offset="13%"></stop>
            <stop stop-color="#000000" stop-opacity="0.32" offset="25%"></stop>
            <stop stop-color="#000000" stop-opacity="0" offset="100%"></stop>
        </linearGradient>
        <linearGradient x1="5.86241363%" y1="27.4455581%" x2="163.629353%" y2="108.037199%" id="linearGradient-16">
            <stop stop-color="#000000" offset="1%"></stop>
            <stop stop-color="#000000" stop-opacity="0.69" offset="13%"></stop>
            <stop stop-color="#000000" stop-opacity="0.32" offset="25%"></stop>
            <stop stop-color="#000000" stop-opacity="0" offset="100%"></stop>
        </linearGradient>
        <linearGradient x1="24.0445385%" y1="78.4989965%" x2="89.8858263%" y2="8.24001797%" id="linearGradient-17">
            <stop stop-color="#000000" offset="1%"></stop>
            <stop stop-color="#000000" stop-opacity="0.69" offset="13%"></stop>
            <stop stop-color="#000000" stop-opacity="0.32" offset="25%"></stop>
            <stop stop-color="#000000" stop-opacity="0" offset="100%"></stop>
        </linearGradient>
        <linearGradient x1="18.3217491%" y1="-54.3370482%" x2="116.446141%" y2="218.186028%" id="linearGradient-18">
            <stop stop-color="#000000" offset="1%"></stop>
            <stop stop-color="#000000" stop-opacity="0.69" offset="13%"></stop>
            <stop stop-color="#000000" stop-opacity="0.32" offset="25%"></stop>
            <stop stop-color="#000000" stop-opacity="0" offset="100%"></stop>
        </linearGradient>
        <linearGradient x1="77.0398773%" y1="74.6149319%" x2="-99.5828221%" y2="-86.2197909%" id="linearGradient-19">
            <stop stop-color="#000000" offset="1%"></stop>
            <stop stop-color="#000000" stop-opacity="0.69" offset="8%"></stop>
            <stop stop-color="#000000" stop-opacity="0.32" offset="21%"></stop>
            <stop stop-color="#000000" stop-opacity="0" offset="100%"></stop>
        </linearGradient>
    </defs>
    <g id="Page-1" stroke="none" stroke-width="1" fill="none" fill-rule="evenodd">
        <g id="politicy-desktop" transform="translate(-971.000000, -119.000000)" fill-rule="nonzero">
            <g id="confidentiality" transform="translate(971.000000, 119.044465)">
                <path d="M91.7820079,34.4989541 C86.1316517,42.6479546 81.452306,51.9850819 76.4677855,60.9476909 C57.8151367,94.5251887 34.7698214,123.453495 18.4291023,159.342674 C2.08838311,195.231853 -6.77093152,241.982062 6.28684745,280.337896 C15.0906758,306.257141 32.6613415,324.634364 51.4989447,336.050714 C67.6098431,345.980346 85.0380532,351.058376 102.648078,350.955535 C139.463246,350.346979 173.596576,325.241342 209.597946,314.444885 C225.559508,309.653634 241.964961,307.664813 257.74157,301.866238 C268.93131,297.759452 279.880609,291.65093 289.183814,282.055514 C314.90172,255.568034 324.001475,204.969328 316.409098,161.615612 C308.816721,118.261897 287.019848,81.9207126 261.486896,55.0716288 C218.179829,9.52246152 136.023095,-29.3112062 91.7820079,34.4989541 Z" id="Path" fill="#5B6EDC" opacity="0.18"></path>
                <polygon id="Path" fill="#5B6EDC" points="85 267.485878 36 265.955535 42.0791007 299.860548 76.7993339 300.955535"></polygon>
                <polygon id="Path" fill="url(#linearGradient-1)" points="85 267.485878 36 265.955535 42.0791007 299.860548 76.7993339 300.955535"></polygon>
                <path d="M33.0303115,181.955535 C31.8156491,184.392571 31.2166263,187.085221 31.2847136,189.802121 C30.6710269,202.105459 30.7664893,214.651893 34.4895222,226.388008 C39.9445156,243.647796 52.6546501,257.571772 65.0102101,270.955535 C64.0828612,269.483456 66.8239953,261.677386 67.1922074,259.813653 C67.914994,256.167219 68.733243,252.534291 69.4969421,248.901362 C70.7243156,243.1481 69.4969421,237.09772 68.0513688,231.438995 C64.8959047,218.610298 58.7124981,206.70585 50.0089783,196.703335 C45.0854225,191.013793 39.3684209,186.047961 33.0303115,181.955535 L33.0303115,181.955535 Z" id="Path" fill="#5B6EDC"></path>
                <path d="M33.0303115,181.955535 C31.8156491,184.392571 31.2166263,187.085221 31.2847136,189.802121 C30.6710269,202.105459 30.7664893,214.651893 34.4895222,226.388008 C39.9445156,243.647796 52.6546501,257.571772 65.0102101,270.955535 C64.0828612,269.483456 66.8239953,261.677386 67.1922074,259.813653 C67.914994,256.167219 68.733243,252.534291 69.4969421,248.901362 C70.7243156,243.1481 69.4969421,237.09772 68.0513688,231.438995 C64.8959047,218.610298 58.7124981,206.70585 50.0089783,196.703335 C45.0854225,191.013793 39.3684209,186.047961 33.0303115,181.955535 L33.0303115,181.955535 Z" id="Path" fill="url(#linearGradient-2)"></path>
                <path d="M86.5716943,224.071284 C90.6971289,214.904725 94.8630088,205.616844 96.4134172,195.681912 C97.9638256,185.74698 96.5886808,174.962794 90.5083835,166.955535 C82.6619688,178.845101 74.8065662,190.730173 66.9421758,202.610752 C62.4122869,209.472191 57.8015071,216.481912 55.5770081,224.408289 C51.6807644,238.30641 55.1455901,259.68606 64.4075951,270.955535 C69.6924655,266.439657 72.1596371,256.127278 75.0177813,249.751128 L86.5716943,224.071284 Z" id="Path" fill="#5B6EDC"></path>
                <path d="M86.5716943,224.071284 C90.6971289,214.904725 94.8630088,205.616844 96.4134172,195.681912 C97.9638256,185.74698 96.5886808,174.962794 90.5083835,166.955535 C82.6619688,178.845101 74.8065662,190.730173 66.9421758,202.610752 C62.4122869,209.472191 57.8015071,216.481912 55.5770081,224.408289 C51.6807644,238.30641 55.1455901,259.68606 64.4075951,270.955535 C69.6924655,266.439657 72.1596371,256.127278 75.0177813,249.751128 L86.5716943,224.071284 Z" id="Path" fill="url(#linearGradient-3)"></path>
                <path d="M35.0407035,253.95923 L86.4646823,255.605897 C90.7440881,255.742096 94.1092803,259.273211 93.9972837,263.509899 L93.9972837,263.509899 C93.8525448,267.740646 90.2873245,271.063803 86.0121939,270.952835 L34.5349811,269.424728 C30.2588014,269.28145 26.8977107,265.754638 27.0023797,261.520725 L27.0023797,261.520725 C27.0440417,259.459169 27.9171945,257.499793 29.4272077,256.079352 C30.9372208,254.658912 32.9585765,253.89548 35.0407035,253.95923 L35.0407035,253.95923 Z" id="Path" fill="#5B6EDC"></path>
                <polygon id="Path" fill="#5B6EDC" points="169 251.955535 185.554904 291.348082 237 299.955535 220.445096 253.77117"></polygon>
                <polygon id="Path" fill="url(#linearGradient-4)" points="169 251.955535 185.554904 291.348082 237 299.955535 220.445096 253.77117"></polygon>
                <polygon id="Path" fill="url(#linearGradient-5)" points="185.284098 290.955535 152 299.468599 220.130893 318.955535 237 299.468599"></polygon>
                <polygon id="Path" fill="#5B6EDC" points="185.284098 290.955535 152 299.616504 212.036926 328.955535 237 299.616504"></polygon>
                <polygon id="Path" fill="url(#linearGradient-6)" points="185.284098 290.955535 152 299.616504 212.036926 328.955535 237 299.616504"></polygon>
                <polygon id="Path" fill="#5B6EDC" points="159 251.955535 175.55167 291.348082 227 299.955535 210.44833 253.77117"></polygon>
                <polygon id="Path" fill="url(#linearGradient-7)" points="170.466667 281.955535 216 271.732605 209.64 253.798119 158 251.955535"></polygon>
                <polygon id="Path" fill="#5B6EDC" points="174.270742 290.955535 141 299.468599 209.130893 318.955535 226 299.468599"></polygon>
                <polygon id="Path" fill="url(#linearGradient-8)" points="174.270742 290.955535 141 299.468599 209.130893 318.955535 226 299.468599"></polygon>
                <polygon id="Path" fill="#5B6EDC" points="210.305566 320.227675 212 329.955535 140 307.649262 141.707882 299.955535"></polygon>
                <polygon id="Path" fill="url(#linearGradient-9)" points="210.305566 320.227675 212 329.955535 140 307.649262 141.707882 299.955535"></polygon>
                <path d="M293,88.404716 L293,264.485475 C293,266.471293 292.206938,268.375389 290.796003,269.77706 C289.385067,271.178731 287.472407,271.962605 285.480615,271.955535 L284.674967,271.955535 L86.7137364,249.920291 C82.8978976,249.522701 80,246.315531 80,242.490441 L80,108.512167 C80,104.687077 82.8978976,101.479906 86.7137364,101.082316 L284.674967,81.0016399 C288.78951,80.5474455 292.496096,83.5002095 292.959718,87.6014889 C292.986573,87.8692313 293,88.1369736 293,88.404716 Z" id="Path" fill="#5B6EDC"></path>
                <path d="M293,88.404716 L293,264.485475 C293,266.471293 292.206938,268.375389 290.796003,269.77706 C289.385067,271.178731 287.472407,271.962605 285.480615,271.955535 L284.674967,271.955535 L86.7137364,249.920291 C82.8978976,249.522701 80,246.315531 80,242.490441 L80,108.512167 C80,104.687077 82.8978976,101.479906 86.7137364,101.082316 L284.674967,81.0016399 C288.78951,80.5474455 292.496096,83.5002095 292.959718,87.6014889 C292.986573,87.8692313 293,88.1369736 293,88.404716 Z" id="Path" fill="url(#linearGradient-10)"></path>
                <path d="M288,88.4220635 L288,264.486181 C288,266.471812 287.206938,268.375727 285.796003,269.777266 C284.385067,271.178804 282.472407,271.962604 280.480615,271.955535 L279.674967,271.955535 L81.7137364,249.922374 C77.8978976,249.524821 75,246.317954 75,242.493226 L75,108.527614 C75,104.702885 77.8978976,101.496018 81.7137364,101.098466 L279.755532,80.9929154 C281.733966,80.7949142 283.710213,81.3890116 285.249021,82.644362 C286.787829,83.8997124 287.762985,85.7133524 287.959718,87.6858416 C287.986059,87.9303772 288,88.1761226 288,88.4220635 L288,88.4220635 Z" id="Path" fill="#5B6EDC"></path>
                <polygon id="Path" fill="url(#linearGradient-11)" points="84 230.688036 84 107.235513 272 91.9555351 272 240.955535"></polygon>
                <polygon id="Path" fill="url(#linearGradient-12)" points="248 177.955535 135 177.955535 135 123.981959 248 118.955535"></polygon>
                <polygon id="Path" fill="url(#linearGradient-13)" points="248 239.955535 135 233.899794 135 182.955535 248 182.955535"></polygon>
                <path d="M288,242.307094 L288,264.459428 C288,266.45217 287.206938,268.362905 285.796003,269.769464 C284.385067,271.176022 282.472407,271.962629 280.480615,271.955535 L279.674967,271.955535 L81.7137364,249.843455 C77.8978976,249.444479 75,246.226125 75,242.387697 L75,230.955535 L288,242.307094 Z" id="Path" fill="url(#linearGradient-14)"></path>
                <path d="M108,129.979109 C108,131.7312 105.311095,133.387474 103.992748,133.798121 C103.44257,133.921975 102.904951,134.100736 102.387237,134.331961 C101.871792,134.606599 101.548431,135.162933 101.551849,135.769223 C101.617114,136.275687 102.008702,136.686334 102.113125,137.138045 C102.177265,137.599695 102.12784,138.070875 101.969543,138.506866 C101.460479,140.190516 99.4633793,141.244508 98.9804206,142.955535 C96.213198,142.654394 94.973169,142.955535 92.2320522,142.421695 L90,140.874927 L93.4459753,134.11295 C93.8920272,133.161483 94.4393867,132.266044 95.0775925,131.443748 C95.8186033,130.610923 96.6717093,129.896145 97.6098622,129.322075 C100.003216,127.693995 102.497519,126.23524 105.076142,124.955535 C104.684554,125.119794 108,129.527398 108,129.979109 Z" id="Path" fill="url(#linearGradient-15)"></path>
                <path d="M115.461329,59.0018963 L115.178977,59.111146 C113.625858,59.6016903 112.045509,59.9984143 110.446223,60.2992358 L106.802541,61.1732329 C105.718439,61.6131472 104.553249,61.8088383 103.387429,61.7467935 C103.845962,60.6369095 104.66112,59.7175075 105.700024,59.1384584 C106.479853,58.7560847 107.38069,58.6331788 108.147073,58.2234927 C109.728354,57.3230207 110.460827,55.4116142 109.894965,53.6623203 C109.722362,53.1589838 109.41507,52.7144616 109.007574,52.3786371 C107.744773,51.6567925 106.163628,51.8742641 105.135321,52.9112291 C104.166385,53.9449482 103.267948,55.0445451 102.446256,56.2023744 C100.850872,57.6616658 99.1765682,59.0294118 97.4311506,60.2992358 C95.8177118,61.7604497 94.5404062,63.986411 95.158891,66.0894665 C95.7773759,68.192522 98.4261045,67.9467103 100.268114,67.9467103 C102.5778,67.9137482 104.877075,67.6252654 107.125228,67.0863695 C109.343707,66.5947461 111.535294,65.9665607 113.740327,65.3793439 C114.797093,65.0415579 115.875191,64.7769312 116.967205,64.587284 C117.68963,64.6135769 118.411502,64.5213512 119.105011,64.3141599 C119.722387,63.9938917 120.253227,63.5250512 120.651223,62.9485395 C121.40556,62.076817 121.875295,60.9890234 121.995756,59.8349248 C122.076428,58.2234927 121.000802,56.6530292 119.306691,57.1036839 C117.986764,57.6534019 116.70241,58.2874063 115.461329,59.0018963 Z" id="Path" fill="#F9C6D6"></path>
                <path d="M106.661551,122.160504 C107.112816,123.042472 107.112816,124.074777 106.661551,124.956745 C106.384703,125.2847 106.01989,125.534297 105.606223,125.678779 C104.618544,126.136717 103.445365,126.019768 102.577297,125.376837 C102.136047,124.901573 101.825187,124.328615 101.672731,123.709595 C100.917707,121.449425 100.371946,119.129957 100.04177,116.77807 C99.9860766,116.566966 99.9860766,116.345908 100.04177,116.134804 C100.165049,115.904778 100.368794,115.72356 100.617403,115.622816 C101.892019,114.953294 103.906735,114.428178 104.633129,115.898502 C105.453372,117.940482 106.131006,120.032427 106.661551,122.160504 Z" id="Path" fill="#F9C6D6"></path>
                <path d="M103.437675,121.976204 C103.188812,121.932563 102.934446,121.962479 102.698273,122.063166 C102.533092,122.162591 102.391192,122.306808 102.284709,122.483481 L99.778262,125.845999 C99.2895047,126.498211 98.7631508,127.396815 99.1140534,128.150483 C99.3609465,128.587873 99.767136,128.870797 100.21689,128.918645 C101.443747,129.061065 102.680001,128.789214 103.776046,128.13599 C104.565577,127.730168 105.342575,127.29536 106.094509,126.817071 C106.661858,126.522086 107.157055,126.068907 107.535717,125.498152 C108.1122,124.454612 108.287651,121.947217 107.260007,121.150069 C106.733654,120.758741 106.269961,121.03412 105.781204,121.309498 C105.057391,121.745344 104.253719,121.973979 103.437675,121.976204 Z" id="Path" fill="#5B6EDC"></path>
                <path d="M92.0319716,132.391408 C91.9893428,132.568788 91.9893428,132.753283 92.0319716,132.930663 C92.1284587,133.107458 92.2776733,133.252006 92.4601769,133.345475 C93.0110029,133.716484 93.6596703,133.927542 94.3300066,133.953866 C95.0088981,133.980238 95.6604132,133.692891 96.0856482,133.17955 C96.3987879,132.700836 96.5850969,132.154642 96.6280415,131.589438 C96.8723402,130.363693 96.9965956,129.118337 96.9991527,127.869958 C97.0080399,127.69336 96.9467449,127.520175 96.8278706,127.386011 C96.7309044,127.318588 96.6180307,127.275802 96.4995799,127.261567 C95.4433403,127.040334 93.3736815,126.501079 92.8455616,127.759341 C92.3194689,129.251051 92.0447563,130.815091 92.0319716,132.391408 L92.0319716,132.391408 Z" id="Path" fill="#F9C6D6"></path>
                <path d="M87.5323401,132.3349 C86.6624135,132.37484 85.8026478,132.529965 84.9780155,132.795769 C84.1416662,133.084405 83.465105,133.683361 83.1039186,134.454896 C82.9653605,134.838995 82.9653605,135.255888 83.1039186,135.639987 C83.3821539,136.224624 83.8757776,136.692841 84.4921385,136.956756 C87.3988933,138.447005 90.6906944,139.127171 93.9875628,138.91874 C94.8324029,138.945179 95.6545872,138.656865 96.2781256,138.115511 C96.7340668,137.457578 96.9487416,136.675471 96.8889424,135.890173 L97,132.190055 C96.2597182,132.230583 95.5385397,132.4286 94.8899057,132.769433 C93.6821544,133.164464 93.2101596,132.216391 92.1967591,131.99254 C90.6326637,131.888586 89.0609558,132.003946 87.5323401,132.3349 Z" id="Path" fill="#5B6EDC"></path>
                <path d="M103.437675,121.976204 C103.188812,121.932563 102.934446,121.962479 102.698273,122.063166 C102.533092,122.162591 102.391192,122.306808 102.284709,122.483481 L99.778262,125.845999 C99.2895047,126.498211 98.7631508,127.396815 99.1140534,128.150483 C99.3609465,128.587873 99.767136,128.870797 100.21689,128.918645 C101.443747,129.061065 102.680001,128.789214 103.776046,128.13599 C104.565577,127.730168 105.342575,127.29536 106.094509,126.817071 C106.661858,126.522086 107.157055,126.068907 107.535717,125.498152 C108.1122,124.454612 108.287651,121.947217 107.260007,121.150069 C106.733654,120.758741 106.269961,121.03412 105.781204,121.309498 C105.057391,121.745344 104.253719,121.973979 103.437675,121.976204 Z" id="Path" fill="url(#linearGradient-16)"></path>
                <path d="M87.5323401,132.3349 C86.6624135,132.37484 85.8026478,132.529965 84.9780155,132.795769 C84.1416662,133.084405 83.465105,133.683361 83.1039186,134.454896 C82.9653605,134.838995 82.9653605,135.255888 83.1039186,135.639987 C83.3821539,136.224624 83.8757776,136.692841 84.4921385,136.956756 C87.3988933,138.447005 90.6906944,139.127171 93.9875628,138.91874 C94.8324029,138.945179 95.6545872,138.656865 96.2781256,138.115511 C96.7340668,137.457578 96.9487416,136.675471 96.8889424,135.890173 L97,132.190055 C96.2597182,132.230583 95.5385397,132.4286 94.8899057,132.769433 C93.6821544,133.164464 93.2101596,132.216391 92.1967591,131.99254 C90.6326637,131.888586 89.0609558,132.003946 87.5323401,132.3349 Z" id="Path" fill="url(#linearGradient-17)"></path>
                <path d="M99.012373,90.4600503 C98.1253023,90.5504737 97.3110603,90.9866103 96.7493854,91.6721858 C96.1877106,92.3577613 95.924788,93.2364027 96.0186561,94.1141556 C96.0186561,94.2603199 96.0186561,94.3931964 96.0992045,94.5393606 C96.1146921,102.084096 97.5345692,109.561429 100.287723,116.596869 C100.410976,117.124848 100.751715,117.57774 101.227455,117.845909 C101.635135,117.992077 102.0817,117.992077 102.48938,117.845909 C104.141681,117.391503 105.768376,116.850373 107.362561,116.224815 L105.201178,101.887434 C105.102267,101.486672 105.125626,101.065881 105.268301,100.678258 C105.428922,100.410923 105.649374,100.18363 105.912689,100.013875 C108.36921,98.2215268 110.963624,96.6221293 113.672188,95.2303187 C115.833571,94.1274433 118.303723,92.865116 118.894412,90.513201 C119.125918,89.7203644 118.972145,88.8660662 118.478245,88.2011489 C118.131664,87.8698292 117.726719,87.6041238 117.283443,87.4171772 C115.813366,86.5118185 114.127456,86.0075425 112.396838,85.9555351 C111.054364,86.1016993 110.571074,86.8590956 109.470245,87.4304648 C106.39598,88.9186823 102.328284,89.5299144 99.012373,90.4600503 Z" id="Path" fill="#282328"></path>
                <path d="M110.27623,73.5887648 C110.249649,73.4378498 110.184894,73.2971936 110.088736,73.1815007 C109.955562,73.0851895 109.794567,73.040501 109.633394,73.0551083 C104.02908,72.6931131 98.406563,73.3197298 93,74.9088623 C93.4663578,76.4434622 94.1142403,77.9107423 94.9285094,79.276419 C97.0980825,83.2647987 99.2676556,87.267222 101.477406,91.2415581 C101.750271,92.2066668 102.377907,93.01839 103.221988,93.4978314 C104.06607,93.9772729 105.057315,94.0850794 105.977261,93.7974916 L106.285287,93.6851429 L114.628769,91.9156505 C115.968011,91.6347787 113.289526,84.4023295 112.807399,83.0681884 C111.76279,79.9785985 111.066383,76.7626162 110.27623,73.5887648 Z" id="Path" fill="#FFFFFF"></path>
                <path d="M121.199903,90.7792484 C119.856233,90.2434396 118.550361,89.6136672 117.291583,88.8944138 C112.520736,86.1428305 116.429057,84.7670388 118.019339,81.5339284 C119.151404,79.1950826 118.693187,76.4022255 118.100201,73.8707688 C117.062474,69.4269617 115.674347,64.8180596 116.752504,60.3742525 C116.878989,59.6535985 117.154668,58.9687967 117.561122,58.3655967 C117.852148,57.9905173 118.187072,57.653231 118.558418,57.3612688 C119.561661,56.4589979 120.723163,55.7587728 121.981567,55.2975813 C124.457075,54.6181893 127.094972,54.9591238 129.326514,56.2468775 C138.558237,61.0483905 138.504329,76.3747096 137.628326,85.3861451 C137.603105,87.4874135 136.995683,89.5384636 135.87632,91.3020492 C134.05693,93.7509584 132.358832,92.8704517 130.054271,92.4577142 C126.941091,91.9211555 124.164836,91.9624292 121.199903,90.7792484 Z" id="Path" fill="#5B6EDC"></path>
                <path d="M127.005662,62.1239188 C126.206301,63.1864548 125.031803,63.8470814 123.761253,63.9488181 C123.560237,63.9751878 123.357062,63.9233805 123.188711,63.8028262 C123.006858,63.6096577 122.903917,63.3471676 122.902439,63.0728664 C122.902439,62.5326963 122.779752,61.8319349 122.725224,61.1457728 C122.670696,60.4596106 122.56164,59.5982582 122.49348,58.9996912 C122.355987,57.4059389 121.798094,55.8869313 120.884908,54.6199329 C120.696589,54.3481247 120.481814,54.098535 120.244206,53.8753739 C118.690161,52.4154545 125.029026,52.9702239 125.860576,50.9555351 C126.828446,52.2840617 126.746654,54.1673578 127.223773,55.8024676 C127.507279,56.5985388 127.744028,57.412816 127.932635,58.2405331 C128.155886,59.6173778 127.818514,61.0307355 127.005662,62.1239188 Z" id="Path" fill="#F9C6D6"></path>
                <path d="M123.055419,60.9555351 L122.967954,60.663546 C122.88049,59.9266214 122.793025,59.1896968 122.720138,58.619623 C122.573108,57.1017371 121.976522,55.6550377 121,54.4483514 L121,54.2954048 C121,54.2954048 126.364498,50.930579 126.947595,54.8654786 C127.530693,58.8003781 123.055419,60.9555351 123.055419,60.9555351 Z" id="Path" fill="url(#linearGradient-18)"></path>
                <path d="M118.026,52.8359346 C117.936505,53.6458764 118.079207,54.4652763 118.43614,55.1909723 C118.636727,55.4915349 118.882415,55.7565856 119.163807,55.9759849 C121.260775,57.4037903 124.003414,57.2590944 125.950958,55.617909 C127.841257,53.9241388 128.94018,51.4656969 128.967469,48.8695551 C129.115494,47.5320748 128.754565,46.1874252 127.961966,45.1235301 C126.993231,44.1440557 125.612529,43.744532 124.297169,44.0630745 C122.522815,44.4861957 120.907592,45.4442435 119.653329,46.8175047 C118.42291,48.2498083 118.118613,51.0042385 118.026,52.8359346 Z" id="Path" fill="#F9C6D6"></path>
                <path d="M99.4214642,100.530671 C98.3961522,101.841209 97.5907532,103.308234 97.0365056,104.874844 C93.9093067,112.499787 91.8771711,120.525081 91,128.714165 C93.5499107,129.035992 96.1304647,129.035992 98.6803754,128.714165 C98.8959187,122.916569 99.8005041,117.164753 101.375244,111.578815 C101.632871,110.385954 102.088238,109.244083 102.722678,108.200014 C103.995669,106.639266 105.646243,105.42589 107.519544,104.673725 C111.64164,102.632805 115.956459,101.002512 120.401016,99.8066423 C122.27395,99.2837326 124.160358,98.8144546 126.006343,98.1842814 C127.584988,97.7050697 129.063873,96.9465615 130.37203,95.945155 C132.676142,94.0278193 134.414332,89.8311335 131.369131,87.7663104 C129.901767,86.9644397 128.259617,86.5317596 126.585739,86.5059639 L121.43854,86.023278 C120.468311,85.8128011 119.456619,86.0997124 118.743672,86.7875307 C114.916958,89.72387 110.995925,92.3384187 106.980571,95.0065991 C104.447394,96.6691839 101.415667,98.1976893 99.4214642,100.530671 Z" id="Path" fill="#473F47"></path>
                <path d="M135.720165,65.6191104 C135.703191,65.8976638 135.740464,66.1768215 135.83005,66.4420875 C136.088775,70.4969244 136.052056,74.5643261 135.720165,78.6141838 C135.624016,81.1096626 135.280626,85.8882391 132.574711,87.1625262 C127.492535,89.5650883 117.726517,88.6359206 117.726517,88.6359206 C116.593231,88.4603681 115.435066,88.5054982 114.320086,88.7686589 C113.701984,88.9544924 113.152559,89.2730642 112.548192,89.4987192 C110.334972,90.107807 107.989758,90.107807 105.776537,89.4987192 C105.383271,89.4496862 105.004599,89.3231883 104.663953,89.1270521 C103.853223,88.4048779 103.774525,87.1938912 104.48539,86.3793706 C105.217811,85.6235899 106.179809,85.1122794 107.232512,84.91925 C110.070169,84.0012867 113.120193,83.8861506 116.023302,84.5874044 C116.407899,84.693595 116.77876,84.8130594 117.163357,84.8927023 C117.617829,84.9588526 118.077522,84.9855069 118.536918,84.9723453 L121.984556,84.9723453 C125.954147,84.9723453 129.690233,84.9723453 130.225921,80.4592452 C130.443311,78.7730154 130.489315,77.070266 130.363278,75.3753708 C130.129772,72.3091175 129.305636,69.2826857 129.484199,66.2164325 C129.485825,65.245155 129.730898,64.2887136 130.19845,63.4289295 C130.666545,62.5674694 131.569303,62.0077161 132.574711,61.9555351 C133.630473,62.0331759 134.565313,62.6438619 135.033385,63.5616677 C135.377131,64.2066 135.609135,64.9016325 135.720165,65.6191104 Z" id="Path" fill="#F9C6D6"></path>
                <path d="M124.134563,50.4076386 C124.321145,51.3548296 124.393925,52.320803 124.351367,53.2851547 C125.015328,52.6907382 124.974677,51.2182065 125.855441,51.2587349 C126.3839,51.2587349 126.627804,52.0152649 126.3839,52.4880962 C126.074244,52.9534197 125.582391,53.2672586 125.028878,53.352702 C124.879825,55.3791218 126.492302,56.7570872 127.820223,57.9864485 C129.284305,59.4130418 130.309162,61.2269265 130.774172,63.2146115 C131.302457,65.7590234 131.493791,68.3615183 131.343281,70.9555351 C132.061443,70.3881375 133.077709,70.6853458 133.985574,70.779912 C136.776964,70.9082528 139.259732,69.0247479 139.87992,66.308279 C140.404199,63.6104371 139.180575,60.8736597 136.81757,59.4589802 C136.046961,59.149745 135.363353,58.658286 134.825688,58.0269769 C134.229478,57.0813144 134.581784,55.8249341 134.622435,54.690139 C134.610007,52.1398665 132.872732,49.9192896 130.394765,49.286353 C130.880817,48.3983743 131.193484,47.4265223 131.316181,46.4223464 C131.316638,45.0547079 130.747353,43.7483109 129.744355,42.8153192 C128.74929,41.9114862 127.602672,41.1890027 126.3568,40.6808237 C125.238944,40.0366518 123.927155,39.8114919 122.657589,40.0458788 C121.244257,40.6405773 120.191374,41.8602478 119.812043,43.3421883 C119.099238,43.0135861 118.255069,43.183005 117.725309,43.7609817 C117.211291,44.3439116 116.952673,45.1077039 117.007147,45.8819678 C117.023033,46.3873049 117.128547,46.8858452 117.318802,47.3544995 C117.79306,46.7871019 118.362169,46.2332139 118.931278,46.6384978 C119.500388,47.0437818 119.852693,47.8813686 120.367602,48.3406904 C120.938722,48.8178857 121.56135,49.230212 122.223982,49.5700517 C122.886382,49.7873302 123.526207,50.0678255 124.134563,50.4076386 Z" id="Path" fill="#FFA100"></path>
                <path d="M112.965774,48.7666067 L112.491658,51.328549 C112.423422,52.0284882 111.855016,52.5826159 111.137041,52.6491378 C108.576815,52.2133435 102.304939,51.328549 97.834703,52.4906671 C95.3944487,53.0980339 93.007374,53.8928726 90.6958717,54.867727 C89.7747322,55.2639036 88.8671388,54.2602561 89.0161467,53.0453144 L90.641687,39.3508085 C90.7906949,38.1490726 91.8608422,37.5548077 92.6465201,38.2547197 C95.8705084,41.0939857 103.347994,46.7725176 111.70598,46.7461058 C112.532297,46.7461058 113.155421,47.7233415 112.965774,48.7666067 Z" id="Path" fill="#5B6EDC"></path>
                <ellipse id="Oval" fill="#5B6EDC" transform="translate(90.366079, 46.402825) rotate(-85.480000) translate(-90.366079, -46.402825) " cx="90.3660793" cy="46.4028246" rx="8.7712388" ry="4.1838271"></ellipse>
                <ellipse id="Oval" fill="url(#linearGradient-19)" transform="translate(90.366079, 46.402825) rotate(-85.480000) translate(-90.366079, -46.402825) " cx="90.3660793" cy="46.4028246" rx="8.7712388" ry="4.1838271"></ellipse>
                <path d="M104.951396,57.7478697 L107.005091,57.7478697 C107.485579,57.7478697 107.875091,58.137382 107.875091,58.6178697 L107.875091,60.671565 C107.875091,61.1520528 107.485579,61.541565 107.005091,61.541565 L104.951396,61.541565 C104.470908,61.541565 104.081396,61.1520528 104.081396,60.671565 L104.081396,58.6178697 C104.081396,58.137382 104.470908,57.7478697 104.951396,57.7478697 Z" id="Rectangle" fill="#5B6EDC" transform="translate(105.978244, 59.644717) rotate(-71.600000) translate(-105.978244, -59.644717) "></path>
                <path d="M310.639177,187.955535 L201.360823,187.955535 C196.746317,187.948067 193.007354,184.150948 193,179.464669 L193,138.583724 C193.003291,134.033939 196.53733,130.295389 201.013568,130.106421 L310.265211,124.965785 C312.476214,124.855232 314.639688,125.64254 316.278359,127.154024 C317.917031,128.665509 318.896251,130.776971 319,133.022614 C319,133.171814 319,133.307451 319,133.443088 L319,179.464669 C319,184.154045 315.256732,187.955535 310.639177,187.955535 L310.639177,187.955535 Z" id="Path" fill="#FFFFFF" opacity="0.89"></path>
                <path d="M241.89594,114.025632 L163.028256,117.943853 C159.903005,118.142257 157.206937,115.789828 157.005044,112.688355 C156.998319,112.559171 156.998319,112.429729 157.005044,112.300545 L157.005044,83.7229414 C157.051484,80.4951321 159.534801,77.8175549 162.772235,77.5046047 L241.680344,69.9891094 C243.289184,69.81444 244.896991,70.3267746 246.102648,71.3982957 C247.308304,72.4698167 247.99812,73.999483 248,75.6056717 L248,107.793923 C247.959718,111.151937 245.277069,113.890686 241.89594,114.025632 Z" id="Path" fill="#FFFFFF"></path>
                <path d="M116.560536,198.955535 L59.8637989,196.263706 C56.5781903,196.105572 53.9962401,193.379829 54,190.073347 L54,166.7653 C54,163.379997 56.7104171,160.625275 60.0780014,160.588398 L116.774738,159.955535 C118.408056,159.937962 119.981558,160.573013 121.149042,161.721332 C122.316526,162.869652 122.982343,164.437162 123,166.078978 L123,192.818637 C122.989415,194.461569 122.328119,196.032569 121.162372,197.184176 C119.996626,198.335783 118.422493,198.973098 116.788126,198.955535 L116.560536,198.955535 Z" id="Path" fill="#FFFFFF"></path>
            </g>
        </g>
    </g>
</svg>