<svg enable-background="new 0 0 512 512" viewBox="0 0 512 512" xmlns="http://www.w3.org/2000/svg" xmlns:xlink="http://www.w3.org/1999/xlink"><linearGradient id="a"><stop offset="0" stop-color="#4cb6ea"/><stop offset="1" stop-color="#5b6ddd"/></linearGradient><linearGradient id="b" gradientUnits="userSpaceOnUse" x1="421.0568" x2="421.0568" xlink:href="#a" y1="0" y2="511"/><linearGradient id="c" gradientUnits="userSpaceOnUse" x1="328" x2="328" xlink:href="#a" y1="0" y2="511"/><linearGradient id="d" gradientUnits="userSpaceOnUse" x1="144" x2="144" xlink:href="#a" y1="0" y2="511"/><linearGradient id="e" gradientUnits="userSpaceOnUse" x1="279.9994" x2="279.9994" xlink:href="#a" y1="0" y2="511"/><linearGradient id="f" gradientUnits="userSpaceOnUse" x1="191.9993" x2="191.9993" xlink:href="#a" y1="0" y2="511"/><linearGradient id="g" gradientUnits="userSpaceOnUse" x1="223.9978" x2="223.9978" xlink:href="#a" y1="0" y2="511"/><path d="m453.1 464v-167.2l3.3-16.5c8.3-41.7 12.6-84.2 12.7-126.8l24.8-62c5.2-13.2.5-28.2-11.2-36.1l-.6-.4c-36.9-24.7-85.1-24.7-122 0l-.6.4c-11.8 7.9-16.4 22.9-11.2 36.1l24.8 62c.1 42.6 4.4 85 12.7 126.8l3.3 16.5v167.2c0 17.7 14.3 32 32 32s32-14.3 32-32zm-66.6-320-23.4-58.4c-2.4-6.1-.3-13.2 5.2-16.8l.6-.4c31.6-21.1 72.7-21.1 104.3 0l.6.4c5.5 3.7 7.7 10.7 5.2 16.8l-23.4 58.4h-16.8l6.1-30.4c.9-4.3-1.9-8.6-6.2-9.4-4.3-.9-8.6 1.9-9.4 6.2v.1l-6.7 33.6h-2.9l-6.7-33.6c-.8-4.3-5-7.2-9.4-6.3-4.3.8-7.2 5-6.3 9.4v.1l6.1 30.4h-16.9zm50.6 320c0 8.8-7.2 16-16 16s-16-7.2-16-16v-160h32zm1.4-176h-34.9l-2.2-10.8c-7.7-38.6-11.8-77.8-12.4-117.2h64c-.2 16-1 32-2.4 48h-21.5c-4.4 0-8 3.6-8 8s3.6 8 8 8h19.9c-2 17.8-4.8 35.6-8.3 53.2z" fill="url(#b)"/><path d="m335.4 258-15.7-5.2c-9.4-3.1-19.6 2-22.8 11.4-.6 1.8-.9 3.8-.9 5.7v82.1c-4.4 0-8 3.6-8 8v128c0 4.4 3.6 8 8 8h64c4.4 0 8-3.6 8-8v-128c0-4.4-3.6-8-8-8v-59.8c0-15.5-9.9-29.3-24.6-34.2zm-23.4 11.9c0-1.1.9-2 2-2 .2 0 .4 0 .6.1l15.7 5.2c8.2 2.7 13.7 10.4 13.7 19v59.8h-32zm40 210.1h-48v-80h48zm0-96h-48v-16h48z" fill="url(#c)"/><path d="m16 424v4c0 37.5 30.5 68 68 68h120c37.5 0 68-30.5 68-68v-4c0-4.4-3.6-8-8-8h-18.8c26.5-55.9 2.7-122.7-53.2-149.2s-122.7-2.7-149.2 53.2c-14.4 30.4-14.4 65.6 0 96h-18.8c-4.4 0-8 3.6-8 8zm128-152c53 0 96 43 96 96 0 16.8-4.4 33.4-12.9 48h-19.1c26.5-35.4 19.3-85.5-16-112-35.4-26.5-85.5-19.3-112 16-21.3 28.4-21.3 67.6 0 96h-19.1c-26.5-45.9-10.8-104.6 35.1-131.1 14.6-8.5 31.2-12.9 48-12.9zm11.2 33c6.6 1.2 13 3.4 18.9 6.6l-77.8 99.1c-3.8-4.3-7.1-9.1-9.6-14.2zm-74.5 72.7c-5.4-34.9 18.5-67.5 53.4-72.9.5-.1 1-.1 1.4-.2zm106.5-56.9c6.6 6 11.8 13.3 15.4 21.5 0 0-57.5 73.3-57.7 73.7h-32.4zm-67.2 111.2h48c4.4 0 8 3.6 8 8s-3.6 8-8 8h-48c-4.4 0-8-3.6-8-8s3.6-8 8-8zm45-16 42.7-54.3c.2 2.1.3 4.2.3 6.3 0 18.4-7.9 35.9-21.7 48zm-67.6 16c-4.4 12.5 2.1 26.2 14.6 30.6 2.6.9 5.3 1.4 8 1.4h48c13.2 0 24-10.7 24-24 0-2.7-.5-5.4-1.4-8h65.2c-2.1 27.1-24.7 48-51.8 48h-120c-27.2 0-49.7-20.9-51.8-48z" fill="url(#d)"/><path d="m243.6 134.7 12.8 8.5c6.2 4.1 11.2 9.8 14.5 16.4l2 4c2 4 6.8 5.6 10.7 3.6 1.5-.8 2.8-2 3.6-3.6l2-4c3.3-6.6 8.3-12.3 14.5-16.4l12.8-8.5c3.7-2.5 4.7-7.4 2.2-11.1-1-1.5-2.4-2.6-4.1-3.2-12.7-4.3-22.7-14.2-26.9-26.9-1.4-4.2-5.9-6.5-10.1-5.1-2.4.8-4.3 2.7-5.1 5.1-4.3 12.7-14.2 22.7-26.9 26.9-4.2 1.4-6.5 5.9-5.1 10.1.5 1.7 1.6 3.2 3.1 4.2zm36.4-21.1c4.3 6.1 9.7 11.4 16 15.5l-1.2.8c-5.7 3.8-10.7 8.6-14.7 14.1-4.1-5.5-9-10.3-14.7-14.1l-1.2-.8c6.1-4.1 11.5-9.4 15.8-15.5z" fill="url(#e)"/><path d="m226.5 168.4c-12.7-4.3-22.7-14.2-26.9-26.9-1.4-4.2-5.9-6.5-10.1-5.1-2.4.8-4.3 2.7-5.1 5.1-4.3 12.7-14.2 22.7-26.9 26.9-4.2 1.4-6.5 5.9-5.1 10.1.6 1.7 1.7 3.1 3.2 4.1l12.8 8.5c6.2 4.1 11.2 9.8 14.5 16.4l2 4c2 4 6.8 5.6 10.7 3.6 1.5-.8 2.8-2 3.6-3.6l2-4c3.3-6.6 8.3-12.3 14.5-16.4l12.8-8.5c3.7-2.5 4.7-7.4 2.2-11.1-1-1.4-2.5-2.5-4.2-3.1zm-19.8 9.5c-5.7 3.8-10.7 8.6-14.7 14.1-4.1-5.5-9-10.3-14.7-14.1l-1.2-.8c6.3-4.1 11.7-9.4 16-15.5 4.3 6.1 9.7 11.4 16 15.5z" fill="url(#f)"/><path d="m247.6 71.2 12.8-8.5c3.7-2.5 4.7-7.4 2.2-11.1-1-1.5-2.4-2.6-4.1-3.1-12.7-4.3-22.7-14.2-26.9-26.9-1.4-4.2-5.9-6.5-10.1-5.1-2.4.8-4.3 2.7-5.1 5.1-4.3 12.7-14.2 22.7-26.9 26.9-4.2 1.4-6.5 5.9-5.1 10.1.6 1.7 1.7 3.1 3.2 4.1l12.8 8.5c6.2 4.1 11.2 9.8 14.5 16.4l2 4c2 4 6.8 5.6 10.7 3.6 1.5-.8 2.8-2 3.6-3.6l2-4c3.3-6.6 8.3-12.3 14.4-16.4zm-23.6.8c-4.1-5.5-9-10.3-14.7-14.1l-1.2-.8c6.3-4.1 11.7-9.4 16-15.5 4.3 6.1 9.7 11.4 16 15.5l-1.2.8c-5.9 3.8-10.8 8.6-14.9 14.1z" fill="url(#g)"/></svg>