<svg enable-background="new 0 0 122 102" viewBox="0 0 122 102" xmlns="http://www.w3.org/2000/svg" xmlns:xlink="http://www.w3.org/1999/xlink"><linearGradient id="a"><stop offset="0" stop-color="#4cb6ea"/><stop offset="1" stop-color="#5b6ddd"/></linearGradient><linearGradient id="b" gradientUnits="userSpaceOnUse" x1="59.7941" x2="59.7941" xlink:href="#a" y1="-.1651" y2="101.9551"/><linearGradient id="c" gradientUnits="userSpaceOnUse" x1="75.6636" x2="75.6636" xlink:href="#a" y1="-.1645" y2="101.9557"/><linearGradient id="d" gradientUnits="userSpaceOnUse" x1="65.2475" x2="65.2475" xlink:href="#a" y1="-.1645" y2="101.9557"/><linearGradient id="e" gradientUnits="userSpaceOnUse" x1="36.9008" x2="36.9008" xlink:href="#a" y1="-.1645" y2="101.9557"/><linearGradient id="f" gradientUnits="userSpaceOnUse" x1="67.4746" x2="67.4746" xlink:href="#a" y1="-.1645" y2="101.9557"/><path d="m96.8 74.6c.5-2.9.5-5.8 0-8.7l7.8-18.8c1.3-3.5 3.1-6.7 5.5-9.5.6-.6.8-1.5.6-2.3l-3.2-13.8c0-.1-.1-.3-.2-.4v-.1s-.1-.1-.1-.1c-.1-.1-.1-.2-.2-.3-.1 0-.1-.1-.2-.1-.1-.1-.2-.1-.3-.2-.1 0-.3-.1-.4-.1h-.1c-.3 0-.7.1-.9.2h-.1l-12 7.5c-.7.4-1.2 1.2-1.2 2.1-.3 3.7-1.3 7.3-2.9 10.6l-3.9 9.5c-1.9-1-4-1.8-6.1-2.2.8-5.5 1.1-11.1.9-16.7 3.2-3.8 4.7-8.7 4.2-13.6-1.1-9.9-10-17-10.4-17.4-.6-.5-1.4-.5-2-.1s-.9 1.2-.7 1.9c.9 3.3.1 6.8-6.3 13.9-2.9 2.8-3.8 7.1-2.3 10.8.6 1.4 1.4 2.8 2.4 3.9-.4 2.6-.7 5.1-1 7.5-.4 4-.5 8-.3 12-1.5.8-2.9 1.8-4.2 2.9l-8.2-35.2v-.1c0-.1-.1-.2-.1-.3l-8.5-15.5c-.8-1.6-2.6-2.4-4.3-2s-3 1.9-3 3.7l-.6 17.7v.4.1l8.4 35.9c-1.3.1-2.6.3-3.9.6l-9.2-22.3c-.7-1.7-2.7-2.5-4.4-1.8l-14.1 5.9c-1.7.7-2.6 2.7-1.8 4.4l12.5 30.3c-7.6.2-13.3 6.4-13.1 13.7.2 7.4 6.2 13.2 13.6 13.2h74.7c4.9-.1 9.3-2.7 11.7-7 2.4-4.2 2.3-9.4-.2-13.6s-7-6.6-11.9-6.5zm-1.7-44 7.1-4.4-2.5 6.1c-.4.9.1 1.9.9 2.2.9.4 1.9-.1 2.2-.9l2.5-6.1 1.9 8.2c-2 2.5-3.7 5.2-4.9 8.1-1.8.8-3.8.9-5.6.1-1.8-.7-3.2-2.2-3.9-4 1.2-3 2-6.1 2.3-9.3zm-3.9 13.3c1.1 1.4 2.6 2.4 4.2 3.1 1.3.6 2.7.9 4.2.9.3 0 .7 0 1-.1l-5.4 13.1c-1.6-3.6-4.1-6.7-7.3-9zm-23.3-12.1 8.5.5c.1 1.6 0 3.2 0 4.9-2.8.2-5.7.1-8.5-.4-.2 0-.4-.1-.6-.1.1-1.6.3-3.2.6-4.9zm-.8-13.7c4.5-5 6.8-8.8 7.4-12.4 3.2 3.3 5.4 7.6 6.1 12.2.4 4-.9 8-3.4 11.1-3.4-.2-6.7-.4-10-.6-1.4-1.4-2.2-3.2-2.2-5.1-.1-2 .7-3.8 2.1-5.2zm-.1 22 .5.1c2.2.3 4.4.5 6.6.6.7 0 1.4-.1 2.2-.1-.2 2.2-.4 4.5-.7 6.8-.4 0-.8-.1-1.3-.1-2.6 0-5.1.4-7.5 1.3-.1-2.9-.1-5.7.2-8.6zm-13.2 19.9-4.8-20.7c-.2-.9-1.1-1.4-2-1.2s-1.5 1.1-1.3 2l4.3 18.6c-1.2-.4-2.4-.7-3.7-.9l-7.4-31.8c1 .5 2.2.7 3.3.7h.3l1.2 5.1c.1.6.6 1.1 1.2 1.3s1.2 0 1.7-.4c.4-.4.6-1.1.5-1.6l-1.2-5.1c1.2-.5 2.2-1.3 3-2.3l7.5 32.3c-1 1.3-1.9 2.6-2.6 4zm-10.4-36.9c-2.2.4-4.4-.5-5.7-2.3l.2-6c.6.1 1.2.2 1.8.2s1.2-.1 1.7-.2c1.1-.3 2.2-.8 3.1-1.6l2.9 5.3c-.2 2.3-1.8 4-4 4.6zm-4.6-19.8c.2-.1.5.1.6.3l3.6 6.7c-.7.6-1.4 1-2.3 1.3-.9.2-1.8.1-2.6-.1l.3-7.7c0-.3.2-.5.4-.5zm-12.3 33.9 1.3 3.1-6.3 2.6c-.7.3-1.2 1.1-1 1.9s.9 1.4 1.7 1.4c.2 0 .4 0 .7-.1l6.3-2.6 1.3 3.1-3.1 1.3c-.7.3-1.2 1.1-1 1.9s.9 1.4 1.7 1.4c.2 0 .4 0 .6-.1l3.1-1.3 1.3 3.1-6.3 2.6c-.7.3-1.2 1.1-1 1.9s.9 1.4 1.7 1.4c.2 0 .4 0 .6-.1l6.3-2.6 1.4 3.3c-5.5 2.5-9.6 7.5-11 13.4l-12.4-29.7zm70.7 61.2h-74.7c-5.6 0-10.2-4.6-10.2-10.2s4.5-10.2 10.2-10.2c1 0 2 .1 2.9.4.5.2 1.1.1 1.5-.3.4-.3.7-.8.7-1.3.1-6.1 3.6-11.5 9.1-14.2 5.4-2.7 11.9-2 16.8 1.6.4.3 1 .4 1.5.3.5-.2.9-.5 1.1-1 3.3-8.8 12.5-14 21.8-12.4s16 9.8 16 19.2c0 1.9-.3 3.9-.9 5.7-.2.6 0 1.2.4 1.7s1 .6 1.6.5c.7-.2 1.5-.2 2.3-.2 5.6 0 10.2 4.6 10.2 10.2s-4.7 10.2-10.3 10.2z" fill="url(#b)"/><path d="m74.6 26.5c.5 0 1-.2 1.4-.7 2.1-2.9 2.9-6.5 2.3-10-.1-.6-.6-1.1-1.2-1.2-.6-.2-1.2 0-1.7.4-.4.4-.6 1.1-.4 1.7.4 2.5-.2 5-1.7 7.1-.4.5-.4 1.2-.2 1.8.3.5.8.9 1.5.9z" fill="url(#c)"/><path d="m72.3 78c-1.3 0-2.5.3-3.6.8-3.1-4.2-8.8-5.4-13.3-2.8s-6.4 8.1-4.3 12.9c.3.6.9 1 1.6 1 .2 0 .5 0 .7-.1.4-.2.7-.5.9-.9s.2-.9 0-1.3c-.4-.9-.6-1.8-.6-2.7 0-3.8 3-6.8 6.8-6.8 2.6 0 5 1.5 6.1 3.9 0 .1.1.1.1.2s.1.1.1.2c0 0 .1.1.1.1.1.1.2.2.3.2.1.1.2.1.3.2.1 0 .2.1.3.1h.3c.2 0 .4 0 .6-.1h.1c.1 0 .1-.1.2-.1s.1-.1.2-.1c.9-.7 2-1.1 3.2-1.1 2 0 3.8 1.2 4.6 3 .4.9 1.4 1.2 2.3.8s1.2-1.4.8-2.3c-1.4-3.2-4.4-5.1-7.8-5.1z" fill="url(#d)"/><path d="m38.9 66.2c-.3.1-6.3 2.2-6.3 8.4 0 .9.8 1.7 1.7 1.7s1.7-.8 1.7-1.7c.1-2.4 1.7-4.4 3.9-5.2.9-.3 1.4-1.3 1.1-2.2-.2-.9-1.2-1.3-2.1-1z" fill="url(#e)"/><path d="m62.8 64.3c.1 0 .3.1.4.1.8 0 1.5-.5 1.6-1.3.8-3.2 3.6-5.4 6.9-5.5.9 0 1.7-.8 1.7-1.7s-.8-1.7-1.7-1.7c-4.8.1-9 3.4-10.1 8.1-.2.9.3 1.8 1.2 2z" fill="url(#f)"/></svg>