<?xml version="1.0" encoding="utf-8"?>
<!-- Generator: Adobe Illustrator 24.0.3, SVG Export Plug-In . SVG Version: 6.00 Build 0)  -->
<svg version="1.1" id="Calque_1" xmlns="http://www.w3.org/2000/svg" xmlns:xlink="http://www.w3.org/1999/xlink" x="0px" y="0px"
	 viewBox="0 0 122 102" style="enable-background:new 0 0 122 102;" xml:space="preserve">
<style type="text/css">
	.st0{fill:url(#Shape_5_);}
	.st1{fill:url(#Shape_6_);}
	.st2{fill:url(#Shape_7_);}
	.st3{fill:url(#Shape_8_);}
	.st4{fill:url(#Shape_9_);}
</style>
<title>035 - Creative Thinking</title>
<desc>Created with Sketch.</desc>
<g id="Page-1">
	<g id="_x30_35---Creative-Thinking">
		<linearGradient id="Shape_5_" gradientUnits="userSpaceOnUse" x1="59.7941" y1="-0.1651" x2="59.7941" y2="101.9551">
			<stop  offset="0" style="stop-color:#4CB6EA"/>
			<stop  offset="1" style="stop-color:#5B6DDD"/>
		</linearGradient>
		<path id="Shape" class="st0" d="M96.8,74.6c0.5-2.9,0.5-5.8,0-8.7l7.8-18.8c0,0,0,0,0,0c1.3-3.5,3.1-6.7,5.5-9.5
			c0.6-0.6,0.8-1.5,0.6-2.3l-3.2-13.8c0-0.1-0.1-0.3-0.2-0.4c0,0,0-0.1,0-0.1c0,0-0.1-0.1-0.1-0.1c-0.1-0.1-0.1-0.2-0.2-0.3
			c-0.1,0-0.1-0.1-0.2-0.1c-0.1-0.1-0.2-0.1-0.3-0.2c-0.1,0-0.3-0.1-0.4-0.1c0,0-0.1,0-0.1,0c-0.3,0-0.7,0.1-0.9,0.2
			c0,0-0.1,0-0.1,0h0l-12,7.5c-0.7,0.4-1.2,1.2-1.2,2.1c-0.3,3.7-1.3,7.3-2.9,10.6v0L85,50.1c-1.9-1-4-1.8-6.1-2.2
			c0.8-5.5,1.1-11.1,0.9-16.7c3.2-3.8,4.7-8.7,4.2-13.6c-1.1-9.9-10-17-10.4-17.4c-0.6-0.5-1.4-0.5-2-0.1S70.7,1.3,70.9,2
			c0.9,3.3,0.1,6.8-6.3,13.9c-2.9,2.8-3.8,7.1-2.3,10.8c0.6,1.4,1.4,2.8,2.4,3.9c-0.4,2.6-0.7,5.1-1,7.5c-0.4,4-0.5,8-0.3,12
			c-1.5,0.8-2.9,1.8-4.2,2.9l-8.2-35.2c0,0,0-0.1,0-0.1c0-0.1-0.1-0.2-0.1-0.3L42.4,1.9c-0.8-1.6-2.6-2.4-4.3-2
			c-1.7,0.4-3,1.9-3,3.7l-0.6,17.7c0,0.1,0,0.3,0,0.4c0,0,0,0.1,0,0.1l8.4,35.9c-1.3,0.1-2.6,0.3-3.9,0.6l-9.2-22.3
			c-0.7-1.7-2.7-2.5-4.4-1.8l-14.1,5.9c-1.7,0.7-2.6,2.7-1.8,4.4l12.5,30.3C14.4,75,8.7,81.2,8.9,88.5c0.2,7.4,6.2,13.2,13.6,13.2
			h74.7c4.9-0.1,9.3-2.7,11.7-7c2.4-4.2,2.3-9.4-0.2-13.6S101.7,74.5,96.8,74.6z M95.1,30.6l7.1-4.4l-2.5,6.1
			c-0.4,0.9,0.1,1.9,0.9,2.2c0.9,0.4,1.9-0.1,2.2-0.9l2.5-6.1l1.9,8.2c-2,2.5-3.7,5.2-4.9,8.1c-1.8,0.8-3.8,0.9-5.6,0.1
			c-1.8-0.7-3.2-2.2-3.9-4C94,36.9,94.8,33.8,95.1,30.6z M91.2,43.9c1.1,1.4,2.6,2.4,4.2,3.1c1.3,0.6,2.7,0.9,4.2,0.9
			c0.3,0,0.7,0,1-0.1l-5.4,13.1c-1.6-3.6-4.1-6.7-7.3-9L91.2,43.9z M67.9,31.8l8.5,0.5c0.1,1.6,0,3.2,0,4.9
			c-2.8,0.2-5.7,0.1-8.5-0.4c-0.2,0-0.4-0.1-0.6-0.1C67.4,35.1,67.6,33.5,67.9,31.8L67.9,31.8z M67.1,18.1c4.5-5,6.8-8.8,7.4-12.4
			c3.2,3.3,5.4,7.6,6.1,12.2c0.4,4-0.9,8-3.4,11.1c-3.4-0.2-6.7-0.4-10-0.6C65.8,27,65,25.2,65,23.3C64.9,21.3,65.7,19.5,67.1,18.1
			L67.1,18.1z M67,40.1l0.5,0.1c2.2,0.3,4.4,0.5,6.6,0.6c0.7,0,1.4-0.1,2.2-0.1c-0.2,2.2-0.4,4.5-0.7,6.8c-0.4,0-0.8-0.1-1.3-0.1
			c-2.6,0-5.1,0.4-7.5,1.3C66.7,45.8,66.7,43,67,40.1L67,40.1z M53.8,60L49,39.3c-0.2-0.9-1.1-1.4-2-1.2c-0.9,0.2-1.5,1.1-1.3,2
			L50,58.7c-1.2-0.4-2.4-0.7-3.7-0.9L38.9,26c1,0.5,2.2,0.7,3.3,0.7c0.1,0,0.2,0,0.3,0l1.2,5.1c0.1,0.6,0.6,1.1,1.2,1.3
			c0.6,0.2,1.2,0,1.7-0.4c0.4-0.4,0.6-1.1,0.5-1.6l-1.2-5.1c1.2-0.5,2.2-1.3,3-2.3L56.4,56C55.4,57.3,54.5,58.6,53.8,60z M43.4,23.1
			c-2.2,0.4-4.4-0.5-5.7-2.3l0.2-6c0.6,0.1,1.2,0.2,1.8,0.2c0.6,0,1.2-0.1,1.7-0.2c1.1-0.3,2.2-0.8,3.1-1.6l2.9,5.3
			C47.2,20.8,45.6,22.5,43.4,23.1L43.4,23.1z M38.8,3.3c0.2-0.1,0.5,0.1,0.6,0.3l3.6,6.7c-0.7,0.6-1.4,1-2.3,1.3
			c-0.9,0.2-1.8,0.1-2.6-0.1l0.3-7.7C38.4,3.5,38.6,3.3,38.8,3.3z M26.5,37.2l1.3,3.1l-6.3,2.6c-0.7,0.3-1.2,1.1-1,1.9
			s0.9,1.4,1.7,1.4c0.2,0,0.4,0,0.7-0.1l6.3-2.6l1.3,3.1l-3.1,1.3c-0.7,0.3-1.2,1.1-1,1.9c0.2,0.8,0.9,1.4,1.7,1.4
			c0.2,0,0.4,0,0.6-0.1l3.1-1.3l1.3,3.1l-6.3,2.6c-0.7,0.3-1.2,1.1-1,1.9c0.2,0.8,0.9,1.4,1.7,1.4c0.2,0,0.4,0,0.6-0.1l6.3-2.6
			l1.4,3.3c-5.5,2.5-9.6,7.5-11,13.4L12.4,43.1L26.5,37.2z M97.2,98.4H22.5c-5.6,0-10.2-4.6-10.2-10.2S16.8,78,22.5,78
			c1,0,2,0.1,2.9,0.4c0.5,0.2,1.1,0.1,1.5-0.3c0.4-0.3,0.7-0.8,0.7-1.3c0.1-6.1,3.6-11.5,9.1-14.2c5.4-2.7,11.9-2,16.8,1.6
			c0.4,0.3,1,0.4,1.5,0.3c0.5-0.2,0.9-0.5,1.1-1c3.3-8.8,12.5-14,21.8-12.4s16,9.8,16,19.2c0,1.9-0.3,3.9-0.9,5.7
			c-0.2,0.6,0,1.2,0.4,1.7s1,0.6,1.6,0.5c0.7-0.2,1.5-0.2,2.3-0.2c5.6,0,10.2,4.6,10.2,10.2S102.8,98.4,97.2,98.4z"/>
		<linearGradient id="Shape_6_" gradientUnits="userSpaceOnUse" x1="75.6636" y1="-0.1645" x2="75.6636" y2="101.9557">
			<stop  offset="0" style="stop-color:#4CB6EA"/>
			<stop  offset="1" style="stop-color:#5B6DDD"/>
		</linearGradient>
		<path id="Shape_1_" class="st1" d="M74.6,26.5c0.5,0,1-0.2,1.4-0.7c2.1-2.9,2.9-6.5,2.3-10c-0.1-0.6-0.6-1.1-1.2-1.2
			c-0.6-0.2-1.2,0-1.7,0.4c-0.4,0.4-0.6,1.1-0.4,1.7c0.4,2.5-0.2,5-1.7,7.1c-0.4,0.5-0.4,1.2-0.2,1.8C73.4,26.1,73.9,26.5,74.6,26.5
			L74.6,26.5z"/>
		<linearGradient id="Shape_7_" gradientUnits="userSpaceOnUse" x1="65.2475" y1="-0.1645" x2="65.2475" y2="101.9557">
			<stop  offset="0" style="stop-color:#4CB6EA"/>
			<stop  offset="1" style="stop-color:#5B6DDD"/>
		</linearGradient>
		<path id="Shape_2_" class="st2" d="M72.3,78c-1.3,0-2.5,0.3-3.6,0.8c-3.1-4.2-8.8-5.4-13.3-2.8c-4.5,2.6-6.4,8.1-4.3,12.9
			c0.3,0.6,0.9,1,1.6,1c0.2,0,0.5,0,0.7-0.1c0.4-0.2,0.7-0.5,0.9-0.9s0.2-0.9,0-1.3c-0.4-0.9-0.6-1.8-0.6-2.7c0-3.8,3-6.8,6.8-6.8
			c2.6,0,5,1.5,6.1,3.9c0,0.1,0.1,0.1,0.1,0.2c0,0.1,0.1,0.1,0.1,0.2c0,0,0.1,0.1,0.1,0.1c0.1,0.1,0.2,0.2,0.3,0.2
			c0.1,0.1,0.2,0.1,0.3,0.2c0.1,0,0.2,0.1,0.3,0.1c0.1,0,0.2,0,0.3,0c0.2,0,0.4,0,0.6-0.1c0,0,0.1,0,0.1,0c0.1,0,0.1-0.1,0.2-0.1
			c0.1,0,0.1-0.1,0.2-0.1c0.9-0.7,2-1.1,3.2-1.1c2,0,3.8,1.2,4.6,3c0.4,0.9,1.4,1.2,2.3,0.8s1.2-1.4,0.8-2.3
			C78.7,79.9,75.7,78,72.3,78z"/>
		<linearGradient id="Shape_8_" gradientUnits="userSpaceOnUse" x1="36.9008" y1="-0.1645" x2="36.9008" y2="101.9557">
			<stop  offset="0" style="stop-color:#4CB6EA"/>
			<stop  offset="1" style="stop-color:#5B6DDD"/>
		</linearGradient>
		<path id="Shape_3_" class="st3" d="M38.9,66.2c-0.3,0.1-6.3,2.2-6.3,8.4c0,0.9,0.8,1.7,1.7,1.7c0.9,0,1.7-0.8,1.7-1.7
			c0.1-2.4,1.7-4.4,3.9-5.2c0.9-0.3,1.4-1.3,1.1-2.2C40.8,66.3,39.8,65.9,38.9,66.2L38.9,66.2z"/>
		<linearGradient id="Shape_9_" gradientUnits="userSpaceOnUse" x1="67.4746" y1="-0.1645" x2="67.4746" y2="101.9557">
			<stop  offset="0" style="stop-color:#4CB6EA"/>
			<stop  offset="1" style="stop-color:#5B6DDD"/>
		</linearGradient>
		<path id="Shape_4_" class="st4" d="M62.8,64.3c0.1,0,0.3,0.1,0.4,0.1c0.8,0,1.5-0.5,1.6-1.3c0.8-3.2,3.6-5.4,6.9-5.5
			c0.9,0,1.7-0.8,1.7-1.7c0-0.9-0.8-1.7-1.7-1.7c-4.8,0.1-9,3.4-10.1,8.1C61.4,63.2,61.9,64.1,62.8,64.3z"/>
	</g>
</g>
</svg>
