<svg height="40" viewBox="0 0 40 40" width="40" xmlns="http://www.w3.org/2000/svg"><g fill="#f10000"><path d="m20 40c-11.02813719 0-20-8.9718628-20-20 0-11.02813719 8.97186281-20 20-20 11.0281372 0 20 8.97186281 20 20 0 11.0281372-8.9718628 20-20 20zm0-37.14294438c-9.4525147 0-17.14294438 7.69042968-17.14294438 17.14294438s7.69042968 17.1429444 17.14294438 17.1429444 17.1429444-7.6904297 17.1429444-17.1429444-7.6904297-17.14294438-17.1429444-17.14294438z"/><path d="m26.6667735 28c-.3412286 0-.682457-.1301685-.9427934-.3907902l-13.333262-13.3332917c-.5209575-.5209586-.5209575-1.3646323 0-1.885306.5206725-.5206737 1.3646292-.5209585 1.8853018 0l13.3332621 13.3332918c.5209573.5209585.5209573 1.3646322 0 1.8853059-.2603364.2606217-.60128.3907902-.9425085.3907902z"/><path d="m13.3332354 28c-.3412307 0-.6821767-.1301675-.9425147-.3907875-.5209609-.5206702-.5209609-1.3646231 0-1.8852934l13.3333511-13.3332028c.5209608-.5209551 1.3646384-.5209551 1.8853144 0 .520676.5206702.5209608 1.3646231 0 1.8852934l-13.3333512 13.3332028c-.260338.26062-.6015688.3907875-.9427996.3907875z"/></g></svg>