<?xml version="1.0" encoding="UTF-8"?>
<svg width="40px" height="40px" viewBox="0 0 40 40" version="1.1" xmlns="http://www.w3.org/2000/svg" xmlns:xlink="http://www.w3.org/1999/xlink">
    <title>cross</title>
    <g id="Page-1" stroke="none" stroke-width="1" fill="none" fill-rule="evenodd">
        <g id="plans-desktop" transform="translate(-533.000000, -983.000000)" fill="#F10000" fill-rule="nonzero">
            <g id="cross" transform="translate(533.000000, 983.000000)">
                <path d="M20,40 C8.97186281,40 0,31.0281372 0,20 C0,8.97186281 8.97186281,0 20,0 C31.0281372,0 40,8.97186281 40,20 C40,31.0281372 31.0281372,40 20,40 Z M20,2.85705562 C10.5474853,2.85705562 2.85705562,10.5474853 2.85705562,20 C2.85705562,29.4525147 10.5474853,37.1429444 20,37.1429444 C29.4525147,37.1429444 37.1429444,29.4525147 37.1429444,20 C37.1429444,10.5474853 29.4525147,2.85705562 20,2.85705562 Z" id="Shape"></path>
                <path d="M26.6667735,28 C26.3255449,28 25.9843165,27.8698315 25.7239801,27.6092098 L12.3907181,14.2759181 C11.8697606,13.7549595 11.8697606,12.9112858 12.3907181,12.3906121 C12.9113906,11.8699384 13.7553473,11.8696536 14.2760199,12.3906121 L27.609282,25.7239039 C28.1302393,26.2448624 28.1302393,27.0885361 27.609282,27.6092098 C27.3489456,27.8698315 27.008002,28 26.6667735,28 L26.6667735,28 Z" id="Path"></path>
                <path d="M13.3332354,28 C12.9920047,28 12.6510587,27.8698325 12.3907207,27.6092125 C11.8697598,27.0885423 11.8697598,26.2445894 12.3907207,25.7239191 L25.7240718,12.3907163 C26.2450326,11.8697612 27.0887102,11.8697612 27.6093862,12.3907163 C28.1300622,12.9113865 28.130347,13.7553394 27.6093862,14.2760097 L14.276035,27.6092125 C14.015697,27.8698325 13.6744662,28 13.3332354,28 L13.3332354,28 Z" id="Path"></path>
            </g>
        </g>
    </g>
</svg>