<?xml version="1.0" encoding="utf-8"?>
<!-- Generator: Adobe Illustrator 24.0.3, SVG Export Plug-In . SVG Version: 6.00 Build 0)  -->
<svg version="1.1" id="Layer_1" xmlns="http://www.w3.org/2000/svg" xmlns:xlink="http://www.w3.org/1999/xlink" x="0px" y="0px"
	 viewBox="0 0 512 512" style="enable-background:new 0 0 512 512;" xml:space="preserve">
<style type="text/css">
	.st0{fill:url(#SVGID_1_);}
	.st1{fill:url(#SVGID_2_);}
	.st2{fill:url(#SVGID_3_);}
	.st3{fill:url(#SVGID_4_);}
	.st4{fill:url(#SVGID_5_);}
	.st5{fill:url(#SVGID_6_);}
</style>
<g>
	<linearGradient id="SVGID_1_" gradientUnits="userSpaceOnUse" x1="409.9327" y1="0.7677" x2="410.9327" y2="512.7677">
		<stop  offset="0" style="stop-color:#4CB5EA"/>
		<stop  offset="1" style="stop-color:#5A6CDD"/>
	</linearGradient>
	<path class="st0" d="M341.4,263.3V284c0,15.1,23.6,1.4,29-0.9c63.6,29.2,139-19.7,138.1-89.7c0-54.1-44.1-98.2-98.2-98.2
		C322.9,95.1,279.1,202.3,341.4,263.3z M410.3,110.2c45.9,0,83.2,37.3,83.2,83.2c0.7,60.6-65.6,102-119.7,74.8c-2.1-1-4.1-1-6.2-0.2
		l-11.2,4.7v-12.6c0-2.1-0.9-4.1-2.4-5.5C298.5,203.7,334.9,110.2,410.3,110.2L410.3,110.2z"/>
	<linearGradient id="SVGID_2_" gradientUnits="userSpaceOnUse" x1="409.9274" y1="0.7677" x2="410.9274" y2="512.7677">
		<stop  offset="0" style="stop-color:#4CB5EA"/>
		<stop  offset="1" style="stop-color:#5A6CDD"/>
	</linearGradient>
	<path class="st1" d="M386.7,180.3c4.1,0,7.5-3.4,7.5-7.5c0-8.7,7.7-16.2,16.4-16.1c8.4,0.2,15.3,6.8,15.7,15.2
		c0.5,9.1-6.9,16.9-16,16.9c-4.1,0-7.5,3.4-7.5,7.5V221c0.3,9.9,14.7,9.9,15,0V203c14.3-3.6,24.3-17.1,23.5-31.8
		c-0.8-16.2-14.2-29.1-30.4-29.4c-17.2-0.4-31.7,13.9-31.7,31.1C379.2,177,382.5,180.3,386.7,180.3L386.7,180.3z"/>
	<linearGradient id="SVGID_3_" gradientUnits="userSpaceOnUse" x1="409.7894" y1="0.768" x2="410.7894" y2="512.768">
		<stop  offset="0" style="stop-color:#4CB5EA"/>
		<stop  offset="1" style="stop-color:#5A6CDD"/>
	</linearGradient>
	<path class="st2" d="M410.3,236.6c-9.7,0-9.7,15,0,15C419.9,251.6,419.9,236.6,410.3,236.6z"/>
	<linearGradient id="SVGID_4_" gradientUnits="userSpaceOnUse" x1="76.9979" y1="1.418" x2="77.9979" y2="513.418">
		<stop  offset="0" style="stop-color:#4CB5EA"/>
		<stop  offset="1" style="stop-color:#5A6CDD"/>
	</linearGradient>
	<path class="st3" d="M106.5,388.7H49c-4.1,0-7.5,3.4-7.5,7.5V425c0,4.1,3.4,7.5,7.5,7.5h57.5c4.1,0,7.5-3.4,7.5-7.5v-28.8
		C114.1,392.1,110.7,388.7,106.5,388.7z M99,417.5H56.6v-13.8H99V417.5z"/>
	<linearGradient id="SVGID_5_" gradientUnits="userSpaceOnUse" x1="255.2474" y1="1.0698" x2="256.2474" y2="513.0698">
		<stop  offset="0" style="stop-color:#4CB5EA"/>
		<stop  offset="1" style="stop-color:#5A6CDD"/>
	</linearGradient>
	<path class="st4" d="M506.8,330.6c-4.2-5.2-10.5-8.1-17.2-8.1H276.5c-3.1,0-6,0.5-8.8,1.5c-9-12.8-20-24.2-32.6-33.5h49.3
		c4.1,0,7.5-3.4,7.5-7.5V143.9C293.2,39.6,178.3-31.8,84.6,14.2C75.8,18.4,82.2,32,91,27.8c84-41.2,187,22.6,185.8,116.1
		c0,0,0,131.5,0,131.5h-52.5C235,263.4,243,249,246,236.9c1.2,0.1,2.5,0.2,3.7,0.2c14.9,0,27-12.1,27-27v-24.5
		c0-12.3-8.3-22.7-19.6-25.9c5.2-65.8-43.2-122.1-110.5-122.5C79.3,37.6,30.9,93.9,36.1,159.7c-9.8,2.8-17.3,11-19.1,21.1l0.2-36.9
		c0-36.3,15.6-71,42.7-95.4c7.2-6.5-2.8-17.7-10-11.2C19.6,64.5,2.2,103.4,2.2,143.9v139.1c0.4,4.6,2,7.1,6.6,7.6H59
		c-36.6,27.2-58.9,71-58.9,116.7v20.9c0,9.7,15,9.7,15,0v-20.9c0-34,13.7-67.2,37.6-91.4l52.6,36c3.5,2.1,6.8,1.7,9.9-1.3l24.4-27.8
		v105.5c0,9.7,15,9.7,15,0V322.6l24.4,27.8c3.1,2.9,6.4,3.3,9.9,1.3l52.4-35.9c5.1,5.2,9.8,10.8,14,16.9c-2.6,3.3-4.5,7.2-5.3,11.5
		l-24.3,124.1h-99c-4.1,0-7.5,3.4-7.5,7.5v12.9c0,12.8,10.4,23.2,23.2,23.2h315c12.8,0,23.9-9.1,26.3-21.7l4.3-22.2
		c1.9-9.5-12.9-12.4-14.7-2.9l-4.3,22.2c-1.1,5.5-6,9.5-11.6,9.5H244.4c-4.5,0-8-4.2-7.1-8.7l27.6-141.2c1.1-5.5,6-9.5,11.6-9.5
		h213.1c4.5,0,8,4.2,7.1,8.7L481.1,426c-1.9,9.5,12.9,12.4,14.7,2.9l15.6-79.8C512.7,342.5,511,335.8,506.8,330.6L506.8,330.6z
		 M147.2,295.1C147.2,295.1,147.2,295.1,147.2,295.1c-40.1,0-75.2-27.3-85-65.4c5.2-4.9,8.5-11.9,8.5-19.6v-24.3
		c24.2-0.1,74.1-6.2,100-52.5c8.4,14.9,24.8,36.9,52.2,47.7c-0.8,2.7-0.3,25.9-0.4,29.2c0,8.2,3.7,15.5,9.4,20.5
		c0,0.1,0,0.1-0.1,0.2c-10.1,13.6-26.2,21.8-43.6,21.8h-14.2c-8.3-28.1-49.2-23-50,6.6c0.5,28.5,39.6,34.8,49.4,8.4h14.7
		c9.8,0,19.2-2,27.9-5.8C199.7,282.7,173.8,295.1,147.2,295.1L147.2,295.1z M149.6,269.5c-5.7,0-10.4-4.6-10.4-10.3
		c0.6-13.6,20.3-13.6,20.8,0C160,264.9,155.3,269.5,149.6,269.5L149.6,269.5z M261.6,185.7v24.5c0,6.6-5.4,12-12,12
		c-6.3-0.3-12.1-5-12.1-12v-24.5C238.2,169.8,261,169.8,261.6,185.7z M146.6,52.2c52.6,0,95.5,42.4,95.5,94.6v12.9
		c-4.9,1.4-9.2,4.1-12.5,7.7c-37.3-14-51.8-53.9-51.9-54.3c-2.2-6.4-11.7-6.6-14.1-0.2c-9.2,24.5-26.3,41.5-50.6,50.6
		c-18.3,6.8-36.3,7.6-46.8,7.2c-3.5-5.3-8.8-9.2-15.1-11v-12.9C51.1,94.7,93.9,52.2,146.6,52.2L146.6,52.2z M31.5,185.7
		c0-6.6,5.4-12,12-12h0.2c6.6,0,12,5.4,12,12v24.5c0,6.6-5.4,12-12,12h-0.2c-6.6,0-12-5.4-12-12V185.7z M16.8,213.7
		c1.8,15,16.7,26,31.8,23.1c4.3,14.6,11.7,27.7,21.5,38.7H16.8L16.8,213.7z M108.4,335.5l-44.1-30.2c7-5.6,14.6-10.5,22.7-14.6
		c13,9.4,28.3,15.7,44.6,18.2L108.4,335.5z M186,335.5L162.7,309c16.1-2.4,31.4-8.6,44.6-18.1c8.1,4.1,15.6,9,22.6,14.6L186,335.5z
		 M142.5,497c-4.5,0-8.2-3.7-8.2-8.2v-5.4h88.6c-1.1,4.4-1.1,9.2,0.4,13.6L142.5,497z"/>
	<linearGradient id="SVGID_6_" gradientUnits="userSpaceOnUse" x1="366.101" y1="0.8533" x2="367.101" y2="512.8533">
		<stop  offset="0" style="stop-color:#4CB5EA"/>
		<stop  offset="1" style="stop-color:#5A6CDD"/>
	</linearGradient>
	<path class="st5" d="M336,417.3c0,17.1,13.9,31,31,31c41.1-1.7,41.1-60.3,0-62C349.9,386.3,336,400.2,336,417.3z M383,417.3
		c0,8.8-7.2,16-16,16c-21.2-0.9-21.2-31.1,0-31.9C375.8,401.3,383,408.5,383,417.3z"/>
</g>
</svg>
