<svg enable-background="new 0 0 512 512" viewBox="0 0 512 512" xmlns="http://www.w3.org/2000/svg" xmlns:xlink="http://www.w3.org/1999/xlink"><linearGradient id="a"><stop offset="0" stop-color="#4cb5ea"/><stop offset="1" stop-color="#5a6cdd"/></linearGradient><linearGradient id="b" gradientUnits="userSpaceOnUse" x1="409.9327" x2="410.9327" xlink:href="#a" y1=".7677" y2="512.7677"/><linearGradient id="c" gradientUnits="userSpaceOnUse" x1="409.9274" x2="410.9274" xlink:href="#a" y1=".7677" y2="512.7677"/><linearGradient id="d" gradientUnits="userSpaceOnUse" x1="409.7894" x2="410.7894" xlink:href="#a" y1=".768" y2="512.768"/><linearGradient id="e" gradientUnits="userSpaceOnUse" x1="76.9979" x2="77.9979" xlink:href="#a" y1="1.418" y2="513.418"/><linearGradient id="f" gradientUnits="userSpaceOnUse" x1="255.2474" x2="256.2474" xlink:href="#a" y1="1.0698" y2="513.0698"/><linearGradient id="g" gradientUnits="userSpaceOnUse" x1="366.101" x2="367.101" xlink:href="#a" y1=".8533" y2="512.8533"/><path d="m341.4 263.3v20.7c0 15.1 23.6 1.4 29-.9 63.6 29.2 139-19.7 138.1-89.7 0-54.1-44.1-98.2-98.2-98.2-87.4-.1-131.2 107.1-68.9 168.1zm68.9-153.1c45.9 0 83.2 37.3 83.2 83.2.7 60.6-65.6 102-119.7 74.8-2.1-1-4.1-1-6.2-.2l-11.2 4.7v-12.6c0-2.1-.9-4.1-2.4-5.5-55.5-50.9-19.1-144.4 56.3-144.4z" fill="url(#b)"/><path d="m386.7 180.3c4.1 0 7.5-3.4 7.5-7.5 0-8.7 7.7-16.2 16.4-16.1 8.4.2 15.3 6.8 15.7 15.2.5 9.1-6.9 16.9-16 16.9-4.1 0-7.5 3.4-7.5 7.5v24.7c.3 9.9 14.7 9.9 15 0v-18c14.3-3.6 24.3-17.1 23.5-31.8-.8-16.2-14.2-29.1-30.4-29.4-17.2-.4-31.7 13.9-31.7 31.1 0 4.1 3.3 7.4 7.5 7.4z" fill="url(#c)"/><path d="m410.3 236.6c-9.7 0-9.7 15 0 15 9.6 0 9.6-15 0-15z" fill="url(#d)"/><path d="m106.5 388.7h-57.5c-4.1 0-7.5 3.4-7.5 7.5v28.8c0 4.1 3.4 7.5 7.5 7.5h57.5c4.1 0 7.5-3.4 7.5-7.5v-28.8c.1-4.1-3.3-7.5-7.5-7.5zm-7.5 28.8h-42.4v-13.8h42.4z" fill="url(#e)"/><path d="m506.8 330.6c-4.2-5.2-10.5-8.1-17.2-8.1h-213.1c-3.1 0-6 .5-8.8 1.5-9-12.8-20-24.2-32.6-33.5h49.3c4.1 0 7.5-3.4 7.5-7.5v-139.1c1.3-104.3-113.6-175.7-207.3-129.7-8.8 4.2-2.4 17.8 6.4 13.6 84-41.2 187 22.6 185.8 116.1v131.5h-52.5c10.7-12 18.7-26.4 21.7-38.5 1.2.1 2.5.2 3.7.2 14.9 0 27-12.1 27-27v-24.5c0-12.3-8.3-22.7-19.6-25.9 5.2-65.8-43.2-122.1-110.5-122.5-67.3.4-115.7 56.7-110.5 122.5-9.8 2.8-17.3 11-19.1 21.1l.2-36.9c0-36.3 15.6-71 42.7-95.4 7.2-6.5-2.8-17.7-10-11.2-30.3 27.2-47.7 66.1-47.7 106.6v139.1c.4 4.6 2 7.1 6.6 7.6h50.2c-36.6 27.2-58.9 71-58.9 116.7v20.9c0 9.7 15 9.7 15 0v-20.9c0-34 13.7-67.2 37.6-91.4l52.6 36c3.5 2.1 6.8 1.7 9.9-1.3l24.4-27.8v105.5c0 9.7 15 9.7 15 0v-105.7l24.4 27.8c3.1 2.9 6.4 3.3 9.9 1.3l52.4-35.9c5.1 5.2 9.8 10.8 14 16.9-2.6 3.3-4.5 7.2-5.3 11.5l-24.3 124.1h-99c-4.1 0-7.5 3.4-7.5 7.5v12.9c0 12.8 10.4 23.2 23.2 23.2h315c12.8 0 23.9-9.1 26.3-21.7l4.3-22.2c1.9-9.5-12.9-12.4-14.7-2.9l-4.3 22.2c-1.1 5.5-6 9.5-11.6 9.5h-213c-4.5 0-8-4.2-7.1-8.7l27.6-141.2c1.1-5.5 6-9.5 11.6-9.5h213.1c4.5 0 8 4.2 7.1 8.7l-15.6 79.9c-1.9 9.5 12.9 12.4 14.7 2.9l15.6-79.8c1.3-6.6-.4-13.3-4.6-18.5zm-359.6-35.5c-40.1 0-75.2-27.3-85-65.4 5.2-4.9 8.5-11.9 8.5-19.6v-24.3c24.2-.1 74.1-6.2 100-52.5 8.4 14.9 24.8 36.9 52.2 47.7-.8 2.7-.3 25.9-.4 29.2 0 8.2 3.7 15.5 9.4 20.5 0 .1 0 .1-.1.2-10.1 13.6-26.2 21.8-43.6 21.8h-14.2c-8.3-28.1-49.2-23-50 6.6.5 28.5 39.6 34.8 49.4 8.4h14.7c9.8 0 19.2-2 27.9-5.8-16.3 20.8-42.2 33.2-68.8 33.2zm2.4-25.6c-5.7 0-10.4-4.6-10.4-10.3.6-13.6 20.3-13.6 20.8 0 0 5.7-4.7 10.3-10.4 10.3zm112-83.8v24.5c0 6.6-5.4 12-12 12-6.3-.3-12.1-5-12.1-12v-24.5c.7-15.9 23.5-15.9 24.1 0zm-115-133.5c52.6 0 95.5 42.4 95.5 94.6v12.9c-4.9 1.4-9.2 4.1-12.5 7.7-37.3-14-51.8-53.9-51.9-54.3-2.2-6.4-11.7-6.6-14.1-.2-9.2 24.5-26.3 41.5-50.6 50.6-18.3 6.8-36.3 7.6-46.8 7.2-3.5-5.3-8.8-9.2-15.1-11v-12.9c0-52.1 42.8-94.6 95.5-94.6zm-115.1 133.5c0-6.6 5.4-12 12-12h.2c6.6 0 12 5.4 12 12v24.5c0 6.6-5.4 12-12 12h-.2c-6.6 0-12-5.4-12-12zm-14.7 28c1.8 15 16.7 26 31.8 23.1 4.3 14.6 11.7 27.7 21.5 38.7h-53.3zm91.6 121.8-44.1-30.2c7-5.6 14.6-10.5 22.7-14.6 13 9.4 28.3 15.7 44.6 18.2zm77.6 0-23.3-26.5c16.1-2.4 31.4-8.6 44.6-18.1 8.1 4.1 15.6 9 22.6 14.6zm-43.5 161.5c-4.5 0-8.2-3.7-8.2-8.2v-5.4h88.6c-1.1 4.4-1.1 9.2.4 13.6z" fill="url(#f)"/><path d="m336 417.3c0 17.1 13.9 31 31 31 41.1-1.7 41.1-60.3 0-62-17.1 0-31 13.9-31 31zm47 0c0 8.8-7.2 16-16 16-21.2-.9-21.2-31.1 0-31.9 8.8-.1 16 7.1 16 15.9z" fill="url(#g)"/></svg>