<?xml version="1.0" encoding="UTF-8"?>
<svg width="174px" height="160px" viewBox="0 0 174 160" version="1.1" xmlns="http://www.w3.org/2000/svg" xmlns:xlink="http://www.w3.org/1999/xlink">
    <title>Data analytics _Monochromatic</title>
    <defs>
        <linearGradient x1="14.2739097%" y1="3.05022355%" x2="125.343753%" y2="170.815705%" id="linearGradient-1">
            <stop stop-color="#000000" offset="1%"></stop>
            <stop stop-color="#000000" stop-opacity="0.69" offset="8%"></stop>
            <stop stop-color="#000000" stop-opacity="0.32" offset="21%"></stop>
            <stop stop-color="#000000" stop-opacity="0" offset="100%"></stop>
        </linearGradient>
        <linearGradient x1="49.5616121%" y1="29.1597325%" x2="50.9461952%" y2="89.3668331%" id="linearGradient-2">
            <stop stop-color="#000000" offset="1%"></stop>
            <stop stop-color="#000000" stop-opacity="0.69" offset="8%"></stop>
            <stop stop-color="#000000" stop-opacity="0.32" offset="21%"></stop>
            <stop stop-color="#000000" stop-opacity="0" offset="100%"></stop>
        </linearGradient>
        <linearGradient x1="-61.7333562%" y1="-76.3189774%" x2="431.959645%" y2="481.822349%" id="linearGradient-3">
            <stop stop-color="#000000" offset="1%"></stop>
            <stop stop-color="#000000" stop-opacity="0.69" offset="8%"></stop>
            <stop stop-color="#000000" stop-opacity="0.32" offset="21%"></stop>
            <stop stop-color="#000000" stop-opacity="0" offset="100%"></stop>
        </linearGradient>
        <linearGradient x1="29.6112031%" y1="-107.188186%" x2="121.306106%" y2="599.731511%" id="linearGradient-4">
            <stop stop-color="#000000" offset="1%"></stop>
            <stop stop-color="#000000" stop-opacity="0.69" offset="8%"></stop>
            <stop stop-color="#000000" stop-opacity="0.32" offset="21%"></stop>
            <stop stop-color="#000000" stop-opacity="0" offset="100%"></stop>
        </linearGradient>
        <linearGradient x1="34.6416456%" y1="-87.2196478%" x2="94.7319558%" y2="449.610751%" id="linearGradient-5">
            <stop stop-color="#000000" offset="1%"></stop>
            <stop stop-color="#000000" stop-opacity="0.69" offset="8%"></stop>
            <stop stop-color="#000000" stop-opacity="0.32" offset="21%"></stop>
            <stop stop-color="#000000" stop-opacity="0" offset="100%"></stop>
        </linearGradient>
        <linearGradient x1="-102.22321%" y1="-32.2143175%" x2="857.558915%" y2="486.1494%" id="linearGradient-6">
            <stop stop-color="#000000" offset="1%"></stop>
            <stop stop-color="#000000" stop-opacity="0.69" offset="8%"></stop>
            <stop stop-color="#000000" stop-opacity="0.32" offset="21%"></stop>
            <stop stop-color="#000000" stop-opacity="0" offset="100%"></stop>
        </linearGradient>
        <linearGradient x1="-102.200978%" y1="-32.2143175%" x2="857.558915%" y2="486.1494%" id="linearGradient-7">
            <stop stop-color="#000000" offset="1%"></stop>
            <stop stop-color="#000000" stop-opacity="0.69" offset="8%"></stop>
            <stop stop-color="#000000" stop-opacity="0.32" offset="21%"></stop>
            <stop stop-color="#000000" stop-opacity="0" offset="100%"></stop>
        </linearGradient>
        <linearGradient x1="-102.200978%" y1="-32.2143175%" x2="857.558915%" y2="486.127168%" id="linearGradient-8">
            <stop stop-color="#000000" offset="1%"></stop>
            <stop stop-color="#000000" stop-opacity="0.69" offset="8%"></stop>
            <stop stop-color="#000000" stop-opacity="0.32" offset="21%"></stop>
            <stop stop-color="#000000" stop-opacity="0" offset="100%"></stop>
        </linearGradient>
    </defs>
    <g id="Page-1" stroke="none" stroke-width="1" fill="none" fill-rule="evenodd">
        <g id="About-desktop" transform="translate(-875.000000, -660.000000)" fill-rule="nonzero">
            <g id="Data-analytics-_Monochromatic" transform="translate(875.049235, 660.000000)">
                <path d="M28.8658422,155.985564 C41.9290064,161.87232 57.7270823,161.248935 70.2873535,154.351985 C74.1864971,152.208991 77.8014716,149.497872 81.9520617,147.897102 C92.0116454,144.020374 103.280239,147.252996 114.033884,146.551904 C132.193146,145.369027 148.134168,132.633672 157.351578,116.902271 C166.568988,101.17087 170.039295,82.7490708 172.038811,64.6139255 C174.277719,44.3375137 173.433823,20.550461 157.3688,8.03268647 C144.526082,-1.97773417 126.42021,-0.983081366 110.474021,2.22363782 C94.527833,5.43035701 78.1373077,10.3587235 62.3151205,6.61496086 C56.6093508,5.26976202 51.0981939,2.80557878 45.2425896,2.51719854 C34.7989471,1.99915021 25.1613114,8.56109577 18.4514777,16.6081132 C6.93832639,30.4089208 1.90078447,48.7150221 1.08444435,66.6861188 C0.266381984,84.7211082 3.45079737,102.8528 3.92957913,120.796267 C4.34636038,136.515581 14.4593334,149.485784 28.8658422,155.985564 Z" id="Path" fill="#4A67C6" opacity="0.18"></path>
                <rect id="Rectangle" fill="#FFFFFF" x="36.9507648" y="23" width="104" height="113" rx="52"></rect>
                <path d="M52.4311393,137 L67.2489045,123.531121 C67.2489045,123.531121 87.6699597,138.027722 107.186234,125.121033 C126.702509,112.214343 127.347364,86.902004 118.442418,77.1869735 C109.537473,67.471943 109.646603,74.3839159 109.646603,74.3839159 C109.646603,74.3839159 123.535777,112.543767 93.3764264,116.372574 C63.2170755,120.201381 60.2943963,111.669907 60.2943963,111.669907 L41.9507648,137 L52.4311393,137 Z" id="Path" fill="url(#linearGradient-1)"></path>
                <polygon id="Path" fill="url(#linearGradient-2)" points="36.9507648 59.4345238 53.9336668 69.4761905 82.5628914 49.797619 114.220397 71 140.950765 46.2361111 140.950765 38 113.801066 61.5555556 82.8180503 43.9246032 53.5301597 59.8134921 36.9507648 54.0634921"></polygon>
                <polygon id="Path" fill="#4A67C6" points="14.8527858 67 12.9507648 64.6061129 33.5674898 48.2097609 54.5291409 58.4399803 83.6409027 39.0226769 116.058042 58.7870348 148.824049 27 150.950765 29.1947252 116.487721 62.6282968 83.7138299 42.6490017 54.7636906 61.9578506 33.9616911 51.8045354"></polygon>
                <path d="M29.4058541,138.46263 C28.4742291,139.400049 27.9507648,140.672058 27.9507648,141.998471 C27.9507648,143.324883 28.4742291,144.596892 29.4058541,145.534312 L29.4058541,145.534312 C30.336495,146.472723 31.5993058,147 32.9161268,147 C34.2329479,147 35.4957586,146.472723 36.4263996,145.534312 L67.4972946,115.53574 C69.4352549,113.582652 69.4352549,110.417144 67.4972946,108.464057 L67.4972946,108.464057 C65.5583306,106.511981 62.4157132,106.511981 60.4767491,108.464057 L29.4058541,138.46263 Z" id="Path" fill="#4A67C6"></path>
                <path d="M49.9507648,90.001938 C49.9518509,108.779367 65.3985079,124.000714 84.4520758,124 C103.505644,123.999286 118.950765,108.776783 118.950765,89.9993541 C118.950765,71.2219248 103.504333,56 84.4507648,56 C75.3004552,56 66.5249472,59.5823986 60.0548856,65.9590546 C53.584824,72.3357106 49.9507648,80.9842416 49.9507648,90.001938 L49.9507648,90.001938 Z M58.6662219,90.001938 C58.6694811,75.9686688 70.215056,64.5947591 84.4546969,64.5968995 C98.6943379,64.5990399 110.236392,75.97642 110.235306,90.0096895 C110.23422,104.042959 98.690406,115.418605 84.4507649,115.418605 C77.611097,115.419119 71.0515005,112.741279 66.2156781,107.974451 C61.3798558,103.207622 58.6641364,96.74248 58.6662219,90.001938 L58.6662219,90.001938 Z" id="Shape" fill="#4A67C6"></path>
                <path d="M49.9507648,90.001938 C49.9518509,108.779367 65.3985079,124.000714 84.4520758,124 C103.505644,123.999286 118.950765,108.776783 118.950765,89.9993541 C118.950765,71.2219248 103.504333,56 84.4507648,56 C75.3004552,56 66.5249472,59.5823986 60.0548856,65.9590546 C53.584824,72.3357106 49.9507648,80.9842416 49.9507648,90.001938 L49.9507648,90.001938 Z M58.6662219,90.001938 C58.6694811,75.9686688 70.215056,64.5947591 84.4546969,64.5968995 C98.6943379,64.5990399 110.236392,75.97642 110.235306,90.0096895 C110.23422,104.042959 98.690406,115.418605 84.4507649,115.418605 C77.611097,115.419119 71.0515005,112.741279 66.2156781,107.974451 C61.3798558,103.207622 58.6641364,96.74248 58.6662219,90.001938 L58.6662219,90.001938 Z" id="Shape" fill="url(#linearGradient-3)"></path>
                <path d="M47.9507648,86.9975653 C47.9499695,100.749433 56.3552103,113.147603 69.2469668,118.410577 C82.1387233,123.673551 96.9780483,120.764821 106.845088,111.040782 C116.712128,101.316743 119.663633,86.6924808 114.323262,73.9875614 C108.982892,61.2826419 96.4023957,52.9992162 82.4482943,53 C63.3958349,53 47.9507648,68.2212284 47.9507648,86.9975653 Z M56.6675654,86.9975653 C56.66677,76.7202181 62.9482306,67.4544453 72.582742,63.5211127 C82.2172533,59.5877801 93.307327,61.761546 100.681379,69.0287279 C108.055432,76.2959098 110.261165,87.2252578 106.269989,96.7201386 C102.278813,106.215019 92.876779,112.405444 82.4482943,112.40466 C68.2099909,112.40466 56.6675654,101.029517 56.6675654,86.9975653 Z" id="Shape" fill="#4A67C6"></path>
                <polygon id="Path" fill="#4A67C6" points="149.619453 44 146.634613 43.7967203 147.70738 28.4975502 130.427336 31.2408759 129.950765 28.3322668 150.950765 25"></polygon>
                <rect id="Rectangle" fill="#4A67C6" x="68.9507648" y="94" width="5" height="8"></rect>
                <rect id="Rectangle" fill="#4A67C6" x="75.9507648" y="84" width="5" height="17"></rect>
                <rect id="Rectangle" fill="#4A67C6" x="82.9507648" y="91" width="5" height="11"></rect>
                <rect id="Rectangle" fill="#4A67C6" x="90.9507648" y="81" width="5" height="21"></rect>
                <rect id="Rectangle" fill="url(#linearGradient-4)" x="75.9507648" y="84" width="5" height="17"></rect>
                <rect id="Rectangle" fill="url(#linearGradient-5)" x="90.9507648" y="81" width="5" height="21"></rect>
                <rect id="Rectangle" fill="#4A67C6" x="97.9507648" y="75" width="5" height="27"></rect>
                <circle id="Oval" fill="#4A67C6" cx="83.4507648" cy="42.5" r="4.5"></circle>
                <circle id="Oval" fill="url(#linearGradient-6)" cx="83.4507648" cy="42.5" r="4.5"></circle>
                <circle id="Oval" fill="#4A67C6" cx="115.450765" cy="59.5" r="4.5"></circle>
                <circle id="Oval" fill="url(#linearGradient-7)" cx="115.450765" cy="59.5" r="4.5"></circle>
                <circle id="Oval" fill="#4A67C6" cx="33.4507648" cy="50.5" r="4.5"></circle>
                <circle id="Oval" fill="url(#linearGradient-7)" cx="33.4507648" cy="50.5" r="4.5"></circle>
                <circle id="Oval" fill="#4A67C6" cx="53.4507648" cy="60.5" r="4.5"></circle>
                <circle id="Oval" fill="url(#linearGradient-8)" cx="53.4507648" cy="60.5" r="4.5"></circle>
            </g>
        </g>
    </g>
</svg>