<svg height="160" viewBox="0 0 174 160" width="174" xmlns="http://www.w3.org/2000/svg" xmlns:xlink="http://www.w3.org/1999/xlink"><linearGradient id="a"><stop offset=".01"/><stop offset=".08" stop-opacity=".69"/><stop offset=".21" stop-opacity=".32"/><stop offset="1" stop-opacity="0"/></linearGradient><linearGradient id="b" x1="14.27391%" x2="125.343753%" xlink:href="#a" y1="3.050224%" y2="170.815705%"/><linearGradient id="c" x1="49.561612%" x2="50.946195%" xlink:href="#a" y1="29.159733%" y2="89.366833%"/><linearGradient id="d" x1="-61.733356%" x2="431.959645%" xlink:href="#a" y1="-76.318977%" y2="481.822349%"/><linearGradient id="e" x1="29.611203%" x2="121.306106%" xlink:href="#a" y1="-107.188186%" y2="599.731511%"/><linearGradient id="f" x1="34.641646%" x2="94.731956%" xlink:href="#a" y1="-87.219648%" y2="449.610751%"/><linearGradient id="g" x1="-102.22321%" x2="857.558915%" xlink:href="#a" y1="-32.214318%" y2="486.1494%"/><linearGradient id="h" x1="-102.200978%" x2="857.558915%" xlink:href="#a" y1="-32.214318%" y2="486.1494%"/><linearGradient id="i" x1="-102.200978%" x2="857.558915%" xlink:href="#a" y1="-32.214318%" y2="486.127168%"/><g fill="none" transform="translate(.049235)"><path d="m28.8658422 155.985564c13.0631642 5.886756 28.8612401 5.263371 41.4215113-1.633579 3.8991436-2.142994 7.5141181-4.854113 11.6647082-6.454883 10.0595837-3.876728 21.3281773-.644106 32.0818223-1.345198 18.159262-1.182877 34.100284-13.918232 43.317694-29.649633s12.687717-34.1532002 14.687233-52.2883455c2.238908-20.2764118 1.395012-44.0634645-14.670011-56.58123903-12.842718-10.01042064-30.94859-9.01576784-46.894779-5.80904865-15.946188 3.20671919-32.3367133 8.13508568-48.1589005 4.39132304-5.7057697-1.34519884-11.2169266-3.80938208-17.0725309-4.09776232-10.4436425-.51804833-20.0812782 6.04389723-26.7911119 14.09091466-11.51315131 13.8008076-16.55069323 32.1069089-17.36703335 50.0780056-.81806237 18.0349894 2.36635302 36.1666812 2.84513478 54.1101482.41678125 15.719314 10.52975427 28.689517 24.93626307 35.189297z" fill="#4a67c6" opacity=".18"/><rect fill="#fff" height="113" rx="52" width="104" x="36.950765" y="23"/><path d="m52.4311393 137 14.8177652-13.468879s20.4210552 14.496601 39.9373295 1.589912c19.516275-12.90669 20.16113-38.219029 11.256184-47.9340595-8.904945-9.7150305-8.795815-2.8030576-8.795815-2.8030576s13.889174 38.1598511-16.2701766 41.9886581c-30.1593509 3.828807-33.0820301-4.702667-33.0820301-4.702667l-18.3436315 25.330093z" fill="url(#b)"/><path d="m36.9507648 59.4345238 16.982902 10.0416667 28.6292246-19.6785715 31.6575056 21.202381 26.730368-24.7638889v-8.2361111l-27.149699 23.5555556-30.9830157-17.6309524-29.2878906 15.8888889-16.5793949-5.75z" fill="url(#c)"/><g fill="#4a67c6"><path d="m14.8527858 67-1.902021-2.3938871 20.616725-16.396352 20.9616511 10.2302194 29.1117618-19.4173034 32.4171393 19.7643579 32.766007-31.7870348 2.126716 2.1947252-34.463044 33.4335716-32.7738911-19.9792951-28.9501393 19.3088489-20.8019995-10.1533152z"/><path d="m29.4058541 138.46263c-.931625.937419-1.4550893 2.209428-1.4550893 3.535841 0 1.326412.5234643 2.598421 1.4550893 3.535841.9306409.938411 2.1934517 1.465688 3.5102727 1.465688 1.3168211 0 2.5796318-.527277 3.5102728-1.465688l31.070895-29.998572c1.9379603-1.953088 1.9379603-5.118596 0-7.071683-1.938964-1.952076-5.0815814-1.952076-7.0205455 0z"/><path d="m49.9507648 90.001938c.0010861 18.777429 15.4477431 33.998776 34.501311 33.998062 19.0535682-.000714 34.4986892-15.223217 34.4986892-34.0006459 0-18.7774293-15.446432-33.9993541-34.5000002-33.9993541-9.1503096 0-17.9258176 3.5823986-24.3958792 9.9590546s-10.1041208 15.025187-10.1041208 24.0428834zm8.7154571 0c.0032592-14.0332692 11.5488341-25.4071789 25.788475-25.4050385 14.239641.0021404 25.7816951 11.3795205 25.7806091 25.41279s-11.5449 25.4089155-25.7845411 25.4089155c-6.8396679.000514-13.3992644-2.677326-18.2350868-7.444154-4.8358223-4.766829-7.5515417-11.231971-7.5494562-17.972513z"/></g><path d="m49.9507648 90.001938c.0010861 18.777429 15.4477431 33.998776 34.501311 33.998062 19.0535682-.000714 34.4986892-15.223217 34.4986892-34.0006459 0-18.7774293-15.446432-33.9993541-34.5000002-33.9993541-9.1503096 0-17.9258176 3.5823986-24.3958792 9.9590546s-10.1041208 15.025187-10.1041208 24.0428834zm8.7154571 0c.0032592-14.0332692 11.5488341-25.4071789 25.788475-25.4050385 14.239641.0021404 25.7816951 11.3795205 25.7806091 25.41279s-11.5449 25.4089155-25.7845411 25.4089155c-6.8396679.000514-13.3992644-2.677326-18.2350868-7.444154-4.8358223-4.766829-7.5515417-11.231971-7.5494562-17.972513z" fill="url(#d)"/><g fill="#4a67c6"><path d="m47.9507648 86.9975653c-.0007953 13.7518677 8.4044455 26.1500377 21.296202 31.4130117s27.7310815 2.354244 37.5981212-7.369795c9.86704-9.724039 12.818545-24.3483012 7.478174-37.0532206-5.34037-12.7049195-17.9208663-20.9883452-31.8749677-20.9875614-19.0524594 0-34.4975295 15.2212284-34.4975295 33.9975653zm8.7168006 0c-.0007954-10.2773472 6.2806652-19.54312 15.9151766-23.4764526 9.6345113-3.9333326 20.724585-1.7595667 28.098637 5.5076152 7.374053 7.2671819 9.579786 18.1965299 5.58861 27.6914107-3.991176 9.4948804-13.39321 15.6853054-23.8216947 15.6845214-14.2383034 0-25.7807289-11.375143-25.7807289-25.4070947z"/><path d="m149.619453 44-2.98484-.2032797 1.072767-15.2991701-17.280044 2.7433257-.476571-2.9086091 21-3.3322668z"/><path d="m68.950765 94h5v8h-5z"/><path d="m75.950765 84h5v17h-5z"/><path d="m82.950765 91h5v11h-5z"/><path d="m90.950765 81h5v21h-5z"/></g><path d="m75.950765 84h5v17h-5z" fill="url(#e)"/><path d="m90.950765 81h5v21h-5z" fill="url(#f)"/><path d="m97.950765 75h5v27h-5z" fill="#4a67c6"/><circle cx="83.450765" cy="42.5" fill="#4a67c6" r="4.5"/><circle cx="83.450765" cy="42.5" fill="url(#g)" r="4.5"/><circle cx="115.450765" cy="59.5" fill="#4a67c6" r="4.5"/><circle cx="115.450765" cy="59.5" fill="url(#h)" r="4.5"/><circle cx="33.450765" cy="50.5" fill="#4a67c6" r="4.5"/><circle cx="33.450765" cy="50.5" fill="url(#h)" r="4.5"/><circle cx="53.450765" cy="60.5" fill="#4a67c6" r="4.5"/><circle cx="53.450765" cy="60.5" fill="url(#i)" r="4.5"/></g></svg>