<svg height="116" viewBox="0 0 114 116" width="114" xmlns="http://www.w3.org/2000/svg" xmlns:xlink="http://www.w3.org/1999/xlink"><linearGradient id="a"><stop offset="0" stop-color="#5e71da"/><stop offset="1" stop-color="#53bceb"/></linearGradient><linearGradient id="b" x1="85.4395%" x2="-39.5605%" xlink:href="#a" y1="750.283%" y2="-1719.717%"/><linearGradient id="c" x1="50%" x2="50%" xlink:href="#a" y1="97.555078%" y2="1.639785%"/><linearGradient id="d" x1="59.083375%" x2="27.833375%" xlink:href="#a" y1="89.748097%" y2="-46.999308%"/><g fill="none" transform="translate(0 .074468)"><path d="m71 76.9255319c-1.1 0-2 .9-2 2s.9 2 2 2 2-.9 2-2-.9-2-2-2z" fill="url(#b)"/><path d="m102.867188.92553192h-91.7343755c-6.1453125 0-11.1328125 4.98749999-11.1328125 11.13281248v68.1328125c0 6.1453125 4.9875 11.1328125 11.1328125 11.1328125h34.734375v10.2421876h-2.2265625c-2.9835938 0-5.7667969 1.157812-7.8820313 3.250781-2.0929687 2.092969-3.2507812 4.898438-3.2507812 7.882031 0 1.22461 1.0019531 2.226563 2.2265625 2.226563h44.53125c1.2246094 0 2.2265625-1.001953 2.2265625-2.226563 0-6.145312-4.9875-11.132812-11.1328125-11.132812h-2.2265625v-10.2421876h34.7343755c6.145312 0 11.132812-4.9875 11.132812-11.1328125v-68.1328125c0-6.14531249-4.9875-11.13281248-11.132812-11.13281248zm-91.7343755 4.45312499h91.7343755c3.673828 0 6.679687 3.00585938 6.679687 6.67968749v57h-10.2421875v-51.2109375c0-1.2246094-1.0019531-2.2265625-2.2265625-2.2265625h-17.8125c-1.2246094 0-2.2265625 1.0019531-2.2265625 2.2265625v51.2109375h-11.1550781c-.0222657-2.2933594-.0890625-4.5644531-.178125-6.76875-.4007813-9.0621094-1.2691407-15.140625-1.7367188-17.8125 4.5867188-3.384375 5.8558594-9.6410156 3.0503906-14.5171875l-7.7261718-13.359375c-.4007813-.6902344-1.1355469-1.1132812-1.9371094-1.1132812s-1.5363281.4230468-1.9371094 1.1132812l-7.7261719 13.359375c-2.6496093 4.5867188-1.7144531 10.5316406 2.4492188 14.0496094-.4898437 2.671875-1.4472656 8.9507812-1.8703125 18.2800781-.0890625 2.2265625-.1558594 4.4976563-.178125 6.76875h-11.1328125v-33.3984375c0-.35625-.0890625-.6679687-.2226563-.9574219 0-.0222656 0-.0222656-.0222656-.0445312l-8.90625-17.8125c-.3785156-.7570313-1.1578125-1.2246094-1.9816406-1.2246094s-1.603125.4675781-1.9816406 1.2246094l-8.90625 17.8125c0 .0222656 0 .0222656-.0222656.0445312-.1335938.2894532-.2226563.6234375-.2226563.9574219v33.3984375h-10.2421875v-57c0-3.67382811 3.00585938-6.67968749 6.6796875-6.67968749zm70.359375 63.67968749v-48.984375h13.359375v4.453125h-2.2265625c-1.2246094 0-2.2265625 1.0019531-2.2265625 2.2265625s1.0019531 2.2265625 2.2265625 2.2265625h2.2265625v6.6796875h-2.2265625c-1.2246094 0-2.2265625 1.0019531-2.2265625 2.2265625s1.0019531 2.2265625 2.2265625 2.2265625h2.2265625v6.6796875h-2.2265625c-1.2246094 0-2.2265625 1.0019531-2.2265625 2.2265625s1.0019531 2.2265625 2.2265625 2.2265625h2.2265625v8.90625h-2.2265625c-1.2246094 0-2.2265625 1.0019531-2.2265625 2.2265625s1.0019531 2.2265625 2.2265625 2.2265625h2.2265625v4.453125zm-24.1136719-22.4214844c.8015625 0 1.603125-.0890625 2.4046875-.2671875.4230469 2.6496094 1.0242188 7.3253907 1.3804688 13.7824219h-8.2828125c.3785156-6.4347656 1.0019531-11.1996094 1.4472656-13.9382812.9796875.2894531 2.0039062.4230468 3.0503906.4230468zm0-4.453125c-5.0988281 0-8.371875-5.5441406-5.7890625-10.0195312l5.7890625-10.0195313 5.7890625 10.0195313c2.5605469 4.453125-.6679687 10.0195312-5.7890625 10.0195312zm-4.7203125 22.4214844h8.6835938c.0445312 1.4695313.0890625 2.9613281.0890625 4.453125h-8.8839844c.0222656-1.4917969.0667969-2.9835937.1113281-4.453125zm-24.6035156 4.453125v-31.171875h4.453125v31.171875zm-8.90625 0v-31.171875h4.453125v31.171875zm1.3804687-35.625 5.2992188-10.5984375 5.2992187 10.5984375zm56.1316407 77.0390626h-39.3210938c.3339844-.935156.8683594-1.78125 1.5808594-2.49375 1.2691406-1.269141 2.9390625-1.959375 4.7203125-1.959375h26.71875c2.8945313 0 5.3882813 1.870312 6.3011719 4.453125zm-12.9808594-8.90625h-13.359375v-10.2421876h13.359375zm39.1875005-14.6953126h-91.7343755c-3.67382812 0-6.6796875-3.0058594-6.6796875-6.6796875v-6.6796875h105.09375v6.6796875c0 3.6738281-3.005859 6.6796875-6.679687 6.6796875z" fill="url(#c)"/><path d="m60.875 76.9255319h-12.75c-1.16875 0-2.125.9-2.125 2s.95625 2 2.125 2h12.75c1.16875 0 2.125-.9 2.125-2s-.95625-2-2.125-2z" fill="url(#d)"/></g></svg>