<?xml version="1.0" encoding="utf-8"?>
<!-- Generator: Adobe Illustrator 24.0.3, SVG Export Plug-In . SVG Version: 6.00 Build 0)  -->
<svg version="1.1" id="Calque_1" xmlns="https://www.w3.org/2000/svg" xmlns:xlink="https://www.w3.org/1999/xlink" x="0px" y="0px"
	 viewBox="0 0 512 512" style="enable-background:new 0 0 512 512;" xml:space="preserve">
<style type="text/css">
	.st0{fill:url(#SVGID_1_);stroke:#FFFFFF;stroke-width:15;stroke-miterlimit:10;}
</style>
<linearGradient id="SVGID_1_" gradientUnits="userSpaceOnUse" x1="247.675" y1="8.284" x2="261.7883" y2="513.5499">
	<stop  offset="0" style="stop-color:#4DB9ED"/>
	<stop  offset="1" style="stop-color:#5A69E0"/>
</linearGradient>
<path class="st0" d="M507.4,487.6c0,10.8-8.8,19.6-19.6,19.6H256.2c-10.8,0-19.6-8.8-19.6-19.6s8.8-19.6,19.6-19.6h231.6
	C498.6,468,507.4,476.8,507.4,487.6z M487.8,390.8H333.4c-10.8,0-19.6,8.8-19.6,19.6c0,10.8,8.8,19.6,19.6,19.6h154.4
	c10.8,0,19.6-8.8,19.6-19.6C507.4,399.6,498.6,390.8,487.8,390.8z M487.8,313.6h-77.2c-10.8,0-19.6,8.8-19.6,19.6
	s8.8,19.6,19.6,19.6h77.2c10.8,0,19.6-8.8,19.6-19.6S498.6,313.6,487.8,313.6z M501.7,154.1L154.3,501.5c-3.7,3.7-8.7,5.7-13.9,5.7
	H24.6c-10.8,0-19.6-8.8-19.6-19.6V371.8c0-5.2,2.1-10.2,5.7-13.9L358.1,10.6c7.7-7.7,20.1-7.7,27.8,0l115.8,115.8
	C509.3,134,509.3,146.4,501.7,154.1z M460,140.2l-85.1-85.1c-1.6-1.6-4.2-1.6-5.9,0L45.5,378.7c-0.8,0.8-1.2,1.8-1.2,2.9v82.2
	c0,2.3,1.9,4.1,4.1,4.1h82.2c1.1,0,2.2-0.4,2.9-1.2L460,140.2z"/>
</svg>
