<svg enable-background="new 0 0 512 512" viewBox="0 0 512 512" xmlns="https://www.w3.org/2000/svg" xmlns:xlink="https://www.w3.org/1999/xlink"><linearGradient id="a" gradientUnits="userSpaceOnUse" x1="247.675" x2="261.7883" y1="8.284" y2="513.5499"><stop offset="0" stop-color="#4db9ed"/><stop offset="1" stop-color="#5a69e0"/></linearGradient><path d="m507.4 487.6c0 10.8-8.8 19.6-19.6 19.6h-231.6c-10.8 0-19.6-8.8-19.6-19.6s8.8-19.6 19.6-19.6h231.6c10.8 0 19.6 8.8 19.6 19.6zm-19.6-96.8h-154.4c-10.8 0-19.6 8.8-19.6 19.6s8.8 19.6 19.6 19.6h154.4c10.8 0 19.6-8.8 19.6-19.6s-8.8-19.6-19.6-19.6zm0-77.2h-77.2c-10.8 0-19.6 8.8-19.6 19.6s8.8 19.6 19.6 19.6h77.2c10.8 0 19.6-8.8 19.6-19.6s-8.8-19.6-19.6-19.6zm13.9-159.5-347.4 347.4c-3.7 3.7-8.7 5.7-13.9 5.7h-115.8c-10.8 0-19.6-8.8-19.6-19.6v-115.8c0-5.2 2.1-10.2 5.7-13.9l347.4-347.3c7.7-7.7 20.1-7.7 27.8 0l115.8 115.8c7.6 7.6 7.6 20 0 27.7zm-41.7-13.9-85.1-85.1c-1.6-1.6-4.2-1.6-5.9 0l-323.5 323.6c-.8.8-1.2 1.8-1.2 2.9v82.2c0 2.3 1.9 4.1 4.1 4.1h82.2c1.1 0 2.2-.4 2.9-1.2z" fill="url(#a)" stroke="#fff" stroke-miterlimit="10" stroke-width="15"/></svg>