<?xml version="1.0" encoding="UTF-8"?>
<svg width="27px" height="25px" viewBox="0 0 27 25" version="1.1" xmlns="http://www.w3.org/2000/svg" xmlns:xlink="http://www.w3.org/1999/xlink">
    <title>edit</title>
    <g id="Page-1" stroke="none" stroke-width="1" fill="none" fill-rule="evenodd">
        <g id="announcement-editing-desktop" transform="translate(-1110.000000, -1091.000000)" fill="#FFFFFF" fill-rule="nonzero">
            <g id="edit" transform="translate(1110.911424, 1091.000000)">
                <path d="M21.1718917,12.6153926 C20.6656124,12.6153926 20.2552072,13.0114483 20.2552072,13.5000259 L20.2552072,22.3461519 C20.2552072,22.8347294 19.8448019,23.2307852 19.3385226,23.2307852 L2.8385763,23.2307852 C2.332297,23.2307852 1.92189173,22.8347294 1.92189173,22.3461519 L1.92189173,4.65384815 C1.92189173,4.16527056 2.332297,3.76921482 2.8385763,3.76921482 L13.8385763,3.76921482 C14.3448556,3.76921482 14.7552609,3.37315908 14.7552609,2.88458149 C14.7552609,2.3960039 14.3448556,2 13.8385763,2 L2.8385763,2 C1.31979212,2 0.0885763001,3.18816721 0.0885763001,4.65384815 L0.0885763001,22.3461519 C0.0885763001,23.8118328 1.31979212,25 2.8385763,25 L19.3385763,25 C20.8573605,25 22.0885763,23.8118328 22.0885763,22.3461519 L22.0885763,13.4999741 C22.0885763,13.0114483 21.678171,12.6153926 21.1718917,12.6153926 Z" id="Path"></path>
                <path d="M24.0695056,1.01945368 C23.4167676,0.366612544 22.5314112,1.42283228e-05 21.608235,1.42283228e-05 C20.6845262,-0.00263474216 19.7982642,0.36469493 19.1473374,1.02003962 L7.17268044,12.9936233 C7.07333686,13.0937121 6.99838972,13.2153741 6.95359189,13.3490744 L5.13541791,18.8036217 C4.97673451,19.2799891 5.23428208,19.794762 5.71065187,19.9533913 C5.8030707,19.9841797 5.89985745,20 5.99723014,20 C6.0948159,20 6.19181571,19.9841797 6.28450088,19.9536577 L11.7390761,18.135493 C11.8730434,18.0907486 11.9947593,18.015429 12.094529,17.9155 L24.0691327,5.94095751 C25.4282488,4.58200817 25.4284086,2.37856281 24.0695056,1.01945368 Z M22.7836853,4.656369 L10.9654213,16.4745726 L7.4344894,17.6536391 L8.6099397,14.1272529 L20.4327315,2.30910256 C21.0826995,1.66041626 22.1355284,1.6614816 22.784218,2.31144631 C23.0940741,2.62194003 23.2686844,3.04227043 23.2700214,3.4809247 C23.2711347,3.92192272 23.096045,4.34507627 22.7836853,4.656369 Z" id="Shape"></path>
            </g>
        </g>
    </g>
</svg>