<svg enable-background="new 0 0 36 26" viewBox="0 0 36 26" xmlns="http://www.w3.org/2000/svg" xmlns:xlink="http://www.w3.org/1999/xlink"><linearGradient id="a" gradientTransform="matrix(1 0 0 -1 0 27.2756)" gradientUnits="userSpaceOnUse" x1="17.2809" x2="18.0306" y1="27.4463" y2="1.2068"><stop offset="0" stop-color="#959595"/><stop offset="0" stop-color="#4db9ed"/><stop offset="1" stop-color="#5a69e0"/></linearGradient><path d="m31.7.2h-28.1c-1.8 0-3.2 1.5-3.2 3.1v19.1c0 1.8 1.5 3.2 3.2 3.2h28.2c1.8 0 3.2-1.5 3.2-3.1v-19.2c.1-1.6-1.4-3.1-3.3-3.1zm0 2.2c.2 0 .3 0 .4.1l-14.4 12.2-14.5-12.3h.4zm0 21.2h-28.1c-.6 0-1.1-.5-1.1-1.1v-17.9l14.5 12.4c.2.2.5.3.7.3s.5-.1.7-.3l14.5-12.4v17.9c0 .6-.5 1.1-1.2 1.1z" fill="url(#a)" stroke="#fff" stroke-miterlimit="10" stroke-width=".4"/></svg>