<?xml version="1.0" encoding="utf-8"?>
<!-- Generator: Adobe Illustrator 24.0.3, SVG Export Plug-In . SVG Version: 6.00 Build 0)  -->
<svg version="1.1" id="Calque_1" xmlns="http://www.w3.org/2000/svg" xmlns:xlink="http://www.w3.org/1999/xlink" x="0px" y="0px"
	 viewBox="0 0 36 26" style="enable-background:new 0 0 36 26;" xml:space="preserve">
<style type="text/css">
	.st0{fill:url(#Shape_1_);}
</style>
<title>envelope</title>
<g id="Page-1">
	<g id="workers-personnal-desktop" transform="translate(-748.000000, -855.000000)">
		<g id="envelope" transform="translate(748.000000, 855.000000)">
			<linearGradient id="Shape_1_" gradientUnits="userSpaceOnUse" x1="17.298" y1="-0.3713" x2="18.0617" y2="26.3581">
				<stop  offset="0" style="stop-color:#959595"/>
				<stop  offset="0" style="stop-color:#4DB9ED"/>
				<stop  offset="1" style="stop-color:#5A69E0"/>
			</linearGradient>
			<path id="Shape" class="st0" d="M32,0H3.3C1.5,0,0,1.5,0,3.2v19.5C0,24.5,1.5,26,3.3,26H32c1.8,0,3.3-1.5,3.3-3.2V3.2
				C35.4,1.5,33.9,0,32,0z M32,2.2c0.2,0,0.3,0,0.4,0.1L17.7,14.8L2.9,2.2C3,2.2,3.2,2.2,3.3,2.2H32z M32,23.8H3.3
				c-0.6,0-1.1-0.5-1.1-1.1V4.5L17,17.1c0.2,0.2,0.5,0.3,0.7,0.3s0.5-0.1,0.7-0.3L33.2,4.5v18.2C33.2,23.3,32.7,23.8,32,23.8z"/>
		</g>
	</g>
</g>
</svg>
