<?xml version="1.0" encoding="UTF-8"?>
<svg width="36px" height="26px" viewBox="0 0 36 26" version="1.1" xmlns="http://www.w3.org/2000/svg" xmlns:xlink="http://www.w3.org/1999/xlink">
    <title>envelope</title>
    <defs>
        <linearGradient x1="49.2337305%" y1="19.6882096%" x2="50.7962305%" y2="81.4977309%" id="linearGradient-1">
            <stop stop-color="#959595" offset="0%"></stop>
            <stop stop-color="#5BA6D7" offset="0%"></stop>
            <stop stop-color="#5A69E0" offset="100%"></stop>
        </linearGradient>
    </defs>
    <g id="Page-1" stroke="none" stroke-width="1" fill="none" fill-rule="evenodd">
        <g id="workers-personnal-desktop" transform="translate(-748.000000, -855.000000)" fill="url(#linearGradient-1)" fill-rule="nonzero">
            <g id="envelope" transform="translate(748.000000, 855.000000)">
                <path d="M32.045,0 L3.315,0 C1.48484375,0 0,1.45572917 0,3.25 L0,22.75 C0,24.5442708 1.48484375,26 3.315,26 L32.045,26 C33.8751563,26 35.36,24.5442708 35.36,22.75 L35.36,3.25 C35.36,1.45572917 33.8751563,0 32.045,0 Z M32.045,2.16666667 C32.1969375,2.16666667 32.3350625,2.20052083 32.4662812,2.24791667 L17.68,14.8145833 L2.89371875,2.24791667 C3.0249375,2.19375 3.16996875,2.16666667 3.315,2.16666667 L32.045,2.16666667 Z M32.045,23.8333333 L3.315,23.8333333 C2.70725,23.8333333 2.21,23.3458333 2.21,22.75 L2.21,4.53645833 L16.9548438,17.0625 C17.1620312,17.2385417 17.4244687,17.3265625 17.68,17.3265625 C17.9355312,17.3265625 18.1979688,17.2385417 18.4051562,17.0625 L33.15,4.53645833 L33.15,22.75 C33.15,23.3458333 32.65275,23.8333333 32.045,23.8333333 Z" id="Shape"></path>
            </g>
        </g>
    </g>
</svg>