<svg enable-background="new 0 0 28 26" viewBox="0 0 28 26" xmlns="http://www.w3.org/2000/svg" xmlns:xlink="http://www.w3.org/1999/xlink"><linearGradient id="a"><stop offset="0" stop-color="#4dbaed"/><stop offset="1" stop-color="#5c6ddd"/></linearGradient><linearGradient id="b" gradientTransform="matrix(26 0 0 -26 3188.5 7809.1655)" gradientUnits="userSpaceOnUse" x1="-122.1154" x2="-122.1154" xlink:href="#a" y1="300.3525" y2="299.3525"/><linearGradient id="c" gradientTransform="matrix(11 0 0 -14 1283 4079.8584)" gradientUnits="userSpaceOnUse" x1="-115.4545" x2="-115.4545" xlink:href="#a" y1="290.9899" y2="289.9899"/><g stroke="#fff" stroke-miterlimit="10" stroke-width=".25" transform="translate(.5)"><path d="m13.5 0c-7.2 0-13 5.8-13 13s5.8 13 13 13 13-5.8 13-13-5.8-13-13-13zm0 24.4c-6.3 0-11.4-5.1-11.4-11.4s5.1-11.4 11.4-11.4 11.4 5.1 11.4 11.4-5.1 11.4-11.4 11.4z" fill="url(#b)"/><path d="m17.2 17.6c-.6.4-1.3.7-2.1.7-1.6 0-2.9-1.1-3.6-2.6h2.8c.5 0 .8-.4.8-.9s-.4-.9-.8-.9h-3.3c0-.3-.1-.6-.1-.9s0-.6.1-.9h4.2c.5 0 .8-.4.8-.9s-.4-.9-.8-.9h-3.6c.7-1.6 2.1-2.6 3.6-2.6.7 0 1.4.2 2.1.7.4.3.9.2 1.2-.2s.2-.9-.2-1.2c-.9-.6-1.9-1-3-1-2.5 0-4.6 1.8-5.5 4.4h-1.5c-.5 0-.8.4-.8.9s.4.9.8.9h.9c0 .3-.1.6-.1.9s0 .6.1.9h-.9c-.5 0-.8.4-.8.9s.4.9.8.9h1.3c.9 2.6 3 4.4 5.5 4.4 1.1 0 2.1-.3 3-1 .4-.3.5-.8.2-1.2-.2-.6-.7-.7-1.1-.4z" fill="url(#c)"/></g></svg>