<?xml version="1.0" encoding="UTF-8"?>
<svg width="32px" height="30px" viewBox="0 0 32 30" version="1.1" xmlns="http://www.w3.org/2000/svg" xmlns:xlink="http://www.w3.org/1999/xlink">
    <title>euro</title>
    <defs>
        <linearGradient x1="50%" y1="0%" x2="50%" y2="100%" id="linearGradient-1">
            <stop stop-color="#4DBAED" offset="0%"></stop>
            <stop stop-color="#5C6DDD" offset="100%"></stop>
        </linearGradient>
        <linearGradient x1="50%" y1="0%" x2="50%" y2="100%" id="linearGradient-2">
            <stop stop-color="#4DBAED" offset="0%"></stop>
            <stop stop-color="#5C6DDD" offset="100%"></stop>
        </linearGradient>
    </defs>
    <g id="Page-1" stroke="none" stroke-width="1" fill="none" fill-rule="evenodd">
        <g id="workers-personnal-desktop" transform="translate(-741.000000, -1015.000000)" fill-rule="nonzero">
            <g id="euro" transform="translate(741.000000, 1015.000000)">
                <path d="M15.5769231,0 C7.30629808,0 0.576923077,6.729375 0.576923077,15 C0.576923077,23.270625 7.30629808,30 15.5769231,30 C23.8475481,30 30.5769231,23.270625 30.5769231,15 C30.5769231,6.729375 23.8475481,0 15.5769231,0 Z M15.5769231,28.125 C8.33942308,28.125 2.45192308,22.2375 2.45192308,15 C2.45192308,7.7625 8.33942308,1.875 15.5769231,1.875 C22.8144231,1.875 28.7019231,7.7625 28.7019231,15 C28.7019231,22.2375 22.8144231,28.125 15.5769231,28.125 Z" id="Shape" fill="url(#linearGradient-1)"></path>
                <path d="M19.8187795,20.2843269 C19.0924144,20.7972115 18.2918508,21.0576923 17.4405198,21.0576923 C15.6421806,21.0576923 14.0840105,19.83 13.2385372,18.0288462 L16.4642227,18.0288462 C17.0031387,18.0288462 17.4405198,17.5765385 17.4405198,17.0192308 C17.4405198,16.4619231 17.0031387,16.0096154 16.4642227,16.0096154 L12.6410434,16.0096154 C12.5961337,15.6804808 12.5590344,15.3452885 12.5590344,15 C12.5590344,14.6547115 12.5961337,14.3195192 12.6410434,13.9903846 L17.4405198,13.9903846 C17.9794358,13.9903846 18.4168169,13.5380769 18.4168169,12.9807692 C18.4168169,12.4234615 17.9794358,11.9711538 17.4405198,11.9711538 L13.2385372,11.9711538 C14.0840105,10.17 15.6421806,8.94230769 17.4405198,8.94230769 C18.2918508,8.94230769 19.0924144,9.20278846 19.8187795,9.71567308 C20.2639709,10.0286538 20.8731803,9.91355769 21.1758324,9.45115385 C21.4804371,8.99076923 21.365234,8.36278846 20.9200426,8.04778846 C19.8773573,7.31278846 18.6745593,6.92307692 17.4405198,6.92307692 C14.5799694,6.92307692 12.1314163,9.01701923 11.1141148,11.9711538 L9.63014323,11.9711538 C9.09122724,11.9711538 8.65384615,12.4234615 8.65384615,12.9807692 C8.65384615,13.5380769 9.09122724,13.9903846 9.63014323,13.9903846 L10.6923544,13.9903846 C10.6572077,14.3255769 10.6064403,14.6547115 10.6064403,15 C10.6064403,15.3452885 10.6572077,15.6744231 10.6923544,16.0096154 L9.63014323,16.0096154 C9.09122724,16.0096154 8.65384615,16.4619231 8.65384615,17.0192308 C8.65384615,17.5765385 9.09122724,18.0288462 9.63014323,18.0288462 L11.1141148,18.0288462 C12.1314163,20.9829808 14.5799694,23.0769231 17.4405198,23.0769231 C18.6745593,23.0769231 19.8773573,22.6872115 20.9200426,21.9522115 C21.365234,21.6372115 21.4804371,21.0092308 21.1758324,20.5488462 C20.8731803,20.0884615 20.2639709,19.9713462 19.8187795,20.2843269 Z" id="Path" fill="url(#linearGradient-2)"></path>
            </g>
        </g>
    </g>
</svg>