<?xml version="1.0" encoding="utf-8"?>
<!-- Generator: Adobe Illustrator 24.0.3, SVG Export Plug-In . SVG Version: 6.00 Build 0)  -->
<svg version="1.1" id="Calque_1" xmlns="http://www.w3.org/2000/svg" xmlns:xlink="http://www.w3.org/1999/xlink" x="0px" y="0px"
	 viewBox="0 0 28 26" style="enable-background:new 0 0 28 26;" xml:space="preserve">
<style type="text/css">
	.st0{fill:url(#Shape_1_);stroke:#FFFFFF;stroke-width:0.25;stroke-miterlimit:10;}
	.st1{fill:url(#Path_1_);stroke:#FFFFFF;stroke-width:0.25;stroke-miterlimit:10;}
</style>
<title>euro</title>
<g id="Page-1">
	<g id="workers-desktop" transform="translate(-1009.000000, -647.000000)">
		<g id="euro" transform="translate(1009.500000, 647.000000)">
			
				<linearGradient id="Shape_1_" gradientUnits="userSpaceOnUse" x1="-122.1154" y1="300.3525" x2="-122.1154" y2="299.3525" gradientTransform="matrix(26 0 0 -26 3188.5 7809.1655)">
				<stop  offset="0" style="stop-color:#4DBAED"/>
				<stop  offset="1" style="stop-color:#5C6DDD"/>
			</linearGradient>
			<path id="Shape" class="st0" d="M13.5,0c-7.2,0-13,5.8-13,13s5.8,13,13,13s13-5.8,13-13S20.7,0,13.5,0z M13.5,24.4
				C7.2,24.4,2.1,19.3,2.1,13S7.2,1.6,13.5,1.6S24.9,6.7,24.9,13S19.8,24.4,13.5,24.4z"/>
			
				<linearGradient id="Path_1_" gradientUnits="userSpaceOnUse" x1="-115.4545" y1="290.9899" x2="-115.4545" y2="289.9899" gradientTransform="matrix(11 0 0 -14 1283 4079.8584)">
				<stop  offset="0" style="stop-color:#4DBAED"/>
				<stop  offset="1" style="stop-color:#5C6DDD"/>
			</linearGradient>
			<path id="Path" class="st1" d="M17.2,17.6c-0.6,0.4-1.3,0.7-2.1,0.7c-1.6,0-2.9-1.1-3.6-2.6h2.8c0.5,0,0.8-0.4,0.8-0.9
				s-0.4-0.9-0.8-0.9H11c0-0.3-0.1-0.6-0.1-0.9s0-0.6,0.1-0.9h4.2c0.5,0,0.8-0.4,0.8-0.9s-0.4-0.9-0.8-0.9h-3.6
				c0.7-1.6,2.1-2.6,3.6-2.6c0.7,0,1.4,0.2,2.1,0.7c0.4,0.3,0.9,0.2,1.2-0.2c0.3-0.4,0.2-0.9-0.2-1.2c-0.9-0.6-1.9-1-3-1
				c-2.5,0-4.6,1.8-5.5,4.4H8.3c-0.5,0-0.8,0.4-0.8,0.9s0.4,0.9,0.8,0.9h0.9c0,0.3-0.1,0.6-0.1,0.9s0,0.6,0.1,0.9H8.3
				c-0.5,0-0.8,0.4-0.8,0.9s0.4,0.9,0.8,0.9h1.3c0.9,2.6,3,4.4,5.5,4.4c1.1,0,2.1-0.3,3-1c0.4-0.3,0.5-0.8,0.2-1.2
				C18.1,17.4,17.6,17.3,17.2,17.6z"/>
		</g>
	</g>
</g>
</svg>
