<?xml version="1.0" encoding="utf-8"?>
<!-- Generator: Adobe Illustrator 24.0.3, SVG Export Plug-In . SVG Version: 6.00 Build 0)  -->
<svg version="1.1" xmlns="http://www.w3.org/2000/svg" xmlns:xlink="http://www.w3.org/1999/xlink" x="0px" y="0px"
	 viewBox="0 0 100 100" style="enable-background:new 0 0 100 100;" xml:space="preserve">
<style type="text/css">
	.st0{fill:none;stroke:#183D76;stroke-width:5;stroke-miterlimit:10;}
	.st1{fill:#183D76;}
</style>
<g id="Calque_2">
</g>
<g id="Calque_1">
	<path class="st0" d="M97.1,58.5c0,0-44.1-65.5-94.2,0"/>
	<path class="st1" d="M49.9,29.9L49.9,29.9c-1.4,0-2.5-1.1-2.5-2.5V11.9c0-1.4,1.1-2.5,2.5-2.5l0,0c1.4,0,2.5,1.1,2.5,2.5v15.5
		C52.4,28.8,51.3,29.9,49.9,29.9z"/>
	<path class="st1" d="M82.1,42.9L82.1,42.9c-1-1-1-2.5,0-3.5l12.1-12.1c1-1,2.5-1,3.5,0l0,0c1,1,1,2.5,0,3.5L85.6,42.9
		C84.6,43.9,83,43.9,82.1,42.9z"/>
	<path class="st1" d="M18.7,42.9L18.7,42.9c-1,1-2.5,1-3.5,0L3.1,30.8c-1-1-1-2.5,0-3.5l0,0c1-1,2.5-1,3.5,0l12.1,12.1
		C19.7,40.4,19.7,41.9,18.7,42.9z"/>
</g>
</svg>
