<svg enable-background="new 0 0 100 100" viewBox="0 0 100 100" xmlns="http://www.w3.org/2000/svg"><path d="m97.1 58.5s-44.1-65.5-94.2 0" fill="none" stroke="#183d76" stroke-miterlimit="10" stroke-width="5"/><g fill="#183d76"><path d="m49.9 29.9c-1.4 0-2.5-1.1-2.5-2.5v-15.5c0-1.4 1.1-2.5 2.5-2.5s2.5 1.1 2.5 2.5v15.5c0 1.4-1.1 2.5-2.5 2.5z"/><path d="m82.1 42.9c-1-1-1-2.5 0-3.5l12.1-12.1c1-1 2.5-1 3.5 0s1 2.5 0 3.5l-12.1 12.1c-1 1-2.6 1-3.5 0z"/><path d="m18.7 42.9c-1 1-2.5 1-3.5 0l-12.1-12.1c-1-1-1-2.5 0-3.5s2.5-1 3.5 0l12.1 12.1c1 1 1 2.5 0 3.5z"/></g></svg>