<?xml version="1.0" encoding="utf-8"?>
<!-- Generator: Adobe Illustrator 24.0.3, SVG Export Plug-In . SVG Version: 6.00 Build 0)  -->
<svg version="1.1" id="Calque_1" xmlns="http://www.w3.org/2000/svg" xmlns:xlink="http://www.w3.org/1999/xlink" x="0px" y="0px"
	 viewBox="0 0 16 28" style="enable-background:new 0 0 16 28;" xml:space="preserve">
<style type="text/css">
	.st0{fill:#FFFFFF;stroke:url(#Shape_1_);stroke-width:0.5;stroke-miterlimit:10;}
</style>
<title>facebook</title>
<g id="Page-1">
	<g id="workers-personnal-desktop" transform="translate(-571.000000, -884.000000)">
		<g id="facebook" transform="translate(571.000000, 884.000000)">
			<linearGradient id="Shape_1_" gradientUnits="userSpaceOnUse" x1="7.9364" y1="0.1347" x2="7.9364" y2="27.8653">
				<stop  offset="0" style="stop-color:#52BBEB"/>
				<stop  offset="1" style="stop-color:#5B6EDC"/>
			</linearGradient>
			<path id="Shape" class="st0" d="M9.8,27.6H5.4C4.6,27.6,4,27,4,26.3v-9.8H1.5c-0.8,0-1.4-0.6-1.4-1.4v-4.2c0-0.7,0.6-1.4,1.4-1.4
				H4v-2C4,5.3,4.7,3.6,6,2.3S9,0.4,11,0.4h3.3c0.8,0,1.4,0.6,1.4,1.4v3.9c0,0.7-0.6,1.4-1.4,1.4h-2.2c-0.7,0-0.9,0.1-0.9,0.2
				c-0.1,0.1-0.1,0.3-0.1,0.8v1.7h3.1c0.2,0,0.5,0.1,0.7,0.2c0.4,0.2,0.7,0.7,0.7,1.2v4.2c0,0.7-0.6,1.4-1.4,1.4h-3.1v9.8
				C11.1,27,10.5,27.6,9.8,27.6L9.8,27.6z M5.7,26.1h3.8V15.8c0-0.5,0.4-0.9,0.9-0.9H14v-3.7h-3.6c-0.5,0-0.9-0.4-0.9-0.9V8
				c0-0.6,0.1-1.4,0.6-1.8c0.6-0.7,1.5-0.7,2.1-0.7h1.9V1.9H11c-3.3,0-5.3,2.1-5.3,5.5v2.8c0,0.5-0.4,0.9-0.9,0.9h-3v3.7h3
				c0.5,0,0.9,0.4,0.9,0.9C5.7,15.8,5.7,26.1,5.7,26.1z"/>
		</g>
	</g>
</g>
</svg>
