<svg height="28" viewBox="0 0 16 28" width="16" xmlns="http://www.w3.org/2000/svg" xmlns:xlink="http://www.w3.org/1999/xlink"><linearGradient id="a" x1="50%" x2="50%" y1="0%" y2="100%"><stop offset="0" stop-color="#4ebbed"/><stop offset="1" stop-color="#5c6ddd"/></linearGradient><path d="m9.88294757 28h-4.51434259c-.75403928 0-1.36742208-.6092529-1.36742208-1.3582154v-10.1137695h-2.63376077c-.75403933 0-1.36742213-.6094665-1.36742213-1.3582153v-4.3337708c0-.7489623.6133828-1.35821527 1.36742213-1.35821527h2.63376077v-2.17019654c0-2.15182494.68026993-3.98257448 1.96704038-5.29400638 1.29257733-1.31741329 3.09895959-2.01361081 5.22386212-2.01361081l3.4428583.00555417c.7527489.00128177 1.3650563.6105347 1.3650563 1.35821536v4.02380371c0 .74896243-.6131677 1.35821531-1.3669919 1.35821531l-2.3180364.00085454c-.7069388 0-.8869533.14077755-.925451.18392943-.063446.07156368-.1389359.27386472-.1389359.832489v1.71453861h3.2082157c.2415248 0 .4755222.05917357.6766137.17068477.4337984.24075319.7034976.6959839.7034976 1.1879578l-.0017206 4.3337707c0 .7485352-.6133828 1.3577881-1.3674221 1.3577881h-3.2191843v10.1139831c0 .7489625-.613598 1.3582154-1.36763723 1.3582154zm-4.22915828-1.6414795h3.94397396v-10.5653687c0-.5000915.40971055-.9068298.91297685-.9068298h3.6738447l.0015055-3.7670288h-3.6755652c-.5032665 0-.91276185-.4067383-.91276185-.9068298v-2.44940188c0-.64129641.06559673-1.37060547.55294785-1.91876218.5888647-.66265871 1.5168965-.73913579 2.1638304-.73913579l2.0328522-.00085444v-3.45770266l-3.1565987-.00512696c-3.41489907 0-5.53700571 2.17126465-5.53700571 5.6661377v2.90484621c0 .4998779-.40949539.9068298-.91276178.9068298h-3.08842111v3.7670288h3.08842111c.50326639 0 .91276178.4067383.91276178.9068298z" fill="url(#a)"/></svg>