<svg enable-background="new 0 0 16 28" viewBox="0 0 16 28" xmlns="http://www.w3.org/2000/svg" xmlns:xlink="http://www.w3.org/1999/xlink"><linearGradient id="a" gradientUnits="userSpaceOnUse" x1="7.9364" x2="7.9364" y1=".1347" y2="27.8653"><stop offset="0" stop-color="#52bbeb"/><stop offset="1" stop-color="#5b6edc"/></linearGradient><path d="m9.8 27.6h-4.4c-.8 0-1.4-.6-1.4-1.3v-9.8h-2.5c-.8 0-1.4-.6-1.4-1.4v-4.2c0-.7.6-1.4 1.4-1.4h2.5v-2c0-2.2.7-3.9 2-5.2s3-1.9 5-1.9h3.3c.8 0 1.4.6 1.4 1.4v3.9c0 .7-.6 1.4-1.4 1.4h-2.2c-.7 0-.9.1-.9.2-.1.1-.1.3-.1.8v1.7h3.1c.2 0 .5.1.7.2.4.2.7.7.7 1.2v4.2c0 .7-.6 1.4-1.4 1.4h-3.1v9.8c0 .4-.6 1-1.3 1zm-4.1-1.5h3.8v-10.3c0-.5.4-.9.9-.9h3.6v-3.7h-3.6c-.5 0-.9-.4-.9-.9v-2.3c0-.6.1-1.4.6-1.8.6-.7 1.5-.7 2.1-.7h1.9v-3.6h-3.1c-3.3 0-5.3 2.1-5.3 5.5v2.8c0 .5-.4.9-.9.9h-3v3.7h3c.5 0 .9.4.9.9z" fill="#fff" stroke="url(#a)" stroke-miterlimit="10" stroke-width=".5"/></svg>