<?xml version="1.0" encoding="utf-8"?>
<!-- Generator: Adobe Illustrator 24.0.3, SVG Export Plug-In . SVG Version: 6.00 Build 0)  -->
<svg version="1.1" id="Calque_1" xmlns="http://www.w3.org/2000/svg" xmlns:xlink="http://www.w3.org/1999/xlink" x="0px" y="0px"
	 viewBox="0 0 17.5 25.4" style="enable-background:new 0 0 17.5 25.4;" xml:space="preserve">
<style type="text/css">
	.st0{fill:#FE9F24;stroke:#FE9F24;}
	.st1{fill:#FFFFFF;}
	.st2{fill:#FE9F24;stroke:#FE9F24;stroke-width:0.2;}
</style>
<title>logo</title>
<path id="Path_4_" class="st0" d="M8.9,0.9c-4.4,0-8.1,3.6-8.1,8c0,3,1.5,5.5,3.8,6.9l0,0l-3.7,7.7c-0.1,0.1,0,0.3,0.1,0.3l1.2,0.6
	c0.1,0.1,0.3,0,0.3-0.1l3.7-7.7l0,0c0.8,0.3,1.6,0.4,2.5,0.4c4.4,0,8-3,8-8.1C16.8,4.5,13.3,0.9,8.9,0.9z"/>
<circle id="Oval" class="st1" cx="8.8" cy="8.9" r="6.3"/>
<path id="Path_5_" class="st2" d="M7.3,3.9c0,0,0.1,0.1,0.1,0.2l-0.8,6c0,0.1,0,0.3,0.1,0.3l1.6,3.2h0.1l1.5-3.2
	C10,10.3,10,10.1,10,10L9.2,4c0-0.1,0-0.1,0.1-0.2l0.8-1.2H10C8.9,2.5,7.9,2.5,6.7,2.8L7.3,3.9z"/>
</svg>
