<svg height="116" viewBox="0 0 114 116" width="114" xmlns="http://www.w3.org/2000/svg" xmlns:xlink="http://www.w3.org/1999/xlink"><linearGradient id="a"><stop offset=".001261151" stop-color="#53bceb"/><stop offset="1" stop-color="#5e71da"/></linearGradient><linearGradient id="b" x1="48.034921%" x2="52.2239%" xlink:href="#a" y1="12.9443%" y2="91.516347%"/><linearGradient id="c" x1="35.795269%" x2="58.396238%" xlink:href="#a" y1="-642.010022%" y2="457.199564%"/><linearGradient id="d" x1="32.934017%" x2="55.534987%" xlink:href="#a" y1="-767.930472%" y2="314.767382%"/><linearGradient id="e" x1="30.098032%" x2="52.699002%" xlink:href="#a" y1="-903.709871%" y2="178.987983%"/><linearGradient id="f" x1="35.887554%" x2="58.153863%" xlink:href="#a" y1="-644.890414%" y2="454.319172%"/><linearGradient id="g" x1="33.065022%" x2="55.331116%" xlink:href="#a" y1="-770.767597%" y2="311.930258%"/><linearGradient id="h" x1="30.274249%" x2="52.540558%" xlink:href="#a" y1="-906.54721%" y2="176.150858%"/><linearGradient id="i" x1="35.670806%" x2="58.276689%" xlink:href="#a" y1="-647.773638%" y2="451.435948%"/><linearGradient id="j" x1="32.805011%" x2="55.410893%" xlink:href="#a" y1="-773.607511%" y2="309.090343%"/><linearGradient id="k" x1="29.971895%" x2="52.577778%" xlink:href="#a" y1="-909.38691%" y2="173.310944%"/><linearGradient id="l" x1="35.713363%" x2="58.318051%" xlink:href="#a" y1="-650.606318%" y2="448.603268%"/><linearGradient id="m" x1="46.405172%" x2="50.781439%" xlink:href="#a" y1="-329.197361%" y2="129.890173%"/><linearGradient id="n" x1="48.68549%" x2="50.774804%" xlink:href="#a" y1="-1.14836%" y2="100.444275%"/><linearGradient id="o" x1="49.246843%" x2="55.48623%" xlink:href="#a" y1="47.501324%" y2="68.465474%"/><linearGradient id="p" x1="48.697715%" x2="54.937042%" xlink:href="#a" y1="45.653075%" y2="66.617224%"/><linearGradient id="q" x1="44.678508%" x2="51.43834%" xlink:href="#a" y1="-223.566438%" y2="122.007055%"/><linearGradient id="r" x1="42.623747%" x2="51.496852%" xlink:href="#a" y1="-395.310937%" y2="167.788616%"/><linearGradient id="s" x1="47.264758%" x2="52.492958%" xlink:href="#a" y1="-86.590912%" y2="187.553139%"/><g fill="none" transform="translate(0 1.146809)"><path d="m8.69559952 64.8531915h52.60880098c1.0173597 0 1.6955995-.6976744 1.6955995-1.7441861v-17.5116279c0-1.0465116-.8591038-1.744186-1.6955995-1.744186h-52.60880098c-1.01735971 0-1.69559952.6976744-1.69559952 1.744186v17.5116279c0 1.0465117.67823981 1.7441861 1.69559952 1.7441861zm1.71820748-17.5116279h49.194994v14.0000289h-49.194994z" fill="url(#b)"/><path d="m17.3683339 66.8531915h-7.57133892c-1.07819699 0-1.79699498.7189542-1.79699498 1.7973856v7.4052288c0 1.0784313.71879799 1.7973856 1.79699498 1.7973856h7.37965942c1.078197 0 1.796995-.7189543 1.796995-1.7973856v-7.5729848c.1916794-.9106754-.6948381-1.6296296-1.6053155-1.6296296zm-5.7743439 7.4052287v-3.9782135h3.7856694v3.9782135z" fill="url(#c)"/><path d="m17.3683339 80.8531915h-7.57133892c-1.07819699 0-1.79699498.7081545-1.79699498 1.7703863v7.4592274c0 1.0622318.71879799 1.7703863 1.79699498 1.7703863h7.37965942c1.078197 0 1.796995-.7081545 1.796995-1.7703863v-7.4592274c.1916794-1.0386267-.6948381-1.7703863-1.6053155-1.7703863zm-5.7743439 7.4828326v-3.9184549h3.7856694v3.9184549z" fill="url(#d)"/><path d="m17.3683339 96.8531915h-7.57133892c-1.07819699 0-1.79699498.7081545-1.79699498 1.7703863v7.4592272c0 1.062232.71879799 1.770386 1.79699498 1.770386h7.37965942c1.078197 0 1.796995-.708154 1.796995-1.770386v-7.4592272c.1916794-.8733906-.6948381-1.7703863-1.6053155-1.7703863zm-5.7743439 7.4592275v-3.918455h3.7856694v3.918455z" fill="url(#e)"/><path d="m31.2296137 66.8531915h-7.4592274c-1.0622318 0-1.7703863.7189542-1.7703863 1.7973856v7.4052288c0 1.0784313.7081545 1.7973856 1.7703863 1.7973856h7.4592274c1.0622318 0 1.7703863-.7189543 1.7703863-1.7973856v-7.5729848c0-.9106754-.8733906-1.6296296-1.7703863-1.6296296zm-1.7703862 7.4052287h-3.918455v-3.9782135h3.918455z" fill="url(#f)"/><path d="m31.2296137 80.8531915h-7.4592274c-1.0622318 0-1.7703863.7081545-1.7703863 1.7703863v7.4592274c0 1.0622318.7081545 1.7703863 1.7703863 1.7703863h7.4592274c1.0622318 0 1.7703863-.7081545 1.7703863-1.7703863v-7.4592274c0-1.0386267-.8733906-1.7703863-1.7703863-1.7703863zm-1.7703862 7.4828326h-3.918455v-3.9184549h3.918455z" fill="url(#g)"/><path d="m31.2296137 96.8531915h-7.4592274c-1.0622318 0-1.7703863.7081545-1.7703863 1.7703863v7.4592272c0 1.062232.7081545 1.770386 1.7703863 1.770386h7.4592274c1.0622318 0 1.7703863-.708154 1.7703863-1.770386v-7.4592272c0-.8733906-.8733906-1.7703863-1.7703863-1.7703863zm-1.7703862 7.4592275h-3.918455v-3.918455h3.918455z" fill="url(#h)"/><path d="m46.2026144 66.8531915h-7.4052288c-1.0784314 0-1.7973856.7189542-1.7973856 1.7973856v7.4052288c0 1.0784313.7189542 1.7973856 1.7973856 1.7973856h7.4052288c1.0784314 0 1.7973856-.7189543 1.7973856-1.7973856v-7.5729848c0-.9106754-.8867102-1.6296296-1.7973856-1.6296296zm-1.7973856 7.4052287h-3.7864924v-3.9782135h3.7864924z" fill="url(#i)"/><path d="m46.2026144 80.8531915h-7.4052288c-1.0784314 0-1.7973856.7081545-1.7973856 1.7703863v7.4592274c0 1.0622318.7189542 1.7703863 1.7973856 1.7703863h7.4052288c1.0784314 0 1.7973856-.7081545 1.7973856-1.7703863v-7.4592274c0-1.0386267-.8867102-1.7703863-1.7973856-1.7703863zm-1.7973856 7.4828326h-3.7864924v-3.9184549h3.7864924z" fill="url(#j)"/><path d="m46.2026144 96.8531915h-7.4052288c-1.0784314 0-1.7973856.7081545-1.7973856 1.7703863v7.4592272c0 1.062232.7189542 1.770386 1.7973856 1.770386h7.4052288c1.0784314 0 1.7973856-.708154 1.7973856-1.770386v-7.4592272c0-.8733906-.8867102-1.7703863-1.7973856-1.7703863zm-1.7973856 7.4592275h-3.7864924v-3.918455h3.7864924z" fill="url(#k)"/><path d="m61.2021281 66.8531915h-7.4048375c-1.0783743 0-1.7972906.7189542-1.7972906 1.7973856v7.4052288c0 1.0784313.7189163 1.7973856 1.7972906 1.7973856h7.4048375c1.0783744 0 1.7972906-.7189543 1.7972906-1.7973856v-7.5729848c.0239639-.9106754-.6949524-1.6296296-1.7972906-1.6296296zm-1.7972907 7.4052287h-3.7862922v-3.9782135h3.7862922z" fill="url(#l)"/><path d="m61.2021281 81.8531915h-7.4048375c-1.0783743 0-1.7972906.6824386-1.7972906 1.7060964v21.5878071c0 1.023658.7189163 1.706096 1.7972906 1.706096h7.4048375c1.0783744 0 1.7972906-.682438 1.7972906-1.706096v-21.5878071c.0239639-1.0009099-.6949524-1.7060964-1.7972906-1.7060964zm-1.7972907 21.5878075h-3.7862922v-18.1528667h3.7862922z" fill="url(#m)"/><path d="m113.495271 29.9075284-30.7426045-29.52666535c-.3441336-.34413363-.8718052-.52767156-1.2159388-.52767156h-59.4204065c-1.0324009 0-1.7206682.68826726-1.7206682 1.72066814v34.20688267h-18.67498486c-1.03240088 0-1.72066814.6882673-1.72066814 1.7206681v74.6311126c0 1.032401.68826726 1.720668 1.72066814 1.720668h110.55866386c1.032401 0 1.720668-.688267 1.720668-1.720668 0-7.249748 0 15.715436 0-81.0090558 0-.3441336-.160596-1.0324009-.504729-1.2159388zm-30.2378751-24.36466092 24.7087941 23.67639362h-24.7087941zm-16.0595694 104.86898752h-63.73354797v-71.1668342h63.73354797zm43.3608375 0h-39.8965589v-72.9104446c0-1.0324008-.6882673-1.7206681-1.7206682-1.7206681h-45.1044476v-32.46327228h55.9790703v27.80599718c0 1.0324009.6882672 1.7206681 1.7206681 1.7206681h29.0219363z" fill="url(#n)"/><path d="m67.2862297 11.8531915h-34.5724594c-1.0282622 0-1.7137703.6-1.7137703 1.5s.6855081 1.5 1.7137703 1.5h34.5724594c1.0282622 0 1.7137703-.6 1.7137703-1.5s-.6855081-1.5-1.7137703-1.5z" fill="url(#o)"/><path d="m67.2862297 21.8531915h-34.5724594c-1.0282622 0-1.7137703.6-1.7137703 1.5s.6855081 1.5 1.7137703 1.5h34.5724594c1.0282622 0 1.7137703-.6 1.7137703-1.5s-.6855081-1.5-1.7137703-1.5z" fill="url(#p)"/><path d="m90.5 72.8531915c-9.1058091 0-16.5 7.5452055-16.5 17 0 9.2917808 7.3941909 16.9999995 16.5 16.9999995s16.5-7.545205 16.5-16.9999995-7.3713693-17-16.5-17zm0 30.3438355c-7.2116183 0-13.0539419-5.9616437-13.0539419-13.5068492s5.8423236-13.5068493 13.0539419-13.5068493 13.053942 5.9616438 13.053942 13.5068493-5.8195022 13.5068492-13.053942 13.5068492z" fill="url(#q)"/><path d="m96.5095986 90.1210486c-.9284468-.8482143-2.3944154-1.5178571-4.4223386-1.8526785v-4.53125c1.294939.1785714 2.5654451.6696428 3.6893543 1.3392857l1.6614311-2.1875c-1.6614311-1.0044643-3.4938918-1.6741072-5.3263526-1.8526786v-1.1830357h-1.661431v1.1830357c-1.6614311 0-3.1273997.5133929-4.0558464 1.5178571-1.0994765.8482143-1.6614311 2.0089286-1.6614311 3.3705358 0 1.3392857.3664921 2.34375 1.2949389 3.1919642.9284468.6696429 2.3944154 1.3392858 4.2268761 1.6741072v4.7098214c-1.4659686-.1785714-3.1273996-.8482143-4.4223386-2.0089286l-1.8324607 2.0089286c1.8324607 1.5178572 4.0558464 2.34375 6.4502618 2.6785714v1.6741072h1.661431v-1.6741072c1.8324608 0 3.1273997-.5133928 4.2268761-1.5178571 1.0994765-.8482143 1.6614311-2.0089286 1.6614311-3.3705357 0-1.3169643-.5619546-2.5-1.4904014-3.1696429zm-6.0593368-2.34375c-.9284468-.3348214-1.6614311-.5133928-2.0279232-.8482143-.3664922-.3348214-.5619547-.6696428-.5619547-1.3392857 0-.5133928.1954625-1.0044643.7329843-1.3392857.3664922-.3348214 1.0994765-.5133928 1.8324608-.6696428zm3.4938918 7.0535715c-.5619546.3348214-1.0994765.6696428-2.0279232.6696428v-4.375c1.0994764.3348214 1.8324607.6696429 2.1989528.8482143.3664922.3348214.5619547.8482143.5619547 1.3392857 0 .6696429-.1710297 1.1830357-.7329843 1.5178572z" fill="url(#r)"/><path d="m79.4051579 59.2488546c-.1871212 0 0 0 0 .1825681l-7.2275565 14.9477637c-.3508522.6846304-.1871212 1.5518289.5379735 2.0538912.5379734.5248833 1.403409.5248833 2.1051135.1825681l13.9171394-9.2881524.1871212-.1825681s.1871212 0 .1871212-.1825681l19.3670448-22.1592038c2.292234-2.5787745 1.941382-6.3670627-.701705-8.580701-1.052557-.8671985-2.455966-1.3692608-4.046496-1.3692608-1.754261 0-3.531913.6846304-4.7482004 2.0538912l-19.3670444 22.1592038c-.0467803.022821-.0467803.1825681-.2105113.1825681zm22.3609831-20.1053126c.888826-1.0269456 2.643087-1.2095137 3.695644-.3423152 1.239678 1.0269456 1.239678 2.5787745.350852 3.7882882l-18.3144872 20.789943-4.046496-3.445973zm-16.9110781 26.4723753-6.689583 4.4729186 3.5319127-7.2114402z" fill="url(#s)"/></g></svg>