<?xml version="1.0" encoding="utf-8"?>
<!-- Generator: Adobe Illustrator 24.0.3, SVG Export Plug-In . SVG Version: 6.00 Build 0)  -->
<svg version="1.1" id="Calque_1" xmlns="http://www.w3.org/2000/svg" xmlns:xlink="http://www.w3.org/1999/xlink" x="0px" y="0px"
	 viewBox="0 0 943 220.6" style="enable-background:new 0 0 943 220.6;" xml:space="preserve">
<style type="text/css">
	.st0{fill:#E7EEFF;}
	.st1{fill:url(#Path_3_);}
	.st2{fill:url(#Path_4_);}
</style>
<title>footersvg</title>
<g id="Page-1">
	<g id="Home-desktop" transform="translate(-490.000000, -2316.000000)">
		<g id="footersvg" transform="translate(490.000000, 2316.000000)">
			<path id="Path" class="st0" d="M195.3,70C74.7,70,1,45,1,45c33.1,7,72.5,9.6,105.4,11.3c34.8,1.8,70.1,1.6,104.8-0.7
				c55.6-3.6,155.6-11.5,221.7-25C501.6,16.6,589.4,7.3,633.6,3.2c32.4-3,65.6-4.5,99-4.3C877,0,942,31.4,942,31.4v18.9"/>
			
				<linearGradient id="Path_3_" gradientUnits="userSpaceOnUse" x1="573.9556" y1="-167.2124" x2="573.7195" y2="-167.3422" gradientTransform="matrix(941.1376 0 0 267.0152 -539638.25 44812.0352)">
				<stop  offset="1.427222e-03" style="stop-color:#5698F9"/>
				<stop  offset="1" style="stop-color:#68A9FB"/>
			</linearGradient>
			<polygon id="Path_1_" class="st1" points="941.9,88.9 941.9,220.4 0.7,220.4 810.5,67.8 889.9,79.8 			"/>
			
				<linearGradient id="Path_4_" gradientUnits="userSpaceOnUse" x1="573.9069" y1="-167.1163" x2="573.6467" y2="-167.2374" gradientTransform="matrix(941.6277 0 0 347.6083 -539919.3125 58226.4375)">
				<stop  offset="1.427222e-03" style="stop-color:#5698F9"/>
				<stop  offset="1" style="stop-color:#4FC3F6"/>
			</linearGradient>
			<path id="Path_2_" class="st2" d="M942,98.2c-44.4-8.5-103.9-9-124.5-8.9c-4.3,0-8.5,0-12.7-0.1c-57.6-0.7-192.9,11.9-257.5,44.2
				c-114.7,57.4-138.4,55-144.3,56.7c-0.2,0.1-0.5,0.2-0.8,0.2c-3.3,1-34.7,9.7-107.6,7.2c-77.2-2.7-107.6-1.1-107.6-1.1
				C88.4,202.5,1,220.3,1,220.3V45c108,30.5,240.2,23.4,240.2,23.4s89-2.2,198.3-19.3s176.9-22.4,176.9-22.4
				C839.5,7.3,942.7,51.2,942.7,51.2L942,98.2z"/>
		</g>
	</g>
</g>
</svg>
