<svg enable-background="new 0 0 943 220.6" viewBox="0 0 943 220.6" xmlns="http://www.w3.org/2000/svg" xmlns:xlink="http://www.w3.org/1999/xlink"><linearGradient id="a" gradientTransform="matrix(941.1376 0 0 267.0152 -539638.25 44812.0352)" gradientUnits="userSpaceOnUse" x1="573.9556" x2="573.7195" y1="-167.2124" y2="-167.3422"><stop offset=".001427222" stop-color="#5698f9"/><stop offset="1" stop-color="#68a9fb"/></linearGradient><linearGradient id="b" gradientTransform="matrix(941.6277 0 0 347.6083 -539919.3125 58226.4375)" gradientUnits="userSpaceOnUse" x1="573.9069" x2="573.6467" y1="-167.1163" y2="-167.2374"><stop offset=".001427222" stop-color="#5698f9"/><stop offset="1" stop-color="#4fc3f6"/></linearGradient><path d="m195.3 70c-120.6 0-194.3-25-194.3-25 33.1 7 72.5 9.6 105.4 11.3 34.8 1.8 70.1 1.6 104.8-.7 55.6-3.6 155.6-11.5 221.7-25 68.7-14 156.5-23.3 200.7-27.4 32.4-3 65.6-4.5 99-4.3 144.4 1.1 209.4 32.5 209.4 32.5v18.9" fill="#e7eeff"/><path d="m941.9 88.9v131.5h-941.2l809.8-152.6 79.4 12z" fill="url(#a)"/><path d="m942 98.2c-44.4-8.5-103.9-9-124.5-8.9-4.3 0-8.5 0-12.7-.1-57.6-.7-192.9 11.9-257.5 44.2-114.7 57.4-138.4 55-144.3 56.7-.2.1-.5.2-.8.2-3.3 1-34.7 9.7-107.6 7.2-77.2-2.7-107.6-1.1-107.6-1.1-98.6 6.1-186 23.9-186 23.9v-175.3c108 30.5 240.2 23.4 240.2 23.4s89-2.2 198.3-19.3 176.9-22.4 176.9-22.4c223.1-19.4 326.3 24.5 326.3 24.5z" fill="url(#b)"/></svg>