<svg enable-background="new 0 0 512 512" viewBox="0 0 512 512" xmlns="http://www.w3.org/2000/svg" xmlns:xlink="http://www.w3.org/1999/xlink"><linearGradient id="a"><stop offset="0" stop-color="#4cb5ea"/><stop offset="1" stop-color="#5a6cdd"/></linearGradient><linearGradient id="b" gradientUnits="userSpaceOnUse" x1="272.9679" x2="252.9679" xlink:href="#a" y1=".7755" y2="515.7755"/><linearGradient id="c" gradientUnits="userSpaceOnUse" x1="271.8379" x2="251.8379" xlink:href="#a" y1=".7316" y2="515.7316"/><linearGradient id="d" gradientUnits="userSpaceOnUse" x1="341.4642" x2="321.4642" xlink:href="#a" y1="3.4355" y2="518.4355"/><linearGradient id="e" gradientUnits="userSpaceOnUse" x1="203.3271" x2="183.3271" xlink:href="#a" y1="-1.929" y2="513.071"/><linearGradient id="f" gradientUnits="userSpaceOnUse" x1="261.4625" x2="241.4625" xlink:href="#a" y1=".3286" y2="515.3286"/><linearGradient id="g" gradientUnits="userSpaceOnUse" x1="131.5621" x2="111.5621" xlink:href="#a" y1="-4.716" y2="510.284"/><linearGradient id="h" gradientUnits="userSpaceOnUse" x1="261.3634" x2="241.3634" xlink:href="#a" y1=".3248" y2="515.3248"/><linearGradient id="i" gradientUnits="userSpaceOnUse" x1="391.1646" x2="371.1646" xlink:href="#a" y1="5.3656" y2="520.3656"/><path d="m283.9 430.2h-55.8c-4.1 0-7.5 3.4-7.5 7.5s3.4 7.5 7.5 7.5h55.8c4.1 0 7.5-3.4 7.5-7.5s-3.4-7.5-7.5-7.5z" fill="url(#b)"/><path d="m283.9 401.1h-55.8c-4.1 0-7.5 3.4-7.5 7.5s3.4 7.5 7.5 7.5h55.8c4.1 0 7.5-3.4 7.5-7.5s-3.4-7.5-7.5-7.5z" fill="url(#c)"/><path d="m325.2 398c-13.8 0-25.1 11.3-25.1 25.1s11.2 25.1 25.1 25.1c13.8 0 25.1-11.2 25.1-25.1 0-13.8-11.3-25.1-25.1-25.1zm0 35.2c-5.6 0-10.1-4.5-10.1-10.1s4.5-10.1 10.1-10.1 10.1 4.5 10.1 10.1-4.6 10.1-10.1 10.1z" fill="url(#d)"/><path d="m186.8 398c-13.8 0-25.1 11.3-25.1 25.1s11.3 25.1 25.1 25.1 25.1-11.2 25.1-25.1c0-13.8-11.2-25.1-25.1-25.1zm0 35.2c-5.6 0-10.1-4.5-10.1-10.1s4.5-10.1 10.1-10.1 10.1 4.5 10.1 10.1-4.5 10.1-10.1 10.1z" fill="url(#e)"/><path d="m503.1 103.4c-.4-.1-.7-.2-1.2-.4l-233.4-99.1c-9.7-4.1-15.3-4.1-25 0l-233.4 99.1c-.4.1-.8.3-1.2.4-6.6 2-8.9 5.4-8.9 13v49.6c0 6.9 5.6 12.4 12.4 12.4h19.9v320.6c0 6.7 5.5 12.1 12.1 12.1h44.2 70.9 25.5 141.8 25.5 70.9 44.2c6.7 0 12.2-5.5 12.2-12.1v-199.6c0-4.1-3.4-7.5-7.5-7.5s-7.5 3.4-7.5 7.5v196.8h-33.9v-296c0-4.1-3.4-7.5-7.5-7.5h-334.5c-4.1 0-7.5 3.4-7.5 7.5v296h-33.9v-325.3c0-4.1-3.4-7.5-7.5-7.5h-24.8v-46.3c.2-.1.4-.1.6-.2l233.7-99.3c6-2.5 7.3-2.5 13.3 0l233.8 99.4c.2.1.4.2.6.2h.1v46.2h-24.8c-4.1 0-7.5 3.4-7.5 7.5v93.9c0 4.1 3.4 7.5 7.5 7.5s7.5-3.4 7.5-7.5v-86.4h19.9c6.9 0 12.5-5.6 12.5-12.4v-49.6c-.2-7.6-2.5-11-9.1-13zm-357.9 266.3c-5.2 0-9.4-4.3-9.4-9.5s4.2-9.5 9.4-9.5h12.6l-9 19zm60.8 108h99.9v12.6c0 2.1.3 4 .9 5.9h-101.6c.6-1.9.9-3.9.9-5.9zm-58.3-15c0-.3 0-.6 0-.8v-50c0-4.8 0-4.8 2.5-10.1l8.1-17h195.4l8.1 17c2.5 5.2 2.5 5.2 2.5 10v51zm215.5-93-9-19h12.6c5.2 0 9.4 4.3 9.4 9.5s-4.2 9.5-9.4 9.5zm-27.8-23.6c.1.3 11.2 23.6 11.2 23.6h-181.2l19.7-41.6c3.5-7.4 5.8-11.7 8.1-12.9 2.4-1.3 7.9-1.3 16.3-1.3h93c8.4 0 13.9 0 16.3 1.3 2.2 1.3 4.6 5.5 8.1 12.9zm-175.8 150.1c-3.2 0-5.9-2.7-5.9-5.9v-12.6h37.3v12.6c0 3.2-2.7 5.9-5.9 5.9zm167.3 0c-3.3 0-5.9-2.6-5.9-5.9v-12.6h37.4v12.6c0 3.2-2.7 5.9-5.9 5.9zm-230.7-250.5h143.2c4.1 0 7.5-3.4 7.5-7.5s-3.4-7.5-7.5-7.5h-143.2v-23h319.6v23h-141.8c-4.1 0-7.5 3.4-7.5 7.5s3.4 7.5 7.5 7.5h141.8v250.5h-43.3c.6-1.9.9-3.9.9-5.9v-14.2c5.9-3.2 5.9-10.3 5.9-14.2 0 0 0-49.4 0-50.1 0-7.5-.3-8.9-3.9-16.5l-5.1-10.8c11.9-1.6 21-11.9 21-24.2 0-13.5-10.9-24.5-24.4-24.5h-19.7l-6.7-14.1c-4.5-9.5-8-16-14.3-19.6-5.8-3.3-12.6-3.3-23.7-3.2h-92.2-.7c-11.1 0-17.9 0-23.7 3.2-6.3 3.6-9.8 10.1-14.3 19.6l-6.7 14.1h-19.7c-13.4 0-24.4 11-24.4 24.5 0 12.3 9.1 22.6 21 24.2l-5.1 10.8c-3.6 7.7-4 9.1-3.9 16.6v50c0 3.9 0 11 5.9 14.2v14.2c0 2.1.3 4 .9 5.9h-43.4z" fill="url(#f)"/><path d="m93.5 111.9c-6.8 0-12.3 5.5-12.3 12.3v29.1c0 6.8 5.5 12.3 12.3 12.3h65c6.8 0 12.3-5.5 12.3-12.3v-29.1c0-6.8-5.5-12.3-12.3-12.3zm62.3 38.8h-59.6v-23.8h59.6z" fill="url(#g)"/><path d="m223.5 111.9c-6.8 0-12.3 5.5-12.3 12.3v29.1c0 6.8 5.5 12.3 12.3 12.3h65c6.8 0 12.3-5.5 12.3-12.3v-29.1c0-6.8-5.5-12.3-12.3-12.3zm62.3 38.8h-59.6v-23.8h59.6z" fill="url(#h)"/><path d="m353.5 111.9c-6.8 0-12.3 5.5-12.3 12.3v29.1c0 6.8 5.5 12.3 12.3 12.3h64.9c6.8 0 12.3-5.5 12.3-12.3v-29.1c0-6.8-5.5-12.3-12.3-12.3zm62.3 38.8h-59.6v-23.8h59.6z" fill="url(#i)"/></svg>