<?xml version="1.0" encoding="utf-8"?>
<!-- Generator: Adobe Illustrator 24.0.3, SVG Export Plug-In . SVG Version: 6.00 Build 0)  -->
<svg version="1.1" id="Capa_1" xmlns="http://www.w3.org/2000/svg" xmlns:xlink="http://www.w3.org/1999/xlink" x="0px" y="0px"
	 viewBox="0 0 512 512" style="enable-background:new 0 0 512 512;" xml:space="preserve">
<style type="text/css">
	.st0{fill:url(#SVGID_1_);}
	.st1{fill:url(#SVGID_2_);}
	.st2{fill:url(#SVGID_3_);}
	.st3{fill:url(#SVGID_4_);}
	.st4{fill:url(#SVGID_5_);}
	.st5{fill:url(#SVGID_6_);}
	.st6{fill:url(#SVGID_7_);}
	.st7{fill:url(#SVGID_8_);}
</style>
<g>
	<linearGradient id="SVGID_1_" gradientUnits="userSpaceOnUse" x1="272.9679" y1="0.7755" x2="252.9679" y2="515.7755">
		<stop  offset="0" style="stop-color:#4CB5EA"/>
		<stop  offset="1" style="stop-color:#5A6CDD"/>
	</linearGradient>
	<path class="st0" d="M283.9,430.2h-55.8c-4.1,0-7.5,3.4-7.5,7.5s3.4,7.5,7.5,7.5h55.8c4.1,0,7.5-3.4,7.5-7.5S288,430.2,283.9,430.2
		z"/>
	<linearGradient id="SVGID_2_" gradientUnits="userSpaceOnUse" x1="271.8379" y1="0.7316" x2="251.8379" y2="515.7316">
		<stop  offset="0" style="stop-color:#4CB5EA"/>
		<stop  offset="1" style="stop-color:#5A6CDD"/>
	</linearGradient>
	<path class="st1" d="M283.9,401.1h-55.8c-4.1,0-7.5,3.4-7.5,7.5s3.4,7.5,7.5,7.5h55.8c4.1,0,7.5-3.4,7.5-7.5S288,401.1,283.9,401.1
		z"/>
	<linearGradient id="SVGID_3_" gradientUnits="userSpaceOnUse" x1="341.4642" y1="3.4355" x2="321.4642" y2="518.4355">
		<stop  offset="0" style="stop-color:#4CB5EA"/>
		<stop  offset="1" style="stop-color:#5A6CDD"/>
	</linearGradient>
	<path class="st2" d="M325.2,398c-13.8,0-25.1,11.3-25.1,25.1c0,13.8,11.2,25.1,25.1,25.1c13.8,0,25.1-11.2,25.1-25.1
		C350.3,409.3,339,398,325.2,398z M325.2,433.2c-5.6,0-10.1-4.5-10.1-10.1c0-5.6,4.5-10.1,10.1-10.1c5.6,0,10.1,4.5,10.1,10.1
		C335.3,428.7,330.7,433.2,325.2,433.2z"/>
	<linearGradient id="SVGID_4_" gradientUnits="userSpaceOnUse" x1="203.3271" y1="-1.929" x2="183.3271" y2="513.071">
		<stop  offset="0" style="stop-color:#4CB5EA"/>
		<stop  offset="1" style="stop-color:#5A6CDD"/>
	</linearGradient>
	<path class="st3" d="M186.8,398c-13.8,0-25.1,11.3-25.1,25.1c0,13.8,11.3,25.1,25.1,25.1s25.1-11.2,25.1-25.1
		C211.9,409.3,200.7,398,186.8,398z M186.8,433.2c-5.6,0-10.1-4.5-10.1-10.1c0-5.6,4.5-10.1,10.1-10.1s10.1,4.5,10.1,10.1
		C196.9,428.7,192.4,433.2,186.8,433.2z"/>
	<linearGradient id="SVGID_5_" gradientUnits="userSpaceOnUse" x1="261.4625" y1="0.3286" x2="241.4625" y2="515.3286">
		<stop  offset="0" style="stop-color:#4CB5EA"/>
		<stop  offset="1" style="stop-color:#5A6CDD"/>
	</linearGradient>
	<path class="st4" d="M503.1,103.4c-0.4-0.1-0.7-0.2-1.2-0.4L268.5,3.9c-9.7-4.1-15.3-4.1-25,0L10.1,103c-0.4,0.1-0.8,0.3-1.2,0.4
		c-6.6,2-8.9,5.4-8.9,13V166c0,6.9,5.6,12.4,12.4,12.4h19.9v320.6c0,6.7,5.5,12.1,12.1,12.1h44.2h70.9h25.5h141.8h25.5h70.9h44.2
		c6.7,0,12.2-5.5,12.2-12.1V299.4c0-4.1-3.4-7.5-7.5-7.5s-7.5,3.4-7.5,7.5v196.8h-33.9v-296c0-4.1-3.4-7.5-7.5-7.5H88.7
		c-4.1,0-7.5,3.4-7.5,7.5v296H47.3V170.9c0-4.1-3.4-7.5-7.5-7.5H15v-46.3c0,0,0,0,0,0c0.2-0.1,0.4-0.1,0.6-0.2l233.7-99.3
		c6-2.5,7.3-2.5,13.3,0L496.4,117c0.2,0.1,0.4,0.2,0.6,0.2c0,0,0,0,0.1,0v46.2h-24.8c-4.1,0-7.5,3.4-7.5,7.5v93.9
		c0,4.1,3.4,7.5,7.5,7.5s7.5-3.4,7.5-7.5v-86.4h19.9c6.9,0,12.5-5.6,12.5-12.4v-49.6C512,108.8,509.7,105.4,503.1,103.4L503.1,103.4
		z M145.2,369.7c-5.2,0-9.4-4.3-9.4-9.5s4.2-9.5,9.4-9.5h12.6l-9,19L145.2,369.7L145.2,369.7z M206,477.7h99.9v12.6
		c0,2.1,0.3,4,0.9,5.9H205.2c0.6-1.9,0.9-3.9,0.9-5.9L206,477.7L206,477.7z M147.7,462.7c0-0.3,0-0.6,0-0.8l0-50
		c0-4.8,0-4.8,2.5-10.1l8.1-17h195.4l8.1,17c2.5,5.2,2.5,5.2,2.5,10c0,0.7,0,50.7,0,51L147.7,462.7L147.7,462.7z M363.2,369.7l-9-19
		h12.6c5.2,0,9.4,4.3,9.4,9.5s-4.2,9.5-9.4,9.5L363.2,369.7L363.2,369.7z M335.4,346.1c0.1,0.3,11.2,23.6,11.2,23.6H165.4l19.7-41.6
		c3.5-7.4,5.8-11.7,8.1-12.9c2.4-1.3,7.9-1.3,16.3-1.3h93c8.4,0,13.9,0,16.3,1.3c2.2,1.3,4.6,5.5,8.1,12.9L335.4,346.1z
		 M159.6,496.2c-3.2,0-5.9-2.7-5.9-5.9v-12.6H191v12.6c0,3.2-2.7,5.9-5.9,5.9H159.6z M326.9,496.2c-3.3,0-5.9-2.6-5.9-5.9v-12.6
		h37.4v12.6c0,3.2-2.7,5.9-5.9,5.9H326.9z M96.2,245.7h143.2c4.1,0,7.5-3.4,7.5-7.5s-3.4-7.5-7.5-7.5H96.2v-23h319.6v23H274
		c-4.1,0-7.5,3.4-7.5,7.5s3.4,7.5,7.5,7.5h141.8v250.5h-43.3c0.6-1.9,0.9-3.9,0.9-5.9v-14.2c5.9-3.2,5.9-10.3,5.9-14.2
		c0,0,0-49.4,0-50.1c0-7.5-0.3-8.9-3.9-16.5l-5.1-10.8c11.9-1.6,21-11.9,21-24.2c0-13.5-10.9-24.5-24.4-24.5h-19.7l-6.7-14.1
		c-4.5-9.5-8-16-14.3-19.6c-5.8-3.3-12.6-3.3-23.7-3.2l-92.2,0l-0.7,0c-11.1,0-17.9,0-23.7,3.2c-6.3,3.6-9.8,10.1-14.3,19.6
		l-6.7,14.1h-19.7c-13.4,0-24.4,11-24.4,24.5c0,12.3,9.1,22.6,21,24.2l-5.1,10.8c-3.6,7.7-4,9.1-3.9,16.6l0,50c0,3.9,0,11,5.9,14.2
		v14.2c0,2.1,0.3,4,0.9,5.9H96.2L96.2,245.7L96.2,245.7z"/>
	<linearGradient id="SVGID_6_" gradientUnits="userSpaceOnUse" x1="131.5621" y1="-4.716" x2="111.5621" y2="510.284">
		<stop  offset="0" style="stop-color:#4CB5EA"/>
		<stop  offset="1" style="stop-color:#5A6CDD"/>
	</linearGradient>
	<path class="st5" d="M93.5,111.9c-6.8,0-12.3,5.5-12.3,12.3v29.1c0,6.8,5.5,12.3,12.3,12.3h65c6.8,0,12.3-5.5,12.3-12.3v-29.1
		c0-6.8-5.5-12.3-12.3-12.3L93.5,111.9z M155.8,150.7H96.2v-23.8h59.6L155.8,150.7L155.8,150.7z"/>
	<linearGradient id="SVGID_7_" gradientUnits="userSpaceOnUse" x1="261.3634" y1="0.3248" x2="241.3634" y2="515.3248">
		<stop  offset="0" style="stop-color:#4CB5EA"/>
		<stop  offset="1" style="stop-color:#5A6CDD"/>
	</linearGradient>
	<path class="st6" d="M223.5,111.9c-6.8,0-12.3,5.5-12.3,12.3v29.1c0,6.8,5.5,12.3,12.3,12.3h65c6.8,0,12.3-5.5,12.3-12.3v-29.1
		c0-6.8-5.5-12.3-12.3-12.3L223.5,111.9z M285.8,150.7h-59.6v-23.8h59.6V150.7z"/>
	<linearGradient id="SVGID_8_" gradientUnits="userSpaceOnUse" x1="391.1646" y1="5.3656" x2="371.1646" y2="520.3656">
		<stop  offset="0" style="stop-color:#4CB5EA"/>
		<stop  offset="1" style="stop-color:#5A6CDD"/>
	</linearGradient>
	<path class="st7" d="M353.5,111.9c-6.8,0-12.3,5.5-12.3,12.3v29.1c0,6.8,5.5,12.3,12.3,12.3h64.9c6.8,0,12.3-5.5,12.3-12.3v-29.1
		c0-6.8-5.5-12.3-12.3-12.3L353.5,111.9z M415.8,150.7h-59.6v-23.8h59.6V150.7z"/>
</g>
</svg>
