<svg enable-background="new 0 0 508 508" viewBox="0 0 508 508" xmlns="http://www.w3.org/2000/svg"><path d="m256.1 8.1c-103.7 0-245.6 78.4-245.6 245.6 0 163 136.5 245.6 245.6 245.6 187.3 0 245.6-164.1 245.6-245.6.1-120.3-92-245.6-245.6-245.6zm-56.9 23.1c-25.6 21.9-46.9 58-60.6 102.9-17.8-10.5-34.1-23.6-48.6-38.8 29.9-31.4 67.8-53.5 109.2-64.1zm-119.9 75.9c16.2 16.9 34.7 31.3 54.8 42.7-7.5 29.3-12 61.8-12.6 95.9h-95c1.8-50.9 20.3-99.5 52.8-138.6zm0 293.2c-32.6-39.1-51.1-87.7-52.8-138.7h95.1c.6 34.2 5 66.6 12.6 95.9-20.1 11.6-38.5 25.9-54.9 42.8zm10.6 11.9c14.5-15.2 30.9-28.2 48.6-38.8 13.7 44.8 35 81 60.6 102.9-41.3-10.7-79.2-32.7-109.2-64.1zm158.3 70.7c-41.2-5.2-76.7-51.3-95.8-117.2 29.6-15 62.3-23.4 95.8-24.7zm0-157.6c-35 1.2-69.1 9.8-99.9 24.9-6.5-27.1-10.3-57-10.9-88.5h110.8zm0-79.5h-110.8c.6-31.5 4.4-61.4 10.9-88.5 30.9 15.1 65 23.7 99.9 24.9zm0-79.4c-33.7-1.2-66.2-9.7-95.8-24.7 19.1-66.1 54.6-112 95.8-117.2zm184.7-59.3c32.5 39.1 51.1 87.7 52.8 138.7h-95c-.6-34.2-5-66.6-12.6-95.9 20.1-11.6 38.6-25.9 54.8-42.8zm-10.5-11.9c-14.5 15.2-30.9 28.2-48.6 38.8-13.8-44.8-35.1-81-60.7-102.9 41.4 10.7 79.3 32.8 109.3 64.1zm-158.3-70.7c41.2 5.2 76.7 51.3 95.8 117.2-29.6 15-62.2 23.4-95.8 24.7zm0 157.7c35-1.2 69.1-9.8 99.9-24.9 6.5 27.1 10.3 57 10.9 88.5h-110.8zm0 79.4h110.8c-.6 31.5-4.4 61.4-10.9 88.5-30.9-15.2-64.9-23.8-99.9-24.9zm0 221.3v-141.9c33.7 1.2 66.2 9.7 95.8 24.7-19.2 66.1-54.7 112-95.8 117.2zm49-6.7c25.6-21.9 46.9-58 60.6-102.9 17.8 10.5 34.1 23.6 48.6 38.8-29.9 31.5-67.8 53.5-109.2 64.1zm119.8-75.9c-16.2-16.9-34.7-31.2-54.7-42.7 7.5-29.3 12-61.8 12.6-95.9h95c-1.8 50.9-20.4 99.6-52.9 138.6z" fill="#fff" stroke="#fff" stroke-miterlimit="10" stroke-width="3"/></svg>