<svg height="40" viewBox="0 0 44 40" width="44" xmlns="http://www.w3.org/2000/svg"><g fill="#0cd300" transform="translate(.823529)"><path d="m20.6764706 40c11.3031108 0 20.5-8.9717611 20.5-20 0-1.9034832-.272349-3.7792968-.8116252-5.5757649-.2656759-.8833822-1.2111816-1.3907878-2.1191508-1.1315919-.9063008.2583822-1.4247233 1.184082-1.1598815 2.0674642.4466858 1.4925131.6739908 3.0541993.6739908 4.6398926 0 9.18986-7.6637268 16.6666667-17.0833333 16.6666667s-17.08333335-7.4768067-17.08333335-16.6666667 7.66372685-16.66666667 17.08333335-16.66666667c3.4233399 0 6.7169698.97656251 9.5247091 2.82348635.7815959.5147298 1.8442993.3125 2.3710632-.4500326.527181-.76334635.3215637-1.79931635-.4608663-2.31363927-3.3741251-2.21964521-7.3279825-3.39314781-11.434906-3.39314781-11.30311074 0-20.50000001 8.97176105-20.50000001 20 0 11.0282389 9.19688927 20 20.50000001 20z"/><path d="m39.2647257 4.49549039-17.5589719 17.41828921-5.6175383-5.5719686c-.6663747-.6606538-1.7459015-.6606538-2.4122762 0-.6659583.6610671-.6659583 1.7319957 0 2.3930627l6.8236764 6.7693261c.3336038.3309466.7692462.4958002 1.2061381.4958002.4368918 0 .8725343-.1648536 1.206138-.4958002l18.7651101-18.61564686c.6659582-.661067.6659582-1.73199554 0-2.39306255-.6663747-.66065385-1.7459015-.66065385-2.4122762 0z"/></g></svg>