<svg height="116" viewBox="0 0 149 116" width="149" xmlns="http://www.w3.org/2000/svg" xmlns:xlink="http://www.w3.org/1999/xlink"><linearGradient id="a" x1="48.847079%" x2="50.565292%" y1="79.217376%" y2="20.833693%"><stop offset="0" stop-color="#5e71da"/><stop offset="1" stop-color="#53bceb"/></linearGradient><path d="m144.050401 30.9597026-59.3951891-29.17576215c-5.1202749-2.57433195-13.8247423-2.57433195-18.9450172 0l-60.76059562 29.17576215c-4.26689576 2.0594656-4.94959908 4.9770418-4.94959908 6.5216409 0 1.5445992.68270332 4.2905533 4.94959908 6.521641l4.94959909 2.4027098v27.4595408c-3.07216495 1.201355-5.29095075 4.2905533-5.29095075 7.7229959s2.2187858 6.521641 5.12027492 7.7229959l-7.68041237 24.5419641h21.50515463l-7.6804124-24.5419641c3.072165-1.2013549 5.1202749-4.2905533 5.1202749-7.7229959 0-3.6040647-2.2187857-6.5216409-5.2909507-7.7229959v-24.5419646l9.045819 4.4621754v35.6974031c0 .5148664.1706758 1.0297328.5120275 1.5445992.8533792 1.0297328 16.7262314 22.8257428 49.1546392 22.8257428 32.4284079 0 48.3012599-21.9676322 48.9839629-22.8257428.341352-.5148664.512028-1.0297328.512028-1.5445992v-35.525781l20.139748-9.9540835c4.266896-2.0594656 4.949599-4.9770418 4.949599-6.521641-.170676-1.5445991-.682703-4.4621753-4.949599-6.5216409zm-25.601375 57.6650357c-2.730813 3.4324427-17.408934 19.9081667-44.0343639 19.9081667-26.6254296 0-41.303551-16.475724-44.0343643-19.9081667v-32.4365826l35.3298969 16.9905909c2.5601375 1.2013549 5.9736541 1.8878435 9.3871707 1.8878435 3.5841924 0 6.9977091-.6864886 9.5578465-2.0594656l33.7938141-16.6473466zm23.211913-49.4271735-20.481099 10.1257057c-.85338 0-1.536083.3432443-1.877435 1.0297328l-37.0366547 18.0203237c-3.5841925 1.8878434-10.5819015 1.8878434-14.3367698 0l-45.5704467-21.9676327 52.3974799-6.1783967c1.5360825-.1716221 2.5601375-1.5445991 2.3894617-2.9175762-.1706759-1.5445992-1.5360825-2.5743319-2.9014891-2.4027098l-60.7605957 7.2081295-6.14432989-2.9175763c-1.53608247-.6864885-1.87743413-1.5445991-1.87743413-1.5445991 0-.1716222.34135166-.8581107 1.87743413-1.5445992l60.76059569-29.34738427c1.8774341-.85811065 4.4375715-1.37297704 6.997709-1.37297704 2.7308133 0 5.4616266.51486639 7.1683849 1.37297704l59.3951887 29.17576217c1.536083.6864885 1.877434 1.372977 1.877434 1.7162213 0 0-.512027.8581106-1.877434 1.5445991z" fill="url(#a)" transform="translate(0 1.146809)"/></svg>