<?xml version="1.0" encoding="UTF-8"?>
<svg width="292px" height="280px" viewBox="0 0 292 280" version="1.1" xmlns="http://www.w3.org/2000/svg" xmlns:xlink="http://www.w3.org/1999/xlink">
    <title>Great idea_Monochromatic</title>
    <defs>
        <linearGradient x1="148.629746%" y1="133.04024%" x2="-3.9225028%" y2="7.08596255%" id="linearGradient-1">
            <stop stop-color="#000000" offset="1%"></stop>
            <stop stop-color="#000000" stop-opacity="0.69" offset="13%"></stop>
            <stop stop-color="#000000" stop-opacity="0.32" offset="25%"></stop>
            <stop stop-color="#000000" stop-opacity="0" offset="100%"></stop>
        </linearGradient>
        <linearGradient x1="50.1383764%" y1="40.3310636%" x2="49.8616236%" y2="59.3396624%" id="linearGradient-2">
            <stop stop-color="#000000" offset="1%"></stop>
            <stop stop-color="#000000" stop-opacity="0.69" offset="13%"></stop>
            <stop stop-color="#000000" stop-opacity="0.32" offset="25%"></stop>
            <stop stop-color="#000000" stop-opacity="0" offset="100%"></stop>
        </linearGradient>
        <linearGradient x1="52.5541796%" y1="41.6348237%" x2="47.0588235%" y2="59.5990852%" id="linearGradient-3">
            <stop stop-color="#000000" offset="1%"></stop>
            <stop stop-color="#000000" stop-opacity="0.69" offset="13%"></stop>
            <stop stop-color="#000000" stop-opacity="0.32" offset="25%"></stop>
            <stop stop-color="#000000" stop-opacity="0" offset="100%"></stop>
        </linearGradient>
        <linearGradient x1="51.6205769%" y1="40.2696534%" x2="48.0820696%" y2="61.3964497%" id="linearGradient-4">
            <stop stop-color="#000000" offset="1%"></stop>
            <stop stop-color="#000000" stop-opacity="0.69" offset="13%"></stop>
            <stop stop-color="#000000" stop-opacity="0.32" offset="25%"></stop>
            <stop stop-color="#000000" stop-opacity="0" offset="100%"></stop>
        </linearGradient>
        <linearGradient x1="103.859611%" y1="22.3330522%" x2="-6.20731818%" y2="76.8967757%" id="linearGradient-5">
            <stop stop-color="#000000" offset="1%"></stop>
            <stop stop-color="#000000" stop-opacity="0.69" offset="13%"></stop>
            <stop stop-color="#000000" stop-opacity="0.32" offset="25%"></stop>
            <stop stop-color="#000000" stop-opacity="0" offset="100%"></stop>
        </linearGradient>
    </defs>
    <g id="Page-1" stroke="none" stroke-width="1" fill="none" fill-rule="evenodd">
        <g id="mobile-advertising-create" transform="translate(-15.000000, -80.000000)" fill-rule="nonzero">
            <g id="Great-idea_Monochromatic" transform="translate(15.671280, 80.000000)">
                <path d="M230.542342,17.4361893 C251.23092,42.1808714 247.847719,87.106901 263.500432,117.624202 C269.401565,129.146622 277.889852,138.307516 282.57961,150.708378 C287.563558,163.919232 287.702001,179.343303 287.053049,194.060057 C286.490625,206.951477 285.365775,220.048248 281.428802,231.878693 C274.221113,253.486082 258.179029,268.38537 240.977484,274.990797 C223.77594,281.596224 205.440894,280.694965 187.676924,277.831473 C169.912955,274.96798 152.296082,270.028171 134.428281,268.636353 C121.535775,267.63242 108.600006,268.465228 95.7248061,269.777187 C81.958379,271.146188 67.9150659,272.98293 54.4860937,268.750437 C36.851915,263.205985 21.6058783,247.143047 12.2263642,226.608041 C2.84685006,206.073035 -0.752668262,181.533703 0.605803799,157.678871 C1.33262961,144.582101 3.5563705,131.439697 8.39322325,119.940094 C15.6874395,102.496747 28.2944063,90.1643353 40.6071817,78.6419153 C50.0213066,69.8346794 59.5133056,61.1757519 69.0831789,52.6651328 C85.8261307,37.7658451 102.967106,23.2088076 121.864577,13.7741132 C142.172437,3.63210194 160.204639,4.31660213 181.343157,5.95940261 C199.401317,7.39685302 215.218431,-0.885599368 230.542342,17.4361893 Z" id="Path" fill="#4864C8" opacity="0.18"></path>
                <path d="M290.115062,98.902852 C289.288031,109.048998 284.933027,118.598061 277.791276,125.924781 C271.487142,132.46634 266.650939,139.818557 264.568526,148.713275 C263.942664,151.370431 263.624044,154.095143 263.134734,157 L223.739586,157 C223.443724,155.029651 223.250276,153.048043 222.86338,151.111471 C221.181934,142.772411 217.168293,135.067861 211.279249,128.874675 C206.181321,123.402735 201.823048,117.615538 199.194429,110.522282 C189.044091,83.4215384 206.943735,53.1006819 235.76751,48.597027 C237.019233,48.4056217 238.270956,48.2479938 239.499921,48.1579207 C253.361217,47.0249934 267.017034,52.0296469 276.787924,61.8234187 C286.558814,71.6171904 291.439551,85.1925 290.115062,98.8915929 L290.115062,98.902852 Z" id="Path" fill="#FFFFFF"></path>
                <path d="M282.118081,98.818558 C281.293867,108.979425 276.953696,118.542343 269.83627,125.879694 C263.553608,132.430744 258.733875,139.793628 256.658556,148.701252 C256.034826,151.362263 255.71729,154.090928 255.229647,157 L223.646226,157 C223.351372,155.026792 223.158583,153.042309 222.773004,151.102927 C221.097286,142.751768 217.097315,135.036039 211.228329,128.833868 C206.147764,123.353988 201.804335,117.558395 199.184669,110.454846 C189.068902,83.3147822 206.907581,52.9499328 235.633183,48.4397435 C236.880643,48.2480604 238.128104,48.0902038 239.352882,48 C243.257098,48.3125199 247.105742,49.1157187 250.806834,50.3904003 C271.223986,57.4267337 284.156794,77.429517 282.118081,98.818558 Z" id="Path" fill="url(#linearGradient-1)"></path>
                <path d="M66.6405847,232.347217 C63.5046447,232.643917 60.4509546,233.536336 57.6373747,234.978341 C54.7996686,236.464481 52.8357498,239.249667 52.3588429,242.464237 C52.0160811,246.317786 54.6439216,249.92685 57.9230095,251.847803 C61.2020974,253.768756 65.0638804,254.350863 68.8114095,254.898044 L95.7524872,258.798161 C101.2024,259.589826 106.652312,260.381492 112.147927,260.812251 C114.498966,261.062583 116.869206,261.062583 119.220245,260.812251 C121.831335,260.32375 124.416724,259.702055 126.966662,258.949509 C135.547132,256.877208 144.516066,257.785295 153.325045,257.552452 C155.478891,257.598445 157.619813,257.202521 159.620436,256.388238 C161.643316,255.531914 163.057547,253.632739 163.322264,251.417044 C163.562197,246.469134 157.061148,241.800635 152.685223,241.381518 C150.571525,241.183602 148.480678,241.381518 146.355555,240.974043 C142.790832,240.287157 139.283236,239.088016 135.764215,238.191572 C121.325754,234.317055 106.537142,231.953112 91.6279201,231.136434 C83.2799947,230.759249 74.9157142,231.164548 66.6405847,232.347217 L66.6405847,232.347217 Z" id="Path" fill="#4864C8" opacity="0.18"></path>
                <path d="M106.84613,241.810452 C106.76069,244.246206 107.209547,246.67099 108.160781,248.912361 C109.349559,250.997898 111.140479,252.670209 113.295782,253.707281 C117.913217,256.121879 123.277671,256.652467 128.273806,255.18873 C128.956218,255.055629 129.569471,254.6829 130.004201,254.137014 C130.254354,253.682033 130.363901,253.162267 130.318818,252.644256 C130.206454,249.873607 128.352461,247.498765 126.386103,245.553656 C124.419746,243.608547 122.20619,241.810452 120.98143,239.322522 C118.734164,234.651999 120.397141,222.223658 111.655278,224.214002 C104.351666,225.876391 106.598931,236.608416 106.84613,241.810452 Z" id="Path" fill="#FFBBAB"></path>
                <path d="M105.801051,250.340265 C105.801051,250.340265 104.571185,253.425331 106.080566,255.228734 C107.589947,257.032137 123.220425,266.888472 133.730189,258.948962 C144.239953,251.009452 119.474924,250 119.474924,250 L105.801051,250.340265 Z" id="Path" fill="#4864C8"></path>
                <path d="M106.29023,242.114889 C107.314562,241.605327 108.552192,241.929128 109.205735,242.877674 C111.359702,245.374032 114.632885,246.563571 117.859696,246.022692 C121.411522,245.166027 122.822997,241.023521 124.593126,241 C126.363254,240.97658 135.76923,249.0973 136.289856,252.594373 C136.810482,256.091446 132.020723,258.637972 126.698768,258.978291 C121.376814,259.31861 109.344569,255.586834 107.030675,252.758665 C104.716782,249.930495 105.063866,243.898631 106.29023,242.114889 Z" id="Path" fill="#FFFFFF"></path>
                <path d="M139.823935,235.810452 C139.738415,238.246206 140.187686,240.67099 141.139798,242.912361 C142.326845,245.000159 144.120217,246.673215 146.279539,247.707281 C150.901236,250.121879 156.27064,250.652467 161.271387,249.18873 C161.955876,249.059427 162.570916,248.685957 163.003378,248.137014 C163.255069,247.682525 163.364803,247.162351 163.318286,246.644256 C163.205819,243.873607 161.350113,241.498765 159.381941,239.553656 C157.413769,237.608547 155.19817,235.810452 153.97228,233.322522 C151.72294,228.651999 153.387452,216.223658 144.637521,218.214002 C137.338414,219.8877 139.621494,230.619725 139.823935,235.810452 Z" id="Path" fill="#FFBBAB"></path>
                <path d="M134.032481,124.36218 C136.929628,125.907509 136.963316,130.257327 137.861656,133.691393 C140.601594,144.260686 143.075773,154.89866 145.284193,165.605316 C147.492613,176.311971 149.43153,187.064414 151.100946,197.862645 C151.516428,200.598451 156.15411,229.490395 155.199624,229.742227 C153.773508,230.119974 135.514742,232.432246 135.503513,231.928582 C134.994168,213.274391 131.66874,194.811519 125.644229,177.189566 C119.423222,158.989015 112.2365,141.910258 108.32872,123 L123.791402,123.549451 C126.609944,123.641026 129.596926,123.469322 132.381781,123.84707 C132.95826,123.914551 133.517732,124.089137 134.032481,124.36218 Z" id="Path" fill="#282328"></path>
                <path d="M123.074471,125.305042 C123.921936,128.45691 123.526452,132.575043 123.628148,135.657891 C123.83154,141.282939 123.854139,146.907986 123.888038,152.521531 L124.32872,236 L104.995205,235.689415 C103.062983,215.846455 100.92737,165.727165 98.1589824,155.328303 C95.2775994,144.549838 91.1080688,135.97998 92.6674054,124.269758 C94.3510371,111.616276 102.531905,108.959045 112.565897,115.331798 C115.503778,117.206814 120.317383,120.105612 122.204406,123.18846 C122.587554,123.850462 122.880271,124.562545 123.074471,125.305042 L123.074471,125.305042 Z" id="Path" fill="#282328"></path>
                <path d="M159.306075,79.7792493 C159.071692,82.573279 158.134161,84.99097 155.555951,85.7322432 C155.346456,85.8041683 155.130736,85.8576034 154.911399,85.8919021 C150.294058,86.6673879 144.364175,83.1206808 140.239038,80.0415459 C138.524215,78.7680713 136.884821,77.4011831 135.32872,75.9474371 L136.125621,46 L157.87634,68.808406 C158.959909,72.3659575 159.442768,76.071104 159.306075,79.7792493 Z" id="Path" fill="#FFFFFF"></path>
                <path d="M141.56492,80.4596554 C140.367723,85.8675081 139.566332,91.3530079 139.166927,96.8738611 C138.390765,105.999201 136.850025,115.124542 135.309286,124.181442 C126.470306,125.755563 117.457559,124.843029 108.549073,123.268908 C105.444425,122.721387 102.351361,122.12824 99.2814668,121.47806 C98.2388611,121.27274 97.3121005,120.736626 96.2810793,120.462866 C91.1723114,119.071251 89.7590014,94.2275124 89.4925578,86.4139399 C89.2376986,79.0148098 89.2801751,71.6080753 89.6199873,64.1937364 C89.8748465,58.8211923 90.4540719,53.0266013 94.1263609,49.068485 C99.0034386,43.7871943 108.271045,40.4450384 115.268087,39.3614043 C117.535443,38.9625747 119.849952,38.8933982 122.137701,39.1560841 C125.37316,39.7515881 128.483042,40.8815727 131.3358,42.49824 C134.75323,44.2662747 137.788371,45.7719558 139.444955,49.1825517 C141.204296,53.1171675 142.393672,57.2755956 142.97823,61.5359811 C143.858653,67.8666858 142.966646,74.254424 141.56492,80.4596554 Z" id="Path" fill="#FFFFFF"></path>
                <path d="M109.32872,123 C106.233279,122.458362 103.149388,121.871587 100.088598,121.228391 C99.0490845,121.025276 98.1250723,120.494922 97.0971088,120.224103 C92.0034918,118.847439 90.5943732,94.2705935 90.3287197,86.5409614 L103.033887,73 C103.033887,73 98.5177775,112.866847 109.32872,123 Z" id="Path" fill="#020202" opacity="0.1"></path>
                <path d="M127.070275,34.1143104 C126.223596,35.0160167 125.087118,35.5659933 123.875307,35.6604534 C122.862082,35.7608485 121.8419,35.7608485 120.828676,35.6604534 L120.269556,35.6604534 C120.133585,35.6069142 119.983335,35.6069142 119.847364,35.6604534 C119.724961,35.7851462 119.655225,35.9548667 119.653383,36.1325582 C119.379574,38.2167222 119.287919,40.3221704 119.379529,42.4233538 L119.379529,42.4233538 L119.447993,43.6036157 C119.516746,44.0013356 119.473166,44.4111257 119.322476,44.7838775 C119.027096,45.216916 118.573848,45.5067315 118.06731,45.5864556 C117.172757,45.869699 116.241426,46.0090232 115.305944,45.9995473 C113.312972,45.7502402 111.409167,45.0006435 109.760391,43.8160628 C109.988876,40.2309144 109.897203,36.6316091 109.486536,33.0638774 C108.961648,28.4608561 107.911873,23.8342297 108.505224,19.2430111 C108.657023,17.4248168 109.337242,15.6967056 110.456437,14.2859113 C112.110975,12.4683081 114.712592,11.9253876 117.12023,12.0080059 C120.316783,12.0282794 123.440889,12.9948432 126.123195,14.7934239 C126.933752,15.4850695 127.402588,16.5155749 127.401183,17.6024471 C127.709269,19.4200504 127.937481,21.2612589 128.085819,23.1024673 C128.256978,25.1915308 128.325442,27.2923969 128.302621,29.4050656 C128.444071,31.076244 128.007356,32.7450948 127.070275,34.1143104 L127.070275,34.1143104 Z" id="Path" fill="#FFBBAB"></path>
                <path d="M123.869438,15.0874981 C123.105133,15.2810264 122.330145,15.4290791 121.548508,15.5308856 C119.981171,15.4610676 118.413058,15.6502699 116.906648,16.0909541 C113.819811,17.2577635 112.415648,21.2132473 113.355625,24.3869687 C112.462067,24.6786711 112.34602,23.0801423 111.684555,22.4150609 C111.02309,21.7499796 109.456462,22.5784142 109.363625,23.6868831 C109.39943,24.8022567 109.706209,25.8918667 110.257183,26.8606046 C111.043621,28.8445606 111.129637,31.0396796 110.500881,33.0796986 C110.361625,33.5580904 109.990276,34.1181589 109.514485,33.9781418 C109.038695,33.8381246 108.713765,33.00969 108.423648,32.636311 C107.425648,31.3411526 106.740974,30.2093475 104.942253,30.6527351 C104.342259,30.8754782 103.686488,30.8959551 103.073904,30.7110755 C102.493672,30.4543775 102.180346,29.5442662 102.679346,29.1708872 C101.490385,29.8499178 100.109397,30.1087281 98.7569743,29.9059771 C97.4572535,29.5325981 96.5288814,27.7473797 97.4572535,26.7555918 C96.3028923,26.3400486 95.4121525,25.3998259 95.0554284,24.2203393 C94.6987044,23.0408527 94.9180676,21.7612093 95.646928,20.7698597 C94.3993847,20.0250997 93.9631632,18.4203165 94.6605327,17.1410826 C95.3841082,15.9370147 96.4748515,14.9999035 97.770579,14.4690891 C99.0742641,13.9633521 100.294819,13.263203 101.39123,12.3921684 C100.21325,11.0808985 100.295803,9.06285221 101.576904,7.85327997 C102.854043,6.72904034 104.525801,6.16593943 106.218765,6.28975542 C105.984695,3.89606102 107.262581,1.61023234 109.418032,0.567038481 C111.573484,-0.476155375 114.147494,-0.0545645052 115.862229,1.62251793 C117.33602,0.665734251 119.262392,1.05078134 120.956671,1.47083272 C122.721595,1.81756298 124.42632,2.4229824 126.016299,3.26771915 C127.638105,4.10411866 128.819298,5.60677428 129.253996,7.38655622 C129.61467,9.20862756 128.642047,11.0324853 126.933066,11.7387552 C127.484405,12.3196227 127.85541,13.0494705 128.000694,13.839012 C128.000694,14.6324424 127.455275,15.5308856 126.654554,15.449209 C126.256386,15.3238309 125.868416,15.1677946 125.494089,14.9824852 C124.951223,14.9021593 124.397607,14.9379435 123.869438,15.0874981 Z" id="Path" fill="#473F47"></path>
                <path d="M121.32872,34.3025974 L120.677066,34.3025974 C120.518592,34.2495767 120.343476,34.2495767 120.185001,34.3025974 C120.042341,34.4260825 119.961064,34.5941593 119.958918,34.7701299 C119.639793,36.8341091 119.532969,38.9191662 119.63974,41 L119.63974,41 C119.63974,41 112.910421,39.3285714 113.349289,32 C115.910531,32.9985645 118.585399,33.7547696 121.32872,34.2558442 L121.32872,34.3025974 Z" id="Path" fill="#E0A194"></path>
                <path d="M190.439976,57.2205397 C189.140292,57.9562934 187.375584,58.137402 186.540925,59.3485659 C185.539334,60.7747962 186.421688,62.6311595 186.612467,64.3290527 C186.765774,66.2029793 186.140987,68.0595145 184.871606,69.5019675 C184.515836,69.9478605 184.116616,70.3609522 183.679236,70.7357699 C181.625294,72.2233023 179.108344,73.0197573 176.525014,72.9996276 C176.525014,72.9996276 175.249178,67.5663692 175.332643,67.0117241 C175.559194,65.1440415 176.978115,63.4121904 177.25236,61.4426342 C177.396038,59.3485046 177.654737,57.2629196 178.0274,55.1943871 C179.057951,51.1524899 182.036525,47.8088867 186.063977,46.1729143 C186.564772,45.9691671 187.256347,45.8672935 187.530592,46.320065 C187.621999,46.5117277 187.642993,46.7269697 187.590211,46.9313066 L187.590211,46.9313066 C187.2325,49.0819714 185.694342,50.8817382 184.215803,52.5909507 C185.535418,51.9226377 186.942842,51.4239862 188.401023,51.108124 C189.044903,50.9609732 189.998799,51.108124 189.986875,51.7080462 C189.986875,52.013667 189.71263,52.2400528 189.474156,52.4324807 C188.150625,53.5644095 186.839018,54.5831455 185.503563,55.6471586 C187.091199,55.1970273 188.760233,55.0659552 190.404205,55.2623028 C190.681006,55.2711502 190.947909,55.3622064 191.167322,55.5226464 C191.608499,56.054653 191.071932,56.8696417 190.439976,57.2205397 Z" id="Path" fill="#FFBBAB"></path>
                <path d="M190.60755,57.6475284 C189.490732,58.4047377 187.974319,58.5911277 187.257097,59.8376108 C186.39643,61.305432 187.154637,63.2159294 187.318573,64.9633356 C187.45031,66.8919084 186.913431,68.8025828 185.822652,70.2870998 C185.423514,70.5442885 185.000938,70.7513135 184.56239,70.9045166 C184.254632,71.0318278 183.917267,71.0318278 183.609509,70.9045166 C183.09168,70.5661554 182.862616,69.8536351 183.066469,69.2153573 C183.278618,68.6108189 183.539285,68.0297795 183.845168,67.4796005 C184.276621,66.4834177 184.35725,65.3375237 184.07058,64.2760225 C183.697161,63.458107 183.474052,62.5623435 183.414834,61.6432638 C183.510371,61.0762814 183.71314,60.5396771 184.009104,60.0705983 L185.033708,58.1601008 C185.209959,57.880439 185.335359,57.5636039 185.402565,57.2281509 C185.460123,56.8796245 185.315866,56.528163 185.043954,56.3544478 C184.711822,56.2548266 184.357881,56.3510569 184.101319,56.610734 C183.527541,57.0534102 182.144326,58.9406089 182.349247,57.1582546 C182.581504,55.9186599 183.004688,54.7355137 183.599263,53.6634422 C184.732318,51.4940735 186.046458,49.4537849 187.523494,47.5708194 C187.68504,47.3661363 187.8597,47.175341 188.046042,47 L188.046042,47 C187.738661,49.2133812 186.416922,51.0656317 185.146414,52.8246873 C186.280359,52.1368853 187.489758,51.6236924 188.742772,51.2986192 C189.296058,51.1471773 190.11574,51.2986192 190.105494,51.9160361 C190.105494,52.2305692 189.869836,52.4635567 189.664915,52.661596 C188.527605,53.8265335 187.400541,54.8749772 186.252986,55.9700184 C187.617241,55.5067607 189.051441,55.3718663 190.464106,55.5739397 C190.70196,55.5830451 190.93131,55.6767566 191.119852,55.8418753 C191.611661,56.4476428 191.15059,57.2863977 190.60755,57.6475284 Z" id="Path" fill="#E0A194"></path>
                <path d="M178.32872,73.0459555 C175.397279,76.8849228 171.803282,80.1986588 167.707062,82.8393323 C164.754477,84.6860486 161.368329,85.7714298 157.866742,85.9935054 C157.405413,86.0216985 156.94303,85.9579016 156.507895,85.8060196 C155.769019,85.5690249 155.126611,85.1094325 154.673451,84.4936189 C153.25778,82.7656912 152.437557,80.647019 152.329439,78.4389299 C152.250173,72.6709839 158.749993,69.483725 158.749993,69.483725 C158.749993,69.483725 173.47084,65.3149228 175.180723,66.0979518 C176.131916,66.5280663 176.969872,68.5462959 177.558706,70.2998397 C178.090921,71.7666405 178.32872,73.0459555 178.32872,73.0459555 Z" id="Path" fill="#FFFFFF"></path>
                <path d="M95.0376187,48.6442208 L97.8039386,48.6449098 C103.148172,48.6510615 107.480196,52.9830876 107.486347,58.3273207 L107.494502,91.1073978 C107.50065,96.4535128 103.167845,100.788475 97.8217283,100.789805 C97.8201219,100.789805 97.8185154,100.789805 97.8169102,100.784986 L95.0505903,100.784297 C89.7063572,100.778146 85.3743324,96.4461196 85.3681824,91.1018865 L85.3600272,58.3218094 C85.3538791,52.9756944 89.6866843,48.6407327 95.0328006,48.6394026 C95.034407,48.6394022 95.0360134,48.6394022 95.0376187,48.6442208 Z" id="Rectangle" fill="#FFFFFF" transform="translate(96.427264, 74.714604) rotate(11.240000) translate(-96.427264, -74.714604) "></path>
                <path d="M85.7755227,84.5326174 L60.9851663,84 L59.3287197,96.9825491 C59.3287197,96.9825491 88.8743172,106.525278 95.0042962,101.576374 C101.134275,96.6274709 102.32872,93.2653235 102.32872,93.2653235 C102.32872,93.2653235 99.6581222,83.1566891 85.7755227,84.5326174 Z" id="Path" fill="#FFFFFF"></path>
                <path d="M53.7868916,98.2343691 C54.621014,98.5498535 55.488195,98.7351566 56.3652009,98.785314 C57.5060457,98.9033736 58.7495666,98.9689623 59.9360452,98.98208 C61.2801193,99.0567953 62.6262971,98.8975857 63.9290021,98.5098416 C65.2382492,98.117008 66.3755683,97.1829225 67.1233677,95.8862945 C67.2525528,95.6598661 67.3237158,95.3962076 67.3287197,95.1254659 C67.3287197,94.2728131 66.3247763,94.0104584 65.5718187,94.0104584 C62.0009744,94.0104584 58.43013,94.0104584 54.8592857,94.0104584 C53.8097085,94.0104584 51.7333709,93.7874569 51.3683005,95.4009383 C51.0374555,96.7258296 52.8628072,97.8539548 53.7868916,98.2343691 Z" id="Path" fill="#FFBBAB"></path>
                <rect id="Rectangle" fill="#4864C8" x="40.3287197" y="92" width="49" height="4" rx="1.62"></rect>
                <path d="M178.32872,72.7406516 C175.286888,76.6504909 171.557548,80.0254026 167.307075,82.7148261 C164.243302,84.5956352 160.729639,85.7010538 157.09619,85.9272292 C156.617489,85.9559428 156.137693,85.8909681 155.686172,85.7362822 C155.476122,85.8071223 155.259831,85.8597514 155.039913,85.8935327 C150.410352,86.6573208 144.464774,83.1641133 140.32872,80.1314251 L140.32872,80.0415676 L142.032492,71.3253971 C144.719811,74.1175121 147.867443,76.4699754 151.350365,78.2893478 C153.803438,79.6311888 156.634642,80.2046779 159.446221,79.9292458 C160.206895,79.8376484 160.950435,79.6448349 161.65525,79.3564047 C167.347666,76.9068079 172.683664,73.7617711 177.529709,70 C178.081966,71.4377189 178.32872,72.7406516 178.32872,72.7406516 Z" id="Path" fill="#020202" opacity="0.1"></path>
                <path d="M138.800981,244.340265 C138.800981,244.340265 137.571296,247.425331 139.080455,249.228734 C140.589615,251.032137 156.217801,260.888472 166.726024,252.948962 C177.234246,245.009452 152.528745,244 152.528745,244 L138.800981,244.340265 Z" id="Path" fill="#4864C8"></path>
                <path d="M139.29023,237.11408 C140.314562,236.604888 141.552192,236.928454 142.205735,237.876311 C144.361127,240.369413 147.63144,241.561478 150.859696,241.030774 C154.411522,240.163004 155.822997,236.023504 157.593126,236 C159.363254,235.976597 168.76923,244.103151 169.289856,247.585959 C169.810482,251.068768 165.020723,253.625173 159.698768,253.976972 C154.376814,254.328771 142.344569,250.57625 140.030675,247.750132 C137.716782,244.924015 138.063866,238.896528 139.29023,237.11408 Z" id="Path" fill="#FFFFFF"></path>
                <circle id="Oval" fill="#4864C8" cx="242.82872" cy="150.5" r="5.5"></circle>
                <rect id="Rectangle" fill="#4864C8" x="241.32872" y="86" width="3" height="59"></rect>
                <polygon id="Path" fill="#4864C8" points="237.32872 85 248.32872 85 242.656074 76"></polygon>
                <path d="M248.174217,104 L243.32872,104 L243.32872,101.539022 L248.174217,101.539022 C250.774929,101.539022 252.883222,99.4173827 252.883222,96.8002081 L252.883222,93 L255.32872,93 L255.32872,96.8002081 C255.32872,98.7097116 254.574944,100.541007 253.233214,101.89123 C251.891485,103.241453 250.071709,104 248.174217,104 Z" id="Path" fill="#4864C8"></path>
                <rect id="Rectangle" fill="#4864C8" x="250.32872" y="88" width="8" height="9"></rect>
                <path d="M244.32872,122 L241.923384,122 L241.923384,117.652174 C241.917242,115.666229 240.328016,114.057846 238.365725,114.05163 C236.499395,114.05163 234.709505,113.301297 233.389811,111.965695 C232.070116,110.630093 231.32872,108.818627 231.32872,106.929801 L231.32872,97 L233.734055,97 L233.734055,106.975091 C233.740206,109.561343 235.810276,111.656366 238.365725,111.662591 C241.658996,111.662591 244.32872,114.364495 244.32872,117.697464 L244.32872,122 Z" id="Path" fill="#4864C8"></path>
                <rect id="Rectangle" fill="#4864C8" transform="translate(232.328720, 98.500000) rotate(-180.000000) translate(-232.328720, -98.500000) " x="228.32872" y="94" width="8" height="9" rx="3.43"></rect>
                <rect id="Rectangle" fill="#4864C8" x="220.32872" y="158" width="49" height="11" rx="4.51"></rect>
                <rect id="Rectangle" fill="#4864C8" x="220.32872" y="167" width="44" height="9" rx="4.03"></rect>
                <rect id="Rectangle" fill="#4864C8" x="223.32872" y="173" width="39" height="9" rx="3.5"></rect>
                <rect id="Rectangle" fill="url(#linearGradient-2)" x="220.32872" y="158" width="49" height="11" rx="4.51"></rect>
                <rect id="Rectangle" fill="url(#linearGradient-3)" x="220.32872" y="167" width="44" height="9" rx="4.03"></rect>
                <rect id="Rectangle" fill="url(#linearGradient-4)" x="223.32872" y="173" width="39" height="9" rx="3.5"></rect>
                <path d="M78.163539,90.3182464 L68.6648661,63.7041442 C68.2905225,62.6967362 67.3802457,62.0138234 66.3432164,61.9623836 L31.3287197,60 L41.0394663,92.5128647 L75.6409772,93.9991671 C76.5115217,94.0215151 77.3359739,93.592952 77.8414866,92.8553081 C78.3469994,92.1176641 78.4676609,91.1671178 78.163539,90.3182464 Z" id="Path" fill="#4864C8"></path>
                <path d="M78.1642434,90.2251289 L68.4953346,63.1235343 C68.280577,62.4675719 67.707624,62.0097376 67.0422038,61.9623691 L31.3287197,60 L41.0535182,92.5126243 L75.548608,93.9989157 C76.4447781,94.0247483 77.2950518,93.587668 77.8188898,92.831885 C78.3427278,92.076102 78.4720708,91.0998107 78.1642434,90.2251289 Z" id="Path" fill="url(#linearGradient-5)"></path>
                <path d="M77.160879,90.787442 L67.262405,63.3196284 C66.9316231,62.4438392 66.135072,61.8470727 65.2238177,61.7923433 L32.7876281,60.0085676 C32.0227561,59.9409568 31.2766731,60.276758 30.8055174,60.9006868 C30.3343618,61.5246156 30.2022653,62.3517455 30.4545781,63.0981137 L38.8354372,90.8690526 C39.1247835,91.8192868 39.9537636,92.4871397 40.9193264,92.5479003 L74.895782,93.9935747 C75.6778024,94.0533849 76.4342428,93.6925583 76.8954728,93.03971 C77.3567028,92.3868618 77.4571003,91.5348768 77.160879,90.787442 Z" id="Path" fill="#4864C8"></path>
            </g>
        </g>
    </g>
</svg>