<svg enable-background="new 0 0 418 418" viewBox="0 0 418 418" xmlns="http://www.w3.org/2000/svg" xmlns:xlink="http://www.w3.org/1999/xlink"><linearGradient id="a"><stop offset="0" stop-color="#4cb5ea"/><stop offset="1" stop-color="#5a6cdd"/></linearGradient><linearGradient id="b" gradientUnits="userSpaceOnUse" x1="203.0259" x2="212.0259" xlink:href="#a" y1=".1286" y2="418.1286"/><linearGradient id="c" gradientUnits="userSpaceOnUse" x1="270.5098" x2="279.5098" xlink:href="#a" y1="-1.3244" y2="416.6756"/><linearGradient id="d" gradientUnits="userSpaceOnUse" x1="151.6846" x2="160.6846" xlink:href="#a" y1="1.2341" y2="419.2341"/><linearGradient id="e" gradientUnits="userSpaceOnUse" x1="209.8095" x2="218.8095" xlink:href="#a" y1="-.01743" y2="417.9826"/><path d="m207.6 408.8c-14.6 0-29.1-2.9-42.6-8.8l-64.4-28c-23.3-10.1-48-16.6-73.3-19.1l-21.2-2.1c-3.4-.4-6.1-3.3-6.1-6.8v-66.4c0-1.5.5-2.9 1.4-4.1 1.6-2.1 39.5-51.7 97.5-38.8 32.6 7.2 58.8 20.8 75.1 30.9 11.8 7.3 25.7 11.2 40 11.2h64.4c11.1 0 20.9 5.9 26.3 14.7l55.5-63.9c10.8-14.4 28.4-23.2 46.8-23.2h4.1c2.3 0 4.4 1.2 5.7 3.1s1.5 4.4.5 6.5l-50.1 114c-11 25-33.3 43.8-59.8 50.4l-8.8 2.2-51.4 20.6c-12.6 5.1-26.1 7.6-39.6 7.6zm-194-71 15 1.5c26.7 2.7 52.7 9.5 77.4 20.2l64.4 28c22.7 9.9 48.8 10.2 71.7 1.1l51.8-20.7c.3-.1.6-.2.9-.3l9.3-2.3c22.4-5.6 41.3-21.6 50.6-42.7l45.8-104.1c-11.7 1.7-22.5 8-29.7 17.6l-61.4 70.9v.8c0 17.1-13.9 31-31 31h-89.9c-11.7 0-23.2 1.9-34.3 5.6l-2.5-6.4-2.1-6.5.3-.1c12.4-4.1 25.4-6.3 38.6-6.3h89.9c9.6 0 17.3-7.8 17.3-17.3 0-9.6-7.8-17.3-17.3-17.3h-64.4c-16.9 0-33.3-4.6-47.2-13.2-15.4-9.5-40.2-22.3-70.9-29.2-43.9-9.8-75.5 23.9-82.3 31.9z" fill="url(#b)"/><path d="m268.3 202.9c-10.5 0-22.2-3.2-35.2-9.7-1.6-.8-2.8-2.2-3.4-3.8-.5-1.5-12.7-36.5 6.6-62.4 14.1-18.8 40.5-27.3 78.6-25.2 3.5.2 6.2 3 6.4 6.5.1 2.7 2.9 66.6-29.6 87.8-6.8 4.5-14.7 6.8-23.4 6.8zm-26.5-20.7c17.9 8.4 32.2 9.2 42.6 2.4 19.3-12.6 23.5-50 23.6-69.5-29.9-.7-50.2 6-60.6 20-12.5 16.7-7.7 39.5-5.6 47.1z" fill="url(#c)"/><path d="m164.1 113.6c-12.1 0-26-2.6-38.2-11.5-20.6-15.1-30.1-43.9-28.2-85.5.2-3.5 2.9-6.3 6.4-6.5 2.9-.2 72.7-3.9 96.2 31.3 10.9 16.4 10 37.9-2.7 63.8-.8 1.6-2.1 2.8-3.8 3.4-.8.4-13.6 5-29.7 5zm-53-90.1c-.6 33.3 7.1 56.1 22.8 67.6 18.8 13.8 44.6 7.9 52.7 5.6 9.3-20.1 10-36.1 2.3-47.7-14.3-21.5-56.3-25.7-77.8-25.5z" fill="url(#d)"/><path d="m217.3 288c-.2 0-.4 0-.6 0-3.6-.3-6.3-3.5-6.2-7.1.4-8 1.1-15.6 2-22.8 2.8-48.2 1.4-160.5-69.6-191.5-3.4-1.5-5-5.5-3.5-9 1.5-3.4 5.5-5 9-3.5 41.8 18.3 68.1 63.9 76.1 131.7.7 6.1 1.2 12.1 1.6 17.9 18.7-47.2 47.3-63.9 49-64.9 3.3-1.9 7.4-.7 9.3 2.6 1.8 3.3.7 7.4-2.6 9.3-.7.4-44.6 26.7-55.6 107.9-.8 13.9-2 22.7-2.2 23.5-.4 3.5-3.3 5.9-6.7 5.9z" fill="url(#e)"/></svg>