<?xml version="1.0" encoding="UTF-8"?>
<svg width="29px" height="28px" viewBox="0 0 29 28" version="1.1" xmlns="http://www.w3.org/2000/svg" xmlns:xlink="http://www.w3.org/1999/xlink">
    <title>heart</title>
    <defs>
        <linearGradient x1="50%" y1="-5.42796926%" x2="50%" y2="103.104457%" id="linearGradient-1">
            <stop stop-color="#4DBBED" offset="0%"></stop>
            <stop stop-color="#5C6DDD" offset="100%"></stop>
        </linearGradient>
    </defs>
    <g id="Page-1" stroke="none" stroke-width="1" fill="none" fill-rule="evenodd">
        <g id="workers-desktop" transform="translate(-532.000000, -1426.000000)" fill="url(#linearGradient-1)" fill-rule="nonzero">
            <g id="heart" transform="translate(532.000000, 1426.830328)">
                <path d="M14.5,26.1696721 C14.0865234,26.1696721 13.6900391,26.0212638 13.3785156,25.7472792 C12.2060547,24.7141288 11.0789062,23.7437665 10.0820312,22.8875646 L10.0763672,22.8818565 C7.15371094,20.3760388 4.63320312,18.2069938 2.87734375,16.0721968 C0.911914063,13.6862473 0,11.4258741 0,8.9543044 C0,6.55123086 0.815625,4.33652175 2.29960938,2.71544601 C3.80058594,1.07153821 5.86230469,0.169672131 8.09960938,0.169672131 C9.77617187,0.169672131 11.3054687,0.700517356 12.6535156,1.75649979 C13.3332031,2.28734502 13.9505859,2.93805852 14.4943359,3.69722427 C15.0380859,2.93805852 15.6554687,2.28734502 16.3351562,1.75649979 C17.6945312,0.700517356 19.2238281,0.169672131 20.9003906,0.169672131 C23.1376953,0.169672131 25.1994141,1.07153821 26.7003906,2.71544601 C28.184375,4.33652175 29,6.55123086 29,8.9543044 C29,11.4258741 28.0880859,13.6862473 26.1226562,16.0721968 C24.3667969,18.2069938 21.8462891,20.3760388 18.9236328,22.8818565 C17.9267578,23.7380585 16.7939453,24.7084208 15.6214844,25.7472792 C15.3099609,26.0212638 14.9134766,26.1696721 14.5,26.1696721 Z M8.09960938,1.88207608 C6.34375,1.88207608 4.72382813,2.58986972 3.55136719,3.87417268 C2.35625,5.1813077 1.69921875,6.97933185 1.69921875,8.9543044 C1.69921875,11.0320212 2.46386719,12.8928335 4.18574219,14.9819663 C5.8453125,17.002603 8.32050781,19.1259839 11.1808594,21.5804295 L11.1865234,21.5861376 C12.1890625,22.4480475 13.321875,23.4184098 14.5,24.4572682 C15.6894531,23.4127018 16.8222656,22.4423395 17.8248047,21.5804295 C20.6851563,19.1202759 23.1546875,17.002603 24.8199219,14.9819663 C26.5361328,12.8928335 27.3064453,11.0320212 27.3064453,8.9543044 C27.3064453,6.98503986 26.6494141,5.1813077 25.4542969,3.87417268 C24.2761719,2.58986972 22.65625,1.88207608 20.9003906,1.88207608 C19.6089844,1.88207608 18.4251953,2.29305303 17.3830078,3.10929891 C16.4541016,3.83421659 15.8027344,4.75320671 15.4232422,5.39250418 C15.225,5.72356895 14.8851562,5.9176414 14.5,5.9176414 C14.1148437,5.9176414 13.775,5.71786093 13.5767578,5.39250418 C13.1972656,4.75320671 12.5458984,3.83421659 11.6169922,3.10929891 C10.5748047,2.29305303 9.39101563,1.88207608 8.09960938,1.88207608 Z" id="Shape"></path>
            </g>
        </g>
    </g>
</svg>