<svg enable-background="new 0 0 29 28" viewBox="0 0 29 28" xmlns="http://www.w3.org/2000/svg" xmlns:xlink="http://www.w3.org/1999/xlink"><linearGradient id="a"><stop offset="0" stop-color="#4dbbed"/><stop offset="1" stop-color="#5c6ddd"/></linearGradient><linearGradient id="b" gradientUnits="userSpaceOnUse" x1="14.5" x2="14.5" xlink:href="#a" y1=".4795" y2="26.4795"/><linearGradient id="c" gradientUnits="userSpaceOnUse" x1="14.5172" x2="14.5172" xlink:href="#a" y1="1.6711" y2="26.0908"/><path d="m14.5 26.5c-.4 0-.8-.1-1.1-.4-1.2-1-2.3-2-3.3-2.9-2.9-2.5-5.4-4.7-7.2-6.8-2-2.4-2.9-4.7-2.9-7.1s.8-4.7 2.3-6.3 3.6-2.5 5.8-2.5c1.7 0 3.2.5 4.6 1.6.6.5 1.3 1.1 1.8 1.9.5-.8 1.2-1.4 1.8-1.9 1.4-1.1 2.9-1.6 4.6-1.6 2.2 0 4.3.9 5.8 2.5s2.3 3.9 2.3 6.3c0 2.5-.9 4.7-2.9 7.1-1.8 2.1-4.3 4.3-7.2 6.8-1 .9-2.1 1.8-3.3 2.9-.3.2-.7.4-1.1.4zm-6.4-24.3c-1.8 0-3.4.7-4.5 2-1.2 1.3-1.9 3.1-1.9 5.1 0 2.1.8 3.9 2.5 6 1.7 2 4.1 4.1 7 6.6 1 .9 2.1 1.8 3.3 2.9 1.2-1 2.3-2 3.3-2.9 2.9-2.5 5.3-4.6 7-6.6 1.7-2.1 2.5-3.9 2.5-6 0-2-.7-3.8-1.9-5.1s-2.8-2-4.6-2c-1.3 0-2.5.4-3.5 1.2-.9.7-1.6 1.6-2 2.3-.2.3-.5.5-.9.5s-.6-.2-.8-.5c-.4-.6-1-1.6-2-2.3-1-.8-2.2-1.2-3.5-1.2z" fill="url(#b)" transform="translate(0 .520492)"/><path d="m4.7 2.6-3.7 4.9.2 5.1 5 6.6 8 6.9 10.2-8.6 3.7-5.9v-3.3l-2.4-4.8-3.1-1.8-4.6.4-3.3 3.1-2.9-2.2-3.2-1.3z" fill="url(#c)"/></svg>