<svg enable-background="new 0 0 512 512" viewBox="0 0 512 512" xmlns="http://www.w3.org/2000/svg" xmlns:xlink="http://www.w3.org/1999/xlink"><linearGradient id="a"><stop offset="0" stop-color="#4cb5ea"/><stop offset="1" stop-color="#5a6cdd"/></linearGradient><linearGradient id="b" gradientUnits="userSpaceOnUse" x1="327.6383" x2="353.6383" xlink:href="#a" y1="-3.9302" y2="503.0698"/><linearGradient id="c" gradientUnits="userSpaceOnUse" x1="410.7964" x2="436.7964" xlink:href="#a" y1="-8.1947" y2="498.8053"/><linearGradient id="d" gradientUnits="userSpaceOnUse" x1="243.3141" x2="269.3141" xlink:href="#a" y1=".3941" y2="507.3941"/><path d="m353 344.1c-3.9-3.9-10.3-3.8-14.1.1l-.3.3c-3.9 3.9-3.8 10.3.1 14.1 1.9 1.9 4.5 2.9 7 2.9 2.6 0 5.2-1 7.1-3l.3-.3c3.9-3.9 3.8-10.2-.1-14.1z" fill="url(#b)"/><path d="m460.6 239.3h-26.6v-26.6c0-5.5-4.5-10-10-10s-10 4.5-10 10v26.6h-26.6c-5.5 0-10 4.5-10 10s4.5 10 10 10h26.6v26.6c0 5.5 4.5 10 10 10s10-4.5 10-10v-26.6h26.6c5.5 0 10-4.5 10-10s-4.5-10-10-10z" fill="url(#c)"/><path d="m456.7 167.6c-9.3-69-67-120.7-135.5-120.7-34.6 0-66.9 12.9-92.1 36.5-25.2-23.6-57.6-36.5-92.1-36.5-75.6 0-137 62.9-137 140.1 0 15.3 4.5 32.4 13.3 51.3h-3.3c-5.5 0-10 4.5-10 10s4.5 10 10 10h14c18.7 31.6 48.2 67.6 88.5 107.6 54.6 54.3 109.9 96.7 110.5 97.2 1.8 1.4 3.9 2.1 6.1 2.1s4.3-.7 6.1-2.1c.4-.3 42.8-32.8 89.7-77 4-3.8 4.2-10.1.4-14.1s-10.1-4.2-14.1-.4c-35.8 33.7-68.8 60.5-82 70.9-15.7-12.4-59.4-47.9-102.6-90.8-34.6-34.4-61.1-65.7-78.9-93.3h89.3c4.5 0 8.4-3 9.6-7.2l17.5-60.9 48.4 155c1.3 4.2 5.2 7 9.5 7s8.2-2.8 9.5-7l26.8-85.9h44.7c5.5 0 10-4.5 10-10s-4.5-10-10-10h-52c-4.4 0-8.2 2.8-9.5 7l-19.5 62.2-48.8-156.3c-1.3-4.2-5.2-7.1-9.7-7-4.4.1-8.3 3-9.5 7.2l-24.6 85.8h-93.8c-10.3-19.5-15.6-36.7-15.6-51.3 0-66.2 52.4-120.1 116.9-120.1 32.4 0 62.5 13.3 84.8 37.5 1.9 2.1 4.6 3.2 7.4 3.2s5.5-1.2 7.4-3.2c22.3-24.2 52.4-37.5 84.8-37.5 55.7 0 103.1 40.2 114.3 95.1-3.8-.5-7.6-.7-11.5-.7-48.5 0-88 39.5-88 88s39.5 88 88 88 88-39.5 88-88c-.1-37-23-68.7-55.4-81.7zm-32.7 149.7c-37.5 0-68-30.5-68-68s30.5-68 68-68 68 30.5 68 68-30.5 68-68 68z" fill="url(#d)"/></svg>