<svg height="28" viewBox="0 0 29 28" width="29" xmlns="http://www.w3.org/2000/svg" xmlns:xlink="http://www.w3.org/1999/xlink"><linearGradient id="a" x1="50%" x2="50%" y1="-5.427969%" y2="103.104457%"><stop offset="0" stop-color="#4dbbed"/><stop offset="1" stop-color="#5c6ddd"/></linearGradient><path d="m14.5 26.4795082c-.4134766 0-.8099609-.1484083-1.1214844-.422393-1.1724609-1.0331504-2.2996094-2.0035126-3.2964844-2.8597146l-.005664-.005708c-2.92265626-2.5058178-5.44316408-4.6748628-7.19902345-6.8096597-1.96542969-2.3859495-2.87734375-4.6463227-2.87734375-7.11789243 0-2.40307355.815625-4.61778266 2.29960938-6.2388584 1.50097656-1.64390779 3.56269531-2.54577387 5.8-2.54577387 1.67656249 0 3.20585932.53084522 4.55390622 1.58682766.6796875.53084522 1.2970703 1.18155873 1.8408203 1.94072448.54375-.75916575 1.1611328-1.40987926 1.8408203-1.94072448 1.359375-1.05598244 2.8886719-1.58682766 4.5652344-1.58682766 2.2373047 0 4.2990235.90186608 5.8 2.54577387 1.4839844 1.62107574 2.2996094 3.83578485 2.2996094 6.2388584 0 2.47156973-.9119141 4.73194293-2.8773438 7.11789243-1.7558593 2.1347969-4.2763671 4.3038419-7.1990234 6.8096597-.996875.856202-2.1296875 1.8265642-3.3021484 2.8654226-.3115235.2739847-.7080078.422393-1.1214844.422393zm-6.40039062-24.28759605c-1.75585938 0-3.37578125.70779363-4.54824219 1.9920966-1.19511719 1.30713501-1.85214844 3.10515916-1.85214844 5.08013172 0 2.07771683.76464844 3.93852913 2.48652344 6.02766193 1.65957031 2.0206366 4.13476562 4.1440175 6.99511721 6.5984632l.005664.005708c1.0025391.86191 2.1353516 1.8322722 3.3134766 2.8711306 1.1894531-1.0445664 2.3222656-2.0149286 3.3248047-2.8768386 2.8603516-2.4601537 5.3298828-4.5778266 6.9951172-6.5984632 1.7162109-2.0891328 2.4865234-3.9499451 2.4865234-6.02766193 0-1.96926455-.6570312-3.77299671-1.8521484-5.08013172-1.178125-1.28430297-2.7980469-1.9920966-4.5539063-1.9920966-1.2914062 0-2.4751953.41097695-3.5173828 1.22722283-.9289062.72491767-1.5802734 1.64390779-1.9597656 2.28320527-.1982422.33106476-.538086.52513721-.9232422.52513721-.3851563 0-.725-.19978046-.9232422-.52513721-.3794922-.63929748-1.0308594-1.5582876-1.9597656-2.28320527-1.0421875-.81624588-2.22597657-1.22722283-3.51738282-1.22722283z" fill="url(#a)" transform="translate(0 .520492)"/></svg>