<?xml version="1.0" encoding="utf-8"?>
<!-- Generator: Adobe Illustrator 24.0.3, SVG Export Plug-In . SVG Version: 6.00 Build 0)  -->
<svg version="1.1" id="Calque_1" xmlns="http://www.w3.org/2000/svg" xmlns:xlink="http://www.w3.org/1999/xlink" x="0px" y="0px"
	 viewBox="0 0 29 28" style="enable-background:new 0 0 29 28;" xml:space="preserve">
<style type="text/css">
	.st0{fill:url(#Shape_1_);}
	.st1{fill:url(#SVGID_1_);}
</style>
<title>heart</title>
<g id="Page-1">
	<g id="workers-desktop" transform="translate(-843.000000, -647.000000)">
		<g id="heart" transform="translate(843.000000, 647.520492)">
			<linearGradient id="Shape_1_" gradientUnits="userSpaceOnUse" x1="14.5" y1="0.4795" x2="14.5" y2="26.4795">
				<stop  offset="0" style="stop-color:#4DBBED"/>
				<stop  offset="1" style="stop-color:#5C6DDD"/>
			</linearGradient>
			<path id="Shape" class="st0" d="M14.5,26.5c-0.4,0-0.8-0.1-1.1-0.4c-1.2-1-2.3-2-3.3-2.9l0,0c-2.9-2.5-5.4-4.7-7.2-6.8
				C0.9,14,0,11.7,0,9.3C0,6.9,0.8,4.6,2.3,3c1.5-1.6,3.6-2.5,5.8-2.5c1.7,0,3.2,0.5,4.6,1.6C13.3,2.6,14,3.2,14.5,4
				c0.5-0.8,1.2-1.4,1.8-1.9c1.4-1.1,2.9-1.6,4.6-1.6c2.2,0,4.3,0.9,5.8,2.5C28.2,4.6,29,6.9,29,9.3c0,2.5-0.9,4.7-2.9,7.1
				c-1.8,2.1-4.3,4.3-7.2,6.8c-1,0.9-2.1,1.8-3.3,2.9C15.3,26.3,14.9,26.5,14.5,26.5z M8.1,2.2c-1.8,0-3.4,0.7-4.5,2
				C2.4,5.5,1.7,7.3,1.7,9.3c0,2.1,0.8,3.9,2.5,6c1.7,2,4.1,4.1,7,6.6l0,0c1,0.9,2.1,1.8,3.3,2.9c1.2-1,2.3-2,3.3-2.9
				c2.9-2.5,5.3-4.6,7-6.6c1.7-2.1,2.5-3.9,2.5-6c0-2-0.7-3.8-1.9-5.1c-1.2-1.3-2.8-2-4.6-2c-1.3,0-2.5,0.4-3.5,1.2
				c-0.9,0.7-1.6,1.6-2,2.3c-0.2,0.3-0.5,0.5-0.9,0.5S13.8,6,13.6,5.7c-0.4-0.6-1-1.6-2-2.3C10.6,2.6,9.4,2.2,8.1,2.2z"/>
		</g>
	</g>
</g>
<linearGradient id="SVGID_1_" gradientUnits="userSpaceOnUse" x1="14.5172" y1="1.6711" x2="14.5172" y2="26.0908">
	<stop  offset="0" style="stop-color:#4DBBED"/>
	<stop  offset="1" style="stop-color:#5C6DDD"/>
</linearGradient>
<polygon class="st1" points="4.7,2.6 1,7.5 1.2,12.6 6.2,19.2 14.2,26.1 24.4,17.5 28.1,11.6 28.1,8.3 25.7,3.5 22.6,1.7 18,2.1 
	14.7,5.2 11.8,3 8.6,1.7 "/>
</svg>
