<svg height="34" viewBox="0 0 36 34" width="36" xmlns="http://www.w3.org/2000/svg" xmlns:xlink="http://www.w3.org/1999/xlink"><linearGradient id="a" x1="50%" x2="50%" y1="0%" y2="100%"><stop offset="0" stop-color="#52b9ec"/><stop offset="1" stop-color="#5b73df"/></linearGradient><path d="m33.3680355 14.7158686c-.0010337-.0007743-.0018091-.0018068-.0025844-.0025812l-13.8180693-13.80080544c-.5889872-.58853149-1.3720637-.91248196-2.2050193-.91248196s-1.6160321.32395047-2.2052778.91248196l-13.81083285 13.79383594c-.00465197.0046463-.00956236.0095507-.01395585.014197-1.20950426 1.2150078-1.20743673 3.1863302.00594416 4.3982405.55435611.5539423 1.28626125.8745371 2.06907927.9083518.03204669.0030976.06409339.0046463.09639851.0046463h.55047953v10.1562984c0 2.0100415 1.63748269 3.6452814 3.64996341 3.6452814h5.40607052c.5481536 0 .9924137-.4439799.9924137-.9912109v-7.9627279c0-.9171282.7471532-1.6631177 1.6653944-1.6631177h3.1886461c.9182411 0 1.6651359.7459895 1.6651359 1.6631177v7.9627279c0 .547231.4442601.9912109.9924137.9912109h5.4060705c2.0127392 0 3.6499634-1.6352399 3.6499634-3.6452814v-10.1562984h.5106796c.8326971 0 1.6157736-.3239504 2.2052777-.91274 1.2146731-1.2137171 1.21519-3.1886533.0018091-4.4031449zm-1.4054026 3.0015107c-.2142476.213988-.4990497.3319524-.8016842.3319524h-1.5030933c-.5481535 0-.9924138.4437218-.9924138.9912109v11.1475093c0 .9168701-.7468947 1.6628596-1.6651359 1.6628596h-4.4136567v-6.971517c0-2.0100415-1.6372243-3.6455396-3.6499634-3.6455396h-3.1886461c-2.0127392 0-3.6502219 1.6354981-3.6502219 3.6455396v6.971517h-4.41365672c-.91798272 0-1.6651359-.7459895-1.6651359-1.6628596v-11.1475093c0-.5474891-.44426024-.9912109-.99241376-.9912109h-1.47724922c-.01550646-.0010325-.0307545-.0018069-.04651939-.0020651-.2956566-.0051625-.57296386-.1223526-.78075049-.3301455-.44193428-.4413986-.44193428-1.1597684 0-1.6014252.00025842 0 .00025842-.0002581.00051685-.0005162l.00077534-.0007744 13.81755239-13.80028916c.2139892-.21398797.4985329-.33169427.8014258-.33169427.3026345 0 .5871781.1177063.8014258.33169427l13.8144511 13.79744976c.0020676.002065.0043935.00413.006461.0061951.4396083.4421729.438833 1.158994-.0020675 1.5996183z" fill="url(#a)" transform="translate(.639794)"/></svg>