<svg enable-background="new 0 0 122 122" viewBox="0 0 122 122" xmlns="http://www.w3.org/2000/svg"><g transform="matrix(.69465837 .7193398 -.7193398 .69465837 62.061301 .198079)"><path d="m81.9 45.1c-.6-1.3-.6-2.9 0-4.2l3.2-7.1c1.2-2.6 1.2-5.7.1-8.3-1.1-2.7-3.3-4.8-6-5.8l-7.2-2.7c-1.4-.5-2.5-1.6-3-3l-2.7-7.3c-1-2.7-3.1-4.9-5.8-6-2.7-1.1-5.7-1.1-8.3.1l-7.1 3.2c-1.3.6-2.9.6-4.2 0l-7.1-3.2c-2.6-1.2-5.7-1.3-8.3-.1-2.7 1.1-4.8 3.3-5.8 6l-2.7 7.3c-.5 1.4-1.6 2.5-3 3l-7.3 2.7c-2.7 1-4.9 3.1-6 5.8-1.1 2.7-1.1 5.7.1 8.3l3.2 7.1c.6 1.3.6 2.9 0 4.2l-3.2 7.1c-1.2 2.6-1.2 5.7-.1 8.3 1.1 2.7 3.3 4.8 6 5.8l7.3 2.7c1.4.5 2.5 1.6 3 3l2.7 7.3c1 2.7 3.1 4.9 5.8 6 1.3.5 2.6.8 4 .8 1.5 0 3-.3 4.3-.9l7.1-3.2c1.3-.6 2.9-.6 4.2 0l7.1 3.2c2.6 1.2 5.7 1.2 8.3.1 2.7-1.1 4.8-3.3 5.8-6l2.7-7.3c.5-1.4 1.6-2.5 3-3l7.3-2.7c2.7-1 4.9-3.1 6-5.8s1.1-5.7-.1-8.3z" fill="#f10000"/><g fill="#fafafa" transform="translate(19 17)"><path d="m28.6 17.3c-3.1-3.1-8.2-3.1-11.3 0s-3.1 8.2 0 11.4l5 5c1.6 1.6 3.6 2.3 5.7 2.3 2 0 4.1-.8 5.7-2.3 3.1-3.1 3.1-8.2 0-11.4zm1.2 12.6c-1 1-2.7 1-3.8 0l-5-5c-1-1-1-2.7 0-3.8.5-.5 1.2-.8 1.9-.8s1.4.3 1.9.8l5 5c1.1 1.1 1.1 2.8 0 3.8z"/><path d="m12.2 26.2c-1-1-2.7-1-3.8 0-1 1-1 2.7 0 3.8l4.4 4.4-3.8 3.8-4.4-4.4c-1-1-2.7-1-3.8 0s-1 2.7 0 3.8l12.6 12.6c.5.5 1.2.8 1.9.8s1.4-.3 1.9-.8c1-1 1-2.7 0-3.8l-4.4-4.4 3.8-3.8 4.4 4.4c.5.5 1.2.8 1.9.8s1.4-.3 1.9-.8c1-1 1-2.7 0-3.8z"/><path d="m46.2 17.3-10.7-10.7 1.9-1.9c1-1 1-2.7 0-3.8s-2.7-1-3.8 0l-3.8 3.8-3.8 3.8c-1 1-1 2.7 0 3.8.5.5 1.2.8 1.9.8s1.4-.3 1.9-.8l1.9-1.9 10.7 10.7c.5.5 1.2.8 1.9.8s1.4-.3 1.9-.8c1-1 1-2.7 0-3.8z"/></g></g></svg>