<?xml version="1.0" encoding="utf-8"?>
<!-- Generator: Adobe Illustrator 24.0.3, SVG Export Plug-In . SVG Version: 6.00 Build 0)  -->
<svg version="1.1" id="Calque_1" xmlns="http://www.w3.org/2000/svg" xmlns:xlink="http://www.w3.org/1999/xlink" x="0px" y="0px"
	 viewBox="0 0 122 122" style="enable-background:new 0 0 122 122;" xml:space="preserve">
<style type="text/css">
	.st0{fill:#F10000;}
	.st1{fill:#FAFAFA;}
</style>
<title>hot</title>
<g id="Page-1">
	<g id="plans-desktop" transform="translate(-1048.000000, -641.000000)">
		
			<g id="hot" transform="translate(1109.000000, 702.000000) rotate(46.000000) translate(-1109.000000, -702.000000) translate(1066.000000, 659.000000)">
			<path id="Path" class="st0" d="M81.9,45.1c-0.6-1.3-0.6-2.9,0-4.2l3.2-7.1c1.2-2.6,1.2-5.7,0.1-8.3c-1.1-2.7-3.3-4.8-6-5.8L72,17
				c-1.4-0.5-2.5-1.6-3-3l-2.7-7.3c-1-2.7-3.1-4.9-5.8-6c-2.7-1.1-5.7-1.1-8.3,0.1l-7.1,3.2c-1.3,0.6-2.9,0.6-4.2,0l-7.1-3.2
				c-2.6-1.2-5.7-1.3-8.3-0.1c-2.7,1.1-4.8,3.3-5.8,6L17,14c-0.5,1.4-1.6,2.5-3,3l-7.3,2.7c-2.7,1-4.9,3.1-6,5.8
				c-1.1,2.7-1.1,5.7,0.1,8.3l3.2,7.1c0.6,1.3,0.6,2.9,0,4.2l-3.2,7.1c-1.2,2.6-1.2,5.7-0.1,8.3c1.1,2.7,3.3,4.8,6,5.8L14,69
				c1.4,0.5,2.5,1.6,3,3l2.7,7.3c1,2.7,3.1,4.9,5.8,6c1.3,0.5,2.6,0.8,4,0.8c1.5,0,3-0.3,4.3-0.9l7.1-3.2c1.3-0.6,2.9-0.6,4.2,0
				l7.1,3.2c2.6,1.2,5.7,1.2,8.3,0.1c2.7-1.1,4.8-3.3,5.8-6L69,72c0.5-1.4,1.6-2.5,3-3l7.3-2.7c2.7-1,4.9-3.1,6-5.8
				c1.1-2.7,1.1-5.7-0.1-8.3L81.9,45.1z"/>
			<g id="Group" transform="translate(19.000000, 17.000000)">
				<path id="Shape" class="st1" d="M28.6,17.3c-3.1-3.1-8.2-3.1-11.3,0s-3.1,8.2,0,11.4l5,5c1.6,1.6,3.6,2.3,5.7,2.3
					c2,0,4.1-0.8,5.7-2.3c3.1-3.1,3.1-8.2,0-11.4L28.6,17.3z M29.8,29.9c-1,1-2.7,1-3.8,0l-5-5c-1-1-1-2.7,0-3.8
					c0.5-0.5,1.2-0.8,1.9-0.8s1.4,0.3,1.9,0.8l5,5C30.9,27.2,30.9,28.9,29.8,29.9L29.8,29.9z"/>
				<path id="Path_1_" class="st1" d="M12.2,26.2c-1-1-2.7-1-3.8,0c-1,1-1,2.7,0,3.8l4.4,4.4l-3.8,3.8l-4.4-4.4c-1-1-2.7-1-3.8,0
					s-1,2.7,0,3.8l12.6,12.6c0.5,0.5,1.2,0.8,1.9,0.8c0.7,0,1.4-0.3,1.9-0.8c1-1,1-2.7,0-3.8l-4.4-4.4l3.8-3.8l4.4,4.4
					c0.5,0.5,1.2,0.8,1.9,0.8s1.4-0.3,1.9-0.8c1-1,1-2.7,0-3.8L12.2,26.2z"/>
				<path id="Path_2_" class="st1" d="M46.2,17.3L35.5,6.6l1.9-1.9c1-1,1-2.7,0-3.8s-2.7-1-3.8,0l-3.8,3.8l0,0l0,0l-3.8,3.8
					c-1,1-1,2.7,0,3.8c0.5,0.5,1.2,0.8,1.9,0.8c0.7,0,1.4-0.3,1.9-0.8l1.9-1.9l10.7,10.7c0.5,0.5,1.2,0.8,1.9,0.8s1.4-0.3,1.9-0.8
					C47.2,20.1,47.2,18.4,46.2,17.3z"/>
			</g>
		</g>
	</g>
</g>
</svg>
