<?xml version="1.0" encoding="UTF-8"?>
<svg width="122px" height="122px" viewBox="0 0 122 122" version="1.1" xmlns="http://www.w3.org/2000/svg" xmlns:xlink="http://www.w3.org/1999/xlink">
    <title>hot</title>
    <g id="Page-1" stroke="none" stroke-width="1" fill="none" fill-rule="evenodd">
        <g id="plans-desktop" transform="translate(-1048.000000, -641.000000)" fill-rule="nonzero">
            <g id="hot" transform="translate(1109.000000, 702.000000) rotate(46.000000) translate(-1109.000000, -702.000000) translate(1066.000000, 659.000000)">
                <path d="M81.8577403,45.1008176 C81.252072,43.7676367 81.252072,42.2337618 81.8577403,40.9005808 L85.0652733,33.8440394 C86.2586907,31.2170995 86.3124482,28.1816041 85.2086268,25.5188259 C84.1012215,22.8524639 81.9222493,20.741594 79.2200371,19.7309568 L71.9663533,17.0072537 C70.5901603,16.4911836 69.5078419,15.4124539 68.9953534,14.036267 L66.2716381,6.78261563 C65.2609964,4.08041545 63.1501171,1.90145297 60.4837432,0.794052629 C57.8281208,-0.30976389 54.7854442,-0.256006592 52.1584925,0.937405424 L45.1019197,4.1449242 C43.765149,4.75417358 42.2312672,4.75417358 40.9016641,4.1449242 L33.8415075,0.937405424 C31.2181396,-0.259590412 28.175463,-0.31334771 25.5162568,0.794052629 C22.8498829,1.89786915 20.7390036,4.08041545 19.7283619,6.78261563 L17.0046466,14.036267 C16.4921581,15.4124539 15.4098397,16.4911836 14.0336467,17.0072537 L6.77996294,19.7309568 C4.0777507,20.741594 1.89519467,22.8524639 0.791373224,25.5188259 C-0.312448219,28.1816041 -0.258690681,31.2170995 0.934726659,33.8440394 L4.14225975,40.9005808 C4.74792801,42.2337618 4.74792801,43.7676367 4.14225975,45.1008176 L0.934726659,52.157359 C-0.258690681,54.7842989 -0.312448219,57.8197944 0.791373224,60.4825725 C1.8987785,63.1489345 4.0777507,65.2598044 6.77996294,66.2704416 L14.0336467,68.9941447 C15.4098397,69.5102148 16.4921581,70.5889445 17.0046466,71.9651314 L19.7283619,79.2187828 C20.7390036,81.920983 22.8498829,84.0999454 25.5162568,85.2073458 C26.7885185,85.7341673 28.1503761,86 29.5122338,86 C30.992358,86 32.4724822,85.6875776 33.8415075,85.063993 L40.8980803,81.8564742 C42.234851,81.2472248 43.7687328,81.2472248 45.0983359,81.8564742 L52.1549087,85.063993 C54.7782765,86.2609888 57.8209532,86.3111623 60.4801594,85.2073458 C63.1465333,84.0999454 65.2574126,81.920983 66.2680543,79.2187828 L68.9917695,71.9651314 C69.5078419,70.5889445 70.5865765,69.5066309 71.9627695,68.9941447 L79.2164532,66.2704416 C81.9186655,65.2598044 84.0976377,63.1489345 85.2050429,60.4825725 C86.3088644,57.8197944 86.2551068,54.7842989 85.0616895,52.157359 L81.8577403,45.1008176 Z" id="Path" fill="#F10000"></path>
                <g id="Group" transform="translate(19.000000, 17.000000)" fill="#FAFAFA">
                    <path d="M28.5831111,17.3304131 C25.4648889,14.2019672 20.3875556,14.2019672 17.2693333,17.3304131 C14.1511111,20.458859 14.1511111,25.5528393 17.2693333,28.6812852 L22.2968889,33.7253246 C23.8542222,35.2877639 25.9057778,36.0725508 27.9537778,36.0725508 C30.0017778,36.0725508 32.0497778,35.2877639 33.6106667,33.7253246 C36.7288889,30.5968787 36.7288889,25.5028984 33.6106667,22.3744525 L28.5831111,17.3304131 Z M29.8417778,29.9405115 C28.8,30.9857049 27.1111111,30.9857049 26.0693333,29.9405115 L21.0417778,24.8964721 C20.0035556,23.8548459 20.0035556,22.1532852 21.0417778,21.111659 C21.5608889,20.5872787 22.2435556,20.3304393 22.9262222,20.3304393 C23.6088889,20.3304393 24.2915556,20.5872787 24.8106667,21.111659 L29.8382222,26.1556984 C30.88,27.2008918 30.88,28.8988852 29.8417778,29.9405115 L29.8417778,29.9405115 Z" id="Shape"></path>
                    <path d="M12.2417778,26.1592656 C11.2,25.1140721 9.51111111,25.1140721 8.46933333,26.1592656 C7.42755556,27.204459 7.42755556,28.8988852 8.46933333,29.9440787 L12.8675556,34.3567213 L9.09511111,38.1451016 L4.69333333,33.7288918 C3.65155556,32.6836984 1.96266667,32.6836984 0.920888889,33.7288918 C-0.120888889,34.7740852 -0.120888889,36.4685115 0.920888889,37.5137049 L13.4933333,50.1273705 C14.0124444,50.6481836 14.6951111,50.9121574 15.3777778,50.9121574 C16.0604444,50.9121574 16.7431111,50.6517508 17.2622222,50.1273705 C18.304,49.082177 18.304,47.3877508 17.2622222,46.3425574 L12.864,41.9299148 L16.6364444,38.1415344 L21.0346667,42.554177 C21.5537778,43.0749902 22.2364444,43.3389639 22.9191111,43.3389639 C23.6017778,43.3389639 24.2844444,43.0785574 24.8035556,42.554177 C25.8453333,41.5089836 25.8453333,39.8145574 24.8035556,38.7693639 L12.2417778,26.1592656 Z" id="Path"></path>
                    <path d="M46.1831111,17.3304131 L35.4951111,6.60737049 L37.3795556,4.71674754 C38.4213333,3.6715541 38.4213333,1.97712787 37.3795556,0.931934426 C36.3377778,-0.113259016 34.6488889,-0.113259016 33.6071111,0.931934426 L29.8417778,4.71318033 L29.8346667,4.71674754 L29.8311111,4.72031475 L26.0622222,8.50512787 C25.0204444,9.55032131 25.0204444,11.2447475 26.0622222,12.289941 C26.5813333,12.8107541 27.2675556,13.0747279 27.9466667,13.0747279 C28.6293333,13.0747279 29.312,12.8143213 29.8311111,12.289941 L31.7155556,10.3957508 L42.4035556,21.1187934 C42.9226667,21.6396066 43.6053333,21.9035803 44.288,21.9035803 C44.9706667,21.9035803 45.6533333,21.6431738 46.1724444,21.1187934 C47.2248889,20.0700328 47.2248889,18.3756066 46.1831111,17.3304131 Z" id="Path"></path>
                </g>
                <path d="M50.1119114,37 L46.4067769,40.7041239 L48.9979266,43.2945669 C50.0176243,44.3139865 50.0176243,45.9757801 48.9979266,46.9986908 C48.4845856,47.5084006 47.8175915,47.7667467 47.1471054,47.7667467 C46.4766192,47.7667467 45.806133,47.5118918 45.2962842,46.9986908 L42.7051345,44.4082479 L39,48.1123718 L41.5911497,50.7028148 C43.1206962,52.2319441 45.1356469,53 47.1471054,53 C49.1585639,53 51.1700224,52.2319441 52.7030611,50.7028148 C55.7656463,47.6410648 55.7656463,42.655684 52.7030611,39.5939341 L50.1119114,37 Z" id="Path" fill="#DADADA"></path>
                <path d="M37.61816,50 L26,61.6153698 L32.5831372,68.196926 C33.1162143,68.7298751 33.8172472,69 34.5182801,69 C35.219313,69 35.9203459,68.7335255 36.453423,68.196926 C37.5232284,67.1273775 37.5232284,65.3934678 36.453423,64.3239193 L31.9368724,59.8084534 L35.8108095,55.9317963 L40.3273601,60.4472622 C40.8604372,60.9802113 41.5614701,61.2503362 42.262503,61.2503362 C42.9635359,61.2503362 43.6645688,60.9838617 44.1976459,60.4472622 C45.2674514,59.3777137 45.2674514,57.643804 44.1976459,56.5742555 L37.61816,50 Z" id="Path" fill="#DADADA"></path>
                <path d="M59.7859054,28 L56,31.7820305 L62.4335415,38.2150503 C62.9545049,38.7359715 63.6396075,39 64.3247101,39 C65.0098127,39 65.6949153,38.7395394 66.2158787,38.2150503 C67.2613738,37.16964 67.2613738,35.4748621 66.2158787,34.4294518 L59.7859054,28 Z" id="Path" fill="#DADADA"></path>
            </g>
        </g>
    </g>
</svg>