<?xml version="1.0" encoding="UTF-8"?>
<svg width="350px" height="313px" viewBox="0 0 350 313" version="1.1" xmlns="http://www.w3.org/2000/svg" xmlns:xlink="http://www.w3.org/1999/xlink">
    <title>Information carousel_Monochromatic</title>
    <defs>
        <linearGradient x1="-72.5666782%" y1="150.099078%" x2="274.610322%" y2="-86.6797235%" id="linearGradient-1">
            <stop stop-color="#000000" offset="1%"></stop>
            <stop stop-color="#000000" stop-opacity="0.69" offset="13%"></stop>
            <stop stop-color="#000000" stop-opacity="0.32" offset="25%"></stop>
            <stop stop-color="#000000" stop-opacity="0" offset="100%"></stop>
        </linearGradient>
        <linearGradient x1="13.4770764%" y1="99.9869537%" x2="106.593472%" y2="-27.4624918%" id="linearGradient-2">
            <stop stop-color="#000000" offset="1%"></stop>
            <stop stop-color="#000000" stop-opacity="0.69" offset="13%"></stop>
            <stop stop-color="#000000" stop-opacity="0.32" offset="25%"></stop>
            <stop stop-color="#000000" stop-opacity="0" offset="100%"></stop>
        </linearGradient>
        <linearGradient x1="166.643575%" y1="158.513249%" x2="-238.759958%" y2="-159.669931%" id="linearGradient-3">
            <stop stop-color="#000000" offset="1%"></stop>
            <stop stop-color="#000000" stop-opacity="0.69" offset="13%"></stop>
            <stop stop-color="#000000" stop-opacity="0.32" offset="25%"></stop>
            <stop stop-color="#000000" stop-opacity="0" offset="100%"></stop>
        </linearGradient>
        <linearGradient x1="78.5179506%" y1="59.2302674%" x2="-7.10713992%" y2="31.5068493%" id="linearGradient-4">
            <stop stop-color="#000000" offset="1%"></stop>
            <stop stop-color="#000000" stop-opacity="0.69" offset="13%"></stop>
            <stop stop-color="#000000" stop-opacity="0.32" offset="25%"></stop>
            <stop stop-color="#000000" stop-opacity="0" offset="100%"></stop>
        </linearGradient>
        <linearGradient x1="77.5230351%" y1="21.6830055%" x2="6.27252908%" y2="99.3241186%" id="linearGradient-5">
            <stop stop-color="#000000" offset="1%"></stop>
            <stop stop-color="#000000" stop-opacity="0.69" offset="13%"></stop>
            <stop stop-color="#000000" stop-opacity="0.32" offset="25%"></stop>
            <stop stop-color="#000000" stop-opacity="0" offset="100%"></stop>
        </linearGradient>
        <linearGradient x1="78.2199177%" y1="50.6119467%" x2="24.5395333%" y2="49.4550326%" id="linearGradient-6">
            <stop stop-color="#000000" offset="1%"></stop>
            <stop stop-color="#000000" stop-opacity="0.69" offset="13%"></stop>
            <stop stop-color="#000000" stop-opacity="0.32" offset="25%"></stop>
            <stop stop-color="#000000" stop-opacity="0" offset="100%"></stop>
        </linearGradient>
    </defs>
    <g id="Page-1" stroke="none" stroke-width="1" fill="none" fill-rule="evenodd">
        <g id="Home-desktop" transform="translate(-1057.000000, -1929.000000)">
            <g id="Information-carousel_Monochromatic" transform="translate(1057.000000, 1929.717005)">
                <path d="M25.6147588,182.713853 C35.904826,165.405875 46.1285668,148.078908 50.8566915,128.596751 C56.3807331,105.810603 53.1970659,80.7743221 61.9521507,58.7761947 C69.2006787,40.5947472 79.9645058,19.1757677 97.5599522,9.09289708 C108.57961,2.75075245 121.664861,1.20319321 134.352154,0.548091441 C164.00953,-0.88553706 194.529149,2.21907565 222.149357,13.659621 C249.968544,25.1951086 264.096067,41.8669738 272.481619,71.0712206 C278.043561,90.4679294 281.644137,111.060911 293.213356,127.580869 C301.665235,139.638539 313.746115,148.60109 323.714025,159.434005 C359.189174,197.990067 362.960303,273.26031 308.790585,297.489581 C287.177654,307.173695 262.712688,307.562958 239.043638,307.790819 L115.363853,308.977598 C99.398141,309.129506 81.3194594,312.946185 65.8464579,309.642194 C49.4839408,306.116758 34.1356772,298.909333 20.9624356,288.565007 C15.1920389,284.064742 9.81960047,278.861905 6.08637168,272.538749 C-6.16506188,251.784366 2.04046129,225.067607 13.4391269,203.819523 C17.2671076,196.71784 21.4361956,189.701606 25.6147588,182.713853 Z" id="Path" fill="#4E6DC2" fill-rule="nonzero" opacity="0.18"></path>
                <ellipse id="Oval" fill="#FFFFFF" fill-rule="nonzero" opacity="0.47" cx="171.46861" cy="272.923875" rx="129.091928" ry="30.2130045"></ellipse>
                <polygon id="Path" fill="#4E6DC2" fill-rule="nonzero" points="233.225277 289.011319 199.225485 289.011319 167.46002 257.771476 112.172328 257.771476 119.816576 271.170666 81.6143498 271.170666 81.6143498 270.235621 118.190747 270.235621 110.556007 256.836431 167.849839 256.836431 199.624812 288.076274 230.762764 288.076274 213.953024 273.115559 244.111675 273.115559 234.413748 263.568753 235.079292 262.914221 246.412556 274.050604 216.415536 274.050604"></polygon>
                <polygon id="Path" fill="#4E6DC2" fill-rule="nonzero" points="191.595582 297.643606 170.29148 276.455265 187.628741 276.455265 187.628741 277.392388 172.562284 277.392388 192.264574 296.978249"></polygon>
                <polygon id="Path" fill="#4E6DC2" fill-rule="nonzero" points="156.940755 291.365579 151.869994 283.478648 116.819304 283.478648 109.080717 270.685145 109.884849 270.177238 117.349085 282.520333 152.380854 282.520333 157.735426 290.838506"></polygon>
                <polygon id="Path" fill="#4E6DC2" fill-rule="nonzero" points="87.8923767 283.518045 72.9820628 283.518045 72.9820628 282.572559 86.4766682 282.572559 79.4798015 266.641121 80.3056314 266.253471"></polygon>
                <path d="M235.426009,263.114458 C233.68176,263.114458 230.717489,262.785856 230.717489,261.549275 C230.717489,260.312694 233.68176,259.975444 235.426009,259.975444 C237.170258,259.975444 240.134529,260.304046 240.134529,261.549275 C240.134529,262.794503 237.17979,263.114458 235.426009,263.114458 Z M235.426009,260.840186 C233.195657,260.840186 231.794539,261.315794 231.613442,261.575217 C231.746882,261.774108 233.148,262.249716 235.426009,262.249716 C237.704018,262.249716 238.971696,261.808697 239.171856,261.549275 C238.971696,261.289852 237.580109,260.840186 235.426009,260.840186 Z" id="Shape" fill="#4E6DC2" fill-rule="nonzero"></path>
                <path d="M193.049327,299.213113 C191.305078,299.213113 188.340807,298.885413 188.340807,297.643606 C188.340807,296.401798 191.305078,296.074099 193.049327,296.074099 C194.793577,296.074099 197.757848,296.410422 197.757848,297.643606 C197.757848,298.87679 194.803108,299.213113 193.049327,299.213113 Z M193.049327,296.936465 C190.818976,296.936465 189.417857,297.410767 189.293949,297.669477 C189.417857,297.876445 190.818976,298.350746 193.049327,298.350746 C195.279679,298.350746 196.595015,297.902316 196.795174,297.643606 C196.595015,297.350401 195.212959,296.936465 193.049327,296.936465 L193.049327,296.936465 Z" id="Shape" fill="#4E6DC2" fill-rule="nonzero"></path>
                <path d="M158.520179,293.719839 C156.766399,293.719839 153.811659,293.383516 153.811659,292.150332 C153.811659,290.917148 156.766399,290.580826 158.520179,290.580826 C160.27396,290.580826 163.2287,290.917148 163.2287,292.150332 C163.2287,293.383516 160.264429,293.719839 158.520179,293.719839 Z M158.520179,291.443192 C156.289828,291.443192 154.888709,291.917493 154.707612,292.176203 C154.841052,292.383171 156.242171,292.857473 158.520179,292.857473 C160.798188,292.857473 162.065867,292.409042 162.266026,292.150332 C162.065867,291.891622 160.645685,291.460439 158.520179,291.460439 L158.520179,291.443192 Z" id="Shape" fill="#4E6DC2" fill-rule="nonzero"></path>
                <path d="M69.058296,284.302799 C67.3045152,284.302799 64.3497758,283.974197 64.3497758,282.728968 C64.3497758,281.48374 67.3045152,281.163785 69.058296,281.163785 C70.8120768,281.163785 73.7668161,281.492387 73.7668161,282.728968 C73.7668161,283.965549 70.8025453,284.302799 69.058296,284.302799 Z M69.058296,282.028527 C66.8279443,282.028527 65.4268259,282.504135 65.245729,282.75491 C65.3791689,282.962449 66.7802872,283.438057 69.058296,283.438057 C71.3363047,283.438057 72.6039832,282.997038 72.804143,282.728968 C72.6039832,282.469546 71.2219277,282.028527 69.058296,282.028527 Z" id="Shape" fill="#4E6DC2" fill-rule="nonzero"></path>
                <path d="M80.044843,266.253471 C78.3005937,266.253471 75.3363229,265.917148 75.3363229,264.683965 C75.3363229,263.450781 78.3005937,263.114458 80.044843,263.114458 C81.7890924,263.114458 84.7533632,263.442157 84.7533632,264.683965 C84.7533632,265.925772 81.7986238,266.253471 80.044843,266.253471 Z M80.044843,263.976824 C77.8144914,263.976824 76.413373,264.451126 76.2894646,264.709836 C76.413373,264.90818 77.8144914,265.391105 80.044843,265.391105 C82.2751947,265.391105 83.5905303,264.942674 83.7906901,264.683965 C83.5905303,264.39076 82.1703491,263.94233 80.044843,263.94233 L80.044843,263.976824 Z" id="Shape" fill="#4E6DC2" fill-rule="nonzero"></path>
                <path d="M124.010049,270.836693 C123.183124,271.173182 122.508566,271.805748 122.115829,272.612997 C121.168719,275.134203 125.260235,277.302058 124.691969,279.937864 C124.000578,283.070271 118.554694,281.695068 116.669945,284.283124 C115.457644,285.935277 116.489994,288.456483 118.232677,289.526086 C119.97536,290.595688 122.134771,290.595688 124.171058,290.576588 C147.179523,290.309187 170.17536,289.526086 193.158568,288.227283 C207.914546,287.396431 223.039896,286.269528 236.469919,280.052464 C237.590213,279.678025 238.538685,278.908177 239.14077,277.884609 C239.545299,276.651681 239.356162,275.299037 238.629331,274.226951 C235.210263,268.086287 226.998817,267.083535 220.018615,266.806584 C221.164618,263.655077 219.071504,260.064269 216.135463,258.421665 C213.199421,256.779061 209.761411,256.626261 206.427583,256.511661 L196.189321,256.12011 C191.984151,255.957759 187.466436,255.890909 183.990541,258.259315 C181.14921,260.169319 179.491767,263.425876 176.877743,265.622381 C170.778353,270.731643 161.723979,268.869389 154.042915,266.997584 C148.919049,265.746532 143.103792,264.657829 137.942041,266.147633 C135.725803,266.787484 134.087302,268.410988 132.00366,269.127239 C129.34228,270.005841 126.614602,269.49014 124.010049,270.836693 Z" id="Path" fill="#020202" fill-rule="nonzero" opacity="0.1"></path>
                <path d="M144.85743,251.624267 C143.84617,253.823088 142.80629,256.097729 142.825371,258.514536 C142.947137,260.901184 143.79547,263.194853 145.258118,265.092042 C148.305494,269.334323 152.886293,272.241392 158.041964,273.204931 C158.712884,273.394468 159.429796,273.340716 160.064482,273.053288 C160.495315,272.76283 160.827831,272.349908 161.018501,271.868579 C162.172863,269.366473 161.581372,266.418916 160.703675,263.803078 C159.825978,261.18724 158.642995,258.590358 158.681156,255.832354 C158.747937,250.657545 165.903075,240.412179 157.154726,238.222836 C149.856486,236.346257 147.042132,246.932819 144.85743,251.624267 Z" id="Path" fill="#FFBBAB" fill-rule="nonzero"></path>
                <path d="M192.672487,243.508232 C191.950292,245.804138 191.228096,248.232318 191.565121,250.575465 C192.013025,252.918455 193.17475,255.073018 194.896849,256.754571 C198.517248,260.541186 203.488531,262.809137 208.772632,263.084847 C209.472426,263.1829 210.185047,263.035696 210.78515,262.669127 C211.181006,262.324788 211.459917,261.869777 211.58438,261.365279 C212.402868,258.738687 211.411053,255.913683 210.178506,253.44771 C208.945959,250.981737 207.414905,248.563004 207.07788,245.832482 C206.442348,240.711572 212.219912,229.647761 203.168395,228.636807 C195.609416,227.748678 194.2228,238.576285 192.672487,243.508232 Z" id="Path" fill="#FFBBAB" fill-rule="nonzero"></path>
                <path d="M177.484081,154.252465 C183.435478,159.682533 189.235005,165.312307 194.778251,171.160805 C198.155927,174.779555 201.346215,178.56941 204.336555,182.515449 C208.873665,188.373457 210.553724,193.090294 210.810004,200.660057 C211.19917,211.881565 211.569353,223.236209 209.243847,234.219973 C208.693319,236.806626 207.839052,239.583474 205.63694,241.038466 C202.390724,243.18767 197.73022,241.162093 195.632519,237.871718 C193.534818,234.581344 193.278537,230.49215 192.974798,226.593152 C192.310368,218.177021 191.399149,209.475597 189.31094,201.230642 C188.114965,196.532824 184.1094,195.087342 180.28418,192.548238 C173.04189,187.793362 160.996719,181.355259 157.437271,172.939128 C155.01164,166.782881 153.013588,160.466034 151.457399,154.03374 L177.484081,154.252465 Z" id="Path" fill="#282328" fill-rule="nonzero"></path>
                <path d="M167.062654,155.602032 C169.37202,163.553333 171.539804,171.548704 173.566006,179.588143 C175.132851,185.773538 176.643063,191.987263 177.907866,198.238761 C178.974454,203.555368 181.324721,211.402792 180.192062,216.634409 C179.588608,218.892602 178.656798,221.049836 177.426486,223.037 L165.307032,244.860584 C164.669305,246.237997 163.730664,247.454619 162.560334,248.420728 C160.040167,250.186634 154.424065,247.429176 152.347523,245.691599 C150.270981,243.954023 149.685774,241.555411 149.817917,238.911273 C150.488074,225.747242 157.208519,219.864035 158.237351,206.71889 C158.237351,206.71889 132.912978,184.177612 136.027791,155.724796 C139.142604,127.271979 167.062654,155.602032 167.062654,155.602032 Z" id="Path" fill="#282328" fill-rule="nonzero"></path>
                <path d="M201.649185,110.83088 C201.485183,113.608265 200.578348,116.032511 198.137612,116.834231 C197.9337,116.908396 197.723972,116.965855 197.510546,117.006028 C193.024608,117.893646 187.13983,114.514971 183.03978,111.565789 C181.332924,110.34362 179.696762,109.027621 178.139013,107.624002 L178.139013,77.9126641 L199.960929,100.017213 C199.960929,100.017213 201.957894,105.953754 201.649185,110.83088 Z" id="Path" fill="#FFFFFF" fill-rule="nonzero"></path>
                <path d="M183.839369,111.2344 C182.813795,116.598575 182.17578,122.028876 181.930217,127.483655 C181.4052,136.54793 180.135614,145.517292 178.866028,154.524618 C170.274843,156.308999 161.435468,155.625619 152.691551,154.306317 C149.636907,153.841239 146.601355,153.309721 143.584894,152.768712 C142.563498,152.588375 141.675742,152.085332 140.625708,151.819573 C135.604638,150.576201 133.580937,126.07893 133.12274,118.400397 C132.683635,111.092029 132.534085,103.780497 132.674089,96.4658006 C132.779093,91.1601149 133.199106,85.4273168 136.683309,81.4219512 C141.322549,76.0877914 150.286019,72.5569952 157.092146,71.3136235 C159.289367,70.8665015 161.540605,70.7417898 163.774179,70.9434593 C166.952656,71.4480425 170.02213,72.4846282 172.852198,74.0091775 C176.231398,75.6701704 179.238313,77.0748957 180.899275,80.3968814 C182.71941,84.235433 183.98865,88.3090126 184.669851,92.4984005 C185.748522,98.753225 185.042135,105.08398 183.839369,111.2344 Z" id="Path" fill="#FFFFFF" fill-rule="nonzero"></path>
                <path d="M151.457399,154.03374 C148.517445,153.571425 145.595866,153.043064 142.692661,152.505268 C141.709614,152.326003 140.85519,151.825948 139.844581,151.561767 C135.012031,150.325781 133.064311,125.974015 132.623318,118.341091 L144.272886,104.594278 C144.272886,104.594278 141.02975,144.249633 151.457399,154.03374 Z" id="Path" fill="#020202" fill-rule="nonzero" opacity="0.1"></path>
                <path d="M167.590684,64.0407667 C166.756654,64.9143144 165.621137,65.4631375 164.39777,65.5839795 C163.376244,65.692141 162.346708,65.7110372 161.32167,65.6404385 L160.747335,65.6404385 C160.602985,65.6164056 160.454503,65.6431088 160.328752,65.7157172 C160.209556,65.8340313 160.143145,65.9928322 160.143797,66.1579794 C159.919952,68.1360385 159.880856,70.1295658 160.026983,72.1144046 L160.026983,72.1144046 C160.026983,72.4719783 160.08539,72.829552 160.124328,73.1871257 C160.200335,73.5618651 160.166622,73.9496739 160.026983,74.306896 C159.736539,74.7196953 159.288321,75.0040283 158.780968,75.0973221 C157.883462,75.3902757 156.944107,75.5458466 155.996903,75.558404 C153.972129,75.558404 152.103106,74.5703714 150.331428,73.629388 C150.468133,70.2357028 150.282399,66.8370505 149.776562,63.4761766 C149.124351,59.1664724 147.946478,54.7720797 148.433202,50.4153264 C148.542221,48.7020756 149.187231,47.0612902 150.282756,45.7104092 C151.908416,43.9507701 154.526995,43.3767702 156.970352,43.3861801 C160.207506,43.3297028 163.393447,44.1722893 166.149979,45.8139174 C167.123428,46.4820156 167.27918,47.3289007 167.512808,48.4392612 C167.863249,50.151851 168.14555,51.8832606 168.34024,53.6146701 C168.567378,55.5907353 168.693926,57.5762104 168.719885,59.5710953 C168.739354,61.1143082 168.642009,62.8363079 167.590684,64.0407667 Z" id="Path" fill="#FFBBAB" fill-rule="nonzero"></path>
                <path d="M163.859394,47.7530242 C161.567493,48.135149 159.02416,47.7530242 156.915999,48.6128049 C153.898813,49.8260511 152.612641,53.6950643 153.618369,56.7520624 C152.748027,57.0673153 152.5933,55.5101569 151.916367,54.8414386 C151.239434,54.1727202 149.721171,55.0516072 149.614796,56.1311097 C149.672225,57.2171433 150.004737,58.2715558 150.581843,59.1976609 C151.404786,61.1034805 151.547996,63.2289266 150.988002,65.225679 C150.852616,65.6937819 150.504479,66.2478628 150.020956,66.1236722 C149.537432,65.9994817 149.208636,65.1683603 148.918522,64.8531074 C148.457292,64.3019401 147.949368,63.7905914 147.400259,63.3246083 C146.336508,62.3692964 145.166381,61.5954938 144.083289,60.6975006 C142.149195,59.1021297 140.360159,56.9431248 140.476204,54.4593138 C140.522604,53.4337722 140.857487,52.4413132 141.443251,51.5933781 C141.938079,50.8719854 142.576399,50.2576635 143.319322,49.7878386 C143.628777,49.5967762 143.976914,49.3866076 144.044607,49.0426953 C144.065971,48.8458933 144.04285,48.6468605 143.976914,48.459955 C143.309651,45.9379316 144.73121,43.2343989 146.829701,41.6676874 C149.04143,40.2427851 151.563331,39.3556077 154.188927,39.0787921 C155.871588,38.7826454 157.57359,38.5438174 159.265922,38.352755 C160.670987,38.2847303 162.051239,37.9608578 163.337189,37.3974431 C163.004297,36.4866847 162.55241,35.622781 161.992994,34.8276541 C163.194588,35.1995317 164.337235,35.736587 165.387328,36.423025 C165.32853,35.845111 165.175024,35.2804821 164.932816,34.7512291 C166.779875,35.3721819 168.723639,36.0695596 169.942118,37.6171649 C171.388065,39.5983088 171.457152,42.2524105 170.116186,44.3043482 C168.810673,46.3391626 166.750864,47.170284 164.478304,47.6957055 L163.859394,47.7530242 Z" id="Path" fill="#FE9F24" fill-rule="nonzero"></path>
                <path d="M161.659193,66.4203871 L161.07827,66.4203871 C160.932264,66.3981173 160.782079,66.4228615 160.654886,66.4901429 C160.534323,66.5997769 160.46715,66.7469274 160.46781,66.8999586 C160.241397,68.7328973 160.201853,70.5801695 160.349656,72.4193906 L160.349656,72.4193906 C160.349656,72.4193906 154.44197,71.0765904 154.599508,64.5718569 C156.859613,65.4051439 159.212759,66.0247559 161.619808,66.4203871 L161.659193,66.4203871 Z" id="Path" fill="#E0A194" fill-rule="nonzero"></path>
                <path d="M230.701697,85.9461939 C229.478984,86.7257566 227.835962,86.908617 227.043108,88.1982641 C226.135625,89.6515231 227.043108,91.5089999 227.24371,93.2124889 C227.455146,95.0905931 226.92696,96.9773254 225.772632,98.4673195 C225.423314,98.9345541 225.026306,99.3635765 224.588128,99.7473423 C222.69337,101.299005 220.342288,102.175442 217.901412,102.240018 C217.901412,102.240018 216.554516,96.7927032 216.592726,96.2344977 C216.755118,94.3096513 218.063804,92.5580411 218.273958,90.5658251 C218.358972,88.4529192 218.550266,86.3457152 218.847105,84.2523291 C219.722697,80.1533477 222.46669,76.7109592 226.250255,74.9649453 C226.718325,74.7532122 227.386997,74.6280972 227.644913,75.0804361 C227.733986,75.2727126 227.757494,75.4892572 227.71178,75.6963869 L227.71178,75.6963869 C227.425206,77.8810876 226.011444,79.7289401 224.645443,81.4709261 C225.879752,80.7596055 227.203519,80.2189982 228.581053,79.8636793 C229.19241,79.7000674 230.099893,79.7963097 230.109445,80.431509 C230.062947,80.7361025 229.893549,81.007783 229.641375,81.1821991 L225.954129,84.5121833 C227.450491,84.0229971 229.030777,83.8493663 230.59662,84.002099 C230.859113,84.0041787 231.113855,84.091982 231.322607,84.2523291 C231.781125,84.7431649 231.284397,85.5804731 230.701697,85.9461939 Z" id="Path" fill="#FFBBAB" fill-rule="nonzero"></path>
                <path d="M230.685243,85.8341691 C229.420456,86.6113279 227.720898,86.7936243 226.900762,88.0792943 C225.962052,89.5280716 226.900762,91.3798202 227.108266,93.0780559 C227.326978,94.9503682 226.780617,96.8312821 225.586569,98.3166812 C225.137874,98.5807732 224.660732,98.7963375 224.163683,98.9595162 C223.819644,99.1116392 223.431659,99.142185 223.066875,99.0458672 C222.47058,98.7278282 222.192348,98.0423431 222.404838,97.4147933 C222.633642,96.8153168 222.918071,96.2372672 223.254617,95.687774 C223.718611,94.7039396 223.778687,93.5853092 223.422596,92.5599501 C222.975838,91.771197 222.696935,90.9032873 222.602461,90.0077992 C222.696099,89.4500999 222.915411,88.9193585 223.244736,88.4534818 L224.40083,86.5345714 C224.603949,86.2470275 224.738933,85.9193567 224.796077,85.5751162 C224.852457,85.2347667 224.682358,84.8967553 224.371187,84.7307957 C223.98683,84.6419532 223.582214,84.7464807 223.294141,85.0090377 C222.651866,85.4599816 221.120288,87.3692975 221.317911,85.5943053 C221.555813,84.3924371 222.007191,83.2399059 222.651866,82.1882394 C223.893091,80.0389158 225.345817,78.0113935 226.989692,76.1340771 C227.162613,75.9259298 227.354417,75.7332664 227.562799,75.558404 L227.562799,75.558404 C227.266365,77.7363673 225.803954,79.5785213 224.390949,81.3151352 C225.667731,80.6060083 227.037049,80.0670682 228.461984,79.712845 C229.094378,79.5497376 230.033087,79.6456832 230.042968,80.2789236 C229.99487,80.5825777 229.819643,80.8534205 229.558792,81.0272986 L225.744667,84.3470136 C227.292519,83.8593359 228.927183,83.6862406 230.546907,83.8385023 C230.818432,83.8405756 231.081939,83.9281082 231.297875,84.0879607 C231.801814,84.6348502 231.287994,85.4695762 230.685243,85.8341691 Z" id="Path" fill="#E0A194" fill-rule="nonzero"></path>
                <path d="M83.1962159,85.1442944 C84.4192271,85.9246775 86.0626484,86.1559021 86.8556948,87.3987345 C87.8111723,88.8535228 86.8556948,90.7129542 86.6550445,92.4182358 C86.4435566,94.2983164 86.9718714,96.1870341 88.1264799,97.6785961 C88.4758834,98.1463224 88.8729876,98.5757963 89.311272,98.9599659 C91.2064909,100.513261 93.5581449,101.390621 95.9996148,101.455265 C95.9996148,101.455265 97.3468381,96.0022175 97.308619,95.4434247 C97.1461878,93.5165528 95.8371836,91.7630994 95.6269785,89.7687869 C95.5419438,87.6536576 95.3506026,85.5442362 95.053692,83.4486471 C94.1778508,79.3641412 91.4497558,75.9318623 87.6869602,74.1803933 C87.2187763,73.9684374 86.549942,73.8431907 86.2919631,74.2960056 C86.2028678,74.4884844 86.1793542,74.7052569 86.2250796,74.9126046 L86.2250796,74.9126046 C86.5117229,77.0996042 87.9258296,78.9494012 89.2921625,80.6932203 C88.0575532,79.9811512 86.7334646,79.4399751 85.3555951,79.0842822 C84.7536442,78.9204981 83.7981667,78.997573 83.7981667,79.6527095 C83.8446761,79.9576234 84.0141156,80.2295899 84.2663507,80.4041895 L87.954494,83.7376779 C86.4577684,83.2479769 84.877097,83.0741633 83.3108732,83.2270568 C83.0483169,83.2291387 82.7935132,83.3170344 82.5847102,83.4775502 C82.1165262,83.9399994 82.6133746,84.7781887 83.1962159,85.1442944 Z" id="Path" fill="#FFBBAB" fill-rule="nonzero"></path>
                <path d="M82.4380978,85.0494158 C83.7019758,85.8265745 85.4003117,86.0568437 86.2198575,87.2945409 C87.2072621,88.7433183 86.2198575,90.5950668 86.0125026,92.2933025 C85.7939479,94.1656149 86.3399162,96.0465287 87.5331057,97.5319279 C87.9814774,97.7960198 88.4582761,98.0115842 88.9549683,98.1747628 C89.2987594,98.3268858 89.6864657,98.3574317 90.0509874,98.2611138 C90.6468535,97.9430748 90.9248852,97.2575897 90.7125485,96.63004 C90.4839086,96.0305635 90.1996841,95.4525139 89.8633805,94.9030206 C89.3997197,93.9191862 89.3396869,92.8005559 89.6955218,91.7751967 C90.1419587,90.9864436 90.4206615,90.1185339 90.5150676,89.2230459 C90.421497,88.6653465 90.2023419,88.1346052 89.8732546,87.6687285 L88.7179912,85.7498181 C88.5150183,85.4622741 88.3801319,85.1346034 88.3230293,84.7903629 C88.2666896,84.4500133 88.4366656,84.1120019 88.7476133,83.9460423 C89.1316943,83.8571998 89.5360185,83.9617274 89.8238844,84.2242843 C90.4656974,84.6752283 91.9961745,86.5845441 91.7986936,84.809552 C91.5609629,83.6076837 91.1099089,82.4551526 90.4656974,81.403486 C89.2253652,79.2541625 87.773684,77.2266402 86.1309911,75.3493238 C85.9581949,75.1411764 85.7665284,74.9485131 85.5582964,74.7736507 L85.5582964,74.7736507 C85.8545178,76.951614 87.3158766,78.7937679 88.7278652,80.5303818 C87.4520017,79.8212549 86.083669,79.2823148 84.6597582,78.9280917 C84.0475674,78.8513352 83.0601628,78.9280917 83.0601628,79.5805212 C83.1082263,79.8841753 83.2833275,80.1550181 83.543991,80.3288962 L87.3553728,83.6486112 C85.8086345,83.1609335 84.1751453,82.9878382 82.5565864,83.1400999 C82.2852568,83.1421732 82.021939,83.2297058 81.8061589,83.3895583 C81.3223306,83.8500968 81.835781,84.6848228 82.4380978,85.0494158 Z" id="Path" fill="#E0A194" fill-rule="nonzero"></path>
                <path d="M219.730942,102.372879 C216.988614,106.435972 213.59067,109.971236 209.688616,112.821041 C206.871063,114.818186 203.612215,116.033399 200.21961,116.351998 C199.773375,116.393118 199.323766,116.340634 198.897278,116.197639 C198.161437,115.979539 197.512779,115.519355 197.047862,114.88559 C195.635436,113.127382 194.78798,110.950763 194.625128,108.663001 C194.393951,102.681597 200.607987,99.1988766 200.607987,99.1988766 C200.607987,99.1988766 214.756014,94.4909332 216.438982,95.2627272 C217.36369,95.6775665 218.232915,97.7517629 218.843222,99.5558314 C219.407294,101.06083 219.730942,102.372879 219.730942,102.372879 Z" id="Path" fill="#FFFFFF" fill-rule="nonzero"></path>
                <path d="M133.132955,75.2803059 C139.150423,75.2803059 144.028544,80.158427 144.028544,86.1758945 L144.028544,115.698813 C144.028544,121.71628 139.150423,126.594401 133.132955,126.594401 C127.115488,126.594401 122.237367,121.71628 122.237367,115.698813 L122.237367,86.1758945 C122.237367,80.158427 127.115488,75.2803059 133.132955,75.2803059 Z" id="Rectangle" fill="#FFFFFF" fill-rule="nonzero" transform="translate(133.132955, 100.937354) rotate(41.860000) translate(-133.132955, -100.937354) "></path>
                <path d="M120.268324,104.924048 L99.1649019,92.0382247 L91.0313901,102.374896 C91.0313901,102.374896 111.5267,125.354614 119.356155,124.168745 C127.18561,122.982875 129.969628,120.704512 129.969628,120.704512 C129.969628,120.704512 132.924677,110.694656 120.268324,104.924048 Z" id="Path" fill="#FFFFFF" fill-rule="nonzero"></path>
                <path d="M219.730942,102.622835 C216.926994,106.570583 213.452698,110.005486 209.462964,112.774389 C206.5821,114.714839 203.250025,115.895554 199.781188,116.205109 C199.324927,116.245061 198.865215,116.194067 198.429143,116.055132 C198.229296,116.12797 198.023749,116.184402 197.814577,116.223856 C193.418067,117.095596 187.650602,113.777359 183.632287,110.880932 L183.632287,110.787197 L184.993787,102.069795 C187.628583,104.767566 190.691591,107.018942 194.060997,108.734389 C196.43907,109.999228 199.155839,110.497279 201.832892,110.159169 C202.554922,110.044812 203.257886,109.833529 203.922416,109.531141 C209.292134,106.973543 214.301536,103.730938 218.823275,99.8857583 C219.400022,101.348032 219.730942,102.622835 219.730942,102.622835 Z" id="Path" fill="#020202" fill-rule="nonzero" opacity="0.1"></path>
                <path d="M187.515465,250.558404 C187.515465,250.558404 185.329748,253.038617 186.185029,255.233747 C187.040309,257.428878 198.662618,271.873028 211.27325,267.929395 C223.883883,263.985762 200.639266,254.749108 200.639266,254.749108 L187.515465,250.558404 Z" id="Path" fill="#4E6DC2" fill-rule="nonzero"></path>
                <path d="M191.375727,245.081132 C192.485421,244.950759 193.525983,245.629116 193.82101,246.675248 C194.394123,248.52887 197.26924,251.81905 200.822542,252.171239 C204.375843,252.523427 207.002611,249.307392 208.645536,249.844942 C210.28846,250.382493 216.392115,260.51254 215.76169,263.747112 C215.131266,266.981683 209.877729,267.760205 204.853437,266.397792 C199.829145,265.03538 189.904737,257.945273 188.691647,254.71997 C187.478558,251.494667 189.66594,246.267451 191.375727,245.081132 Z" id="Path" fill="#FFFFFF" fill-rule="nonzero"></path>
                <path d="M167.920238,37.4974836 C167.843614,37.6837519 167.685157,37.8319384 167.483545,37.9058729 C167.281933,37.9798074 167.055715,37.9726873 166.860108,37.8862506 C166.488704,37.7258725 166.167728,37.481764 165.927194,37.1767509 C165.563475,38.1147738 165.522768,39.1325784 165.81058,40.092503 C166.088573,41.0459967 165.947748,42.0614069 165.418332,42.9207826 C165.142698,43.2609536 164.761051,43.503933 164.464215,43.8246657 C164.122107,44.1138778 163.959198,44.5400826 164.029562,44.961809 C164.209784,45.6227129 165.142698,45.8170963 165.874188,45.7101854 C167.10841,45.5365871 168.213515,44.9125704 168.937962,43.9801725 C169.66494,42.854972 170.079904,41.583518 170.14651,40.2771673 C170.294928,39.140024 170.528157,38.1097916 169.669452,37.2156276 C169.436223,36.9726482 168.503309,36.1853952 168.132264,36.3409019 C167.6128,36.5255662 168.036852,37.0601208 167.920238,37.4974836 Z" id="Path" fill="#FFFFFF" fill-rule="nonzero" opacity="0.33"></path>
                <path d="M167.417912,57.5377212 C167.362591,57.6007985 167.29805,57.6638758 167.242729,57.7359641 C167.049103,58.0779827 167.049103,58.4932924 167.242729,58.835311 C167.429417,59.1752041 167.675992,59.4802463 167.97112,59.7364151 C168.044881,59.7994923 168.118642,59.8715807 168.210843,59.8625696 C168.303044,59.8535586 168.404466,59.7364151 168.450566,59.6282826 C168.727337,58.7136243 168.793461,57.7504213 168.644189,56.8078269 C168.515107,55.3660605 168.339925,53.9603382 168.118642,52.5546159 C168.065361,51.2465682 167.752206,49.9611442 167.196628,48.7699789 C166.802181,48.1712574 166.026946,47.9325962 165.352602,48.2022834 C164.319947,48.6348133 164.993017,49.7521823 165.278841,50.4820766 C165.546595,51.3839149 165.713533,52.3114626 165.776728,53.248466 C165.837905,54.1954282 166.2134,55.0970601 166.846263,55.8166125 C167.082975,56.0075362 167.304868,56.2153605 167.510113,56.4383743 C167.718075,56.6709209 167.778305,56.9964095 167.666855,57.2854121 C167.599276,57.382832 167.51507,57.4681771 167.417912,57.5377212 Z" id="Path" fill="#FFFFFF" fill-rule="nonzero" opacity="0.33"></path>
                <path d="M201.255913,102.093209 C200.828697,102.210072 200.386266,102.257648 199.944694,102.234208 C199.378328,102.131349 198.836619,101.917514 198.349223,101.60441 C197.174769,101.00792 196.070387,100.276276 195.057419,99.423615 C194.042566,98.5651471 193.335932,97.3842668 193.049327,96.067823 C195.580073,96.7916213 197.634012,99.2074155 200.247283,99.1886156 C201.087835,99.1362034 201.916069,98.955619 202.704674,98.6528169 L206.564979,97.3838199 C209.196588,96.5284219 211.938229,95.654224 214.661532,96.067823 C214.771591,96.0741029 214.875758,96.1208222 214.954952,96.1994227 C215.017942,96.2890448 215.038154,96.4030058 215.009968,96.509622 C214.83575,97.6000194 213.652902,97.7880189 212.827658,98.0982182 C211.543947,98.587017 210.315251,99.2356155 209.031539,99.7338143 C206.49865,100.71176 203.899971,101.50029 201.255913,102.093209 L201.255913,102.093209 Z" id="Path" fill="#FFFFFF" fill-rule="nonzero" opacity="0.33"></path>
                <path d="M171.3801,86.7796178 C174.23802,90.8171907 176.215972,95.4157265 177.184615,100.274519 C177.799099,103.382148 178.044893,106.698853 179.822171,109.302799 C181.060594,108.542522 181.268573,106.850908 181.278027,105.39688 C181.168534,100.545909 180.646685,95.7132294 179.718182,90.9516331 C179.423182,88.6507044 178.871397,86.3904837 178.073254,84.2136858 C176.032184,79.3676005 171.706498,75.8759535 166.55876,74.9193099 C166.116849,74.6775699 165.571505,74.7410029 165.196185,75.0778011 C164.820865,75.4145993 164.696507,75.9521304 164.885471,76.4208553 C165.314397,79.4441339 166.847823,82.1985249 169.186862,84.1471616" id="Path" fill="#FFFFFF" fill-rule="nonzero" opacity="0.33"></path>
                <path d="M97.309417,8.85436815 L97.309417,58.29383 C64.0776808,52.8258711 42.3766816,43.7980431 42.3766816,33.612071 C42.3766816,23.4260989 64.0776808,14.341313 97.309417,8.85436815 Z" id="Path" fill="url(#linearGradient-1)" fill-rule="nonzero"></path>
                <path d="M135.762332,63.7350597 L135.762332,252.912664 C121.927421,251.96393 109.057514,250.512367 97.5443453,248.624385 C64.1704885,243.159676 42.3766816,234.137214 42.3766816,223.957296 L42.3766816,34.7512291 C42.3766816,44.9596094 64.1704885,53.9820719 97.5443453,59.418319 C109.057514,61.3347621 121.927421,62.7958128 135.762332,63.7350597 Z" id="Path" fill="url(#linearGradient-2)" fill-rule="nonzero"></path>
                <path d="M239.349776,8.85436815 L239.349776,58.29383 C272.581512,52.8258711 294.282511,43.7980431 294.282511,33.612071 C294.282511,23.4260989 272.581512,14.341313 239.349776,8.85436815 Z" id="Path" fill="url(#linearGradient-3)" fill-rule="nonzero"></path>
                <path d="M200.896861,63.7350597 L200.896861,252.912664 C214.731772,251.96393 227.601679,250.512367 239.114848,248.624385 C272.488704,243.159676 294.282511,234.137214 294.282511,223.957296 L294.282511,34.7512291 C294.282511,44.9596094 272.488704,53.9820719 239.114848,59.418319 C227.601679,61.3347621 214.731772,62.7958128 200.896861,63.7350597 Z" id="Path" fill="url(#linearGradient-4)" fill-rule="nonzero"></path>
                <path d="M227.578475,101.800264 L227.578475,237.217597 C237.343595,236.54246 246.466522,235.496472 254.550606,234.146197 C278.113444,230.238008 293.497758,223.781413 293.497758,216.46901 L293.497758,81.0516776 C293.497758,88.3640804 278.113444,94.8206754 254.550606,98.7288647 C246.43819,100.079139 237.343595,101.125127 227.578475,101.800264 Z" id="Path" fill="url(#linearGradient-5)" fill-rule="nonzero"></path>
                <path d="M239.349776,89.2442102 L239.349776,224.661543 C249.114896,223.995915 258.237822,222.949927 266.321906,221.599653 C289.884744,217.681954 305.269058,211.225359 305.269058,203.912957 L305.269058,68.4956238 C305.269058,75.8080266 289.884744,82.2646216 266.321906,86.1823198 C258.200046,87.5325945 249.114896,88.5785819 239.349776,89.2442102 Z" id="Path" fill="#FFFFFF" fill-rule="nonzero"></path>
                <path d="M239.349776,89.2442102 L239.349776,224.661543 C249.114896,223.995915 258.237822,222.949927 266.321906,221.599653 C289.884744,217.681954 305.269058,211.225359 305.269058,203.912957 L305.269058,68.4956238 C305.269058,75.8080266 289.884744,82.2646216 266.321906,86.1823198 C258.200046,87.5325945 249.114896,88.5785819 239.349776,89.2442102 Z" id="Path" fill="url(#linearGradient-6)" fill-rule="nonzero"></path>
                <line x1="135.369955" y1="260.760198" x2="135.369955" y2="251.343157" id="Path"></line>
                <line x1="135.369955" y1="63.0023502" x2="135.369955" y2="53.5853099" id="Path"></line>
                <ellipse id="Oval" fill="#4E6DC2" fill-rule="nonzero" transform="translate(59.036750, 141.055582) rotate(-4.050000) translate(-59.036750, -141.055582) " cx="59.0367495" cy="141.055582" rx="19.8558702" ry="41.4573114"></ellipse>
                <ellipse id="Oval" fill="#4E6DC2" fill-rule="nonzero" transform="translate(59.036750, 141.055582) rotate(-4.050000) translate(-59.036750, -141.055582) " cx="59.0367495" cy="141.055582" rx="19.8558702" ry="41.4573114"></ellipse>
                <ellipse id="Oval" fill="#020202" fill-rule="nonzero" opacity="0.29" transform="translate(59.036750, 141.055582) rotate(-4.050000) translate(-59.036750, -141.055582) " cx="59.0367495" cy="141.055582" rx="19.8558702" ry="41.4573114"></ellipse>
                <path d="M71.344279,161.953846 C68.6607668,174.129891 62.8497081,182.530122 55.5714052,183.045006 C44.4415866,183.826866 34.0840018,165.882218 32.4043934,142.893617 C30.7247851,119.905015 38.4471223,100.692227 49.5769409,99.910367 C60.7067595,99.1285067 71.0739972,117.073155 72.7439527,140.071291 C73.3202891,147.394207 72.8490991,154.760812 71.344279,161.953846 Z" id="Path" fill="#4E6DC2" fill-rule="nonzero"></path>
                <path d="M293.824306,106.163785 L293.497758,105.326835 C295.791797,104.546395 297.983605,103.510453 300.02873,102.240018 L300.560538,102.986974 C298.450433,104.294282 296.18983,105.360385 293.824306,106.163785 Z" id="Path" fill="#4E6DC2" fill-rule="nonzero"></path>
                <path d="M279.573094,109.302799 L279.372197,108.30944 C281.45148,107.872362 283.470493,107.415417 285.399103,106.948539 L285.650224,107.941897 C283.701525,108.418709 281.672466,108.875654 279.573094,109.302799 Z" id="Path" fill="#4E6DC2" fill-rule="nonzero"></path>
                <path d="M255.127037,113.226565 L255.044843,112.245624 C255.090506,112.245624 259.675084,111.814009 265.903533,110.872305 L266.03139,111.853247 C259.775542,112.745904 255.1727,113.216756 255.127037,113.226565 Z" id="Path" fill="#4E6DC2" fill-rule="nonzero"></path>
                <path d="M262.969074,127.352126 L262.892377,126.378141 C262.892377,126.378141 265.711017,126.154125 269.79517,125.589214 C277.685447,124.478871 292.104616,121.810153 300.014067,116.365579 L300.560538,117.164246 C292.488104,122.725699 277.905953,125.433376 269.929391,126.553459 C265.80689,127.12811 262.997836,127.352126 262.969074,127.352126 Z" id="Path" fill="#4E6DC2" fill-rule="nonzero"></path>
                <path d="M290.654735,114.796072 L290.358744,113.912673 C293.755032,113.045487 296.999482,111.758021 299.998157,110.087552 L300.560538,110.81194 C297.484613,112.551012 294.149731,113.892307 290.654735,114.796072 Z" id="Path" fill="#4E6DC2" fill-rule="nonzero"></path>
                <path d="M276.335688,118.719839 L276.233184,117.785609 C279.862692,117.291622 283.455222,116.555054 286.986768,115.580826 L287.219731,116.515056 C283.643052,117.485012 280.007414,118.221484 276.335688,118.719839 Z" id="Path" fill="#4E6DC2" fill-rule="nonzero"></path>
                <path d="M256.671461,120.289346 L256.61435,119.355116 C256.68098,119.355116 262.829977,118.981423 270.616169,117.935086 L270.73991,118.869316 C262.896607,119.924996 256.738091,120.289346 256.671461,120.289346 Z" id="Path" fill="#4E6DC2" fill-rule="nonzero"></path>
                <path d="M264.538021,140.692933 L264.461883,139.773853 C264.699813,139.773853 288.587929,137.981646 300.018059,130.491139 L300.560538,131.253976 C288.930547,138.873154 265.546842,140.619407 264.538021,140.692933 Z" id="Path" fill="#4E6DC2" fill-rule="nonzero"></path>
                <path d="M264.538021,134.414906 L264.461883,133.496653 C264.699813,133.496653 288.587929,131.660146 300.018059,124.213113 L300.560538,124.975263 C288.930547,132.596765 265.546842,134.341446 264.538021,134.414906 Z" id="Path" fill="#4E6DC2" fill-rule="nonzero"></path>
                <path d="M255.044843,156.388 L255.044843,155.475497 C255.291519,155.475497 280.528319,154.070241 293.099282,148.540467 L293.497758,149.36172 C280.708582,154.973619 255.301006,156.36975 255.044843,156.388 Z" id="Path" fill="#4E6DC2" fill-rule="nonzero"></path>
                <path d="M266.097393,168.944054 L266.03139,168.009824 C266.257687,168.009824 288.661088,166.346894 300.023083,158.742261 L300.560538,159.508329 C289.019392,167.26244 266.32369,168.92537 266.097393,168.944054 Z" id="Path" fill="#4E6DC2" fill-rule="nonzero"></path>
                <path d="M266.097393,161.881274 L266.03139,160.947044 C266.257687,160.947044 288.661088,159.293456 300.023083,151.67948 L300.560538,152.454891 C289.019392,160.209002 266.32369,161.871932 266.097393,161.881274 Z" id="Path" fill="#4E6DC2" fill-rule="nonzero"></path>
                <path d="M255.044843,182.284861 L255.044843,181.372358 C255.291519,181.372358 280.528319,179.976227 293.099282,174.437328 L293.497758,175.267706 C280.708582,180.879605 255.301006,182.275736 255.044843,182.284861 Z" id="Path" fill="#4E6DC2" fill-rule="nonzero"></path>
                <path d="M266.097393,195.625669 L266.03139,194.691438 C266.257687,194.691438 288.661088,193.037851 300.023083,185.423875 L300.560538,186.199286 C289.019392,193.972081 266.32369,195.606984 266.097393,195.625669 Z" id="Path" fill="#4E6DC2" fill-rule="nonzero"></path>
                <path d="M266.097393,188.562888 L266.03139,187.628658 C266.257687,187.628658 288.661088,185.965728 300.023083,178.361095 L300.560538,179.127163 C289.019392,186.881274 266.32369,188.544204 266.097393,188.562888 Z" id="Path" fill="#4E6DC2" fill-rule="nonzero"></path>
                <path d="M71.3128655,161.881274 L49.4394619,138.205272 L49.4394619,99.9103382 C60.6384114,99.1293921 71.0700435,117.053059 72.7503716,140.024305 C73.3207114,147.34 72.8367846,154.698003 71.3128655,161.881274 Z" id="Path" fill="#4E6DC2" fill-rule="nonzero"></path>
                <path d="M71.3128655,161.881274 L49.4394619,138.205272 L49.4394619,99.9103382 C60.6384114,99.1293921 71.0700435,117.053059 72.7503716,140.024305 C73.3207114,147.34 72.8367846,154.698003 71.3128655,161.881274 Z" id="Path" fill="#FFFFFF" fill-rule="nonzero"></path>
                <path d="M71.3128655,161.881274 L49.4394619,138.205272 L49.4394619,99.9103382 C60.6384114,99.1293921 71.0700435,117.053059 72.7503716,140.024305 C73.3207114,147.34 72.8367846,154.698003 71.3128655,161.881274 Z" id="Path" fill="#4E6DC2" fill-rule="nonzero"></path>
                <path d="M71.3128655,161.881274 L49.4394619,138.205272 L49.4394619,99.9103382 C60.6384114,99.1293921 71.0700435,117.053059 72.7503716,140.024305 C73.3207114,147.34 72.8367846,154.698003 71.3128655,161.881274 Z" id="Path" fill="#020202" fill-rule="nonzero" opacity="0.29"></path>
                <path d="M140.291028,256.836431 C140.291028,256.836431 137.715939,258.867445 138.170366,261.161738 C138.624794,263.456031 147.476663,279.544291 160.541455,277.908197 C173.606246,276.272103 152.42803,263.249168 152.42803,263.249168 L140.291028,256.836431 Z" id="Path" fill="#4E6DC2" fill-rule="nonzero"></path>
                <path d="M144.124655,251.343157 C145.230773,251.407191 146.124446,252.254771 146.230063,253.339974 C146.457675,255.262143 148.667405,259.031834 152.072097,259.992919 C155.476789,260.954003 158.634902,258.220044 160.142829,259.059827 C161.650757,259.899609 165.785703,270.975409 164.581258,274.082605 C163.376812,277.189801 158.113292,277.040506 153.447251,274.819748 C148.781211,272.598989 140.359578,263.874581 139.762097,260.468795 C139.164616,257.06301 142.227891,252.229595 144.124655,251.343157 Z" id="Path" fill="#FFFFFF" fill-rule="nonzero"></path>
                <path d="M49.4394619,100.385729 L57.1533158,99.8857583 C57.1533158,99.8857583 69.9148576,99.4151025 76.2908845,126.781116 C79.1776012,138.567937 79.2036172,150.867264 76.3667895,162.666027 L70.8067423,161.723671 C70.8067423,161.723671 76.0157285,105.926781 49.4394619,100.385729 Z" id="Path" fill="#4E6DC2" fill-rule="nonzero"></path>
                <path d="M49.4394619,100.385729 L57.1533158,99.8857583 C57.1533158,99.8857583 69.9148576,99.4151025 76.2908845,126.781116 C79.1776012,138.567937 79.2036172,150.867264 76.3667895,162.666027 L70.8067423,161.723671 C70.8067423,161.723671 76.0157285,105.926781 49.4394619,100.385729 Z" id="Path" fill="#020202" fill-rule="nonzero" opacity="0.62"></path>
            </g>
        </g>
    </g>
</svg>