<svg height="259" viewBox="0 0 318 259" width="318" xmlns="http://www.w3.org/2000/svg"><g fill="none" transform="translate(0 .418992)"><path d="m77.7102831 25.4444358c-40.5950219 15.7409233-70.71862243 55.635812-76.70924953 103.9071642-5.00436532 40.675229 6.95253674 85.617942 77.34240523 98.420398 136.9564502 24.922112 195.9874242 26.492774 228.7288802-40.726212 32.741456-67.218985-12.066487-174.8571505-81.579678-182.30696009-55.157603-5.92570779-68.479605-10.03247517-147.7823579 20.70560989z" fill="#dee4f5" opacity=".3"/><rect fill="#24285b" height="218" rx="9.71355" width="125" x="26" y="13.581008"/><circle cx="87.5" cy="216.081008" fill="#000" opacity=".03" r="9.5"/><path d="m36 32.581008h102v170h-102z" fill="#4a67c6"/><circle cx="76" cy="189.581008" fill="#000" opacity=".03" r="3"/><circle cx="87" cy="189.581008" fill="#fff" opacity=".44" r="3"/><g fill="#000"><circle cx="100" cy="189.581008" opacity=".03" r="3"/><path d="m50 51.581008h74v64h-74z" opacity=".03"/><path d="m50 127.581008h53v6h-53z" opacity=".03"/><path d="m107 127.581008h19v6h-19z" opacity=".03"/><path d="m53 144.581008h23v6h-23z" opacity=".03"/><path d="m80 144.581008h46v6h-46z" opacity=".03"/><path d="m50 162.581008h56v6h-56z" opacity=".03"/></g><path d="m162 32.581008h102v170h-102z" fill="#4a67c6"/><circle cx="202" cy="189.581008" fill="#000" opacity=".03" r="3"/><circle cx="213" cy="189.581008" fill="#000" opacity=".03" r="3"/><circle cx="225" cy="189.581008" fill="#fff" opacity=".44" r="3"/><g fill="#000"><path d="m176 51.581008h74v64h-74z" opacity=".03"/><path d="m176 127.581008h53v6h-53z" opacity=".03"/><path d="m231 127.581008h19v6h-19z" opacity=".03"/><path d="m177 144.581008h23v6h-23z" opacity=".03"/><path d="m204 144.581008h46v6h-46z" opacity=".03"/><path d="m176 162.581008h56v6h-56z" opacity=".03"/><path d="m123.222389 231.581008c0-1.22183-2.619707-51.316873-.93914-58.770038 1.680566-7.453164 17.102238-43.888144 13.036749-48.140114-4.065488-4.251969-18.955804 5.424927-18.955804 5.424927s2.718563-43.8759267-3.707133-47.0038123c-6.425697-3.1278856-9.280189 9.1270724-9.280189 9.1270724l-3.4229188 49.0809239-16.9539532 90.048894z" opacity=".1"/></g><path d="m111.150344 181.483303c2.142641-8.549247 5.362725-16.89087 7.41966-25.525609 1.359047-5.715782 10.149997-29.604821 12.610974-36.63963.759107-2.161738 1.408021-4.775365-.061219-6.534067-1.007794-1.04508-2.480199-1.505501-3.905728-1.221321-1.415211.294714-2.720667.975414-3.771049 1.966327-2.448732 2.149525-6.966644 12.787231-10.272433 12.775017-4.003679 0-2.118154-10.991889-2.228347-13.104774-.453016-9.098841.220386-20.7624567-3.34252-29.3117036-2.644632-6.3508692-9.2072355-5.4959445-10.7499372 1.3678795-1.5427016 6.863824-1.4814833 35.6259331-1.4814833 35.6259331s-25.6137444-4.384542-29.9847323 3.407486c-4.370988 7.792028 3.0119412 57.292167 3.0119412 57.292167z" fill="#f4a28c"/><path d="m114 256.581008-.468031-78.538018-48.1456259-10.461982-19.3863431 89z" fill="#fe9f24"/><path d="m114 257.581008-.475424-78.972996-23.345845-5.027004-4.178731 84z" fill="#000" opacity=".1"/></g></svg>