<svg enable-background="new 0 0 406 306" viewBox="0 0 406 306" xmlns="http://www.w3.org/2000/svg" xmlns:xlink="http://www.w3.org/1999/xlink"><linearGradient id="a"><stop offset=".01"/><stop offset=".13" stop-opacity=".69"/><stop offset=".25" stop-opacity=".32"/><stop offset="1" stop-opacity="0"/></linearGradient><linearGradient id="b" gradientTransform="matrix(.9349 0 0 -.9349 30.0453 279.6147)" gradientUnits="userSpaceOnUse" x1="2.889" x2="203.349" xlink:href="#a" y1="198.7645" y2="351.0045"/><linearGradient id="c" gradientTransform="matrix(.9349 0 0 -.9349 30.0453 279.6147)" gradientUnits="userSpaceOnUse" x1="-101.1776" x2="395.5224" xlink:href="#a" y1="33.2023" y2="326.2723"/><linearGradient id="d" gradientTransform="matrix(.9349 0 0 -.9349 30.0453 279.6147)" gradientUnits="userSpaceOnUse" x1="348.7268" x2="114.6468" xlink:href="#a" y1="193.3512" y2="397.9312"/><linearGradient id="e" gradientTransform="matrix(.9349 0 0 -.9349 30.0453 279.6147)" gradientUnits="userSpaceOnUse" x1="413.519" x2="-43.221" xlink:href="#a" y1="126.9192" y2="190.6691"/><linearGradient id="f" gradientTransform="matrix(.9349 0 0 -.9349 30.0453 279.6147)" gradientUnits="userSpaceOnUse" x1="382.4993" x2="103.3793" xlink:href="#a" y1="178.1478" y2="50.6378"/><linearGradient id="g" gradientTransform="matrix(.9349 0 0 -.9349 30.0453 279.6147)" gradientUnits="userSpaceOnUse" x1="397.9701" x2="187.6801" xlink:href="#a" y1="143.8225" y2="145.7225"/><path d="m55.6 179.7c10.2-17 20.2-34.1 24.9-53.3 5.5-22.4 2.3-47.1 10.9-68.7 7.2-17.9 17.8-39 35.1-48.9 10.9-6.2 23.8-7.8 36.3-8.4 29.3-1.4 59.4 1.6 86.6 12.9 27.6 11.2 41.5 27.7 49.8 56.4 5.5 19.1 9 39.4 20.5 55.6 8.3 11.9 20.3 20.7 30.1 31.4 35 38 38.7 112.1-14.7 135.9-21.3 9.5-45.5 9.9-68.8 10.1l-122 1.2c-15.8.1-33.6 3.9-48.9.7-16.2-3.4-31.4-10.5-44.4-20.7-5.7-4.4-11-9.6-14.7-15.8-12.1-20.4-4-46.7 7.3-67.7 3.8-7 7.9-13.9 12-20.7z" fill="#4d6cc2" opacity=".18"/><ellipse cx="199.1" cy="269.2" fill="#fff" opacity=".47" rx="127.2" ry="29.8"/><path d="m260.3 284.6h-33.4l-31.2-31.2h-54.4l7.5 13.4h-37.5v-1h35.9l-7.5-13.4h56.3l31.3 31.3h30.6l-16.5-15h29.6l-9.5-9.5.7-.7 11.1 11.1h-29.5z" fill="#4d6cc2"/><path d="m219.1 292.9-21.1-21.1h17.2v.9h-15l19.6 19.5z" fill="#4d6cc2"/><path d="m185 286.7-5-7.7h-34.6l-7.7-12.5.8-.5 7.4 12.1h34.6l5.3 8.1z" fill="#4d6cc2"/><path d="m117.7 279h-15.4v-.9h13.9l-7.2-15.8.8-.4z" fill="#4d6cc2"/><path d="m262 259.3c-1.7 0-4.6-.4-4.6-1.7s2.9-1.7 4.6-1.7 4.6.4 4.6 1.7c0 1.4-2.9 1.7-4.6 1.7zm0-2.4c-2.2 0-3.6.5-3.7.8.1.2 1.5.7 3.7.7s3.5-.5 3.7-.8c-.3-.2-1.6-.7-3.7-.7z" fill="#4d6cc2"/><path d="m219.8 295.5c-1.7 0-4.6-.4-4.6-1.7s2.9-1.7 4.6-1.7 4.6.4 4.6 1.7-2.9 1.7-4.6 1.7zm0-2.5c-2.2 0-3.6.5-3.7.8.1.2 1.5.7 3.7.7s3.5-.5 3.7-.8c-.2-.2-1.6-.7-3.7-.7z" fill="#4d6cc2"/><path d="m186.3 289.4c-1.7 0-4.6-.4-4.6-1.7s2.9-1.7 4.6-1.7 4.6.4 4.6 1.7-2.9 1.7-4.6 1.7zm0-2.5c-2.2 0-3.6.5-3.7.8.1.2 1.5.7 3.7.7s3.5-.5 3.7-.8c-.3-.2-1.6-.7-3.7-.7z" fill="#4d6cc2"/><path d="m99 280.2c-1.7 0-4.6-.4-4.6-1.7s2.9-1.7 4.6-1.7 4.6.4 4.6 1.7-2.9 1.7-4.6 1.7zm0-2.4c-2.2 0-3.6.5-3.7.8.1.2 1.5.7 3.7.7s3.5-.5 3.7-.8c-.2-.2-1.6-.7-3.7-.7z" fill="#4d6cc2"/><path d="m109.6 262.6c-1.7 0-4.6-.4-4.6-1.7s2.9-1.7 4.6-1.7 4.6.4 4.6 1.7c0 1.4-2.9 1.7-4.6 1.7zm0-2.4c-2.2 0-3.6.5-3.7.8.1.2 1.5.7 3.7.7s3.5-.5 3.7-.8c-.2-.3-1.6-.8-3.7-.7z" fill="#4d6cc2"/><path d="m152.9 266.7c-.8.3-1.5.9-1.9 1.7-.9 2.5 3.1 4.6 2.5 7.2-.7 3.1-6.1 1.7-7.9 4.3-1.2 1.6-.2 4.1 1.5 5.1s3.9 1 5.9 1c22.7-.3 45.4-1 68.1-2.3 14.6-.8 29.5-1.9 42.8-8 1.1-.4 2-1.1 2.6-2.1.4-1.2.2-2.5-.5-3.6-3.4-6-11.5-7-18.4-7.3 1.1-3.1-.9-6.6-3.8-8.2s-6.3-1.8-9.6-1.9l-10.1-.4c-4.2-.2-8.6-.2-12 2.1-2.8 1.9-4.4 5.1-7 7.2-6 5-15 3.2-22.5 1.3-5.1-1.2-10.8-2.3-15.9-.8-2.2.6-3.8 2.2-5.9 2.9-2.6 1-5.3.5-7.9 1.8z" fill="#020202" opacity=".1"/><path d="m173 247.8c-1 2.2-2 4.4-2 6.8.1 2.4 1 4.6 2.4 6.5 3 4.2 7.5 7.1 12.5 8 .7.2 1.4.1 2-.1.4-.3.7-.7.9-1.2 1.1-2.5.6-5.4-.3-8s-2-5.1-2-7.9c.1-5.1 7.1-15.2-1.5-17.4-7.1-1.8-9.8 8.6-12 13.3z" fill="#ffbbab"/><path d="m219.6 239.9c-.7 2.3-1.4 4.7-1.1 7 .4 2.3 1.6 4.5 3.2 6.1 3.5 3.7 8.3 6 13.5 6.3.7.1 1.4 0 2-.4.4-.3.7-.8.8-1.3.8-2.6-.2-5.4-1.4-7.8s-2.7-4.8-3-7.5c-.6-5.1 5-16-3.8-17-7.3-1-8.7 9.7-10.2 14.6z" fill="#ffbbab"/><path d="m205.9 151.8c5.9 5.3 11.6 10.9 17 16.6 3.3 3.6 6.5 7.3 9.4 11.2 4.5 5.8 6.1 10.4 6.4 17.8.4 11 .7 22.2-1.5 33-.5 2.5-1.4 5.3-3.6 6.7-3.2 2.1-7.8.1-9.9-3.1s-2.3-7.3-2.6-11.1c-.7-8.3-1.6-16.8-3.6-24.9-1.2-4.6-5.1-6-8.9-8.5-7.1-4.7-19-11-22.5-19.3-2.4-6.1-4.4-12.3-5.9-18.6z" fill="#282328"/><path d="m194.3 152.8c2.3 7.9 4.4 15.8 6.4 23.7 1.6 6.1 3 12.3 4.3 18.5 1.1 5.3 3.4 13 2.3 18.2-.6 2.2-1.5 4.4-2.7 6.3l-12 21.6c-.6 1.4-1.6 2.6-2.7 3.5-2.5 1.7-8.1-1-10.1-2.7-2.1-1.7-2.6-4.1-2.5-6.7.7-13 7.3-18.9 8.3-31.9 0 0-25.1-22.3-22-50.5 3-28 30.7 0 30.7 0z" fill="#282328"/><path d="m228.8 108.6c-.2 2.7-1 5.1-3.4 5.9-.2.1-.4.1-.6.2-4.3.9-10-2.4-14-5.3-1.7-1.2-3.2-2.5-4.7-3.9v-29.2l21 21.7s2 5.8 1.7 10.6z" fill="#fff"/><path d="m210.8 109.2c-1 5.3-1.6 10.6-1.9 16-.5 8.9-1.8 17.8-3 26.6-8.4 1.8-17.1 1.1-25.6-.2-3-.5-6-1-8.9-1.5-1-.2-1.9-.7-2.9-.9-4.9-1.2-6.9-25.4-7.3-32.9-.4-7.2-.6-14.4-.4-21.6.1-5.2.5-10.9 3.9-14.8 4.5-5.3 13.3-8.7 20-10 2.2-.4 4.4-.6 6.5-.4 3.1.5 6.1 1.5 8.9 3 3.3 1.6 6.3 3 7.9 6.3 1.8 3.8 3 7.8 3.7 11.9 1 6.2.3 12.4-.9 18.5z" fill="#fff"/><path d="m180.3 151.6c-3-.5-6-1-8.9-1.5-1-.2-1.9-.7-2.9-.9-4.9-1.2-6.9-25.4-7.3-32.9l11.9-13.6c-.1-.1-3.4 39.2 7.2 48.9z" fill="#020202" opacity=".1"/><path d="m195.5 63.7c-.8.9-1.9 1.4-3.1 1.5-1 .1-2 .1-3 .1h-.4c-.1 0-.3 0-.4.1s-.2.3-.2.4c-.2 2-.3 3.9-.1 5.9 0 .4.1.7.1 1.1.1.4 0 .8-.1 1.1-.3.4-.7.7-1.2.8-.9.3-1.8.4-2.7.5-1.9 0-3.7-1-5.4-1.9.1-3.4 0-6.7-.5-10.1-.6-4.3-1.8-8.6-1.3-13 .1-1.7.7-3.3 1.8-4.7 1.6-1.7 4.1-2.3 6.4-2.3 3.1-.1 6.2.8 8.8 2.4.9.7 1.1 1.5 1.3 2.6.3 1.7.6 3.4.8 5.1.2 2 .3 3.9.4 5.9-.1 1.6-.2 3.3-1.2 4.5z" fill="#ffbbab"/><path d="m192.1 46.5c-2.2.4-4.7 0-6.7.8-2.9 1.2-4.2 5-3.2 8-.8.3-1-1.2-1.6-1.9s-2.1.2-2.2 1.3c.1 1.1.4 2.1.9 3 .8 1.9.9 3.9.4 5.9-.1.5-.5 1-.9.9-.5-.1-.8-.9-1.1-1.2-.4-.5-.9-1-1.5-1.5-1-.9-2.2-1.7-3.2-2.6-1.9-1.6-3.6-3.7-3.5-6.1 0-1 .4-2 .9-2.8.5-.7 1.1-1.3 1.8-1.8.3-.2.6-.4.7-.7 0-.2 0-.4-.1-.6-.6-2.5.7-5.1 2.8-6.6 2.1-1.4 4.6-2.3 7.1-2.5 1.6-.3 3.3-.5 4.9-.7 1.4-.1 2.7-.4 3.9-.9-.3-.9-.8-1.7-1.3-2.5 1.2.4 2.3.9 3.3 1.6-.1-.6-.2-1.1-.4-1.6 1.8.6 3.7 1.3 4.8 2.8 1.4 1.9 1.5 4.5.2 6.5s-3.3 2.8-5.5 3.3z" fill="#fe9f24"/><path d="m189.5 65.3h-.5c-.1 0-.3 0-.4.1s-.2.3-.2.4c-.2 2-.3 3.9-.1 5.9s-5.6-1.4-5.5-8.4c2.2.9 4.4 1.5 6.7 2z" fill="#e0a194"/><path d="m257.6 84.7c-1.2.8-2.8.9-3.6 2.2-.9 1.4 0 3.2.2 4.9.2 1.8-.3 3.7-1.4 5.1-.3.5-.7.9-1.2 1.2-1.9 1.5-4.2 2.4-6.5 2.4 0 0-1.3-5.3-1.3-5.8.2-1.9 1.4-3.6 1.6-5.5.1-2.1.3-4.1.6-6.1.9-4 3.5-7.3 7.2-9 .5-.2 1.1-.3 1.4.1.1.2.1.4.1.6-.3 2.1-1.7 3.9-3 5.6 1.2-.7 2.5-1.2 3.9-1.6.6-.2 1.5-.1 1.5.6 0 .3-.2.6-.5.7l-3.6 3.2c1.5-.5 3-.6 4.5-.5.3 0 .5.1.7.2.4.5 0 1.3-.6 1.7z" fill="#ffbbab"/><path d="m257.6 84.7c-1.2.8-2.8.9-3.6 2.2-.9 1.4 0 3.2.2 4.9.2 1.8-.3 3.7-1.4 5.1-.4.3-.9.5-1.3.6-.3.1-.7.2-1 .1-.6-.3-.8-1-.6-1.6s.5-1.1.8-1.7c.4-1 .5-2 .2-3-.4-.8-.7-1.6-.8-2.5.1-.5.3-1.1.6-1.5l1.1-1.9c.2-.3.3-.6.4-.9s-.1-.7-.4-.8c-.4-.1-.7 0-1 .3-.6.4-2.1 2.3-1.9.6.2-1.2.7-2.3 1.3-3.3 1.2-2.1 2.5-4.1 4.1-5.9.2-.2.3-.4.5-.6-.3 2.1-1.7 3.9-3 5.6 1.2-.7 2.5-1.2 3.9-1.6.6-.2 1.5-.1 1.5.6 0 .3-.2.6-.5.7l-3.6 3.2c1.5-.5 3-.6 4.5-.5.3 0 .5.1.7.2.3.5-.1 1.3-.7 1.7z" fill="#e0a194"/><path d="m112 83.5c1.2.8 2.8 1 3.6 2.2.9 1.4 0 3.2-.2 4.9-.2 1.8.3 3.7 1.4 5.1.3.5.7.9 1.2 1.2 1.9 1.5 4.2 2.4 6.5 2.4 0 0 1.3-5.3 1.3-5.8-.2-1.9-1.4-3.6-1.6-5.5-.1-2.1-.3-4.1-.6-6.1-.9-4-3.5-7.3-7.2-9-.5-.2-1.1-.3-1.4.1-.1.2-.1.4-.1.6.3 2.1 1.7 3.9 3 5.6-1.2-.7-2.5-1.2-3.9-1.6-.6-.2-1.5-.1-1.5.6 0 .3.2.6.5.7l3.6 3.2c-1.5-.5-3-.6-4.5-.5-.3 0-.5.1-.7.2-.4.5.1 1.3.6 1.7z" fill="#ffbbab"/><path d="m112 83.5c1.2.8 2.8 1 3.6 2.2.9 1.4 0 3.2-.2 4.9-.2 1.8.3 3.7 1.4 5.1.4.3.9.5 1.3.6.3.1.7.2 1 .1.6-.3.8-1 .6-1.6s-.5-1.1-.8-1.7c-.4-1-.5-2-.2-3 .4-.8.7-1.6.8-2.5-.1-.5-.3-1.1-.6-1.5l-1.1-1.9c-.2-.3-.3-.6-.4-.9s.1-.7.4-.8c.4-.1.7 0 1 .3.6.4 2.1 2.3 1.9.6-.2-1.2-.7-2.3-1.3-3.3-1.2-2.1-2.5-4.1-4.1-5.9-.2-.2-.3-.4-.5-.6.3 2.1 1.7 3.9 3 5.6-1.2-.7-2.5-1.2-3.9-1.6-.6-.1-1.5 0-1.5.6 0 .3.2.6.5.7l3.6 3.2c-1.5-.5-3-.6-4.5-.5-.3 0-.5.1-.7.2-.3.5.2 1.3.7 1.7z" fill="#e0a194"/><path d="m246.4 101c-2.8 3.9-6.2 7.4-10.2 10.1-2.8 1.9-6.1 3.1-9.6 3.4-.5 0-.9 0-1.3-.1-.7-.2-1.4-.7-1.9-1.3-1.4-1.7-2.3-3.8-2.4-6-.2-5.8 6-9.2 6-9.2s14.3-4.6 16-3.8c.9.4 1.8 2.4 2.4 4.2.7 1.5 1 2.7 1 2.7z" fill="#fff"/><path d="m178.4 80.5c4.4 4 4.8 10.7.8 15.2l-19.4 21.7c-4 4.4-10.7 4.8-15.2.8-4.4-4-4.8-10.7-.8-15.2l19.4-21.7c4-4.4 10.8-4.8 15.2-.8z" fill="#fff"/><path d="m148.6 103.1-20.8-12.9-8 10.3s20.2 23 27.9 21.8 10.4-3.5 10.4-3.5 2.9-10-9.5-15.7z" fill="#fff"/><path d="m246.4 101c-2.8 3.9-6.2 7.4-10.2 10.1-2.8 1.9-6.1 3.1-9.6 3.4-.5 0-.9 0-1.3-.1-.2.1-.4.1-.6.2-4.3.9-10-2.4-14-5.3v-.1l1.3-8.7c2.6 2.7 5.6 4.9 9 6.6 2.4 1.3 5 1.8 7.7 1.4.7-.1 1.4-.3 2.1-.6 5.3-2.6 10.3-5.8 14.7-9.6.6 1.5.9 2.7.9 2.7z" fill="#020202" opacity=".1"/><path d="m215.8 247.3s-2.2 2.4-1.3 4.6c.8 2.2 12.3 16.4 24.7 12.5s-10.5-13-10.5-13z" fill="#4d6cc2"/><path d="m218.7 240.9c1.1-.1 2.1.6 2.4 1.6.6 1.9 3.4 5.2 6.9 5.5 3.5.4 6-2.9 7.7-2.3 1.6.5 7.6 10.8 7 14-.6 3.3-5.8 4-10.7 2.7-4.9-1.4-14.6-8.5-15.8-11.8s.8-8.5 2.5-9.7z" fill="#fff"/><path d="m195.4 36.9c-.1.4-.5.5-.9.4 0 0 0 0-.1 0-.3-.2-.6-.4-.8-.7-.3.9-.4 1.9-.1 2.8.2.9.1 1.9-.3 2.7-.2.3-.6.6-.8.9-.3.3-.4.7-.4 1.1.2.6 1 .8 1.6.7 1.1-.2 2.1-.8 2.7-1.7.6-1.1 1-2.3 1.1-3.6.1-1.1.3-2.1-.4-2.9-.2-.2-1-1-1.4-.8s-.1.7-.2 1.1z" fill="#fff" opacity=".33"/><path d="m195 56.6c-.1.1-.1.1-.2.2-.2.4-.2.8 0 1.1.2.4.4.7.7.9.1.1.1.1.2.1s.2-.1.2-.2c.3-.9.3-1.9.2-2.9-.1-1.5-.3-3-.5-4.4-.1-1.4-.4-2.7-.9-3.9-.4-.6-1.2-.9-1.9-.6-1 .4-.4 1.6-.1 2.4.3.9.4 1.9.5 2.9s.4 1.9 1.1 2.7c.2.2.5.4.7.6s.3.6.2.9c0 .1-.1.2-.2.2z" fill="#fff" opacity=".33"/><path d="m229 101c-.4.1-.9.2-1.3.1-.6-.1-1.1-.3-1.6-.6-1.2-.6-2.3-1.3-3.4-2.2-1-.9-1.8-2-2-3.3 2.6.7 4.7 3.1 7.3 3.1.9-.1 1.7-.2 2.5-.5l3.9-1.3c2.7-.9 5.5-1.7 8.3-1.3.1 0 .2.1.3.1.1.1.1.2.1.3-.2 1.1-1.4 1.3-2.2 1.6-1.3.5-2.6 1.1-3.9 1.6-2.7 1-5.3 1.8-8 2.4z" fill="#fff" opacity=".33"/><path d="m199.2 85.4c2.8 4 4.8 8.5 5.7 13.3.6 3.1.9 6.3 2.6 8.9 1.2-.7 1.4-2.4 1.4-3.8-.1-4.8-.6-9.5-1.5-14.2-.3-2.3-.8-4.5-1.6-6.6-2-4.8-6.3-8.2-11.4-9.1-.6-.3-1.3-.1-1.6.5-.2.3-.2.7-.1 1 .4 3 1.9 5.7 4.3 7.6" fill="#fff" opacity=".33"/><path d="m125.9 9.3v48.7c-32.7-5.4-54-14.3-54-24.3s21.3-19 54-24.4z" fill="url(#b)"/><path d="m163.3 62.2v186.4c-13.5-.9-26.1-2.4-37.4-4.2-32.7-5.4-54-14.3-54-24.3v-186.5c0 10.1 21.3 18.9 54 24.3 11.2 1.9 23.8 3.4 37.4 4.3z" fill="url(#c)"/><path d="m266.1 9.3v48.7c32.7-5.4 54-14.3 54-24.3s-21.3-19-54-24.4z" fill="url(#d)"/><path d="m228.7 62.2v186.4c13.5-.9 26.1-2.4 37.4-4.2 32.7-5.4 54-14.3 54-24.3v-186.5c0 10.1-21.3 18.9-54 24.3-11.2 1.9-23.8 3.4-37.4 4.3z" fill="url(#e)"/><path d="m254.2 100.2v133.1c9.7-.7 18.7-1.7 26.7-3 23.3-3.8 38.6-10.2 38.6-17.4v-133.1c0 7.2-15.2 13.5-38.6 17.4-8 1.3-17 2.3-26.7 3z" fill="url(#f)"/><path d="m266.1 87.9v133.1c9.7-.7 18.7-1.7 26.7-3 23.3-3.9 38.6-10.2 38.6-17.4v-133.1c0 7.2-15.2 13.5-38.6 17.4-8 1.3-17 2.3-26.7 3z" fill="#fff"/><path d="m266.1 87.9v133.1c9.7-.7 18.7-1.7 26.7-3 23.3-3.9 38.6-10.2 38.6-17.4v-133.1c0 7.2-15.2 13.5-38.6 17.4-8 1.3-17 2.3-26.7 3z" fill="url(#g)"/><path d="m163.3 257.2v-8.6" fill="none"/><path d="m163.3 62.2v-9.3" fill="none"/><ellipse cx="88.5" cy="138.8" fill="#4d6cc2" rx="19.6" ry="40.9" transform="matrix(.9975 -.07062699 .07062699 .9975 -9.5848 6.5981)"/><ellipse cx="88.5" cy="138.8" fill="#4d6cc2" rx="19.6" ry="40.9" transform="matrix(.9975 -.07062699 .07062699 .9975 -9.5848 6.5981)"/><ellipse cx="88.5" cy="138.8" fill="#020202" opacity=".29" rx="19.6" ry="40.9" transform="matrix(.9975 -.07062699 .07062699 .9975 -9.5848 6.5981)"/><g fill="#4d6cc2"><path d="m100.8 159.5c-2.6 11.9-8.2 20.2-15.3 20.7-10.8.8-20.8-16.8-22.4-39.4s5.9-41.4 16.6-42.1 20.8 16.8 22.4 39.4c.6 7.1.1 14.3-1.3 21.4z"/><path d="m319.8 104.2-.3-.9c2.3-.8 4.5-1.9 6.5-3.2l.5.8c-2 1.3-4.3 2.4-6.7 3.3z"/><path d="m305.9 108-.2-.9c1.9-.4 3.8-.8 5.6-1.3l.2.9c-1.8.5-3.7.9-5.6 1.3z"/><path d="m281.3 111.6-.1-.9s4.7-.4 11.1-1.3l.1.9c-6.3.9-11.1 1.3-11.1 1.3z"/><path d="m289.9 124.8-.1-.9s2.7-.2 6.7-.8c7.7-1.1 21.8-3.6 29.5-8.9l.5.8c-7.9 5.3-22.1 7.9-29.9 9-3.9.6-6.6.8-6.7.8z"/><path d="m317.2 113-.3-.9c3.2-.9 6.3-2.3 9.1-4l.5.8c-2.8 1.8-6 3.2-9.3 4.1z"/><path d="m302.6 116.4-.1-.9c3.6-.5 7.2-1.2 10.8-2.2l.2.9c-3.6.9-7.3 1.7-10.9 2.2z"/><path d="m283.2 118.7-.1-.9c.1 0 6.1-.4 13.8-1.4l.1.9c-7.7 1-13.7 1.4-13.8 1.4z"/><path d="m291.2 138.7-.1-.9c.2 0 23.7-1.8 34.9-9.4l.5.8c-11.3 7.7-34.3 9.4-35.3 9.5z"/><path d="m291.2 132.2-.1-.9c.2 0 23.7-1.9 34.9-9.5l.5.8c-11.3 7.8-34.3 9.6-35.3 9.6z"/><path d="m281.3 154v-1c.2 0 25.1-1.4 37.5-7.1l.4.8c-12.6 5.8-37.7 7.2-37.9 7.3z"/><path d="m292.4 166.8-.1-.9c.2 0 22.4-1.7 33.7-9.3l.5.8c-11.3 7.7-33.9 9.3-34.1 9.4z"/><path d="m292.4 159.9-.1-.9c.2 0 22.4-1.7 33.7-9.3l.5.8c-11.3 7.7-33.9 9.4-34.1 9.4z"/><path d="m281.3 179.5v-.9c.2 0 25.1-1.4 37.5-7.1l.4.9c-12.6 5.7-37.7 7.1-37.9 7.1z"/><path d="m292.4 192.3-.1-.9c.2 0 22.4-1.7 33.7-9.3l.5.8c-11.3 7.7-33.9 9.4-34.1 9.4z"/><path d="m292.4 185.4-.1-.9c.2 0 22.4-1.7 33.7-9.3l.5.8c-11.3 7.8-33.9 9.4-34.1 9.4z"/><path d="m100.8 159.5-21.1-23.2v-37.7c10.8-.8 20.8 16.8 22.4 39.4.6 7.2.1 14.4-1.3 21.5z"/></g><path d="m100.8 159.5-21.1-23.2v-37.7c10.8-.8 20.8 16.8 22.4 39.4.6 7.2.1 14.4-1.3 21.5z" fill="#fff"/><path d="m100.8 159.5-21.1-23.2v-37.7c10.8-.8 20.8 16.8 22.4 39.4.6 7.2.1 14.4-1.3 21.5z" fill="#4d6cc2"/><path d="m100.8 159.5-21.1-23.2v-37.7c10.8-.8 20.8 16.8 22.4 39.4.6 7.2.1 14.4-1.3 21.5z" fill="#020202" opacity=".29"/><path d="m168.5 252.9s-2.5 2-2.1 4.3 9.2 18.3 22.1 16.6-8-14.6-8-14.6z" fill="#4d6cc2"/><path d="m172.5 247.1c1.1.1 2 .9 2.1 2 .2 1.9 2.4 5.7 5.8 6.7s6.5-1.8 8-.9 5.6 11.9 4.4 15.1c-1.2 3.1-6.4 3-11 .7s-12.9-11-13.5-14.4c-.7-3.5 2.3-8.3 4.2-9.2z" fill="#fff"/><path d="m79.7 98.6 7.6-.5s12.6-.5 18.9 26.7c2.8 11.7 2.9 23.9.1 35.6l-5.5-.9s5.1-55.4-21.1-60.9z" fill="#4d6cc2"/><path d="m79.7 98.6 7.6-.5s12.6-.5 18.9 26.7c2.8 11.7 2.9 23.9.1 35.6l-5.5-.9s5.1-55.4-21.1-60.9z" fill="#020202" opacity=".62"/></svg>