<?xml version="1.0" encoding="UTF-8"?>
<svg width="321px" height="305px" viewBox="0 0 321 305" version="1.1" xmlns="http://www.w3.org/2000/svg" xmlns:xlink="http://www.w3.org/1999/xlink">
    <title>Information carousel_Monochromatic (1)</title>
    <defs>
        <linearGradient x1="-72.5666782%" y1="148.024542%" x2="274.610322%" y2="-83.84706%" id="linearGradient-1">
            <stop stop-color="#000000" offset="1%"></stop>
            <stop stop-color="#000000" stop-opacity="0.69" offset="13%"></stop>
            <stop stop-color="#000000" stop-opacity="0.32" offset="25%"></stop>
            <stop stop-color="#000000" stop-opacity="0" offset="100%"></stop>
        </linearGradient>
        <linearGradient x1="14.9047453%" y1="99.9869537%" x2="104.381252%" y2="-27.4624918%" id="linearGradient-2">
            <stop stop-color="#000000" offset="1%"></stop>
            <stop stop-color="#000000" stop-opacity="0.69" offset="13%"></stop>
            <stop stop-color="#000000" stop-opacity="0.32" offset="25%"></stop>
            <stop stop-color="#000000" stop-opacity="0" offset="100%"></stop>
        </linearGradient>
        <linearGradient x1="166.643575%" y1="156.264331%" x2="-238.759958%" y2="-155.324558%" id="linearGradient-3">
            <stop stop-color="#000000" offset="1%"></stop>
            <stop stop-color="#000000" stop-opacity="0.69" offset="13%"></stop>
            <stop stop-color="#000000" stop-opacity="0.32" offset="25%"></stop>
            <stop stop-color="#000000" stop-opacity="0" offset="100%"></stop>
        </linearGradient>
        <linearGradient x1="77.4031934%" y1="59.2302674%" x2="-4.87484084%" y2="31.5068493%" id="linearGradient-4">
            <stop stop-color="#000000" offset="1%"></stop>
            <stop stop-color="#000000" stop-opacity="0.69" offset="13%"></stop>
            <stop stop-color="#000000" stop-opacity="0.32" offset="25%"></stop>
            <stop stop-color="#000000" stop-opacity="0" offset="100%"></stop>
        </linearGradient>
        <linearGradient x1="78.372025%" y1="21.6830055%" x2="4.92368867%" y2="99.3241186%" id="linearGradient-5">
            <stop stop-color="#000000" offset="1%"></stop>
            <stop stop-color="#000000" stop-opacity="0.69" offset="13%"></stop>
            <stop stop-color="#000000" stop-opacity="0.32" offset="25%"></stop>
            <stop stop-color="#000000" stop-opacity="0" offset="100%"></stop>
        </linearGradient>
        <linearGradient x1="79.0904041%" y1="50.6119467%" x2="23.7541664%" y2="49.4550326%" id="linearGradient-6">
            <stop stop-color="#000000" offset="1%"></stop>
            <stop stop-color="#000000" stop-opacity="0.69" offset="13%"></stop>
            <stop stop-color="#000000" stop-opacity="0.32" offset="25%"></stop>
            <stop stop-color="#000000" stop-opacity="0" offset="100%"></stop>
        </linearGradient>
    </defs>
    <g id="Page-1" stroke="none" stroke-width="1" fill="none" fill-rule="evenodd">
        <g id="workers-desktop" transform="translate(-969.000000, -145.000000)">
            <g id="Information-carousel_Monochromatic-(1)" transform="translate(969.990881, 145.655298)">
                <path d="M130.383059,273.159964 C129.201812,275.71283 127.987133,278.353725 128.009421,281.159676 C128.151655,283.930612 129.142589,286.593598 130.851101,288.796264 C134.410726,293.721621 139.761536,297.096773 145.78385,298.215457 C146.56755,298.435513 147.404971,298.373106 148.146345,298.039398 C148.649598,297.702171 149.038008,297.222762 149.260729,296.663931 C150.609134,293.758947 149.918216,290.336787 148.892982,287.299757 C147.867749,284.262728 146.485912,281.247706 146.530488,278.04562 C146.608495,272.037584 154.966377,260.142552 144.747473,257.60069 C136.222433,255.421952 132.934999,267.713118 130.383059,273.159964 Z" id="Path" fill="#FFBBAB" fill-rule="nonzero"></path>
                <path d="M186.353555,264.632035 C185.539458,267.291708 184.725362,270.104613 185.105273,272.819012 C185.610175,275.533229 186.919732,278.029164 188.860974,279.977145 C192.942078,284.363718 198.54597,286.991006 204.502488,287.3104 C205.291332,287.423988 206.094636,287.253461 206.771104,286.828813 C207.217333,286.429916 207.531737,285.902813 207.672038,285.318381 C208.594681,282.275628 207.476655,279.003026 206.087263,276.14634 C204.697871,273.289654 202.971986,270.487694 202.592074,267.324544 C201.875669,261.392269 208.388444,248.57549 198.185096,247.404359 C189.664216,246.375514 188.10115,258.918663 186.353555,264.632035 Z" id="Path" fill="#FFBBAB" fill-rule="nonzero"></path>
                <path d="M169.556224,158.601023 C176.541285,164.964454 183.348098,171.561916 189.854119,178.415699 C193.818444,182.656469 197.562834,187.097753 201.072549,191.722068 C206.397683,198.586995 208.369542,204.114599 208.670334,212.985512 C209.127092,226.13586 209.56157,239.442228 206.83216,252.313967 C206.186014,255.345234 205.183374,258.599388 202.59879,260.304475 C198.788757,262.823101 193.318798,260.449352 190.856759,256.593402 C188.39472,252.737453 188.093928,247.945377 187.737434,243.376188 C186.957603,233.513428 185.88812,223.316336 183.437221,213.654174 C182.033525,208.148858 177.332256,206.454915 172.842656,203.479371 C164.342495,197.907189 150.205268,190.362456 146.0276,180.499695 C143.180674,173.285265 140.835593,165.882629 139.009119,158.344702 L169.556224,158.601023 Z" id="Path" fill="#282328" fill-rule="nonzero"></path>
                <path d="M156.395939,160.039577 C159.080592,169.346217 161.600654,178.704439 163.956126,188.114241 C165.777594,195.353967 167.533225,202.626853 169.003566,209.94395 C170.243481,216.166799 172.975682,225.351857 171.658959,231.475229 C170.957439,234.118342 169.874205,236.643288 168.443959,238.969174 L154.355018,264.512698 C153.613655,266.124897 152.52248,267.548899 151.161964,268.679685 C148.232254,270.7466 141.7035,267.519118 139.289507,265.485363 C136.875514,263.451608 136.195207,260.644142 136.348825,257.549297 C137.127886,242.14139 144.940445,235.25536 146.136469,219.86956 C146.136469,219.86956 116.696727,193.486007 120.317717,160.183266 C123.938706,126.880524 156.395939,160.039577 156.395939,160.039577 Z" id="Path" fill="#282328" fill-rule="nonzero"></path>
                <path d="M196.970549,107.936138 C196.775496,111.192185 195.696967,114.034233 192.794118,114.974123 C192.551599,115.06107 192.302163,115.128432 192.048327,115.175528 C186.713052,116.216121 179.71409,112.255156 174.837763,108.797703 C172.807743,107.364902 170.8618,105.8221 169.009119,104.176578 L169.009119,69.3447025 L194.96265,95.2588119 C194.96265,95.2588119 197.337707,102.218473 196.970549,107.936138 Z" id="Path" fill="#FFFFFF" fill-rule="nonzero"></path>
                <path d="M176.402562,108.517663 C175.193215,114.783531 174.440874,121.126639 174.151309,127.498341 C173.532215,138.086278 172.035131,148.563346 170.538048,159.084761 C160.407411,161.169088 149.98411,160.370835 139.673373,158.829764 C136.071368,158.286509 132.491876,157.665645 128.934897,157.033695 C127.730476,156.823045 126.683644,156.235442 125.445455,155.925011 C119.52466,154.472634 117.138332,125.857488 116.598031,116.888231 C116.080243,108.35136 115.903895,99.8107944 116.068987,91.2665328 C116.192806,85.0689866 116.688082,78.3725325 120.796618,73.693884 C126.267162,67.4630773 136.836794,63.3387711 144.86251,61.8863945 C147.45345,61.3641134 150.108087,61.2184383 152.741895,61.4540076 C156.489922,62.0434087 160.109415,63.2542395 163.446602,65.0350584 C167.431319,66.9752562 170.977043,68.6161092 172.935633,72.4965048 C175.081917,76.9802987 176.578592,81.7386276 177.381857,86.6322317 C178.653815,93.9384624 177.820851,101.333388 176.402562,108.517663 Z" id="Path" fill="#FFFFFF" fill-rule="nonzero"></path>
                <path d="M139.009119,160.344702 C135.418875,159.802336 131.85107,159.182489 128.305704,158.551573 C127.105216,158.341267 126.061801,157.754626 124.827655,157.444702 C118.926192,155.994702 116.547655,127.426382 116.009119,118.471802 L130.23546,102.344702 C130.23546,102.344702 126.274972,148.866458 139.009119,160.344702 Z" id="Path" fill="#020202" fill-rule="nonzero" opacity="0.1"></path>
                <path d="M156.733869,53.0998208 C155.793708,54.1043703 154.513693,54.7354977 153.134649,54.8744618 C151.98313,54.9988438 150.822584,55.0205737 149.667107,54.9393877 L149.019686,54.9393877 C148.856967,54.9117506 148.68959,54.9424585 148.547837,55.0259556 C148.413473,55.1620127 148.338611,55.3446281 148.339346,55.5345417 C148.087016,57.8092407 148.042945,60.1017277 148.207667,62.3842232 L148.207667,62.3842232 C148.207667,62.7954205 148.273506,63.2066178 148.317399,63.6178151 C148.403079,64.0487522 148.365075,64.4947188 148.207667,64.9055119 C147.880263,65.3802166 147.375009,65.7071897 146.803093,65.8144744 C145.791377,66.1513607 144.732486,66.3302619 143.664748,66.3447025 C141.382316,66.3447025 139.275455,65.2084994 137.278326,64.1264012 C137.432427,60.2237815 137.223058,56.3154498 136.652852,52.4505619 C135.917645,47.4945523 134.589884,42.4411538 135.138546,37.4310393 C135.261437,35.4608605 135.988527,33.5740144 137.22346,32.0205484 C139.05599,29.9970248 142.00779,29.3369449 144.762072,29.3477659 C148.411162,29.282819 152.002523,30.2517641 155.109831,32.1395792 C156.207154,32.9078689 156.382726,33.8817573 156.646083,35.1586331 C157.04112,37.1280518 157.359344,39.1191124 157.578808,41.1101731 C157.83485,43.3825792 157.977502,45.6658064 158.006764,47.9598545 C158.028711,49.7344955 157.918979,51.7147352 156.733869,53.0998208 Z" id="Path" fill="#FFBBAB" fill-rule="nonzero"></path>
                <path d="M152.756015,35.255904 C150.135021,35.6941465 147.226492,35.255904 144.81562,36.2419497 C141.365197,37.6333697 139.894344,42.0705751 141.044484,45.5765152 C140.04917,45.9380653 139.872225,44.1522271 139.098092,43.3853027 C138.323959,42.6183783 136.587688,43.6263361 136.466039,44.8643712 C136.531714,46.1098966 136.911972,47.3191571 137.571944,48.3812673 C138.513054,50.5669702 138.676827,53.0045533 138.036424,55.294543 C137.881597,55.8313901 137.483471,56.4668417 136.930519,56.3244129 C136.377567,56.1819841 136.001559,55.2288066 135.669788,54.8672565 C135.142329,54.2351464 134.561472,53.6487025 133.933517,53.1142865 C132.717022,52.0186802 131.378877,51.1312391 130.140264,50.1013692 C127.928455,48.2717067 125.882531,45.7956365 126.015239,42.9470602 C126.068301,41.7709105 126.451271,40.6327017 127.121144,39.6602413 C127.687025,38.8329069 128.417,38.1283674 129.266599,37.5895454 C129.620489,37.3704242 130.018615,37.1293908 130.096028,36.7349725 C130.120459,36.5092688 130.094019,36.2810065 130.018615,36.0666527 C129.25554,33.1742521 130.88122,30.0736863 133.281033,28.276892 C135.810343,26.6427326 138.694364,25.6252669 141.696968,25.3077989 C143.621242,24.968161 145.567635,24.6942594 147.502968,24.4751382 C149.109786,24.3971236 150.688228,24.0256881 152.158827,23.3795319 C151.778136,22.3350221 151.261362,21.3442479 150.621619,20.432351 C151.99575,20.8588415 153.302469,21.4747672 154.503345,22.2620135 C154.436104,21.5992287 154.260556,20.95168 153.98357,20.3447025 C156.095848,21.0568466 158.318716,21.8566391 159.712156,23.6315213 C161.365727,25.9036103 161.444734,28.9474859 159.911219,31.3007653 C158.418247,33.6344067 156.06267,34.5875842 153.463794,35.1901676 L152.756015,35.255904 Z" id="Path" fill="#FE9F24" fill-rule="nonzero"></path>
                <path d="M148.009119,55.9358136 L147.43336,55.9358136 C147.288651,55.9045977 147.139801,55.939282 147.013739,56.0335914 C146.894248,56.1872669 146.827672,56.3935297 146.828325,56.6080358 C146.603926,59.1772922 146.564733,61.76664 146.711222,64.3447025 L146.711222,64.3447025 C146.711222,64.3447025 140.856049,62.4624802 141.012187,53.3447025 C143.252201,54.5127327 145.584431,55.3812517 147.970084,55.9358136 L148.009119,55.9358136 Z" id="Path" fill="#E0A194" fill-rule="nonzero"></path>
                <path d="M231.096377,78.9546275 C229.7023,79.8344835 227.829008,80.0408694 226.925036,81.4964335 C225.890369,83.1366588 226.925036,85.2331056 227.153751,87.1557537 C227.394821,89.2754818 226.792609,91.404948 225.476502,93.0866343 C225.078226,93.6139801 224.625578,94.0981976 224.125989,94.531336 C221.96568,96.2826247 219.285093,97.2718181 216.502127,97.3447025 C216.502127,97.3447025 214.966463,91.1965735 215.010028,90.5665532 C215.195179,88.3940694 216.687278,86.4171092 216.926885,84.1685885 C217.023814,81.7838508 217.241918,79.4055486 217.580359,77.0428419 C218.578666,72.416514 221.707231,68.5312517 226.021063,66.5606078 C226.554734,66.3216346 227.31712,66.1804231 227.611183,66.6909568 C227.71274,66.9079703 227.739543,67.152374 227.687422,67.3861516 L227.687422,67.3861516 C227.360685,69.8519206 225.748783,71.937505 224.191336,73.9036028 C225.598634,73.1007687 227.107927,72.4906107 228.678524,72.0895789 C229.375563,71.9049178 230.41023,72.013542 230.421121,72.7304616 C230.368106,73.0742419 230.174967,73.3808751 229.88745,73.5777303 L225.683435,77.3361272 C227.389512,76.7840056 229.191277,76.5880367 230.976574,76.760419 C231.275855,76.7627662 231.566298,76.8618657 231.804307,77.0428419 C232.327086,77.5968252 231.760742,78.5418556 231.096377,78.9546275 Z" id="Path" fill="#FFBBAB" fill-rule="nonzero"></path>
                <path d="M231.048112,79.5660125 C229.560389,80.4903132 227.56126,80.7071245 226.596564,82.2362146 C225.492394,83.9592938 226.596564,86.1616401 226.840644,88.1814084 C227.097907,90.4082119 226.455242,92.6452455 225.050726,94.4118801 C224.522943,94.7259735 223.961699,94.9823514 223.377037,95.1764252 C222.972357,95.3573502 222.515984,95.3936794 222.086902,95.2791253 C221.385502,94.900871 221.058228,94.0856006 221.308172,93.3392348 C221.577306,92.6262574 221.91187,91.9387638 222.307736,91.2852331 C222.853516,90.1151261 222.924181,88.7847017 222.505324,87.5652079 C221.979819,86.6271175 221.651755,85.5948836 221.540628,84.5298498 C221.650771,83.8665594 221.908741,83.235331 222.296113,82.6812483 L223.655985,80.3990242 C223.894907,80.0570386 224.053683,79.6673289 224.120899,79.2579122 C224.187217,78.8531231 223.987137,78.4511149 223.621117,78.2537336 C223.169011,78.1480703 222.693077,78.2723884 222.354227,78.5846561 C221.598743,79.1209788 219.797202,81.3917917 220.029659,79.2807344 C220.309494,77.8513124 220.840435,76.4805687 221.598743,75.2297867 C223.05875,72.6735245 224.767539,70.2621247 226.70117,68.0293697 C226.90457,67.7818131 227.130183,67.5526721 227.375295,67.3447025 L227.375295,67.3447025 C227.026609,69.9350268 225.306429,72.1259619 223.644363,74.1913747 C225.146195,73.3479865 226.756873,72.707007 228.432973,72.2857176 C229.176835,72.0917286 230.281005,72.2058398 230.292628,72.9589737 C230.236052,73.3201197 230.029938,73.642242 229.723109,73.8490411 L225.236692,77.7972888 C227.057373,77.2172775 228.98017,77.0114094 230.885393,77.1924994 C231.204777,77.1949652 231.514732,77.2990706 231.768729,77.4891885 C232.361493,78.1396224 231.757106,79.1323899 231.048112,79.5660125 Z" id="Path" fill="#E0A194" fill-rule="nonzero"></path>
                <path d="M57.9179469,76.9352755 C59.3123636,77.8160573 61.1861111,78.0770297 62.0903032,79.4797563 C63.1796913,81.1217075 62.0903032,83.2203604 61.8615317,85.1450318 C61.6204037,87.2669905 62.222762,89.3986975 63.5391893,91.0821535 C63.9375619,91.6100543 64.3903203,92.0947813 64.8900305,92.5283755 C67.050865,94.2815071 69.7321042,95.2717414 72.515747,95.3447025 C72.515747,95.3447025 74.0517842,89.1901037 74.0082086,88.5594205 C73.8230127,86.3846506 72.330551,84.40561 72.0908856,82.1547232 C71.9939333,79.767476 71.7757756,77.386671 71.4372528,75.021478 C70.4386622,70.4114879 67.3282236,66.5376359 63.0380708,64.560835 C62.5042707,64.3216103 61.741699,64.1802502 61.4475642,64.6913212 C61.3459822,64.908563 61.3191732,65.1532239 61.3713071,65.3872475 L61.3713071,65.3872475 C61.6981235,67.8556113 63.3104178,69.9433904 64.8682428,71.9115571 C63.4606025,71.1078782 61.9509424,70.4970781 60.3799639,70.0956243 C59.6936494,69.9107688 58.6042614,69.9977596 58.6042614,70.7371814 C58.6572891,71.0813235 58.8504756,71.3882793 59.1380615,71.5853416 L63.3430995,75.3476935 C61.6366072,74.794991 59.8344042,74.5988158 58.0486735,74.7713795 C57.7493198,74.7737292 57.4588053,74.872933 57.2207385,75.0540996 C56.6869384,75.5760444 57.2534202,76.5220693 57.9179469,76.9352755 Z" id="Path" fill="#FFBBAB" fill-rule="nonzero"></path>
                <path d="M57.9780635,77.5660125 C59.4647173,78.4903132 61.4624082,78.7641801 62.4264103,80.2362146 C63.5878585,81.9592938 62.4264103,84.1616401 62.1825062,86.1814084 C61.9254282,88.4082119 62.5676309,90.6452455 63.9711364,92.4118801 C64.4985398,92.7259735 65.0593809,92.9823514 65.6436219,93.1764252 C66.0480109,93.3573502 66.5040558,93.3936794 66.9328295,93.2791253 C67.6337251,92.900871 67.9607638,92.0856006 67.7109998,91.3392348 C67.4420589,90.6262574 67.107736,89.9387638 66.7121543,89.2852331 C66.1667668,88.1151261 66.0961525,86.7847017 66.5147081,85.5652079 C67.0398356,84.6271175 67.3676637,83.5948836 67.4787101,82.5298498 C67.3686465,81.8665594 67.1108622,81.235331 66.7237688,80.6812483 L65.3648743,78.3990242 C65.1261247,78.0570386 64.9674627,77.6673289 64.900295,77.2579122 C64.8340247,76.8531231 65.0339612,76.4511149 65.3997178,76.2537336 C65.8514982,76.1480703 66.3270902,76.2723884 66.6656964,76.5846561 C67.4206377,77.1209788 69.2208825,79.3917917 68.9885928,77.2807344 C68.7089589,75.8513124 68.1784004,74.4805687 67.4206377,73.2297867 C65.96168,70.6735245 64.2541201,68.2621247 62.3218799,66.0293697 C62.1186261,65.7818131 61.8931756,65.5526721 61.64824,65.3447025 L61.64824,65.3447025 C61.9966744,67.9350268 63.7156178,70.1259619 65.3764888,72.1913747 C63.8757368,71.3479865 62.2662167,70.707007 60.5913221,70.2857176 C59.8712242,70.1944287 58.7097759,70.2857176 58.7097759,71.0616738 C58.7663113,71.4228198 58.9722765,71.7449421 59.2788856,71.9517412 L63.7620758,75.8999889 C61.9427035,75.3199776 60.0212895,75.1141095 58.1174373,75.2951995 C57.7982822,75.2976653 57.4885509,75.4017707 57.2347367,75.5918886 C56.665627,76.1396224 57.2695801,77.1323899 57.9780635,77.5660125 Z" id="Path" fill="#E0A194" fill-rule="nonzero"></path>
                <path d="M217.009119,99.495194 C213.733017,104.097453 209.673687,108.10184 205.012126,111.32981 C201.646157,113.591973 197.752996,114.968443 193.700045,115.32932 C193.166955,115.375896 192.629832,115.316447 192.12033,115.154478 C191.241264,114.907436 190.46635,114.386186 189.91094,113.668321 C188.223595,111.676802 187.211187,109.211349 187.016638,106.620004 C186.740464,99.8448779 194.164017,95.900006 194.164017,95.900006 C194.164017,95.900006 211.065857,90.567326 213.076403,91.4415359 C214.181098,91.9114236 215.219512,94.2608626 215.948611,96.3043281 C216.622475,98.0090373 217.009119,99.495194 217.009119,99.495194 Z" id="Path" fill="#FFFFFF" fill-rule="nonzero"></path>
                <path d="M115.400615,66.8879551 L117.943538,66.8879551 C124.286528,66.8879551 129.428538,72.0299648 129.428538,78.3729551 L129.428538,115.481055 C129.428538,121.824046 124.286528,126.966055 117.943538,126.966055 L115.400615,126.966055 C109.057625,126.966055 103.915615,121.824046 103.915615,115.481055 L103.915615,78.3729551 C103.915615,72.0299648 109.057625,66.8879551 115.400615,66.8879551 Z" id="Rectangle" fill="#FFFFFF" fill-rule="nonzero" transform="translate(116.672076, 96.927005) rotate(41.860000) translate(-116.672076, -96.927005) "></path>
                <path d="M102.28483,101.16295 L77.544383,86.3447025 L68.0091185,98.2315142 C68.0091185,98.2315142 92.0366482,124.657389 101.215454,123.293681 C110.39426,121.929973 113.658083,119.309935 113.658083,119.309935 C113.658083,119.309935 117.122414,107.798948 102.28483,101.16295 Z" id="Path" fill="#FFFFFF" fill-rule="nonzero"></path>
                <path d="M218.009119,99.5003469 C214.669112,104.051805 210.530599,108.011991 205.778108,111.20433 C202.34648,113.441523 198.377378,114.802799 194.245368,115.159692 C193.701879,115.205754 193.154279,115.146962 192.634839,114.98678 C192.396785,115.070758 192.151942,115.135819 191.90278,115.181306 C186.665745,116.186357 179.795656,112.360679 175.009119,109.021315 L175.009119,108.913245 L176.63091,98.8627338 C179.769427,101.973062 183.418021,104.56873 187.431591,106.546512 C190.264304,108.004776 193.500466,108.578991 196.689318,108.189176 C197.549385,108.057331 198.386742,107.813738 199.178317,107.465107 C205.574618,104.516388 211.541719,100.777907 216.927924,96.3447025 C217.614933,98.0305947 218.009119,99.5003469 218.009119,99.5003469 Z" id="Path" fill="#020202" fill-rule="nonzero" opacity="0.1"></path>
                <path d="M180.799428,273.344702 C180.799428,273.344702 178.24003,276.230376 179.241534,278.784363 C180.243037,281.338349 193.852357,298.143804 208.61897,293.555472 C223.385582,288.967141 196.166943,278.220495 196.166943,278.220495 L180.799428,273.344702 Z" id="Path" fill="#4E6DC2" fill-rule="nonzero"></path>
                <path d="M184.655482,264.364365 C185.988745,264.204165 187.238948,265.037715 187.593414,266.323175 C188.281992,268.600861 191.736358,272.643754 196.00554,273.076514 C200.274723,273.509275 203.430705,269.557489 205.404628,270.218018 C207.378551,270.878547 214.711906,283.326102 213.95447,287.300664 C213.197034,291.275226 206.885071,292.231854 200.848538,290.557755 C194.812005,288.883656 182.888132,280.171506 181.430642,276.208333 C179.973152,272.245159 182.601224,265.822084 184.655482,264.364365 Z" id="Path" fill="#FFFFFF" fill-rule="nonzero"></path>
                <path d="M156.742889,23.7192559 C156.669658,23.936835 156.518218,24.109931 156.325535,24.1962935 C156.132851,24.282656 155.916652,24.274339 155.729708,24.1733727 C155.374751,23.9860358 155.06799,23.7008938 154.838108,23.3446095 C154.490497,24.4403097 154.451593,25.6292023 154.726658,26.7504857 C154.99234,27.8642572 154.857752,29.0503529 154.351781,30.0541856 C154.088354,30.4515378 153.723609,30.7353608 153.439918,31.1100072 C153.112961,31.4478344 152.957266,31.9456822 153.024514,32.4382989 C153.196755,33.2102975 154.088354,33.4373559 154.787449,33.3124738 C155.967013,33.1096944 157.023178,32.3807835 157.715543,31.2916539 C158.410326,29.9773125 158.806913,28.4921332 158.870569,26.9661912 C159.012414,25.6378995 159.235314,24.4344899 158.414638,23.3900212 C158.191738,23.1061982 157.300138,22.1866116 156.945525,22.3682584 C156.449066,22.5839639 156.854339,23.2083745 156.742889,23.7192559 Z" id="Path" fill="#FFFFFF" fill-rule="nonzero" opacity="0.33"></path>
                <path d="M156.347372,45.5787704 C156.276877,45.6537903 156.194634,45.7288102 156.124139,45.8145472 C155.877404,46.2213213 155.877404,46.7152631 156.124139,47.1220372 C156.362033,47.5262834 156.67624,47.8890802 157.052317,48.1937503 C157.146309,48.2687702 157.240302,48.3545072 157.357793,48.3437901 C157.475284,48.333073 157.604524,48.1937503 157.663269,48.0651447 C158.015954,46.9773111 158.100214,45.8317417 157.91,44.7106828 C157.745513,42.9959419 157.52228,41.3240695 157.240302,39.6521971 C157.172407,38.0964924 156.773359,36.5676947 156.065394,35.1510022 C155.562755,34.4389228 154.574884,34.155075 153.715577,34.475823 C152.39968,34.9902453 153.257363,36.3191695 153.621584,37.187257 C153.96278,38.2598434 154.175506,39.3630068 154.256035,40.4774162 C154.333991,41.6036699 154.81248,42.6760108 155.618928,43.5317984 C155.920567,43.7588703 156.203321,44.0060427 156.464862,44.2712804 C156.729865,44.5478559 156.806616,44.9349703 156.664597,45.2786907 C156.578482,45.3945555 156.471179,45.4960592 156.347372,45.5787704 Z" id="Path" fill="#FFFFFF" fill-rule="nonzero" opacity="0.33"></path>
                <path d="M197.093171,98.1810096 C196.568217,98.3113119 196.02457,98.3643591 195.481976,98.3382242 C194.78604,98.2235358 194.1204,97.9851095 193.521501,97.6359989 C192.07836,96.9709129 190.721323,96.1551296 189.476613,95.2044127 C188.229586,94.247221 187.361292,92.9305394 187.009119,91.4627047 C190.118837,92.2697397 192.642667,94.9633503 195.85379,94.9423883 C196.88664,94.8839488 197.904354,94.6825971 198.873372,94.3449728 L203.61682,92.9300412 C206.850477,91.9762724 210.219339,91.0015418 213.565667,91.4627047 C213.700904,91.4697068 213.828902,91.5217987 213.926214,91.6094383 C214.003614,91.7093669 214.02845,91.8364334 213.993816,91.9553105 C213.779742,93.1711036 212.326286,93.3807231 211.312247,93.7265953 C209.734854,94.2716059 208.225063,94.9947932 206.647669,95.5502849 C203.535316,96.6406949 200.342124,97.5199048 197.093171,98.1810096 L197.093171,98.1810096 Z" id="Path" fill="#FFFFFF" fill-rule="nonzero" opacity="0.33"></path>
                <path d="M161.597549,81.2529137 C164.892517,85.930206 167.172948,91.257341 168.289721,96.8859686 C168.998175,100.485975 169.281557,104.328183 171.330626,107.344702 C172.758435,106.463967 172.998219,104.504331 173.009119,102.819924 C172.882881,97.2003578 172.281228,91.6019807 171.210734,86.0859497 C170.870622,83.4204583 170.234455,80.8021247 169.314255,78.2804314 C166.961055,72.6665248 161.973862,68.6216558 156.038905,67.5134401 C155.529415,67.2333985 154.900674,67.306882 154.467958,67.697043 C154.035242,68.087204 153.891867,68.7099024 154.109728,69.2528927 C154.604248,72.7551843 156.372173,75.9459853 159.068911,78.2033671" id="Path" fill="#FFFFFF" fill-rule="nonzero" opacity="0.33"></path>
                <path d="M74.0091185,0.344702467 L74.0091185,57.3447025 C35.2921113,51.040555 10.0091185,40.6321449 10.0091185,28.8884813 C10.0091185,17.1448177 35.2921113,6.67073933 74.0091185,0.344702467 Z" id="Path" fill="url(#linearGradient-1)" fill-rule="nonzero"></path>
                <path d="M118.009119,63.2227194 L118.009119,284.344702 C102.157267,283.235766 87.4111034,281.539093 74.2194725,279.332308 C35.9801642,272.944833 11.0091185,262.398845 11.0091185,250.499954 L11.0091185,29.3447025 C11.0091185,41.2768616 35.9801642,51.8228499 74.2194725,58.1770573 C87.4111034,60.4171095 102.157267,62.1248721 118.009119,63.2227194 Z" id="Path" fill="url(#linearGradient-2)" fill-rule="nonzero"></path>
                <path d="M242.009119,0.344702467 L242.009119,57.3447025 C280.726126,51.040555 306.009119,40.6321449 306.009119,28.8884813 C306.009119,17.1448177 280.726126,6.67073933 242.009119,0.344702467 Z" id="Path" fill="url(#linearGradient-3)" fill-rule="nonzero"></path>
                <path d="M203.009119,63.2227194 L203.009119,284.344702 C218.86097,283.235766 233.607134,281.539093 246.798765,279.332308 C285.038073,272.944833 310.009119,262.398845 310.009119,250.499954 L310.009119,29.3447025 C310.009119,41.2768616 285.038073,51.8228499 246.798765,58.1770573 C233.607134,60.4171095 218.86097,62.1248721 203.009119,63.2227194 Z" id="Path" fill="url(#linearGradient-4)" fill-rule="nonzero"></path>
                <path d="M226.009119,108.525668 L226.009119,266.344702 C237.563846,265.557879 248.358689,264.338857 257.924305,262.76521 C285.805394,258.2105 304.009119,250.685809 304.009119,242.163737 L304.009119,84.3447025 C304.009119,92.8667752 285.805394,100.391466 257.924305,104.946176 C248.325164,106.519823 237.563846,107.738845 226.009119,108.525668 Z" id="Path" fill="url(#linearGradient-5)" fill-rule="nonzero"></path>
                <path d="M241.009119,94.5256682 L241.009119,252.344702 C252.563846,251.568961 263.358689,250.349939 272.924305,248.776292 C300.805394,244.2105 319.009119,236.685809 319.009119,228.163737 L319.009119,70.3447025 C319.009119,78.8667752 300.805394,86.3914662 272.924305,90.957258 C263.31399,92.5309047 252.563846,93.7499268 241.009119,94.5256682 Z" id="Path" fill="#FFFFFF" fill-rule="nonzero"></path>
                <path d="M241.009119,94.5256682 L241.009119,252.344702 C252.563846,251.568961 263.358689,250.349939 272.924305,248.776292 C300.805394,244.2105 319.009119,236.685809 319.009119,228.163737 L319.009119,70.3447025 C319.009119,78.8667752 300.805394,86.3914662 272.924305,90.957258 C263.31399,92.5309047 252.563846,93.7499268 241.009119,94.5256682 Z" id="Path" fill="url(#linearGradient-6)" fill-rule="nonzero"></path>
                <line x1="118.509119" y1="295.344702" x2="118.509119" y2="284.344702" id="Path"></line>
                <line x1="118.509119" y1="62.3447025" x2="118.509119" y2="51.3447025" id="Path"></line>
                <ellipse id="Oval" fill="#4E6DC2" fill-rule="nonzero" transform="translate(29.920878, 153.897081) rotate(-4.050000) translate(-29.920878, -153.897081) " cx="29.9208781" cy="153.897081" rx="23.2470815" ry="48.5378625"></ellipse>
                <ellipse id="Oval" fill="#4E6DC2" fill-rule="nonzero" transform="translate(29.920878, 153.897081) rotate(-4.050000) translate(-29.920878, -153.897081) " cx="29.9208781" cy="153.897081" rx="23.2470815" ry="48.5378625"></ellipse>
                <ellipse id="Oval" fill="#020202" fill-rule="nonzero" opacity="0.29" transform="translate(29.920878, 153.897081) rotate(-4.050000) translate(-29.920878, -153.897081) " cx="29.9208781" cy="153.897081" rx="23.2470815" ry="48.5378625"></ellipse>
                <path d="M45.1227876,179.467937 C42.0320303,193.812696 35.3390955,203.709119 26.9562502,204.31571 C14.1373899,205.23683 2.20795619,184.096003 0.27345343,157.012828 C-1.66104933,129.929653 7.23321625,107.294814 20.0520765,106.373694 C32.8709368,105.452574 44.8114883,126.593402 46.7348733,153.68781 C47.3986735,162.315034 46.8559765,170.993728 45.1227876,179.467937 Z" id="Path" fill="#4E6DC2" fill-rule="nonzero"></path>
                <path d="M304.332765,112.344702 L304.009119,111.278189 C306.282767,110.283685 308.455092,108.963599 310.482038,107.344702 L311.009119,108.296537 C308.91777,109.962422 306.677261,111.320941 304.332765,112.344702 Z" id="Path" fill="#4E6DC2" fill-rule="nonzero"></path>
                <path d="M289.201119,118.344702 L289.009119,117.500821 C290.996319,117.129513 292.925919,116.741327 294.769119,116.344702 L295.009119,117.188584 C293.146719,117.593648 291.207519,117.981833 289.201119,118.344702 Z" id="Path" fill="#4E6DC2" fill-rule="nonzero"></path>
                <path d="M259.106375,121.344702 L259.009119,120.511369 C259.06315,120.511369 264.487922,120.144702 271.85783,119.344702 L272.009119,120.178036 C264.606791,120.936369 259.160407,121.336369 259.106375,121.344702 Z" id="Path" fill="#4E6DC2" fill-rule="nonzero"></path>
                <path d="M269.100745,137.344702 L269.009119,136.19222 C269.009119,136.19222 272.376388,135.927149 277.255492,135.25871 C286.681554,133.94488 303.907311,130.787078 313.356281,124.344702 L314.009119,125.289738 C304.365443,131.870412 286.94498,135.074312 277.415838,136.399667 C272.490921,137.079632 269.135105,137.344702 269.100745,137.344702 Z" id="Path" fill="#4E6DC2" fill-rule="nonzero"></path>
                <path d="M302.357281,123.344702 L302.009119,122.218999 C306.004049,121.113956 309.820378,119.473357 313.34761,117.344702 L314.009119,118.267779 C310.39102,120.483854 306.468318,122.193048 302.357281,123.344702 Z" id="Path" fill="#4E6DC2" fill-rule="nonzero"></path>
                <path d="M285.130408,126.344702 L285.009119,125.154226 C289.30379,124.524746 293.554706,123.586148 297.733461,122.344702 L298.009119,123.535179 C293.776958,124.77118 289.475034,125.709656 285.130408,126.344702 Z" id="Path" fill="#4E6DC2" fill-rule="nonzero"></path>
                <path d="M261.077852,128.344702 L261.009119,127.551052 C261.089307,127.551052 268.489577,127.233591 277.860197,126.344702 L278.009119,127.138353 C268.569765,128.035179 261.15804,128.344702 261.077852,128.344702 Z" id="Path" fill="#4E6DC2" fill-rule="nonzero"></path>
                <path d="M271.095594,153.344702 L271.009119,152.263621 C271.279353,152.263621 298.410911,150.155513 311.392984,141.344702 L312.009119,142.242 C298.800049,151.204162 272.241389,153.258216 271.095594,153.344702 Z" id="Path" fill="#4E6DC2" fill-rule="nonzero"></path>
                <path d="M271.095594,145.344702 L271.009119,144.264594 C271.279353,144.264594 298.410911,142.104378 311.392984,133.344702 L312.009119,134.241192 C298.800049,143.206089 272.241389,145.258294 271.095594,145.344702 Z" id="Path" fill="#4E6DC2" fill-rule="nonzero"></path>
                <path d="M258.009119,171.344702 L258.009119,170.181912 C258.304209,170.181912 288.494191,168.391214 303.532435,161.344702 L304.009119,162.391214 C288.709834,169.542377 258.315558,171.321447 258.009119,171.344702 Z" id="Path" fill="#4E6DC2" fill-rule="nonzero"></path>
                <path d="M273.085579,187.344702 L273.009119,186.245801 C273.27127,186.245801 299.224302,184.289757 312.386508,175.344702 L313.009119,176.245801 C299.639375,185.36668 273.347731,187.322724 273.085579,187.344702 Z" id="Path" fill="#4E6DC2" fill-rule="nonzero"></path>
                <path d="M273.085579,179.344702 L273.009119,178.245801 C273.27127,178.245801 299.224302,176.300746 312.386508,167.344702 L313.009119,168.25679 C299.639375,177.37767 273.347731,179.333713 273.085579,179.344702 Z" id="Path" fill="#4E6DC2" fill-rule="nonzero"></path>
                <path d="M258.009119,202.344702 L258.009119,201.181912 C258.304209,201.181912 288.494191,199.402842 303.532435,192.344702 L304.009119,193.402842 C288.709834,200.554005 258.315558,202.333075 258.009119,202.344702 Z" id="Path" fill="#4E6DC2" fill-rule="nonzero"></path>
                <path d="M273.085579,217.344702 L273.009119,216.245801 C273.27127,216.245801 299.224302,214.300746 312.386508,205.344702 L313.009119,206.25679 C299.639375,215.399648 273.347731,217.322724 273.085579,217.344702 Z" id="Path" fill="#4E6DC2" fill-rule="nonzero"></path>
                <path d="M273.085579,208.344702 L273.009119,207.245801 C273.27127,207.245801 299.224302,205.289757 312.386508,196.344702 L313.009119,197.245801 C299.639375,206.36668 273.347731,208.322724 273.085579,208.344702 Z" id="Path" fill="#4E6DC2" fill-rule="nonzero"></path>
                <path d="M45.0238866,178.344702 L19.0091185,150.848001 L19.0091185,106.373249 C32.3284025,105.466278 44.7350903,126.282365 46.7335605,152.96058 C47.4118847,161.45684 46.8363343,170.002237 45.0238866,178.344702 Z" id="Path" fill="#4E6DC2" fill-rule="nonzero"></path>
                <path d="M45.0238866,178.344702 L19.0091185,150.848001 L19.0091185,106.373249 C32.3284025,105.466278 44.7350903,126.282365 46.7335605,152.96058 C47.4118847,161.45684 46.8363343,170.002237 45.0238866,178.344702 Z" id="Path" fill="#FFFFFF" fill-rule="nonzero"></path>
                <path d="M45.0238866,178.344702 L19.0091185,150.848001 L19.0091185,106.373249 C32.3284025,105.466278 44.7350903,126.282365 46.7335605,152.96058 C47.4118847,161.45684 46.8363343,170.002237 45.0238866,178.344702 Z" id="Path" fill="#4E6DC2" fill-rule="nonzero"></path>
                <path d="M45.0238866,178.344702 L19.0091185,150.848001 L19.0091185,106.373249 C32.3284025,105.466278 44.7350903,126.282365 46.7335605,152.96058 C47.4118847,161.45684 46.8363343,170.002237 45.0238866,178.344702 Z" id="Path" fill="#020202" fill-rule="nonzero" opacity="0.29"></path>
                <path d="M124.535485,279.344702 C124.535485,279.344702 121.54362,281.645228 122.071596,284.243971 C122.599572,286.842713 132.884106,305.06586 148.063417,303.212658 C163.242728,301.359457 138.636845,286.6084 138.636845,286.6084 L124.535485,279.344702 Z" id="Path" fill="#4E6DC2" fill-rule="nonzero"></path>
                <path d="M129.311608,273.344702 C130.633024,273.4212 131.700644,274.433755 131.826819,275.730185 C132.098734,278.026491 134.738573,282.529925 138.805963,283.678078 C142.873354,284.826231 146.646171,281.560126 148.447606,282.563366 C150.249041,283.566607 155.188825,296.798232 153.749943,300.510221 C152.311061,304.222211 146.023033,304.043857 140.448781,301.390843 C134.87453,298.73783 124.813686,288.315278 124.09991,284.246581 C123.386133,280.177884 127.045652,274.403678 129.311608,273.344702 Z" id="Path" fill="#FFFFFF" fill-rule="nonzero"></path>
                <path d="M19.0091185,104.934025 L28.0417734,104.344702 C28.0417734,104.344702 42.9850954,103.789934 50.4512013,136.046645 C53.8314464,149.93994 53.8619102,164.437332 50.5400835,178.344702 L44.0294614,177.233934 C44.0294614,177.233934 50.1290033,111.465343 19.0091185,104.934025 Z" id="Path" fill="#4E6DC2" fill-rule="nonzero"></path>
                <path d="M19.0091185,104.934025 L28.0417734,104.344702 C28.0417734,104.344702 42.9850954,103.789934 50.4512013,136.046645 C53.8314464,149.93994 53.8619102,164.437332 50.5400835,178.344702 L44.0294614,177.233934 C44.0294614,177.233934 50.1290033,111.465343 19.0091185,104.934025 Z" id="Path" fill="#020202" fill-rule="nonzero" opacity="0.62"></path>
            </g>
        </g>
    </g>
</svg>