<?xml version="1.0" encoding="utf-8"?>
<!-- Generator: Adobe Illustrator 24.0.3, SVG Export Plug-In . SVG Version: 6.00 Build 0)  -->
<svg version="1.1" id="Calque_1" xmlns="http://www.w3.org/2000/svg" xmlns:xlink="http://www.w3.org/1999/xlink" x="0px" y="0px"
	 viewBox="0 0 318 259" style="enable-background:new 0 0 318 259;" xml:space="preserve">
<style type="text/css">
	.st0{opacity:0.3;fill:#DEE4F5;enable-background:new    ;}
	.st1{fill:#24285B;}
	.st2{fill:#4A67C6;}
	.st3{opacity:3.000000e-02;enable-background:new    ;}
	.st4{opacity:0.44;fill:#FFFFFF;enable-background:new    ;}
	.st5{opacity:0.1;enable-background:new    ;}
	.st6{fill:#F4A28C;}
	.st7{fill:#FE9F24;}
</style>
<title>Information carousel_Isometric</title>
<g id="Page-1">
	<g id="Sign-up-1step-desktop" transform="translate(-974.000000, -169.000000)">
		<g id="Information-carousel_Isometric" transform="translate(974.000000, 169.418992)">
			<path id="Path" class="st0" d="M77.7,25.4C37.1,41.2,7,81.1,1,129.4C-4,170,8,215,78.3,227.8c137,24.9,196,26.5,228.7-40.7
				S295,12.2,225.5,4.7C170.3-1.2,157-5.3,77.7,25.4z"/>
			<path id="Rectangle" class="st1" d="M160.7,13.6h105.6c5.4,0,9.7,4.3,9.7,9.7v198.6c0,5.4-4.3,9.7-9.7,9.7H160.7
				c-5.4,0-9.7-4.3-9.7-9.7V23.3C151,17.9,155.4,13.6,160.7,13.6z"/>
			<path id="Rectangle_1_" class="st2" d="M38.5,32.6h96.9c1.4,0,2.5,1.1,2.5,2.5V200c0,1.4-1.1,2.5-2.5,2.5H38.5
				c-1.4,0-2.5-1.1-2.5-2.5V35.1C36,33.7,37.1,32.6,38.5,32.6z"/>
			<circle id="Oval_1_" class="st3" cx="76" cy="189.6" r="3"/>
			<circle id="Oval_2_" class="st4" cx="87" cy="189.6" r="3"/>
			<circle id="Oval_3_" class="st3" cx="100" cy="189.6" r="3"/>
			<rect id="Rectangle_2_" x="50" y="51.6" class="st3" width="74" height="64"/>
			<rect id="Rectangle_3_" x="50" y="127.6" class="st3" width="53" height="6"/>
			<rect id="Rectangle_4_" x="107" y="127.6" class="st3" width="19" height="6"/>
			<rect id="Rectangle_5_" x="53" y="144.6" class="st3" width="23" height="6"/>
			<rect id="Rectangle_6_" x="80" y="144.6" class="st3" width="46" height="6"/>
			<rect id="Rectangle_7_" x="50" y="162.6" class="st3" width="56" height="6"/>
			<path id="Rectangle_8_" class="st2" d="M164.4,32.6h97.3c1.3,0,2.4,1.1,2.4,2.4v165.3c0,1.3-1.1,2.4-2.4,2.4h-97.3
				c-1.3,0-2.4-1.1-2.4-2.4V34.9C162,33.6,163.1,32.6,164.4,32.6z"/>
			<circle id="Oval_4_" class="st3" cx="202" cy="189.6" r="3"/>
			<circle id="Oval_5_" class="st3" cx="213" cy="189.6" r="3"/>
			<circle id="Oval_6_" class="st4" cx="225" cy="189.6" r="3"/>
			<rect id="Rectangle_9_" x="176" y="51.6" class="st3" width="74" height="64"/>
			<rect id="Rectangle_10_" x="176" y="127.6" class="st3" width="53" height="6"/>
			<rect id="Rectangle_11_" x="231" y="127.6" class="st3" width="19" height="6"/>
			<rect id="Rectangle_12_" x="177" y="144.6" class="st3" width="23" height="6"/>
			<rect id="Rectangle_13_" x="204" y="144.6" class="st3" width="46" height="6"/>
			<rect id="Rectangle_14_" x="176" y="162.6" class="st3" width="56" height="6"/>
			<path id="Path_1_" class="st5" d="M244.8,231.6c0-1.2-2.6-51.3-0.9-58.8c1.7-7.5,17.1-43.9,13-48.1c-4.1-4.3-19,5.4-19,5.4
				s2.7-43.9-3.7-47c-6.4-3.1-9.3,9.1-9.3,9.1l-3.4,49.1l-17,90L244.8,231.6z"/>
			<path id="Path_2_" class="st6" d="M232.7,181.5c2.1-8.5,5.4-16.9,7.4-25.5c1.4-5.7,10.1-29.6,12.6-36.6c0.8-2.2,1.4-4.8-0.1-6.5
				c-1-1-2.5-1.5-3.9-1.2c-1.4,0.3-2.7,1-3.8,2c-2.4,2.1-7,12.8-10.3,12.8c-4,0-2.1-11-2.2-13.1c-0.5-9.1,0.2-20.8-3.3-29.3
				c-2.6-6.4-9.2-5.5-10.7,1.4c-1.5,6.9-1.5,35.6-1.5,35.6s-25.6-4.4-30,3.4s3,57.3,3,57.3L232.7,181.5z"/>
			<polygon id="Path_3_" class="st7" points="235.6,256.6 235.1,178 186.9,167.6 167.6,256.6 			"/>
			<polygon id="Path_4_" class="st5" points="235.6,257.6 235.1,178.6 211.7,173.6 207.6,257.6 			"/>
		</g>
	</g>
</g>
</svg>
