<?xml version="1.0" encoding="UTF-8"?>
<svg width="318px" height="259px" viewBox="0 0 318 259" version="1.1" xmlns="http://www.w3.org/2000/svg" xmlns:xlink="http://www.w3.org/1999/xlink">
    <title>Information carousel_Isometric</title>
    <g id="Page-1" stroke="none" stroke-width="1" fill="none" fill-rule="evenodd">
        <g id="Sign-up-1step-desktop" transform="translate(-974.000000, -169.000000)" fill-rule="nonzero">
            <g id="Information-carousel_Isometric" transform="translate(974.000000, 169.418992)">
                <path d="M77.7102831,25.4444358 C37.1152612,41.1853591 6.99166067,81.0802478 1.00103357,129.3516 C-4.00333175,170.026829 7.95357031,214.969542 78.3434388,227.771998 C215.299889,252.69411 274.330863,254.264772 307.072319,187.045786 C339.813775,119.826801 295.005832,12.1886355 225.492641,4.73882591 C170.335038,-1.18688188 157.013036,-5.29364926 77.7102831,25.4444358 Z" id="Path" fill="#DEE4F5" opacity="0.3"></path>
                <rect id="Rectangle" fill="#24285B" x="26" y="13.5810084" width="125" height="218" rx="9.71355"></rect>
                <circle id="Oval" fill="#000000" opacity="0.03" cx="87.5" cy="216.081008" r="9.5"></circle>
                <rect id="Rectangle" fill="#4A67C6" x="36" y="32.5810084" width="102" height="170"></rect>
                <circle id="Oval" fill="#000000" opacity="0.03" cx="76" cy="189.581008" r="3"></circle>
                <circle id="Oval" fill="#FFFFFF" opacity="0.44" cx="87" cy="189.581008" r="3"></circle>
                <circle id="Oval" fill="#000000" opacity="0.03" cx="100" cy="189.581008" r="3"></circle>
                <rect id="Rectangle" fill="#000000" opacity="0.03" x="50" y="51.5810084" width="74" height="64"></rect>
                <rect id="Rectangle" fill="#000000" opacity="0.03" x="50" y="127.581008" width="53" height="6"></rect>
                <rect id="Rectangle" fill="#000000" opacity="0.03" x="107" y="127.581008" width="19" height="6"></rect>
                <rect id="Rectangle" fill="#000000" opacity="0.03" x="53" y="144.581008" width="23" height="6"></rect>
                <rect id="Rectangle" fill="#000000" opacity="0.03" x="80" y="144.581008" width="46" height="6"></rect>
                <rect id="Rectangle" fill="#000000" opacity="0.03" x="50" y="162.581008" width="56" height="6"></rect>
                <rect id="Rectangle" fill="#4A67C6" x="162" y="32.5810084" width="102" height="170"></rect>
                <circle id="Oval" fill="#000000" opacity="0.03" cx="202" cy="189.581008" r="3"></circle>
                <circle id="Oval" fill="#000000" opacity="0.03" cx="213" cy="189.581008" r="3"></circle>
                <circle id="Oval" fill="#FFFFFF" opacity="0.44" cx="225" cy="189.581008" r="3"></circle>
                <rect id="Rectangle" fill="#000000" opacity="0.03" x="176" y="51.5810084" width="74" height="64"></rect>
                <rect id="Rectangle" fill="#000000" opacity="0.03" x="176" y="127.581008" width="53" height="6"></rect>
                <rect id="Rectangle" fill="#000000" opacity="0.03" x="231" y="127.581008" width="19" height="6"></rect>
                <rect id="Rectangle" fill="#000000" opacity="0.03" x="177" y="144.581008" width="23" height="6"></rect>
                <rect id="Rectangle" fill="#000000" opacity="0.03" x="204" y="144.581008" width="46" height="6"></rect>
                <rect id="Rectangle" fill="#000000" opacity="0.03" x="176" y="162.581008" width="56" height="6"></rect>
                <path d="M123.222389,231.581008 C123.222389,230.359178 120.602682,180.264135 122.283249,172.81097 C123.963815,165.357806 139.385487,128.922826 135.319998,124.670856 C131.25451,120.418887 116.364194,130.095783 116.364194,130.095783 C116.364194,130.095783 119.082757,86.2198563 112.657061,83.0919707 C106.231364,79.9640851 103.376872,92.2190431 103.376872,92.2190431 L99.9539532,141.299967 L83,231.348861 L123.222389,231.581008 Z" id="Path" fill="#000000" opacity="0.1"></path>
                <path d="M111.150344,181.483303 C113.292985,172.934056 116.513069,164.592433 118.570004,155.957694 C119.929051,150.241912 128.720001,126.352873 131.180978,119.318064 C131.940085,117.156326 132.588999,114.542699 131.119759,112.783997 C130.111965,111.738917 128.63956,111.278496 127.214031,111.562676 C125.79882,111.85739 124.493364,112.53809 123.442982,113.529003 C120.99425,115.678528 116.476338,126.316234 113.170549,126.30402 C109.16687,126.30402 111.052395,115.312131 110.942202,113.199246 C110.489186,104.100405 111.162588,92.4367893 107.599682,83.8875424 C104.95505,77.5366732 98.3924465,78.3915979 96.8497448,85.2554219 C95.3070432,92.1192459 95.3682615,120.881355 95.3682615,120.881355 C95.3682615,120.881355 69.7545171,116.496813 65.3835292,124.288841 C61.0125412,132.080869 68.3954704,181.581008 68.3954704,181.581008 L111.150344,181.483303 Z" id="Path" fill="#F4A28C"></path>
                <polygon id="Path" fill="#FE9F24" points="114 256.581008 113.531969 178.04299 65.3863431 167.581008 46 256.581008"></polygon>
                <polygon id="Path" fill="#000000" opacity="0.1" points="114 257.581008 113.524576 178.608012 90.178731 173.581008 86 257.581008"></polygon>
            </g>
        </g>
    </g>
</svg>