<?xml version="1.0" encoding="utf-8"?>
<!-- Generator: Adobe Illustrator 24.0.3, SVG Export Plug-In . SVG Version: 6.00 Build 0)  -->
<svg version="1.1" id="Layer_1" xmlns="http://www.w3.org/2000/svg" xmlns:xlink="http://www.w3.org/1999/xlink" x="0px" y="0px"
	 viewBox="0 0 406 306" style="enable-background:new 0 0 406 306;" xml:space="preserve">
<style type="text/css">
	.st0{opacity:0.18;fill:#4D6CC2;enable-background:new    ;}
	.st1{opacity:0.47;fill:#FFFFFF;enable-background:new    ;}
	.st2{fill:#4D6CC2;}
	.st3{opacity:0.1;fill:#020202;enable-background:new    ;}
	.st4{fill:#FFBBAB;}
	.st5{fill:#282328;}
	.st6{fill:#FFFFFF;}
	.st7{fill:#FE9F24;}
	.st8{fill:#E0A194;}
	.st9{opacity:0.33;fill:#FFFFFF;enable-background:new    ;}
	.st10{fill:url(#SVGID_1_);}
	.st11{fill:url(#SVGID_2_);}
	.st12{fill:url(#SVGID_3_);}
	.st13{fill:url(#SVGID_4_);}
	.st14{fill:url(#SVGID_5_);}
	.st15{fill:url(#SVGID_6_);}
	.st16{fill:none;}
	.st17{opacity:0.29;fill:#020202;enable-background:new    ;}
	.st18{opacity:0.62;fill:#020202;enable-background:new    ;}
</style>
<title>1</title>
<path class="st0" d="M55.6,179.7c10.2-17,20.2-34.1,24.9-53.3c5.5-22.4,2.3-47.1,10.9-68.7c7.2-17.9,17.8-39,35.1-48.9
	c10.9-6.2,23.8-7.8,36.3-8.4c29.3-1.4,59.4,1.6,86.6,12.9C277,24.5,290.9,41,299.2,69.7c5.5,19.1,9,39.4,20.5,55.6
	c8.3,11.9,20.3,20.7,30.1,31.4c35,38,38.7,112.1-14.7,135.9c-21.3,9.5-45.5,9.9-68.8,10.1l-122,1.2c-15.8,0.1-33.6,3.9-48.9,0.7
	C79.2,301.2,64,294.1,51,283.9c-5.7-4.4-11-9.6-14.7-15.8c-12.1-20.4-4-46.7,7.3-67.7C47.4,193.4,51.5,186.5,55.6,179.7z"/>
<ellipse class="st1" cx="199.1" cy="269.2" rx="127.2" ry="29.8"/>
<polygon class="st2" points="260.3,284.6 226.9,284.6 195.7,253.4 141.3,253.4 148.8,266.8 111.3,266.8 111.3,265.8 147.2,265.8 
	139.7,252.4 196,252.4 227.3,283.7 257.9,283.7 241.4,268.7 271,268.7 261.5,259.2 262.2,258.5 273.3,269.6 243.8,269.6 "/>
<polygon class="st2" points="219.1,292.9 198,271.8 215.2,271.8 215.2,272.7 200.2,272.7 219.8,292.2 "/>
<polygon class="st2" points="185,286.7 180,279 145.4,279 137.7,266.5 138.5,266 145.9,278.1 180.5,278.1 185.8,286.2 "/>
<polygon class="st2" points="117.7,279 102.3,279 102.3,278.1 116.2,278.1 109,262.3 109.8,261.9 "/>
<path class="st2" d="M262,259.3c-1.7,0-4.6-0.4-4.6-1.7s2.9-1.7,4.6-1.7s4.6,0.4,4.6,1.7C266.6,259,263.7,259.3,262,259.3z
	 M262,256.9c-2.2,0-3.6,0.5-3.7,0.8c0.1,0.2,1.5,0.7,3.7,0.7s3.5-0.5,3.7-0.8C265.4,257.4,264.1,256.9,262,256.9z"/>
<path class="st2" d="M219.8,295.5c-1.7,0-4.6-0.4-4.6-1.7c0-1.3,2.9-1.7,4.6-1.7c1.7,0,4.6,0.4,4.6,1.7S221.5,295.5,219.8,295.5z
	 M219.8,293c-2.2,0-3.6,0.5-3.7,0.8c0.1,0.2,1.5,0.7,3.7,0.7c2.2,0,3.5-0.5,3.7-0.8C223.3,293.5,221.9,293,219.8,293z"/>
<path class="st2" d="M186.3,289.4c-1.7,0-4.6-0.4-4.6-1.7s2.9-1.7,4.6-1.7c1.7,0,4.6,0.4,4.6,1.7S188,289.4,186.3,289.4z
	 M186.3,286.9c-2.2,0-3.6,0.5-3.7,0.8c0.1,0.2,1.5,0.7,3.7,0.7s3.5-0.5,3.7-0.8C189.7,287.4,188.4,286.9,186.3,286.9L186.3,286.9z"
	/>
<path class="st2" d="M99,280.2c-1.7,0-4.6-0.4-4.6-1.7c0-1.3,2.9-1.7,4.6-1.7s4.6,0.4,4.6,1.7S100.7,280.2,99,280.2z M99,277.8
	c-2.2,0-3.6,0.5-3.7,0.8c0.1,0.2,1.5,0.7,3.7,0.7s3.5-0.5,3.7-0.8C102.5,278.3,101.1,277.8,99,277.8z"/>
<path class="st2" d="M109.6,262.6c-1.7,0-4.6-0.4-4.6-1.7s2.9-1.7,4.6-1.7c1.7,0,4.6,0.4,4.6,1.7
	C114.2,262.3,111.3,262.6,109.6,262.6z M109.6,260.2c-2.2,0-3.6,0.5-3.7,0.8c0.1,0.2,1.5,0.7,3.7,0.7c2.2,0,3.5-0.5,3.7-0.8
	C113.1,260.6,111.7,260.1,109.6,260.2L109.6,260.2z"/>
<path class="st3" d="M152.9,266.7c-0.8,0.3-1.5,0.9-1.9,1.7c-0.9,2.5,3.1,4.6,2.5,7.2c-0.7,3.1-6.1,1.7-7.9,4.3
	c-1.2,1.6-0.2,4.1,1.5,5.1c1.7,1,3.9,1,5.9,1c22.7-0.3,45.4-1,68.1-2.3c14.6-0.8,29.5-1.9,42.8-8c1.1-0.4,2-1.1,2.6-2.1
	c0.4-1.2,0.2-2.5-0.5-3.6c-3.4-6-11.5-7-18.4-7.3c1.1-3.1-0.9-6.6-3.8-8.2s-6.3-1.8-9.6-1.9l-10.1-0.4c-4.2-0.2-8.6-0.2-12,2.1
	c-2.8,1.9-4.4,5.1-7,7.2c-6,5-15,3.2-22.5,1.3c-5.1-1.2-10.8-2.3-15.9-0.8c-2.2,0.6-3.8,2.2-5.9,2.9
	C158.2,265.9,155.5,265.4,152.9,266.7z"/>
<path class="st4" d="M173,247.8c-1,2.2-2,4.4-2,6.8c0.1,2.4,1,4.6,2.4,6.5c3,4.2,7.5,7.1,12.5,8c0.7,0.2,1.4,0.1,2-0.1
	c0.4-0.3,0.7-0.7,0.9-1.2c1.1-2.5,0.6-5.4-0.3-8s-2-5.1-2-7.9c0.1-5.1,7.1-15.2-1.5-17.4C177.9,232.7,175.2,243.1,173,247.8z"/>
<path class="st4" d="M219.6,239.9c-0.7,2.3-1.4,4.7-1.1,7c0.4,2.3,1.6,4.5,3.2,6.1c3.5,3.7,8.3,6,13.5,6.3c0.7,0.1,1.4,0,2-0.4
	c0.4-0.3,0.7-0.8,0.8-1.3c0.8-2.6-0.2-5.4-1.4-7.8c-1.2-2.4-2.7-4.8-3-7.5c-0.6-5.1,5-16-3.8-17C222.5,224.3,221.1,235,219.6,239.9z
	"/>
<path class="st5" d="M205.9,151.8c5.9,5.3,11.6,10.9,17,16.6c3.3,3.6,6.5,7.3,9.4,11.2c4.5,5.8,6.1,10.4,6.4,17.8
	c0.4,11,0.7,22.2-1.5,33c-0.5,2.5-1.4,5.3-3.6,6.7c-3.2,2.1-7.8,0.1-9.9-3.1c-2.1-3.2-2.3-7.3-2.6-11.1c-0.7-8.3-1.6-16.8-3.6-24.9
	c-1.2-4.6-5.1-6-8.9-8.5c-7.1-4.7-19-11-22.5-19.3c-2.4-6.1-4.4-12.3-5.9-18.6L205.9,151.8z"/>
<path class="st5" d="M194.3,152.8c2.3,7.9,4.4,15.8,6.4,23.7c1.6,6.1,3,12.3,4.3,18.5c1.1,5.3,3.4,13,2.3,18.2
	c-0.6,2.2-1.5,4.4-2.7,6.3l-12,21.6c-0.6,1.4-1.6,2.6-2.7,3.5c-2.5,1.7-8.1-1-10.1-2.7c-2.1-1.7-2.6-4.1-2.5-6.7
	c0.7-13,7.3-18.9,8.3-31.9c0,0-25.1-22.3-22-50.5C166.6,124.8,194.3,152.8,194.3,152.8z"/>
<path class="st6" d="M228.8,108.6c-0.2,2.7-1,5.1-3.4,5.9c-0.2,0.1-0.4,0.1-0.6,0.2c-4.3,0.9-10-2.4-14-5.3
	c-1.7-1.2-3.2-2.5-4.7-3.9V76.3L227.1,98C227.1,98,229.1,103.8,228.8,108.6z"/>
<path class="st6" d="M210.8,109.2c-1,5.3-1.6,10.6-1.9,16c-0.5,8.9-1.8,17.8-3,26.6c-8.4,1.8-17.1,1.1-25.6-0.2c-3-0.5-6-1-8.9-1.5
	c-1-0.2-1.9-0.7-2.9-0.9c-4.9-1.2-6.9-25.4-7.3-32.9c-0.4-7.2-0.6-14.4-0.4-21.6c0.1-5.2,0.5-10.9,3.9-14.8c4.5-5.3,13.3-8.7,20-10
	c2.2-0.4,4.4-0.6,6.5-0.4c3.1,0.5,6.1,1.5,8.9,3c3.3,1.6,6.3,3,7.9,6.3c1.8,3.8,3,7.8,3.7,11.9C212.7,96.9,212,103.1,210.8,109.2z"
	/>
<path class="st3" d="M180.3,151.6c-3-0.5-6-1-8.9-1.5c-1-0.2-1.9-0.7-2.9-0.9c-4.9-1.2-6.9-25.4-7.3-32.9l11.9-13.6
	C173,102.6,169.7,141.9,180.3,151.6z"/>
<path class="st4" d="M195.5,63.7c-0.8,0.9-1.9,1.4-3.1,1.5c-1,0.1-2,0.1-3,0.1H189c-0.1,0-0.3,0-0.4,0.1c-0.1,0.1-0.2,0.3-0.2,0.4
	c-0.2,2-0.3,3.9-0.1,5.9l0,0c0,0.4,0.1,0.7,0.1,1.1c0.1,0.4,0,0.8-0.1,1.1c-0.3,0.4-0.7,0.7-1.2,0.8c-0.9,0.3-1.8,0.4-2.7,0.5
	c-1.9,0-3.7-1-5.4-1.9c0.1-3.4,0-6.7-0.5-10.1c-0.6-4.3-1.8-8.6-1.3-13c0.1-1.7,0.7-3.3,1.8-4.7c1.6-1.7,4.1-2.3,6.4-2.3
	c3.1-0.1,6.2,0.8,8.8,2.4c0.9,0.7,1.1,1.5,1.3,2.6c0.3,1.7,0.6,3.4,0.8,5.1c0.2,2,0.3,3.9,0.4,5.9C196.6,60.8,196.5,62.5,195.5,63.7
	z"/>
<path class="st7" d="M192.1,46.5c-2.2,0.4-4.7,0-6.7,0.8c-2.9,1.2-4.2,5-3.2,8c-0.8,0.3-1-1.2-1.6-1.9s-2.1,0.2-2.2,1.3
	c0.1,1.1,0.4,2.1,0.9,3c0.8,1.9,0.9,3.9,0.4,5.9c-0.1,0.5-0.5,1-0.9,0.9c-0.5-0.1-0.8-0.9-1.1-1.2c-0.4-0.5-0.9-1-1.5-1.5
	c-1-0.9-2.2-1.7-3.2-2.6c-1.9-1.6-3.6-3.7-3.5-6.1c0-1,0.4-2,0.9-2.8c0.5-0.7,1.1-1.3,1.8-1.8c0.3-0.2,0.6-0.4,0.7-0.7
	c0-0.2,0-0.4-0.1-0.6c-0.6-2.5,0.7-5.1,2.8-6.6c2.1-1.4,4.6-2.3,7.1-2.5c1.6-0.3,3.3-0.5,4.9-0.7c1.4-0.1,2.7-0.4,3.9-0.9
	c-0.3-0.9-0.8-1.7-1.3-2.5c1.2,0.4,2.3,0.9,3.3,1.6c-0.1-0.6-0.2-1.1-0.4-1.6c1.8,0.6,3.7,1.3,4.8,2.8c1.4,1.9,1.5,4.5,0.2,6.5
	c-1.3,2-3.3,2.8-5.5,3.3L192.1,46.5z"/>
<path class="st8" d="M189.5,65.3H189c-0.1,0-0.3,0-0.4,0.1c-0.1,0.1-0.2,0.3-0.2,0.4c-0.2,2-0.3,3.9-0.1,5.9l0,0
	c0,0-5.6-1.4-5.5-8.4C185,64.2,187.2,64.8,189.5,65.3L189.5,65.3z"/>
<path class="st4" d="M257.6,84.7c-1.2,0.8-2.8,0.9-3.6,2.2c-0.9,1.4,0,3.2,0.2,4.9c0.2,1.8-0.3,3.7-1.4,5.1
	c-0.3,0.5-0.7,0.9-1.2,1.2c-1.9,1.5-4.2,2.4-6.5,2.4c0,0-1.3-5.3-1.3-5.8c0.2-1.9,1.4-3.6,1.6-5.5c0.1-2.1,0.3-4.1,0.6-6.1
	c0.9-4,3.5-7.3,7.2-9c0.5-0.2,1.1-0.3,1.4,0.1c0.1,0.2,0.1,0.4,0.1,0.6l0,0c-0.3,2.1-1.7,3.9-3,5.6c1.2-0.7,2.5-1.2,3.9-1.6
	c0.6-0.2,1.5-0.1,1.5,0.6c0,0.3-0.2,0.6-0.5,0.7l-3.6,3.2c1.5-0.5,3-0.6,4.5-0.5c0.3,0,0.5,0.1,0.7,0.2
	C258.6,83.5,258.2,84.3,257.6,84.7z"/>
<path class="st8" d="M257.6,84.7c-1.2,0.8-2.8,0.9-3.6,2.2c-0.9,1.4,0,3.2,0.2,4.9c0.2,1.8-0.3,3.7-1.4,5.1
	c-0.4,0.3-0.9,0.5-1.3,0.6c-0.3,0.1-0.7,0.2-1,0.1c-0.6-0.3-0.8-1-0.6-1.6c0.2-0.6,0.5-1.1,0.8-1.7c0.4-1,0.5-2,0.2-3
	c-0.4-0.8-0.7-1.6-0.8-2.5c0.1-0.5,0.3-1.1,0.6-1.5l1.1-1.9c0.2-0.3,0.3-0.6,0.4-0.9c0.1-0.3-0.1-0.7-0.4-0.8c-0.4-0.1-0.7,0-1,0.3
	c-0.6,0.4-2.1,2.3-1.9,0.6c0.2-1.2,0.7-2.3,1.3-3.3c1.2-2.1,2.5-4.1,4.1-5.9c0.2-0.2,0.3-0.4,0.5-0.6l0,0c-0.3,2.1-1.7,3.9-3,5.6
	c1.2-0.7,2.5-1.2,3.9-1.6c0.6-0.2,1.5-0.1,1.5,0.6c0,0.3-0.2,0.6-0.5,0.7l-3.6,3.2c1.5-0.5,3-0.6,4.5-0.5c0.3,0,0.5,0.1,0.7,0.2
	C258.6,83.5,258.2,84.3,257.6,84.7z"/>
<path class="st4" d="M112,83.5c1.2,0.8,2.8,1,3.6,2.2c0.9,1.4,0,3.2-0.2,4.9c-0.2,1.8,0.3,3.7,1.4,5.1c0.3,0.5,0.7,0.9,1.2,1.2
	c1.9,1.5,4.2,2.4,6.5,2.4c0,0,1.3-5.3,1.3-5.8c-0.2-1.9-1.4-3.6-1.6-5.5c-0.1-2.1-0.3-4.1-0.6-6.1c-0.9-4-3.5-7.3-7.2-9
	c-0.5-0.2-1.1-0.3-1.4,0.1c-0.1,0.2-0.1,0.4-0.1,0.6l0,0c0.3,2.1,1.7,3.9,3,5.6c-1.2-0.7-2.5-1.2-3.9-1.6c-0.6-0.2-1.5-0.1-1.5,0.6
	c0,0.3,0.2,0.6,0.5,0.7l3.6,3.2c-1.5-0.5-3-0.6-4.5-0.5c-0.3,0-0.5,0.1-0.7,0.2C111,82.3,111.5,83.1,112,83.5z"/>
<path class="st8" d="M112,83.5c1.2,0.8,2.8,1,3.6,2.2c0.9,1.4,0,3.2-0.2,4.9c-0.2,1.8,0.3,3.7,1.4,5.1c0.4,0.3,0.9,0.5,1.3,0.6
	c0.3,0.1,0.7,0.2,1,0.1c0.6-0.3,0.8-1,0.6-1.6c-0.2-0.6-0.5-1.1-0.8-1.7c-0.4-1-0.5-2-0.2-3c0.4-0.8,0.7-1.6,0.8-2.5
	c-0.1-0.5-0.3-1.1-0.6-1.5l-1.1-1.9c-0.2-0.3-0.3-0.6-0.4-0.9c-0.1-0.3,0.1-0.7,0.4-0.8c0.4-0.1,0.7,0,1,0.3
	c0.6,0.4,2.1,2.3,1.9,0.6c-0.2-1.2-0.7-2.3-1.3-3.3c-1.2-2.1-2.5-4.1-4.1-5.9c-0.2-0.2-0.3-0.4-0.5-0.6l0,0c0.3,2.1,1.7,3.9,3,5.6
	c-1.2-0.7-2.5-1.2-3.9-1.6c-0.6-0.1-1.5,0-1.5,0.6c0,0.3,0.2,0.6,0.5,0.7l3.6,3.2c-1.5-0.5-3-0.6-4.5-0.5c-0.3,0-0.5,0.1-0.7,0.2
	C111,82.3,111.5,83.1,112,83.5z"/>
<path class="st6" d="M246.4,101c-2.8,3.9-6.2,7.4-10.2,10.1c-2.8,1.9-6.1,3.1-9.6,3.4c-0.5,0-0.9,0-1.3-0.1
	c-0.7-0.2-1.4-0.7-1.9-1.3c-1.4-1.7-2.3-3.8-2.4-6c-0.2-5.8,6-9.2,6-9.2s14.3-4.6,16-3.8c0.9,0.4,1.8,2.4,2.4,4.2
	C246.1,99.8,246.4,101,246.4,101z"/>
<path class="st6" d="M178.4,80.5L178.4,80.5c4.4,4,4.8,10.7,0.8,15.2l-19.4,21.7c-4,4.4-10.7,4.8-15.2,0.8l0,0
	c-4.4-4-4.8-10.7-0.8-15.2l19.4-21.7C167.2,76.9,174,76.5,178.4,80.5z"/>
<path class="st6" d="M148.6,103.1l-20.8-12.9l-8,10.3c0,0,20.2,23,27.9,21.8c7.7-1.2,10.4-3.5,10.4-3.5S161,108.8,148.6,103.1z"/>
<path class="st3" d="M246.4,101c-2.8,3.9-6.2,7.4-10.2,10.1c-2.8,1.9-6.1,3.1-9.6,3.4c-0.5,0-0.9,0-1.3-0.1
	c-0.2,0.1-0.4,0.1-0.6,0.2c-4.3,0.9-10-2.4-14-5.3v-0.1l1.3-8.7c2.6,2.7,5.6,4.9,9,6.6c2.4,1.3,5,1.8,7.7,1.4
	c0.7-0.1,1.4-0.3,2.1-0.6c5.3-2.6,10.3-5.8,14.7-9.6C246.1,99.8,246.4,101,246.4,101z"/>
<path class="st2" d="M215.8,247.3c0,0-2.2,2.4-1.3,4.6c0.8,2.2,12.3,16.4,24.7,12.5c12.4-3.9-10.5-13-10.5-13L215.8,247.3z"/>
<path class="st6" d="M218.7,240.9c1.1-0.1,2.1,0.6,2.4,1.6c0.6,1.9,3.4,5.2,6.9,5.5c3.5,0.4,6-2.9,7.7-2.3c1.6,0.5,7.6,10.8,7,14
	c-0.6,3.3-5.8,4-10.7,2.7c-4.9-1.4-14.6-8.5-15.8-11.8S217,242.1,218.7,240.9z"/>
<path class="st9" d="M195.4,36.9c-0.1,0.4-0.5,0.5-0.9,0.4c0,0,0,0-0.1,0c-0.3-0.2-0.6-0.4-0.8-0.7c-0.3,0.9-0.4,1.9-0.1,2.8
	c0.2,0.9,0.1,1.9-0.3,2.7c-0.2,0.3-0.6,0.6-0.8,0.9c-0.3,0.3-0.4,0.7-0.4,1.1c0.2,0.6,1,0.8,1.6,0.7c1.1-0.2,2.1-0.8,2.7-1.7
	c0.6-1.1,1-2.3,1.1-3.6c0.1-1.1,0.3-2.1-0.4-2.9c-0.2-0.2-1-1-1.4-0.8C195.2,36,195.5,36.5,195.4,36.9z"/>
<path class="st9" d="M195,56.6c-0.1,0.1-0.1,0.1-0.2,0.2c-0.2,0.4-0.2,0.8,0,1.1c0.2,0.4,0.4,0.7,0.7,0.9c0.1,0.1,0.1,0.1,0.2,0.1
	s0.2-0.1,0.2-0.2c0.3-0.9,0.3-1.9,0.2-2.9c-0.1-1.5-0.3-3-0.5-4.4c-0.1-1.4-0.4-2.7-0.9-3.9c-0.4-0.6-1.2-0.9-1.9-0.6
	c-1,0.4-0.4,1.6-0.1,2.4c0.3,0.9,0.4,1.9,0.5,2.9c0.1,1,0.4,1.9,1.1,2.7c0.2,0.2,0.5,0.4,0.7,0.6c0.2,0.2,0.3,0.6,0.2,0.9
	C195.2,56.5,195.1,56.6,195,56.6z"/>
<path class="st9" d="M229,101c-0.4,0.1-0.9,0.2-1.3,0.1c-0.6-0.1-1.1-0.3-1.6-0.6c-1.2-0.6-2.3-1.3-3.4-2.2c-1-0.9-1.8-2-2-3.3
	c2.6,0.7,4.7,3.1,7.3,3.1c0.9-0.1,1.7-0.2,2.5-0.5l3.9-1.3c2.7-0.9,5.5-1.7,8.3-1.3c0.1,0,0.2,0.1,0.3,0.1c0.1,0.1,0.1,0.2,0.1,0.3
	c-0.2,1.1-1.4,1.3-2.2,1.6c-1.3,0.5-2.6,1.1-3.9,1.6C234.3,99.6,231.7,100.4,229,101z"/>
<path class="st9" d="M199.2,85.4c2.8,4,4.8,8.5,5.7,13.3c0.6,3.1,0.9,6.3,2.6,8.9c1.2-0.7,1.4-2.4,1.4-3.8
	c-0.1-4.8-0.6-9.5-1.5-14.2c-0.3-2.3-0.8-4.5-1.6-6.6c-2-4.8-6.3-8.2-11.4-9.1c-0.6-0.3-1.3-0.1-1.6,0.5c-0.2,0.3-0.2,0.7-0.1,1
	c0.4,3,1.9,5.7,4.3,7.6"/>
<linearGradient id="SVGID_1_" gradientUnits="userSpaceOnUse" x1="2.889" y1="198.7645" x2="203.349" y2="351.0045" gradientTransform="matrix(0.9349 0 0 -0.9349 30.0453 279.6147)">
	<stop  offset="1.000000e-02" style="stop-color:#000000"/>
	<stop  offset="0.13" style="stop-color:#000000;stop-opacity:0.69"/>
	<stop  offset="0.25" style="stop-color:#000000;stop-opacity:0.32"/>
	<stop  offset="1" style="stop-color:#000000;stop-opacity:0"/>
</linearGradient>
<path class="st10" d="M125.9,9.3V58c-32.7-5.4-54-14.3-54-24.3S93.2,14.7,125.9,9.3z"/>
<linearGradient id="SVGID_2_" gradientUnits="userSpaceOnUse" x1="-101.1776" y1="33.2023" x2="395.5224" y2="326.2723" gradientTransform="matrix(0.9349 0 0 -0.9349 30.0453 279.6147)">
	<stop  offset="1.000000e-02" style="stop-color:#000000"/>
	<stop  offset="0.13" style="stop-color:#000000;stop-opacity:0.69"/>
	<stop  offset="0.25" style="stop-color:#000000;stop-opacity:0.32"/>
	<stop  offset="1" style="stop-color:#000000;stop-opacity:0"/>
</linearGradient>
<path class="st11" d="M163.3,62.2v186.4c-13.5-0.9-26.1-2.4-37.4-4.2c-32.7-5.4-54-14.3-54-24.3V33.6c0,10.1,21.3,18.9,54,24.3
	C137.1,59.8,149.7,61.3,163.3,62.2z"/>
<linearGradient id="SVGID_3_" gradientUnits="userSpaceOnUse" x1="348.7268" y1="193.3512" x2="114.6468" y2="397.9312" gradientTransform="matrix(0.9349 0 0 -0.9349 30.0453 279.6147)">
	<stop  offset="1.000000e-02" style="stop-color:#000000"/>
	<stop  offset="0.13" style="stop-color:#000000;stop-opacity:0.69"/>
	<stop  offset="0.25" style="stop-color:#000000;stop-opacity:0.32"/>
	<stop  offset="1" style="stop-color:#000000;stop-opacity:0"/>
</linearGradient>
<path class="st12" d="M266.1,9.3V58c32.7-5.4,54-14.3,54-24.3S298.8,14.7,266.1,9.3z"/>
<linearGradient id="SVGID_4_" gradientUnits="userSpaceOnUse" x1="413.519" y1="126.9192" x2="-43.221" y2="190.6691" gradientTransform="matrix(0.9349 0 0 -0.9349 30.0453 279.6147)">
	<stop  offset="1.000000e-02" style="stop-color:#000000"/>
	<stop  offset="0.13" style="stop-color:#000000;stop-opacity:0.69"/>
	<stop  offset="0.25" style="stop-color:#000000;stop-opacity:0.32"/>
	<stop  offset="1" style="stop-color:#000000;stop-opacity:0"/>
</linearGradient>
<path class="st13" d="M228.7,62.2v186.4c13.5-0.9,26.1-2.4,37.4-4.2c32.7-5.4,54-14.3,54-24.3V33.6c0,10.1-21.3,18.9-54,24.3
	C254.9,59.8,242.3,61.3,228.7,62.2z"/>
<linearGradient id="SVGID_5_" gradientUnits="userSpaceOnUse" x1="382.4993" y1="178.1478" x2="103.3793" y2="50.6378" gradientTransform="matrix(0.9349 0 0 -0.9349 30.0453 279.6147)">
	<stop  offset="1.000000e-02" style="stop-color:#000000"/>
	<stop  offset="0.13" style="stop-color:#000000;stop-opacity:0.69"/>
	<stop  offset="0.25" style="stop-color:#000000;stop-opacity:0.32"/>
	<stop  offset="1" style="stop-color:#000000;stop-opacity:0"/>
</linearGradient>
<path class="st14" d="M254.2,100.2v133.1c9.7-0.7,18.7-1.7,26.7-3c23.3-3.8,38.6-10.2,38.6-17.4V79.8c0,7.2-15.2,13.5-38.6,17.4
	C272.9,98.5,263.9,99.5,254.2,100.2z"/>
<path class="st6" d="M266.1,87.9V221c9.7-0.7,18.7-1.7,26.7-3c23.3-3.9,38.6-10.2,38.6-17.4V67.5c0,7.2-15.2,13.5-38.6,17.4
	C284.8,86.2,275.8,87.2,266.1,87.9z"/>
<linearGradient id="SVGID_6_" gradientUnits="userSpaceOnUse" x1="397.9701" y1="143.8225" x2="187.6801" y2="145.7225" gradientTransform="matrix(0.9349 0 0 -0.9349 30.0453 279.6147)">
	<stop  offset="1.000000e-02" style="stop-color:#000000"/>
	<stop  offset="0.13" style="stop-color:#000000;stop-opacity:0.69"/>
	<stop  offset="0.25" style="stop-color:#000000;stop-opacity:0.32"/>
	<stop  offset="1" style="stop-color:#000000;stop-opacity:0"/>
</linearGradient>
<path class="st15" d="M266.1,87.9V221c9.7-0.7,18.7-1.7,26.7-3c23.3-3.9,38.6-10.2,38.6-17.4V67.5c0,7.2-15.2,13.5-38.6,17.4
	C284.8,86.2,275.8,87.2,266.1,87.9z"/>
<line class="st16" x1="163.3" y1="257.2" x2="163.3" y2="248.6"/>
<line class="st16" x1="163.3" y1="62.2" x2="163.3" y2="52.9"/>
<ellipse transform="matrix(0.9975 -7.062699e-02 7.062699e-02 0.9975 -9.5848 6.5981)" class="st2" cx="88.5" cy="138.8" rx="19.6" ry="40.9"/>
<ellipse transform="matrix(0.9975 -7.062699e-02 7.062699e-02 0.9975 -9.5848 6.5981)" class="st2" cx="88.5" cy="138.8" rx="19.6" ry="40.9"/>
<ellipse transform="matrix(0.9975 -7.062699e-02 7.062699e-02 0.9975 -9.5848 6.5981)" class="st17" cx="88.5" cy="138.8" rx="19.6" ry="40.9"/>
<path class="st2" d="M100.8,159.5c-2.6,11.9-8.2,20.2-15.3,20.7c-10.8,0.8-20.8-16.8-22.4-39.4s5.9-41.4,16.6-42.1
	s20.8,16.8,22.4,39.4C102.7,145.2,102.2,152.4,100.8,159.5z"/>
<path class="st2" d="M319.8,104.2l-0.3-0.9c2.3-0.8,4.5-1.9,6.5-3.2l0.5,0.8C324.5,102.2,322.2,103.3,319.8,104.2z"/>
<path class="st2" d="M305.9,108l-0.2-0.9c1.9-0.4,3.8-0.8,5.6-1.3l0.2,0.9C309.7,107.2,307.8,107.6,305.9,108z"/>
<path class="st2" d="M281.3,111.6l-0.1-0.9c0,0,4.7-0.4,11.1-1.3l0.1,0.9C286.1,111.2,281.3,111.6,281.3,111.6z"/>
<path class="st2" d="M289.9,124.8l-0.1-0.9c0,0,2.7-0.2,6.7-0.8c7.7-1.1,21.8-3.6,29.5-8.9l0.5,0.8c-7.9,5.3-22.1,7.9-29.9,9
	C292.7,124.6,290,124.8,289.9,124.8z"/>
<path class="st2" d="M317.2,113l-0.3-0.9c3.2-0.9,6.3-2.3,9.1-4l0.5,0.8C323.7,110.7,320.5,112.1,317.2,113z"/>
<path class="st2" d="M302.6,116.4l-0.1-0.9c3.6-0.5,7.2-1.2,10.8-2.2l0.2,0.9C309.9,115.1,306.2,115.9,302.6,116.4z"/>
<path class="st2" d="M283.2,118.7l-0.1-0.9c0.1,0,6.1-0.4,13.8-1.4l0.1,0.9C289.3,118.3,283.3,118.7,283.2,118.7z"/>
<path class="st2" d="M291.2,138.7l-0.1-0.9c0.2,0,23.7-1.8,34.9-9.4l0.5,0.8C315.2,136.9,292.2,138.6,291.2,138.7z"/>
<path class="st2" d="M291.2,132.2l-0.1-0.9c0.2,0,23.7-1.9,34.9-9.5l0.5,0.8C315.2,130.4,292.2,132.2,291.2,132.2z"/>
<path class="st2" d="M281.3,154V153c0.2,0,25.1-1.4,37.5-7.1l0.4,0.8C306.6,152.5,281.5,153.9,281.3,154z"/>
<path class="st2" d="M292.4,166.8l-0.1-0.9c0.2,0,22.4-1.7,33.7-9.3l0.5,0.8C315.2,165.1,292.6,166.7,292.4,166.8z"/>
<path class="st2" d="M292.4,159.9l-0.1-0.9c0.2,0,22.4-1.7,33.7-9.3l0.5,0.8C315.2,158.2,292.6,159.9,292.4,159.9z"/>
<path class="st2" d="M281.3,179.5v-0.9c0.2,0,25.1-1.4,37.5-7.1l0.4,0.9C306.6,178.1,281.5,179.5,281.3,179.5z"/>
<path class="st2" d="M292.4,192.3l-0.1-0.9c0.2,0,22.4-1.7,33.7-9.3l0.5,0.8C315.2,190.6,292.6,192.3,292.4,192.3z"/>
<path class="st2" d="M292.4,185.4l-0.1-0.9c0.2,0,22.4-1.7,33.7-9.3l0.5,0.8C315.2,183.8,292.6,185.4,292.4,185.4z"/>
<path class="st2" d="M100.8,159.5l-21.1-23.2V98.6c10.8-0.8,20.8,16.8,22.4,39.4C102.7,145.2,102.2,152.4,100.8,159.5z"/>
<path class="st6" d="M100.8,159.5l-21.1-23.2V98.6c10.8-0.8,20.8,16.8,22.4,39.4C102.7,145.2,102.2,152.4,100.8,159.5z"/>
<path class="st2" d="M100.8,159.5l-21.1-23.2V98.6c10.8-0.8,20.8,16.8,22.4,39.4C102.7,145.2,102.2,152.4,100.8,159.5z"/>
<path class="st17" d="M100.8,159.5l-21.1-23.2V98.6c10.8-0.8,20.8,16.8,22.4,39.4C102.7,145.2,102.2,152.4,100.8,159.5z"/>
<path class="st2" d="M168.5,252.9c0,0-2.5,2-2.1,4.3c0.4,2.3,9.2,18.3,22.1,16.6s-8-14.6-8-14.6L168.5,252.9z"/>
<path class="st6" d="M172.5,247.1c1.1,0.1,2,0.9,2.1,2c0.2,1.9,2.4,5.7,5.8,6.7c3.4,1,6.5-1.8,8-0.9s5.6,11.9,4.4,15.1
	c-1.2,3.1-6.4,3-11,0.7s-12.9-11-13.5-14.4C167.6,252.8,170.6,248,172.5,247.1z"/>
<path class="st2" d="M79.7,98.6l7.6-0.5c0,0,12.6-0.5,18.9,26.7c2.8,11.7,2.9,23.9,0.1,35.6l-5.5-0.9
	C100.8,159.5,105.9,104.1,79.7,98.6z"/>
<path class="st18" d="M79.7,98.6l7.6-0.5c0,0,12.6-0.5,18.9,26.7c2.8,11.7,2.9,23.9,0.1,35.6l-5.5-0.9
	C100.8,159.5,105.9,104.1,79.7,98.6z"/>
</svg>
