<svg enable-background="new 0 0 301.7 306" viewBox="0 0 301.7 306" xmlns="http://www.w3.org/2000/svg" xmlns:xlink="http://www.w3.org/1999/xlink"><linearGradient id="a"><stop offset=".01"/><stop offset=".13" stop-opacity=".69"/><stop offset=".25" stop-opacity=".32"/><stop offset="1" stop-opacity="0"/></linearGradient><linearGradient id="b" gradientTransform="matrix(1.9828 0 0 -1.9828 -59.414 505.5011)" gradientUnits="userSpaceOnUse" x1="65.0568" x2="171.9068" xlink:href="#a" y1="193.131" y2="203.401"/><linearGradient id="c" gradientTransform="matrix(1.9828 0 0 -1.9828 -59.414 505.5011)" gradientUnits="userSpaceOnUse" x1="144.2671" x2="-30.9329" xlink:href="#a" y1="170.9585" y2="177.3785"/><linearGradient id="d"><stop offset=".01"/><stop offset=".08" stop-opacity=".69"/><stop offset=".21" stop-opacity=".32"/><stop offset="1" stop-opacity="0"/></linearGradient><linearGradient id="e" gradientTransform="matrix(1.9828 0 0 -1.9828 -86.7761 492.9701)" gradientUnits="userSpaceOnUse" x1="121.5661" x2="130.0561" xlink:href="#d" y1="137.5585" y2="148.6085"/><linearGradient id="f" gradientTransform="matrix(1.9828 0 0 -1.9828 -86.7761 492.9701)" gradientUnits="userSpaceOnUse" x1="132.156" x2="111.736" xlink:href="#d" y1="184.5363" y2="50.4163"/><linearGradient id="g" gradientTransform="matrix(1.9828 0 0 -1.9828 -86.7761 492.9701)" gradientUnits="userSpaceOnUse" x1="116.3606" x2="114.6706" xlink:href="#d" y1="168.3781" y2="139.2381"/><linearGradient id="h" gradientTransform="matrix(1.9828 0 0 -1.9828 -86.7761 492.9701)" gradientUnits="userSpaceOnUse" x1="147.6819" x2="91.2719" xlink:href="#a" y1="152.6198" y2="189.5798"/><linearGradient id="i" gradientTransform="matrix(1.9828 0 0 -1.9828 -59.414 505.5011)" gradientUnits="userSpaceOnUse" x1="98.7724" x2="98.7424" xlink:href="#a" y1="172.5177" y2="162.1777"/><linearGradient id="j" gradientTransform="matrix(1.9828 0 0 -1.9828 -59.414 505.5011)" gradientUnits="userSpaceOnUse" x1="98.8246" x2="98.1746" xlink:href="#a" y1="169.9978" y2="159.4778"/><linearGradient id="k" gradientTransform="matrix(1.9828 0 0 -1.9828 -59.414 505.5011)" gradientUnits="userSpaceOnUse" x1="98.688" x2="98.328" xlink:href="#a" y1="167.1476" y2="158.7176"/><linearGradient id="l" gradientTransform="matrix(1.9828 0 0 -1.9828 -86.7761 492.9701)" gradientUnits="userSpaceOnUse" x1="115.4557" x2="88.5657" xlink:href="#d" y1="134.1959" y2="138.9759"/><linearGradient id="m" gradientTransform="matrix(1.9828 0 0 -1.9828 -86.7761 492.9701)" gradientUnits="userSpaceOnUse" x1="114.3554" x2="115.0354" xlink:href="#d" y1="115.6929" y2="116.8629"/><linearGradient id="n" gradientTransform="matrix(1.9828 0 0 -1.9828 -86.7761 492.9701)" gradientUnits="userSpaceOnUse" x1="136.7881" x2="158.0398" xlink:href="#d" y1="93.5854" y2="130.3651"/><linearGradient id="o" gradientTransform="matrix(1.9828 0 0 -1.9828 -86.7761 492.9701)" gradientUnits="userSpaceOnUse" x1="92.9106" x2="75.2406" xlink:href="#a" y1="175.4361" y2="224.5861"/><path d="m283.7 211.8c-4.7 10.3-8 21.4-9.9 33.1-2.4 17.2-9.7 32.6-20.6 43.2-5.5 5.2-11.7 9.2-18.3 11.9-4.2 1.7-8.6 3.1-12.9 4h-.2c-19.6 4-44 2.5-63-4.7-11.2-4.3-20.1-10.5-32.2-11.9-18.3-2.2-36 .3-54.2-5-97.7-28.5-81.3-145.5-31.4-183.6 18.8-14.3 41.6-19.3 58.6-35.9 6.2-6.1 10-16.6 15.1-24.1 10-14.6 23.3-27.2 37.7-33.7 39.9-17.9 80.7 14.5 110.6 45.5 56.9 59.2 35.2 129.7 20.7 161.2z" fill="#586fe0" opacity=".18"/><path d="m140.5 176.2v-123.5h-12.7l26.9-31.3 30.7 31.6h-13.8v152.8z" fill="#586fe0"/><path d="m140.5 176.2v-123.5h-12.7l26.9-31.3 30.7 31.6h-13.8v152.8z" fill="url(#b)"/><path d="m117.2 178.9v-88.5h-12.6l26.9-31.3 30.6 31.7h-13.7v88.9z" fill="#586fe0"/><path d="m107 223.8v-99.9h-9.3l19.8-23.1 22.5 23.3h-10.1v65.5z" fill="#586fe0"/><path d="m107 223.8v-99.9h-9.3l19.8-23.1 22.5 23.3h-10.1v65.5z" fill="url(#c)"/><path d="m253.6 287.8c-6.5 6-13.7 10.8-22.1 13.4-5.4 1.7-10.9 3.1-16.5 4-4-3.5-9.3-9.1-12.2-11.3-.3-.2-.6-.5-.9-.6-8.3-5.7-18.4-9.3-27.5-13.6-4.6-2.2-9-4.6-13.5-6.9-5.5-3-11.2-5.6-17-7.7l-1-.3-.8-.3c-3.9-1-7.6-2.8-10.9-5.3-3.3-2.8-5.1-6.9-7.1-10.7-3.1-5.8-4.2-13.5-10.4-15.9-2.8-1.1-3.7-4.5-4-7.4-.6-8.6-.1-17.2 1.3-25.6 1.1-8.3 2.2-16.6 3.4-24.9.1-1 .4-2 .8-2.9 1.5-2 4.2-2.5 6.3-1.3 2 1.3 3.4 3.3 4 5.6 2.1 7.6-1.2 16.2 2 23.3v.1c1 1.8 2.1 3.5 3.5 5.1 4 4.9 7.9 9.9 12.3 14.3 2.2 2.7 5.1 4.7 8.4 5.9 3.4 1.2 7.1.1 9.2-2.9l.3-.5c1-2.9.7-6-.9-8.6-2.4-4.3-5.2-8.3-8.4-12-1.8-2.3-3.3-4.7-4.6-7.3-1.9-4.3-2.8-8.9-2.4-13.6 0-2.2.7-4.2 2-5.9 1.5-1.6 4.6-2.1 5.8-.3 7 10.6 8.6 19.7 20.1 28.9 3.1 2.5 12.1 12.6 15.4 14.8 10.3 6.6 15.9 18.1 22.9 28.1 7.1 9.9 15.4 18.1 23.8 26.5 3.7 2.7 14 10.1 18.7 15.8z" fill="#ffbbab"/><path d="m160.6 212.5c-2.4-4.3-5.2-8.3-8.4-12.1.4-1.6 1.5-2 4.2.8 4.5 4.3 10.5 15.4 17.5 16.2-3.9-.4-8.2-.7-11.1 2-.5.5-1 1.1-1.4 1.8 1-2.9.7-6.1-.8-8.7z" fill="url(#e)"/><path d="m196.2 247c-17 4.2-25.3 21.6-34 6.5-.8 3.4-12.6-18.7-13.5-15.3 1.3-5.2-12.7 4.5-16.8 1.1s1.7-19.7-3.1-17.4c-4.1-7.4-5.4-16-3.5-24.3l2.4 1.8c1 1.8 2.1 3.5 3.5 5.1 4 4.9 7.9 9.8 12.3 14.3 2.3 2.7 5.1 4.7 8.4 5.9 3.4 1.2 7.1 0 9.2-2.9v-.1c-.9 2-1 4.2-.5 6.3.9 3 2.6 5.7 4.9 7.8 8.1 8.2 19.4 12.2 30.7 11.2z" fill="url(#f)"/><path d="m170.3 221c-2.1 4.4-5.8 7.9-10.3 9.8 2.2 3.6 4.6 7 7.2 10.3-4.5-2.7-8.8-5.7-12.8-9.2-4-3.6-8.7-7.9-14-6.8-3.6.8-6.9 4.1-10.7 1-1.1-.9-2-2.2-2.4-3.6-1.3-4-2.6-7.8-3.7-11.9-.6-1.8-1-3.6-1.1-5.5 0-1 .7-3.7-1.2-2.7-3.9 1.9-7.4 4.6-10.3 7.9.7-2.2 1.3-4.4 1.7-6.7.2-2.3.7-4.5 1.4-6.6l2.5-7.3c.8-2.1 1.3-4.2 1.6-6.4.2-3.1-3.4-11 1-12.7 2.9-1.1 5.7 3.1 6.4 5.3 2.1 7.5-1.2 16.1 2 23.2 1.3 2.4 2.9 4.6 4.6 6.6 3.3 4.3 6.9 8.5 10.7 12.4 3.1 3.2 6.5 6.5 11.2 6.8 1.9.2 3.7-.4 5.2-1.5 3.6-2.8 2.8-7.4 1.1-11-3.4-7-9.7-12.3-13-19.4-1.9-4.3-2.7-8.9-2.4-13.6 0-2.2.7-4.3 2-5.9 6.4-6.7 7.9 7.6 8.3 10.9.9 5.2 2.5 10.3 4.7 15 .9 2.2 2.3 4.8 4.7 5.1l-3.7 1.5c1 6.1 4.3 11.4 9.3 15z" fill="url(#g)"/><path d="m160.5 140.1c-.4 5.4-2.7 10.6-6.5 14.5-3.4 3.4-5.8 7.6-7 12.2-.3 1.4-.5 2.9-.8 4.4h-20.8c-.2-1.1-.3-2.1-.5-3.2-.9-4.5-3-8.6-6.1-11.9-2.8-2.8-4.9-6.2-6.4-9.9-4.7-13 2.1-27.3 15.1-32 1.4-.5 2.8-.9 4.3-1.1.7 0 1.3-.2 2-.2 13.7-1.1 25.7 9.1 26.8 22.8.1 1.4.1 3-.1 4.4z" fill="#fff"/><path d="m156.4 140.1c-.4 5.4-2.7 10.5-6.5 14.5-3.4 3.3-5.8 7.6-7 12.2-.3 1.4-.5 2.9-.8 4.4h-16.8c-.2-1.1-.3-2.1-.5-3.2-.9-4.5-3-8.6-6.1-11.9-2.8-2.8-4.9-6.2-6.4-9.9-4.7-13 2.1-27.3 15.1-32 1.4-.5 2.8-.9 4.3-1.1.7 0 1.3-.2 2-.2 13.7 1.1 23.9 13.2 22.7 26.9.1.1.1.2 0 .3z" fill="url(#h)"/><path d="m126.1 171.2h20.7c1.5 0 2.7 1.2 2.7 2.7 0 1.5-1.2 2.7-2.7 2.7h-20.7c-1.5 0-2.7-1.2-2.7-2.7 0-1.5 1.2-2.7 2.7-2.7z" fill="#586fe0"/><path d="m126.7 175.7h18.5c1.3 0 2.4 1.1 2.4 2.4 0 1.3-1.1 2.4-2.4 2.4h-18.5c-1.3 0-2.4-1.1-2.4-2.4 0-1.3 1-2.4 2.4-2.4z" fill="#586fe0"/><path d="m127.9 179.7h16c1.2 0 2.1.9 2.1 2.1 0 1.2-.9 2.1-2.1 2.1h-16c-1.2 0-2.1-.9-2.1-2.1 0-1.2 1-2.1 2.1-2.1z" fill="#586fe0"/><path d="m126.1 171.2h20.7c1.5 0 2.7 1.2 2.7 2.7 0 1.5-1.2 2.7-2.7 2.7h-20.7c-1.5 0-2.7-1.2-2.7-2.7 0-1.5 1.2-2.7 2.7-2.7z" fill="url(#i)"/><path d="m126.7 175.7h18.5c1.3 0 2.4 1.1 2.4 2.4 0 1.3-1.1 2.4-2.4 2.4h-18.5c-1.3 0-2.4-1.1-2.4-2.4 0-1.3 1-2.4 2.4-2.4z" fill="url(#j)"/><path d="m127.9 179.7h16c1.2 0 2.1.9 2.1 2.1 0 1.2-.9 2.1-2.1 2.1h-16c-1.2 0-2.1-.9-2.1-2.1 0-1.2 1-2.1 2.1-2.1z" fill="url(#k)"/><path d="m130.6 171.1c-.2-3.8-.6-7.6-1.4-11.3-.6-3.1-1.1-6.2-1.4-9.4-.3-4.7.6-8.1 2.9-10.2.7-.9 1.9-1 2.8-.3l.3.3.2-.2c.4-.5.9-.9 1.5-1.1s1.2-.1 1.8.2c.4.2.7.5 1 .9.6-.4 1.4-.5 2.1-.4 1.4.3 2.3 1.6 2.7 3.7.6 5 .3 10-1.1 14.9-1.1 4.1-1.6 8.3-1.4 12.5l-1.5.1c-.2-4.4.3-8.8 1.4-13 1.1-4.9 2-9.6 1.1-14.2-.2-.9-.6-2.3-1.6-2.5-.4-.1-.8 0-1.1.2.1.3.2.5.3.8.4 1.5.5 3 .5 4.5 0 .5-.2 1-.5 1.3s-.7.4-1.1.2c-.7-.3-1.2-.9-1.3-1.6-.5-1.4-.6-2.9-.3-4.3.1-.4.3-.8.6-1.2-.2-.2-.4-.5-.6-.6s-.4-.1-.6 0c-.3.1-.6.3-.8.6-.1.1-.2.3-.3.4 1.2 1.7 1.8 3.7 1.5 5.8-.1 1-.8 2-1.8 2-.8-.1-1.4-.6-1.6-1.3-.9-2-.9-4.3 0-6.3-.4-.3-.6-.4-.7-.4-.2.1-.4.2-.5.3-1.9 1.7-2.7 4.8-2.4 9 .3 3.1.7 6.1 1.4 9.2.8 3.8 1.3 7.7 1.5 11.6zm3.4-28.3c-.5 1.4-.4 3 .2 4.3.2.4.3.5.3.5.2-.2.3-.4.3-.7.2-1.4-.1-2.8-.8-4.1zm3.9.2c-.1 1.1 0 2.2.4 3.2-.1-1.1-.2-2.2-.4-3.2z" fill="#586fe0"/><path d="m117.2 196.9s-10.7 23.1-9.6 26.9c1.2 3.2 2.8 6.3 4.8 9.1l9.9 11.3s5.1 13.6 9 14.8 9.2 2.4 9.2 2.4-18.7-26.6-20.5-29.6 2.7-20.1 4-22.5c.9-1.4 1.6-3 2-4.7.2-1 9.4-9.3 10.2-13.3s1-7.9-.8-9.1-3.7-2.8-3.7-2.8l-12.7 13.6z" fill="#ffbbab"/><path d="m115.4 219.6c-.3 1.8-.4 3.6-.3 5.4.1 1.7.5 3.3 1.2 4.9 1.6 3.5 3.9 6.7 6.6 9.4 2.5 2.7 4.9 5.4 7.5 7.9 2.2-7.7-.5-15.9-2.6-23.7s-2.6-14.5.2-21.8c-2.8-.3-6.5 4.8-7.9 6.9-2.4 3.4-4 7.1-4.7 11z" fill="url(#l)"/><path d="m139.3 198.7s-14.6 8.7-15.3 10.6c-.8 1.9-5.7 14.8-5.1 21s22.6 32 22.6 32 47 26.6 56 25.3 20-16.6 10.6-26.1-30.4-13.6-34.9-14-16.2-5.3-24-9.7c-7.7-4.5-15.6-9.5-15.6-9.5s-2-9.9-2-10.8 8.9-6.1 10.2-10.4c1.3-4.4.3-7.5-2.5-8.4z" fill="#ffbbab"/><path d="m127.3 190.3c.6 0 1.2-.2 1.8-.5 1-.4 1.9-1 2.8-1.6 1.3-.7 1.9-2.3 1.2-3.7 0 0 0 0 0-.1-.5-1.7-1.2-3.3-2-4.9.2.3-2.1 2.8-2.4 3.2-.9 1.1-1.8 2.1-2.8 3.2-1 1-1.6 1.3-1.2 2.5.5 1.2 1.5 1.9 2.6 1.9z" fill="#fff" opacity=".21"/><path d="m133 207.6c2.2.5 4.4-.1 5.9-1.8.3-.3.6-.6.8-1 .1-.3.2-.7.2-1 .1-1.4-.1-2.7-.8-4-.8.2-1.6.5-2.3 1l-2.8 1.6c-1 .4-2 1-2.8 1.7-1.1 1.3.6 3.1 1.8 3.5z" fill="#fff" opacity=".21"/><path d="m138 260.6c1.5 1.5 3.2 2.8 5 4l-.8-.3c-1.5-1.1-2.9-2.3-4.2-3.7z" fill="url(#m)"/><path d="m231.5 301.2c-5.4 1.7-10.9 3.1-16.5 4h-.3c-3.8-3.3-8.9-9.2-11.9-11.4-.3-.2-.6-.5-.9-.6-8.3-5.7-18.4-9.3-27.5-13.6-4.6-2.2-9-4.6-13.5-6.9 10.4 4.1 20.7 8.2 31.3 11.6 3.5 1.1 7.6 2.2 10.7.1 1.7-1.3 3.1-3.1 4-5.1 2.2-4.2 4.1-8.6 6.6-12.6 1 1.4-.5 3.7-.9 5.3-.6 2.4-.8 4.8-.5 7.3.6 5.7 3.5 10.9 8.1 14.4 3.2 2.3 8 5.1 11.3 7.5z" fill="url(#n)"/><path d="m73.2 196.1c-1.9-.4-3.8-1.2-5.5-2.2l4.1-6.7c1 .6 2 1 3.1 1.2zm10.2-.7-2.7-7.4c1-.4 2-.9 2.9-1.6l4.9 6.2c-1.5 1.2-3.2 2.2-5.1 2.8zm-22.5-9.1c-.9-1.8-1.4-3.7-1.7-5.7l7.9-1c.1 1.1.5 2.2 1 3.2zm33.5-2.1-7.5-2.5c.3-1.1.5-2.2.5-3.3h7.9c.1 1.9-.2 3.9-.9 5.8zm-26.4-10.3-7.1-3.4c.9-1.8 2-3.4 3.4-4.8l5.7 5.5c-.9.8-1.5 1.7-2 2.7zm17.8-1.1c-.6-.9-1.4-1.8-2.2-2.5l4.9-6.2c1.5 1.2 2.9 2.7 4 4.3zm-10.9-4.4-1.8-7.7c2-.4 4-.6 5.9-.4l-.8 7.9c-1-.1-2.1 0-3.3.2z" fill="#fff"/><path d="m198.3 162.5c-1.6-.4-3.2-1-4.6-1.9l1.2-2c1.2.8 2.6 1.3 4 1.6zm8.6-.5-.8-2c1.3-.5 2.6-1.1 3.7-2l1.4 1.8c-1.3.9-2.7 1.7-4.3 2.2zm-19-7.8c-.7-1.5-1.2-3.1-1.4-4.8l2.2-.3c.2 1.4.6 2.7 1.2 4zm28.3-1.7-2.1-.7c.4-1.4.7-2.8.7-4.2h2.3c-.1 1.6-.4 3.3-.9 4.9zm-26.3-10.6-2-1c.7-1.5 1.7-2.9 2.9-4.1l1.6 1.6c-1 1-1.9 2.2-2.5 3.5zm22.8-1.5c-.8-1.2-1.7-2.3-2.9-3.1l1.4-1.8c1.3 1 2.4 2.3 3.4 3.7zm-13.9-5.6-.5-2.2c1.6-.4 3.3-.5 5-.3l-.3 2.3c-1.5-.1-2.9 0-4.2.2z" fill="#586fe0"/><path d="m55.7 98.4h-2.8l-1.3 1.8 6.9 20.5 2 1.1s12.2-.7 21.8 5.3c1.3.7 2.7 1 4.2 1 1.6-.3 7.9-2.5 7.9-2.5s2.8-4.2 5-6.9c3.2-3.2 6.7-6.1 10.3-8.7 0 0-4.6-26.4-5.7-28.1s-2.4-1.2-2.4-1.2l-20.9 18.3z" fill="#586fe0"/><path d="m101.8 86.9c.8 2.3 1.3 4.6 1.6 7l2 12.8c.2.7.2 1.3 0 2-.4.8-1.1 1.5-2 2-2.4 1.7-4.5 4-5.9 6.6-1.7 2.9-3.1 6.6-6.3 7.4-2 .5-4.5-.4-6.3.8-6.5-4.1-14.1-6.2-21.8-6.2l-6.6-18c-.4-1-.7-2-.7-3.1.1-2.2 2.2-4.2 1.6-6.4 9.7 3.7 20 5.8 30.5 6.1 1.1.3 2.3-.4 2.6-1.5 0-.1.1-.3.1-.4.6-2.6 1.2-5.2 1.7-7.9.4-1.9.3-7.4 1.5-8.7 2.8-3.2 7 4.8 8 7.5z" fill="#fff"/><path d="m101.8 86.9c.8 2.3 1.3 4.6 1.6 7l2 12.8c.2.7.2 1.3 0 2-.4.8-1.1 1.5-2 2-2.4 1.7-4.5 4-5.9 6.6-1.7 2.9-3.1 6.6-6.3 7.4-2 .5-4.5-.4-6.3.8-6.5-4.1-14.1-6.2-21.8-6.2l-6.6-18c-.4-1-.7-2-.7-3.1.1-2.2 2.2-4.2 1.6-6.4 9.7 3.7 20 5.8 30.5 6.1 1.1.3 2.3-.4 2.6-1.5 0-.1.1-.3.1-.4.6-2.6 1.2-5.2 1.7-7.9.4-1.9.3-7.4 1.5-8.7 2.8-3.2 7 4.8 8 7.5z" fill="url(#o)"/><path d="m57 91.7c3.7 7.5 6.6 15.3 8.8 23.3.1.9.9 1.7 1.8 1.6.2 0 .5-.1.7-.2 7.1-1.1 14.4.8 20 5.4 2.8-5.9 6.8-11.2 11.7-15.6.4-.3.6-.6.7-1.1 0-.3 0-.5-.1-.8-2.9-9.1-4.6-18.6-5.1-28.2-6.8 5-14.1 10.9-15.3 19.3-7.3-2.7-15.2-5-23.2-3.7z" fill="#fff"/><path d="m88.3 82.1 4-3.4 5.9 26.6s-11 10.4-9.9 16.5l-8-26.4s4-9.9 8-13.3z" fill="#586fe0" opacity=".3"/><g fill="#fff"><path d="m80.3 95.4 8.1 26.4s4-17.1 6.7-22.8l-9.1-22.8s-6.6 11.3-5.7 19.2z"/><path d="m191.3 104.3c.6-.5 1.4-.8 2.2-.9.4 0 .9.1 1.3.2l23.2 6.9c-6.3 8.5-17.1 12.6-24.6 20.1-.3.4-.8.7-1.2 1-1.1.3-2.3.1-3.3-.5-3.9-1.8-8.1-2.9-12.4-3.3-1.7-.2-4.8.5-4.9-1.3 0-1.4 2.2-4 3-5.2 4.3-6.8 10-12.6 16.7-17z"/><path d="m192.6 170.6c3 6.3 6.8 12.1 11.5 17.3-1.6 1.4-3.5 2.3-5.5 2.9-5.9 2.2-11.2 5.5-15.7 9.8-2-3.7-10.8-15.9-8.9-19.6.7-1.8 19-9.5 18.6-10.4z"/><path d="m68.7 206.4c5.9.4 11.9.9 17.8 1.8.5 0 1.1.2 1.5.5.4.4.6.8.8 1.3 2.7 7.8 6.7 15 12 21.3-5.9 3.6-23.1 11.2-28.9 4-2.1-2.8-4.9-29-3.2-28.9z"/></g></svg>