<?xml version="1.0" encoding="UTF-8"?>
<svg width="421px" height="412px" viewBox="0 0 421 412" version="1.1" xmlns="http://www.w3.org/2000/svg" xmlns:xlink="http://www.w3.org/1999/xlink">
    <title>Innovation _Monochromatic</title>
    <defs>
        <linearGradient x1="35.1736404%" y1="54.8827705%" x2="71.2806837%" y2="43.8373844%" id="linearGradient-1">
            <stop stop-color="#000000" offset="1%"></stop>
            <stop stop-color="#000000" stop-opacity="0.69" offset="13%"></stop>
            <stop stop-color="#000000" stop-opacity="0.32" offset="25%"></stop>
            <stop stop-color="#000000" stop-opacity="0" offset="100%"></stop>
        </linearGradient>
        <linearGradient x1="82.299794%" y1="53.4096405%" x2="-21.7915131%" y2="43.0598098%" id="linearGradient-2">
            <stop stop-color="#000000" offset="1%"></stop>
            <stop stop-color="#000000" stop-opacity="0.69" offset="13%"></stop>
            <stop stop-color="#000000" stop-opacity="0.32" offset="25%"></stop>
            <stop stop-color="#000000" stop-opacity="0" offset="100%"></stop>
        </linearGradient>
        <linearGradient x1="9.31506849%" y1="95.8433918%" x2="86.8493151%" y2="-4.00556513%" id="linearGradient-3">
            <stop stop-color="#000000" offset="1%"></stop>
            <stop stop-color="#000000" stop-opacity="0.69" offset="8%"></stop>
            <stop stop-color="#000000" stop-opacity="0.32" offset="21%"></stop>
            <stop stop-color="#000000" stop-opacity="0" offset="100%"></stop>
        </linearGradient>
        <linearGradient x1="70.7380835%" y1="-72.0442735%" x2="14.2609253%" y2="247.627179%" id="linearGradient-4">
            <stop stop-color="#000000" offset="1%"></stop>
            <stop stop-color="#000000" stop-opacity="0.69" offset="8%"></stop>
            <stop stop-color="#000000" stop-opacity="0.32" offset="21%"></stop>
            <stop stop-color="#000000" stop-opacity="0" offset="100%"></stop>
        </linearGradient>
        <linearGradient x1="53.9374349%" y1="-15.9461001%" x2="49.9288415%" y2="65.8024931%" id="linearGradient-5">
            <stop stop-color="#000000" offset="1%"></stop>
            <stop stop-color="#000000" stop-opacity="0.69" offset="8%"></stop>
            <stop stop-color="#000000" stop-opacity="0.32" offset="21%"></stop>
            <stop stop-color="#000000" stop-opacity="0" offset="100%"></stop>
        </linearGradient>
        <linearGradient x1="147.846843%" y1="132.766825%" x2="-3.53303842%" y2="7.13800136%" id="linearGradient-6">
            <stop stop-color="#000000" offset="1%"></stop>
            <stop stop-color="#000000" stop-opacity="0.69" offset="13%"></stop>
            <stop stop-color="#000000" stop-opacity="0.32" offset="25%"></stop>
            <stop stop-color="#000000" stop-opacity="0" offset="100%"></stop>
        </linearGradient>
        <linearGradient x1="50.1519757%" y1="39.2315547%" x2="49.9240122%" y2="60.3999434%" id="linearGradient-7">
            <stop stop-color="#000000" offset="1%"></stop>
            <stop stop-color="#000000" stop-opacity="0.69" offset="13%"></stop>
            <stop stop-color="#000000" stop-opacity="0.32" offset="25%"></stop>
            <stop stop-color="#000000" stop-opacity="0" offset="100%"></stop>
        </linearGradient>
        <linearGradient x1="52.5913339%" y1="45.679154%" x2="47.068819%" y2="54.9652214%" id="linearGradient-8">
            <stop stop-color="#000000" offset="1%"></stop>
            <stop stop-color="#000000" stop-opacity="0.69" offset="13%"></stop>
            <stop stop-color="#000000" stop-opacity="0.32" offset="25%"></stop>
            <stop stop-color="#000000" stop-opacity="0" offset="100%"></stop>
        </linearGradient>
        <linearGradient x1="51.6160627%" y1="44.5780509%" x2="48.0901077%" y2="56.3430524%" id="linearGradient-9">
            <stop stop-color="#000000" offset="1%"></stop>
            <stop stop-color="#000000" stop-opacity="0.69" offset="13%"></stop>
            <stop stop-color="#000000" stop-opacity="0.32" offset="25%"></stop>
            <stop stop-color="#000000" stop-opacity="0" offset="100%"></stop>
        </linearGradient>
        <linearGradient x1="65.6271807%" y1="55.3126066%" x2="21.9281062%" y2="34.4730221%" id="linearGradient-10">
            <stop stop-color="#000000" offset="1%"></stop>
            <stop stop-color="#000000" stop-opacity="0.69" offset="8%"></stop>
            <stop stop-color="#000000" stop-opacity="0.32" offset="21%"></stop>
            <stop stop-color="#000000" stop-opacity="0" offset="100%"></stop>
        </linearGradient>
        <linearGradient x1="38.4%" y1="65.36%" x2="65.6%" y2="27.92%" id="linearGradient-11">
            <stop stop-color="#000000" offset="1%"></stop>
            <stop stop-color="#000000" stop-opacity="0.69" offset="8%"></stop>
            <stop stop-color="#000000" stop-opacity="0.32" offset="21%"></stop>
            <stop stop-color="#000000" stop-opacity="0" offset="100%"></stop>
        </linearGradient>
        <linearGradient x1="33.4376779%" y1="64.8592463%" x2="92.7148549%" y2="14.0842863%" id="linearGradient-12">
            <stop stop-color="#000000" offset="1%"></stop>
            <stop stop-color="#000000" stop-opacity="0.69" offset="8%"></stop>
            <stop stop-color="#000000" stop-opacity="0.32" offset="21%"></stop>
            <stop stop-color="#000000" stop-opacity="0" offset="100%"></stop>
        </linearGradient>
        <linearGradient x1="83.653646%" y1="131.889375%" x2="13.2650782%" y2="-53.2380598%" id="linearGradient-13">
            <stop stop-color="#000000" offset="1%"></stop>
            <stop stop-color="#000000" stop-opacity="0.69" offset="13%"></stop>
            <stop stop-color="#000000" stop-opacity="0.32" offset="25%"></stop>
            <stop stop-color="#000000" stop-opacity="0" offset="100%"></stop>
        </linearGradient>
    </defs>
    <g id="Page-1" stroke="none" stroke-width="1" fill="none" fill-rule="evenodd">
        <g id="sign-in-desktop" transform="translate(-900.000000, -119.000000)" fill-rule="nonzero">
            <g id="Innovation-_Monochromatic" transform="translate(900.000000, 119.710023)">
                <path d="M397.934718,284.574121 C391.296611,298.233237 386.606254,313.137289 384.0588,328.666164 C380.726668,351.587526 370.357427,372.157447 355.013631,386.284346 C347.215142,393.249744 338.511094,398.606236 329.256595,402.13529 C323.298878,404.458627 317.201427,406.225075 311.018422,407.418938 L310.689609,407.418938 C283.069298,412.702586 248.675435,410.747637 221.931959,401.104979 C206.148924,395.398639 193.566338,387.103312 176.555734,385.254035 C150.820619,382.32161 125.830814,385.676727 100.227224,378.649475 C-37.3920703,340.607209 -14.1778566,184.739592 56.0785689,133.990152 C82.5151521,114.889764 114.695006,108.285204 138.544926,86.146719 C147.313278,78.009901 152.618132,64.0610702 159.830102,54.0485572 C173.881387,34.5783141 192.711424,17.8291498 212.900556,9.13754881 C269.083775,-14.7709586 326.62609,28.3964459 368.714182,69.7409919 C448.856926,148.573021 418.255375,242.516283 397.934718,284.574121 Z" id="Path" fill="#5870E0" opacity="0.18"></path>
                <polygon id="Path" fill="#5870E0" points="204.269721 222.795354 204.269721 45.2926653 186 45.2926653 224.79814 0.289976555 269 45.7771781 249.21495 45.7771781 249.21495 265.289977"></polygon>
                <polygon id="Path" fill="url(#linearGradient-1)" points="204.269721 222.795354 204.269721 45.2926653 186 45.2926653 224.79814 0.289976555 269 45.7771781 249.21495 45.7771781 249.21495 265.289977"></polygon>
                <polygon id="Path" fill="#5870E0" points="173.298312 228.158398 173.298312 101.930766 155 101.930766 193.826731 57.2899766 238 102.411687 218.21495 102.411687 218.21495 229.289977"></polygon>
                <polygon id="Path" fill="#5870E0" points="156.664951 291.289977 156.664951 149.885172 143 149.885172 172.012635 117.289977 205 150.221784 190.232569 150.221784 190.232569 242.817947"></polygon>
                <polygon id="Path" fill="url(#linearGradient-2)" points="156.664951 291.289977 156.664951 149.885172 143 149.885172 172.012635 117.289977 205 150.221784 190.232569 150.221784 190.232569 242.817947"></polygon>
                <path d="M367,383.486862 C356.931548,391.00216 345.693951,396.781534 333.745679,400.589198 C326.053806,403.095956 318.181527,405.001861 310.19879,406.289977 C304.53848,401.301795 298.114028,394.888419 294.038605,391.724487 C293.58578,391.382441 293.189559,391.068898 292.793337,390.812363 C280.878385,382.688753 266.501198,377.415533 253.510786,371.230188 C247.00143,368.123264 240.690184,364.674293 234.294034,361.339338 C226.483217,357.035479 218.366799,353.319822 210.011305,350.22282 L208.596227,349.738253 L207.520768,349.367703 C201.893404,347.894391 196.605845,345.328535 191.954916,341.814171 C187.313462,337.738114 184.653116,331.92332 181.766358,326.479077 C177.323015,318.098932 175.794731,307.124934 166.992949,303.675963 C163.002431,302.136752 161.672258,297.205579 161.332639,292.987003 C160.535644,280.669386 161.172037,268.300153 163.228843,256.13147 C164.794862,244.19784 166.389183,232.254709 168.011805,220.302076 C168.115908,218.828545 168.520553,217.392457 169.20047,216.0835 C171.298494,213.254512 175.168378,212.457843 178.200363,214.230747 C181.067195,216.078141 183.099664,218.984882 183.860673,222.325853 C186.91724,233.185836 182.077675,245.556525 186.690828,255.760919 L186.690828,255.960446 C188.074422,258.573095 189.745273,261.020799 191.671901,263.257443 C197.332211,270.326408 202.99252,277.509389 209.19056,283.837253 C212.396083,287.677043 216.528449,290.621791 221.190417,292.388421 C225.977712,294.146287 231.341135,292.466256 234.294034,288.283861 L234.690256,287.571263 C236.067115,283.453475 235.623992,278.938664 233.473289,275.17207 C230.084901,269.020778 226.08316,263.233117 221.530035,257.898711 C218.962601,254.631703 216.751781,251.095858 214.935774,247.352271 C212.183818,241.226867 211.00618,234.502608 211.511287,227.7986 C211.459538,224.706671 212.458055,221.689704 214.341442,219.247432 C216.49236,216.995625 220.8791,216.169012 222.548891,218.79137 C232.539338,234.069457 234.775161,247.067232 251.190059,260.321542 C255.633403,263.884528 268.425703,278.478521 273.208665,281.556942 C287.840566,290.99173 295.849904,307.6095 305.953558,321.88995 C316.057211,336.1704 327.943862,347.971012 339.915417,359.971151 C345.094601,364.047208 360.207628,375.277741 367,383.486862 Z" id="Path" fill="#FFBBAB"></path>
                <path d="M234.561644,274.49786 C231.291592,268.624674 227.41715,263.101412 223,258.016005 C223.520548,255.793123 225.027397,255.305174 228.808219,259.046121 C235,264.928625 243.30137,280.136389 253,281.166505 C247.657534,280.597231 241.60274,280.217714 237.630137,283.877337 C236.872157,284.574991 236.23371,285.389809 235.739726,286.289977 C237.090766,282.375862 236.661041,278.074494 234.561644,274.49786 Z" id="Path" fill="url(#linearGradient-3)"></path>
                <path d="M284,325.427896 C259.879662,331.458235 248.059286,356.171355 235.646481,334.64248 C234.461622,339.517474 217.676124,308.013177 216.491265,312.888171 C218.353186,305.505232 198.492697,319.28484 192.596615,314.466204 C186.700532,309.647568 195.079176,286.456123 188.195711,289.781263 C182.30425,279.300947 180.534036,267.00378 183.230589,255.289977 L186.615899,257.826101 C187.994683,260.417938 189.660133,262.847135 191.581022,265.068144 C197.223206,272.028395 202.86539,278.988647 209.043582,285.385315 C212.25658,289.162047 216.370302,292.069422 221.005013,293.839062 C225.778746,295.488065 231.071327,293.843845 234.066669,289.781263 C234.08603,289.726564 234.08603,289.666888 234.066669,289.612189 C232.852072,292.452262 232.623665,295.616598 233.417818,298.601339 C234.735063,302.829411 237.125961,306.644715 240.357705,309.675748 C251.863503,321.104868 267.837797,326.870592 284,325.427896 Z" id="Path" fill="url(#linearGradient-4)"></path>
                <path d="M249,286.559021 C246.013012,292.903725 240.739877,297.899599 234.226055,300.556153 C237.326026,305.704844 240.788591,310.628445 244.587743,315.289977 C238.067729,311.491855 231.928864,307.079827 226.255526,302.114538 C220.562291,296.986035 213.701942,290.780828 206.101474,292.45255 C200.92063,293.557587 196.252177,298.289411 190.758205,293.897598 C189.131666,292.542168 187.926976,290.753336 187.285332,288.74076 C185.463496,283.073905 183.527796,277.577056 182.019089,271.740195 C181.148522,269.226972 180.640558,266.603525 180.510382,263.948269 C180.510382,262.55989 181.56363,258.706428 178.802411,260.038139 C173.15007,262.782459 168.114707,266.637868 164,271.371849 C165.039819,268.242444 165.848514,265.041593 166.419625,261.794864 C166.729566,258.567323 167.397855,255.383904 168.412257,252.302882 L172.055928,241.8192 C173.215499,238.879545 173.990442,235.803659 174.361688,232.667229 C174.674816,228.190413 169.465506,216.97004 175.784997,214.561627 C179.941058,212.946573 183.983255,218.925105 184.922639,222.155213 C187.996986,232.922237 183.12927,245.219313 187.769257,255.362984 C189.633643,258.742729 191.867564,261.907039 194.430342,264.798297 C199.238579,270.991886 204.379471,276.922392 209.830543,282.563888 C214.2428,287.125707 219.22438,291.800862 225.970864,292.25421 C228.658562,292.499958 231.340895,291.731349 233.485934,290.100806 C238.609846,286.077338 237.442733,279.503786 234.994642,274.403617 C230.183858,264.344949 221.046216,256.836366 216.349297,246.72103 C213.607925,240.623925 212.424634,233.946434 212.904889,227.283717 C212.841247,224.208425 213.846829,221.205659 215.751507,218.783434 C224.889149,209.263117 227.137977,229.663796 227.707301,234.310617 C228.971557,241.756299 231.260909,248.992979 234.510717,255.816332 C235.848627,258.989771 237.784327,262.644892 241.228734,263.098241 L235.905559,265.27998 C237.18389,273.849469 241.911421,281.531916 249,286.559021 L249,286.559021 Z" id="Path" fill="url(#linearGradient-5)"></path>
                <path d="M234.825254,172.583854 C234.216837,180.4011 230.921583,187.760733 225.506099,193.397291 C220.655751,198.22187 217.19954,204.282823 215.507128,210.931899 C215.053916,212.95622 214.798985,215.066075 214.430751,217.289977 L184.660443,217.289977 C184.433837,215.778864 184.292209,214.23924 184.008952,212.756639 C182.735963,206.34342 179.703895,200.417279 175.256311,195.649704 C171.302364,191.551645 168.192938,186.706708 166.10711,181.393925 C162.528674,171.372834 163.543912,160.271004 168.879634,151.075825 C174.215356,141.880647 183.32344,135.536713 193.752992,133.751112 C194.68774,133.751112 195.650813,133.494508 196.585561,133.408973 C207.088676,132.544804 217.430777,136.419519 224.816431,143.985796 C232.202086,151.552074 235.868719,162.02869 234.825254,172.583854 Z" id="Path" fill="#FFFFFF"></path>
                <path d="M227.825427,172.520432 C227.207643,180.342699 223.881751,187.709298 218.41519,193.363396 C213.482661,198.179584 209.978647,204.255003 208.28771,210.922879 C207.799984,212.950072 207.570466,215.06292 207.1975,217.289977 L182.925975,217.289977 C182.696457,215.77672 182.553008,214.234912 182.266111,212.750208 C180.976761,206.327891 177.905725,200.393343 173.400979,195.619004 C169.396216,191.515131 166.246827,186.663322 164.134191,181.343002 C160.509764,171.307694 161.53805,160.190114 166.942348,150.981891 C172.346646,141.773668 181.571788,135.420735 192.135383,133.632601 C193.082145,133.632601 194.057596,133.375633 195.004358,133.289977 C204.612142,134.092148 213.495269,138.695644 219.664447,146.069556 C225.833625,153.443467 228.773396,162.971677 227.825427,172.520432 Z" id="Path" fill="url(#linearGradient-6)"></path>
                <rect id="Rectangle" fill="#5870E0" x="181" y="213.289977" width="38" height="9" rx="1.37"></rect>
                <rect id="Rectangle" fill="#5870E0" x="182" y="222.289977" width="34" height="5" rx="1.22"></rect>
                <rect id="Rectangle" fill="#5870E0" x="184" y="227.289977" width="29" height="5" rx="1.06"></rect>
                <rect id="Rectangle" fill="url(#linearGradient-7)" x="181" y="213.289977" width="38" height="9" rx="1.37"></rect>
                <rect id="Rectangle" fill="url(#linearGradient-8)" x="182" y="222.289977" width="34" height="5" rx="1.22"></rect>
                <rect id="Rectangle" fill="url(#linearGradient-9)" x="184" y="227.289977" width="29" height="5" rx="1.06"></rect>
                <path d="M192.087134,216.98049 C191.86882,211.576174 191.18526,206.201026 190.044119,200.915316 C189.148686,196.528303 188.494674,192.094969 188.085064,187.635523 C187.63728,180.911221 188.952646,176.184515 192.143107,173.230324 C192.674282,172.564727 193.477233,172.177449 194.326054,172.177449 C195.174875,172.177449 195.977827,172.564727 196.509001,173.230324 L196.788866,172.892702 C197.331905,172.203678 198.060489,171.686077 198.887854,171.401539 C199.738837,171.174996 200.644427,171.296383 201.406639,171.739161 C201.940498,172.068591 202.40612,172.498474 202.777978,173.005243 C203.665509,172.432466 204.747436,172.249492 205.772533,172.49881 C207.703602,172.977108 209.018968,174.777758 209.578698,177.731949 C210.473123,184.790789 209.940049,191.958527 208.011454,198.80518 C206.47587,204.600155 205.815474,210.594258 206.052398,216.586598 L203.953411,216.783544 C203.688449,210.575143 204.358362,204.362139 205.940452,198.355017 C207.423737,191.377499 208.739103,184.765738 207.535683,178.153976 C207.283805,176.944165 206.696088,174.890298 205.268776,174.552676 C204.753151,174.430218 204.210054,174.543535 203.785492,174.862163 C203.940411,175.225451 204.062186,175.602133 204.149316,175.987569 C204.656659,178.096581 204.901086,180.260846 204.876965,182.43052 C204.917933,183.113171 204.662742,183.780193 204.177303,184.259305 C203.74174,184.646279 203.135861,184.77451 202.582072,184.596927 C201.621802,184.171301 200.931153,183.298144 200.734963,182.261709 C200.076215,180.295252 199.950632,178.187837 200.371139,176.15638 C200.547794,175.538866 200.832067,174.957773 201.210734,174.440136 C200.989272,174.088471 200.692959,173.790584 200.343152,173.567946 C200.056953,173.445996 199.733783,173.445996 199.447584,173.567946 C199.029669,173.757478 198.66447,174.047324 198.384097,174.412001 C198.228732,174.587415 198.088305,174.775645 197.964299,174.974704 C199.705761,177.343965 200.477044,180.294433 200.11926,183.218304 C199.923355,184.653197 199.055773,186.03182 197.544502,186.03182 C196.484224,185.895603 195.593723,185.164134 195.249609,184.146764 C193.920764,181.304191 193.920764,178.014223 195.249609,175.17165 L195.249609,175.17165 C194.745852,174.693352 194.438,174.580812 194.298068,174.608947 C194.007866,174.696897 193.746755,174.862174 193.542432,175.087244 C190.883715,177.563138 189.736268,181.839681 190.156065,187.804334 C190.560424,192.17899 191.205098,196.527821 192.087134,200.830911 C193.244654,206.247587 193.937531,211.754155 194.158135,217.289977 L192.087134,216.98049 Z M196.872826,176.887894 C196.196895,178.895206 196.296799,181.084686 197.152691,183.021358 C197.376583,183.527791 197.572488,183.668467 197.628461,183.668467 C197.872489,183.398196 198.011573,183.048638 198.020272,182.683736 C198.277981,180.677645 197.874951,178.64191 196.872826,176.887894 L196.872826,176.887894 Z M202.274221,177.112975 C202.136966,178.641593 202.308313,180.182332 202.777978,181.642735 L202.777978,181.642735 C202.745852,180.120661 202.577251,178.604601 202.274221,177.112975 L202.274221,177.112975 Z" id="Shape" fill="#5870E0"></path>
                <path d="M173.832902,252.363424 C173.832902,252.363424 158.579433,285.351827 160.10761,290.779225 C161.821748,295.357536 164.11365,299.698695 166.927806,303.697563 L181.077592,319.838418 C181.077592,319.838418 188.350582,339.201791 193.925598,340.897853 C199.500613,342.593915 207,344.289977 207,344.289977 C207,344.289977 180.341803,306.382994 177.738243,302.058036 C175.134682,297.733079 181.586985,273.394591 183.398157,269.917664 C184.675323,267.860588 185.629697,265.620336 186.228114,263.274755 C186.51111,261.833103 199.642111,250.045473 200.802394,244.278863 C201.962676,238.512252 202.160773,232.971784 199.642111,231.332257 C197.123449,229.692731 194.378391,227.289977 194.378391,227.289977 L176.408163,246.76642 L173.832902,252.363424 Z" id="Path" fill="#FFBBAB"></path>
                <path d="M170.544197,285.092249 C170.050096,287.690777 169.891552,290.339444 170.072266,292.976413 C170.294564,295.415516 170.880833,297.809871 171.81251,300.083671 C174.251427,305.182508 177.596774,309.81965 181.693555,313.780248 C185.351016,317.712739 189.047805,321.549315 192.783922,325.289977 C196.05794,314.067991 192.017035,302.270519 188.949486,290.962211 C185.881938,279.653902 185.085555,269.928182 189.273939,259.310457 C185.144547,258.850068 179.540372,266.273843 177.475676,269.266372 C173.990013,273.974537 171.622269,279.380544 170.544197,285.092249 Z" id="Path" fill="url(#linearGradient-10)"></path>
                <path d="M206.071233,256.289977 C206.071233,256.289977 185.387673,268.864193 184.316862,271.626492 C183.246051,274.388792 176.201241,293.149408 177.074798,302.12688 C177.948354,311.104353 209.170949,348.510489 209.170949,348.510489 C209.170949,348.510489 275.983922,387.067583 288.805475,385.226051 C301.627028,383.384518 317.210146,361.199802 303.937725,347.330757 C290.665304,333.461713 260.682596,327.620601 254.314088,327.016348 C247.94558,326.412095 231.235292,319.362477 220.273569,312.888338 C209.311845,306.414199 198.06833,299.048068 198.06833,299.048068 C198.06833,299.048068 195.250406,284.661092 195.250406,283.423812 C195.250406,282.186532 207.931063,274.590209 209.678175,268.40381 C211.425288,262.21741 210.100864,257.6999 206.071233,256.289977 Z" id="Path" fill="#FFBBAB"></path>
                <path d="M187.996959,244.289977 C188.907148,244.25633 189.799261,244.022507 190.611561,243.604688 C192.087398,242.931776 193.494485,242.113445 194.812551,241.161485 C195.775411,240.660439 196.49875,239.787233 196.819339,238.738915 C197.139929,237.690597 197.030753,236.555507 196.516449,235.58979 C195.777615,233.063979 194.793545,230.618734 193.578694,228.289977 C193.813714,228.736904 190.435296,232.550684 190.02401,233.057202 C188.731398,234.695936 187.350653,236.275079 185.94053,237.824427 C184.530408,239.373775 183.590326,239.790908 184.177877,241.548822 C184.791538,243.158342 186.296244,244.238348 187.996959,244.289977 L187.996959,244.289977 Z" id="Path" fill="#FFFFFF" opacity="0.21"></path>
                <path d="M195.244446,268.988026 C198.568087,269.88069 202.08478,268.760489 204.396785,266.072658 C204.899638,265.631112 205.305685,265.078371 205.58659,264.453008 C205.787206,263.914108 205.910608,263.346321 205.952683,262.768573 C206.146036,260.53634 205.744314,258.291362 204.793387,256.289977 C203.515183,256.5765 202.302426,257.126799 201.223974,257.909626 L196.891867,260.56585 C195.326047,261.254054 193.857819,262.169804 192.529252,263.286861 C190.881831,265.424798 193.444486,268.437345 195.244446,268.988026 Z" id="Path" fill="#FFFFFF" opacity="0.21"></path>
                <path d="M205,344.289977 C206.508226,345.810119 208.18586,347.152226 210,348.289977 L209.24,348.029977 C207.728123,346.899689 206.310165,345.648943 205,344.289977 Z" id="Path" fill="url(#linearGradient-11)"></path>
                <path d="M336,399.76394 C328.188373,402.19386 320.19353,404.041344 312.086511,405.289977 L311.655378,405.289977 C306.079397,400.703367 299.928571,394.237904 295.67473,391.115694 C295.214855,390.784132 294.812464,390.4802 294.410074,390.231528 C282.309619,382.356927 267.708594,377.245343 254.515936,371.249594 C247.905236,368.237904 241.495731,364.894652 235,361.661921 C250.003415,367.436629 265.035572,373.073186 280.383893,377.853207 C285.5,379.455758 291.44963,380.864897 295.962151,378.018988 C298.479963,376.142128 300.458418,373.679151 301.710586,370.862771 C304.872225,365.032803 307.688958,358.843643 311.28173,353.289977 C312.747581,355.30698 310.534434,358.40156 309.95959,360.611974 C309.085956,363.913017 308.823273,367.336074 309.183552,370.724621 C310.094497,378.667336 314.302175,385.920239 320.852874,390.839392 C325.451622,394.265534 331.200057,396.420689 336,399.76394 Z" id="Path" fill="url(#linearGradient-12)"></path>
                <path d="M110.729315,251.289977 C108.004056,250.671243 105.398275,249.604071 103.016438,248.131242 L108.856986,238.542227 C110.200176,239.358834 111.661681,239.958345 113.188493,240.319015 L110.729315,251.289977 Z M125.093151,250.387481 L121.292603,239.811362 C122.768929,239.271205 124.147287,238.489918 125.372603,237.498717 L132.330959,246.269845 C130.161233,248.037859 127.715262,249.429388 125.093151,250.387481 L125.093151,250.387481 Z M93.3473973,237.357702 C92.1211887,234.821318 91.327595,232.094395 91,229.291648 L102.178082,227.909702 C102.384086,229.485409 102.836853,231.018076 103.519452,232.450382 L93.3473973,237.357702 Z M140.60274,234.368185 L130.067397,230.786406 C130.557854,229.27475 130.812402,227.695314 130.821918,226.104711 L142,226.104711 L142,226.104711 C141.986656,228.917916 141.514593,231.709723 140.60274,234.368185 L140.60274,234.368185 Z M103.351781,219.815445 L93.3194521,214.936328 C94.5279106,212.409144 96.1320395,210.095032 98.070137,208.083003 L106.034521,215.923433 C104.948287,217.07465 104.043513,218.38726 103.351781,219.815445 L103.351781,219.815445 Z M128.502466,218.179672 C127.639013,216.853316 126.573261,215.67303 125.344658,214.682502 L132.275068,205.88317 C134.456468,207.623748 136.343949,209.709605 137.86411,212.059624 L128.502466,218.179672 Z M113.132603,211.918609 L110.617534,200.947648 C113.366302,200.322081 116.196091,200.141208 119.001096,200.411791 L117.939178,211.692985 C116.335583,211.501228 114.711638,211.577457 113.132603,211.918609 L113.132603,211.918609 Z" id="Shape" fill="#FFFFFF"></path>
                <path d="M287.38636,204.289977 C284.989524,203.778102 282.6983,202.884862 280.607141,201.647078 L282.331166,198.835484 C284.135459,199.899336 286.110137,200.668842 288.175321,201.112875 L287.38636,204.289977 Z M300.097396,203.446498 L298.957786,200.634904 C300.917492,199.990904 302.753709,199.041017 304.39285,197.82331 L306.467525,200.325629 C304.539087,201.699207 302.38622,202.753945 300.097396,203.446498 L300.097396,203.446498 Z M272.074675,192.481281 C271.019712,190.3407 270.319672,188.054351 270,185.705339 L273.301947,185.311716 C273.580314,187.265649 274.182089,189.164082 275.084414,190.934904 L272.074675,192.481281 Z M313.801939,189.978962 L310.675316,188.966788 C311.329111,187.042309 311.664373,185.03089 311.668822,183.006208 L314.999995,183.006208 L314.999995,183.006208 C315.001628,185.407877 314.586844,187.792983 313.772718,190.06331 L313.801939,189.978962 Z M275.055194,175.021281 L272.133116,173.6436 C273.200641,171.506549 274.621731,169.550466 276.340908,167.851716 L278.737011,170.072875 C277.212025,171.535579 275.957071,173.237494 275.025973,175.105629 L275.055194,175.021281 Z M308.57142,172.940701 C307.431121,171.248202 306.009596,169.747445 304.363629,168.498382 L306.438304,165.996063 C308.363928,167.463565 310.031378,169.219865 311.376615,171.197513 L308.57142,172.940701 Z M288.116879,164.955774 L287.357139,161.834904 C289.763091,161.321149 292.237278,161.169395 294.691553,161.385049 L294.253242,164.674614 C292.181301,164.475827 290.089612,164.599241 288.058438,165.040121 L288.116879,164.955774 Z" id="Shape" fill="#5870E0"></path>
                <path d="M84.8977505,109.712832 L80.8323108,109.712832 L79,112.325912 L89.0204499,141.66626 L91.8834356,143.200024 C91.8834356,143.200024 109.548057,142.177515 123.376278,150.812041 C125.23016,151.806982 127.309584,152.315387 129.417178,152.288999 C131.793456,151.862954 140.869121,148.710215 140.869121,148.710215 C140.869121,148.710215 144.848671,142.717173 148.141104,138.769149 C152.790618,134.252029 157.75594,130.066365 163,126.243405 C163,126.243405 156.300613,88.4673531 154.725971,86.0530941 C153.151329,83.6388351 151.290389,84.4057174 151.290389,84.4057174 L121.02863,110.53652 L84.8977505,109.712832 Z" id="Path" fill="#5870E0"></path>
                <path d="M149.701175,95.1700333 C150.830177,98.4099081 151.598476,101.764852 151.99209,105.173807 L154.82038,123.509336 C155.059873,124.438739 155.059873,125.413863 154.82038,126.343266 C154.184516,127.552162 153.19858,128.540064 151.99209,129.177196 C148.523753,131.668113 145.63014,134.876764 143.50722,138.585845 C141.131457,142.723383 139.095088,147.994493 134.456692,149.099726 C131.628403,149.808208 127.979909,148.53294 125.46273,150.289977 C116.147695,144.429651 105.349978,141.370753 94.3515412,141.476453 L84.9333357,115.772706 C84.3192027,114.389979 84.0012499,112.893586 84,111.380114 C84.1979803,108.206112 87.082836,105.372182 86.3191977,102.283198 C100.21487,107.619385 114.914217,110.551701 129.790014,110.955025 C130.676234,111.17807 131.615586,110.987954 132.345926,110.437731 C133.076265,109.887508 133.519391,109.036096 133.55164,108.121095 C134.456692,104.380307 135.276897,100.639519 136.040535,96.7853735 C136.57791,94.1214791 136.493061,86.1864744 138.218318,84.2877411 C142.291056,79.86681 148.230464,91.3442274 149.701175,95.1700333 Z" id="Path" fill="#FFFFFF"></path>
                <path d="M149.701175,95.1700333 C150.830177,98.4099081 151.598476,101.764852 151.99209,105.173807 L154.82038,123.509336 C155.059873,124.438739 155.059873,125.413863 154.82038,126.343266 C154.184516,127.552162 153.19858,128.540064 151.99209,129.177196 C148.523753,131.668113 145.63014,134.876764 143.50722,138.585845 C141.131457,142.723383 139.095088,147.994493 134.456692,149.099726 C131.628403,149.808208 127.979909,148.53294 125.46273,150.289977 C116.147695,144.429651 105.349978,141.370753 94.3515412,141.476453 L84.9333357,115.772706 C84.3192027,114.389979 84.0012499,112.893586 84,111.380114 C84.1979803,108.206112 87.082836,105.372182 86.3191977,102.283198 C100.21487,107.619385 114.914217,110.551701 129.790014,110.955025 C130.676234,111.17807 131.615586,110.987954 132.345926,110.437731 C133.076265,109.887508 133.519391,109.036096 133.55164,108.121095 C134.456692,104.380307 135.276897,100.639519 136.040535,96.7853735 C136.57791,94.1214791 136.493061,86.1864744 138.218318,84.2877411 C142.291056,79.86681 148.230464,91.3442274 149.701175,95.1700333 Z" id="Path" fill="url(#linearGradient-13)"></path>
                <path d="M85,101.758672 C90.3799314,112.569455 94.6856341,123.871167 97.8565137,135.504759 C97.9110462,136.345873 98.3959482,137.101301 99.1424709,137.508151 C99.8889936,137.915001 100.793886,137.917001 101.542241,137.513455 C111.966601,135.903932 122.593157,138.728798 130.795888,145.289977 C134.95624,136.73655 140.773713,129.073503 147.918559,122.735194 C148.466529,122.363346 148.850531,121.79894 148.992354,121.156933 C149.022584,120.784944 148.962899,120.411181 148.818225,120.066498 C144.512241,106.863111 142.013543,93.1490984 141.388727,79.2899766 C131.463382,86.5212809 120.725436,95.0725853 119.013169,107.153455 C108.21718,103.279542 96.5795688,99.9221505 85,101.758672 Z" id="Path" fill="#FFFFFF"></path>
                <path d="M130.141907,87.1689457 L135.685144,82.2899766 L144,120.60843 C144,120.60843 128.645233,135.644786 130.141907,144.289977 L119,106.370971 C119,106.370971 124.543237,92.0479149 130.141907,87.1689457 Z" id="Path" fill="#5870E0" opacity="0.3"></path>
                <path d="M120.12144,107.153455 L130.969149,145.289977 C130.969149,145.289977 136.312848,120.496933 140,112.289977 L127.762929,79.2899766 C127.762929,79.2899766 118.86567,95.7612809 120.12144,107.153455 Z" id="Path" fill="#FFFFFF"></path>
                <path d="M278.444207,119.580076 C279.357109,118.870154 280.446822,118.423987 281.595126,118.289977 C282.228319,118.32099 282.854515,118.436693 283.457033,118.634003 L317,128.639441 C307.83369,140.967058 292.336896,146.815509 281.509192,157.709682 C281.005061,158.279579 280.403713,158.755238 279.733219,159.114457 C278.108815,159.509973 276.393627,159.230761 274.978196,158.340398 C269.306143,155.764476 263.246936,154.146678 257.046601,153.552695 C254.55451,153.294675 250.057289,154.326755 250,151.717887 C250,149.682397 253.208209,145.984112 254.296708,144.149304 C260.55483,134.370943 268.778479,126.003671 278.444207,119.580076 L278.444207,119.580076 Z" id="Path" fill="#FFFFFF"></path>
                <path d="M280.052316,214.289977 C284.43061,223.327619 290.139465,231.700342 297,239.145797 C294.639327,241.100479 291.852318,242.510403 288.848692,243.269474 C280.195262,246.359772 272.2832,251.130641 265.596939,257.289977 C262.664814,252.000294 249.646178,234.538654 252.373054,229.163654 C253.663189,226.661008 280.697384,215.626617 280.052316,214.289977 Z" id="Path" fill="#FFFFFF"></path>
                <path d="M102.767142,264.289977 C111.143597,264.804346 119.520053,265.632401 127.896508,266.831652 C128.658392,266.868276 129.394373,267.125759 130.018543,267.574046 C130.531136,268.116023 130.896818,268.785213 131.079561,269.515691 C134.812923,280.730364 140.550338,291.138524 148,300.210815 C139.623545,305.464678 115.415589,316.372155 107.346271,305.921536 C104.274904,301.809817 100.310049,264.147613 102.767142,264.289977 Z" id="Path" fill="#FFFFFF"></path>
            </g>
        </g>
    </g>
</svg>