<?xml version="1.0" encoding="utf-8"?>
<!-- Generator: Adobe Illustrator 24.0.3, SVG Export Plug-In . SVG Version: 6.00 Build 0)  -->
<svg version="1.1" id="Layer_1" xmlns="http://www.w3.org/2000/svg" xmlns:xlink="http://www.w3.org/1999/xlink" x="0px" y="0px"
	 viewBox="0 0 301.7 306" style="enable-background:new 0 0 301.7 306;" xml:space="preserve">
<style type="text/css">
	.st0{opacity:0.18;fill:#586FE0;enable-background:new    ;}
	.st1{fill:#586FE0;}
	.st2{fill:url(#SVGID_1_);}
	.st3{fill:url(#SVGID_2_);}
	.st4{fill:#FFBBAB;}
	.st5{fill:url(#SVGID_3_);}
	.st6{fill:url(#SVGID_4_);}
	.st7{fill:url(#SVGID_5_);}
	.st8{fill:#FFFFFF;}
	.st9{fill:url(#SVGID_6_);}
	.st10{fill:url(#SVGID_7_);}
	.st11{fill:url(#SVGID_8_);}
	.st12{fill:url(#SVGID_9_);}
	.st13{fill:url(#SVGID_10_);}
	.st14{opacity:0.21;fill:#FFFFFF;enable-background:new    ;}
	.st15{fill:url(#SVGID_11_);}
	.st16{fill:url(#SVGID_12_);}
	.st17{fill:url(#SVGID_13_);}
	.st18{opacity:0.3;fill:#586FE0;enable-background:new    ;}
</style>
<title>13</title>
<path class="st0" d="M283.7,211.8c-4.7,10.3-8,21.4-9.9,33.1c-2.4,17.2-9.7,32.6-20.6,43.2c-5.5,5.2-11.7,9.2-18.3,11.9
	c-4.2,1.7-8.6,3.1-12.9,4h-0.2c-19.6,4-44,2.5-63-4.7c-11.2-4.3-20.1-10.5-32.2-11.9c-18.3-2.2-36,0.3-54.2-5
	C-25.3,253.9-8.9,136.9,41,98.8c18.8-14.3,41.6-19.3,58.6-35.9c6.2-6.1,10-16.6,15.1-24.1c10-14.6,23.3-27.2,37.7-33.7
	c39.9-17.9,80.7,14.5,110.6,45.5C319.9,109.8,298.2,180.3,283.7,211.8z"/>
<polygon class="st1" points="140.5,176.2 140.5,52.7 127.8,52.7 154.7,21.4 185.4,53 171.6,53 171.6,205.8 "/>
<linearGradient id="SVGID_1_" gradientUnits="userSpaceOnUse" x1="65.0568" y1="193.131" x2="171.9068" y2="203.401" gradientTransform="matrix(1.9828 0 0 -1.9828 -59.414 505.5011)">
	<stop  offset="1.000000e-02" style="stop-color:#000000"/>
	<stop  offset="0.13" style="stop-color:#000000;stop-opacity:0.69"/>
	<stop  offset="0.25" style="stop-color:#000000;stop-opacity:0.32"/>
	<stop  offset="1" style="stop-color:#000000;stop-opacity:0"/>
</linearGradient>
<polygon class="st2" points="140.5,176.2 140.5,52.7 127.8,52.7 154.7,21.4 185.4,53 171.6,53 171.6,205.8 "/>
<polygon class="st1" points="117.2,178.9 117.2,90.4 104.6,90.4 131.5,59.1 162.1,90.8 148.4,90.8 148.4,179.7 "/>
<polygon class="st1" points="107,223.8 107,123.9 97.7,123.9 117.5,100.8 140,124.1 129.9,124.1 129.9,189.6 "/>
<linearGradient id="SVGID_2_" gradientUnits="userSpaceOnUse" x1="144.2671" y1="170.9585" x2="-30.9329" y2="177.3785" gradientTransform="matrix(1.9828 0 0 -1.9828 -59.414 505.5011)">
	<stop  offset="1.000000e-02" style="stop-color:#000000"/>
	<stop  offset="0.13" style="stop-color:#000000;stop-opacity:0.69"/>
	<stop  offset="0.25" style="stop-color:#000000;stop-opacity:0.32"/>
	<stop  offset="1" style="stop-color:#000000;stop-opacity:0"/>
</linearGradient>
<polygon class="st3" points="107,223.8 107,123.9 97.7,123.9 117.5,100.8 140,124.1 129.9,124.1 129.9,189.6 "/>
<path class="st4" d="M253.6,287.8c-6.5,6-13.7,10.8-22.1,13.4c-5.4,1.7-10.9,3.1-16.5,4c-4-3.5-9.3-9.1-12.2-11.3
	c-0.3-0.2-0.6-0.5-0.9-0.6c-8.3-5.7-18.4-9.3-27.5-13.6c-4.6-2.2-9-4.6-13.5-6.9c-5.5-3-11.2-5.6-17-7.7l-1-0.3l-0.8-0.3
	c-3.9-1-7.6-2.8-10.9-5.3c-3.3-2.8-5.1-6.9-7.1-10.7c-3.1-5.8-4.2-13.5-10.4-15.9c-2.8-1.1-3.7-4.5-4-7.4
	c-0.6-8.6-0.1-17.2,1.3-25.6c1.1-8.3,2.2-16.6,3.4-24.9c0.1-1,0.4-2,0.8-2.9c1.5-2,4.2-2.5,6.3-1.3c2,1.3,3.4,3.3,4,5.6
	c2.1,7.6-1.2,16.2,2,23.3v0.1c1,1.8,2.1,3.5,3.5,5.1c4,4.9,7.9,9.9,12.3,14.3c2.2,2.7,5.1,4.7,8.4,5.9c3.4,1.2,7.1,0.1,9.2-2.9l0,0
	l0.3-0.5c1-2.9,0.7-6-0.9-8.6c-2.4-4.3-5.2-8.3-8.4-12c-1.8-2.3-3.3-4.7-4.6-7.3c-1.9-4.3-2.8-8.9-2.4-13.6c0-2.2,0.7-4.2,2-5.9
	c1.5-1.6,4.6-2.1,5.8-0.3c7,10.6,8.6,19.7,20.1,28.9c3.1,2.5,12.1,12.6,15.4,14.8c10.3,6.6,15.9,18.1,22.9,28.1
	c7.1,9.9,15.4,18.1,23.8,26.5C238.6,274.7,248.9,282.1,253.6,287.8z"/>
<linearGradient id="SVGID_3_" gradientUnits="userSpaceOnUse" x1="121.5661" y1="137.5585" x2="130.0561" y2="148.6085" gradientTransform="matrix(1.9828 0 0 -1.9828 -86.7761 492.9701)">
	<stop  offset="1.000000e-02" style="stop-color:#000000"/>
	<stop  offset="8.000000e-02" style="stop-color:#000000;stop-opacity:0.69"/>
	<stop  offset="0.21" style="stop-color:#000000;stop-opacity:0.32"/>
	<stop  offset="1" style="stop-color:#000000;stop-opacity:0"/>
</linearGradient>
<path class="st5" d="M160.6,212.5c-2.4-4.3-5.2-8.3-8.4-12.1c0.4-1.6,1.5-2,4.2,0.8c4.5,4.3,10.5,15.4,17.5,16.2
	c-3.9-0.4-8.2-0.7-11.1,2c-0.5,0.5-1,1.1-1.4,1.8C162.4,218.3,162.1,215.1,160.6,212.5z"/>
<linearGradient id="SVGID_4_" gradientUnits="userSpaceOnUse" x1="132.156" y1="184.5363" x2="111.736" y2="50.4163" gradientTransform="matrix(1.9828 0 0 -1.9828 -86.7761 492.9701)">
	<stop  offset="1.000000e-02" style="stop-color:#000000"/>
	<stop  offset="8.000000e-02" style="stop-color:#000000;stop-opacity:0.69"/>
	<stop  offset="0.21" style="stop-color:#000000;stop-opacity:0.32"/>
	<stop  offset="1" style="stop-color:#000000;stop-opacity:0"/>
</linearGradient>
<path class="st6" d="M196.2,247c-17,4.2-25.3,21.6-34,6.5c-0.8,3.4-12.6-18.7-13.5-15.3c1.3-5.2-12.7,4.5-16.8,1.1
	c-4.1-3.4,1.7-19.7-3.1-17.4c-4.1-7.4-5.4-16-3.5-24.3l2.4,1.8c1,1.8,2.1,3.5,3.5,5.1c4,4.9,7.9,9.8,12.3,14.3
	c2.3,2.7,5.1,4.7,8.4,5.9c3.4,1.2,7.1,0,9.2-2.9c0,0,0-0.1,0-0.1c-0.9,2-1,4.2-0.5,6.3c0.9,3,2.6,5.7,4.9,7.8
	C173.6,244,184.9,248,196.2,247z"/>
<linearGradient id="SVGID_5_" gradientUnits="userSpaceOnUse" x1="116.3606" y1="168.3781" x2="114.6706" y2="139.2381" gradientTransform="matrix(1.9828 0 0 -1.9828 -86.7761 492.9701)">
	<stop  offset="1.000000e-02" style="stop-color:#000000"/>
	<stop  offset="8.000000e-02" style="stop-color:#000000;stop-opacity:0.69"/>
	<stop  offset="0.21" style="stop-color:#000000;stop-opacity:0.32"/>
	<stop  offset="1" style="stop-color:#000000;stop-opacity:0"/>
</linearGradient>
<path class="st7" d="M170.3,221c-2.1,4.4-5.8,7.9-10.3,9.8c2.2,3.6,4.6,7,7.2,10.3c-4.5-2.7-8.8-5.7-12.8-9.2c-4-3.6-8.7-7.9-14-6.8
	c-3.6,0.8-6.9,4.1-10.7,1c-1.1-0.9-2-2.2-2.4-3.6c-1.3-4-2.6-7.8-3.7-11.9c-0.6-1.8-1-3.6-1.1-5.5c0-1,0.7-3.7-1.2-2.7
	c-3.9,1.9-7.4,4.6-10.3,7.9c0.7-2.2,1.3-4.4,1.7-6.7c0.2-2.3,0.7-4.5,1.4-6.6l2.5-7.3c0.8-2.1,1.3-4.2,1.6-6.4
	c0.2-3.1-3.4-11,1-12.7c2.9-1.1,5.7,3.1,6.4,5.3c2.1,7.5-1.2,16.1,2,23.2c1.3,2.4,2.9,4.6,4.6,6.6c3.3,4.3,6.9,8.5,10.7,12.4
	c3.1,3.2,6.5,6.5,11.2,6.8c1.9,0.2,3.7-0.4,5.2-1.5c3.6-2.8,2.8-7.4,1.1-11c-3.4-7-9.7-12.3-13-19.4c-1.9-4.3-2.7-8.9-2.4-13.6
	c0-2.2,0.7-4.3,2-5.9c6.4-6.7,7.9,7.6,8.3,10.9c0.9,5.2,2.5,10.3,4.7,15c0.9,2.2,2.3,4.8,4.7,5.1l-3.7,1.5
	C162,212.1,165.3,217.4,170.3,221z"/>
<path class="st8" d="M160.5,140.1c-0.4,5.4-2.7,10.6-6.5,14.5c-3.4,3.4-5.8,7.6-7,12.2c-0.3,1.4-0.5,2.9-0.8,4.4h-20.8
	c-0.2-1.1-0.3-2.1-0.5-3.2c-0.9-4.5-3-8.6-6.1-11.9c-2.8-2.8-4.9-6.2-6.4-9.9c-4.7-13,2.1-27.3,15.1-32c1.4-0.5,2.8-0.9,4.3-1.1
	c0.7,0,1.3-0.2,2-0.2c13.7-1.1,25.7,9.1,26.8,22.8C160.7,137.1,160.7,138.7,160.5,140.1z"/>
<linearGradient id="SVGID_6_" gradientUnits="userSpaceOnUse" x1="147.6819" y1="152.6198" x2="91.2719" y2="189.5798" gradientTransform="matrix(1.9828 0 0 -1.9828 -86.7761 492.9701)">
	<stop  offset="1.000000e-02" style="stop-color:#000000"/>
	<stop  offset="0.13" style="stop-color:#000000;stop-opacity:0.69"/>
	<stop  offset="0.25" style="stop-color:#000000;stop-opacity:0.32"/>
	<stop  offset="1" style="stop-color:#000000;stop-opacity:0"/>
</linearGradient>
<path class="st9" d="M156.4,140.1c-0.4,5.4-2.7,10.5-6.5,14.5c-3.4,3.3-5.8,7.6-7,12.2c-0.3,1.4-0.5,2.9-0.8,4.4h-16.8
	c-0.2-1.1-0.3-2.1-0.5-3.2c-0.9-4.5-3-8.6-6.1-11.9c-2.8-2.8-4.9-6.2-6.4-9.9c-4.7-13,2.1-27.3,15.1-32c1.4-0.5,2.8-0.9,4.3-1.1
	c0.7,0,1.3-0.2,2-0.2c13.7,1.1,23.9,13.2,22.7,26.9C156.5,139.9,156.5,140,156.4,140.1z"/>
<path class="st1" d="M126.1,171.2h20.7c1.5,0,2.7,1.2,2.7,2.7v0c0,1.5-1.2,2.7-2.7,2.7h-20.7c-1.5,0-2.7-1.2-2.7-2.7v0
	C123.4,172.4,124.6,171.2,126.1,171.2z"/>
<path class="st1" d="M126.7,175.7h18.5c1.3,0,2.4,1.1,2.4,2.4v0c0,1.3-1.1,2.4-2.4,2.4h-18.5c-1.3,0-2.4-1.1-2.4-2.4v0
	C124.3,176.8,125.3,175.7,126.7,175.7z"/>
<path class="st1" d="M127.9,179.7h16c1.2,0,2.1,0.9,2.1,2.1v0c0,1.2-0.9,2.1-2.1,2.1h-16c-1.2,0-2.1-0.9-2.1-2.1v0
	C125.8,180.6,126.8,179.7,127.9,179.7z"/>
<linearGradient id="SVGID_7_" gradientUnits="userSpaceOnUse" x1="98.7724" y1="172.5177" x2="98.7424" y2="162.1777" gradientTransform="matrix(1.9828 0 0 -1.9828 -59.414 505.5011)">
	<stop  offset="1.000000e-02" style="stop-color:#000000"/>
	<stop  offset="0.13" style="stop-color:#000000;stop-opacity:0.69"/>
	<stop  offset="0.25" style="stop-color:#000000;stop-opacity:0.32"/>
	<stop  offset="1" style="stop-color:#000000;stop-opacity:0"/>
</linearGradient>
<path class="st10" d="M126.1,171.2h20.7c1.5,0,2.7,1.2,2.7,2.7v0c0,1.5-1.2,2.7-2.7,2.7h-20.7c-1.5,0-2.7-1.2-2.7-2.7v0
	C123.4,172.4,124.6,171.2,126.1,171.2z"/>
<linearGradient id="SVGID_8_" gradientUnits="userSpaceOnUse" x1="98.8246" y1="169.9978" x2="98.1746" y2="159.4778" gradientTransform="matrix(1.9828 0 0 -1.9828 -59.414 505.5011)">
	<stop  offset="1.000000e-02" style="stop-color:#000000"/>
	<stop  offset="0.13" style="stop-color:#000000;stop-opacity:0.69"/>
	<stop  offset="0.25" style="stop-color:#000000;stop-opacity:0.32"/>
	<stop  offset="1" style="stop-color:#000000;stop-opacity:0"/>
</linearGradient>
<path class="st11" d="M126.7,175.7h18.5c1.3,0,2.4,1.1,2.4,2.4v0c0,1.3-1.1,2.4-2.4,2.4h-18.5c-1.3,0-2.4-1.1-2.4-2.4v0
	C124.3,176.8,125.3,175.7,126.7,175.7z"/>
<linearGradient id="SVGID_9_" gradientUnits="userSpaceOnUse" x1="98.688" y1="167.1476" x2="98.328" y2="158.7176" gradientTransform="matrix(1.9828 0 0 -1.9828 -59.414 505.5011)">
	<stop  offset="1.000000e-02" style="stop-color:#000000"/>
	<stop  offset="0.13" style="stop-color:#000000;stop-opacity:0.69"/>
	<stop  offset="0.25" style="stop-color:#000000;stop-opacity:0.32"/>
	<stop  offset="1" style="stop-color:#000000;stop-opacity:0"/>
</linearGradient>
<path class="st12" d="M127.9,179.7h16c1.2,0,2.1,0.9,2.1,2.1v0c0,1.2-0.9,2.1-2.1,2.1h-16c-1.2,0-2.1-0.9-2.1-2.1v0
	C125.8,180.6,126.8,179.7,127.9,179.7z"/>
<path class="st1" d="M130.6,171.1c-0.2-3.8-0.6-7.6-1.4-11.3c-0.6-3.1-1.1-6.2-1.4-9.4c-0.3-4.7,0.6-8.1,2.9-10.2
	c0.7-0.9,1.9-1,2.8-0.3c0.1,0.1,0.2,0.2,0.3,0.3l0.2-0.2c0.4-0.5,0.9-0.9,1.5-1.1c0.6-0.2,1.2-0.1,1.8,0.2c0.4,0.2,0.7,0.5,1,0.9
	c0.6-0.4,1.4-0.5,2.1-0.4c1.4,0.3,2.3,1.6,2.7,3.7c0.6,5,0.3,10-1.1,14.9c-1.1,4.1-1.6,8.3-1.4,12.5l-1.5,0.1
	c-0.2-4.4,0.3-8.8,1.4-13c1.1-4.9,2-9.6,1.1-14.2c-0.2-0.9-0.6-2.3-1.6-2.5c-0.4-0.1-0.8,0-1.1,0.2c0.1,0.3,0.2,0.5,0.3,0.8
	c0.4,1.5,0.5,3,0.5,4.5c0,0.5-0.2,1-0.5,1.3c-0.3,0.3-0.7,0.4-1.1,0.2c-0.7-0.3-1.2-0.9-1.3-1.6c-0.5-1.4-0.6-2.9-0.3-4.3
	c0.1-0.4,0.3-0.8,0.6-1.2c-0.2-0.2-0.4-0.5-0.6-0.6c-0.2-0.1-0.4-0.1-0.6,0c-0.3,0.1-0.6,0.3-0.8,0.6c-0.1,0.1-0.2,0.3-0.3,0.4
	c1.2,1.7,1.8,3.7,1.5,5.8c-0.1,1-0.8,2-1.8,2c-0.8-0.1-1.4-0.6-1.6-1.3c-0.9-2-0.9-4.3,0-6.3l0,0c-0.4-0.3-0.6-0.4-0.7-0.4
	c-0.2,0.1-0.4,0.2-0.5,0.3c-1.9,1.7-2.7,4.8-2.4,9c0.3,3.1,0.7,6.1,1.4,9.2c0.8,3.8,1.3,7.7,1.5,11.6L130.6,171.1z M134,142.8
	c-0.5,1.4-0.4,3,0.2,4.3c0.2,0.4,0.3,0.5,0.3,0.5c0.2-0.2,0.3-0.4,0.3-0.7C135,145.5,134.7,144.1,134,142.8z M137.9,143
	c-0.1,1.1,0,2.2,0.4,3.2l0,0C138.2,145.1,138.1,144,137.9,143z"/>
<path class="st4" d="M117.2,196.9c0,0-10.7,23.1-9.6,26.9c1.2,3.2,2.8,6.3,4.8,9.1l9.9,11.3c0,0,5.1,13.6,9,14.8
	c3.9,1.2,9.2,2.4,9.2,2.4s-18.7-26.6-20.5-29.6c-1.8-3,2.7-20.1,4-22.5c0.9-1.4,1.6-3,2-4.7c0.2-1,9.4-9.3,10.2-13.3s1-7.9-0.8-9.1
	s-3.7-2.8-3.7-2.8L119,193L117.2,196.9z"/>
<linearGradient id="SVGID_10_" gradientUnits="userSpaceOnUse" x1="115.4557" y1="134.1959" x2="88.5657" y2="138.9759" gradientTransform="matrix(1.9828 0 0 -1.9828 -86.7761 492.9701)">
	<stop  offset="1.000000e-02" style="stop-color:#000000"/>
	<stop  offset="8.000000e-02" style="stop-color:#000000;stop-opacity:0.69"/>
	<stop  offset="0.21" style="stop-color:#000000;stop-opacity:0.32"/>
	<stop  offset="1" style="stop-color:#000000;stop-opacity:0"/>
</linearGradient>
<path class="st13" d="M115.4,219.6c-0.3,1.8-0.4,3.6-0.3,5.4c0.1,1.7,0.5,3.3,1.2,4.9c1.6,3.5,3.9,6.7,6.6,9.4
	c2.5,2.7,4.9,5.4,7.5,7.9c2.2-7.7-0.5-15.9-2.6-23.7c-2.1-7.8-2.6-14.5,0.2-21.8c-2.8-0.3-6.5,4.8-7.9,6.9
	C117.7,212,116.1,215.7,115.4,219.6z"/>
<path class="st4" d="M139.3,198.7c0,0-14.6,8.7-15.3,10.6c-0.8,1.9-5.7,14.8-5.1,21c0.6,6.2,22.6,32,22.6,32s47,26.6,56,25.3
	c9-1.3,20-16.6,10.6-26.1s-30.4-13.6-34.9-14c-4.5-0.4-16.2-5.3-24-9.7c-7.7-4.5-15.6-9.5-15.6-9.5s-2-9.9-2-10.8
	c0-0.9,8.9-6.1,10.2-10.4C143.1,202.7,142.1,199.6,139.3,198.7z"/>
<path class="st14" d="M127.3,190.3c0.6,0,1.2-0.2,1.8-0.5c1-0.4,1.9-1,2.8-1.6c1.3-0.7,1.9-2.3,1.2-3.7c0,0,0,0,0-0.1
	c-0.5-1.7-1.2-3.3-2-4.9c0.2,0.3-2.1,2.8-2.4,3.2c-0.9,1.1-1.8,2.1-2.8,3.2c-1,1-1.6,1.3-1.2,2.5
	C125.2,189.6,126.2,190.3,127.3,190.3z"/>
<path class="st14" d="M133,207.6c2.2,0.5,4.4-0.1,5.9-1.8c0.3-0.3,0.6-0.6,0.8-1c0.1-0.3,0.2-0.7,0.2-1c0.1-1.4-0.1-2.7-0.8-4
	c-0.8,0.2-1.6,0.5-2.3,1l-2.8,1.6c-1,0.4-2,1-2.8,1.7C130.1,205.4,131.8,207.2,133,207.6z"/>
<linearGradient id="SVGID_11_" gradientUnits="userSpaceOnUse" x1="114.3554" y1="115.6929" x2="115.0354" y2="116.8629" gradientTransform="matrix(1.9828 0 0 -1.9828 -86.7761 492.9701)">
	<stop  offset="1.000000e-02" style="stop-color:#000000"/>
	<stop  offset="8.000000e-02" style="stop-color:#000000;stop-opacity:0.69"/>
	<stop  offset="0.21" style="stop-color:#000000;stop-opacity:0.32"/>
	<stop  offset="1" style="stop-color:#000000;stop-opacity:0"/>
</linearGradient>
<path class="st15" d="M138,260.6c1.5,1.5,3.2,2.8,5,4l-0.8-0.3C140.7,263.2,139.3,262,138,260.6z"/>
<linearGradient id="SVGID_12_" gradientUnits="userSpaceOnUse" x1="136.7881" y1="93.5854" x2="158.0398" y2="130.3651" gradientTransform="matrix(1.9828 0 0 -1.9828 -86.7761 492.9701)">
	<stop  offset="1.000000e-02" style="stop-color:#000000"/>
	<stop  offset="8.000000e-02" style="stop-color:#000000;stop-opacity:0.69"/>
	<stop  offset="0.21" style="stop-color:#000000;stop-opacity:0.32"/>
	<stop  offset="1" style="stop-color:#000000;stop-opacity:0"/>
</linearGradient>
<path class="st16" d="M231.5,301.2c-5.4,1.7-10.9,3.1-16.5,4h-0.3c-3.8-3.3-8.9-9.2-11.9-11.4c-0.3-0.2-0.6-0.5-0.9-0.6
	c-8.3-5.7-18.4-9.3-27.5-13.6c-4.6-2.2-9-4.6-13.5-6.9c10.4,4.1,20.7,8.2,31.3,11.6c3.5,1.1,7.6,2.2,10.7,0.1c1.7-1.3,3.1-3.1,4-5.1
	c2.2-4.2,4.1-8.6,6.6-12.6c1,1.4-0.5,3.7-0.9,5.3c-0.6,2.4-0.8,4.8-0.5,7.3c0.6,5.7,3.5,10.9,8.1,14.4
	C223.4,296,228.2,298.8,231.5,301.2z"/>
<path class="st8" d="M73.2,196.1c-1.9-0.4-3.8-1.2-5.5-2.2l4.1-6.7c1,0.6,2,1,3.1,1.2L73.2,196.1z M83.4,195.4l-2.7-7.4
	c1-0.4,2-0.9,2.9-1.6l4.9,6.2C87,193.8,85.3,194.8,83.4,195.4z M60.9,186.3c-0.9-1.8-1.4-3.7-1.7-5.7l7.9-1c0.1,1.1,0.5,2.2,1,3.2
	L60.9,186.3z M94.4,184.2l-7.5-2.5c0.3-1.1,0.5-2.2,0.5-3.3h7.9l0,0C95.4,180.3,95.1,182.3,94.4,184.2L94.4,184.2z M68,173.9
	l-7.1-3.4c0.9-1.8,2-3.4,3.4-4.8l5.7,5.5C69.1,172,68.5,172.9,68,173.9z M85.8,172.8c-0.6-0.9-1.4-1.8-2.2-2.5l4.9-6.2
	c1.5,1.2,2.9,2.7,4,4.3L85.8,172.8z M74.9,168.4l-1.8-7.7c2-0.4,4-0.6,5.9-0.4l-0.8,7.9C77.2,168.1,76.1,168.2,74.9,168.4z"/>
<path class="st1" d="M198.3,162.5c-1.6-0.4-3.2-1-4.6-1.9l1.2-2c1.2,0.8,2.6,1.3,4,1.6L198.3,162.5z M206.9,162l-0.8-2
	c1.3-0.5,2.6-1.1,3.7-2l1.4,1.8C209.9,160.7,208.5,161.5,206.9,162z M187.9,154.2c-0.7-1.5-1.2-3.1-1.4-4.8l2.2-0.3
	c0.2,1.4,0.6,2.7,1.2,4L187.9,154.2z M216.2,152.5l-2.1-0.7c0.4-1.4,0.7-2.8,0.7-4.2h2.3l0,0C217,149.2,216.7,150.9,216.2,152.5
	L216.2,152.5z M189.9,141.9l-2-1c0.7-1.5,1.7-2.9,2.9-4.1l1.6,1.6C191.4,139.4,190.5,140.6,189.9,141.9L189.9,141.9z M212.7,140.4
	c-0.8-1.2-1.7-2.3-2.9-3.1l1.4-1.8c1.3,1,2.4,2.3,3.4,3.7L212.7,140.4z M198.8,134.8l-0.5-2.2c1.6-0.4,3.3-0.5,5-0.3l-0.3,2.3
	C201.5,134.5,200.1,134.6,198.8,134.8L198.8,134.8z"/>
<path class="st1" d="M111.1,135.6"/>
<path class="st1" d="M55.7,98.4h-2.8l-1.3,1.8l6.9,20.5l2,1.1c0,0,12.2-0.7,21.8,5.3c1.3,0.7,2.7,1,4.2,1c1.6-0.3,7.9-2.5,7.9-2.5
	s2.8-4.2,5-6.9c3.2-3.2,6.7-6.1,10.3-8.7c0,0-4.6-26.4-5.7-28.1c-1.1-1.7-2.4-1.2-2.4-1.2L80.7,99L55.7,98.4z"/>
<path class="st8" d="M101.8,86.9c0.8,2.3,1.3,4.6,1.6,7l2,12.8c0.2,0.7,0.2,1.3,0,2c-0.4,0.8-1.1,1.5-2,2c-2.4,1.7-4.5,4-5.9,6.6
	c-1.7,2.9-3.1,6.6-6.3,7.4c-2,0.5-4.5-0.4-6.3,0.8c-6.5-4.1-14.1-6.2-21.8-6.2l-6.6-18c-0.4-1-0.7-2-0.7-3.1
	c0.1-2.2,2.2-4.2,1.6-6.4c9.7,3.7,20,5.8,30.5,6.1c1.1,0.3,2.3-0.4,2.6-1.5c0-0.1,0.1-0.3,0.1-0.4c0.6-2.6,1.2-5.2,1.7-7.9
	c0.4-1.9,0.3-7.4,1.5-8.7C96.6,76.2,100.8,84.2,101.8,86.9z"/>
<linearGradient id="SVGID_13_" gradientUnits="userSpaceOnUse" x1="92.9106" y1="175.4361" x2="75.2406" y2="224.5861" gradientTransform="matrix(1.9828 0 0 -1.9828 -86.7761 492.9701)">
	<stop  offset="1.000000e-02" style="stop-color:#000000"/>
	<stop  offset="0.13" style="stop-color:#000000;stop-opacity:0.69"/>
	<stop  offset="0.25" style="stop-color:#000000;stop-opacity:0.32"/>
	<stop  offset="1" style="stop-color:#000000;stop-opacity:0"/>
</linearGradient>
<path class="st17" d="M101.8,86.9c0.8,2.3,1.3,4.6,1.6,7l2,12.8c0.2,0.7,0.2,1.3,0,2c-0.4,0.8-1.1,1.5-2,2c-2.4,1.7-4.5,4-5.9,6.6
	c-1.7,2.9-3.1,6.6-6.3,7.4c-2,0.5-4.5-0.4-6.3,0.8c-6.5-4.1-14.1-6.2-21.8-6.2l-6.6-18c-0.4-1-0.7-2-0.7-3.1
	c0.1-2.2,2.2-4.2,1.6-6.4c9.7,3.7,20,5.8,30.5,6.1c1.1,0.3,2.3-0.4,2.6-1.5c0-0.1,0.1-0.3,0.1-0.4c0.6-2.6,1.2-5.2,1.7-7.9
	c0.4-1.9,0.3-7.4,1.5-8.7C96.6,76.2,100.8,84.2,101.8,86.9z"/>
<path class="st8" d="M57,91.7c3.7,7.5,6.6,15.3,8.8,23.3c0.1,0.9,0.9,1.7,1.8,1.6c0.2,0,0.5-0.1,0.7-0.2c7.1-1.1,14.4,0.8,20,5.4
	c2.8-5.9,6.8-11.2,11.7-15.6c0.4-0.3,0.6-0.6,0.7-1.1c0-0.3,0-0.5-0.1-0.8c-2.9-9.1-4.6-18.6-5.1-28.2c-6.8,5-14.1,10.9-15.3,19.3
	C72.9,92.7,65,90.4,57,91.7z"/>
<path class="st18" d="M88.3,82.1l4-3.4l5.9,26.6c0,0-11,10.4-9.9,16.5l-8-26.4C80.3,95.4,84.3,85.5,88.3,82.1z"/>
<path class="st8" d="M80.3,95.4l8.1,26.4c0,0,4-17.1,6.7-22.8L86,76.2C86,76.2,79.4,87.5,80.3,95.4z"/>
<path class="st8" d="M191.3,104.3c0.6-0.5,1.4-0.8,2.2-0.9c0.4,0,0.9,0.1,1.3,0.2l23.2,6.9c-6.3,8.5-17.1,12.6-24.6,20.1
	c-0.3,0.4-0.8,0.7-1.2,1c-1.1,0.3-2.3,0.1-3.3-0.5c-3.9-1.8-8.1-2.9-12.4-3.3c-1.7-0.2-4.8,0.5-4.9-1.3c0-1.4,2.2-4,3-5.2
	C178.9,114.5,184.6,108.7,191.3,104.3z"/>
<path class="st8" d="M192.6,170.6c3,6.3,6.8,12.1,11.5,17.3c-1.6,1.4-3.5,2.3-5.5,2.9c-5.9,2.2-11.2,5.5-15.7,9.8
	c-2-3.7-10.8-15.9-8.9-19.6C174.7,179.2,193,171.5,192.6,170.6z"/>
<path class="st8" d="M68.7,206.4c5.9,0.4,11.9,0.9,17.8,1.8c0.5,0,1.1,0.2,1.5,0.5c0.4,0.4,0.6,0.8,0.8,1.3c2.7,7.8,6.7,15,12,21.3
	c-5.9,3.6-23.1,11.2-28.9,4C69.8,232.5,67,206.3,68.7,206.4z"/>
</svg>
