<svg height="28" viewBox="0 0 28 28" width="28" xmlns="http://www.w3.org/2000/svg" xmlns:xlink="http://www.w3.org/1999/xlink"><linearGradient id="a" x1="50%" x2="50%" y1="0%" y2="100%"><stop offset="0" stop-color="#4ebbed"/><stop offset="1" stop-color="#5c6ddd"/></linearGradient><g fill="url(#a)"><path d="m20.4206543 0h-12.8413086c-4.17932129 0-7.5793457 3.40002441-7.5793457 7.5793457v12.8415222c0 4.1791077 3.40002441 7.5791321 7.5793457 7.5791321h12.8415222c4.1791077 0 7.5791321-3.4000244 7.5791321-7.5791321v-12.8415222c0-4.17932129-3.4000244-7.5793457-7.5793457-7.5793457zm5.9378662 20.4208679c0 3.2739868-2.6636658 5.9376526-5.9378662 5.9376526h-12.8413086c-3.27420045 0-5.93786621-2.6636658-5.93786621-5.9376526v-12.8415222c0-3.27420045 2.66366576-5.93786621 5.93786621-5.93786621h12.8415222c3.2739869 0 5.9376526 2.66366576 5.9376526 5.93786621z"/><path d="m13.5 7c-4.13557853 0-7.5 3.3644215-7.5 7.5s3.36442147 7.5 7.5 7.5c4.1355785 0 7.5-3.3644215 7.5-7.5s-3.3644215-7.5-7.5-7.5zm0 13.3919752c-3.2486955 0-5.89197523-2.6430704-5.89197523-5.8919752 0-3.2486955 2.64327973-5.89197523 5.89197523-5.89197523 3.2489048 0 5.8919752 2.64327973 5.8919752 5.89197523 0 3.2489048-2.6430704 5.8919752-5.8919752 5.8919752z"/><path d="m21.9999056 4c-1.1028752 0-1.9999056.89721921-1.9999056 1.99990558 0 1.10287521.8970304 2.00009442 1.9999056 2.00009442s2.0000944-.89721921 2.0000944-2.00009442-.8972192-1.99990558-2.0000944-1.99990558zm0 2.54869928c-.3025353 0-.5487937-.24625843-.5487937-.5487937 0-.30272415.2462584-.54879375.5487937-.54879375.3027241 0 .5489826.2460696.5489826.54879375 0 .30253527-.2462585.5487937-.5489826.5487937z"/></g></svg>