<?xml version="1.0" encoding="UTF-8"?>
<svg width="28px" height="28px" viewBox="0 0 28 28" version="1.1" xmlns="http://www.w3.org/2000/svg" xmlns:xlink="http://www.w3.org/1999/xlink">
    <title>instagram</title>
    <defs>
        <linearGradient x1="50%" y1="0%" x2="50%" y2="100%" id="linearGradient-1">
            <stop stop-color="#4EBBED" offset="0%"></stop>
            <stop stop-color="#5C6DDD" offset="100%"></stop>
        </linearGradient>
    </defs>
    <g id="Page-1" stroke="none" stroke-width="1" fill="none" fill-rule="evenodd">
        <g id="workers-personnal-desktop" transform="translate(-624.000000, -946.000000)" fill="url(#linearGradient-1)" fill-rule="nonzero">
            <g id="instagram" transform="translate(624.000000, 946.000000)">
                <path d="M20.4206543,0 L7.5793457,0 C3.40002441,0 0,3.40002441 0,7.5793457 L0,20.4208679 C0,24.5999756 3.40002441,28 7.5793457,28 L20.4208679,28 C24.5999756,28 28,24.5999756 28,20.4208679 L28,7.5793457 C28,3.40002441 24.5999756,0 20.4206543,0 Z M26.3585205,20.4208679 C26.3585205,23.6948547 23.6948547,26.3585205 20.4206543,26.3585205 L7.5793457,26.3585205 C4.30514525,26.3585205 1.64147949,23.6948547 1.64147949,20.4208679 L1.64147949,7.5793457 C1.64147949,4.30514525 4.30514525,1.64147949 7.5793457,1.64147949 L20.4208679,1.64147949 C23.6948548,1.64147949 26.3585205,4.30514525 26.3585205,7.5793457 L26.3585205,20.4208679 Z" id="Shape"></path>
                <path d="M13.5,7 C9.36442147,7 6,10.3644215 6,14.5 C6,18.6355785 9.36442147,22 13.5,22 C17.6355785,22 21,18.6355785 21,14.5 C21,10.3644215 17.6355785,7 13.5,7 Z M13.5,20.3919752 C10.2513045,20.3919752 7.60802477,17.7489048 7.60802477,14.5 C7.60802477,11.2513045 10.2513045,8.60802477 13.5,8.60802477 C16.7489048,8.60802477 19.3919752,11.2513045 19.3919752,14.5 C19.3919752,17.7489048 16.7489048,20.3919752 13.5,20.3919752 Z" id="Shape"></path>
                <path d="M21.9999056,4 C20.8970304,4 20,4.89721921 20,5.99990558 C20,7.10278079 20.8970304,8 21.9999056,8 C23.1027808,8 24,7.10278079 24,5.99990558 C24,4.89703037 23.1027808,4 21.9999056,4 Z M21.9999056,6.54869928 C21.6973703,6.54869928 21.4511119,6.30244085 21.4511119,5.99990558 C21.4511119,5.69718143 21.6973703,5.45111183 21.9999056,5.45111183 C22.3026297,5.45111183 22.5488882,5.69718143 22.5488882,5.99990558 C22.5488882,6.30244085 22.3026297,6.54869928 21.9999056,6.54869928 Z" id="Shape"></path>
            </g>
        </g>
    </g>
</svg>