<svg height="28" viewBox="0 0 25 28" width="25" xmlns="http://www.w3.org/2000/svg" xmlns:xlink="http://www.w3.org/1999/xlink"><linearGradient id="a" x1="50%" x2="50%" y1="0%" y2="100%"><stop offset="0" stop-color="#4ebbed"/><stop offset="1" stop-color="#5c6ddd"/></linearGradient><g fill="url(#a)"><path d="m5.98848096 8h-4.9767367c-.55790081 0-1.01174426.43682797-1.01174426.973812v18.0525928c0 .5367672.45384345.9735952 1.01174426.9735952h4.9767367c.5576756 0 1.01151904-.436828 1.01151904-.9735952v-18.0525928c0-.53698403-.45384344-.973812-1.01151904-.973812zm-.72074391 18.332683h-3.5354741v-16.66536596h3.5354741z"/><path d="m3.50011169 0c-1.9301101 0-3.50011169 1.57000159-3.50011169 3.49988831 0 1.9301101 1.57000159 3.50011169 3.50011169 3.50011169 1.92966328 0 3.49988831-1.57000159 3.49988831-3.50011169 0-1.92988672-1.57000159-3.49988831-3.49988831-3.49988831zm0 5.28188925c-.98270306 0-1.78200094-.79929794-1.78200094-1.78200094 0-.98247968.79929788-1.78177756 1.78200094-1.78177756.98247962 0 1.78177756.79929788 1.78177756 1.78177756 0 .98247963-.79929794 1.78200094-1.78177756 1.78200094z"/><path d="m22.0455123 10.1163081c-1.106859-.95582901-2.5140073-1.46702079-3.9607612-1.43927161-.8985633.01712646-1.7765904.24128772-2.5722631.64711938v-.39412495c0-.51357654-.4025513-.93003092-.8989824-.93003092h-4.71452327c-.49643104 0-.89898233.41645438-.89898233.93003092v18.13993818c0 .5137933.40255129.9300309.89898233.9300309h4.80756487c.4450905 0 .8059408-.3733131.8059408-.8335591v-10.8154572c0-.9259119.7003261-1.7093925 1.5946984-1.7369248.929577-.0283996 1.6944455.7453254 1.6944455 1.7007208v10.8690044c0 .4507072.3533063.8162159.788967.8162159h4.620434c.4356607 0 .7889671-.3655087.7889671-.8162159v-10.538399c0-2.5277763-1.0768929-4.9077015-2.9544877-6.529077zm1.3428156 16.2163568h-2.9748144v-10.0178852c0-1.8574603-1.4607939-3.3687063-3.2564535-3.3687063-1.7954501 0-3.2562441 1.511246-3.2562441 3.3687063v10.0178852h-3.2891438v-16.66554656h3.2891438v1.21164166h.0010478c-.0002096.1964121.0657996.3936914.20159.5525987.2948411.3446968.8042644.3767818 1.1374536.0715409.7939963-.7271151 1.8145195-1.1385833 2.8736003-1.1589616 1.0601286-.0208119 2.0890339.3533684 2.8983275 1.0523007 1.5098293 1.3037776 2.3754928 3.216953 2.3754928 5.2491464z"/></g></svg>