<svg enable-background="new 0 0 162.5 33.2" viewBox="0 0 162.5 33.2" xmlns="http://www.w3.org/2000/svg"><path d="m50.7 4.5c-5.2 0-9.6 4.2-9.6 9.5 0 3.5 1.8 6.5 4.5 8.2l-4.4 9.1c-.1.1 0 .3.1.4l1.4.7c.1.1.3 0 .4-.1l4.4-9.1c.9.3 1.9.5 3 .5 5.2 0 9.5-3.5 9.5-9.6.1-5.3-4.1-9.6-9.3-9.6z" fill="#fe9f24" stroke="#fe9f24"/><circle cx="50.6" cy="14" fill="#fff" r="7.5"/><path d="m48.9 8s.1.1.1.2l-.9 7.1c0 .1 0 .3.1.4l1.9 3.8h.1l1.8-3.8c.1-.1.1-.3.1-.4l-1-7.1c0-.1 0-.1.1-.2l1-1.4h-.1c-1.4-.2-2.5-.2-3.9.1z" fill="#fe9f24" stroke="#fe9f24" stroke-width=".2"/><g fill="#3db8f4" stroke="#4bb5e8" stroke-miterlimit="10" stroke-width=".5"><path d="m21.5 7.1c.4 1.5.9 3 1.4 4.6s1 3.2 1.5 4.8 1.1 3.2 1.6 4.8 1.1 3 1.5 4.4c.4-1.5.8-3.1 1.2-4.9.4-1.7.8-3.6 1.2-5.5s.8-3.8 1.1-5.8c.4-2 .7-3.9 1.1-5.8h5.4c-1 5.2-2 10.2-3.2 14.9-1.2 4.8-2.5 9.3-4 13.7h-5c-2.1-5.6-4.2-11.6-6.2-18.2-1 3.3-2.1 6.5-3.1 9.5s-2.1 5.9-3.1 8.7h-5c-1.5-4.4-2.8-8.9-4-13.7-1.2-4.6-2.2-9.6-3.2-14.8h5.6c.3 1.9.7 3.8 1.1 5.8s.8 3.9 1.2 5.8.8 3.7 1.2 5.5.8 3.4 1.2 4.9c.5-1.4 1.1-2.9 1.6-4.4s1.1-3.1 1.6-4.8c.5-1.6 1-3.2 1.5-4.8s.9-3.1 1.3-4.6h4.5z"/><path d="m79 15.4c-.4-.1-1-.3-1.7-.4-.7-.2-1.6-.2-2.5-.2-.6 0-1.1.1-1.8.2-.6.1-1.1.2-1.3.3v17.3h-5v-20.7c1-.4 2.2-.7 3.6-1s3-.5 4.8-.5c.3 0 .7 0 1.2.1.4 0 .9.1 1.3.2s.9.2 1.3.2c.4.1.7.2 1 .3z"/><path d="m88.3 19.3c.6-.7 1.3-1.4 2-2.1.7-.8 1.4-1.5 2.1-2.3s1.3-1.5 2-2.2c.6-.7 1.1-1.3 1.6-1.8h5.9c-1.4 1.5-2.8 3.1-4.3 4.8s-3.1 3.3-4.6 4.8c.8.7 1.7 1.5 2.6 2.5s1.8 2 2.6 3.1c.9 1.1 1.6 2.2 2.4 3.3s1.4 2.1 1.9 3.1h-5.8c-.5-.9-1.1-1.7-1.7-2.7-.6-.9-1.3-1.8-2.1-2.7-.7-.9-1.5-1.7-2.3-2.5s-1.5-1.5-2.3-2v9.9h-5v-31.3l5-.8z"/><path d="m103.9 21.8c0-1.9.3-3.6.8-5 .6-1.4 1.3-2.6 2.3-3.6.9-.9 2-1.7 3.2-2.1 1.2-.5 2.5-.7 3.7-.7 3 0 5.3.9 7 2.8 1.7 1.8 2.5 4.6 2.5 8.3v.9s0 .7-.1.9h-14.3c.1 1.7.8 3.1 1.8 4s2.7 1.4 4.7 1.4c1.2 0 2.3-.1 3.3-.3s1.8-.5 2.4-.7l.7 4.1c-.3.1-.7.3-1.1.4-.5.2-1 .3-1.7.4s-1.3.2-2 .3-1.4.1-2.2.1c-1.9 0-3.6-.3-5-.8-1.4-.6-2.6-1.3-3.5-2.4-.9-1-1.6-2.2-2-3.6s-.5-2.8-.5-4.4zm14.5-2.3c0-.7-.1-1.3-.3-2-.2-.6-.5-1.2-.8-1.6-.4-.5-.8-.8-1.4-1.1s-1.2-.4-1.9-.4c-.8 0-1.4.1-2 .4s-1.1.7-1.5 1.1c-.4.5-.7 1-.9 1.6s-.4 1.2-.5 1.9h9.3z"/><path d="m141 15.4c-.4-.1-1-.3-1.7-.4-.7-.2-1.6-.2-2.5-.2-.6 0-1.1.1-1.8.2-.6.1-1.1.2-1.3.3v17.3h-5v-20.7c1-.4 2.2-.7 3.6-1s3-.5 4.8-.5c.3 0 .7 0 1.2.1.4 0 .9.1 1.3.2s.9.2 1.3.2c.4.1.7.2 1 .3z"/><path d="m160.5 14.4c-.6.6-1.3 1.4-2.2 2.4s-1.9 2.2-2.9 3.5-2 2.6-3.1 4-2 2.7-2.8 4h11.2v4.2h-17.2v-3.1c.6-1.1 1.4-2.3 2.3-3.6s1.8-2.6 2.8-3.9 1.9-2.6 2.9-3.7c1-1.2 1.8-2.2 2.5-3.1h-10v-4.2h16.4v3.5z"/></g></svg>