<svg enable-background="new 0 0 496 496" viewBox="0 0 496 496" xmlns="http://www.w3.org/2000/svg" xmlns:xlink="http://www.w3.org/1999/xlink"><linearGradient id="a"><stop offset="0" stop-color="#4cb5ea"/><stop offset="1" stop-color="#5a6cdd"/></linearGradient><linearGradient id="b" gradientUnits="userSpaceOnUse" x1="113.4092" x2="148.4092" xlink:href="#a" y1="9.2272" y2="505.2272"/><linearGradient id="c" gradientUnits="userSpaceOnUse" x1="193.0128" x2="228.0128" xlink:href="#a" y1="3.61" y2="499.61"/><linearGradient id="d" gradientUnits="userSpaceOnUse" x1="149.2389" x2="184.2389" xlink:href="#a" y1="6.6989" y2="502.6989"/><linearGradient id="e" gradientUnits="userSpaceOnUse" x1="219.9151" x2="254.9151" xlink:href="#a" y1="1.7116" y2="497.7116"/><path d="m136 216c0 4.4-3.6 8-8 8s-8-3.6-8-8 3.6-8 8-8 8 3.6 8 8z" fill="url(#b)"/><path d="m216 216c0 4.4-3.6 8-8 8s-8-3.6-8-8 3.6-8 8-8 8 3.6 8 8z" fill="url(#c)"/><path d="m200 272h-16c0 8.8-7.2 16-16 16s-16-7.2-16-16h-16c0 17.6 14.4 32 32 32s32-14.4 32-32z" fill="url(#d)"/><path d="m480 288v-128h-64v-64h-16v-64h-16v-32h-112v32h-16v56.4c-19.9-20-47.4-32.4-77.8-32.4-29.3 0-56.9 11.4-77.7 32.2l-8.5 8.5c-25.6 6.3-44 29.5-44 56.1v87.2c0 20.4 15.5 37.2 35.3 39.5 5.8 20.8 19 38.6 36.7 50.1v16.6l-81.7 27.2c-22.9 7.7-38.3 29.1-38.3 53.2v69.4h336v-69.4c0-24.1-15.4-45.5-38.3-53.1l-81.7-27.3v-10.2h264c8.8 0 16-7.2 16-16v-16c0-8.8-7.2-16-16-16zm-64 0v-80h48v80zm-64 0h-32v-64h32zm-48-80v80h-54.1c1.1-2.8 2-5.6 2.8-8.5 19.8-2.4 35.3-19.1 35.3-39.5v-48h96v-64h-102.9c-2-5.6-4.5-10.9-7.3-16h126.2v176h-32v-80zm-48 9.5c9.3 3.3 16 12.1 16 22.5 0 10.5-6.9 19.4-16.3 22.6.2-2.2.3-4.4.3-6.6zm112-73.5v32h-32v-32zm-48 32h-32v-10.2c0-7.5-.8-14.8-2.2-21.8h34.2zm32-80h-16v-16h16zm-32 0h-16v-16h16zm144 80v16h-48v-16zm-176-160h80v16h-80zm96 32v48h-16v-32h-80v32h-16v-48zm-320 192c0-10.4 6.7-19.2 16-22.5v38.5c0 2.2.2 4.4.3 6.6-9.4-3.2-16.3-12.1-16.3-22.6zm16-74.2v35c-5.9 1.2-11.3 3.9-16 7.4v-55.4c0-19.8 14.1-37.1 33.6-40.9l2.4-.5 11.9-11.9c17.7-17.7 41.2-27.5 66.3-27.5 51.7 0 93.8 42.1 93.8 93.8v42.4c-4.7-3.5-10.1-6.2-16-7.4v-35l-9.9 2.5c-.3.1-31.8 7.8-78.1 7.8s-77.8-7.7-78.1-7.8zm16 90.2v-70.2c13.2 2.4 38.8 6.2 72 6.2s58.8-3.7 72-6.2v70.2c0 39.7-32.3 72-72 72s-72-32.3-72-72zm72 88c11.3 0 22.1-2.2 32-6.1v10.8l-32 32-32-32v-10.8c9.9 3.9 20.7 6.1 32 6.1zm-9.2 104h18.4l5.3 32h-29.1zm20.9-16h-23.4l-8.5-12.7 20.2-16.8 20.2 16.8zm-53.9-70.8 30.3 30.3-32.3 26.9-17-50.9zm-109.8 65.4c0-17.2 11-32.5 27.4-37.9l48.4-16.1 24.4 73.1 19.3-16.1 8.2 12.2-6.4 38.2h-121.3zm304 0v53.4h-121.2l-6.4-38.2 8.2-12.2 19.3 16.1 24.4-73.1 48.4 16.1c16.3 5.4 27.3 20.7 27.3 37.9zm-90.9-59.1-17 50.9-32.3-26.9 30.3-30.3zm250.9-47.5h-251.8c5.1-4.8 9.6-10.1 13.4-16h238.4z" fill="url(#e)"/></svg>