<svg height="99" viewBox="0 0 97 99" width="97" xmlns="http://www.w3.org/2000/svg" xmlns:xlink="http://www.w3.org/1999/xlink"><linearGradient id="a" x1="48.289707%" x2="51.219395%" y1=".379609%" y2="99.598359%"><stop offset="0" stop-color="#4dbbed"/><stop offset="1" stop-color="#5c6ddd"/></linearGradient><path d="m94.6507813 26.3260982c1.515625-1.515625 2.3492187-3.5617187 2.3492187-5.702539 0-1.3640625-.3978516-2.6902344-1.1367188-3.8458985l-8.0517578-12.67441403c-1.7808593-2.80390625-4.85-4.49003906-8.1654297-4.50898438h-62.2921875c-3.2964843 0-6.3845703 1.70507813-8.16542964 4.49003907l-8.05175781 12.69335934c-.73886719 1.1556641-1.13671875 2.481836-1.13671875 3.8458985 0 2.1408203.85253906 4.2058593 2.36816406 5.7214843.71992188.7009766 1.55351563 1.269336 2.48183594 1.6671875v33.0216797c-2.36816406 0-4.37636719 1.6861328-4.77421875 4.0164063-.39785156 2.3302734.92832031 4.6037109 3.16386719 5.3804687v16.7666016c-2.21660156.7767578-3.56171875 3.0501953-3.16386719 5.3804687.39785156 2.3302735 2.40605469 4.0164063 4.77421875 4.0164063h87.3c2.3681641 0 4.3763672-1.6861328 4.7742188-4.0164063.3978515-2.3302734-.9283204-4.6037109-3.1638672-5.3804687v-16.7666016c2.2166015-.7767578 3.5617187-3.0501953 3.1638672-5.3804687-.3978516-2.3302735-2.4250001-4.0164063-4.7742188-4.0164063v-33.040625c.9283203-.3978515 1.7619141-.9662109 2.5007813-1.6671875zm-2.2923829-2.2923828c-.909375.909375-2.1408203 1.4208985-3.4480468 1.4208985h-4.85c-2.6712891 0-4.85-2.178711-4.85-4.85h14.55c0 1.2882812-.4925782 2.5197265-1.4019532 3.4291015zm-16.1603515 37.0001953 1.3830078-11.1208984c.0568359-.4546875-.0947266-.9283203-.3978516-1.2693359-.303125-.3410157-.7388672-.5494141-1.2125-.5494141h-9.7c-.4546875 0-.909375.2083984-1.2125.5494141-.303125.3410156-.4546875.8146484-.3978515 1.2693359l1.3830078 11.1208984h-12.7123047v-6.4603515c0-1.7808594-1.4398438-3.2396485-3.2396484-3.2396485h-17.7896485v-6.4603515h1.6103516c1.7808594 0 3.2396484-1.4398438 3.2396484-3.2396485v-3.2396484c0-1.7808594-1.4398437-3.2396484-3.2396484-3.2396484h-12.9396485c-1.7808593 0-3.2396484 1.4398437-3.2396484 3.2396484v3.2396484c0 1.7808594 1.4398437 3.2396485 3.2396484 3.2396485h1.6103516v6.4603515h-1.6103516c-1.7808593 0-3.2396484 1.4398438-3.2396484 3.2396485v6.4603515h-3.1828125v-32.5101562c1.9513672-.4167969 3.6753906-1.515625 4.85-3.1259766 1.515625 2.0650391 3.9216797 3.2775391 6.4603516 3.2775391h6.4603515c2.5576172 0 4.9447266-1.2314453 6.4603516-3.2775391 1.515625 2.0650391 3.9216797 3.2775391 6.4603516 3.2775391h6.4603515c2.5576172 0 4.9447266-1.2314453 6.4603516-3.2775391 1.515625 2.0650391 3.9216797 3.2775391 6.4603515 3.2775391h6.4603516c2.5576172 0 4.9447266-1.2314453 6.4603516-3.2775391 1.1746093 1.6103516 2.8986328 2.7091797 4.85 3.1259766v32.4912109h-6.1951172zm-8.0896485-9.7h6.0435547l-1.2125 9.7h-3.6185547zm-37.3980468-9.7h-9.7v-3.2396484h12.9396484v3.2396484zm-4.85 3.2207032h3.2396484v6.4603515h-3.2396484zm-1.6103516 9.7h25.8603516v6.4603515h-29.1v-6.4603515zm51.7396484-33.95c0 2.671289-2.1787109 4.85-4.85 4.85h-6.4603515c-2.6712891 0-4.85-2.178711-4.85-4.85zm-19.4 0c0 2.671289-2.1787109 4.85-4.85 4.85h-6.4603515c-2.6712891 0-4.85-2.178711-4.85-4.85zm-35.5792968 0h16.1603515c0 2.671289-2.1787109 4.85-4.85 4.85h-6.4603515c-2.6712891 0-4.85-2.1597657-4.85-4.85zm-9.0748047-14.77734379c1.1746094-1.85664063 3.2396484-2.99335938 5.4373047-2.99335938h62.2732422c2.2166015 0 4.2626953 1.13671875 5.4373046 2.99335938l7.3507813 11.55664059h-13.7353516l-2.8228515-7.0666015c-.3410157-.83359378-1.269336-1.23144534-2.1029297-.90937503-.8335938.34101563-1.2314453 1.26933593-.909375 2.10292973l2.3492187 5.8730468h-15.402539v-3.2396484c0-.8904297-.7199219-1.6103516-1.6103516-1.6103516s-1.6103516.7199219-1.6103516 1.6103516v3.2396484h-16.1603515v-3.2396484c0-.8904297-.7199219-1.6103516-1.6103516-1.6103516s-1.6103516.7199219-1.6103516 1.6103516v3.2396484h-15.4214843l2.3492187-5.8730468c.2083985-.5304688.1326172-1.1556641-.2273437-1.6103516-.359961-.4546875-.9283203-.68203125-1.4966797-.60625s-1.0609375.4546875-1.2693359 1.0041016l-2.8417969 7.0855468h-13.73535159zm-8.69589846 14.77734379h14.54999996c0 2.671289-2.1787109 4.85-4.85 4.85h-4.84999996c-1.28828125 0-2.51972656-.5115235-3.42910156-1.4208985s-1.42089844-2.1408203-1.42089844-3.4291015zm4.85 8.0896484h3.23964846v32.3396484h-3.23964846zm82.44999996 58.2h-84.07929684v-16.1603516h84.06035154v16.1603516zm1.6103516 6.4603516h-87.3c-.89042969 0-1.61035156-.7199219-1.61035156-1.6103516s.71992187-1.6103516 1.61035156-1.6103516h87.3c.8904297 0 1.6103516.7199219 1.6103516 1.6103516s-.7199219 1.6103516-1.6103516 1.6103516zm1.6103516-27.4707032c0 .8904297-.7199219 1.6103516-1.6103516 1.6103516h-87.3c-.89042969 0-1.61035156-.7199219-1.61035156-1.6103516s.71992187-1.6103515 1.61035156-1.6103515h87.3c.8904297-.0189453 1.6103516.7199218 1.6103516 1.6103515zm-4.85-4.85h-3.2396485v-32.3396484h3.2396485z" fill="url(#a)" transform="translate(0 1.405738)"/></svg>