<svg height="306" viewBox="0 0 681.23 528" width="406" xmlns="http://www.w3.org/2000/svg" xmlns:xlink="http://www.w3.org/1999/xlink"><linearGradient id="a" gradientUnits="userSpaceOnUse" x1="356.11" x2="359.52" y1="334.19" y2="446.53"><stop offset="0" stop-color="#fff" stop-opacity="0"/><stop offset=".95" stop-color="#fff"/></linearGradient><linearGradient id="b" gradientUnits="userSpaceOnUse" x1="358.8" x2="362.58" y1="425.67" y2="507.37"><stop offset="0" stop-color="#010101" stop-opacity="0"/><stop offset=".95" stop-color="#010101"/></linearGradient><linearGradient id="c" gradientTransform="matrix(-1 0 0 1 1135.56 0)" gradientUnits="userSpaceOnUse" x1="627.27" x2="785.85" y1="374.59" y2="374.59"><stop offset="0" stop-color="#e5c6d6"/><stop offset=".42" stop-color="#ead4d0"/><stop offset="1" stop-color="#f0e9cb"/></linearGradient><linearGradient id="d" gradientTransform="matrix(-1 0 0 1 1135.56 0)" x1="717.16" x2="853.7" xlink:href="#b" y1="373.42" y2="293.62"/><linearGradient id="e" gradientTransform="matrix(-1 0 0 1 1135.56 0)" x1="743.42" x2="758.73" xlink:href="#b" y1="359.53" y2="258.56"/><linearGradient id="f" gradientTransform="matrix(-1 0 0 1 1135.56 0)" x1="739.02" x2="753.36" xlink:href="#b" y1="361.02" y2="266.47"/><linearGradient id="g" gradientTransform="matrix(-.25 -.97 -.97 .25 686.74 1033.88)" x1="907.02" x2="789.76" xlink:href="#b" y1="222.8" y2="258.36"/><linearGradient id="h" gradientTransform="matrix(-.25 -.97 -.97 .25 690.55 1031.33)" x1="851.51" x2="916.75" xlink:href="#b" y1="235.18" y2="223.83"/><linearGradient id="i" gradientTransform="matrix(-1 0 0 1 1135.56 0)" x1="882.05" x2="831.35" xlink:href="#b" y1="231.56" y2="246.93"/><linearGradient id="j" x1="721.18" x2="775.84" xlink:href="#c" y1="353.7" y2="353.7"/><linearGradient id="k" gradientTransform="matrix(-1 0 0 1 1135.56 0)" x1="675.25" x2="762.25" xlink:href="#b" y1="266.2" y2="383.83"/><linearGradient id="l" gradientTransform="matrix(-1 0 0 1 1135.56 0)" x1="832.59" x2="1001.66" xlink:href="#b" y1="237.12" y2="242.23"/><linearGradient id="m" x1="183.44" x2="219.09" xlink:href="#a" y1="121.77" y2="121.77"/><linearGradient id="n" x1="122.65" x2="175.16" xlink:href="#a" y1="119.45" y2="119.45"/><linearGradient id="o" x1="112.05" x2="160.71" xlink:href="#a" y1="210.74" y2="210.74"/><path d="m84.65 220.35c-5.67 27.92-5.53 57.07-14.59 84.08-16.32 48.65-60.91 85.57-69.91 136.12-6.57 36.86 8.85 76.79 38.46 99.68 25.45 19.67 58.39 26.33 90.23 30.89 119.37 17.1 240.74 12.68 361 4.27 43.83-3.07 89.17-7.11 127.54-28.49 24.38-13.59 45.29-34.45 55.68-60.35s9.23-56.94-6-80.32c-16.75-25.68-49.11-41.91-55.54-71.9-5.48-25.56 10.3-50.13 21.71-73.65 19-39.18 26.4-87.41 5.35-125.52-13-23.51-35.4-40.59-59.46-52.55-67.33-33.46-146.48-30.23-221.35-23.23-108.44 10.15-247.59 35.48-273.12 160.97z" fill="#4d6bc2" opacity=".24" transform="translate(1.35 -54.82)"/><rect fill="#4d6bc2" height="236.43" rx="19.43" width="365.86" x="177.26" y="145.06"/><rect fill="#fff" height="223.1" rx="18.34" width="345.22" x="186.03" y="154.2"/><rect fill="#4d6bc2" height="56.65" opacity=".14" rx="15.25" width="130.76" x="84.11" y="284.64"/><rect fill="#4d6bc2" height="56.65" opacity=".14" rx="15.25" width="130.76" x="492.38" y="287.53"/><rect fill="#4d6bc2" height="56.65" opacity=".14" rx="15.25" width="130.76" x="495.03" y="158.19"/><rect fill="#4d6bc2" height="142.59" opacity=".11" rx="14.47" width="132" x="221.4" y="218.93"/><path d="m213.94 313.9s-2.84 11.34 6.24 17 43.69-9.65 64.68-11.92 64.14 6.26 64.14 6.26-8 14.76-7.4 31.21 1.7 29.5 0 32.34 9.64 14.18 11.34 14.75 17 1.7 17 1.7l19.29 28.37 49.07-1.05-30.16-99.63 14.57-49.1-135-17.59z" fill="#4d6bc2" opacity=".14" transform="translate(1.35 -54.82)"/><path d="m188.98 379.7-68.02 51.21h476.17l-66.5-51.97z" fill="#4d6bc2"/><path d="m188.98 379.7-68.02 51.21h476.17l-66.5-51.97z" fill="url(#a)"/><path d="m140.45 449.64-19.49-18.73h476.17l-17.58 19.88z" fill="#4d6bc2"/><path d="m140.45 449.64-19.49-18.73h476.17l-17.58 19.88z" fill="url(#b)"/><path d="m305.54 422.89 20.26-16.05 74.13-.39 21.4 16.06z" fill="#4d6bc2" opacity=".58"/><path d="m164.52 403.91 385.22-.51-20.63-16.82h-340.89z" fill="#4d6bc2" opacity=".58"/><path d="m399.5 405.39c-2.22-3-6.13-4.18-9.64-5.52-13.74-5.28-24.57-16.07-34.19-27.19-2.23-2.57-4.47-5.27-5.45-8.53a12.82 12.82 0 0 1 2.38-11.68 15.37 15.37 0 0 0 1.48-1.87 10.14 10.14 0 0 0 1-3.22c.67-3.34 2.23-7.16 5.57-7.84a10.9 10.9 0 0 0 2.22-.43c1.2-.53 1.78-1.87 2.3-3.08 1.93-4.46 5.13-9.13 9.95-9.73a4.54 4.54 0 0 0 1.8-.39c1.34-.77 1.16-2.7 1.46-4.22.74-3.79 5.4-5.72 9.18-4.91s6.82 3.53 9.67 6.13l10.94 10c2.94 2.68 6 5.47 9.93 6.41a2.6 2.6 0 0 0 2-.12 3 3 0 0 0 1-2.21c1.37-8.42 16.31-17.72 22.84-16.59-4 11.35-7.12 29.27-9.46 45.7 11.11 18.36 27.64 32.21 44.43 45.58a118.15 118.15 0 0 0 13.09 9.52c5.45 3.24 11.45 5.64 16.29 9.73l-70 1.63a15.79 15.79 0 0 1 -5.78-.57 15.62 15.62 0 0 1 -4.88-3.27q-10-8.7-19.41-18c-2.22-2.16-5.66-4.55-8.72-5.33z" fill="url(#c)" transform="translate(1.35 -54.82)"/><path d="m415.79 354.74c-.72 6.07-4 11.53-7.58 16.46a42 42 0 0 1 -9.21 9.8 19.13 19.13 0 0 1 -12.68 3.83 15 15 0 0 1 -9.76-5 7.15 7.15 0 0 1 -1.79-3.29c-.53-2.85 1.59-5.44 3.6-7.53a250 250 0 0 1 23.91-21.87c2.62-2.1 9.87-8.32 13.69-6.85 1.85.71.17 11.46-.18 14.45z" fill="url(#d)" transform="translate(1.35 -54.82)"/><path d="m436.82 315-63 81.14s-16.45-1.14-26.67-9.65 7.95-13.62 7.95-13.62 37.44-37.44 42.55-66.95z" fill="#4d6bc2" transform="translate(1.35 -54.82)"/><path d="m347.14 386.48c4.75 3.95 10.72 6.29 15.8 7.66a59.47 59.47 0 0 0 10.88 2l62-79.71 1.05-1.37-39.19-9.06c-5.08 29.5-42.56 67-42.56 67s-18.12 5-7.98 13.48z" fill="url(#e)" transform="translate(1.35 -54.82)"/><path d="m357.37 390.51a27.73 27.73 0 0 0 5.57 3.63 59.47 59.47 0 0 0 10.88 2l62-79.71-27.89-6.53c-5.16 29.5-42.56 67-42.56 67s-18.23 5.1-8 13.61z" fill="url(#f)" transform="translate(1.35 -54.82)"/><path d="m481.66 268.17a30.84 30.84 0 0 0 -19.93-15.43c-39.32-9.47-162.45-43.74-169.59-102.81 0 0-2.27-15.32-21.56-15.32s-49.93 182.69-44.82 186.66 22.69-4.54 31.77-13 34.61-26.1 69.22-15.32c15.57 4.85 43.93 11.43 70.41 17.19 19 4.14 37.06 7.86 48.72 10.22a27.33 27.33 0 0 0 26.43-9.36c7.25-8.66 14.29-21.79 11.6-38.55 0 .03-.91-1.78-2.25-4.28z" fill="#4d6bc2" transform="translate(1.35 -54.82)"/><ellipse cx="245.24" cy="227.87" fill="#4d6bc2" rx="95.69" ry="32.24" transform="matrix(.24801363 -.96875654 .96875654 .24801363 -34.96 354.13)"/><ellipse cx="245.24" cy="227.87" fill="url(#g)" rx="95.69" ry="32.24" transform="matrix(.24801363 -.96875654 .96875654 .24801363 -34.96 354.13)"/><ellipse cx="248.79" cy="229.05" fill="url(#h)" rx="28.79" ry="9.7" transform="matrix(.24801363 -.96875654 .96875654 .24801363 -33.44 358.45)"/><path d="m255.93 201.15 24.58 3.25s-9.36 59.57-19.86 64.68l-16.74-12.49z" fill="url(#i)" transform="translate(1.35 -54.82)"/><path d="m397.84 332.93c3.49 2.93 7.57 5.05 11.34 7.59 2.47 1.66 5 3.89 5.19 6.87a8.46 8.46 0 0 1 -1.14 4.22 22.21 22.21 0 0 1 -5.43 6.86c-1.8 1.53-3.86 2.79-5.37 4.61a32.86 32.86 0 0 0 -2.62 4.14c-2.72 4.48-6.62 8.1-10.47 11.66a23.39 23.39 0 0 1 -3.51 2.85 14.24 14.24 0 0 1 -12.32.91 22.08 22.08 0 0 1 -9.88-7.85c-2.62-3.54-4.5-8-3.75-12.29a20.72 20.72 0 0 1 3.25-7.26 147.22 147.22 0 0 1 17.2-22.42c1.65-1.76 7.33-9.38 9.95-9 1.98.24 5.51 7.39 7.56 9.11z" fill="url(#j)" transform="translate(1.35 -54.82)"/><path d="m426 279.1s-6.69 30.21-28.88 31l55 12.51s19.66-1.14 23.45-9.08 23.43-35.53-4.14-57.13l-44.26-13.61s4.92 18.15-1.17 36.31z" fill="url(#k)" transform="translate(1.35 -54.82)"/><path d="m295.54 170.92s6.46 71.08-34.8 133.9c0 0 24.59-18.91 54.47-14.75 0 0 16.27-59.76 9.08-76.41s-28.75-42.74-28.75-42.74z" fill="url(#l)" transform="translate(1.35 -54.82)"/><rect fill="#fff" height="90.79" rx="24.45" width="209.56" x="422.77" y="40.22"/><rect fill="#fff" height="56.65" rx="15.25" width="130.76" x="500.09" y="150.96"/><rect fill="#fff" height="56.65" rx="15.25" width="130.76" x="268.86" y="15.83"/><rect fill="#fff" height="56.65" rx="15.25" width="130.76" x="78.09" y="278.86"/><rect fill="#fff" height="56.65" rx="15.25" width="130.76" x="499.13" y="279.83"/><g fill="#4d6bc2"><rect height="6.5" opacity=".11" rx="3.25" width="156.81" x="450.23" y="55.86"/><rect height="6.5" opacity=".11" rx="3.25" width="156.81" x="450.23" y="78.27"/><rect height="6.5" opacity=".11" rx="2.56" width="96.83" x="518.88" y="163.53"/><rect height="6.5" opacity=".11" rx="2.56" width="96.83" x="518.88" y="185.93"/><rect height="6.5" opacity=".11" rx="2.56" width="96.83" x="518.88" y="292.16"/><rect height="6.5" opacity=".11" rx="2.56" width="96.83" x="518.88" y="314.56"/><rect height="6.5" opacity=".11" rx="2.56" width="96.83" x="98.32" y="290.71"/><rect height="6.5" opacity=".11" rx="2.56" width="96.83" x="98.32" y="313.11"/><rect height="6.5" opacity=".11" rx="2.56" width="96.83" x="286.2" y="28.65"/><rect height="6.5" opacity=".11" rx="2.56" width="96.83" x="286.2" y="51.05"/><rect height="6.5" opacity=".11" rx="3.25" width="156.81" x="450.23" y="100.67"/></g><path d="m183.44 105.63c1.44 2.89 24.56 42.37 24.56 42.37l11.08-7.71-12.08-44.78z" fill="url(#m)" transform="translate(1.35 -54.82)"/><path d="m138.06 99.46 37.1 27.94-7.71 12.05-44.8-13.97z" fill="url(#n)"/><path d="m112.05 203.52 48.17-7.71.49 13.97-47.21 15.9z" fill="url(#o)"/></svg>