<?xml version="1.0" encoding="UTF-8"?>
<svg width="319px" height="260px" viewBox="0 0 319 260" version="1.1" xmlns="http://www.w3.org/2000/svg" xmlns:xlink="http://www.w3.org/1999/xlink">
    <title>Marketing _Two Color</title>
    <g id="Page-1" stroke="none" stroke-width="1" fill="none" fill-rule="evenodd">
        <g id="announcement-save-editing-desktop" transform="translate(-974.000000, -158.000000)" fill-rule="nonzero">
            <g id="Marketing-_Two-Color" transform="translate(974.000000, 158.000000)">
                <ellipse id="Oval" fill="#E6E6E6" opacity="0.24" cx="159.106881" cy="139.028926" rx="159" ry="115.034091"></ellipse>
                <path d="M135.407711,78.4553286 C135.407711,78.4553286 165.663924,74.0395052 213.374363,10.5289256 L230.106881,142.528926 C230.106881,142.528926 178.687974,110.116782 143.63518,123.010986 C143.63518,123.010986 124.648713,102.808594 135.407711,78.4553286 Z" id="Path" fill="#4A67C6"></path>
                <ellipse id="Oval" fill="#24285B" transform="translate(234.028362, 73.495870) rotate(-5.790000) translate(-234.028362, -73.495870) " cx="234.028362" cy="73.4958699" rx="37.835329" ry="69.9538118"></ellipse>
                <path d="M106.410899,127.704152 C106.410899,127.704152 102.837142,144.983759 120.195389,147.817747 C137.553636,150.651735 157.664341,194.528926 157.664341,194.528926 L179.106881,181.527868 C179.106881,181.527868 142.248354,132.192219 153.346977,121.528926 L106.410899,127.704152 Z" id="Path" fill="#4A67C6"></path>
                <path d="M106.410899,127.704152 C106.410899,127.704152 102.837142,144.983759 120.195389,147.817747 C137.553636,150.651735 157.664341,194.528926 157.664341,194.528926 L179.106881,181.527868 C179.106881,181.527868 142.248354,132.192219 153.346977,121.528926 L106.410899,127.704152 Z" id="Path" fill="#FFFFFF" opacity="0.46"></path>
                <path d="M202.64103,107.528926 L236.106881,96.1549047 L232.12259,56.5289256 L195.506624,58.9257925 C195.506624,58.9257925 192.565053,80.7861058 202.64103,107.528926 Z" id="Path" fill="#4A67C6"></path>
                <path d="M202.64103,107.528926 L236.106881,96.1549047 L232.12259,56.5289256 L195.506624,58.9257925 C195.506624,58.9257925 192.565053,80.7861058 202.64103,107.528926 Z" id="Path" fill="#000000" opacity="0.18"></path>
                <ellipse id="Oval" fill="#4A67C6" transform="translate(234.670609, 76.815389) rotate(-5.790000) translate(-234.670609, -76.815389) " cx="234.670609" cy="76.8153888" rx="10.7578637" ry="19.8870909"></ellipse>
                <path d="M139.442657,77.5289256 C139.442657,77.5289256 90.3682196,89.3078972 87.6200511,99.7633888 C84.8718826,110.21888 93.4871727,133.953288 105.679444,133.523157 C117.871715,133.093026 143.106881,121.90962 143.106881,121.90962 C143.106881,121.90962 130.543826,97.6237629 139.442657,77.5289256 Z" id="Path" fill="#24285B"></path>
                <polygon id="Path" fill="#F4A28C" points="44.1068815 237.44171 121.947526 175.528926 146.106881 194.539354 105.104813 256.528926"></polygon>
                <path d="M157.956762,139.581787 C164.628236,139.032644 170.885157,142.805326 173.38026,148.881561 C177.88676,159.470522 177.717766,166.379241 165.843138,170.202726 C153.968509,174.026212 151.106881,142.975543 151.106881,142.975543 L157.956762,139.581787 Z" id="Path" fill="#D68676"></path>
                <path d="M148.106881,121.396634 L157.44045,141.528926 L167.296176,135.954164 C169.731869,134.607917 170.759766,131.638863 169.678521,129.072819 L165.914634,120.002943 C165.914634,120.002943 155.264793,118.282607 148.106881,121.396634 Z" id="Path" fill="#24285B"></path>
                <path d="M119.106881,179.965857 C119.106881,179.965857 122.724689,145.686123 135.060639,141.585411 C147.396589,137.4847 162.443129,146.018613 155.229641,155.195341 C148.016152,164.372069 138.833338,154.34195 138.833338,154.34195 L153.061169,182.825272 L145.106417,194.528926 L119.106881,179.965857 Z" id="Path" fill="#F4A28C"></path>
                <path d="M154.346363,127.384278 C155.972208,126.243808 158.185311,126.243808 159.811157,127.384278 C161.710982,128.696911 163.800791,130.948665 162.884404,134.118195 C161.308666,139.571494 151.328992,146.785643 147.238779,143.850893 C143.796741,141.375031 148.792166,131.290163 154.346363,127.384278 Z" id="Path" fill="#F4A28C"></path>
                <polygon id="Path" fill="#FE9F24" points="35.1068815 235.82561 107.284058 259.528926 143.106881 207.237976 105.224384 180.528926"></polygon>
                <polygon id="Path" fill="#000000" opacity="0.06" points="130.852505 197.528926 79.1068815 250.03754 108.014365 259.528926 144.106881 206.875659"></polygon>
            </g>
        </g>
    </g>
</svg>