<?xml version="1.0" encoding="UTF-8"?>
<svg width="31px" height="31px" viewBox="0 0 31 31" version="1.1" xmlns="http://www.w3.org/2000/svg" xmlns:xlink="http://www.w3.org/1999/xlink">
    <title>messenger</title>
    <defs>
        <linearGradient x1="50%" y1="0%" x2="50%" y2="100%" id="linearGradient-1">
            <stop stop-color="#4DB9EC" offset="0%"></stop>
            <stop stop-color="#5C6DDD" offset="100%"></stop>
        </linearGradient>
    </defs>
    <g id="Page-1" stroke="none" stroke-width="1" fill="none" fill-rule="evenodd">
        <g id="Dashboard-user-desktop" transform="translate(-871.000000, -189.000000)" fill="url(#linearGradient-1)" fill-rule="nonzero" stroke="#FFFFFF" stroke-width="0.5">
            <g id="messenger" transform="translate(872.000000, 189.250000)">
                <path d="M14.5,0.75 C6.48623657,0.75 0,7.23513032 0,15.25 C0,17.7932968 0.663314848,20.2772979 1.92290498,22.4681396 L0.0546493672,28.2698212 C-0.0756683633,28.6742706 0.031417875,29.1176606 0.331878662,29.4181213 C0.629463182,29.7157059 1.07174683,29.8267746 1.4801788,29.6953506 L7.28186035,27.827095 C9.47270205,29.0866852 11.9567032,29.75 14.5,29.75 C22.5137634,29.75 29,23.2648697 29,15.25 C29,7.23623657 22.5148697,0.75 14.5,0.75 Z M14.5,27.484375 C12.2027359,27.484375 9.96343994,26.8434067 8.02416231,25.6307221 C7.74516299,25.4563751 7.39868164,25.4092483 7.07631685,25.5130157 L2.8882294,26.8617706 L4.23698428,22.6736832 C4.33920288,22.3559646 4.29605864,22.0090408 4.11905669,21.7258377 C2.90659331,19.7865601 2.265625,17.5472641 2.265625,15.25 C2.265625,8.50401309 7.75401309,3.015625 14.5,3.015625 C21.2459869,3.015625 26.734375,8.50401309 26.734375,15.25 C26.734375,21.9959869 21.2459869,27.484375 14.5,27.484375 Z M15.9160156,15.25 C15.9160156,16.0319062 15.2821274,16.6660156 14.5,16.6660156 C13.7178726,16.6660156 13.0839844,16.0319062 13.0839844,15.25 C13.0839844,14.4678726 13.7178726,13.8339844 14.5,13.8339844 C15.2821274,13.8339844 15.9160156,14.4678726 15.9160156,15.25 Z M21.5800781,15.25 C21.5800781,16.0319062 20.9461899,16.6660156 20.1640625,16.6660156 C19.3819351,16.6660156 18.7480469,16.0319062 18.7480469,15.25 C18.7480469,14.4678726 19.3819351,13.8339844 20.1640625,13.8339844 C20.9461899,13.8339844 21.5800781,14.4678726 21.5800781,15.25 Z M10.2519531,15.25 C10.2519531,16.0319062 9.61806489,16.6660156 8.8359375,16.6660156 C8.05403134,16.6660156 7.41992188,16.0319062 7.41992188,15.25 C7.41992188,14.4678726 8.05403134,13.8339844 8.8359375,13.8339844 C9.61806489,13.8339844 10.2519531,14.4678726 10.2519531,15.25 Z" id="Shape"></path>
            </g>
        </g>
    </g>
</svg>