<svg enable-background="new 0 0 31 31" viewBox="0 0 31 31" xmlns="http://www.w3.org/2000/svg" xmlns:xlink="http://www.w3.org/1999/xlink"><linearGradient id="a" gradientTransform="matrix(29 0 0 -29 3557 8796.4922)" gradientUnits="userSpaceOnUse" x1="-122.1552" x2="-122.1552" y1="303.3015" y2="302.3015"><stop offset="0" stop-color="#4db9ec"/><stop offset="1" stop-color="#5c6ddd"/></linearGradient><path d="m14.5.8c-8 0-14.5 6.4-14.5 14.5 0 2.5.7 5 1.9 7.2l-1.9 5.8c-.1.4 0 .8.3 1.1s.7.4 1.1.3l5.8-1.9c2.2 1.3 4.7 1.9 7.2 1.9 8 0 14.5-6.5 14.5-14.5.1-8-6.4-14.4-14.4-14.4zm0 26.7c-2.3 0-4.5-.6-6.5-1.9-.3-.2-.6-.2-.9-.1l-4.2 1.3 1.3-4.2c.1-.3.1-.7-.1-.9-1.2-1.9-1.9-4.2-1.9-6.5.1-6.7 5.6-12.2 12.3-12.2s12.2 5.5 12.2 12.2-5.5 12.3-12.2 12.3zm1.4-12.2c0 .8-.6 1.4-1.4 1.4s-1.4-.6-1.4-1.4.6-1.4 1.4-1.4 1.4.6 1.4 1.4zm5.7 0c0 .8-.6 1.4-1.4 1.4s-1.4-.6-1.4-1.4.6-1.4 1.4-1.4 1.4.6 1.4 1.4zm-11.3 0c0 .8-.6 1.4-1.4 1.4s-1.4-.6-1.4-1.4.6-1.4 1.4-1.4c.7-.1 1.4.6 1.4 1.4z" fill="url(#a)" transform="translate(1 .25)"/></svg>