<svg height="20" viewBox="0 0 22 20" width="22" xmlns="http://www.w3.org/2000/svg"><g fill="#fff" transform="translate(1.296296)"><path d="m9.74235105 0c-5.52285157 0-10 4.47714844-10 10 0 5.5228516 4.47714843 10 10 10 5.52285155 0 9.99999995-4.4771484 9.99999995-10 0-5.52285156-4.4771484-10-9.99999995-10zm0 18.75c-4.8325 0-8.75-3.9175-8.75-8.75s3.9175-8.75 8.75-8.75c4.83249995 0 8.74999995 3.9175 8.74999995 8.75s-3.9175 8.75-8.74999995 8.75z"/><circle cx="9.742351" cy="10" r="1.304348"/><circle cx="14.090177" cy="10" r="1.304348"/><circle cx="5.394525" cy="10" r="1.304348"/></g></svg>