<svg height="306" viewBox="0 0 520.36 433.46" width="406" xmlns="http://www.w3.org/2000/svg" xmlns:xlink="http://www.w3.org/1999/xlink"><linearGradient id="a" gradientUnits="userSpaceOnUse" x1="349.43" x2="347.51" y1="357.77" y2="189.51"><stop offset="0" stop-color="#010101" stop-opacity="0"/><stop offset=".95" stop-color="#010101"/></linearGradient><linearGradient id="b" x1="250.93" x2="307.4" xlink:href="#a" y1="189.7" y2="189.7"/><linearGradient id="c" x1="375.32" x2="365.09" xlink:href="#a" y1="148.39" y2="322.36"/><linearGradient id="d" x1="251.27" x2="252.55" xlink:href="#a" y1="219.46" y2="241.22"/><linearGradient id="e" gradientUnits="userSpaceOnUse" x1="104.78" x2="141.26" y1="151.5" y2="130.93"><stop offset="0" stop-color="#fff" stop-opacity="0"/><stop offset=".95" stop-color="#fff"/></linearGradient><linearGradient id="f" x1="143.49" x2="127.72" xlink:href="#e" y1="123.37" y2="142.85"/><linearGradient id="g" gradientTransform="matrix(-1 0 0 1 548.7 0)" x1="281.2" x2="317.68" xlink:href="#e" y1="142.04" y2="121.46"/><linearGradient id="h" gradientTransform="matrix(-1 0 0 1 548.7 0)" x1="319.91" x2="304.13" xlink:href="#e" y1="113.91" y2="133.38"/><linearGradient id="i" x1="171.84" x2="169.37" xlink:href="#e" y1="130" y2="234.11"/><linearGradient id="j" gradientTransform="matrix(.66887116 -.74337835 .74337835 .66887116 -843.27 256.71)" x1="768.3" x2="744.23" xlink:href="#e" y1="668.31" y2="697.88"/><linearGradient id="k" x1="208.09" x2="217.45" xlink:href="#e" y1="137.27" y2="129.76"/><clipPath id="l" transform="translate(-17.43 -10.2)"><path d="m258.26 232.1 66.63 12.19v-61.1a28.23 28.23 0 0 0 -28.23-28.19c-15.6 0-30.6 15.66-30.6 31.25z"/></clipPath><linearGradient id="m" gradientTransform="matrix(.84348521 -.5371524 .5371524 .84348521 -621.71 -30.83)" x1="682.22" x2="635.71" xlink:href="#e" y1="677.64" y2="720.72"/><linearGradient id="n" gradientTransform="matrix(.84348521 -.5371524 .5371524 .84348521 -621.71 -30.83)" x1="678.3" x2="656.45" xlink:href="#e" y1="677.39" y2="704.23"/><linearGradient id="o" gradientTransform="matrix(.84348521 -.5371524 .5371524 .84348521 -621.71 -30.83)" x1="676.96" x2="642.98" xlink:href="#e" y1="647.38" y2="678.85"/><linearGradient id="p" gradientTransform="matrix(.84348521 -.5371524 .5371524 .84348521 -621.71 -30.83)" x1="674.09" x2="658.13" xlink:href="#e" y1="647.19" y2="666.8"/><path d="m537.54 339.85a48.76 48.76 0 0 1 -1.5 8.31 71 71 0 0 1 -7.51 18c-19.19 33.49-56.78 52.85-94.59 60.77s-76.87 6.18-115.45 7.95c-52.12 2.36-104.1 11.11-156.22 8.24a352.33 352.33 0 0 1 -73.07-11.88c-115.11 0-58.83-175.78-52.22-242.42 2.85-28.71 6.19-58.8 22.58-82.55 19.38-28.09 53.7-42.11 87.28-48.2s68.16-5.78 101.51-12.78c54.55-11.44 107.28-42.29 162.32-33.54 54 8.63 97.79 60 97.76 114.7 0 38.37-17.41 76.52-7.42 114.73 8.69 33.19 39.87 62.57 36.53 98.67z" fill="#5a6cdc" opacity=".24" transform="translate(-17.43 -10.2)"/><path d="m536 348.16a71 71 0 0 1 -7.51 18c-19.19 33.49-56.78 52.85-94.59 60.77s-76.87 6.18-115.45 7.95c-52.12 2.36-104.1 11.11-156.22 8.24a352.33 352.33 0 0 1 -73.03-11.88c-16-4.35-49.06-10-58.74-24.87-6.05-9.25-7-26.58-7.25-41.18 3.62.57 7.22 1.43 10.38 1.73 10.71 1 21.55 1.1 32.29 1.43q34.13 1.09 68.28 1.46 136 1.45 271.8-8.94 65.16-4.99 130.04-12.71z" fill="#5a6cdc" opacity=".24" transform="translate(-17.43 -10.2)"/><path d="m335.97 220.61h25.59v157.81h-25.59z" fill="#5a6cdc"/><path d="m335.97 220.61h25.59v157.81h-25.59z" fill="url(#a)"/><path d="m439.15 182.37v62.53h-175.32v-62.53a32.59 32.59 0 0 1 32.63-32.59h110.06a32.62 32.62 0 0 1 32.63 32.59z" fill="#5a6cdc" transform="translate(-17.43 -10.2)"/><path d="m279.16 145a28.23 28.23 0 0 1 28.23 28.23v61.1a0 0 0 0 1 0 0h-56.46a0 0 0 0 1 0 0v-61.1a28.23 28.23 0 0 1 28.23-28.23z" fill="url(#b)"/><path d="m439.16 182.36v62.53h-108v-66.19c-3.23-17.29-15.4-25.24-25.42-28.9h100.8a32.6 32.6 0 0 1 32.62 32.56z" fill="url(#c)" transform="translate(-17.43 -10.2)"/><rect fill="#5a6cdc" height="8.97" rx="4.49" width="123.6" x="190.1" y="225.73"/><rect fill="url(#d)" height="8.97" rx="4.49" width="123.6" x="190.1" y="225.73"/><g transform="translate(-17.43 -10.2)"><path d="m298.41 374.78c-14.89 2.67-29.67 6.11-44.72 7.57-9.78.95-20.57 1.44-27.65 8.24a9.24 9.24 0 0 0 -3.16 5.62c-.4 4.71 4.51 8 8.91 9.72 12.82 5.07 26.76 6.52 40.53 7.4 22.42 1.42 44.9 1.45 67.37 1.47l66.93.06c19.75 0 41.68-.8 55.84-14.59 2.8-2.73 5.27-6.09 5.75-10 .78-6.28-4-12.2-9.75-14.83-10-4.56-24.93-3.61-35.81-4.82q-21.22-2.34-42.61-2.59a434.59 434.59 0 0 0 -81.63 6.75z" fill="#5a6cdc" opacity=".24"/><path d="m392.22 191.86c-.24.8-1 3.23-1.15 4.11l-2.4 8.86a4.44 4.44 0 0 0 -.16 1.19.92.92 0 0 0 1 1 4.43 4.43 0 0 0 2.52-1 9.75 9.75 0 0 0 3.23-7.54 10 10 0 0 0 -4.59-8.66 14.09 14.09 0 0 0 -7.14-1.68c-8.42 0-14.32 5.59-14.32 13.49 0 7.66 5.3 12.68 13.32 12.68a21.56 21.56 0 0 0 6.1-.88 17.1 17.1 0 0 0 4.47-2.11l2.43 3.51a18.76 18.76 0 0 1 -5 2.31 28.72 28.72 0 0 1 -8.46 1.28c-5.62 0-10-1.6-13.16-4.75a16.41 16.41 0 0 1 -4.63-11.8 17.23 17.23 0 0 1 4.87-12.45c3.67-3.67 8.49-5.47 14.68-5.47 9.29 0 15.91 6 15.91 14.32a13.43 13.43 0 0 1 -3.79 9.62 10.73 10.73 0 0 1 -7.46 3.27 3.94 3.94 0 0 1 -3.43-1.56 2.7 2.7 0 0 1 -.35-1.23 6.53 6.53 0 0 1 -5.35 2.51c-3.95 0-6.46-2.95-6.46-7.5 0-6.74 4.43-12.33 9.73-12.33 2.23 0 3.35.56 4.43 2.24l.4-1.4zm-8.22 11.85a14.9 14.9 0 0 0 1.59-6.14c0-1.64-.92-2.75-2.31-2.75s-2.91 1-3.91 2.87a13.79 13.79 0 0 0 -1.6 6c0 2.11.8 3.23 2.32 3.23s2.91-1.18 3.91-3.21z" fill="#5a6cdc"/><path d="m152.49 145.53c-.24-4.16.25-8.52-1.46-12.32a15.64 15.64 0 0 0 -7.66-7.28 53.85 53.85 0 0 0 -10.26-3.3 228.75 228.75 0 0 1 -26.65-8.63c.88 6.22 6 10.88 10.71 15a9 9 0 0 0 -3 1.26 3.07 3.07 0 0 0 -1.32 2.81 4 4 0 0 0 1.24 2 15.14 15.14 0 0 0 7.14 4l-7.33 3a1.66 1.66 0 0 0 -.88.62c-.32.57.11 1.26.58 1.72 3.52 3.44 9.15 3.08 14 2.49a18.21 18.21 0 0 0 -6.19 4.82 1.08 1.08 0 0 0 -.34.88c.11.39.58.52 1 .58a22.53 22.53 0 0 0 12.64-1.89 8.57 8.57 0 0 0 -2.62 3.48 1.05 1.05 0 0 0 0 1 1.09 1.09 0 0 0 .74.29 13.89 13.89 0 0 0 9.85-2.84c.12 2.52 2.26 4.58 4.65 5.4a19 19 0 0 0 7.49.49c5-.35 2-3.23.29-5.36a14.64 14.64 0 0 1 -2.62-8.22z" fill="#5a6cdc"/><path d="m152.49 145.53c-.24-4.16.25-8.52-1.46-12.32a15.64 15.64 0 0 0 -7.66-7.28 53.85 53.85 0 0 0 -10.26-3.3 228.75 228.75 0 0 1 -26.65-8.63c.88 6.22 6 10.88 10.71 15a9 9 0 0 0 -3 1.26 3.07 3.07 0 0 0 -1.32 2.81 4 4 0 0 0 1.24 2 15.14 15.14 0 0 0 7.14 4l-7.33 3a1.66 1.66 0 0 0 -.88.62c-.32.57.11 1.26.58 1.72 3.52 3.44 9.15 3.08 14 2.49a18.21 18.21 0 0 0 -6.19 4.82 1.08 1.08 0 0 0 -.34.88c.11.39.58.52 1 .58a22.53 22.53 0 0 0 12.64-1.89 8.57 8.57 0 0 0 -2.62 3.48 1.05 1.05 0 0 0 0 1 1.09 1.09 0 0 0 .74.29 13.89 13.89 0 0 0 9.85-2.84c.12 2.52 2.26 4.58 4.65 5.4a19 19 0 0 0 7.49.49c5-.35 2-3.23.29-5.36a14.64 14.64 0 0 1 -2.62-8.22z" fill="url(#e)"/><path d="m145.05 145.21c-.16-2.84.17-5.82-1-8.41a10.67 10.67 0 0 0 -5.24-5 37.23 37.23 0 0 0 -7-2.26 154.65 154.65 0 0 1 -18.21-5.9c.59 4.25 4.06 7.43 7.31 10.23a6.17 6.17 0 0 0 -2 .87 2.08 2.08 0 0 0 -.9 1.92 2.68 2.68 0 0 0 .84 1.36 10.47 10.47 0 0 0 4.88 2.74l-5 2.06a1.14 1.14 0 0 0 -.61.43c-.22.39.08.86.4 1.17 2.41 2.36 6.26 2.11 9.6 1.7a12.51 12.51 0 0 0 -4.23 3.3.72.72 0 0 0 -.23.6c.07.26.39.35.66.39a15.28 15.28 0 0 0 8.64-1.29 5.91 5.91 0 0 0 -1.79 2.38c-.09.23-.17.52 0 .71a.69.69 0 0 0 .5.19 9.5 9.5 0 0 0 6.74-1.93 4.41 4.41 0 0 0 3.17 3.68 13.14 13.14 0 0 0 5.12.34c3.45-.24 1.35-2.21.2-3.67a10 10 0 0 1 -1.85-5.61z" fill="#5a6cdc"/><path d="m145.05 145.21c-.16-2.84.17-5.82-1-8.41a10.67 10.67 0 0 0 -5.24-5 37.23 37.23 0 0 0 -7-2.26 154.65 154.65 0 0 1 -18.21-5.9c.59 4.25 4.06 7.43 7.31 10.23a6.17 6.17 0 0 0 -2 .87 2.08 2.08 0 0 0 -.9 1.92 2.68 2.68 0 0 0 .84 1.36 10.47 10.47 0 0 0 4.88 2.74l-5 2.06a1.14 1.14 0 0 0 -.61.43c-.22.39.08.86.4 1.17 2.41 2.36 6.26 2.11 9.6 1.7a12.51 12.51 0 0 0 -4.23 3.3.72.72 0 0 0 -.23.6c.07.26.39.35.66.39a15.28 15.28 0 0 0 8.64-1.29 5.91 5.91 0 0 0 -1.79 2.38c-.09.23-.17.52 0 .71a.69.69 0 0 0 .5.19 9.5 9.5 0 0 0 6.74-1.93 4.41 4.41 0 0 0 3.17 3.68 13.14 13.14 0 0 0 5.12.34c3.45-.24 1.35-2.21.2-3.67a10 10 0 0 1 -1.85-5.61z" fill="url(#f)"/><path d="m219.8 136.07c.24-4.16-.25-8.52 1.45-12.32a15.64 15.64 0 0 1 7.67-7.29 54.33 54.33 0 0 1 10.26-3.3 228.54 228.54 0 0 0 26.64-8.63c-.87 6.21-5.95 10.87-10.7 15a8.87 8.87 0 0 1 3 1.27 3 3 0 0 1 1.32 2.8 3.87 3.87 0 0 1 -1.23 2 15.22 15.22 0 0 1 -7.14 4l7.32 3a1.66 1.66 0 0 1 .89.63c.32.57-.12 1.26-.58 1.71-3.53 3.45-9.16 3.09-14.05 2.49a18.36 18.36 0 0 1 6.19 4.83 1 1 0 0 1 .33.88c-.1.38-.57.51-1 .57a22.55 22.55 0 0 1 -12.64-1.88 8.53 8.53 0 0 1 2.63 3.48 1 1 0 0 1 0 1 1 1 0 0 1 -.74.28 13.91 13.91 0 0 1 -9.85-2.83c-.11 2.52-2.26 4.58-4.64 5.4a19.22 19.22 0 0 1 -7.49.48c-5.06-.34-2-3.23-.29-5.36 1.85-2.28 2.48-5.37 2.65-8.21z" fill="#5a6cdc"/><path d="m219.8 136.07c.24-4.16-.25-8.52 1.45-12.32a15.64 15.64 0 0 1 7.67-7.29 54.33 54.33 0 0 1 10.26-3.3 228.54 228.54 0 0 0 26.64-8.63c-.87 6.21-5.95 10.87-10.7 15a8.87 8.87 0 0 1 3 1.27 3 3 0 0 1 1.32 2.8 3.87 3.87 0 0 1 -1.23 2 15.22 15.22 0 0 1 -7.14 4l7.32 3a1.66 1.66 0 0 1 .89.63c.32.57-.12 1.26-.58 1.71-3.53 3.45-9.16 3.09-14.05 2.49a18.36 18.36 0 0 1 6.19 4.83 1 1 0 0 1 .33.88c-.1.38-.57.51-1 .57a22.55 22.55 0 0 1 -12.64-1.88 8.53 8.53 0 0 1 2.63 3.48 1 1 0 0 1 0 1 1 1 0 0 1 -.74.28 13.91 13.91 0 0 1 -9.85-2.83c-.11 2.52-2.26 4.58-4.64 5.4a19.22 19.22 0 0 1 -7.49.48c-5.06-.34-2-3.23-.29-5.36 1.85-2.28 2.48-5.37 2.65-8.21z" fill="url(#g)"/><path d="m227.24 135.75c.16-2.84-.17-5.82 1-8.42a10.72 10.72 0 0 1 5.24-5 37 37 0 0 1 7-2.25 157.2 157.2 0 0 0 18.21-5.91c-.6 4.25-4.07 7.44-7.32 10.24a6.06 6.06 0 0 1 2 .86 2.1 2.1 0 0 1 .91 1.92 2.72 2.72 0 0 1 -.85 1.37 10.35 10.35 0 0 1 -4.88 2.73l5 2.07a1.09 1.09 0 0 1 .6.42c.22.39-.08.87-.39 1.18-2.41 2.35-6.26 2.1-9.6 1.7a12.35 12.35 0 0 1 4.22 3.3.68.68 0 0 1 .23.6c-.07.26-.39.35-.66.39a15.39 15.39 0 0 1 -8.64-1.29 5.87 5.87 0 0 1 1.8 2.38.73.73 0 0 1 0 .7.71.71 0 0 1 -.51.2 9.53 9.53 0 0 1 -6.73-1.94 4.44 4.44 0 0 1 -3.17 3.69 13 13 0 0 1 -5.13.33c-3.45-.23-1.34-2.21-.19-3.66a10.12 10.12 0 0 0 1.86-5.61z" fill="#5a6cdc"/><path d="m227.24 135.75c.16-2.84-.17-5.82 1-8.42a10.72 10.72 0 0 1 5.24-5 37 37 0 0 1 7-2.25 157.2 157.2 0 0 0 18.21-5.91c-.6 4.25-4.07 7.44-7.32 10.24a6.06 6.06 0 0 1 2 .86 2.1 2.1 0 0 1 .91 1.92 2.72 2.72 0 0 1 -.85 1.37 10.35 10.35 0 0 1 -4.88 2.73l5 2.07a1.09 1.09 0 0 1 .6.42c.22.39-.08.87-.39 1.18-2.41 2.35-6.26 2.1-9.6 1.7a12.35 12.35 0 0 1 4.22 3.3.68.68 0 0 1 .23.6c-.07.26-.39.35-.66.39a15.39 15.39 0 0 1 -8.64-1.29 5.87 5.87 0 0 1 1.8 2.38.73.73 0 0 1 0 .7.71.71 0 0 1 -.51.2 9.53 9.53 0 0 1 -6.73-1.94 4.44 4.44 0 0 1 -3.17 3.69 13 13 0 0 1 -5.13.33c-3.45-.23-1.34-2.21-.19-3.66a10.12 10.12 0 0 0 1.86-5.61z" fill="url(#h)"/></g><path d="m150.8 151.13h75.31v46.42h-75.31z" fill="#5a6cdc" transform="matrix(.99468486 -.10296614 .10296614 .99468486 -34.38 10.14)"/><path d="m210.87 183.35-74.91 7.75-4.78-46.17 76.28-8.49z" fill="url(#i)"/><path d="m131.18 144.93 41.53 34.25 33.73-41.35z" fill="url(#j)"/><circle cx="208.4" cy="136.71" fill="#5a6cdc" r="10.49"/><circle cx="208.61" cy="136.85" fill="url(#k)" r="10.49"/><g clip-path="url(#l)"><path d="m293 193.86h68.36v42.14h-68.36z" fill="#5a6cdc" transform="matrix(.98593776 .16711291 -.16711291 .98593776 23.11 -61.87)"/><path d="m339.93 231.22-67.41-11.43 7.05-41.54 68.78 11.11z" fill="url(#m)"/><path d="m279.57 178.25 27.99 40.05 39.56-27.97z" fill="url(#n)"/><path d="m283.66 168.64h49.94v30.79h-49.94z" fill="#5a6cdc" transform="matrix(.98593776 .16711291 -.16711291 .98593776 17.68 -59.21)"/><path d="m313.25 193.18-49.24-8.35 5.15-30.35 50.24 8.12z" fill="url(#o)"/><path d="m269.16 154.48 20.45 29.26 28.89-20.43z" fill="url(#p)"/></g></svg>