<svg enable-background="new 0 0 512 512" viewBox="0 0 512 512" xmlns="http://www.w3.org/2000/svg" xmlns:xlink="http://www.w3.org/1999/xlink"><linearGradient id="a"><stop offset="0" stop-color="#51b9eb"/><stop offset="1" stop-color="#596edc"/></linearGradient><linearGradient id="b" gradientUnits="userSpaceOnUse" x1="209.0729" x2="220.0729" xlink:href="#a" y1="3.8259" y2="514.8259"/><linearGradient id="c" gradientUnits="userSpaceOnUse" x1="248.7339" x2="259.7339" xlink:href="#a" y1="2.9721" y2="513.9721"/><linearGradient id="d" gradientUnits="userSpaceOnUse" x1="209.0725" x2="220.0725" xlink:href="#a" y1="3.8259" y2="514.8259"/><linearGradient id="e" gradientUnits="userSpaceOnUse" x1="205.6087" x2="216.6087" xlink:href="#a" y1="3.9005" y2="514.9005"/><g clip-rule="evenodd" fill-rule="evenodd"><path d="m249 61.3c-5.4-1.2-10.7 2.1-12 7.5s2.1 10.7 7.5 12c24.8 5.6 47.5 18.2 65.5 36.3 53.2 53.2 53.2 139.7 0 192.9s-139.7 53.2-192.9 0-53.2-139.7 0-192.9c15.3-15.3 33.3-26.4 53.7-33.1 5.2-1.7 8.1-7.4 6.4-12.6s-7.4-8.1-12.6-6.4c-23.4 7.7-44.1 20.5-61.6 38-61 61-61 160.2 0 221.1 30.5 30.5 70.5 45.7 110.6 45.7 40 0 80.1-15.2 110.6-45.7 61-61 61-160.2 0-221.1-20.8-20.7-46.8-35.1-75.2-41.7z" fill="url(#b)"/><path d="m498.4 432.7-104.5-104.5c53.6-84.1 41.9-194.5-29.3-265.6-40.3-40.4-94-62.6-151-62.6-57.1 0-110.7 22.2-151 62.6-40.4 40.3-62.6 93.9-62.6 151s22.2 110.7 62.6 151c40.3 40.3 94 62.6 151 62.6 40.9 0 80.4-11.5 114.6-33.3l104.5 104.5c8.7 8.8 20.4 13.6 32.9 13.6 12.4 0 24.1-4.8 32.9-13.6 18-18.1 18-47.6-.1-65.7zm-14.1 51.6c-5 5-11.6 7.7-18.7 7.7s-13.8-2.7-18.8-7.7l-110.3-110.3c-1.9-1.9-4.5-2.9-7.1-2.9-2 0-4 .6-5.7 1.8-32.4 22.5-70.5 34.4-110.2 34.4-51.7 0-100.3-20.1-136.9-56.7-75.4-75.6-75.4-198.4.1-273.9 36.6-36.6 85.2-56.7 136.9-56.7s100.3 20.1 136.9 56.7c66.3 66.3 75.7 170.2 22.3 247.1-2.8 4-2.3 9.3 1.1 12.7l110.3 110.3c10.4 10.3 10.4 27.2.1 37.5z" fill="url(#c)"/><path d="m273.8 153.4c-3.9-3.9-10.2-3.9-14.1 0l-46.1 46.1-46.1-46.1c-3.9-3.9-10.2-3.9-14.1 0s-3.9 10.2 0 14.1l46.1 46.1-46.1 46.1c-3.9 3.9-3.9 10.2 0 14.1 1.9 1.9 4.5 2.9 7.1 2.9s5.1-1 7.1-2.9l46.1-46.1 46.1 46.1c1.9 1.9 4.5 2.9 7.1 2.9s5.1-1 7.1-2.9c3.9-3.9 3.9-10.2 0-14.1l-46.1-46.1 46.1-46.1c3.7-3.9 3.7-10.2-.2-14.1z" fill="url(#d)"/><path d="m207 77.3c5.5 0 10-4.5 10-10s-4.5-10-10-10-10 4.5-10 10 4.5 10 10 10z" fill="url(#e)"/></g></svg>