<svg height="31" viewBox="0 0 25 31" width="25" xmlns="http://www.w3.org/2000/svg" xmlns:xlink="http://www.w3.org/1999/xlink"><linearGradient id="a" x1="50%" x2="50%" y1="0%" y2="100%"><stop offset="0" stop-color="#4db9ec"/><stop offset="1" stop-color="#5c6ddd"/></linearGradient><g fill="url(#a)" transform="translate(0 .75)"><path d="m21.1111114 15.138668v-2.7109336c0-3.95476174-2.578381-7.30669729-6.1110924-8.40150393v-1.22740235c0-1.40542382-1.1214966-2.54882812-2.4999923-2.54882812-1.3784958 0-2.4999924 1.1434043-2.4999924 2.54882812v1.22740235c-3.53276697 1.09480664-6.11109242 4.44668555-6.11109242 8.40150393v2.7109336c0 3.4738828-1.2987738 6.767875-3.65704437 9.2752422-.2311104.245707-.29605465.6082636-.16505505.921373s.43266535.5162793.76655321.5162793h7.58381014c.38710993 1.9366562 2.07066029 3.3984375 4.08282089 3.3984375 2.012216 0 3.6956553-1.4617813 4.0828208-3.3984375h7.5838101c.3338879 0 .6354981-.2031699.7664977-.5162793s.0660553-.675666-.1649995-.921373c-2.3582706-2.5073672-3.6570444-5.8014161-3.6570444-9.2752422zm-9.4444155-12.33983988c0-.4684746.3738322-.84960937.8333308-.84960937.4594985 0 .8333307.38113477.8333307.84960937v.89084375c-.2742769-.02696093-.5522205-.04123437-.8333307-.04123437-.2811103 0-.5590539.01427344-.8333308.04123437zm.8333308 24.75195308c-1.0863856 0-2.0126606-.71033-2.3566595-1.6992187h4.7133189c-.3439989.9888887-1.2702739 1.6992187-2.3566594 1.6992187zm-9.87052541-3.3984375c1.89782753-2.5936875 2.92610216-5.7324843 2.92610216-9.0136757v-2.7109336c0-3.9039551 3.11526825-7.08007815 6.94442325-7.08007815 3.8291549 0 6.9444232 3.17612305 6.9444232 7.08007815v2.7109336c0 3.2811914 1.0282746 6.4199882 2.9261577 9.0136757z"/><path d="m23.0329481 13.3255946c0 .5105183.4403574.9244054.983526.9244054s.9835259-.4138871.9835259-.9244054c0-3.70378406-1.5345627-7.18589577-4.3210229-9.80485938-.3840341-.36094948-1.0068027-.36101111-1.3909024 0-.3840996.3610111-.3840996.94628294 0 1.30729405 2.4149496 2.2697849 3.7448734 5.28759863 3.7448734 8.49756533z"/><path d="m.98352594 14.25c.54316859 0 .98352594-.4138885.98352594-.9244086 0-3.2099164 1.32998935-6.22774065 3.74487337-8.4975335.38409967-.36101237.38409967-.94628626 0-1.30729862-.38403409-.36101237-1.00680272-.36101237-1.39090238 0-2.78646013 2.61897278-4.32102287 6.10103505-4.32102287 9.80483212 0 .5105201.44035735.9244086.98352594.9244086z"/></g></svg>