<?xml version="1.0" encoding="UTF-8"?>
<svg width="25px" height="31px" viewBox="0 0 25 31" version="1.1" xmlns="http://www.w3.org/2000/svg" xmlns:xlink="http://www.w3.org/1999/xlink">
    <title>notif</title>
    <defs>
        <linearGradient x1="50%" y1="0%" x2="50%" y2="100%" id="linearGradient-1">
            <stop stop-color="#4DB9EC" offset="0%"></stop>
            <stop stop-color="#5C6DDD" offset="100%"></stop>
        </linearGradient>
        <linearGradient x1="50%" y1="0%" x2="50%" y2="100%" id="linearGradient-2">
            <stop stop-color="#4DB9EC" offset="0%"></stop>
            <stop stop-color="#5C6DDD" offset="100%"></stop>
        </linearGradient>
    </defs>
    <g id="Page-1" stroke="none" stroke-width="1" fill="none" fill-rule="evenodd">
        <g id="Dashboard-user-desktop" transform="translate(-575.000000, -187.000000)" fill-rule="nonzero">
            <g id="notif" transform="translate(575.000000, 187.750000)">
                <path d="M21.1111114,15.138668 L21.1111114,12.4277344 C21.1111114,8.47297266 18.5327304,5.12103711 15.000019,4.02623047 L15.000019,2.79882812 C15.000019,1.3934043 13.8785224,0.25 12.5000267,0.25 C11.1215309,0.25 10.0000343,1.3934043 10.0000343,2.79882812 L10.0000343,4.02623047 C6.46726733,5.12103711 3.88894188,8.47291602 3.88894188,12.4277344 L3.88894188,15.138668 C3.88894188,18.6125508 2.59016808,21.906543 0.231897513,24.4139102 C0.000787108422,24.6596172 -0.0641571374,25.0221738 0.0668424619,25.3352832 C0.197842061,25.6483926 0.499507805,25.8515625 0.833395673,25.8515625 L8.41720581,25.8515625 C8.80431574,27.7882187 10.4878661,29.25 12.5000267,29.25 C14.5122427,29.25 16.195682,27.7882187 16.5828475,25.8515625 L24.1666576,25.8515625 C24.5005455,25.8515625 24.8021557,25.6483926 24.9331553,25.3352832 C25.0641549,25.0221738 24.9992106,24.6596172 24.7681558,24.4139102 C22.4098852,21.906543 21.1111114,18.6124941 21.1111114,15.138668 Z M11.6666959,2.79882812 C11.6666959,2.33035352 12.0405281,1.94921875 12.5000267,1.94921875 C12.9595252,1.94921875 13.3333574,2.33035352 13.3333574,2.79882812 L13.3333574,3.68967187 C13.0590805,3.66271094 12.7811369,3.6484375 12.5000267,3.6484375 C12.2189164,3.6484375 11.9409728,3.66271094 11.6666959,3.68967187 L11.6666959,2.79882812 Z M12.5000267,27.5507812 C11.4136411,27.5507812 10.4873661,26.8404512 10.1433672,25.8515625 L14.8566861,25.8515625 C14.5126872,26.8404512 13.5864122,27.5507812 12.5000267,27.5507812 L12.5000267,27.5507812 Z M2.62950129,24.1523437 C4.52732882,21.5586562 5.55560345,18.4198594 5.55560345,15.138668 L5.55560345,12.4277344 C5.55560345,8.5237793 8.6708717,5.34765625 12.5000267,5.34765625 C16.3291816,5.34765625 19.4444499,8.5237793 19.4444499,12.4277344 L19.4444499,15.138668 C19.4444499,18.4198594 20.4727245,21.5586562 22.3706076,24.1523437 L2.62950129,24.1523437 Z" id="Shape" fill="url(#linearGradient-1)"></path>
                <path d="M23.0329481,13.3255946 C23.0329481,13.8361129 23.4733055,14.25 24.0164741,14.25 C24.5596427,14.25 25,13.8361129 25,13.3255946 C25,9.62181054 23.4654373,6.13969883 20.6789771,3.52073522 C20.294943,3.15978574 19.6721744,3.15972411 19.2880747,3.52073522 C18.9039751,3.88174632 18.9039751,4.46701816 19.2880747,4.82802927 C21.7030243,7.09781417 23.0329481,10.1156279 23.0329481,13.3255946 L23.0329481,13.3255946 Z" id="Path" fill="url(#linearGradient-2)"></path>
                <path d="M0.98352594,14.25 C1.52669453,14.25 1.96705188,13.8361115 1.96705188,13.3255914 C1.96705188,10.115675 3.29704123,7.09785075 5.71192525,4.8280579 C6.09602492,4.46704553 6.09602492,3.88177164 5.71192525,3.52075928 C5.32789116,3.15974691 4.70512253,3.15974691 4.32102287,3.52075928 C1.53456274,6.13973206 0,9.62179433 0,13.3255914 C0,13.8361115 0.440357348,14.25 0.98352594,14.25 Z" id="Path" fill="url(#linearGradient-2)"></path>
            </g>
        </g>
    </g>
</svg>