<svg enable-background="new 0 0 322.3 306" viewBox="0 0 322.3 306" xmlns="http://www.w3.org/2000/svg" xmlns:xlink="http://www.w3.org/1999/xlink"><linearGradient id="a"><stop offset=".01"/><stop offset=".08" stop-opacity=".69"/><stop offset=".21" stop-opacity=".32"/><stop offset="1" stop-opacity="0"/></linearGradient><linearGradient id="b" gradientTransform="matrix(1.1291 .03387329 -.03387329 1.1291 59.4148 -137.519)" gradientUnits="userSpaceOnUse" x1="5.4386" x2="53.5986" xlink:href="#a" y1="286.2521" y2="396.5521"/><linearGradient id="c"><stop offset=".01"/><stop offset=".13" stop-opacity=".69"/><stop offset=".25" stop-opacity=".32"/><stop offset="1" stop-opacity="0"/></linearGradient><linearGradient id="d" gradientTransform="matrix(.9485 .6097 -.6097 .9485 1750.3185 -78.8067)" gradientUnits="userSpaceOnUse" x1="-1102.368" x2="-1182.608" xlink:href="#c" y1="985.6017" y2="1053.9617"/><linearGradient id="e" gradientTransform="matrix(.9485 .6097 -.6097 .9485 233.1113 -1039.837)" gradientUnits="userSpaceOnUse" x1="414.6548" x2="535.5048" xlink:href="#c" y1="1040.1852" y2="928.5151"/><linearGradient id="f" gradientUnits="userSpaceOnUse" x1="251.58125741" x2="43.71394741" xlink:href="#a" y1="199.58618756" y2="309.94442156"/><linearGradient id="g" gradientUnits="userSpaceOnUse" x1="260.24032531" x2="52.37301531" xlink:href="#a" y1="215.88835918" y2="326.24659318"/><linearGradient id="h" gradientUnits="userSpaceOnUse" x1="261.13287886" x2="53.26556886" xlink:href="#a" y1="217.57162146" y2="327.91856446"/><linearGradient id="i" gradientUnits="userSpaceOnUse" x1="169.82775572" x2="199.77148772" xlink:href="#a" y1="190.20054381" y2="271.19088681"/><linearGradient id="j" gradientUnits="userSpaceOnUse" x1="145.92278925" x2="225.19690025" xlink:href="#a" y1="204.08339286" y2="320.99051977"/><linearGradient id="k" gradientUnits="userSpaceOnUse" x1="154.81772614" x2="182.5570033" xlink:href="#a" y1="218.96752779" y2="299.15982291"/><linearGradient id="l" gradientUnits="userSpaceOnUse" x1="342.68506202" x2="-103.85129307" xlink:href="#a" y1="96.66183505" y2="256.62143205"/><linearGradient id="m" gradientUnits="userSpaceOnUse" x1="165.42324953" x2="181.63712553" xlink:href="#a" y1="-25.78635011" y2="310.87739689"/><linearGradient id="n" gradientUnits="userSpaceOnUse" x1="140.87040548" x2="250.22374048" xlink:href="#a" y1="-10.71297802" y2="331.35915798"/><linearGradient id="o" gradientUnits="userSpaceOnUse" x1="147.77970711" x2="225.98128602" xlink:href="#a" y1="49.07297989" y2="320.88122289"/><linearGradient id="p" gradientUnits="userSpaceOnUse" x1="86.34131135" x2="304.33664835" xlink:href="#a" y1="71.66954528" y2="393.16936637"/><linearGradient id="q" gradientUnits="userSpaceOnUse" x1="92.6422539" x2="129.2476759" xlink:href="#c" y1="98.2499142" y2="132.0890412"/><linearGradient id="r" gradientUnits="userSpaceOnUse" x1="106.40982184" x2="119.20252484" xlink:href="#c" y1="102.59344899" y2="108.95028199"/><linearGradient id="s" gradientUnits="userSpaceOnUse" x1="95.95638822" x2="103.45361222" xlink:href="#c" y1="119.46141262" y2="102.59265862"/><linearGradient id="t" gradientUnits="userSpaceOnUse" x1="124.15758019" x2="132.26451819" xlink:href="#c" y1="40.22162626" y2="57.92602717"/><linearGradient id="u" gradientTransform="matrix(-1.1327 .00106607 .00106607 1.1327 -515.7031 238.6068)" gradientUnits="userSpaceOnUse" x1="-549.7446" x2="-504.2245" xlink:href="#a" y1="-179.568" y2="-160.1779"/><path d="m92.1 29.3c-5.7 7.1-10.4 15.3-15.4 23.1-18.7 29.4-41.9 54.6-58.3 86s-25.2 72.3-12.1 105.9c8.8 22.7 26.5 38.7 45.4 48.7 16.2 8.7 33.7 13.1 51.4 13 37-.5 71.2-22.5 107.4-31.9 16-4.2 32.5-5.9 48.3-11 11.2-3.6 22.2-8.9 31.6-17.3 25.8-23.2 35-67.4 27.3-105.3-7.6-37.9-29.5-69.7-55.1-93.2-43.6-39.8-126-73.8-170.5-18z" fill="#5a6ddc" opacity=".18"/><path d="m94.3 223.5-40.7-1.4 5.1 29.1 28.8.9z" fill="#5a6ddc"/><path d="m94.3 223.5-40.7-1.4 5.1 29.1 28.8.9z" fill="url(#b)"/><path d="m50.2 152.1c-1 2-1.5 4.3-1.4 6.6-.5 10.3-.4 20.8 2.7 30.6 4.5 14.4 15 26.1 25.3 37.3-.8-1.2 1.5-7.8 1.8-9.3.6-3 1.3-6.1 1.9-9.1 1-4.8 0-9.9-1.2-14.6-2.6-10.7-7.7-20.7-14.9-29-4.2-4.9-8.9-9.1-14.2-12.5z" fill="#5a6ddc"/><path d="m50.2 152.1c-1 2-1.5 4.3-1.4 6.6-.5 10.3-.4 20.8 2.7 30.6 4.5 14.4 15 26.1 25.3 37.3-.8-1.2 1.5-7.8 1.8-9.3.6-3 1.3-6.1 1.9-9.1 1-4.8 0-9.9-1.2-14.6-2.6-10.7-7.7-20.7-14.9-29-4.2-4.9-8.9-9.1-14.2-12.5z" fill="url(#d)"/><path d="m95.8 186.9c3.5-7.7 6.9-15.5 8.2-23.8s.1-17.4-4.9-24.1c-6.6 10-13.1 20-19.7 29.9-3.8 5.7-7.7 11.6-9.5 18.3-3.3 11.6-.4 29.5 7.4 39 4.4-3.8 6.5-12.4 8.9-17.8z" fill="#5a6ddc"/><path d="m95.8 186.9c3.5-7.7 6.9-15.5 8.2-23.8s.1-17.4-4.9-24.1c-6.6 10-13.1 20-19.7 29.9-3.8 5.7-7.7 11.6-9.5 18.3-3.3 11.6-.4 29.5 7.4 39 4.4-3.8 6.5-12.4 8.9-17.8z" fill="url(#e)"/><path d="m52.5 212.1 43.6 1.4c3.6.1 6.5 3.1 6.4 6.8-.1 3.6-3.1 6.5-6.8 6.4l-43.7-1.3c-3.6-.1-6.5-3.1-6.4-6.8.2-3.6 3.2-6.5 6.9-6.5z" fill="#5a6ddc"/><path d="m164.1 210.6 14 33 43.7 7.3-14-38.8z" fill="#5a6ddc"/><path d="m164.1 210.6 14 33 43.7 7.3-14-38.8z" fill="url(#f)"/><path d="m178.1 243.6-28.1 7.3 57.6 16.5 14.2-16.5z" fill="url(#g)"/><path d="m178.1 243.6-28.1 7.3 50.7 24.4 21.1-24.4z" fill="#5a6ddc"/><path d="m178.1 243.6-28.1 7.3 50.7 24.4 21.1-24.4z" fill="url(#h)"/><path d="m155.8 210.6 14 33 43.8 7.3-14.1-38.8z" fill="#5a6ddc"/><path d="m166.3 235.4 38.6-8.5-5.4-14.8-43.7-1.5z" fill="url(#i)"/><path d="m169.8 243.6-28.1 7.3 57.6 16.5 14.3-16.5z" fill="#5a6ddc"/><path d="m169.8 243.6-28.1 7.3 57.6 16.5 14.3-16.5z" fill="url(#j)"/><path d="m199.3 267.4 1.4 7.9-60.4-18.2 1.4-6.2z" fill="#5a6ddc"/><path d="m199.3 267.4 1.4 7.9-60.4-18.2 1.4-6.2z" fill="url(#k)"/><path d="m269.3 72.3v148.5c0 3.5-2.8 6.3-6.3 6.3h-.7l-166.5-18.6c-3.2-.3-5.6-3-5.6-6.3v-113c0-3.2 2.4-5.9 5.6-6.3l166.5-16.9c3.5-.4 6.6 2.1 7 5.6z" fill="#5a6ddc"/><path d="m269.3 72.3v148.5c0 3.5-2.8 6.3-6.3 6.3h-.7l-166.5-18.6c-3.2-.3-5.6-3-5.6-6.3v-113c0-3.2 2.4-5.9 5.6-6.3l166.5-16.9c3.5-.4 6.6 2.1 7 5.6z" fill="url(#l)"/><path d="m265.1 72.3v148.5c0 3.5-2.8 6.3-6.3 6.3h-.7l-166.5-18.6c-3.2-.3-5.6-3-5.6-6.3v-113c0-3.2 2.4-5.9 5.6-6.3l166.5-17c3.5-.3 6.6 2.2 6.9 5.6.1.4.1.6.1.8z" fill="#5a6ddc"/><path d="m94.3 192.7v-103.5l157.7-12.8v124.9z" fill="url(#m)"/><path d="m231.2 148.3h-94.8v-45.4l94.8-4.2z" fill="url(#n)"/><path d="m231.2 200.4-94.8-5v-42.4h94.8z" fill="url(#o)"/><path d="m265.1 202.2v18.6c0 3.5-2.8 6.3-6.3 6.3h-.7l-166.5-18.6c-3.2-.3-5.6-3-5.6-6.3v-9.6z" fill="url(#p)"/><path d="m114.5 107.7c0 1.4-2.3 2.8-3.5 3.2-.5.1-.9.2-1.4.4-.4.2-.7.7-.7 1.2.1.4.4.8.5 1.1.1.4 0 .8-.1 1.1-.4 1.4-2.2 2.3-2.6 3.7-2.4-.2-3.5 0-5.8-.4l-1.9-1.3 3-5.6c.4-.8.9-1.5 1.4-2.2.6-.7 1.4-1.3 2.2-1.8 2.1-1.3 4.2-2.5 6.5-3.6-.4.2 2.4 3.8 2.4 4.2z" fill="url(#q)"/><path d="m120.1 48.4-.2.1c-1.3.4-2.6.7-4 1l-3.1.7c-.9.4-1.9.5-2.9.5.4-.9 1.1-1.7 1.9-2.2.7-.3 1.4-.4 2.1-.8 1.3-.7 1.9-2.3 1.5-3.8-.1-.4-.4-.8-.7-1.1-1.1-.6-2.4-.4-3.3.4-.8.9-1.6 1.8-2.3 2.7-1.3 1.2-2.7 2.3-4.2 3.4-1.4 1.2-2.4 3-1.9 4.8.5 1.7 2.7 1.5 4.3 1.5 1.9 0 3.9-.3 5.8-.7s3.7-.9 5.6-1.4c.9-.3 1.8-.5 2.7-.7.6 0 1.2-.1 1.8-.2.5-.3 1-.7 1.3-1.1.6-.7 1-1.6 1.1-2.6.1-1.3-.8-2.6-2.3-2.3-1 .7-2.1 1.2-3.2 1.8z" fill="#f9c6d6"/><path d="m113.1 101.1c.4.8.4 1.6 0 2.4-.2.3-.5.5-.9.6-.8.4-1.8.3-2.5-.3-.4-.4-.6-.9-.7-1.4-.6-1.9-1.1-3.9-1.3-6 0-.2 0-.4 0-.6.1-.2.3-.4.5-.4 1.1-.6 2.7-1 3.3.2.6 1.9 1.2 3.7 1.6 5.5z" fill="#f9c6d6"/><path d="m109.9 102c-.2 0-.5 0-.7.1-.1.1-.3.2-.4.3l-2.3 2.6c-.4.5-.9 1.2-.6 1.8.2.3.6.6 1 .6 1.1.1 2.2-.1 3.2-.6.7-.3 1.4-.7 2.1-1 .5-.2 1-.6 1.3-1 .5-.8.7-2.8-.2-3.4-.5-.3-.9-.1-1.3.1-.6.4-1.3.5-2.1.5z" fill="#5a6ddc"/><path d="m100.4 110v.4c.1.1.2.3.3.3.4.3.9.5 1.5.5.5 0 1.1-.2 1.4-.6.2-.4.4-.8.4-1.3.2-1 .3-2 .3-3 0-.1 0-.3-.1-.4s-.2-.1-.3-.1c-.8-.2-2.5-.6-2.9.4-.4 1.3-.6 2.6-.6 3.8z" fill="#f9c6d6"/><path d="m96.9 109.9c-.7 0-1.4.2-2.1.4s-1.2.8-1.5 1.4c-.1.3-.1.7 0 1 .2.5.6.9 1.1 1.1 2.4 1.3 5 1.9 7.7 1.7.7 0 1.4-.2 1.9-.7.4-.6.5-1.2.5-1.9l.1-3.2c-.6 0-1.2.2-1.7.5-1 .3-1.4-.5-2.2-.7-1.3.1-2.6.2-3.8.4z" fill="#5a6ddc"/><path d="m109.9 102c-.2 0-.5 0-.7.1-.1.1-.3.2-.4.3l-2.3 2.6c-.4.5-.9 1.2-.6 1.8.2.3.6.6 1 .6 1.1.1 2.2-.1 3.2-.6.7-.3 1.4-.7 2.1-1 .5-.2 1-.6 1.3-1 .5-.8.7-2.8-.2-3.4-.5-.3-.9-.1-1.3.1-.6.4-1.3.5-2.1.5z" fill="url(#r)"/><path d="m96.9 109.9c-.7 0-1.4.2-2.1.4s-1.2.8-1.5 1.4c-.1.3-.1.7 0 1 .2.5.6.9 1.1 1.1 2.4 1.3 5 1.9 7.7 1.7.7 0 1.4-.2 1.9-.7.4-.6.5-1.2.5-1.9l.1-3.2c-.6 0-1.2.2-1.7.5-1 .3-1.4-.5-2.2-.7-1.3.1-2.6.2-3.8.4z" fill="url(#s)"/><path d="m105.4 74.9c-1.6.2-2.7 1.5-2.5 3.1 0 .1 0 .2.1.4 0 6.4 1.2 12.8 3.5 18.7.1.4.4.8.8 1.1.3.1.7.1 1.1 0 1.4-.4 2.8-.8 4.1-1.4l-1.8-12.2c-.1-.3-.1-.7.1-1 .1-.2.3-.4.5-.6 2.1-1.5 4.2-2.9 6.5-4.1 1.8-.9 3.9-2 4.4-4 .2-.7.1-1.4-.4-2-.3-.3-.6-.5-1-.7-1.2-.8-2.7-1.2-4.1-1.2-1.1.1-1.5.8-2.5 1.3-2.6 1.3-6 1.8-8.8 2.6z" fill="#282328"/><path d="m115.6 61.6c0-.1-.1-.2-.2-.3s-.2-.1-.4-.1c-4.7-.3-9.5.2-14 1.5.4 1.2.9 2.4 1.6 3.5 1.8 3.2 3.7 6.4 5.5 9.6.5 1.6 2.2 2.5 3.8 2.1l.3-.1 7-1.4c1.1-.2-1.1-6-1.5-7.1-.8-2.6-1.4-5.2-2.1-7.7z" fill="#fff"/><path d="m125 74.7c-1.1-.4-2.2-1-3.3-1.5-4-2.3-.7-3.4.6-6 .9-1.9.6-4.2.1-6.3-.9-3.6-2-7.4-1.1-11.1.1-.6.3-1.2.7-1.6.2-.3.5-.6.8-.8.8-.7 1.8-1.3 2.9-1.7 2.1-.6 4.3-.3 6.2.8 7.7 3.9 7.7 16.5 7 23.9 0 1.7-.5 3.4-1.5 4.9-1.5 2-2.9 1.3-4.9.9-2.7-.6-5-.6-7.5-1.5z" fill="#5a6ddc"/><path d="m129.5 50.8c-.7.8-1.6 1.3-2.7 1.4-.2 0-.3 0-.5-.1s-.2-.4-.2-.6c0-.4-.1-1-.1-1.5s-.1-1.2-.2-1.7c-.1-1.2-.6-2.4-1.3-3.4-.2-.2-.3-.4-.5-.6-1.3-1.1 4-.7 4.7-2.3.8 1 .7 2.5 1.1 3.7.2.6.4 1.2.6 1.9.1 1.2-.2 2.3-.9 3.2z" fill="#f9c6d6"/><path d="m126 50.2v-.2c-.1-.6-.1-1.2-.2-1.7-.1-1.2-.6-2.4-1.3-3.4v-.1s4.2-2.7 4.6.5-3.1 4.9-3.1 4.9z" fill="url(#t)"/><path d="m121.7 43.1c-.1.7 0 1.3.4 1.9.2.2.4.5.6.6 1.8 1.2 4.1 1.1 5.8-.3 1.6-1.4 2.6-3.4 2.6-5.5.1-1.1-.2-2.2-.9-3.1-.8-.8-2-1.1-3.1-.9-1.5.3-2.9 1.1-4 2.3s-1.3 3.5-1.4 5z" fill="#f9c6d6"/><path d="m106.7 83.4c-.9 1.1-1.5 2.3-2 3.7-2.6 6.4-4.3 13.2-5.1 20.1 2.1.3 4.3.3 6.4 0 .2-4.9.9-9.7 2.3-14.4.2-1 .6-2 1.1-2.8 1.1-1.3 2.4-2.3 4-3 3.5-1.7 7.1-3.1 10.8-4.1 1.6-.4 3.2-.8 4.7-1.4 1.3-.4 2.6-1 3.7-1.9 1.9-1.6 3.4-5.1.8-6.9-1.2-.7-2.6-1-4-1.1l-4.3-.4c-.8-.2-1.7.1-2.3.6-3.2 2.5-6.5 4.7-9.9 6.9-2 1.4-4.5 2.7-6.2 4.7z" fill="#473f47"/><path d="m136.7 54c0 .2 0 .5.1.7.2 3.4.2 6.9-.1 10.4-.1 2.1-.4 6.2-2.6 7.3-4.2 2-12.2 1.3-12.2 1.3-.9-.1-1.9-.1-2.8.1-.5.2-1 .4-1.5.6-1.8.5-3.7.5-5.6 0-.3 0-.6-.1-.9-.3-.7-.6-.7-1.6-.1-2.3.6-.6 1.4-1.1 2.3-1.2 2.3-.8 4.8-.9 7.2-.3.3.1.6.2.9.3.4.1.8.1 1.1.1h2.8c3.3 0 6.3 0 6.8-3.8.2-1.4.2-2.9.1-4.3-.2-2.6-.9-5.2-.7-7.8 0-.8.2-1.6.6-2.4.4-.7 1.1-1.2 2-1.3.9.1 1.6.6 2 1.4.3.3.5.9.6 1.5z" fill="#f9c6d6"/><path d="m127.9 41.4c.2.8.2 1.6.2 2.4.6-.5.5-1.7 1.3-1.7.4 0 .6.6.4 1-.3.4-.7.7-1.1.7-.1 1.7 1.2 2.8 2.3 3.9 1.2 1.2 2.1 2.7 2.5 4.4.4 2.1.6 4.3.5 6.5.6-.5 1.4-.2 2.2-.1 2.3.1 4.4-1.5 4.9-3.7.4-2.3-.6-4.5-2.6-5.7-.6-.3-1.2-.7-1.7-1.2-.5-.8-.2-1.8-.2-2.8 0-2.1-1.5-4-3.5-4.5.4-.7.7-1.6.8-2.4 0-1.1-.5-2.2-1.3-3s-1.8-1.4-2.8-1.8c-.9-.5-2-.7-3.1-.5-1.2.5-2.1 1.5-2.4 2.8-.6-.3-1.3-.1-1.7.4s-.6 1.1-.6 1.8c0 .4.1.8.3 1.2.4-.5.9-.9 1.3-.6.5.3.8 1 1.2 1.4.5.4 1 .7 1.5 1 .6-.1 1.1.2 1.6.5z" fill="#ffa000"/><path d="m117.6 40.1-.4 2.2c-.1.6-.5 1.1-1.1 1.1-2.1-.4-7.4-1.1-11.1-.1-2 .5-4 1.2-6 2-.8.3-1.5-.5-1.4-1.6l1.4-11.7c.1-1 1-1.5 1.7-.9 2.7 2.4 8.9 7.3 15.9 7.3.6 0 1.1.8 1 1.7z" fill="#5a6ddc"/><ellipse cx="98.9" cy="38" fill="#5a6ddc" rx="7.4" ry="3.5" transform="matrix(.07880702 -.9969 .9969 .07880702 53.2539 133.6102)"/><path d="m95.4 37.7c.3-4.1 2.1-7.2 4.1-7.1 1.9.2 3.2 3.6 2.9 7.6-.3 4.1-2.1 7.2-4.1 7.1-1.9-.1-3.2-3.5-2.9-7.6z" fill="url(#u)"/><path d="m110.3 49.2.4-1.2c.2-.5.7-.8 1.2-.6l1.2.4c.5.2.8.7.6 1.2l-.4 1.2c-.2.5-.7.8-1.2.6l-1.2-.4c-.5-.1-.7-.7-.6-1.2z" fill="#5a6ddc"/><g fill="#fff"><path d="m284.1 156.3h-92.4c-3.9 0-7.1-3.2-7.1-7.1v-34c0-3.8 3-6.9 6.8-7.1l92.4-4.3c3.9-.2 7.2 2.8 7.4 6.7v.4 38.3c0 3.9-3.2 7.1-7.1 7.1z" opacity=".89"/><path d="m226 94.8-66.1 3.3c-2.6.2-4.9-1.8-5-4.4 0-.1 0-.2 0-.3v-24.2c0-2.7 2.1-5 4.8-5.3l66.1-6.3c2.6-.3 5 1.6 5.3 4.2v.5 27.2c0 2.9-2.3 5.2-5.1 5.3z"/><path d="m121.2 165.6-47.8-2.3c-2.8-.1-4.9-2.4-4.9-5.2v-19.6c0-2.8 2.3-5.2 5.1-5.2l47.8-.5c2.9 0 5.2 2.3 5.3 5.1v22.4c0 2.9-2.4 5.2-5.2 5.1h-.3z"/></g></svg>