<?xml version="1.0" encoding="utf-8"?>
<!-- Generator: Adobe Illustrator 24.0.3, SVG Export Plug-In . SVG Version: 6.00 Build 0)  -->
<svg version="1.1" id="Layer_1" xmlns="http://www.w3.org/2000/svg" xmlns:xlink="http://www.w3.org/1999/xlink" x="0px" y="0px"
	 viewBox="0 0 322.3 306" style="enable-background:new 0 0 322.3 306;" xml:space="preserve">
<style type="text/css">
	.st0{opacity:0.18;fill:#5A6DDC;enable-background:new    ;}
	.st1{fill:#5A6DDC;}
	.st2{fill:url(#SVGID_1_);}
	.st3{fill:url(#SVGID_2_);}
	.st4{fill:url(#SVGID_3_);}
	.st5{fill:url(#SVGID_4_);}
	.st6{fill:url(#SVGID_5_);}
	.st7{fill:url(#SVGID_6_);}
	.st8{fill:url(#SVGID_7_);}
	.st9{fill:url(#SVGID_8_);}
	.st10{fill:url(#SVGID_9_);}
	.st11{fill:url(#SVGID_10_);}
	.st12{fill:url(#SVGID_11_);}
	.st13{fill:url(#SVGID_12_);}
	.st14{fill:url(#SVGID_13_);}
	.st15{fill:url(#SVGID_14_);}
	.st16{fill:url(#SVGID_15_);}
	.st17{fill:#F9C6D6;}
	.st18{fill:url(#SVGID_16_);}
	.st19{fill:url(#SVGID_17_);}
	.st20{fill:#282328;}
	.st21{fill:#FFFFFF;}
	.st22{fill:url(#SVGID_18_);}
	.st23{fill:#473F47;}
	.st24{fill:#FFA000;}
	.st25{fill:url(#SVGID_19_);}
	.st26{opacity:0.89;fill:#FFFFFF;enable-background:new    ;}
</style>
<title>6</title>
<path class="st0" d="M92.1,29.3c-5.7,7.1-10.4,15.3-15.4,23.1c-18.7,29.4-41.9,54.6-58.3,86S-6.8,210.7,6.3,244.3
	c8.8,22.7,26.5,38.7,45.4,48.7c16.2,8.7,33.7,13.1,51.4,13c37-0.5,71.2-22.5,107.4-31.9c16-4.2,32.5-5.9,48.3-11
	c11.2-3.6,22.2-8.9,31.6-17.3c25.8-23.2,35-67.4,27.3-105.3c-7.6-37.9-29.5-69.7-55.1-93.2C219,7.5,136.6-26.5,92.1,29.3z"/>
<polygon class="st1" points="94.3,223.5 53.6,222.1 58.7,251.2 87.5,252.1 "/>
<linearGradient id="SVGID_1_" gradientUnits="userSpaceOnUse" x1="5.4386" y1="286.2521" x2="53.5986" y2="396.5521" gradientTransform="matrix(1.1291 3.387329e-02 -3.387329e-02 1.1291 59.4148 -137.519)">
	<stop  offset="1.000000e-02" style="stop-color:#000000"/>
	<stop  offset="8.000000e-02" style="stop-color:#000000;stop-opacity:0.69"/>
	<stop  offset="0.21" style="stop-color:#000000;stop-opacity:0.32"/>
	<stop  offset="1" style="stop-color:#000000;stop-opacity:0"/>
</linearGradient>
<polygon class="st2" points="94.3,223.5 53.6,222.1 58.7,251.2 87.5,252.1 "/>
<path class="st1" d="M50.2,152.1c-1,2-1.5,4.3-1.4,6.6c-0.5,10.3-0.4,20.8,2.7,30.6c4.5,14.4,15,26.1,25.3,37.3
	c-0.8-1.2,1.5-7.8,1.8-9.3c0.6-3,1.3-6.1,1.9-9.1c1-4.8,0-9.9-1.2-14.6c-2.6-10.7-7.7-20.7-14.9-29
	C60.2,159.7,55.5,155.5,50.2,152.1z"/>
<linearGradient id="SVGID_2_" gradientUnits="userSpaceOnUse" x1="-1102.368" y1="985.6017" x2="-1182.608" y2="1053.9617" gradientTransform="matrix(0.9485 0.6097 -0.6097 0.9485 1750.3185 -78.8067)">
	<stop  offset="1.000000e-02" style="stop-color:#000000"/>
	<stop  offset="0.13" style="stop-color:#000000;stop-opacity:0.69"/>
	<stop  offset="0.25" style="stop-color:#000000;stop-opacity:0.32"/>
	<stop  offset="1" style="stop-color:#000000;stop-opacity:0"/>
</linearGradient>
<path class="st3" d="M50.2,152.1c-1,2-1.5,4.3-1.4,6.6c-0.5,10.3-0.4,20.8,2.7,30.6c4.5,14.4,15,26.1,25.3,37.3
	c-0.8-1.2,1.5-7.8,1.8-9.3c0.6-3,1.3-6.1,1.9-9.1c1-4.8,0-9.9-1.2-14.6c-2.6-10.7-7.7-20.7-14.9-29
	C60.2,159.7,55.5,155.5,50.2,152.1z"/>
<path class="st1" d="M95.8,186.9c3.5-7.7,6.9-15.5,8.2-23.8c1.3-8.3,0.1-17.4-4.9-24.1C92.5,149,86,159,79.4,168.9
	c-3.8,5.7-7.7,11.6-9.5,18.3c-3.3,11.6-0.4,29.5,7.4,39c4.4-3.8,6.5-12.4,8.9-17.8L95.8,186.9z"/>
<linearGradient id="SVGID_3_" gradientUnits="userSpaceOnUse" x1="414.6548" y1="1040.1852" x2="535.5048" y2="928.5151" gradientTransform="matrix(0.9485 0.6097 -0.6097 0.9485 233.1113 -1039.837)">
	<stop  offset="1.000000e-02" style="stop-color:#000000"/>
	<stop  offset="0.13" style="stop-color:#000000;stop-opacity:0.69"/>
	<stop  offset="0.25" style="stop-color:#000000;stop-opacity:0.32"/>
	<stop  offset="1" style="stop-color:#000000;stop-opacity:0"/>
</linearGradient>
<path class="st4" d="M95.8,186.9c3.5-7.7,6.9-15.5,8.2-23.8c1.3-8.3,0.1-17.4-4.9-24.1C92.5,149,86,159,79.4,168.9
	c-3.8,5.7-7.7,11.6-9.5,18.3c-3.3,11.6-0.4,29.5,7.4,39c4.4-3.8,6.5-12.4,8.9-17.8L95.8,186.9z"/>
<path class="st1" d="M52.5,212.1l43.6,1.4c3.6,0.1,6.5,3.1,6.4,6.8l0,0c-0.1,3.6-3.1,6.5-6.8,6.4l-43.7-1.3
	c-3.6-0.1-6.5-3.1-6.4-6.8l0,0C45.8,215,48.8,212.1,52.5,212.1C52.5,212.1,52.5,212.1,52.5,212.1z"/>
<polygon class="st1" points="164.1,210.6 178.1,243.6 221.8,250.9 207.8,212.1 "/>
<linearGradient id="SVGID_4_" gradientUnits="userSpaceOnUse" x1="256.8951" y1="-33.0884" x2="72.7951" y2="64.6516" gradientTransform="matrix(1.1291 0 0 1.1291 -38.479 236.9463)">
	<stop  offset="1.000000e-02" style="stop-color:#000000"/>
	<stop  offset="8.000000e-02" style="stop-color:#000000;stop-opacity:0.69"/>
	<stop  offset="0.21" style="stop-color:#000000;stop-opacity:0.32"/>
	<stop  offset="1" style="stop-color:#000000;stop-opacity:0"/>
</linearGradient>
<polygon class="st5" points="164.1,210.6 178.1,243.6 221.8,250.9 207.8,212.1 "/>
<linearGradient id="SVGID_5_" gradientUnits="userSpaceOnUse" x1="264.5641" y1="-18.6502" x2="80.4641" y2="79.0898" gradientTransform="matrix(1.1291 0 0 1.1291 -38.479 236.9463)">
	<stop  offset="1.000000e-02" style="stop-color:#000000"/>
	<stop  offset="8.000000e-02" style="stop-color:#000000;stop-opacity:0.69"/>
	<stop  offset="0.21" style="stop-color:#000000;stop-opacity:0.32"/>
	<stop  offset="1" style="stop-color:#000000;stop-opacity:0"/>
</linearGradient>
<polygon class="st6" points="178.1,243.6 150,250.9 207.6,267.4 221.8,250.9 "/>
<polygon class="st1" points="178.1,243.6 150,250.9 200.7,275.3 221.8,250.9 "/>
<linearGradient id="SVGID_6_" gradientUnits="userSpaceOnUse" x1="265.3546" y1="-17.1594" x2="81.2546" y2="80.5706" gradientTransform="matrix(1.1291 0 0 1.1291 -38.479 236.9463)">
	<stop  offset="1.000000e-02" style="stop-color:#000000"/>
	<stop  offset="8.000000e-02" style="stop-color:#000000;stop-opacity:0.69"/>
	<stop  offset="0.21" style="stop-color:#000000;stop-opacity:0.32"/>
	<stop  offset="1" style="stop-color:#000000;stop-opacity:0"/>
</linearGradient>
<polygon class="st7" points="178.1,243.6 150,250.9 200.7,275.3 221.8,250.9 "/>
<polygon class="st1" points="155.8,210.6 169.8,243.6 213.6,250.9 199.5,212.1 "/>
<linearGradient id="SVGID_7_" gradientUnits="userSpaceOnUse" x1="184.4892" y1="-41.4009" x2="211.0092" y2="30.3291" gradientTransform="matrix(1.1291 0 0 1.1291 -38.479 236.9463)">
	<stop  offset="1.000000e-02" style="stop-color:#000000"/>
	<stop  offset="8.000000e-02" style="stop-color:#000000;stop-opacity:0.69"/>
	<stop  offset="0.21" style="stop-color:#000000;stop-opacity:0.32"/>
	<stop  offset="1" style="stop-color:#000000;stop-opacity:0"/>
</linearGradient>
<polygon class="st8" points="166.3,235.4 204.9,226.9 199.5,212.1 155.8,210.6 "/>
<polygon class="st1" points="169.8,243.6 141.7,250.9 199.3,267.4 213.6,250.9 "/>
<linearGradient id="SVGID_8_" gradientUnits="userSpaceOnUse" x1="163.3175" y1="-29.1054" x2="233.5275" y2="74.4347" gradientTransform="matrix(1.1291 0 0 1.1291 -38.479 236.9463)">
	<stop  offset="1.000000e-02" style="stop-color:#000000"/>
	<stop  offset="8.000000e-02" style="stop-color:#000000;stop-opacity:0.69"/>
	<stop  offset="0.21" style="stop-color:#000000;stop-opacity:0.32"/>
	<stop  offset="1" style="stop-color:#000000;stop-opacity:0"/>
</linearGradient>
<polygon class="st9" points="169.8,243.6 141.7,250.9 199.3,267.4 213.6,250.9 "/>
<polygon class="st1" points="199.3,267.4 200.7,275.3 140.3,257.1 141.7,250.9 "/>
<linearGradient id="SVGID_9_" gradientUnits="userSpaceOnUse" x1="171.1954" y1="-15.9231" x2="195.763" y2="55.1001" gradientTransform="matrix(1.1291 0 0 1.1291 -38.479 236.9463)">
	<stop  offset="1.000000e-02" style="stop-color:#000000"/>
	<stop  offset="8.000000e-02" style="stop-color:#000000;stop-opacity:0.69"/>
	<stop  offset="0.21" style="stop-color:#000000;stop-opacity:0.32"/>
	<stop  offset="1" style="stop-color:#000000;stop-opacity:0"/>
</linearGradient>
<polygon class="st10" points="199.3,267.4 200.7,275.3 140.3,257.1 141.7,250.9 "/>
<path class="st1" d="M269.3,72.3v148.5c0,3.5-2.8,6.3-6.3,6.3c0,0,0,0,0,0h-0.7L95.8,208.5c-3.2-0.3-5.6-3-5.6-6.3v-113
	c0-3.2,2.4-5.9,5.6-6.3l166.5-16.9c3.5-0.4,6.6,2.1,7,5.6C269.3,71.9,269.3,72.1,269.3,72.3z"/>
<linearGradient id="SVGID_10_" gradientUnits="userSpaceOnUse" x1="337.5822" y1="-124.2445" x2="-57.8977" y2="17.4255" gradientTransform="matrix(1.1291 0 0 1.1291 -38.479 236.9463)">
	<stop  offset="1.000000e-02" style="stop-color:#000000"/>
	<stop  offset="8.000000e-02" style="stop-color:#000000;stop-opacity:0.69"/>
	<stop  offset="0.21" style="stop-color:#000000;stop-opacity:0.32"/>
	<stop  offset="1" style="stop-color:#000000;stop-opacity:0"/>
</linearGradient>
<path class="st11" d="M269.3,72.3v148.5c0,3.5-2.8,6.3-6.3,6.3c0,0,0,0,0,0h-0.7L95.8,208.5c-3.2-0.3-5.6-3-5.6-6.3v-113
	c0-3.2,2.4-5.9,5.6-6.3l166.5-16.9c3.5-0.4,6.6,2.1,7,5.6C269.3,71.9,269.3,72.1,269.3,72.3z"/>
<path class="st1" d="M265.1,72.3v148.5c0,3.5-2.8,6.3-6.3,6.3c0,0,0,0,0,0h-0.7L91.6,208.5c-3.2-0.3-5.6-3-5.6-6.3v-113
	c0-3.2,2.4-5.9,5.6-6.3l166.5-17c3.5-0.3,6.6,2.2,6.9,5.6c0,0,0,0,0,0C265.1,71.9,265.1,72.1,265.1,72.3z"/>
<linearGradient id="SVGID_11_" gradientUnits="userSpaceOnUse" x1="180.5883" y1="-232.6921" x2="194.9483" y2="65.4779" gradientTransform="matrix(1.1291 0 0 1.1291 -38.479 236.9463)">
	<stop  offset="1.000000e-02" style="stop-color:#000000"/>
	<stop  offset="8.000000e-02" style="stop-color:#000000;stop-opacity:0.69"/>
	<stop  offset="0.21" style="stop-color:#000000;stop-opacity:0.32"/>
	<stop  offset="1" style="stop-color:#000000;stop-opacity:0"/>
</linearGradient>
<polygon class="st12" points="94.3,192.7 94.3,89.2 252,76.4 252,201.3 "/>
<linearGradient id="SVGID_12_" gradientUnits="userSpaceOnUse" x1="158.8428" y1="-219.3422" x2="255.6928" y2="83.6178" gradientTransform="matrix(1.1291 0 0 1.1291 -38.479 236.9463)">
	<stop  offset="1.000000e-02" style="stop-color:#000000"/>
	<stop  offset="8.000000e-02" style="stop-color:#000000;stop-opacity:0.69"/>
	<stop  offset="0.21" style="stop-color:#000000;stop-opacity:0.32"/>
	<stop  offset="1" style="stop-color:#000000;stop-opacity:0"/>
</linearGradient>
<polygon class="st13" points="231.2,148.3 136.4,148.3 136.4,102.9 231.2,98.7 "/>
<linearGradient id="SVGID_13_" gradientUnits="userSpaceOnUse" x1="164.9621" y1="-166.3921" x2="234.2222" y2="74.3379" gradientTransform="matrix(1.1291 0 0 1.1291 -38.479 236.9463)">
	<stop  offset="1.000000e-02" style="stop-color:#000000"/>
	<stop  offset="8.000000e-02" style="stop-color:#000000;stop-opacity:0.69"/>
	<stop  offset="0.21" style="stop-color:#000000;stop-opacity:0.32"/>
	<stop  offset="1" style="stop-color:#000000;stop-opacity:0"/>
</linearGradient>
<polygon class="st14" points="231.2,200.4 136.4,195.4 136.4,153 231.2,153 "/>
<linearGradient id="SVGID_14_" gradientUnits="userSpaceOnUse" x1="110.5485" y1="-146.3792" x2="303.6185" y2="138.3607" gradientTransform="matrix(1.1291 0 0 1.1291 -38.479 236.9463)">
	<stop  offset="1.000000e-02" style="stop-color:#000000"/>
	<stop  offset="8.000000e-02" style="stop-color:#000000;stop-opacity:0.69"/>
	<stop  offset="0.21" style="stop-color:#000000;stop-opacity:0.32"/>
	<stop  offset="1" style="stop-color:#000000;stop-opacity:0"/>
</linearGradient>
<path class="st15" d="M265.1,202.2v18.6c0,3.5-2.8,6.3-6.3,6.3c0,0,0,0,0,0h-0.7L91.6,208.5c-3.2-0.3-5.6-3-5.6-6.3v-9.6
	L265.1,202.2z"/>
<linearGradient id="SVGID_15_" gradientUnits="userSpaceOnUse" x1="116.129" y1="-122.838" x2="148.549" y2="-92.868" gradientTransform="matrix(1.1291 0 0 1.1291 -38.479 236.9463)">
	<stop  offset="1.000000e-02" style="stop-color:#000000"/>
	<stop  offset="0.13" style="stop-color:#000000;stop-opacity:0.69"/>
	<stop  offset="0.25" style="stop-color:#000000;stop-opacity:0.32"/>
	<stop  offset="1" style="stop-color:#000000;stop-opacity:0"/>
</linearGradient>
<path class="st16" d="M114.5,107.7c0,1.4-2.3,2.8-3.5,3.2c-0.5,0.1-0.9,0.2-1.4,0.4c-0.4,0.2-0.7,0.7-0.7,1.2
	c0.1,0.4,0.4,0.8,0.5,1.1c0.1,0.4,0,0.8-0.1,1.1c-0.4,1.4-2.2,2.3-2.6,3.7c-2.4-0.2-3.5,0-5.8-0.4l-1.9-1.3l3-5.6
	c0.4-0.8,0.9-1.5,1.4-2.2c0.6-0.7,1.4-1.3,2.2-1.8c2.1-1.3,4.2-2.5,6.5-3.6C111.7,103.7,114.5,107.3,114.5,107.7z"/>
<path class="st17" d="M120.1,48.4l-0.2,0.1c-1.3,0.4-2.6,0.7-4,1l-3.1,0.7c-0.9,0.4-1.9,0.5-2.9,0.5c0.4-0.9,1.1-1.7,1.9-2.2
	c0.7-0.3,1.4-0.4,2.1-0.8c1.3-0.7,1.9-2.3,1.5-3.8c-0.1-0.4-0.4-0.8-0.7-1.1c-1.1-0.6-2.4-0.4-3.3,0.4c-0.8,0.9-1.6,1.8-2.3,2.7
	c-1.3,1.2-2.7,2.3-4.2,3.4c-1.4,1.2-2.4,3-1.9,4.8c0.5,1.7,2.7,1.5,4.3,1.5c1.9,0,3.9-0.3,5.8-0.7c1.9-0.4,3.7-0.9,5.6-1.4
	c0.9-0.3,1.8-0.5,2.7-0.7c0.6,0,1.2-0.1,1.8-0.2c0.5-0.3,1-0.7,1.3-1.1c0.6-0.7,1-1.6,1.1-2.6c0.1-1.3-0.8-2.6-2.3-2.3
	C122.3,47.3,121.2,47.8,120.1,48.4z"/>
<path class="st17" d="M113.1,101.1c0.4,0.8,0.4,1.6,0,2.4c-0.2,0.3-0.5,0.5-0.9,0.6c-0.8,0.4-1.8,0.3-2.5-0.3
	c-0.4-0.4-0.6-0.9-0.7-1.4c-0.6-1.9-1.1-3.9-1.3-6c0-0.2,0-0.4,0-0.6c0.1-0.2,0.3-0.4,0.5-0.4c1.1-0.6,2.7-1,3.3,0.2
	C112.1,97.5,112.7,99.3,113.1,101.1z"/>
<path class="st1" d="M109.9,102c-0.2,0-0.5,0-0.7,0.1c-0.1,0.1-0.3,0.2-0.4,0.3l-2.3,2.6c-0.4,0.5-0.9,1.2-0.6,1.8
	c0.2,0.3,0.6,0.6,1,0.6c1.1,0.1,2.2-0.1,3.2-0.6c0.7-0.3,1.4-0.7,2.1-1c0.5-0.2,1-0.6,1.3-1c0.5-0.8,0.7-2.8-0.2-3.4
	c-0.5-0.3-0.9-0.1-1.3,0.1C111.4,101.9,110.7,102,109.9,102z"/>
<path class="st17" d="M100.4,110c0,0.1,0,0.3,0,0.4c0.1,0.1,0.2,0.3,0.3,0.3c0.4,0.3,0.9,0.5,1.5,0.5c0.5,0,1.1-0.2,1.4-0.6
	c0.2-0.4,0.4-0.8,0.4-1.3c0.2-1,0.3-2,0.3-3c0-0.1,0-0.3-0.1-0.4c-0.1-0.1-0.2-0.1-0.3-0.1c-0.8-0.2-2.5-0.6-2.9,0.4
	C100.6,107.5,100.4,108.8,100.4,110z"/>
<path class="st1" d="M96.9,109.9c-0.7,0-1.4,0.2-2.1,0.4c-0.7,0.2-1.2,0.8-1.5,1.4c-0.1,0.3-0.1,0.7,0,1c0.2,0.5,0.6,0.9,1.1,1.1
	c2.4,1.3,5,1.9,7.7,1.7c0.7,0,1.4-0.2,1.9-0.7c0.4-0.6,0.5-1.2,0.5-1.9l0.1-3.2c-0.6,0-1.2,0.2-1.7,0.5c-1,0.3-1.4-0.5-2.2-0.7
	C99.4,109.6,98.1,109.7,96.9,109.9z"/>
<linearGradient id="SVGID_16_" gradientUnits="userSpaceOnUse" x1="128.3224" y1="-118.9911" x2="139.6524" y2="-113.3611" gradientTransform="matrix(1.1291 0 0 1.1291 -38.479 236.9463)">
	<stop  offset="1.000000e-02" style="stop-color:#000000"/>
	<stop  offset="0.13" style="stop-color:#000000;stop-opacity:0.69"/>
	<stop  offset="0.25" style="stop-color:#000000;stop-opacity:0.32"/>
	<stop  offset="1" style="stop-color:#000000;stop-opacity:0"/>
</linearGradient>
<path class="st18" d="M109.9,102c-0.2,0-0.5,0-0.7,0.1c-0.1,0.1-0.3,0.2-0.4,0.3l-2.3,2.6c-0.4,0.5-0.9,1.2-0.6,1.8
	c0.2,0.3,0.6,0.6,1,0.6c1.1,0.1,2.2-0.1,3.2-0.6c0.7-0.3,1.4-0.7,2.1-1c0.5-0.2,1-0.6,1.3-1c0.5-0.8,0.7-2.8-0.2-3.4
	c-0.5-0.3-0.9-0.1-1.3,0.1C111.4,101.9,110.7,102,109.9,102z"/>
<linearGradient id="SVGID_17_" gradientUnits="userSpaceOnUse" x1="119.0642" y1="-104.0518" x2="125.7042" y2="-118.9918" gradientTransform="matrix(1.1291 0 0 1.1291 -38.479 236.9463)">
	<stop  offset="1.000000e-02" style="stop-color:#000000"/>
	<stop  offset="0.13" style="stop-color:#000000;stop-opacity:0.69"/>
	<stop  offset="0.25" style="stop-color:#000000;stop-opacity:0.32"/>
	<stop  offset="1" style="stop-color:#000000;stop-opacity:0"/>
</linearGradient>
<path class="st19" d="M96.9,109.9c-0.7,0-1.4,0.2-2.1,0.4c-0.7,0.2-1.2,0.8-1.5,1.4c-0.1,0.3-0.1,0.7,0,1c0.2,0.5,0.6,0.9,1.1,1.1
	c2.4,1.3,5,1.9,7.7,1.7c0.7,0,1.4-0.2,1.9-0.7c0.4-0.6,0.5-1.2,0.5-1.9l0.1-3.2c-0.6,0-1.2,0.2-1.7,0.5c-1,0.3-1.4-0.5-2.2-0.7
	C99.4,109.6,98.1,109.7,96.9,109.9z"/>
<path class="st20" d="M105.4,74.9c-1.6,0.2-2.7,1.5-2.5,3.1c0,0,0,0,0,0c0,0.1,0,0.2,0.1,0.4c0,6.4,1.2,12.8,3.5,18.7
	c0.1,0.4,0.4,0.8,0.8,1.1c0.3,0.1,0.7,0.1,1.1,0c1.4-0.4,2.8-0.8,4.1-1.4l-1.8-12.2c-0.1-0.3-0.1-0.7,0.1-1c0.1-0.2,0.3-0.4,0.5-0.6
	c2.1-1.5,4.2-2.9,6.5-4.1c1.8-0.9,3.9-2,4.4-4c0.2-0.7,0.1-1.4-0.4-2c-0.3-0.3-0.6-0.5-1-0.7c-1.2-0.8-2.7-1.2-4.1-1.2
	c-1.1,0.1-1.5,0.8-2.5,1.3C111.6,73.6,108.2,74.1,105.4,74.9z"/>
<path class="st21" d="M115.6,61.6c0-0.1-0.1-0.2-0.2-0.3c-0.1-0.1-0.2-0.1-0.4-0.1c-4.7-0.3-9.5,0.2-14,1.5c0.4,1.2,0.9,2.4,1.6,3.5
	c1.8,3.2,3.7,6.4,5.5,9.6c0.5,1.6,2.2,2.5,3.8,2.1c0,0,0,0,0,0l0.3-0.1l7-1.4c1.1-0.2-1.1-6-1.5-7.1
	C116.9,66.7,116.3,64.1,115.6,61.6z"/>
<path class="st1" d="M125,74.7c-1.1-0.4-2.2-1-3.3-1.5c-4-2.3-0.7-3.4,0.6-6c0.9-1.9,0.6-4.2,0.1-6.3c-0.9-3.6-2-7.4-1.1-11.1
	c0.1-0.6,0.3-1.2,0.7-1.6c0.2-0.3,0.5-0.6,0.8-0.8c0.8-0.7,1.8-1.3,2.9-1.7c2.1-0.6,4.3-0.3,6.2,0.8c7.7,3.9,7.7,16.5,7,23.9
	c0,1.7-0.5,3.4-1.5,4.9c-1.5,2-2.9,1.3-4.9,0.9C129.8,75.6,127.5,75.6,125,74.7z"/>
<path class="st17" d="M129.5,50.8c-0.7,0.8-1.6,1.3-2.7,1.4c-0.2,0-0.3,0-0.5-0.1c-0.2-0.1-0.2-0.4-0.2-0.6c0-0.4-0.1-1-0.1-1.5
	c0-0.5-0.1-1.2-0.2-1.7c-0.1-1.2-0.6-2.4-1.3-3.4c-0.2-0.2-0.3-0.4-0.5-0.6c-1.3-1.1,4-0.7,4.7-2.3c0.8,1,0.7,2.5,1.1,3.7
	c0.2,0.6,0.4,1.2,0.6,1.9C130.5,48.8,130.2,49.9,129.5,50.8z"/>
<linearGradient id="SVGID_18_" gradientUnits="userSpaceOnUse" x1="144.0409" y1="-174.2314" x2="151.2209" y2="-158.5513" gradientTransform="matrix(1.1291 0 0 1.1291 -38.479 236.9463)">
	<stop  offset="1.000000e-02" style="stop-color:#000000"/>
	<stop  offset="0.13" style="stop-color:#000000;stop-opacity:0.69"/>
	<stop  offset="0.25" style="stop-color:#000000;stop-opacity:0.32"/>
	<stop  offset="1" style="stop-color:#000000;stop-opacity:0"/>
</linearGradient>
<path class="st22" d="M126,50.2L126,50c-0.1-0.6-0.1-1.2-0.2-1.7c-0.1-1.2-0.6-2.4-1.3-3.4v-0.1c0,0,4.2-2.7,4.6,0.5
	C129.5,48.5,126,50.2,126,50.2z"/>
<path class="st17" d="M121.7,43.1c-0.1,0.7,0,1.3,0.4,1.9c0.2,0.2,0.4,0.5,0.6,0.6c1.8,1.2,4.1,1.1,5.8-0.3c1.6-1.4,2.6-3.4,2.6-5.5
	c0.1-1.1-0.2-2.2-0.9-3.1c-0.8-0.8-2-1.1-3.1-0.9c-1.5,0.3-2.9,1.1-4,2.3C122,39.3,121.8,41.6,121.7,43.1z"/>
<path class="st23" d="M106.7,83.4c-0.9,1.1-1.5,2.3-2,3.7c-2.6,6.4-4.3,13.2-5.1,20.1c2.1,0.3,4.3,0.3,6.4,0
	c0.2-4.9,0.9-9.7,2.3-14.4c0.2-1,0.6-2,1.1-2.8c1.1-1.3,2.4-2.3,4-3c3.5-1.7,7.1-3.1,10.8-4.1c1.6-0.4,3.2-0.8,4.7-1.4
	c1.3-0.4,2.6-1,3.7-1.9c1.9-1.6,3.4-5.1,0.8-6.9c-1.2-0.7-2.6-1-4-1.1l-4.3-0.4c-0.8-0.2-1.7,0.1-2.3,0.6c-3.2,2.5-6.5,4.7-9.9,6.9
	C110.9,80.1,108.4,81.4,106.7,83.4z"/>
<path class="st17" d="M136.7,54c0,0.2,0,0.5,0.1,0.7c0.2,3.4,0.2,6.9-0.1,10.4c-0.1,2.1-0.4,6.2-2.6,7.3c-4.2,2-12.2,1.3-12.2,1.3
	c-0.9-0.1-1.9-0.1-2.8,0.1c-0.5,0.2-1,0.4-1.5,0.6c-1.8,0.5-3.7,0.5-5.6,0c-0.3,0-0.6-0.1-0.9-0.3c-0.7-0.6-0.7-1.6-0.1-2.3
	c0.6-0.6,1.4-1.1,2.3-1.2c2.3-0.8,4.8-0.9,7.2-0.3c0.3,0.1,0.6,0.2,0.9,0.3c0.4,0.1,0.8,0.1,1.1,0.1h2.8c3.3,0,6.3,0,6.8-3.8
	c0.2-1.4,0.2-2.9,0.1-4.3c-0.2-2.6-0.9-5.2-0.7-7.8c0-0.8,0.2-1.6,0.6-2.4c0.4-0.7,1.1-1.2,2-1.3c0.9,0.1,1.6,0.6,2,1.4
	C136.4,52.8,136.6,53.4,136.7,54z"/>
<path class="st24" d="M127.9,41.4c0.2,0.8,0.2,1.6,0.2,2.4c0.6-0.5,0.5-1.7,1.3-1.7c0.4,0,0.6,0.6,0.4,1c-0.3,0.4-0.7,0.7-1.1,0.7
	c-0.1,1.7,1.2,2.8,2.3,3.9c1.2,1.2,2.1,2.7,2.5,4.4c0.4,2.1,0.6,4.3,0.5,6.5c0.6-0.5,1.4-0.2,2.2-0.1c2.3,0.1,4.4-1.5,4.9-3.7
	c0.4-2.3-0.6-4.5-2.6-5.7c-0.6-0.3-1.2-0.7-1.7-1.2c-0.5-0.8-0.2-1.8-0.2-2.8c0-2.1-1.5-4-3.5-4.5c0.4-0.7,0.7-1.6,0.8-2.4
	c0-1.1-0.5-2.2-1.3-3c-0.8-0.8-1.8-1.4-2.8-1.8c-0.9-0.5-2-0.7-3.1-0.5c-1.2,0.5-2.1,1.5-2.4,2.8c-0.6-0.3-1.3-0.1-1.7,0.4
	c-0.4,0.5-0.6,1.1-0.6,1.8c0,0.4,0.1,0.8,0.3,1.2c0.4-0.5,0.9-0.9,1.3-0.6c0.5,0.3,0.8,1,1.2,1.4c0.5,0.4,1,0.7,1.5,1
	C126.9,40.8,127.4,41.1,127.9,41.4z"/>
<path class="st1" d="M117.6,40.1l-0.4,2.2c-0.1,0.6-0.5,1.1-1.1,1.1c-2.1-0.4-7.4-1.1-11.1-0.1c-2,0.5-4,1.2-6,2
	c-0.8,0.3-1.5-0.5-1.4-1.6l1.4-11.7c0.1-1,1-1.5,1.7-0.9c2.7,2.4,8.9,7.3,15.9,7.3C117.2,38.4,117.7,39.2,117.6,40.1z"/>
<ellipse transform="matrix(7.880702e-02 -0.9969 0.9969 7.880702e-02 53.2539 133.6102)" class="st1" cx="98.9" cy="38" rx="7.4" ry="3.5"/>
<linearGradient id="SVGID_19_" gradientUnits="userSpaceOnUse" x1="-549.7446" y1="-179.568" x2="-504.2245" y2="-160.1779" gradientTransform="matrix(-1.1327 1.066072e-03 1.066072e-03 1.1327 -515.7031 238.6068)">
	<stop  offset="1.000000e-02" style="stop-color:#000000"/>
	<stop  offset="8.000000e-02" style="stop-color:#000000;stop-opacity:0.69"/>
	<stop  offset="0.21" style="stop-color:#000000;stop-opacity:0.32"/>
	<stop  offset="1" style="stop-color:#000000;stop-opacity:0"/>
</linearGradient>
<path class="st25" d="M95.4,37.7c0.3-4.1,2.1-7.2,4.1-7.1c1.9,0.2,3.2,3.6,2.9,7.6c-0.3,4.1-2.1,7.2-4.1,7.1
	C96.4,45.2,95.1,41.8,95.4,37.7z"/>
<path class="st1" d="M110.3,49.2l0.4-1.2c0.2-0.5,0.7-0.8,1.2-0.6l1.2,0.4c0.5,0.2,0.8,0.7,0.6,1.2l-0.4,1.2
	c-0.2,0.5-0.7,0.8-1.2,0.6l-1.2-0.4C110.4,50.3,110.2,49.7,110.3,49.2z"/>
<path class="st26" d="M284.1,156.3h-92.4c-3.9,0-7.1-3.2-7.1-7.1v-34c0-3.8,3-6.9,6.8-7.1l92.4-4.3c3.9-0.2,7.2,2.8,7.4,6.7
	c0,0,0,0,0,0c0,0.1,0,0.2,0,0.4v38.3C291.2,153.1,288,156.3,284.1,156.3L284.1,156.3L284.1,156.3z"/>
<path class="st21" d="M226,94.8l-66.1,3.3c-2.6,0.2-4.9-1.8-5-4.4c0-0.1,0-0.2,0-0.3V69.2c0-2.7,2.1-5,4.8-5.3l66.1-6.3
	c2.6-0.3,5,1.6,5.3,4.2c0,0.2,0,0.3,0,0.5v27.2C231.1,92.4,228.8,94.7,226,94.8z"/>
<path class="st21" d="M121.2,165.6l-47.8-2.3c-2.8-0.1-4.9-2.4-4.9-5.2v-19.6c0-2.8,2.3-5.2,5.1-5.2l47.8-0.5c2.9,0,5.2,2.3,5.3,5.1
	c0,0,0,0,0,0v22.4c0,2.9-2.4,5.2-5.2,5.1c0,0,0,0,0,0H121.2z"/>
</svg>
