<?xml version="1.0" encoding="utf-8"?>
<!-- Generator: Adobe Illustrator 24.0.3, SVG Export Plug-In . SVG Version: 6.00 Build 0)  -->
<svg version="1.1" id="Layer_1" xmlns="http://www.w3.org/2000/svg" xmlns:xlink="http://www.w3.org/1999/xlink" x="0px" y="0px"
	 viewBox="0 0 406 306" style="enable-background:new 0 0 406 306;" xml:space="preserve">
<style type="text/css">
	.st0{opacity:0.3;fill:#E6E6E6;enable-background:new    ;}
	.st1{fill:#4356AD;}
	.st2{fill:#FE9F24;}
	.st3{fill:#2B65B5;}
	.st4{fill:#586EDF;}
	.st5{opacity:9.000000e-02;enable-background:new    ;}
	.st6{fill:#F4A28C;}
	.st7{opacity:0.1;enable-background:new    ;}
	.st8{fill:#24285B;}
	.st9{opacity:0.43;fill:#C1C1C1;enable-background:new    ;}
	.st10{opacity:0.36;fill:#C1C1C1;enable-background:new    ;}
	.st11{fill:#C1C1C1;}
	.st12{opacity:0.44;fill:#C1C1C1;enable-background:new    ;}
	.st13{fill:#FFFFFF;}
	.st14{fill:#C9C9C9;}
</style>
<title>_</title>
<path class="st0" d="M83.9,39.8C40.5,54,2.3,91.1,0.1,142.5C-1,171,5.1,244.2,95.6,263.3c145.2,30.5,275.6,20.2,303.1-53.3
	c24.4-65.4-14.3-152.5-86.8-170.5C260.8,26.9,168.9,12.2,83.9,39.8z"/>
<path class="st1" d="M73.1,19.8h247.9c1.8,0,3.3,1.5,3.3,3.3v220.1c0,1.8-1.5,3.3-3.3,3.3H73.1c-1.8,0-3.3-1.5-3.3-3.3V23.1
	C69.9,21.3,71.3,19.8,73.1,19.8z"/>
<circle class="st2" cx="90.1" cy="39.8" r="6.1"/>
<circle class="st3" cx="107.2" cy="39.8" r="6.1"/>
<circle class="st4" cx="123.6" cy="39.8" r="6.1"/>
<path class="st5" d="M195.4,81.8c0,0,26.8,25.9,13.2,50.2c-0.4,0.8-0.9,1.5-1.4,2.3c-6.5,10-16.6,17-27.2,21.9
	c-4.2,1.9-8.4,3.6-12.9,4.9c-3.5,1-7.9,1.4-10.4,4.5c-0.9,1.2-1.7,2.6-2.2,3.8c-1.7,3.6-2.8,7.3-3.3,11.1c-0.3,3.7,0.8,7.3,0.9,10.9
	c0.5,11.1-3.6,22.2-9.8,31.4c-3.8,5.6-8.4,10.7-13.4,15.5c-2.4,2.3-5,4.7-7.7,6.8c-1.9,1.5-2.9,1.4-5.4,1.3c-6.8,0-13.5,0-20.3,0
	l23.8-62.4l20.4-40.3c0,0,36.7-1.4,48-16.2C199.3,112.6,195.4,81.8,195.4,81.8z"/>
<path class="st4" d="M246.3,63.7h107.3c2.6,0,4.7,2.1,4.7,4.7v150.9c0,2.6-2.1,4.7-4.7,4.7H246.3c-2.6,0-4.7-2.1-4.7-4.7V68.4
	C241.6,65.8,243.7,63.7,246.3,63.7z"/>
<path class="st6" d="M82.2,202.2c0,0,18.4-48.6,45.2-44.3c26.8,4.2,28.9,85.2-37.6,83.7L82.2,202.2z"/>
<path class="st7" d="M144.5,196.4c-1.7,14.1-8.7,28.8-22.6,37.3c-6.6,4-13.9,6.4-21.6,7.3c-3.5,0.4-7,0.5-10.5,0.5l-7.5-39.4
	c0,0,18.4-48.6,45.2-44.3c7.8,1.2,13.5,8.9,16.1,19.3C145,183.4,145.3,189.9,144.5,196.4z"/>
<path class="st7" d="M144.5,196.4c-6.6,7.8-18.5,12.3-20.6,24.3c-0.8,4.3-1.4,8.8-2,13c-6.6,4-13.9,6.4-21.6,7.3l3.8-25.3l38-40
	c0.5,0.4,1,0.9,1.4,1.4C145,183.4,145.3,189.9,144.5,196.4z"/>
<rect x="119.6" y="149.9" transform="matrix(0.3084 -0.9513 0.9513 0.3084 -56.0302 238.9141)" class="st3" width="33.4" height="16.2"/>
<path class="st4" d="M168.9,58.3c-25.3-8.2-52.5,5.6-60.7,30.9c-8.2,25.3,5.6,52.5,30.9,60.7c25.3,8.2,52.5-5.6,60.7-30.9l0,0
	C208.2,93.7,194.2,66.5,168.9,58.3z M143,138.6c-19-6.1-29.5-26.6-23.4-45.6s26.6-29.5,45.6-23.4c19,6.1,29.5,26.6,23.4,45.6
	C182.3,134.3,161.9,144.7,143,138.6L143,138.6z"/>
<path class="st8" d="M127.1,162.5l13.9,4.5c3.2,1,5,4.5,4,7.7L131.2,217c-1,3.2-4.5,5-7.7,4l-13.9-4.5c-3.2-1-5-4.5-4-7.7l13.8-42.4
	C120.5,163.1,123.9,161.4,127.1,162.5z"/>
<path class="st6" d="M106.1,186.7c0,0,24-18,32.6-14.7c7.2,2.7,4.9,17.4-13,27.1c-7.4,4-12.7,10.9-14.6,19c-1.5,6.8-5,14.6-13,19.7
	c-16.6,10.7-25.7-2.3-21.6-19.4C80.7,201.2,82.5,196.2,106.1,186.7z"/>
<path class="st3" d="M95.6,285l10.9-47.4c0.1-0.8-0.3-1.5-0.9-1.9l-35-16.7c-0.8-0.4-1.8,0-2.2,0.8L37.8,284c-0.5,1,0.3,2.2,1.4,2.2
	h55C94.8,286.2,95.4,285.6,95.6,285z"/>
<polygon class="st7" points="95.3,286.2 106.7,236.3 88.7,227.8 71.9,286.2 "/>
<rect x="282.4" y="99.3" class="st9" width="25.3" height="7.3"/>
<circle class="st10" cx="265.5" cy="104.6" r="9.6"/>
<rect x="262.9" y="187.8" class="st3" width="52.7" height="15.3"/>
<rect x="262.9" y="125.8" class="st11" width="51.9" height="6.4"/>
<rect x="262.9" y="142.5" class="st12" width="81" height="6.4"/>
<rect x="262.9" y="156.6" class="st12" width="81" height="6.4"/>
<rect x="262.9" y="171" class="st12" width="63.6" height="6.4"/>
<circle class="st2" cx="252.9" cy="76.5" r="4.3"/>
<circle class="st3" cx="265.3" cy="76.5" r="4.3"/>
<circle class="st13" cx="277" cy="76.5" r="4.3"/>
<path class="st14" d="M154.5,134.5c-16.7,0-30.4-13.5-30.4-30.4c0-16.7,13.5-30.4,30.4-30.4c16.7,0,30.4,13.5,30.4,30.4
	c0,0,0,0,0,0.1C184.8,120.9,171.2,134.5,154.5,134.5z M154.5,81.8c-12.3,0-22.2,10-22.2,22.2s10,22.2,22.2,22.2
	c12.3,0,22.2-10,22.2-22.2S166.8,81.9,154.5,81.8z"/>
<path class="st8" d="M154.5,134.5c-7.4,0-14.6-2.7-20.2-7.7l5.5-6.1c4.1,3.6,9.3,5.6,14.7,5.6V134.5z"/>
<path class="st3" d="M184.9,104.1h-8.2c0-12.3-10-22.2-22.2-22.2v-8.2C171.2,73.6,184.9,87.3,184.9,104.1z"/>
<path class="st2" d="M154.5,134.5v-8.2c12.3,0,22.2-10,22.2-22.2h8.2C184.8,120.9,171.2,134.5,154.5,134.5z"/>
<rect x="162.8" y="199.9" class="st4" width="12.5" height="20.3"/>
<rect x="184" y="178" class="st4" width="12.5" height="42.2"/>
<rect x="206.2" y="163.4" class="st4" width="12.5" height="56.9"/>
<path class="st3" d="M293.8,27.6c2.4,0,4.9,0.4,7.2,1.3c1.9,0.8,3.7,1.8,5.4,3.2c0.6,0.5,1.2,1.2,1.8,1.7c0.8,0.8,0.6,2-0.1,2.7
	s-1.8,0.6-2.6,0c-0.6-0.5-1.2-1.2-1.7-1.5c-5.1-4.3-12.7-4.6-18-0.6c-0.9,0.6-1.8,1.4-2.6,2.3c-0.4,0.4-0.9,0.8-1.4,0.8
	c-0.8,0.1-1.5-0.3-1.9-0.9c-0.5-0.6-0.4-1.5,0.1-2.2c1.2-1.3,2.3-2.4,3.7-3.3c1.7-1.2,3.5-2,5.4-2.6
	C290.6,27.9,292.2,27.6,293.8,27.6z"/>
<path class="st3" d="M294.8,34.5c1.5,0.1,3.1,0.5,4.5,1.2c1.5,0.8,2.9,1.8,4,3.2c0.6,0.8,0.6,1.9,0,2.7c-0.6,0.8-1.7,0.9-2.4,0.5
	c-0.5-0.4-1-0.8-1.4-1.2c-1.7-1.8-4.2-2.4-6.5-1.8c-1.4,0.4-2.6,1.2-3.6,2.2c-0.4,0.4-0.8,0.8-1.3,1.2c-0.9,0.5-1.9,0.3-2.6-0.4
	c-0.6-0.8-0.8-1.8-0.1-2.6c0.4-0.5,0.9-1,1.4-1.5c0.6-0.6,1.4-1.2,2-1.7c1.3-0.8,2.7-1.3,4.1-1.4C293.5,34.7,294.2,34.7,294.8,34.5z
	"/>
<path class="st3" d="M297.5,45.9c0,1.9-1.4,3.5-3.3,3.5c-1.9,0-3.5-1.4-3.5-3.3c0-1.9,1.4-3.5,3.3-3.5S297.5,44.1,297.5,45.9
	L297.5,45.9z"/>
</svg>
