<svg enable-background="new 0 0 406 306" viewBox="0 0 406 306" xmlns="http://www.w3.org/2000/svg"><path d="m83.9 39.8c-43.4 14.2-81.6 51.3-83.8 102.7-1.1 28.5 5 101.7 95.5 120.8 145.2 30.5 275.6 20.2 303.1-53.3 24.4-65.4-14.3-152.5-86.8-170.5-51.1-12.6-143-27.3-228 .3z" fill="#e6e6e6" opacity=".3"/><path d="m73.1 19.8h247.9c1.8 0 3.3 1.5 3.3 3.3v220.1c0 1.8-1.5 3.3-3.3 3.3h-247.9c-1.8 0-3.3-1.5-3.3-3.3v-220.1c.1-1.8 1.5-3.3 3.3-3.3z" fill="#4356ad"/><circle cx="90.1" cy="39.8" fill="#fe9f24" r="6.1"/><circle cx="107.2" cy="39.8" fill="#2b65b5" r="6.1"/><circle cx="123.6" cy="39.8" fill="#586edf" r="6.1"/><path d="m195.4 81.8s26.8 25.9 13.2 50.2c-.4.8-.9 1.5-1.4 2.3-6.5 10-16.6 17-27.2 21.9-4.2 1.9-8.4 3.6-12.9 4.9-3.5 1-7.9 1.4-10.4 4.5-.9 1.2-1.7 2.6-2.2 3.8-1.7 3.6-2.8 7.3-3.3 11.1-.3 3.7.8 7.3.9 10.9.5 11.1-3.6 22.2-9.8 31.4-3.8 5.6-8.4 10.7-13.4 15.5-2.4 2.3-5 4.7-7.7 6.8-1.9 1.5-2.9 1.4-5.4 1.3-6.8 0-13.5 0-20.3 0l23.8-62.4 20.4-40.3s36.7-1.4 48-16.2c11.6-14.9 7.7-45.7 7.7-45.7z" opacity=".09"/><path d="m246.3 63.7h107.3c2.6 0 4.7 2.1 4.7 4.7v150.9c0 2.6-2.1 4.7-4.7 4.7h-107.3c-2.6 0-4.7-2.1-4.7-4.7v-150.9c0-2.6 2.1-4.7 4.7-4.7z" fill="#586edf"/><path d="m82.2 202.2s18.4-48.6 45.2-44.3c26.8 4.2 28.9 85.2-37.6 83.7z" fill="#f4a28c"/><path d="m144.5 196.4c-1.7 14.1-8.7 28.8-22.6 37.3-6.6 4-13.9 6.4-21.6 7.3-3.5.4-7 .5-10.5.5l-7.5-39.4s18.4-48.6 45.2-44.3c7.8 1.2 13.5 8.9 16.1 19.3 1.4 6.3 1.7 12.8.9 19.3z" opacity=".1"/><path d="m144.5 196.4c-6.6 7.8-18.5 12.3-20.6 24.3-.8 4.3-1.4 8.8-2 13-6.6 4-13.9 6.4-21.6 7.3l3.8-25.3 38-40c.5.4 1 .9 1.4 1.4 1.5 6.3 1.8 12.8 1 19.3z" opacity=".1"/><path d="m119.6 149.9h33.4v16.2h-33.4z" fill="#2b65b5" transform="matrix(.3084 -.9513 .9513 .3084 -56.0302 238.9141)"/><path d="m168.9 58.3c-25.3-8.2-52.5 5.6-60.7 30.9s5.6 52.5 30.9 60.7 52.5-5.6 60.7-30.9c8.4-25.3-5.6-52.5-30.9-60.7zm-25.9 80.3c-19-6.1-29.5-26.6-23.4-45.6s26.6-29.5 45.6-23.4 29.5 26.6 23.4 45.6c-6.3 19.1-26.7 29.5-45.6 23.4z" fill="#586edf"/><path d="m127.1 162.5 13.9 4.5c3.2 1 5 4.5 4 7.7l-13.8 42.3c-1 3.2-4.5 5-7.7 4l-13.9-4.5c-3.2-1-5-4.5-4-7.7l13.8-42.4c1.1-3.3 4.5-5 7.7-3.9z" fill="#24285b"/><path d="m106.1 186.7s24-18 32.6-14.7c7.2 2.7 4.9 17.4-13 27.1-7.4 4-12.7 10.9-14.6 19-1.5 6.8-5 14.6-13 19.7-16.6 10.7-25.7-2.3-21.6-19.4 4.2-17.2 6-22.2 29.6-31.7z" fill="#f4a28c"/><path d="m95.6 285 10.9-47.4c.1-.8-.3-1.5-.9-1.9l-35-16.7c-.8-.4-1.8 0-2.2.8l-30.6 64.2c-.5 1 .3 2.2 1.4 2.2h55c.6 0 1.2-.6 1.4-1.2z" fill="#2b65b5"/><path d="m95.3 286.2 11.4-49.9-18-8.5-16.8 58.4z" opacity=".1"/><path d="m282.4 99.3h25.3v7.3h-25.3z" fill="#c1c1c1" opacity=".43"/><circle cx="265.5" cy="104.6" fill="#c1c1c1" opacity=".36" r="9.6"/><path d="m262.9 187.8h52.7v15.3h-52.7z" fill="#2b65b5"/><g fill="#c1c1c1"><path d="m262.9 125.8h51.9v6.4h-51.9z"/><path d="m262.9 142.5h81v6.4h-81z" opacity=".44"/><path d="m262.9 156.6h81v6.4h-81z" opacity=".44"/><path d="m262.9 171h63.6v6.4h-63.6z" opacity=".44"/></g><circle cx="252.9" cy="76.5" fill="#fe9f24" r="4.3"/><circle cx="265.3" cy="76.5" fill="#2b65b5" r="4.3"/><circle cx="277" cy="76.5" fill="#fff" r="4.3"/><path d="m154.5 134.5c-16.7 0-30.4-13.5-30.4-30.4 0-16.7 13.5-30.4 30.4-30.4 16.7 0 30.4 13.5 30.4 30.4v.1c-.1 16.7-13.7 30.3-30.4 30.3zm0-52.7c-12.3 0-22.2 10-22.2 22.2s10 22.2 22.2 22.2c12.3 0 22.2-10 22.2-22.2s-9.9-22.1-22.2-22.2z" fill="#c9c9c9"/><path d="m154.5 134.5c-7.4 0-14.6-2.7-20.2-7.7l5.5-6.1c4.1 3.6 9.3 5.6 14.7 5.6z" fill="#24285b"/><path d="m184.9 104.1h-8.2c0-12.3-10-22.2-22.2-22.2v-8.2c16.7-.1 30.4 13.6 30.4 30.4z" fill="#2b65b5"/><path d="m154.5 134.5v-8.2c12.3 0 22.2-10 22.2-22.2h8.2c-.1 16.8-13.7 30.4-30.4 30.4z" fill="#fe9f24"/><path d="m162.8 199.9h12.5v20.3h-12.5z" fill="#586edf"/><path d="m184 178h12.5v42.2h-12.5z" fill="#586edf"/><path d="m206.2 163.4h12.5v56.9h-12.5z" fill="#586edf"/><g fill="#2b65b5"><path d="m293.8 27.6c2.4 0 4.9.4 7.2 1.3 1.9.8 3.7 1.8 5.4 3.2.6.5 1.2 1.2 1.8 1.7.8.8.6 2-.1 2.7s-1.8.6-2.6 0c-.6-.5-1.2-1.2-1.7-1.5-5.1-4.3-12.7-4.6-18-.6-.9.6-1.8 1.4-2.6 2.3-.4.4-.9.8-1.4.8-.8.1-1.5-.3-1.9-.9-.5-.6-.4-1.5.1-2.2 1.2-1.3 2.3-2.4 3.7-3.3 1.7-1.2 3.5-2 5.4-2.6 1.5-.6 3.1-.9 4.7-.9z"/><path d="m294.8 34.5c1.5.1 3.1.5 4.5 1.2 1.5.8 2.9 1.8 4 3.2.6.8.6 1.9 0 2.7s-1.7.9-2.4.5c-.5-.4-1-.8-1.4-1.2-1.7-1.8-4.2-2.4-6.5-1.8-1.4.4-2.6 1.2-3.6 2.2-.4.4-.8.8-1.3 1.2-.9.5-1.9.3-2.6-.4-.6-.8-.8-1.8-.1-2.6.4-.5.9-1 1.4-1.5.6-.6 1.4-1.2 2-1.7 1.3-.8 2.7-1.3 4.1-1.4.6-.2 1.3-.2 1.9-.4z"/><path d="m297.5 45.9c0 1.9-1.4 3.5-3.3 3.5s-3.5-1.4-3.5-3.3 1.4-3.5 3.3-3.5 3.5 1.5 3.5 3.3z"/></g></svg>