<?xml version="1.0" encoding="UTF-8"?>
<svg width="446px" height="407px" viewBox="0 0 446 407" version="1.1" xmlns="http://www.w3.org/2000/svg" xmlns:xlink="http://www.w3.org/1999/xlink">
    <title>Password_Monochromatic</title>
    <defs>
        <linearGradient x1="46.0682041%" y1="36.6352333%" x2="62.5812789%" y2="84.5718918%" id="linearGradient-1">
            <stop stop-color="#000000" stop-opacity="0" offset="0%"></stop>
            <stop stop-color="#000000" offset="99%"></stop>
        </linearGradient>
        <linearGradient x1="50.102658%" y1="50.2652711%" x2="49.7114478%" y2="49.248496%" id="linearGradient-2">
            <stop stop-color="#000000" stop-opacity="0" offset="0%"></stop>
            <stop stop-color="#000000" offset="99%"></stop>
        </linearGradient>
        <linearGradient x1="190.015221%" y1="-31.9478932%" x2="-90.8066971%" y2="132.428858%" id="linearGradient-3">
            <stop stop-color="#000000" stop-opacity="0" offset="0%"></stop>
            <stop stop-color="#000000" offset="99%"></stop>
        </linearGradient>
        <linearGradient x1="126.786943%" y1="-22.9324547%" x2="-27.223853%" y2="123.360791%" id="linearGradient-4">
            <stop stop-color="#000000" stop-opacity="0" offset="0%"></stop>
            <stop stop-color="#000000" offset="99%"></stop>
        </linearGradient>
        <linearGradient x1="50.7714185%" y1="153.750864%" x2="48.931882%" y2="31.3875561%" id="linearGradient-5">
            <stop stop-color="#000000" stop-opacity="0" offset="0%"></stop>
            <stop stop-color="#000000" offset="99%"></stop>
        </linearGradient>
        <linearGradient x1="50.2461707%" y1="47.4406513%" x2="49.5897155%" y2="54.483354%" id="linearGradient-6">
            <stop stop-color="#000000" stop-opacity="0" offset="0%"></stop>
            <stop stop-color="#000000" offset="99%"></stop>
        </linearGradient>
    </defs>
    <g id="Page-1" stroke="none" stroke-width="1" fill="none" fill-rule="evenodd">
        <g id="password-forgot-desktop" transform="translate(-900.000000, -122.000000)" fill-rule="nonzero">
            <g id="Password_Monochromatic" transform="translate(900.423750, 122.000000)">
                <path d="M415.862972,112.093346 C397.732745,87.4126555 374.497788,69.0506264 351.526505,50.9918929 C323.756355,29.1293255 294.773304,6.69807857 261.87733,1.27666734 C230.457931,-3.90463476 198.374073,7.19093414 170.530094,25.4013154 C142.686115,43.6116968 118.43865,68.6335947 94.4021237,93.4532956 L37.8387677,151.913548 C25.9417948,164.209663 13.7073191,177.01127 6.93616964,193.995831 C1.18807547,208.402378 -0.172482605,224.881447 0.924401421,240.753923 C3.60125373,277.293035 18.4466279,311.000765 42.1102872,334.270108 C58.5424536,350.231046 78.3601948,360.302991 98.0724664,369.578786 C134.290733,386.563347 171.626978,401.551211 210.365969,405.721527 C251.731153,410.182502 293.243994,402.157803 334.229488,394.158378 C384.559589,384.339178 413.437171,358.698051 421.769271,299.29 C426.293917,267.140652 440.964741,238.011624 444.044454,205.773815 C447.387841,171.059091 434.604923,137.658649 415.862972,112.093346 Z" id="Path" fill="#5870E0" opacity="0.18"></path>
                <rect id="Rectangle" fill="#5870E0" x="40.57625" y="60.7967033" width="352" height="248.791209" rx="13.42"></rect>
                <rect id="Rectangle" fill="#FFFFFF" x="51.57625" y="68.7087912" width="327" height="227.692308" rx="12.41"></rect>
                <polygon id="Path" fill="url(#linearGradient-1)" points="258.276535 270.027473 206.767811 244.257577 41.57625 244.257577 41.57625 184.752747 278.57625 184.752747 257.500468 227.34019"></polygon>
                <path d="M278.57625,98.0839438 L278.57625,214.245413 C278.57625,222.701542 271.735967,229.563455 263.282034,229.587912 L26.8815928,229.587912 C22.8166017,229.587912 18.9185863,227.970423 16.0473261,225.092186 C13.176066,222.213948 11.5674493,218.311433 11.57625,214.245413 L11.57625,98.0839438 C11.57625,89.6288959 18.4287054,82.7747253 26.8815928,82.7747253 L263.282034,82.7747253 C271.725525,82.79305 278.564051,89.6382842 278.57625,98.0839438 Z" id="Path" fill="#5870E0"></path>
                <path d="M144.719946,113.142206 C143.23515,113.6737 141.593855,112.940689 141.006344,111.483693 L138.224017,104.129042 C136.569149,99.9496256 131.84608,97.8684011 127.622871,99.4576375 C123.399662,101.046874 121.243493,105.716825 122.78325,109.939559 L126.634819,120.062212 C126.696806,120.229138 126.742996,120.401456 126.772786,120.576923 L120.679259,120.576923 L117.402551,111.96409 C114.822493,104.81021 118.482093,96.9192301 125.627391,94.2293554 C132.772688,91.5394806 140.766492,95.0434914 143.593219,102.104512 L146.387043,109.447724 C146.659555,110.157501 146.636925,110.945992 146.324147,111.639143 C146.01137,112.332294 145.434165,112.873109 144.719946,113.142206 L144.719946,113.142206 Z" id="Path" fill="#FFFFFF"></path>
                <rect id="Rectangle" fill="#5870E0" x="11.57625" y="306.071429" width="400" height="28.1318681" rx="12.02"></rect>
                <rect id="Rectangle" fill="url(#linearGradient-2)" x="11.57625" y="306.071429" width="400" height="28.1318681" rx="12.02"></rect>
                <polygon id="Path" fill="#5870E0" points="211.57625 229.717715 257.57625 270.027473 257.57625 220.796703"></polygon>
                <rect id="Rectangle" fill="#FFFFFF" x="45.57625" y="166.291209" width="195" height="33.4065934" rx="6.19"></rect>
                <rect id="Rectangle" fill="url(#linearGradient-3)" x="116.57625" y="120.576923" width="37" height="34.2857143"></rect>
                <rect id="Rectangle" fill="url(#linearGradient-4)" x="130.57625" y="119.697802" width="23" height="34.2857143"></rect>
                <path d="M134.295351,135.509398 C134.295351,135.509398 130.654902,132.552142 133.834677,130.032998 C137.014452,127.513854 140.57625,132.771198 137.205463,135.509398 L139.57625,141.675824 L131.57625,141.675824 L134.295351,135.509398 Z" id="Path" fill="url(#linearGradient-5)"></path>
                <ellipse id="Oval" fill="#000000" cx="73.57625" cy="181.236264" rx="7" ry="7.03296703"></ellipse>
                <ellipse id="Oval" fill="#000000" cx="92.57625" cy="181.236264" rx="7" ry="7.03296703"></ellipse>
                <ellipse id="Oval" fill="#000000" cx="110.57625" cy="181.236264" rx="7" ry="7.03296703"></ellipse>
                <ellipse id="Oval" fill="#000000" cx="130.57625" cy="181.236264" rx="7" ry="7.03296703"></ellipse>
                <ellipse id="Oval" fill="#000000" cx="150.57625" cy="181.236264" rx="7" ry="7.03296703"></ellipse>
                <ellipse id="Oval" fill="#000000" cx="169.57625" cy="181.236264" rx="7" ry="7.03296703"></ellipse>
                <ellipse id="Oval" fill="#000000" cx="188.57625" cy="181.236264" rx="7" ry="7.03296703"></ellipse>
                <ellipse id="Oval" fill="#000000" cx="206.57625" cy="181.236264" rx="7" ry="7.03296703"></ellipse>
                <rect id="Rectangle" fill="url(#linearGradient-6)" x="171.57625" y="307.82967" width="82" height="7.91208791"></rect>
            </g>
        </g>
    </g>
</svg>