<svg height="306" viewBox="0 0 421.26 322.03" width="406" xmlns="http://www.w3.org/2000/svg" xmlns:xlink="http://www.w3.org/1999/xlink"><linearGradient id="a" gradientUnits="userSpaceOnUse" x1="170.51" x2="205.81" y1="103.77" y2="388.4"><stop offset="0" stop-opacity="0"/><stop offset=".99"/></linearGradient><linearGradient id="b" x1="226.33" x2="224.92" xlink:href="#a" y1="280.91" y2="228.82"/><linearGradient id="c" x1="202.61" x2="110.36" xlink:href="#a" y1="72.94" y2="131.04"/><linearGradient id="d" x1="197.85" x2="127.35" xlink:href="#a" y1="79.71" y2="124.11"/><linearGradient id="e" x1="159.09" x2="158.78" xlink:href="#a" y1="137.11" y2="123.36"/><linearGradient id="f" x1="227.03" x2="226.55" xlink:href="#a" y1="237.99" y2="294.8"/><path d="m396 113.25c-17.19-19.53-39.22-34.06-61-48.35-26.33-17.3-53.81-35.05-85-39.34-29.79-4.1-60.21 4.68-86.61 19.09s-49.39 34.21-72.18 53.85l-53.63 46.26c-11.28 9.73-22.88 19.86-29.3 33.3-5.45 11.4-6.74 24.44-5.7 37a107.94 107.94 0 0 0 39.05 74c15.58 12.63 34.37 20.6 53.06 27.94 34.34 13.44 69.74 25.3 106.47 28.6 39.22 3.53 78.58-2.82 117.44-9.15 47.72-7.77 75.1-28.06 83-75.07 4.29-25.44 18.2-48.49 21.12-74 3.17-27.47-8.95-53.9-26.72-74.13z" fill="#586fe0" opacity=".18" transform="translate(-1.99 -24.55)"/><rect fill="#586fe0" height="223.86" rx="13.42" width="316.78" x="71.09" y="32.9"/><rect fill="#fff" height="205.46" rx="12.41" width="295.27" x="81.88" y="40.51"/><path d="m267.49 221.56-46.46-23.23h-149v-53.64h213.77l-19.01 38.39z" fill="url(#a)"/><path d="m287.79 91.67v104.71a13.83 13.83 0 0 1 -13.79 13.83h-213.15a13.8 13.8 0 0 1 -13.8-13.83v-104.71a13.8 13.8 0 0 1 13.8-13.8h213.15a13.82 13.82 0 0 1 13.79 13.8z" fill="#586fe0" transform="translate(-1.99 -24.55)"/><path d="m167.21 104.72a2.55 2.55 0 0 1 -3.23-1.45l-2.42-6.43a7.18 7.18 0 0 0 -13.43 5.08l3.35 8.85a2.5 2.5 0 0 1 .12.45h-5.3l-2.85-7.53a12.18 12.18 0 0 1 22.78-8.62l2.43 6.42a2.5 2.5 0 0 1 -1.45 3.23z" fill="#fff" transform="translate(-1.99 -24.55)"/><rect fill="#586fe0" height="25.34" rx="12.02" width="360.42" x="45.75" y="254.65"/><rect fill="url(#b)" height="25.34" rx="12.02" width="360.42" x="45.75" y="254.65"/><path d="m225.25 184.96 42.24 36.6v-44.7z" fill="#586fe0"/><rect fill="#fff" height="30.04" rx="6.19" width="175.52" x="76.25" y="127.7"/><path d="m140.19 86.73h32.85v30.35h-32.85z" fill="url(#c)"/><path d="m152.4 86.67h20.6v30.35h-20.6z" fill="url(#d)"/><path d="m157.82 125.44s-3.24-2.7-.41-5 6 2.5 3 5l2.11 5.63h-7.12z" fill="url(#e)" transform="translate(-1.99 -24.55)"/><circle cx="101.38" cy="142.02" r="6.27"/><circle cx="118.29" cy="142.02" r="6.27"/><circle cx="135.2" cy="142.02" r="6.27"/><circle cx="152.11" cy="142.02" r="6.27"/><circle cx="170.35" cy="142.02" r="6.27"/><circle cx="187.26" cy="142.02" r="6.27"/><circle cx="204.17" cy="142.02" r="6.27"/><circle cx="221.09" cy="142.02" r="6.27"/><g fill="#586fe0" transform="translate(-1.99 -24.55)"><path d="m55.48 68.08a5 5 0 0 1 -4.58-3l-10.8-24.88a5 5 0 1 1 9.18-4l10.79 24.89a5 5 0 0 1 -4.59 7z"/><path d="m7 102.19a5 5 0 0 1 -.33-10l27.05-1.81a5 5 0 1 1 .67 10l-27.06 1.8z"/><path d="m35.77 77.58a4.94 4.94 0 0 1 -2.77-.86l-22.47-15.24a5 5 0 0 1 5.62-8.27l22.43 15.24a5 5 0 0 1 -2.81 9.13z"/></g><path d="m190.29 254.88h73.12v7.51h-73.12z" fill="url(#f)"/></svg>