<svg height="306" viewBox="0 0 517.18 461.34" width="406" xmlns="http://www.w3.org/2000/svg" xmlns:xlink="http://www.w3.org/1999/xlink"><linearGradient id="a" gradientTransform="matrix(1.2 -.42 .56 .64 -1564.85 1751.48)" gradientUnits="userSpaceOnUse" x1="1884.6" x2="2270.26" y1="-953.14" y2="-1065.33"><stop offset=".01"/><stop offset=".13" stop-opacity=".69"/><stop offset="1" stop-opacity="0"/></linearGradient><linearGradient id="b" x1="419.22" x2="95.99" xlink:href="#a" y1="143.23" y2="501.38"/><linearGradient id="c" x1="1812.48" x2="2161.82" xlink:href="#a" y1="-928.72" y2="-1037.62"/><linearGradient id="d" x1="1828.69" x2="2214.34" xlink:href="#a" y1="-998.04" y2="-1110.23"/><linearGradient id="e" x1="1756.57" x2="2105.91" xlink:href="#a" y1="-973.62" y2="-1082.53"/><path d="m84 50.87c83.73-55.22 203.69-47.82 280 17.29 17.94 15.3 33.58 33.33 52.8 47 16.69 11.86 35.86 20.26 51.08 33.95 31.32 28.16 40.59 74.21 36.48 116.12-7.12 72.64-50.87 140.76-114 177.43-74.19 43.12-169.23 41.27-248.07 7.41-20.26-8.7-39.87-19.49-56.15-34.35-58.32-53.17-47.15-128.34-72.36-195.5-24.78-66.32 12.93-131.61 70.22-169.35z" fill="#4a67c6" opacity=".42" transform="translate(-5.87 -13.92)"/><path d="m510.47 308.26-140.36 81.74c-8.22 4.79-21.66 4.8-30 0l-235.75-135c-8.35-4.78-8.44-12.54-.22-17.33l140.36-81.69c8.23-4.79 21.66-4.8 30 0l235.75 135c8.35 4.73 8.45 12.49.22 17.28z" fill="#4a67c6" transform="translate(-5.87 -13.92)"/><path d="m516.94 299.53-140.35 81.69c-8.23 4.79-21.67 4.8-30 0l-235.75-135c-8.35-4.78-8.45-12.54-.22-17.33l140.38-81.7c8.23-4.79 21.67-4.8 30 0l235.75 135c8.32 4.81 8.42 12.55.19 17.34z" fill="#4a67c6" transform="translate(-5.87 -13.92)"/><path d="m511.83 302.51-140.35 81.69c-8.23 4.79-21.67 4.8-30 0l-235.75-135c-8.35-4.78-8.44-12.54-.21-17.33l140.35-81.69c8.23-4.79 21.67-4.8 30 0l235.75 135c8.38 4.82 8.44 12.54.21 17.33z" fill="#4a67c6" transform="translate(-5.87 -13.92)"/><path d="m511.83 302.5-140.36 81.7a22.91 22.91 0 0 1 -3.27 1.55c-8.18 3.17-19.42 2.65-26.74-1.53l-235.75-135c-8.34-4.77-8.44-12.53-.22-17.32l64.31-37.42 76-44.27c8.22-4.79 21.66-4.8 30 0l235.74 135c8.46 4.79 8.52 12.51.29 17.29z" fill="url(#a)" opacity=".58" transform="translate(-5.87 -13.92)"/><path d="m229.47 142.61 266.78 150.77-47.3 27.6-265.09-152.47z" fill="url(#b)" opacity=".58"/><path d="m432.51 348.32-64.31 37.43c-8.18 3.17-19.42 2.65-26.74-1.53l-235.75-135c-8.34-4.77-8.44-12.53-.22-17.32l64.31-37.42c8.17-3.17 19.42-2.65 26.74 1.53l235.75 134.99c8.34 4.78 8.44 12.54.22 17.32z" fill="url(#c)" opacity=".58" transform="translate(-5.87 -13.92)"/><path d="m280.92 211.44-30.2 17.56c-4.56 2.66-12 2.66-16.64 0l-37-21.19c-4.63-2.65-4.68-7-.12-9.61l30.2-17.58c4.56-2.65 12-2.66 16.64 0l37 21.19c4.63 2.68 4.68 6.98.12 9.63z" fill="#fdb523" transform="translate(-5.87 -13.92)"/><path d="m261.41 222.6-5 2.88-15.41-8.84a15.87 15.87 0 0 1 -8.2.84l-.74-.14-.58-.32c-1.29-.7-12.75-6.9-15.35-8.81-2.76-2-1.33-5 0-6.84l-12.29-7 5-2.88 16 9.17-1.33 1.34c-1.42 1.49-2.17 3.32-1.78 3.76 1.59 1.17 8.78 5.18 13.73 7.87a5.69 5.69 0 0 0 2.89-1.09l2.45-1.72z" fill="#efa92b" transform="translate(-5.87 -13.92)"/><path d="m270.65 217.21 5-2.88-15.44-8.84c2.14-1.86 2-3.75 1.39-4.74l-.25-.43-.54-.33c-1.23-.74-12.07-7.3-15.39-8.79-3.53-1.58-8.72-.73-11.85 0l-12.29-7-5 2.88 16 9.17 2.33-.75c2.58-.83 5.74-1.28 6.51-1.06 2 .91 9 5 13.73 7.86-.07.35-.4 1-1.86 1.68l-2.95 1.43z" fill="#efa92b" transform="translate(-5.87 -13.92)"/><path d="m261 205.71-1.05.61-53.64-30.73 1.04-.61z" fill="#efa92b"/><path d="m244.61 215.25-1.05.6-53.64-30.72 1.05-.61z" fill="#efa92b"/><path d="m277.38 196.17-1.04.61-53.65-30.73 1.05-.61z" fill="#efa92b"/><text fill="#4a67c6" font-family="Roboto-Bold, Roboto" font-size="17.19" font-weight="700" transform="matrix(.88 .5 -.86 .5 283.99 213.78)">CREDIT CARD</text><g transform="translate(-5.87 -13.92)"><path d="m245.9 297.59-115.11-66.46c-2.55-1.47-2.23-4 .71-5.75 2.94-1.7 7.4-1.88 9.95-.41l115.11 66.46c2.55 1.47 2.23 4-.72 5.74-2.94 1.7-7.39 1.89-9.94.42z" fill="#4a67c6"/><path d="m418.31 303-140.31 81.68c-8.23 4.79-21.67 4.8-30 0l-235.76-135c-8.34-4.78-8.44-12.54-.21-17.33l140.35-81.69c8.23-4.79 21.67-4.8 30 0l235.75 135c8.31 4.78 8.41 12.54.18 17.34z" fill="#4a67c6"/><path d="m419.67 297.24-140.35 81.69c-8.23 4.79-21.67 4.79-30 0l-235.75-135c-8.35-4.78-8.45-12.54-.22-17.33l140.34-81.7c8.23-4.79 21.67-4.8 30 0l235.75 135c8.37 4.79 8.46 12.55.23 17.34z" fill="#4a67c6"/><path d="m419.68 297.23-140.36 81.69a22.4 22.4 0 0 1 -3.27 1.56c-8.18 3.17-19.43 2.65-26.75-1.53l-235.75-135c-8.34-4.78-8.44-12.53-.21-17.32l64.3-37.42 76.05-44.27c8.23-4.79 21.66-4.8 30 0l235.75 135c8.36 4.75 8.46 12.5.24 17.29z" fill="url(#d)" opacity=".58"/><path d="m340.35 343.05-64.3 37.43c-8.18 3.17-19.43 2.65-26.75-1.53l-235.75-135c-8.34-4.78-8.44-12.53-.21-17.32l64.3-37.42c8.18-3.17 19.42-2.65 26.74 1.53l235.75 135c8.34 4.77 8.44 12.53.22 17.31z" fill="url(#e)" opacity=".58"/><path d="m188.76 206.17-30.19 17.58c-4.56 2.65-12 2.66-16.65 0l-37-21.19c-4.63-2.66-4.69-7-.12-9.61l30.2-17.57c4.57-2.66 12-2.66 16.65 0l37 21.19c4.62 2.64 4.68 6.95.11 9.6z" fill="#fdb523"/><path d="m169.25 217.32-4.95 2.89-15.43-8.84a16 16 0 0 1 -8.2.84l-.75-.15-.57-.31c-1.3-.7-12.75-6.9-15.35-8.81-2.76-2-1.34-5 0-6.84l-12.28-7 4.95-2.88 16 9.16-1.29 1.35c-1.41 1.5-2.16 3.33-1.78 3.77 1.59 1.17 8.78 5.18 13.73 7.87a5.81 5.81 0 0 0 2.9-1.09l2.45-1.72z" fill="#efa92b"/><path d="m178.5 211.94 4.95-2.88-15.45-8.84c2.13-1.87 2-3.75 1.39-4.74l-.26-.43-.54-.33c-1.22-.74-12.06-7.3-15.39-8.79-3.53-1.58-8.71-.73-11.85 0l-12.29-7-5 2.88 16 9.17 2.32-.76c2.58-.82 5.74-1.27 6.52-1.05 2 .91 9 5 13.73 7.86-.07.35-.4 1-1.87 1.68l-3 1.43z" fill="#efa92b"/></g><path d="m168.84 200.44-1.04.6-53.65-30.72 1.05-.61z" fill="#efa92b"/><path d="m152.45 209.97-1.04.61-53.65-30.72 1.05-.61z" fill="#efa92b"/><path d="m185.23 190.9-1.05.61-53.64-30.73 1.05-.61z" fill="#efa92b"/><text fill="#4a67c6" font-family="Roboto-Bold, Roboto" font-size="17.19" font-weight="700" transform="matrix(.88 .5 -.86 .5 191.83 208.5)">CREDIT CARD</text><path d="m288.24 348.7-231.19-133.48c-2.55-1.47-2.23-4 .71-5.74 2.94-1.7 7.4-1.88 9.95-.41l231.19 133.48c2.55 1.47 2.23 4-.72 5.74-2.94 1.71-7.39 1.88-9.94.41z" fill="#4a67c6" transform="translate(-5.87 -13.92)"/><path d="m153.74 292.32-115.11-66.46c-2.55-1.48-2.23-4.05.71-5.75 2.95-1.7 7.4-1.88 9.95-.41l115.11 66.46c2.55 1.47 2.23 4-.71 5.74-2.95 1.7-7.4 1.89-9.95.42z" fill="#4a67c6" transform="translate(-5.87 -13.92)"/><path d="m270.9 360-83.37-48.12c-2.55-1.48-2.23-4.05.72-5.75 2.94-1.7 7.4-1.88 9.95-.41l83.36 48.13c2.55 1.47 2.23 4-.72 5.74-2.94 1.65-7.4 1.84-9.94.41z" fill="#4a67c6" transform="translate(-5.87 -13.92)"/></svg>