<?xml version="1.0" encoding="UTF-8"?>
<svg width="181px" height="159px" viewBox="0 0 181 159" version="1.1" xmlns="https://www.w3.org/2000/svg" xmlns:xlink="https://www.w3.org/1999/xlink">
    <title>payment</title>
    <defs>
        <linearGradient x1="15.1765424%" y1="61.3965266%" x2="110.73521%" y2="29.1937688%" id="linearGradient-1">
            <stop stop-color="#000000" offset="1%"></stop>
            <stop stop-color="#000000" stop-opacity="0.69" offset="13%"></stop>
            <stop stop-color="#000000" stop-opacity="0" offset="100%"></stop>
        </linearGradient>
        <linearGradient x1="75.3417203%" y1="33.8626422%" x2="-28.1283012%" y2="99.1208673%" id="linearGradient-2">
            <stop stop-color="#000000" offset="1%"></stop>
            <stop stop-color="#000000" stop-opacity="0.69" offset="13%"></stop>
            <stop stop-color="#000000" stop-opacity="0" offset="100%"></stop>
        </linearGradient>
        <linearGradient x1="505.006994%" y1="-154.591624%" x2="607.989957%" y2="-172.871398%" id="linearGradient-3">
            <stop stop-color="#000000" offset="1%"></stop>
            <stop stop-color="#000000" stop-opacity="0.69" offset="13%"></stop>
            <stop stop-color="#000000" stop-opacity="0" offset="100%"></stop>
        </linearGradient>
        <linearGradient x1="435.185857%" y1="-123.559993%" x2="527.325948%" y2="-139.014035%" id="linearGradient-4">
            <stop stop-color="#000000" offset="1%"></stop>
            <stop stop-color="#000000" stop-opacity="0.69" offset="13%"></stop>
            <stop stop-color="#000000" stop-opacity="0" offset="100%"></stop>
        </linearGradient>
        <linearGradient x1="515.694814%" y1="-161.24385%" x2="618.678167%" y2="-179.525302%" id="linearGradient-5">
            <stop stop-color="#000000" offset="1%"></stop>
            <stop stop-color="#000000" stop-opacity="0.69" offset="13%"></stop>
            <stop stop-color="#000000" stop-opacity="0" offset="100%"></stop>
        </linearGradient>
    </defs>
    <g id="Page-1" stroke="none" stroke-width="1" fill="none" fill-rule="evenodd">
        <g id="About-desktop" transform="translate(-1174.000000, -661.000000)" fill-rule="nonzero">
            <g id="payment" transform="translate(1174.363636, 661.000000)">
                <path d="M28.340533,12.7354294 C57.0196989,-6.29549736 98.1083497,-3.74517396 124.24602,18.6942255 C130.390822,23.9671915 135.747828,30.18102 142.331055,34.8922255 C148.047707,38.9796357 154.613808,41.8745974 159.826956,46.5926957 C170.55467,56.2977101 173.729826,72.1683037 172.322071,86.6120947 C169.883331,111.646621 154.898099,135.123381 133.274837,147.761268 C107.863308,162.622071 75.3102453,161.98449 48.3060003,150.315037 C41.3665533,147.316684 34.649744,143.598037 29.0735249,138.476712 C9.09778199,120.152294 12.9237259,94.245833 4.28880685,71.099925 C-4.19882877,48.2435131 8.71758524,25.7420787 28.340533,12.7354294 Z" id="Path" fill="#4A67C6" opacity="0.42"></path>
                <path d="M174.534872,100.636228 L126.243847,128.762548 C123.415746,130.410763 118.791699,130.414204 115.922312,128.762548 L34.8122444,82.3097321 C31.939417,80.6649583 31.9084524,77.9947817 34.7365531,76.3465669 L83.0275777,48.2374517 C85.859119,46.589237 90.4797264,46.5857961 93.3491133,48.2374517 L174.459181,94.6902679 C177.332008,96.3178369 177.366413,98.9880136 174.534872,100.636228 Z" id="Path" fill="#4A67C6"></path>
                <path d="M177.533604,97.6546497 L129.245724,125.7626 C126.414165,127.410746 121.790089,127.414187 118.924125,125.7626 L37.8135601,79.3117092 C34.9407151,77.6670036 34.9063097,74.9969376 37.7378684,73.3487912 L86.0360702,45.2374004 C88.8676288,43.589254 93.4917051,43.5858132 96.3576691,45.2374004 L177.468234,91.6882908 C180.330757,93.3433189 180.365163,96.0065032 177.533604,97.6546497 Z" id="Path" fill="#4A67C6"></path>
                <path d="M175.529363,98.6534331 L127.242332,126.762548 C124.410823,128.410763 119.786828,128.414204 116.920915,126.762548 L35.8117774,80.3097321 C32.9389829,78.6649583 32.9080187,75.9947817 35.7395275,74.3465669 L84.026558,46.2374517 C86.8580668,44.589237 91.4820618,44.5857961 94.3479753,46.2374517 L175.457113,92.6902679 C178.340229,94.3488055 178.360872,97.0052183 175.529363,98.6534331 Z" id="Path" fill="#4A67C6"></path>
                <path d="M175.532748,98.6466545 L127.243182,126.762872 C126.882825,126.970071 126.506647,127.148433 126.118168,127.296288 C123.303915,128.387211 119.436896,128.208259 116.918518,126.769754 L35.8109009,80.3108889 C32.9416007,78.6693424 32.9071966,75.998818 35.7352119,74.3503886 L57.8604753,61.4726794 L84.0075755,46.2376129 C86.8355908,44.5891835 91.4594991,44.5857421 94.3287993,46.2376129 L175.432976,92.6964783 C178.343561,94.3449077 178.364203,97.0016665 175.532748,98.6466545 Z" id="Path" fill="url(#linearGradient-1)" opacity="0.58"></path>
                <polygon id="Path" fill="url(#linearGradient-2)" opacity="0.58" points="80.2587267 49 171.636364 100.561193 155.435141 110 64.6363636 57.8574312"></polygon>
                <path d="M147.532227,114.461821 L125.35121,127.298706 C122.529865,128.385881 118.653102,128.207543 116.128378,126.773982 L34.8163804,80.4747676 C31.93985,78.838862 31.9053592,76.1775146 34.7405007,74.5347499 L56.9215168,61.7012936 C59.739413,60.6141194 63.619625,60.7924571 66.1443495,62.226018 L147.456347,108.521803 C150.332877,110.161138 150.367368,112.822485 147.532227,114.461821 Z" id="Path" fill="url(#linearGradient-3)" opacity="0.58"></path>
                <path d="M95.4419875,68.2783045 L84.790967,74.314253 C83.1827334,75.2285823 80.5587734,75.2285823 78.9223252,74.314253 L65.8730617,67.0305543 C64.2401403,66.1196623 64.2225062,64.6244245 65.8307397,63.7272818 L76.4817603,57.6844586 C78.0899938,56.7735666 80.7139539,56.7701293 82.350402,57.6844586 L95.3996656,64.9681573 C97.032587,65.8893613 97.0502211,67.3674125 95.4419875,68.2783045 Z" id="Path" fill="#FDB523"></path>
                <path d="M88.6363636,71.9832304 L86.8993478,73 L81.5458651,69.8790821 C80.6385739,70.2311924 79.655856,70.333496 78.6971592,70.1756399 L78.4400809,70.1262136 L78.238587,70.0132392 C77.7904369,69.7661077 73.8091967,67.5772286 72.9059485,66.9029126 C71.9471158,66.1968226 72.4439023,65.1376876 72.9059485,64.4880847 L68.6363636,62.0167696 L70.3733794,61 L75.93183,64.2374228 L75.4697838,64.7105031 C74.9764713,65.2365402 74.715919,65.8826125 74.8514062,66.0379523 C75.4037772,66.451015 77.901606,67.8667255 79.6212516,68.8164166 C79.9844295,68.7846717 80.3318975,68.6514914 80.6252467,68.4315975 L81.4763845,67.8243601 L88.6363636,71.9832304 Z" id="Path" fill="#EFA92B"></path>
                <path d="M91.8677937,70 L93.6363636,68.9530445 L88.1750195,65.7394729 C88.9319675,65.0633141 88.8824475,64.3762496 88.666682,64.0163587 L88.5782535,63.8600424 L88.3872479,63.7400788 C87.9521797,63.4710694 84.11792,61.0863375 82.9435895,60.5446834 C81.6949791,59.970312 79.8592035,60.2793093 78.7520786,60.5446834 L74.4049336,58 L72.6363636,59.0469555 L78.2957876,62.3804908 L79.1199412,62.1078461 C80.0325233,61.8061194 81.1502595,61.6425326 81.4226193,61.7225083 C82.1300473,62.0533172 84.6060453,63.5401394 86.2791125,64.5798243 C86.2543525,64.7070585 86.1376269,64.9433505 85.6212045,65.1905483 L84.5777482,65.7103908 L91.8677937,70 Z" id="Path" fill="#EFA92B"></path>
                <polygon id="Path" fill="#EFA92B" points="90.6363636 70.7858966 90.2715803 71 71.6363636 60.2141034 71.9976728 60"></polygon>
                <polygon id="Path" fill="#EFA92B" points="84.6363636 73.7893393 84.2715803 74 65.6363636 63.2141717 66.001147 63"></polygon>
                <polygon id="Path" fill="#EFA92B" points="96.6363636 67.7858966 96.2750544 68 77.6363636 57.2141034 78.001147 57"></polygon>
                <text id="CREDIT-CARD" fill="#4A67C6" transform="translate(116.866948, 81.833377) rotate(30.000000) translate(-116.866948, -81.833377) " font-family="Roboto-Bold, Roboto" font-size="17.19" font-weight="bold">
                    <tspan x="98.057169" y="94.4097611">CRE</tspan>
                    <tspan x="98.057169" y="114.409761">DIT </tspan>
                    <tspan x="98.057169" y="134.409761">CAR</tspan>
                    <tspan x="98.057169" y="154.409761">D</tspan>
                </text>
                <path d="M83.4203704,97.6550686 L44.2226912,74.4932363 C43.3543558,73.9809297 43.4633234,73.0992048 44.464463,72.4893161 L44.464463,72.4893161 C45.4656025,71.8968527 46.9843381,71.8341213 47.8526734,72.3464279 L87.0503527,95.5082602 C87.918688,96.0205667 87.8097205,96.9022916 86.8051756,97.5086953 L86.8051756,97.5086953 C85.8040361,98.1011586 84.2887057,98.1673751 83.4203704,97.6550686 Z" id="Path" fill="#4A67C6"></path>
                <path d="M142.532996,98.656874 L94.2545447,126.762548 C91.4227319,128.410763 86.7982405,128.414204 83.9320192,126.762548 L2.81073264,80.3097321 C-0.0589294344,78.6649583 -0.0933378525,75.9947817 2.73847496,74.3465669 L51.0306898,46.2374517 C53.8625026,44.589237 58.486994,44.5857961 61.3532153,46.2374517 L142.471061,92.6902679 C145.330401,94.3350417 145.364809,97.0052183 142.532996,98.656874 Z" id="Path" fill="#4A67C6"></path>
                <path d="M143.533993,96.655484 L95.2459806,124.763871 C92.4144142,126.412043 87.7903252,126.412043 84.9243533,124.763871 L3.81356605,78.3122583 C0.940713142,76.6675271 0.906307718,73.9974196 3.73787412,72.3492475 L52.0224463,44.2374197 C54.8540127,42.5892476 59.4781017,42.5858068 62.3440735,44.2374197 L143.454861,90.6890324 C146.334595,92.3372044 146.36556,95.007312 143.533993,96.655484 Z" id="Path" fill="#4A67C6"></path>
                <path d="M143.538312,96.6466545 L95.247873,124.75943 C94.887969,124.968475 94.5117274,125.148015 94.1228393,125.296288 C91.3085347,126.387211 87.4380058,126.208259 84.9195816,124.769754 L3.81049777,78.3108889 C0.941145668,76.665901 0.906740966,73.998818 3.7382479,72.3503886 L25.860471,59.4726794 L52.0252465,44.2376129 C54.8567534,42.5891835 59.4773048,42.5857421 62.3466569,44.2376129 L143.455741,90.6964783 C146.331974,92.3311421 146.366379,94.9982251 143.538312,96.6466545 Z" id="Path" fill="url(#linearGradient-4)" opacity="0.58"></path>
                <path d="M115.532219,112.461821 L93.3545675,125.298706 C90.5332115,126.385881 86.6529849,126.207543 84.1282507,124.773982 L2.81594515,78.4747676 C-0.0605962261,76.8354325 -0.0950871298,74.1775146 2.74351425,72.5347499 L24.9211654,59.7012936 C27.7425213,58.6141194 31.6192989,58.7924571 34.144033,60.226018 L115.456339,106.525232 C118.33288,108.161138 118.367371,110.822485 115.532219,112.461821 Z" id="Path" fill="url(#linearGradient-5)" opacity="0.58"></path>
                <path d="M64.4403399,66.2714333 L53.7938771,72.3154107 C52.1857992,73.2264766 49.5620932,73.2299146 47.922277,72.3154107 L34.8742768,65.0303208 C33.2415136,64.1158168 33.2203547,62.6237314 34.831959,61.7264173 L45.4819483,55.685878 C47.0935527,54.771374 49.7137322,54.771374 51.3535484,55.685878 L64.4015486,62.9709679 C66.0307854,63.8785959 66.0519443,65.3603673 64.4403399,66.2714333 Z" id="Path" fill="#FDB523"></path>
                <path d="M57.6363636,69.9796999 L55.9155223,71 L50.5513645,67.8790821 C49.6429484,68.2290769 48.6601028,68.3313227 47.7006779,68.1756399 L47.4399444,68.1226831 L47.2417869,68.0132392 C46.7898488,67.7661077 42.8093169,65.5772286 41.9054406,64.9029126 C40.9459412,64.1968226 41.4395967,63.1376876 41.9054406,62.4880847 L37.6363636,60.0167696 L39.3572049,59 L44.9195203,62.2338923 L44.4710586,62.7105031 C43.9808795,63.2400706 43.720146,63.886143 43.852251,64.0414828 C44.4050061,64.4545455 46.9045715,65.870256 48.6254128,66.819947 C48.9895724,66.7867055 49.3380175,66.6537037 49.6335825,66.435128 L50.485312,65.8278906 L57.6363636,69.9796999 Z" id="Path" fill="#EFA92B"></path>
                <path d="M60.886069,68 L62.6363636,66.9530445 L57.1733227,63.7394729 C57.9264798,63.0596789 57.8805125,62.3762496 57.6648196,62.0163587 L57.5728849,61.8600424 L57.3819437,61.7400788 C56.9505579,61.4710694 53.1175894,59.0863375 51.9401185,58.5446834 C50.6919285,57.970312 48.8603071,58.2793093 47.7500191,58.5446834 L43.404338,56 L41.6363636,57.0469555 L47.2938817,60.3804908 L48.1142219,60.1042108 C49.0264967,59.8061194 50.1438565,59.6425326 50.4196605,59.7225083 C51.1268503,60.0533172 53.6020144,61.5401394 55.2745182,62.5798243 C55.2497666,62.7070585 55.1330803,62.9433505 54.6132958,63.1905483 L53.5525111,63.7103908 L60.886069,68 Z" id="Path" fill="#EFA92B"></path>
                <polygon id="Path" fill="#EFA92B" points="59.6363636 68.7893393 59.2750544 69 40.6363636 58.2141717 41.001147 58"></polygon>
                <polygon id="Path" fill="#EFA92B" points="53.6363636 71.7858283 53.2750544 72 34.6363636 61.2141717 35.001147 61"></polygon>
                <polygon id="Path" fill="#EFA92B" points="65.6363636 65.7858966 65.2715803 66 46.6363636 55.2141034 47.001147 55"></polygon>
                <path d="M98.346072,114.661947 L18.233024,69.421339 C17.349386,68.9231094 17.4602739,68.0656121 18.4790565,67.4758709 L18.4790565,67.4758709 C19.4978392,66.899687 21.0433394,66.8386792 21.9269774,67.3369089 L102.040025,112.577517 C102.923663,113.075746 102.812776,113.933244 101.790528,114.522985 L101.790528,114.522985 C100.771745,115.102558 99.22971,115.160176 98.346072,114.661947 Z" id="Path" fill="#4A67C6"></path>
                <path d="M51.4200842,95.6550686 L12.2226869,72.4932363 C11.3543578,71.9774446 11.4633246,71.0817794 12.464457,70.4893161 L12.464457,70.4893161 C13.4689946,69.8968527 14.984314,69.8341213 15.8526431,70.3464279 L55.0500403,93.5082602 C55.9183694,94.0205667 55.8094026,94.9022916 54.8082703,95.5086953 L54.8082703,95.5086953 C53.8037327,96.1011586 52.2884133,96.1673751 51.4200842,95.6550686 Z" id="Path" fill="#4A67C6"></path>
                <path d="M92.44469,119.658241 L64.2189942,102.544336 C63.3556678,102.017973 63.4640068,101.103951 64.462757,100.499345 L64.462757,100.499345 C65.4581216,99.8947387 66.9680964,99.8307216 67.8314229,100.353528 L96.053733,117.47099 C96.9170595,117.993797 96.8087205,118.893593 95.8099703,119.512425 L95.8099703,119.512425 C94.8146057,120.099248 93.3046308,120.166822 92.44469,119.658241 Z" id="Path" fill="#4A67C6"></path>
            </g>
        </g>
    </g>
</svg>
