<?xml version="1.0" encoding="UTF-8"?>
<svg width="318px" height="290px" viewBox="0 0 318 290" version="1.1" xmlns="http://www.w3.org/2000/svg" xmlns:xlink="http://www.w3.org/1999/xlink">
    <title>Personal data _Monochromatic 2</title>
    <defs>
        <linearGradient x1="40.278064%" y1="134.393672%" x2="65.4957745%" y2="-2.0793218%" id="linearGradient-1">
            <stop stop-color="#010101" stop-opacity="0" offset="0%"></stop>
            <stop stop-color="#010101" offset="95%"></stop>
        </linearGradient>
        <linearGradient x1="105.079943%" y1="136.046767%" x2="-3.68425221%" y2="-33.8676035%" id="linearGradient-2">
            <stop stop-color="#010101" stop-opacity="0" offset="0%"></stop>
            <stop stop-color="#010101" offset="95%"></stop>
        </linearGradient>
        <linearGradient x1="89.9543316%" y1="46.1382509%" x2="25.193784%" y2="55.3225762%" id="linearGradient-3">
            <stop stop-color="#010101" stop-opacity="0" offset="0%"></stop>
            <stop stop-color="#010101" offset="95%"></stop>
        </linearGradient>
        <linearGradient x1="40.6846375%" y1="64.4089277%" x2="88.277255%" y2="-16.9663356%" id="linearGradient-4">
            <stop stop-color="#010101" stop-opacity="0" offset="0%"></stop>
            <stop stop-color="#010101" offset="95%"></stop>
        </linearGradient>
        <linearGradient x1="78.1307895%" y1="-17.4678899%" x2="18.5741398%" y2="98.8256881%" id="linearGradient-5">
            <stop stop-color="#010101" stop-opacity="0" offset="0%"></stop>
            <stop stop-color="#010101" offset="95%"></stop>
        </linearGradient>
        <linearGradient x1="50.6162659%" y1="151.371077%" x2="48.7446435%" y2="-6.77758879%" id="linearGradient-6">
            <stop stop-color="#010101" stop-opacity="0" offset="0%"></stop>
            <stop stop-color="#010101" offset="95%"></stop>
        </linearGradient>
        <linearGradient x1="99.9517156%" y1="49.9718596%" x2="0.540479362%" y2="49.9718596%" id="linearGradient-7">
            <stop stop-color="#E4C5D5" offset="0%"></stop>
            <stop stop-color="#E9D3CF" offset="42%"></stop>
            <stop stop-color="#EFE8CA" offset="100%"></stop>
        </linearGradient>
        <linearGradient x1="-0.165973238%" y1="49.919276%" x2="99.5265307%" y2="49.919276%" id="linearGradient-8">
            <stop stop-color="#E4C5D5" offset="0%"></stop>
            <stop stop-color="#E9D3CF" offset="42%"></stop>
            <stop stop-color="#EFE8CA" offset="100%"></stop>
        </linearGradient>
        <linearGradient x1="62.6773022%" y1="23.6895887%" x2="41.5784718%" y2="79.7970583%" id="linearGradient-9">
            <stop stop-color="#FE9F24" stop-opacity="0.1" offset="0%"></stop>
            <stop stop-color="#BC761B" offset="100%"></stop>
        </linearGradient>
        <linearGradient x1="-3071.69774%" y1="50.0380231%" x2="-2971.71318%" y2="50.0380231%" id="linearGradient-10">
            <stop stop-color="#E4C5D5" offset="0%"></stop>
            <stop stop-color="#E9D3CF" offset="42%"></stop>
            <stop stop-color="#EFE8CA" offset="100%"></stop>
        </linearGradient>
        <linearGradient x1="66.3915979%" y1="117.854616%" x2="1.12528132%" y2="-197.476197%" id="linearGradient-11">
            <stop stop-color="#010101" stop-opacity="0" offset="12%"></stop>
            <stop stop-color="#010101" offset="95%"></stop>
        </linearGradient>
        <linearGradient x1="-1928.53563%" y1="50.0159015%" x2="-1828.55751%" y2="50.0159015%" id="linearGradient-12">
            <stop stop-color="#E4C5D5" offset="0%"></stop>
            <stop stop-color="#E9D3CF" offset="42%"></stop>
            <stop stop-color="#EFE8CA" offset="100%"></stop>
        </linearGradient>
        <linearGradient x1="-5799.57533%" y1="56.9086351%" x2="-5895.06508%" y2="13.8172701%" id="linearGradient-13">
            <stop stop-color="#010101" stop-opacity="0" offset="12%"></stop>
            <stop stop-color="#010101" offset="95%"></stop>
        </linearGradient>
        <linearGradient x1="65.4108891%" y1="56.7896375%" x2="-30.0816322%" y2="14.0464141%" id="linearGradient-14">
            <stop stop-color="#010101" stop-opacity="0" offset="12%"></stop>
            <stop stop-color="#010101" offset="95%"></stop>
        </linearGradient>
    </defs>
    <g id="Page-1" stroke="none" stroke-width="1" fill="none" fill-rule="evenodd">
        <g id="Details-user-desktop" transform="translate(-972.000000, -160.000000)" fill-rule="nonzero">
            <g id="Personal-data-_Monochromatic-2" transform="translate(972.000000, 160.389632)">
                <path d="M317.992012,209.375203 C318.535165,243.833048 291.309608,276.599484 257.36253,282.377439 C241.475297,285.093571 225.26711,282.476207 209.13299,281.760136 C174.037883,280.229225 161.525655,287.760319 126.49227,288.550467 C119.400417,288.710966 112.296219,288.550467 105.185849,288.050452 C81.8077521,286.280377 58.9780502,280.088294 37.9089119,269.802979 C28.9221944,265.420129 20.1515038,260.185401 13.6089759,252.654306 C-0.426597991,236.518009 -1.77830893,212.900002 1.46826621,191.788245 C4.71484135,170.676487 11.8560722,150.040053 12.2202318,128.669028 C12.479464,113.748818 9.41805478,98.9891064 8.63418587,84.0874155 C7.85031697,69.1857246 9.65877043,53.3827715 18.4294611,41.3206737 C27.2001517,29.2585759 41.7973955,22.6472623 56.419328,19.770631 C71.0412606,16.8939997 86.0458693,17.2705545 100.939378,16.3446002 C131.744809,14.4556535 139.40569,6.94307772 170.032127,3.19604939 C215.706379,-2.40288751 289.155512,-4.21158487 294.210541,55.5741966 C294.59855,60.5190214 294.705707,65.481882 294.531495,70.4388494 C294.087097,86.9517008 291.550324,103.526282 293.648871,119.915673 C297.574388,150.712913 317.498236,178.343388 317.992012,209.375203 Z" id="Path" fill="#4A67C6" opacity="0.24"></path>
                <path d="M317.992007,209.560262 C318.53552,243.963637 291.291937,276.678276 257.322382,282.447097 C241.42463,285.158936 225.205711,282.54571 209.060908,281.83077 C173.942565,280.302279 138.904513,287.821469 103.847932,288.610368 C95.262899,280.53032 86.6963948,272.44411 78.6363459,263.877164 C76.1658328,261.208468 73.5594415,258.250098 73.0776914,254.632258 C72.7318196,251.938909 73.6026755,249.239397 74.467355,246.669313 C89.4668828,202.797997 110.371346,161.164238 136.606936,122.910843 C148.860681,105.037359 162.238509,88.0267325 175.937504,71.2564737 C185.245162,59.8790765 197.29509,37.7406092 213.816646,36.6558736 C227.280942,35.7683627 242.894585,48.0949035 254.580112,53.3644997 C267.822062,59.3367087 281.175186,65.0747135 294.515956,70.8558611 C294.071264,87.3426094 291.532812,103.89099 293.632748,120.254473 C297.560864,150.990703 317.497904,178.577501 317.992007,209.560262 Z" id="Path" fill="#4A67C6" opacity="0.24"></path>
                <path d="M163.462198,41.6103679 L156.004677,39.1624254 L158.042349,20.8215912 L158.639906,20.8215912 C159.380878,20.197116 161.544037,17.4931388 160.964406,15.4885736 C160.444531,13.6526168 157.647961,12.9157362 155.383216,12.6097433 C152.168355,12.1851003 150.064952,12.5660301 149.294102,13.7025748 C148.260327,15.2387836 149.622759,18.1238586 150.238244,19.1042846 L150.399584,19.3603194 L149.276176,37.089168 L141,34.7036731 L141.466095,32.948898 L147.4596,34.7036731 L148.403741,19.7162702 C147.806183,18.6983758 146.01351,15.0826648 147.620941,12.6659461 C148.816056,10.8924368 151.469213,10.2617169 155.520655,10.7925207 C161.848792,11.6355622 163.061834,14.3707632 162.972201,16.5189576 C162.882567,18.667152 161.143674,21.302437 159.835022,22.2828629 L158.096129,37.8947409 L164,39.8306138 L163.462198,41.6103679 Z" id="Path" fill="url(#linearGradient-1)"></path>
                <polygon id="Path" fill="#4A67C6" points="227 257.610368 71.6640294 257.610368 62 249.704341 71.6640294 41.5163949 217.335971 33.6103679 227 41.5163949"></polygon>
                <polygon id="Path" fill="url(#linearGradient-2)" points="227 257.610368 71.6640294 257.610368 62 249.704341 71.6640294 41.5163949 217.335971 33.6103679 227 41.5163949"></polygon>
                <polygon id="Path" fill="url(#linearGradient-3)" points="222.432405 253.228109 70.1813064 253.610368 63 249.078749 68.1021825 39.5391595 213.36323 31.6103679 223 39.5391595"></polygon>
                <rect id="Rectangle" fill="#FFFFFF" x="62" y="31.6103679" width="155" height="217"></rect>
                <path d="M111.04948,47.3075975 C110.969493,47.8507924 110.932576,48.5282603 111.37558,48.833426 C111.616995,48.9776927 111.893607,49.0536766 112.175446,49.0531452 C126.406205,50.2746218 140.739722,49.4855218 154.746822,46.7094727 C157.05413,46.2517242 159.847511,45.2019542 160.013637,42.8765917 C160.167458,40.8136716 158.167791,38.293003 159.77983,36.9991005 C160.384282,36.6398235 161.074851,36.4480202 161.779497,36.4436989 C164.367314,36.0689593 166.649821,34.5640116 168,32.342272 L127.606724,32.0187964 C123.681223,31.9882798 116.531644,30.3525917 113.725958,33.8497905 C111.554011,36.5291453 111.04948,44.1216677 111.04948,47.3075975 Z" id="Path" fill="url(#linearGradient-4)"></path>
                <polygon id="Path" fill="#4A67C6" points="155 42.6103679 112.852418 42.6103679 110 15.9011663 152.432823 15.6103679"></polygon>
                <polygon id="Path" fill="#4A67C6" points="153 15.6103679 169 23.4459642 166.669964 32.6103679 154.842501 32.6103679"></polygon>
                <polygon id="Path" fill="url(#linearGradient-5)" points="153 15.6103679 169 23.4459642 166.669964 32.6103679 154.842501 32.6103679"></polygon>
                <path d="M142.890327,41.6103679 L134.920792,41.2913668 L132.166794,20.8627883 L132.739528,20.7126701 C133.306169,19.7994514 134.731912,16.2216354 133.64128,14.2325699 C132.654227,12.4186422 129.711348,12.4874464 127.414318,12.8689967 C124.142422,13.4069201 122.168317,14.470257 121.711348,15.9401639 C121.102056,17.9167196 123.179741,20.6063365 124.032749,21.4757707 L124.258187,21.700948 L127.749429,41.1787782 L119,41.1787782 L119,39.1396733 L125.367098,39.1396733 L122.418126,22.6892258 C121.58949,21.7697521 118.85377,18.4421331 119.822544,15.3209265 C120.529322,13.0378796 122.978675,11.5366981 127.134044,10.8549115 C133.568165,9.79782951 135.469155,12.3686029 135.944402,14.7204539 C136.41965,17.072305 135.383854,20.4499634 134.354151,21.9136154 L136.693831,39.3148112 L143,39.571263 L142.890327,41.6103679 Z" id="Path" fill="url(#linearGradient-6)"></path>
                <rect id="Rectangle" fill="#4A67C6" x="85" y="64.6103679" width="48" height="61"></rect>
                <rect id="Rectangle" fill="#4A67C6" x="148" y="73.6103679" width="51" height="5" rx="2.5"></rect>
                <rect id="Rectangle" fill="#4A67C6" x="148" y="84.6103679" width="51" height="5" rx="2.5"></rect>
                <rect id="Rectangle" fill="#4A67C6" x="148" y="100.610368" width="51" height="5" rx="2.5"></rect>
                <rect id="Rectangle" fill="#4A67C6" x="148" y="110.610368" width="51" height="5" rx="2.5"></rect>
                <rect id="Rectangle" fill="#4A67C6" x="119" y="160.610368" width="51" height="5" rx="2.5"></rect>
                <rect id="Rectangle" fill="#4A67C6" x="119" y="171.610368" width="51" height="5" rx="2.5"></rect>
                <rect id="Rectangle" fill="#4A67C6" x="119" y="196.610368" width="51" height="5" rx="2.5"></rect>
                <rect id="Rectangle" fill="#4A67C6" x="119" y="207.610368" width="51" height="5" rx="2.5"></rect>
                <rect id="Rectangle" fill="#4A67C6" x="85" y="132.610368" width="114" height="5" rx="2.5"></rect>
                <rect id="Rectangle" fill="#4A67C6" x="85" y="144.610368" width="114" height="5" rx="2.5"></rect>
                <rect id="Rectangle" fill="#4A67C6" x="91" y="157.610368" width="20" height="18"></rect>
                <rect id="Rectangle" fill="#4A67C6" x="91" y="195.610368" width="20" height="18"></rect>
                <path d="M95.9171713,115.250904 C93.0956446,117.34237 90.5653723,121.102102 91.0629318,124.610368 C104.879311,123.923435 117.991825,124.726901 130,124.549035 C129.757288,121.359702 128.489118,117.30557 126.292575,115.00557 C125.148391,113.937192 123.830592,113.076144 122.397047,112.460238 C119.472368,111.006638 116.505214,109.559172 113.295349,108.884505 C106.887752,107.516772 100.959513,111.521838 95.9171713,115.250904 Z" id="Path" fill="#FFFFFF"></path>
                <path d="M119.978078,93.3616748 C120.098977,94.3802485 119.715844,95.3953025 118.927094,96.1461007 C118.745439,96.3371485 118.51008,96.4826428 118.244637,96.5679834 C116.879723,96.9597317 116.818302,94.5248657 117.207302,93.8317727 C117.671373,93.0422494 119.773341,91.7946819 119.978078,93.3616748 Z" id="Path" fill="url(#linearGradient-7)"></path>
                <path d="M98.0223963,92.3582036 C97.9002372,93.3769048 98.2817914,94.392625 99.0695098,95.1456825 C99.2556733,95.3330544 99.490477,95.477955 99.7538977,95.5680278 C101.122674,95.9602056 101.184268,93.5166364 100.787323,92.8288169 C100.335627,92.0565283 98.2277127,90.7894925 98.0223963,92.3582036 Z" id="Path" fill="url(#linearGradient-8)"></path>
                <path d="M107.771884,72.1959702 C108.935661,70.760588 110.617207,69.8433228 112.451476,69.6433025 C114.22822,69.4551451 116.20516,70.0697924 117.156093,71.575051 C117.770267,72.7294684 118.051872,74.0324579 117.969391,75.3381976 C118.07975,76.5488774 117.890656,77.7681604 117.418851,78.8880991 C116.841511,79.9437713 115.900953,80.7529516 114.772504,81.1648028 C112.16995,82.1933962 109.098186,81.359232 107.083709,79.5027464 C105.069232,77.6462608 106.195337,74.1151749 107.771884,72.1959702 Z" id="Path" fill="#606161"></path>
                <path d="M107.771884,72.1959702 C108.935661,70.760588 110.617207,69.8433228 112.451476,69.6433025 C114.22822,69.4551451 116.20516,70.0697924 117.156093,71.575051 C117.770267,72.7294684 118.051872,74.0324579 117.969391,75.3381976 C118.07975,76.5488774 117.890656,77.7681604 117.418851,78.8880991 C116.841511,79.9437713 115.900953,80.7529516 114.772504,81.1648028 C112.16995,82.1933962 109.098186,81.359232 107.083709,79.5027464 C105.069232,77.6462608 106.195337,74.1151749 107.771884,72.1959702 Z" id="Path" fill="url(#linearGradient-9)"></path>
                <path d="M113.755265,100.218554 C113.755265,100.218554 113.831727,108.142866 115.749646,109.80925 C117.667566,111.475633 108.065225,119.26208 104,110.570511 C104,110.570511 106.363947,106.818151 105.554725,100.494286 C104.745504,94.1704209 113.755265,100.218554 113.755265,100.218554 Z" id="Path" fill="url(#linearGradient-10)"></path>
                <path d="M114,102.36718 L114,104.282501 C114,104.282501 108.834959,111.547511 106.72168,109.11043 C104.608402,106.673349 105.229557,106.125171 105.229557,106.125171 L105,100.610368 L114,102.36718 Z" id="Path" fill="url(#linearGradient-11)"></path>
                <path d="M117.888638,88.4765097 C117.888638,88.4765097 119.21587,100.468607 112.7064,102.845633 C106.196929,105.222659 102.317791,101.811627 100.532061,96.0235678 C98.74633,90.2355091 101.479222,78.5524255 108.374796,79.6874555 C115.270371,80.8224855 117.888638,88.4765097 117.888638,88.4765097 Z" id="Path" fill="url(#linearGradient-12)"></path>
                <path d="M119.21363,93.2181872 C119.511644,92.7985008 119.704665,92.3144021 119.776716,91.80596 C120.641537,87.173982 118.957791,82.4351775 115.356793,79.3663416 C114.638322,78.7379184 113.806217,78.2505401 112.904644,77.9300765 C112.005872,77.665956 111.066616,77.5641828 110.131597,77.6296026 C107.182071,77.7201746 104.337378,78.7363647 102.006205,80.5321802 C99.6796951,82.3689375 98.234769,85.0890019 98.0222192,88.0320082 C97.9411252,88.8943913 98.0828248,89.7630595 98.4339381,90.5559887 C98.7942682,91.3565002 99.5151201,91.9404657 100.377493,92.1304718 C101.885111,92.3888793 102.29683,91.0066995 103.519877,90.0872495 C105.336283,88.6990602 105.941752,86.6378094 110.119488,86.9863591 C116.912849,87.55125 117.397224,95.4356844 119.21363,93.2181872 Z" id="Path" fill="#FE9F24"></path>
                <path d="M99.7001996,93.3785169 C99.6433566,93.3219782 99.5977752,93.2534401 99.5662547,93.1771116 C99.5462786,93.0880593 99.5346971,92.997038 99.5316883,92.9054487 C99.5202364,92.8156903 99.4805549,92.732968 99.4193474,92.6712565 C99.3527574,92.6125616 99.2630906,92.5948888 99.1817032,92.624418 C99.1130991,92.6592264 99.0612953,92.7238913 99.0391167,92.8024041 C99.0202867,92.8804378 99.0101327,92.9606325 99.0088711,93.0412801 C98.9796902,93.3522944 99.0227662,93.6662804 99.1341744,93.9546297 C99.2399165,94.152772 99.3757722,94.3301301 99.5360091,94.4792203 C99.5918456,94.5535713 99.6726935,94.6007625 99.7606909,94.6103679 C99.8168,94.6063785 99.8707246,94.5852696 99.9162398,94.5494779 C99.937452,94.5377269 99.9564917,94.5218505 99.9724102,94.5026395 C99.9764972,94.4794298 99.9764972,94.4555915 99.9724102,94.4323818 C100.009197,94.2187701 100.009197,93.999623 99.9724102,93.7860113 C99.9215584,93.6235863 99.8266887,93.4815681 99.7001996,93.3785169 L99.7001996,93.3785169 Z" id="Path" fill="url(#linearGradient-13)"></path>
                <path d="M118.29978,94.3771208 C118.356625,94.3207324 118.402207,94.2523765 118.433729,94.176251 C118.453994,94.0890797 118.465583,93.9998162 118.468296,93.9099817 C118.478636,93.8190357 118.520291,93.73564 118.584961,93.6764122 C118.647739,93.6134782 118.737745,93.5936566 118.818291,93.6250269 C118.885942,93.6610964 118.937329,93.7250688 118.960882,93.8025398 C118.979692,93.8819582 118.989844,93.9634831 118.991129,94.0454521 C119.02031,94.3556393 118.977233,94.6687905 118.865822,94.9563732 C118.75995,95.1525314 118.624075,95.3278585 118.463975,95.4748976 C118.407154,95.5485419 118.327103,95.5968067 118.239287,95.6103679 C118.182789,95.6047718 118.128885,95.5821091 118.083734,95.5449684 C118.060838,95.5363569 118.041133,95.5199699 118.027562,95.4982545 C118.023136,95.4751426 118.023136,95.4512956 118.027562,95.4281837 C117.990813,95.2167066 117.990813,94.9996802 118.027562,94.7882032 C118.078369,94.6249032 118.173166,94.4817488 118.29978,94.3771208 L118.29978,94.3771208 Z" id="Path" fill="url(#linearGradient-14)"></path>
            </g>
        </g>
    </g>
</svg>