<?xml version="1.0" encoding="UTF-8"?>
<svg width="30px" height="30px" viewBox="0 0 30 30" version="1.1" xmlns="http://www.w3.org/2000/svg" xmlns:xlink="http://www.w3.org/1999/xlink">
    <title>phone</title>
    <defs>
        <linearGradient x1="51.1839674%" y1="-0.0592773437%" x2="48.8399371%" y2="100.136035%" id="linearGradient-1">
            <stop stop-color="#5BA6D7" offset="0%"></stop>
            <stop stop-color="#5A69E0" offset="100%"></stop>
        </linearGradient>
    </defs>
    <g id="Page-1" stroke="none" stroke-width="1" fill="none" fill-rule="evenodd">
        <g id="workers-personnal-desktop" transform="translate(-1002.000000, -855.000000)" fill="url(#linearGradient-1)" fill-rule="nonzero">
            <g id="phone" transform="translate(1002.000000, 855.000000)">
                <path d="M21.567351,30 C20.6004385,30 19.6393861,29.8300781 18.701774,29.4902344 C14.5645605,27.9902344 10.7262109,25.5410156 7.59693047,22.4121094 C4.46765002,19.2832031 2.01813837,15.4453125 0.512098904,11.3085938 C0.0315726933,9.97851562 -0.1149292,8.60742188 0.0901734506,7.23046875 C0.277695874,5.94140625 0.781662387,4.6875 1.53761216,3.609375 C2.299422,2.52539063 3.30735503,1.62304688 4.46765002,1.00195313 C5.69826593,0.333984375 7.04608335,0 8.46422168,0 C8.90372736,0 9.29049235,0.310546875 9.37839349,0.73828125 L10.8492725,7.60546875 C10.9137333,7.91601563 10.8199721,8.23828125 10.5972892,8.46679688 L8.08331675,10.9804688 C10.4566474,15.6972656 14.3067172,19.546875 19.0182181,21.9140625 L21.5321906,19.4003906 C21.7548734,19.1777344 22.0830377,19.078125 22.3936217,19.1484375 L29.2616305,20.6191406 C29.6952761,20.7128906 30,21.09375 30,21.5332031 C30,22.9570313 29.6659757,24.2988281 28.997927,25.5351563 C28.376759,26.6894531 27.4743074,27.703125 26.3901933,28.4648438 C25.3119394,29.2207031 24.0578832,29.71875 22.7686665,29.9121094 C22.3701814,29.9707031 21.9658362,30 21.567351,30 L21.567351,30 Z M7.71413198,1.91601562 C5.83890775,2.12109375 4.17464624,3.10546875 3.072952,4.68164062 C1.83061594,6.45703125 1.53761216,8.63671875 2.2759817,10.6640625 C5.16499904,18.6210938 11.3825394,24.8378906 19.3405222,27.7265625 C21.3681084,28.4648438 23.5539167,28.171875 25.3236596,26.9296875 C26.9000199,25.8222656 27.8845127,24.1582031 28.0896153,22.2890625 L22.5049631,21.0878906 L19.8796492,23.7128906 C19.5983656,23.9941406 19.1764401,24.0644531 18.8189755,23.9003906 C13.2401834,21.28125 8.72792508,16.7636719 6.10261115,11.1855469 C5.93266896,10.828125 6.00884994,10.40625 6.29013358,10.125 L8.91544751,7.5 L7.71413198,1.91601562 Z" id="Shape"></path>
            </g>
        </g>
    </g>
</svg>