<?xml version="1.0" encoding="utf-8"?>
<!-- Generator: Adobe Illustrator 24.0.3, SVG Export Plug-In . SVG Version: 6.00 Build 0)  -->
<svg version="1.1" id="Calque_1" xmlns="http://www.w3.org/2000/svg" xmlns:xlink="http://www.w3.org/1999/xlink" x="0px" y="0px"
	 viewBox="0 0 30 30" style="enable-background:new 0 0 30 30;" xml:space="preserve">
<style type="text/css">
	.st0{fill:url(#Shape_1_);stroke:#FFFFFF;stroke-width:0.4;stroke-miterlimit:10;}
</style>
<title>phone</title>
<g id="Page-1">
	<g id="workers-personnal-desktop" transform="translate(-1002.000000, -855.000000)">
		<g id="phone" transform="translate(1002.000000, 855.000000)">
			
				<linearGradient id="Shape_1_" gradientUnits="userSpaceOnUse" x1="-121.2885" y1="303.8667" x2="-121.3115" y2="302.8832" gradientTransform="matrix(30 0 0 -30 3654 9116.2676)">
				<stop  offset="0" style="stop-color:#5BA6D7"/>
				<stop  offset="1" style="stop-color:#5A69E0"/>
			</linearGradient>
			<path id="Shape" class="st0" d="M21.4,29.7c-0.9,0-1.9-0.2-2.8-0.5c-4.1-1.5-7.8-3.9-10.9-6.9s-5.5-6.8-7-10.9
				c-0.5-1.3-0.6-2.7-0.4-4C0.5,6.1,1,4.9,1.8,3.8c0.7-1.1,1.7-1.9,2.9-2.6c1.2-0.7,2.5-1,3.9-1C9,0.3,9.4,0.6,9.5,1l1.4,6.7
				c0.1,0.3,0,0.6-0.2,0.8l-2.5,2.5c2.3,4.6,6.1,8.4,10.7,10.7l2.5-2.5c0.2-0.2,0.5-0.3,0.8-0.2l6.7,1.4c0.4,0.1,0.7,0.5,0.7,0.9
				c0,1.4-0.3,2.7-1,3.9c-0.6,1.1-1.5,2.1-2.6,2.9c-1.1,0.7-2.3,1.2-3.6,1.4C22.2,29.7,21.8,29.7,21.4,29.7L21.4,29.7z M7.8,2.2
				C6,2.4,4.4,3.3,3.3,4.9c-1.2,1.7-1.5,3.9-0.8,5.9c2.8,7.8,8.9,13.9,16.8,16.7c2,0.7,4.1,0.4,5.9-0.8c1.5-1.1,2.5-2.7,2.7-4.6
				L22.4,21l-2.6,2.6c-0.3,0.3-0.7,0.3-1,0.2c-5.5-2.6-9.9-7-12.5-12.5c-0.2-0.4-0.1-0.8,0.2-1L9,7.6L7.8,2.2z"/>
		</g>
	</g>
</g>
</svg>
