<svg enable-background="new 0 0 30 30" viewBox="0 0 30 30" xmlns="http://www.w3.org/2000/svg" xmlns:xlink="http://www.w3.org/1999/xlink"><linearGradient id="a" gradientTransform="matrix(30 0 0 -30 3654 9116.2676)" gradientUnits="userSpaceOnUse" x1="-121.2885" x2="-121.3115" y1="303.8667" y2="302.8832"><stop offset="0" stop-color="#5ba6d7"/><stop offset="1" stop-color="#5a69e0"/></linearGradient><path d="m21.4 29.7c-.9 0-1.9-.2-2.8-.5-4.1-1.5-7.8-3.9-10.9-6.9s-5.5-6.8-7-10.9c-.5-1.3-.6-2.7-.4-4s.7-2.5 1.5-3.6c.7-1.1 1.7-1.9 2.9-2.6s2.5-1 3.9-1c.4.1.8.4.9.8l1.4 6.7c.1.3 0 .6-.2.8l-2.5 2.5c2.3 4.6 6.1 8.4 10.7 10.7l2.5-2.5c.2-.2.5-.3.8-.2l6.7 1.4c.4.1.7.5.7.9 0 1.4-.3 2.7-1 3.9-.6 1.1-1.5 2.1-2.6 2.9-1.1.7-2.3 1.2-3.6 1.4-.2.2-.6.2-1 .2zm-13.6-27.5c-1.8.2-3.4 1.1-4.5 2.7-1.2 1.7-1.5 3.9-.8 5.9 2.8 7.8 8.9 13.9 16.8 16.7 2 .7 4.1.4 5.9-.8 1.5-1.1 2.5-2.7 2.7-4.6l-5.5-1.1-2.6 2.6c-.3.3-.7.3-1 .2-5.5-2.6-9.9-7-12.5-12.5-.2-.4-.1-.8.2-1l2.5-2.7z" fill="url(#a)" stroke="#fff" stroke-miterlimit="10" stroke-width=".4"/></svg>