<?xml version="1.0" encoding="UTF-8"?>
<svg width="24px" height="30px" viewBox="0 0 24 30" version="1.1" xmlns="http://www.w3.org/2000/svg" xmlns:xlink="http://www.w3.org/1999/xlink">
    <title>placeholder</title>
    <defs>
        <linearGradient x1="50%" y1="0%" x2="50%" y2="100%" id="linearGradient-1">
            <stop stop-color="#4DBBED" offset="0%"></stop>
            <stop stop-color="#5870E0" offset="100%"></stop>
        </linearGradient>
        <linearGradient x1="50%" y1="0%" x2="50%" y2="100%" id="linearGradient-2">
            <stop stop-color="#4DBBED" offset="0%"></stop>
            <stop stop-color="#5870E0" offset="100%"></stop>
        </linearGradient>
    </defs>
    <g id="Page-1" stroke="none" stroke-width="1" fill="none" fill-rule="evenodd">
        <g id="workers-personnal-desktop" transform="translate(-1005.000000, -1015.000000)" fill-rule="nonzero">
            <g id="placeholder" transform="translate(1005.000000, 1015.000000)">
                <path d="M11.3692646,0 L11.3225309,0 C5.19653911,0 0.212673611,5.00427246 0.212673611,11.1554718 C0.212673611,14.5278168 1.92951064,17.1581268 3.84240124,19.7774505 L11.3077129,30 C11.3077129,30 18.3638195,20.3819275 18.8051682,19.7776794 C20.7180588,17.1583557 22.4348958,14.5280456 22.4348958,11.1557007 C22.4348958,5.01960756 17.4754231,0.0244903711 11.3692646,0 Z M17.3935821,18.738327 C16.9517775,19.3434906 12.3160212,25.7180786 11.3300539,27.0584106 L5.25398732,18.738327 C3.45348559,16.2728119 1.9632501,14.000473 1.9632501,11.1554718 C1.9632501,5.98800656 6.13805241,1.78115848 11.2789888,1.75758363 L11.3238987,1.75758363 C16.4853523,1.75758363 20.6845473,5.97358705 20.6845473,11.1557007 C20.6845473,14.0007019 19.1940839,16.2728119 17.3935821,18.738327 Z" id="Shape" fill="url(#linearGradient-1)"></path>
                <path d="M11.3237847,4.44444444 C7.64759288,4.44444444 4.65711806,7.43510305 4.65711806,11.1109926 C4.65711806,14.7871192 7.64759288,17.7777778 11.3237847,17.7777778 C14.9997396,17.7777778 17.9904514,14.7871192 17.9904514,11.1109926 C17.9904514,7.43510305 14.9997396,4.44444444 11.3237847,4.44444444 Z M11.3237847,15.9583143 C8.65081535,15.9583143 6.47637686,13.7839145 6.47637686,11.1109926 C6.47637686,8.4383077 8.65081535,6.26390785 11.3237847,6.26390785 C13.9965172,6.26390785 16.1711926,8.4383077 16.1711926,11.1109926 C16.1711926,13.7839145 13.9965172,15.9583143 11.3237847,15.9583143 Z" id="Shape" fill="url(#linearGradient-2)"></path>
            </g>
        </g>
    </g>
</svg>