<svg enable-background="new 0 0 22 27" viewBox="0 0 22 27" xmlns="http://www.w3.org/2000/svg" xmlns:xlink="http://www.w3.org/1999/xlink"><linearGradient id="a"><stop offset="0" stop-color="#4dbbed"/><stop offset="1" stop-color="#5870e0"/></linearGradient><linearGradient id="b" gradientTransform="matrix(20 0 0 27 4972.5352 -568)" gradientUnits="userSpaceOnUse" x1="-248.0868" x2="-248.0868" xlink:href="#a" y1="21.0471" y2="22.0265"/><linearGradient id="c" gradientUnits="userSpaceOnUse" x1="10.8001" x2="10.8001" xlink:href="#a" y1="4.2001" y2="15.9541"/><g stroke="#fff" stroke-miterlimit="10" stroke-width=".25" transform="translate(.808594)"><path d="m10.8.3c-5.4 0-9.8 4.4-9.8 9.8 0 3 1.5 5.3 3.2 7.6l6.6 9s6.2-8.5 6.6-9c1.7-2.3 3.2-4.6 3.2-7.6 0-5.4-4.4-9.8-9.8-9.8zm5.3 16.5c-.4.5-4.5 6.2-5.3 7.3l-5.4-7.3c-1.6-2.2-2.9-4.2-2.9-6.7 0-4.6 3.7-8.3 8.2-8.3s8.3 3.7 8.3 8.3c0 2.5-1.3 4.5-2.9 6.7z" fill="url(#b)"/><path d="m10.8 4.2c-3.2 0-5.9 2.6-5.9 5.9 0 3.2 2.6 5.9 5.9 5.9 3.2 0 5.9-2.6 5.9-5.9-.1-3.3-2.7-5.9-5.9-5.9zm0 10.1c-2.4 0-4.3-1.9-4.3-4.3s1.9-4.3 4.3-4.3 4.3 1.9 4.3 4.3c-.1 2.4-2 4.3-4.3 4.3z" fill="url(#c)"/></g></svg>