<?xml version="1.0" encoding="utf-8"?>
<!-- Generator: Adobe Illustrator 24.0.3, SVG Export Plug-In . SVG Version: 6.00 Build 0)  -->
<svg version="1.1" id="Calque_1" xmlns="http://www.w3.org/2000/svg" xmlns:xlink="http://www.w3.org/1999/xlink" x="0px" y="0px"
	 viewBox="0 0 22 27" style="enable-background:new 0 0 22 27;" xml:space="preserve">
<style type="text/css">
	.st0{fill:url(#Shape_2_);stroke:#FFFFFF;stroke-width:0.25;stroke-miterlimit:10;}
	.st1{fill:url(#Shape_3_);stroke:#FFFFFF;stroke-width:0.25;stroke-miterlimit:10;}
</style>
<title>placeholder</title>
<g id="Page-1">
	<g id="workers-desktop" transform="translate(-857.000000, -1073.000000)">
		<g id="placeholder" transform="translate(857.808594, 1073.000000)">
			
				<linearGradient id="Shape_2_" gradientUnits="userSpaceOnUse" x1="-248.0868" y1="21.0471" x2="-248.0868" y2="22.0265" gradientTransform="matrix(20 0 0 27 4972.5352 -568)">
				<stop  offset="0" style="stop-color:#4DBBED"/>
				<stop  offset="1" style="stop-color:#5870E0"/>
			</linearGradient>
			<path id="Shape" class="st0" d="M10.8,0.3L10.8,0.3C5.4,0.3,1,4.7,1,10.1c0,3,1.5,5.3,3.2,7.6l6.6,9c0,0,6.2-8.5,6.6-9
				c1.7-2.3,3.2-4.6,3.2-7.6C20.6,4.7,16.2,0.3,10.8,0.3z M16.1,16.8c-0.4,0.5-4.5,6.2-5.3,7.3l-5.4-7.3c-1.6-2.2-2.9-4.2-2.9-6.7
				c0-4.6,3.7-8.3,8.2-8.3l0,0c4.5,0,8.3,3.7,8.3,8.3C19,12.6,17.7,14.6,16.1,16.8z"/>
			
				<linearGradient id="Shape_3_" gradientUnits="userSpaceOnUse" x1="-239.3998" y1="47.35" x2="-239.3998" y2="48.3295" gradientTransform="matrix(12 0 0 12 2883.5977 -563.9999)">
				<stop  offset="0" style="stop-color:#4DBBED"/>
				<stop  offset="1" style="stop-color:#5870E0"/>
			</linearGradient>
			<path id="Shape_1_" class="st1" d="M10.8,4.2c-3.2,0-5.9,2.6-5.9,5.9c0,3.2,2.6,5.9,5.9,5.9c3.2,0,5.9-2.6,5.9-5.9
				C16.6,6.8,14,4.2,10.8,4.2z M10.8,14.3c-2.4,0-4.3-1.9-4.3-4.3s1.9-4.3,4.3-4.3s4.3,1.9,4.3,4.3C15,12.4,13.1,14.3,10.8,14.3z"/>
		</g>
	</g>
</g>
</svg>
