<?xml version="1.0" encoding="UTF-8"?>
<svg width="22px" height="27px" viewBox="0 0 22 27" version="1.1" xmlns="http://www.w3.org/2000/svg" xmlns:xlink="http://www.w3.org/1999/xlink">
    <title>placeholder</title>
    <defs>
        <linearGradient x1="50%" y1="0%" x2="50%" y2="100%" id="linearGradient-1">
            <stop stop-color="#4DBBED" offset="0%"></stop>
            <stop stop-color="#5870E0" offset="100%"></stop>
        </linearGradient>
        <linearGradient x1="50%" y1="0%" x2="50%" y2="100%" id="linearGradient-2">
            <stop stop-color="#4DBBED" offset="0%"></stop>
            <stop stop-color="#5870E0" offset="100%"></stop>
        </linearGradient>
    </defs>
    <g id="Page-1" stroke="none" stroke-width="1" fill="none" fill-rule="evenodd">
        <g id="workers-desktop" transform="translate(-857.000000, -1073.000000)" fill-rule="nonzero">
            <g id="placeholder" transform="translate(857.808594, 1073.000000)">
                <path d="M10.2323381,0 L10.1902778,0 C4.6768852,0 0.19140625,4.50384521 0.19140625,10.0399246 C0.19140625,13.0750351 1.73655958,15.4423141 3.45816111,17.7997055 L10.1769416,27 C10.1769416,27 16.5274376,18.3437347 16.9246513,17.7999115 C18.6462529,15.4425202 20.1914062,13.0752411 20.1914062,10.0401306 C20.1914062,4.5176468 15.7278808,0.022041334 10.2323381,0 Z M15.6542239,16.8644943 C15.2565998,17.4091415 11.0844191,23.1462708 10.1970485,24.3525696 L4.72858859,16.8644943 C3.10813703,14.6455307 1.76692509,12.6004257 1.76692509,10.0399246 C1.76692509,5.38920591 5.52424717,1.60304263 10.1510899,1.58182527 L10.1915088,1.58182527 C14.836817,1.58182527 18.6160926,5.37622835 18.6160926,10.0401306 C18.6160926,12.6006317 17.2746755,14.6455307 15.6542239,16.8644943 Z" id="Shape" fill="url(#linearGradient-1)"></path>
                <path d="M10.1914062,4 C6.88283359,4 4.19140625,6.69159275 4.19140625,9.99989338 C4.19140625,13.3084073 6.88283359,16 10.1914062,16 C13.4997657,16 16.1914062,13.3084073 16.1914062,9.99989338 C16.1914062,6.69159275 13.4997657,4 10.1914062,4 Z M10.1914062,14.3624829 C7.78573382,14.3624829 5.82873918,12.4055231 5.82873918,9.99989338 C5.82873918,7.59447693 7.78573382,5.63751707 10.1914062,5.63751707 C12.5968654,5.63751707 14.5540733,7.59447693 14.5540733,9.99989338 C14.5540733,12.4055231 12.5968654,14.3624829 10.1914062,14.3624829 Z" id="Shape" fill="url(#linearGradient-2)"></path>
            </g>
        </g>
    </g>
</svg>