<?xml version="1.0" encoding="UTF-8"?>
<svg width="20px" height="20px" viewBox="0 0 20 20" version="1.1" xmlns="http://www.w3.org/2000/svg" xmlns:xlink="http://www.w3.org/1999/xlink">
    <title>plus</title>
    <g id="Page-1" stroke="none" stroke-width="1" fill="none" fill-rule="evenodd">
        <g id="profil-user-desktop" transform="translate(-1339.000000, -445.000000)" fill="#FFFFFF" fill-rule="nonzero">
            <g id="plus" transform="translate(1339.000000, 445.000000)">
                <path d="M10,20 C4.48577883,20 0,15.5142212 0,10 C0,4.48577883 4.48577883,0 10,0 C15.5142212,0 20,4.48577883 20,10 C20,15.5142212 15.5142212,20 10,20 Z M10,1.37931034 C5.24632347,1.37931034 1.37931034,5.24632347 1.37931034,10 C1.37931034,14.7536765 5.24632347,18.6206897 10,18.6206897 C14.7536765,18.6206897 18.6206897,14.7536765 18.6206897,10 C18.6206897,5.24632347 14.7536765,1.37931034 10,1.37931034 Z" id="Shape"></path>
                <path d="M14.5833333,10.4761905 L5.41666667,10.4761905 C5.05523683,10.4761905 4.76190476,10.2628581 4.76190476,10 C4.76190476,9.73714193 5.05523683,9.52380952 5.41666667,9.52380952 L14.5833333,9.52380952 C14.9447632,9.52380952 15.2380952,9.73714193 15.2380952,10 C15.2380952,10.2628581 14.9447632,10.4761905 14.5833333,10.4761905 Z" id="Path"></path>
            </g>
        </g>
    </g>
</svg>