<svg height="20" viewBox="0 0 20 20" width="20" xmlns="http://www.w3.org/2000/svg"><g fill="#fff"><path d="m10 20c-5.51422117 0-10-4.4857788-10-10 0-5.51422117 4.48577883-10 10-10 5.5142212 0 10 4.48577883 10 10 0 5.5142212-4.4857788 10-10 10zm0-18.62068966c-4.75367653 0-8.62068966 3.86701313-8.62068966 8.62068966 0 4.7536765 3.86701313 8.6206897 8.62068966 8.6206897 4.7536765 0 8.6206897-3.8670132 8.6206897-8.6206897 0-4.75367653-3.8670132-8.62068966-8.6206897-8.62068966z"/><path d="m14.5833333 10.4761905h-9.16666663c-.36142984 0-.65476191-.2133324-.65476191-.4761905 0-.26285807.29333207-.47619048.65476191-.47619048h9.16666663c.3614299 0 .6547619.21333241.6547619.47619048 0 .2628581-.293332.4761905-.6547619.4761905z"/></g></svg>