<?xml version="1.0" encoding="UTF-8"?>
<svg width="29px" height="29px" viewBox="0 0 29 29" version="1.1" xmlns="http://www.w3.org/2000/svg" xmlns:xlink="http://www.w3.org/1999/xlink">
    <title>plus</title>
    <g id="Page-1" stroke="none" stroke-width="1" fill="none" fill-rule="evenodd">
        <g id="sign-up-user-desktop" transform="translate(-1388.000000, -119.000000)" fill="#FFFFFF" fill-rule="nonzero">
            <g id="plus" transform="translate(1388.000000, 119.000000)">
                <path d="M14.5,29 C6.5043793,29 0,22.4956207 0,14.5 C0,6.5043793 6.5043793,0 14.5,0 C22.4956207,0 29,6.5043793 29,14.5 C29,22.4956207 22.4956207,29 14.5,29 Z M14.5,2 C7.60716903,2 2,7.60716903 2,14.5 C2,21.392831 7.60716903,27 14.5,27 C21.392831,27 27,21.392831 27,14.5 C27,7.60716903 21.392831,2 14.5,2 Z" id="Shape"></path>
                <path d="M21.0625,15 L7.9375,15 C7.41999818,15 7,14.776001 7,14.5 C7,14.223999 7.41999818,14 7.9375,14 L21.0625,14 C21.5800018,14 22,14.223999 22,14.5 C22,14.776001 21.5800018,15 21.0625,15 Z" id="Path"></path>
                <path d="M14.5,22 C14.223999,22 14,21.5800018 14,21.0625 L14,7.9375 C14,7.41999818 14.223999,7 14.5,7 C14.776001,7 15,7.41999818 15,7.9375 L15,21.0625 C15,21.5800018 14.776001,22 14.5,22 Z" id="Path"></path>
            </g>
        </g>
    </g>
</svg>