<svg enable-background="new 0 0 29 29" viewBox="0 0 29 29" xmlns="http://www.w3.org/2000/svg"><g fill="#fff"><path d="m14.5 29c-8 0-14.5-6.5-14.5-14.5s6.5-14.5 14.5-14.5 14.5 6.5 14.5 14.5-6.5 14.5-14.5 14.5zm0-27c-6.9 0-12.5 5.6-12.5 12.5s5.6 12.5 12.5 12.5 12.5-5.6 12.5-12.5-5.6-12.5-12.5-12.5z"/><g stroke="#fff" stroke-miterlimit="10"><path d="m21.1 15h-13.2c-.5 0-.9-.2-.9-.5s.4-.5.9-.5h13.1c.5 0 .9.2.9.5s-.3.5-.8.5z"/><path d="m14.5 22c-.3 0-.5-.4-.5-.9v-13.2c0-.5.2-.9.5-.9s.5.4.5.9v13.1c0 .6-.2 1-.5 1z"/></g></g></svg>