<?xml version="1.0" encoding="UTF-8"?>
<svg width="36px" height="36px" viewBox="0 0 36 36" version="1.1" xmlns="http://www.w3.org/2000/svg" xmlns:xlink="http://www.w3.org/1999/xlink">
    <title>plus</title>
    <g id="Page-1" stroke="none" stroke-width="1" fill="none" fill-rule="evenodd">
        <g id="announcement-personnal-desktop" transform="translate(-1387.000000, -115.000000)" fill="#FFFFFF" fill-rule="nonzero">
            <g id="plus" transform="translate(1387.000000, 115.000000)">
                <path d="M18,36 C8.07440189,36 0,27.9255981 0,18 C0,8.07440189 8.07440189,0 18,0 C27.9255981,0 36,8.07440189 36,18 C36,27.9255981 27.9255981,36 18,36 Z M18,2.48275862 C9.44338224,2.48275862 2.48275862,9.44338224 2.48275862,18 C2.48275862,26.5566178 9.44338224,33.5172414 18,33.5172414 C26.5566178,33.5172414 33.5172414,26.5566178 33.5172414,18 C33.5172414,9.44338224 26.5566178,2.48275862 18,2.48275862 Z" id="Shape"></path>
                <path d="M17.5,28 C16.6719971,28 16,27.4680023 16,26.8125 L16,10.1875 C16,9.5319977 16.6719971,9 17.5,9 C18.3280029,9 19,9.5319977 19,10.1875 L19,26.8125 C19,27.4680023 18.3280029,28 17.5,28 Z" id="Path"></path>
                <path d="M25.8125,20 L9.1875,20 C8.5319977,20 8,19.3280029 8,18.5 C8,17.6719971 8.5319977,17 9.1875,17 L25.8125,17 C26.4680023,17 27,17.6719971 27,18.5 C27,19.3280029 26.4680023,20 25.8125,20 Z" id="Path"></path>
            </g>
        </g>
    </g>
</svg>