<?xml version="1.0" encoding="utf-8"?>
<!-- Generator: Adobe Illustrator 24.0.3, SVG Export Plug-In . SVG Version: 6.00 Build 0)  -->
<svg version="1.1" id="_x33_0" xmlns="http://www.w3.org/2000/svg" xmlns:xlink="http://www.w3.org/1999/xlink" x="0px" y="0px"
	 viewBox="0 0 512 512" style="enable-background:new 0 0 512 512;" xml:space="preserve">
<style type="text/css">
	.st0{fill:url(#SVGID_1_);}
	.st1{fill:url(#SVGID_2_);}
</style>
<g>
	<linearGradient id="SVGID_1_" gradientUnits="userSpaceOnUse" x1="253.1899" y1="0.1523" x2="262.073" y2="514.2632">
		<stop  offset="0" style="stop-color:#4CB5EA"/>
		<stop  offset="1" style="stop-color:#5A6CDD"/>
	</linearGradient>
	<path class="st0" d="M504,277.1V170.9c0-1.6-1.3-2.9-2.9-2.9h-42.1c-1.6,0-2.9-1.3-2.9-2.9v-26.1c0-1.6,1.3-2.9,2.9-2.9h26.1
		c1.6,0,2.9-1.3,2.9-2.9V10.9c0-1.6-1.3-2.9-2.9-2.9H346.9c-1.6,0-2.9,1.3-2.9,2.9v58.1c0,1.6-1.3,2.9-2.9,2.9h-62.5
		c-3.6-10-13.5-17-24.9-15.9c-11.3,1.1-20.4,10.2-21.5,21.5C231,89.1,238,99,248,102.5v48.1c0,0.7-0.6,1.3-1.3,1.3h-29.3
		c-0.7,0-1.3,0.6-1.3,1.3v92c0,1.5,1.2,2.7,2.7,2.7h50.4c1.6,0,2.9,1.3,2.9,2.9v42.1c0,1.6-1.3,2.9-2.9,2.9h-10.1
		c-1.6,0-2.9,1.3-2.9,2.9v18.2c0,3.8-2.5,7.2-6.7,9c-4,1.7-8.2,1-10.9-1.7l-12.8-12.9c-1.1-1.2-3-1.2-4.2,0l-29.8,29.8
		c-1.2,1.2-1.1,3,0,4.2l12.8,12.8c2.7,2.7,3.4,7,1.6,11.3c-1.6,3.9-5.1,6.4-8.9,6.4h-22.2l-1.6-11.2c-3.8-26.3-14.7-50.9-31.7-71.3
		c-7.1-8.5-11.5-18.9-13-29.9c7.9-0.9,15.3-4.3,21-9.9c6.7-6.7,10.3-15.5,10.3-25v-14.9l21.7-7.2c1.4-0.5,2.3-1.8,2.3-3.2V200
		c0-27-10.1-50.4-17.6-64H184c8.8,0,16-7.2,16-16v-16c0-8.8-7.2-16-16-16h-1.4l-2-10.2C172.4,37.4,136.6,8,95.4,8
		c-44.8,0-82,33.6-86.4,78.2L8,96v24c0,3.8,1.4,7.2,3.6,9.9C9.2,136.6,8,143.6,8,150.6v3.3c0,26.4,12.8,51.3,34.3,66.7L64,236.1
		v39.3c-7.6,3.3-14,8.8-18.4,16.1c-3.6,5.9-5.4,13-5.5,20.5H40v190.1c0,1.1,0.9,1.9,1.9,1.9h132.2c1.1,0,1.9-0.9,1.9-1.9V459
		c0-1.6,1.3-2.9,2.9-2.9h8.8c0.8,0,1.5,0.3,2.1,0.9l31.6,31.6c1.2,1.2,3,1.1,4.2,0l12.8-12.9c2.7-2.7,6.9-3.4,11.3-1.6
		c4,1.6,6.4,5,6.4,8.9V504h48v-21.1c0-3.8,2.5-7.2,6.7-9c4-1.7,8.2-1,10.9,1.7l12.8,12.9c1.1,1.2,3,1.2,4.2,0l29.8-29.8
		c1.2-1.2,1.1-3,0-4.2l-12.8-12.8c-2.7-2.7-3.4-6.9-1.6-11.3c1.6-3.9,5.1-6.4,8.9-6.4h18.2c1.6,0,2.9-1.3,2.9-2.9v-10.1
		c0-1.6,1.3-2.9,2.9-2.9h54.5c3.6,10,13.5,17,24.9,15.9c11.3-1.1,20.4-10.2,21.5-21.5c1.1-11.4-5.9-21.4-15.9-24.9v-94.5
		c0-1.6,1.3-2.9,2.9-2.9l26.1,0C502.7,280,504,278.7,504,277.1z M408,261.1v-74.1c0-1.6,1.3-2.9,2.9-2.9h70.2c1.7,0,2.6,2,1.5,3.3
		l-33.1,38.6c-1.1,1.3-3.1,1.4-4.3,0.2l-5.6-5.6c-1.1-1.1-3-1.1-4.2,0l-7.2,7.2c-1.1,1.1-1.1,3,0,4.2l17.8,17.8
		c1.2,1.2,3.2,1.1,4.3-0.2l34.5-40.2c1-1.2,3-0.5,3,1.1v50.8c0,1.6-1.3,2.9-2.9,2.9h-74.1C409.3,264,408,262.7,408,261.1z M362.9,24
		h106.1c1.6,0,2.9,1.3,2.9,2.9v90.1c0,1.6-1.3,2.9-2.9,2.9H362.9c-1.6,0-2.9-1.3-2.9-2.9V26.9C360,25.3,361.3,24,362.9,24z
		 M254.4,72.2c5.6-1.1,10.5,3.8,9.5,9.4c-0.6,3.1-3.1,5.7-6.3,6.3c-5.6,1.1-10.5-3.8-9.5-9.4C248.7,75.3,251.3,72.8,254.4,72.2z
		 M233.3,168h52.5c1.2,0,1.8,1.4,1,2.2l-22.3,25.1c-0.5,0.6-1.4,0.6-1.9,0.1l-8-8c-0.5-0.5-1.4-0.5-1.9,0l-9.4,9.4
		c-0.5,0.5-0.5,1.4,0,1.9l20,20c0.5,0.5,1.4,0.5,1.9-0.1l28.4-31.9c0.8-0.9,2.3-0.3,2.3,0.9v43.1c0,0.7-0.6,1.3-1.3,1.3h-61.3
		c-0.7,0-1.3-0.6-1.3-1.3v-61.3C232,168.6,232.6,168,233.3,168z M157.5,367l1.2,8.4c-16.8-2.7-30.2-15.6-33.1-32.8l-5.3-31.6
		c5.1,0.5,10.2,0.9,15.3,0.9C147.1,328.3,154.6,347.1,157.5,367L157.5,367z M167.8,194.3l-23.8,7.9V216h-14.1
		c-8,0-15.2-4.4-18.7-11.6l-14.3,7.2c6.3,12.6,19,20.4,33,20.4h13.8c-0.7,3.9-2.5,7.5-5.3,10.4c-3.6,3.6-8.6,5.7-13.7,5.7L96,248v16
		l16.5,0c1.2,11.1,5,21.8,10.8,31.3c-2.6-0.2-5.1-0.6-7.6-1C109.1,281,95.5,272,80,272v-68.7c0-4.2-1.7-8.3-4.7-11.3l-8-8
		c-2.2-2.3-3.4-5.3-3.3-8.5c0.2-4.2,3.8-7.5,8-7.5h8v-16c0-8.8,7.2-16,16-16h51.8C153,144.1,166.2,166.8,167.8,194.3L167.8,194.3z
		 M184,104v16H24l0-16H184z M40,88H24.8l0-0.2c0.6-5.5,1.8-10.8,3.5-15.8H40V88z M104,88H88V56h16V88z M164.8,81l1.4,7H152V72h10.4
		C163.3,74.9,164.2,77.9,164.8,81z M95.4,24c24.3,0,46.3,12.6,59.1,32H152c-8.8,0-16,7.2-16,16v16h-16V56c0-8.8-7.2-16-16-16H88
		c-8.8,0-16,7.2-16,16v32H56V72c0-8.8-7.2-16-16-16h-3.9C48.8,36.6,70.6,24,95.4,24z M51.6,207.6C34.3,195.3,24,175.2,24,154v-3.3
		c0-4.9,0.8-9.9,2.4-14.6h42.1c-2.8,4.7-4.5,10.1-4.5,16v1.4c-9.3,3.3-16,12.2-16,22.6c0,7.3,2.8,14.2,8,19.3l8,8v13.1L51.6,207.6z
		 M59.3,299.8c3.9-6.5,10.4-10.7,18-11.6C78,288.1,79,288,80,288c12.1,0,22.4,9.1,23.8,21.6l6,35.6c4.5,27.1,27.8,46.8,55.3,46.8
		l42.9,0v48l-57.5,0c-43.4,0-80.8-32.4-87.1-75.3l-7.1-48.7C55.5,310,56.6,304.2,59.3,299.8L59.3,299.8z M158.1,488H57.9
		c-1.1,0-1.9-0.9-1.9-1.9v-90.8c16.7,36,53.3,60.7,94.5,60.7h9.5v30.1C160,487.1,159.1,488,158.1,488z M368,405.1
		c0,1.6-1.3,2.9-2.9,2.9h-2.2c-10.3,0-19.6,6.4-23.8,16.5c-4.2,10-2.2,21.2,5.2,28.5l1.5,1.5c1.2,1.1,1.2,3,0,4.2l-7.1,7.1
		c-1.2,1.2-3,1.1-4.2,0l-1.5-1.5c-7.3-7.4-18.5-9.4-28.7-5.1c-9.9,4.1-16.3,13.4-16.3,23.7v2.2c0,1.6-1.3,2.9-2.9,2.9h-10.1
		c-1.6,0-2.9-1.3-2.9-2.9v-2.2c0-10.3-6.4-19.6-16.5-23.8c-10-4.2-21.2-2.2-28.5,5.2l-1.5,1.5c-1.1,1.2-3,1.2-4.2,0l-10.1-10.1
		c7.3-1.5,12.8-8,12.8-15.7h17c10.4,10.2,24.4,16,39.1,16c30.9,0,56-25.1,56-56s-25.1-56-56-56c-14.8,0-28.8,5.9-39.3,16.2
		c-0.8-0.1-1.6-0.2-2.3-0.2c-5.8,0-11.2,2.1-15.4,5.9c0.3-7-2.2-13.9-7.3-18.9l-1.5-1.5c-1.2-1.1-1.2-3,0-4.2l7.1-7.1
		c1.2-1.2,3-1.1,4.2,0l1.5,1.5c7.3,7.4,18.5,9.4,28.7,5.1c9.9-4.1,16.3-13.4,16.3-23.6v-2.2c0-1.6,1.3-2.9,2.9-2.9h10.1
		c1.6,0,2.9,1.3,2.9,2.9v2.2c0,10.3,6.4,19.6,16.5,23.8c10,4.2,21.2,2.2,28.5-5.2l1.5-1.5c1.1-1.2,3-1.2,4.2,0l7.1,7.1
		c1.2,1.2,1.1,3,0,4.2l-1.5,1.5c-7.3,7.3-9.4,18.5-5.1,28.7c4.1,9.9,13.4,16.3,23.7,16.3h2.2c1.6,0,2.9,1.3,2.9,2.9L368,405.1z
		 M280,376h-19.1l-1.5-3c-0.9-1.8-2.1-3.5-3.4-5c6.9-5.1,15.2-8,24-8c22.1,0,40,17.9,40,40s-17.9,40-40,40c-2.7,0-5.3-0.3-7.9-0.8
		c18.2-3.7,31.9-19.9,31.9-39.2C304,386.8,293.2,376,280,376z M245.1,380.2L251,392h29c4.4,0,8,3.6,8,8c0,13.2-10.8,24-24,24h-40
		v-36.7l9.1-9.1C236.5,374.8,243,375.8,245.1,380.2z M464,408c-4.4,0-8-3.6-8-8s3.6-8,8-8s8,3.6,8,8S468.4,408,464,408z M456,377.5
		c-6.8,2.4-12.1,7.8-14.5,14.5h-54.5c-1.6,0-2.9-1.3-2.9-2.9v-10.1c0-1.6-1.3-2.9-2.9-2.9h-18.2c-3.8,0-7.3-2.5-9-6.7
		c-1.7-4-1-8.2,1.7-10.9l12.8-12.8c1.2-1.1,1.2-3,0-4.2l-29.8-29.8c-1.2-1.2-3-1.1-4.2,0l-12.8,12.9c-2.7,2.7-6.9,3.4-11.3,1.6
		c-4-1.6-6.4-5-6.4-8.9v-18.2c0-1.6-1.3-2.9-2.9-2.9h-10.1c-1.6,0-2.9-1.3-2.9-2.9v-42.1c0-1.6,1.3-2.9,2.9-2.9h18.4
		c1.5,0,2.7-1.2,2.7-2.7v-78.8c0-0.3,0.1-0.6,0.3-0.9l19.9-22.3c1-1.1,0.9-2.8-0.2-3.8l-8-7.1c-1.1-1-2.8-0.9-3.8,0.2l-16.8,18.9
		c-0.3,0.3-0.6,0.4-1,0.4h-37.1c-0.7,0-1.3-0.6-1.3-1.3v-48.1c6.8-2.4,12.1-7.8,14.5-14.5h62.5c1.6,0,2.9,1.3,2.9,2.9v42.1
		c0,1.6,1.3,2.9,2.9,2.9h90.1c1.6,0,2.9,1.3,2.9,2.9v26.1c0,1.6-1.3,2.9-2.9,2.9h-42.1c-1.6,0-2.9,1.3-2.9,2.9v106.1
		c0,1.6,1.3,2.9,2.9,2.9h58.1c1.6,0,2.9,1.3,2.9,2.9V377.5z"/>
	<linearGradient id="SVGID_2_" gradientUnits="userSpaceOnUse" x1="415.0349" y1="-2.6441" x2="423.918" y2="511.4667">
		<stop  offset="0" style="stop-color:#4CB5EA"/>
		<stop  offset="1" style="stop-color:#5A6CDD"/>
	</linearGradient>
	<path class="st1" d="M397.3,82l-5.6-5.6c-1.1-1.1-3-1.1-4.2,0l-7.2,7.2c-1.1,1.1-1.1,3,0,4.2l17.8,17.8c1.2,1.2,3.2,1.1,4.3-0.2
		l49.6-57.9c1.1-1.2,0.9-3.1-0.3-4.1l-7.7-6.6c-1.2-1.1-3.1-0.9-4.1,0.3l-38.4,44.8C400.5,83.1,398.5,83.2,397.3,82z"/>
</g>
</svg>
