<svg enable-background="new 0 0 512 512" viewBox="0 0 512 512" xmlns="http://www.w3.org/2000/svg" xmlns:xlink="http://www.w3.org/1999/xlink"><linearGradient id="a"><stop offset="0" stop-color="#4cb5ea"/><stop offset="1" stop-color="#5a6cdd"/></linearGradient><linearGradient id="b" gradientUnits="userSpaceOnUse" x1="253.1899" x2="262.073" xlink:href="#a" y1=".1523" y2="514.2632"/><linearGradient id="c" gradientUnits="userSpaceOnUse" x1="415.0349" x2="423.918" xlink:href="#a" y1="-2.6441" y2="511.4667"/><path d="m504 277.1v-106.2c0-1.6-1.3-2.9-2.9-2.9h-42.1c-1.6 0-2.9-1.3-2.9-2.9v-26.1c0-1.6 1.3-2.9 2.9-2.9h26.1c1.6 0 2.9-1.3 2.9-2.9v-122.3c0-1.6-1.3-2.9-2.9-2.9h-138.2c-1.6 0-2.9 1.3-2.9 2.9v58.1c0 1.6-1.3 2.9-2.9 2.9h-62.5c-3.6-10-13.5-17-24.9-15.9-11.3 1.1-20.4 10.2-21.5 21.5-1.2 11.6 5.8 21.5 15.8 25v48.1c0 .7-.6 1.3-1.3 1.3h-29.3c-.7 0-1.3.6-1.3 1.3v92c0 1.5 1.2 2.7 2.7 2.7h50.4c1.6 0 2.9 1.3 2.9 2.9v42.1c0 1.6-1.3 2.9-2.9 2.9h-10.1c-1.6 0-2.9 1.3-2.9 2.9v18.2c0 3.8-2.5 7.2-6.7 9-4 1.7-8.2 1-10.9-1.7l-12.8-12.9c-1.1-1.2-3-1.2-4.2 0l-29.8 29.8c-1.2 1.2-1.1 3 0 4.2l12.8 12.8c2.7 2.7 3.4 7 1.6 11.3-1.6 3.9-5.1 6.4-8.9 6.4h-22.2l-1.6-11.2c-3.8-26.3-14.7-50.9-31.7-71.3-7.1-8.5-11.5-18.9-13-29.9 7.9-.9 15.3-4.3 21-9.9 6.7-6.7 10.3-15.5 10.3-25v-14.9l21.7-7.2c1.4-.5 2.3-1.8 2.3-3.2v-3.2c0-27-10.1-50.4-17.6-64h17.5c8.8 0 16-7.2 16-16v-16c0-8.8-7.2-16-16-16h-1.4l-2-10.2c-8.2-40.4-44-69.8-85.2-69.8-44.8 0-82 33.6-86.4 78.2l-1 9.8v24c0 3.8 1.4 7.2 3.6 9.9-2.4 6.7-3.6 13.7-3.6 20.7v3.3c0 26.4 12.8 51.3 34.3 66.7l21.7 15.5v39.3c-7.6 3.3-14 8.8-18.4 16.1-3.6 5.9-5.4 13-5.5 20.5h-.1v190.1c0 1.1.9 1.9 1.9 1.9h132.2c1.1 0 1.9-.9 1.9-1.9v-43.1c0-1.6 1.3-2.9 2.9-2.9h8.8c.8 0 1.5.3 2.1.9l31.6 31.6c1.2 1.2 3 1.1 4.2 0l12.8-12.9c2.7-2.7 6.9-3.4 11.3-1.6 4 1.6 6.4 5 6.4 8.9v21h48v-21.1c0-3.8 2.5-7.2 6.7-9 4-1.7 8.2-1 10.9 1.7l12.8 12.9c1.1 1.2 3 1.2 4.2 0l29.8-29.8c1.2-1.2 1.1-3 0-4.2l-12.8-12.8c-2.7-2.7-3.4-6.9-1.6-11.3 1.6-3.9 5.1-6.4 8.9-6.4h18.2c1.6 0 2.9-1.3 2.9-2.9v-10.1c0-1.6 1.3-2.9 2.9-2.9h54.5c3.6 10 13.5 17 24.9 15.9 11.3-1.1 20.4-10.2 21.5-21.5 1.1-11.4-5.9-21.4-15.9-24.9v-94.5c0-1.6 1.3-2.9 2.9-2.9h26.1c1.7-.2 3-1.5 3-3.1zm-96-16v-74.1c0-1.6 1.3-2.9 2.9-2.9h70.2c1.7 0 2.6 2 1.5 3.3l-33.1 38.6c-1.1 1.3-3.1 1.4-4.3.2l-5.6-5.6c-1.1-1.1-3-1.1-4.2 0l-7.2 7.2c-1.1 1.1-1.1 3 0 4.2l17.8 17.8c1.2 1.2 3.2 1.1 4.3-.2l34.5-40.2c1-1.2 3-.5 3 1.1v50.8c0 1.6-1.3 2.9-2.9 2.9h-74.1c-1.5-.2-2.8-1.5-2.8-3.1zm-45.1-237.1h106.1c1.6 0 2.9 1.3 2.9 2.9v90.1c0 1.6-1.3 2.9-2.9 2.9h-106.1c-1.6 0-2.9-1.3-2.9-2.9v-90.1c0-1.6 1.3-2.9 2.9-2.9zm-108.5 48.2c5.6-1.1 10.5 3.8 9.5 9.4-.6 3.1-3.1 5.7-6.3 6.3-5.6 1.1-10.5-3.8-9.5-9.4.6-3.2 3.2-5.7 6.3-6.3zm-21.1 95.8h52.5c1.2 0 1.8 1.4 1 2.2l-22.3 25.1c-.5.6-1.4.6-1.9.1l-8-8c-.5-.5-1.4-.5-1.9 0l-9.4 9.4c-.5.5-.5 1.4 0 1.9l20 20c.5.5 1.4.5 1.9-.1l28.4-31.9c.8-.9 2.3-.3 2.3.9v43.1c0 .7-.6 1.3-1.3 1.3h-61.3c-.7 0-1.3-.6-1.3-1.3v-61.3c0-.8.6-1.4 1.3-1.4zm-75.8 199 1.2 8.4c-16.8-2.7-30.2-15.6-33.1-32.8l-5.3-31.6c5.1.5 10.2.9 15.3.9 11.5 16.4 19 35.2 21.9 55.1zm10.3-172.7-23.8 7.9v13.8h-14.1c-8 0-15.2-4.4-18.7-11.6l-14.3 7.2c6.3 12.6 19 20.4 33 20.4h13.8c-.7 3.9-2.5 7.5-5.3 10.4-3.6 3.6-8.6 5.7-13.7 5.7l-28.7-.1v16h16.5c1.2 11.1 5 21.8 10.8 31.3-2.6-.2-5.1-.6-7.6-1-6.6-13.3-20.2-22.3-35.7-22.3v-68.7c0-4.2-1.7-8.3-4.7-11.3l-8-8c-2.2-2.3-3.4-5.3-3.3-8.5.2-4.2 3.8-7.5 8-7.5h8v-16c0-8.8 7.2-16 16-16h51.8c5.2 8.1 18.4 30.8 20 58.3zm16.2-90.3v16h-160v-16zm-144-16h-15.2v-.2c.6-5.5 1.8-10.8 3.5-15.8h11.7zm64 0h-16v-32h16zm60.8-7 1.4 7h-14.2v-16h10.4c.9 2.9 1.8 5.9 2.4 9zm-69.4-57c24.3 0 46.3 12.6 59.1 32h-2.5c-8.8 0-16 7.2-16 16v16h-16v-32c0-8.8-7.2-16-16-16h-16c-8.8 0-16 7.2-16 16v32h-16v-16c0-8.8-7.2-16-16-16h-3.9c12.7-19.4 34.5-32 59.3-32zm-43.8 183.6c-17.3-12.3-27.6-32.4-27.6-53.6v-3.3c0-4.9.8-9.9 2.4-14.6h42.1c-2.8 4.7-4.5 10.1-4.5 16v1.4c-9.3 3.3-16 12.2-16 22.6 0 7.3 2.8 14.2 8 19.3l8 8v13.1zm7.7 92.2c3.9-6.5 10.4-10.7 18-11.6.7-.1 1.7-.2 2.7-.2 12.1 0 22.4 9.1 23.8 21.6l6 35.6c4.5 27.1 27.8 46.8 55.3 46.8h42.9v48h-57.5c-43.4 0-80.8-32.4-87.1-75.3l-7.1-48.7c-.8-6 .3-11.8 3-16.2zm98.8 188.2h-100.2c-1.1 0-1.9-.9-1.9-1.9v-90.8c16.7 36 53.3 60.7 94.5 60.7h9.5v30.1c0 1-.9 1.9-1.9 1.9zm209.9-82.9c0 1.6-1.3 2.9-2.9 2.9h-2.2c-10.3 0-19.6 6.4-23.8 16.5-4.2 10-2.2 21.2 5.2 28.5l1.5 1.5c1.2 1.1 1.2 3 0 4.2l-7.1 7.1c-1.2 1.2-3 1.1-4.2 0l-1.5-1.5c-7.3-7.4-18.5-9.4-28.7-5.1-9.9 4.1-16.3 13.4-16.3 23.7v2.2c0 1.6-1.3 2.9-2.9 2.9h-10.1c-1.6 0-2.9-1.3-2.9-2.9v-2.2c0-10.3-6.4-19.6-16.5-23.8-10-4.2-21.2-2.2-28.5 5.2l-1.5 1.5c-1.1 1.2-3 1.2-4.2 0l-10.1-10.1c7.3-1.5 12.8-8 12.8-15.7h17c10.4 10.2 24.4 16 39.1 16 30.9 0 56-25.1 56-56s-25.1-56-56-56c-14.8 0-28.8 5.9-39.3 16.2-.8-.1-1.6-.2-2.3-.2-5.8 0-11.2 2.1-15.4 5.9.3-7-2.2-13.9-7.3-18.9l-1.5-1.5c-1.2-1.1-1.2-3 0-4.2l7.1-7.1c1.2-1.2 3-1.1 4.2 0l1.5 1.5c7.3 7.4 18.5 9.4 28.7 5.1 9.9-4.1 16.3-13.4 16.3-23.6v-2.2c0-1.6 1.3-2.9 2.9-2.9h10.1c1.6 0 2.9 1.3 2.9 2.9v2.2c0 10.3 6.4 19.6 16.5 23.8 10 4.2 21.2 2.2 28.5-5.2l1.5-1.5c1.1-1.2 3-1.2 4.2 0l7.1 7.1c1.2 1.2 1.1 3 0 4.2l-1.5 1.5c-7.3 7.3-9.4 18.5-5.1 28.7 4.1 9.9 13.4 16.3 23.7 16.3h2.2c1.6 0 2.9 1.3 2.9 2.9zm-88-29.1h-19.1l-1.5-3c-.9-1.8-2.1-3.5-3.4-5 6.9-5.1 15.2-8 24-8 22.1 0 40 17.9 40 40s-17.9 40-40 40c-2.7 0-5.3-.3-7.9-.8 18.2-3.7 31.9-19.9 31.9-39.2 0-13.2-10.8-24-24-24zm-34.9 4.2 5.9 11.8h29c4.4 0 8 3.6 8 8 0 13.2-10.8 24-24 24h-40v-36.7l9.1-9.1c3.4-3.4 9.9-2.4 12 2zm218.9 27.8c-4.4 0-8-3.6-8-8s3.6-8 8-8 8 3.6 8 8-3.6 8-8 8zm-8-30.5c-6.8 2.4-12.1 7.8-14.5 14.5h-54.5c-1.6 0-2.9-1.3-2.9-2.9v-10.1c0-1.6-1.3-2.9-2.9-2.9h-18.2c-3.8 0-7.3-2.5-9-6.7-1.7-4-1-8.2 1.7-10.9l12.8-12.8c1.2-1.1 1.2-3 0-4.2l-29.8-29.8c-1.2-1.2-3-1.1-4.2 0l-12.8 12.9c-2.7 2.7-6.9 3.4-11.3 1.6-4-1.6-6.4-5-6.4-8.9v-18.2c0-1.6-1.3-2.9-2.9-2.9h-10.1c-1.6 0-2.9-1.3-2.9-2.9v-42.1c0-1.6 1.3-2.9 2.9-2.9h18.4c1.5 0 2.7-1.2 2.7-2.7v-78.8c0-.3.1-.6.3-.9l19.9-22.3c1-1.1.9-2.8-.2-3.8l-8-7.1c-1.1-1-2.8-.9-3.8.2l-16.8 18.9c-.3.3-.6.4-1 .4h-37.1c-.7 0-1.3-.6-1.3-1.3v-48.1c6.8-2.4 12.1-7.8 14.5-14.5h62.5c1.6 0 2.9 1.3 2.9 2.9v42.1c0 1.6 1.3 2.9 2.9 2.9h90.1c1.6 0 2.9 1.3 2.9 2.9v26.1c0 1.6-1.3 2.9-2.9 2.9h-42.1c-1.6 0-2.9 1.3-2.9 2.9v106.1c0 1.6 1.3 2.9 2.9 2.9h58.1c1.6 0 2.9 1.3 2.9 2.9v94.6z" fill="url(#b)"/><path d="m397.3 82-5.6-5.6c-1.1-1.1-3-1.1-4.2 0l-7.2 7.2c-1.1 1.1-1.1 3 0 4.2l17.8 17.8c1.2 1.2 3.2 1.1 4.3-.2l49.6-57.9c1.1-1.2.9-3.1-.3-4.1l-7.7-6.6c-1.2-1.1-3.1-.9-4.1.3l-38.4 44.8c-1 1.2-3 1.3-4.2.1z" fill="url(#c)"/></svg>