<?xml version="1.0" encoding="UTF-8"?>
<svg width="321px" height="283px" viewBox="0 0 321 283" version="1.1" xmlns="http://www.w3.org/2000/svg" xmlns:xlink="http://www.w3.org/1999/xlink">
    <title>Profile analysis _Monochromatic</title>
    <defs>
        <linearGradient x1="0%" y1="49.9764262%" x2="100%" y2="49.9764262%" id="linearGradient-1">
            <stop stop-color="#000000" stop-opacity="0" offset="0%"></stop>
            <stop stop-color="#000000" offset="99%"></stop>
        </linearGradient>
        <linearGradient x1="81.4860763%" y1="24.3865453%" x2="-22.8425722%" y2="109.401709%" id="linearGradient-2">
            <stop stop-color="#000000" stop-opacity="0" offset="0%"></stop>
            <stop stop-color="#000000" offset="99%"></stop>
        </linearGradient>
        <linearGradient x1="0.0107553636%" y1="49.8634084%" x2="100.109251%" y2="49.8634084%" id="linearGradient-3">
            <stop stop-color="#E5C5D5" offset="0%"></stop>
            <stop stop-color="#EAD4D1" offset="42%"></stop>
            <stop stop-color="#F0E9CB" offset="100%"></stop>
        </linearGradient>
        <linearGradient x1="34.2347492%" y1="65.7238275%" x2="58.089122%" y2="40.2827749%" id="linearGradient-4">
            <stop stop-color="#000000" stop-opacity="0" offset="0%"></stop>
            <stop stop-color="#000000" offset="99%"></stop>
        </linearGradient>
        <linearGradient x1="0.280132977%" y1="50.2114832%" x2="100.062581%" y2="50.2114832%" id="linearGradient-5">
            <stop stop-color="#E5C5D5" offset="0%"></stop>
            <stop stop-color="#EAD4D1" offset="42%"></stop>
            <stop stop-color="#F0E9CB" offset="100%"></stop>
        </linearGradient>
        <linearGradient x1="55.8254901%" y1="-115.564771%" x2="42.7857641%" y2="352.315726%" id="linearGradient-6">
            <stop stop-color="#000000" stop-opacity="0" offset="0%"></stop>
            <stop stop-color="#000000" offset="99%"></stop>
        </linearGradient>
        <linearGradient x1="0.447158767%" y1="50.0247648%" x2="100.481399%" y2="50.0247648%" id="linearGradient-7">
            <stop stop-color="#E5C5D5" offset="0%"></stop>
            <stop stop-color="#EAD4D1" offset="42%"></stop>
            <stop stop-color="#F0E9CB" offset="100%"></stop>
        </linearGradient>
        <linearGradient x1="0.237640732%" y1="50.053258%" x2="99.9761069%" y2="50.053258%" id="linearGradient-8">
            <stop stop-color="#E5C5D5" offset="0%"></stop>
            <stop stop-color="#EAD4D1" offset="42%"></stop>
            <stop stop-color="#F0E9CB" offset="100%"></stop>
        </linearGradient>
    </defs>
    <g id="Page-1" stroke="none" stroke-width="1" fill="none" fill-rule="evenodd">
        <g id="workers-personnal-desktop" transform="translate(-971.000000, -157.000000)" fill-rule="nonzero">
            <g id="Profile-analysis-_Monochromatic" transform="translate(971.000000, 157.647508)">
                <path d="M233.873816,109.975564 C241.773801,122.594343 246.200846,138.106114 258.174858,146.880257 C274.98618,159.156445 283.592877,153.541754 299.908064,166.455542 C307.44549,172.42234 311.767584,181.47246 315.240524,190.417899 C320.306819,203.493466 323.970581,218.615064 317.644868,231.129162 C310.336427,245.584611 292.628247,251.113653 276.618373,253.511792 C254.444983,256.890123 248.681518,257.204165 226.937476,262.771273 C218.264666,264.998116 209.763594,268.043372 200.995374,269.670681 C192.227153,271.297989 183.411227,271.459768 174.576219,271.307506 C131.875431,270.551986 74.614004,271.980023 50.0942001,245.974784 C36.0965688,231.129162 30.0935789,217.065351 13.1105182,187.55492 C2.01637078,168.144604 -2.21424353,145.578106 1.09834204,123.480835 C2.94930484,111.394976 7.13782376,99.5279945 14.2745257,89.6118804 C24.2830823,75.7369337 39.6060011,66.2205094 55.8639424,60.7580818 C72.1218837,55.2956542 46.7643753,50.8785688 63.9096338,49.9745085 C99.297371,48.0712236 143.949463,44.9022543 176.722954,60.4425752 C186.492985,65.0865903 193.667851,71.4150125 201.529672,78.5903964 C212.807188,88.830069 225.649435,96.8999969 233.873816,109.975564 Z" id="Path" fill="#4A67C6" opacity="0.18"></path>
                <rect id="Rectangle" fill="#B2B2B2" opacity="0.43" x="20" y="0.352492342" width="179" height="273" rx="11.02"></rect>
                <path d="M194.973139,188.113461 L196.159176,206.352492 C193.780891,205.447664 191.599577,204.089277 189.735601,202.352287 C179.440804,193.551836 172.476397,181.579793 165.853568,169.798236 C160.223848,159.746927 154.71115,149.641647 149.315474,139.482395 C147.341909,135.777443 145.292438,131.939151 142,129.339018 C145.102672,127.577023 148.983384,126.576971 152.209403,128.100859 C156.147045,129.958097 157.627218,134.6631 159.67669,138.510917 C161.811555,142.520646 164.876274,145.939869 167.599414,149.568627 C171.123281,154.26295 174.087963,159.354959 176.433015,164.740834 C176.835899,165.822563 177.398865,166.837179 178.102954,167.750512 C179.188874,168.814933 180.480539,169.644736 181.898271,170.188732 C186.198333,172.199269 190.374358,174.466951 194.403841,176.979557 C195.822423,177.778514 197.103868,178.801129 198.199158,180.008284 C199.530205,181.671291 200.163265,183.7895 199.963981,185.913349 C199.641379,189.656398 197.867068,187.894403 194.973139,188.113461 Z" id="Path" fill="#4A67C6" opacity="0.34"></path>
                <path d="M52.4507079,181.848674 C50.6950508,182.239632 48.8160232,182.716411 47.7056887,184.09907 C46.5953542,185.481729 46.7566848,188.075406 48.4648917,188.618934 C48.9558237,188.734951 49.4607325,188.779904 49.9643178,188.752433 C57.2716474,188.914537 61.845846,197.391667 68.9443947,199.022251 C71.51103,199.482917 74.1465626,199.378811 76.669286,198.717112 C78.9229223,198.363984 81.0639556,197.489098 82.9232214,196.161577 C84.2138666,195.112663 85.4665517,193.586971 87.1178184,193.749076 C89.0158261,193.930252 89.8889096,196.142506 90.3159614,198.001944 C94.178407,214.898989 93.1629729,232.482595 92.0526384,249.78967 C91.6920169,255.511017 91.5686464,261.48029 91.464256,267.230243 C91.464256,269.261322 91.464256,271.473576 92.688471,273.085089 C94.425148,275.32595 97.6992113,275.430841 100.527243,275.32595 C102.34933,275.249665 104.380198,275.08756 105.632883,273.743044 C106.885569,272.398527 106.904549,270.548625 106.914039,268.803614 C107.027919,250.552517 106.306676,232.326848 104.75031,214.126607 C104.332748,209.31114 105.528493,197.610985 105.471553,192.776447 C105.424103,187.684448 107.122819,179.817595 108.005393,174.801881 C110.226062,162.08142 112.437241,159.668918 114.335249,146.900779 C116.072051,148.167964 118.033638,149.090353 120.114682,149.618418 C122.221471,150.009377 124.650921,149.427707 125.865645,147.654089 C126.602094,146.334863 126.960158,144.836322 126.90006,143.324937 C127.072471,139.431539 127.021774,135.531398 126.748219,131.643853 C126.751951,130.727735 126.533727,129.824468 126.112386,129.012033 C125.480042,128.160496 124.626293,127.500614 123.644976,127.104918 L110.871385,120.71608 C109.530952,119.896043 108.007111,119.427189 106.439537,119.352492 C104.703706,119.547959 103.093057,120.355459 101.893808,121.631496 C94.91863,128.182438 94.8806699,139.00532 93.931666,148.550434 C93.1345028,156.579391 91.2649652,164.703704 86.8615874,171.435822 C82.4582095,178.16794 75.17935,183.393437 67.1507775,183.736718 C62.1771856,184.012871 57.1952535,183.373003 52.4507079,181.848674 Z" id="Path" fill="#4A67C6" opacity="0.34"></path>
                <path d="M81,28.6518887 L81,76.0247064 C81,78.9671613 78.6373952,81.3524923 75.7229744,81.3524923 L41.2770256,81.3524923 C38.3626048,81.3524923 36,78.9671613 36,76.0247064 L36,28.6518887 C36.0205726,25.7226868 38.3756631,23.3576125 41.2770256,23.3524923 L75.7229744,23.3524923 C78.6243369,23.3576125 80.9794274,25.7226868 81,28.6518887 Z" id="Path" fill="#4A67C6"></path>
                <path d="M79.4553184,192.224286 C78.8636872,193.123354 78.023587,193.823505 77.0412741,194.236184 C76.0531687,194.451264 75.0248537,194.366791 74.0833542,193.993201 C66.7935687,191.757757 60.2112355,187.604088 55,181.950976 C55.6714735,180.432124 56.5517758,179.018364 57.6144195,177.752234 C61.002648,179.151482 64.6008252,179.950257 68.2533895,180.114027 C68.7507749,180.179903 69.2561133,180.091854 69.7037244,179.861325 C70.0072495,179.62397 70.2522753,179.31781 70.4193502,178.967148 C72.136852,175.993039 73.7271316,172.947656 75.1901887,169.830997 C77.0985241,165.70029 79.0068595,161.190531 82.8235304,158.770423 C83.1616751,158.515434 83.5672384,158.369829 83.987615,158.352492 C84.422958,158.409344 84.8333776,158.591403 85.1707829,158.877335 C88.0332861,160.821197 91.2392896,163.056638 92.556041,166.477835 C93.6915006,169.393628 92.4606242,171.259736 90.9816643,173.757598 C87.1936185,180.045991 84.0353234,186.441297 79.4553184,192.224286 Z" id="Path" fill="#4A67C6"></path>
                <path d="M93.6659237,219.352492 C91.0763249,218.613028 89.2842475,216.100743 88.5899348,213.465215 C87.8956221,210.829687 86.8260052,203.036865 86.9948921,200.334975 C87.802889,187.37434 87.4700628,174.366805 86.0003361,161.465672 C85.9158926,160.745167 101.772494,156.535906 103.264328,157.493418 C106.820335,159.768695 103.902345,170.822745 103.339389,174.387345 C101.172007,188.057963 98.0475998,206.260173 93.6659237,219.352492 Z" id="Path" fill="#4A67C6"></path>
                <rect id="Rectangle" fill="#4A67C6" x="98" y="35.3524923" width="80" height="5"></rect>
                <rect id="Rectangle" fill="#4A67C6" x="98" y="48.3524923" width="58" height="5"></rect>
                <rect id="Rectangle" fill="#4A67C6" x="98" y="60.3524923" width="80" height="5"></rect>
                <rect id="Rectangle" fill="#4A67C6" x="98" y="74.3524923" width="72" height="5"></rect>
                <rect id="Rectangle" fill="#4A67C6" x="36" y="91.3524923" width="142" height="5"></rect>
                <rect id="Rectangle" fill="#4A67C6" x="36" y="105.352492" width="111" height="5"></rect>
                <rect id="Rectangle" fill="#4A67C6" x="36" y="117.352492" width="142" height="5"></rect>
                <rect id="Rectangle" fill="#4A67C6" x="36" y="130.352492" width="125" height="5"></rect>
                <path d="M203,201.00294 L196.320611,204.352492 L148,127.303246 C150.862595,125.929071 152.332061,125.39467 154.679389,123.352492 L203,201.00294 Z" id="Path" fill="#4A67C6"></path>
                <path d="M203,201.001361 L196.315972,204.352492 L148,127.305109 C150.864583,125.939833 152.335069,125.395632 154.684028,123.352492 L203,201.001361 Z" id="Path" fill="url(#linearGradient-1)"></path>
                <path d="M133.5,62.3524923 C114.447413,62.3524923 99.0017505,77.7967369 99,96.849322 C98.9982495,115.901907 114.441074,131.348989 133.49366,131.352492 C152.546245,131.355992 167.994747,115.914588 168,96.8620037 C168,77.8066409 152.555362,62.3577446 133.5,62.3524923 Z M132.805624,125.055553 C121.409227,125.059399 111.132854,118.197337 106.768976,107.669544 C102.405097,97.1417509 104.813242,85.021826 112.870351,76.9619963 C120.92746,68.9021665 133.046571,66.4899299 143.575838,70.850253 C154.105104,75.210576 160.970637,85.4846311 160.970637,96.8810277 C160.970637,112.422833 148.385456,125.029316 132.843672,125.055553 L132.805624,125.055553 Z" id="Shape" fill="#4A67C6"></path>
                <path d="M133.5,62.3524923 C114.447413,62.3524923 99.0017505,77.7967369 99,96.849322 C98.9982495,115.901907 114.441074,131.348989 133.49366,131.352492 C152.546245,131.355992 167.994747,115.914588 168,96.8620037 C168,77.8066409 152.555362,62.3577446 133.5,62.3524923 Z M132.805624,125.055553 C121.409227,125.059399 111.132854,118.197337 106.768976,107.669544 C102.405097,97.1417509 104.813242,85.021826 112.870351,76.9619963 C120.92746,68.9021665 133.046571,66.4899299 143.575838,70.850253 C154.105104,75.210576 160.970637,85.4846311 160.970637,96.8810277 C160.970637,112.422833 148.385456,125.029316 132.843672,125.055553 L132.805624,125.055553 Z" id="Shape" fill="url(#linearGradient-2)"></path>
                <path d="M161,96.3426318 C161.003822,107.669129 154.183342,117.882294 143.719755,122.218523 C133.256167,126.554752 121.210752,124.159827 113.201709,116.150784 C105.192665,108.14174 102.79774,96.0963254 107.133969,85.6327378 C111.470198,75.1691503 121.683364,68.3486707 133.009861,68.3524923 C148.466225,68.3577113 160.994781,80.8862671 161,96.3426318 L161,96.3426318 Z" id="Path" fill="#FFFFFF" opacity="0.53"></path>
                <path d="M214.318085,146.903742 C213.879297,147.005148 213.320839,147.069679 213.131363,147.42921 C213.009406,147.677275 212.971177,147.953565 213.021666,148.22202 L213.500344,153.33841 C213.514522,154.158811 213.729305,154.965616 214.128608,155.698403 C214.996211,157.025899 216.871033,157.385429 218.536432,157.542148 C220.201832,157.698866 222.066681,157.95699 223.123761,159.164643 C223.69219,159.809953 223.981391,160.704169 224.759243,161.119012 C225.485621,161.394696 226.293325,161.427301 227.042935,161.211199 C227.562242,161.168109 228.055581,160.981834 228.459023,160.676513 C228.958436,160.052612 229.001741,159.211935 228.56872,158.546988 C228.142721,157.927731 227.772494,157.277158 227.461778,156.601838 C227.052907,155.182155 227.9604,153.77169 228.459023,152.388882 C229.605564,149.527379 228.898405,146.312408 226.634064,144.092032 C224.673461,142.397464 221.835481,141.892121 219.334228,142.792192 C217.060509,143.594221 216.910922,146.332182 214.318085,146.903742 Z" id="Path" fill="url(#linearGradient-3)"></path>
                <path d="M218.260009,138.234787 C218.111064,138.078355 217.892406,137.995049 217.668158,138.009297 C217.443911,138.023546 217.23949,138.133735 217.114844,138.307551 C217.020266,138.491415 216.98297,138.696212 217.007179,138.898757 C217.131903,140.246352 217.816481,141.495837 218.915788,142.382329 C220.009645,143.255629 221.200711,144.017906 222.468735,144.6562 C223.278359,145.035159 223.974421,145.594497 224.494796,146.284292 C225.044703,147.416199 225.114614,148.699276 224.690551,149.877009 C224.622037,150.15897 224.582886,150.531884 224.86673,150.668317 C225.150575,150.804749 225.56166,150.450025 225.953169,150.377261 C226.412892,150.35625 226.807375,150.67852 226.843853,151.1049 C226.857497,151.522788 226.719612,151.932811 226.452343,152.269122 C226.248309,152.643747 225.936638,152.95856 225.551872,153.178671 C225.414844,153.233244 225.25824,153.296912 225.228877,153.433345 C225.199513,153.569777 225.316966,153.660732 225.414844,153.742591 C225.874867,154.133697 226.344678,154.515708 226.824277,154.879527 C227.092976,155.123722 227.433613,155.288325 227.803051,155.352492 C228.358121,155.302111 228.863712,155.034108 229.192909,154.615758 L232.25647,151.632438 C232.560431,151.385028 232.795493,151.072975 232.941612,150.72289 C233.019463,150.408658 233.019463,150.082095 232.941612,149.767864 C232.847997,148.785035 232.24057,147.907731 231.316848,147.421228 C232.025552,146.671457 232.378484,145.687547 232.295621,144.692582 C232.244554,143.04105 231.43598,141.488626 230.073805,140.426799 C228.739995,139.57555 227.304712,138.870513 225.796565,138.325742 C224.068854,137.522015 222.528849,136.409291 221.264844,135.051366 C221.054843,134.764928 220.76346,134.538233 220.423099,134.396491 C219.689019,134.169104 218.886424,134.869457 218.553641,135.433377 C218.165987,136.321074 218.063982,137.294259 218.260009,138.234787 Z" id="Path" fill="#FE9F24"></path>
                <path d="M210.843441,173.162183 C210.192165,173.658001 209.453324,174.027699 208.665244,174.252099 C207.807681,174.382738 206.933615,174.360075 206.084032,174.185174 C199.779736,173.229108 193.513821,171.967099 187.324671,170.418271 C186.847069,170.22053 186.304254,170.255879 185.856548,170.513878 C185.637665,170.751873 185.491233,171.046987 185.434342,171.364777 L184.15813,176.145111 C183.95502,176.526062 183.947152,176.980854 184.136964,177.368554 C184.326776,177.756253 184.691342,178.030031 185.117688,178.105048 C190.561581,180.558953 196.031062,182.945933 201.526131,185.265988 C203.286142,186.145931 205.203916,186.669126 207.168333,186.805256 C208.69034,186.743744 210.190186,186.420283 211.601491,185.849189 C216.461082,184.115164 221.051287,181.707719 225.236812,178.697809 L237.50956,190.897221 C239.601397,192.981447 241.981101,195.189961 244.93654,195.352492 C246.66903,195.327856 248.375217,194.926517 249.935838,194.17653 C253.454217,192.79342 256.953406,191.362507 260.433403,189.88379 C261.040878,189.712745 261.561539,189.320257 261.891932,188.784314 C262.036023,188.35624 262.036023,187.893016 261.891932,187.464942 C261.381025,185.840758 260.482096,184.364398 259.272338,183.162641 C252.565696,175.453683 245.007783,168.523008 236.741914,162.502038 C235.101069,161.306955 233.095593,159.825052 231.051734,159.413943 C229.314934,159.060198 227.271075,160.312646 225.78376,161.153984 C222.242991,163.171285 219.268361,166.020364 216.236157,168.697351 C214.529897,170.291832 212.729085,171.782792 210.843441,173.162183 Z" id="Path" fill="#4A67C6"></path>
                <path d="M211.372038,255.892523 C210.929079,256.611255 210.878481,257.503411 211.237362,258.267199 C211.652041,258.714476 212.223986,258.985411 212.83423,259.023648 C214.997971,259.398323 217.20541,259.453174 219.385237,259.186428 C221.376512,252.972055 225.003134,247.418379 228.581657,241.95088 C233.968681,233.703351 239.358912,225.465397 244.75235,217.237018 C250.976287,207.719165 257.257942,198.086409 261,187.352492 C260.778747,187.994038 251.726622,189.80377 250.514542,190.225084 C247.830649,191.182614 244.12707,192.264624 241.779867,193.940302 C236.739151,197.559767 233.631992,206.637156 230.880762,212.056778 C223.646758,226.352708 217.509398,241.127403 211.372038,255.892523 Z" id="Path" fill="#3E3E54"></path>
                <path d="M211.372038,255.892523 C210.929079,256.611255 210.878481,257.503411 211.237362,258.267199 C211.652041,258.714476 212.223986,258.985411 212.83423,259.023648 C214.997971,259.398323 217.20541,259.453174 219.385237,259.186428 C221.376512,252.972055 225.003134,247.418379 228.581657,241.95088 C233.968681,233.703351 239.358912,225.465397 244.75235,217.237018 C250.976287,207.719165 257.257942,198.086409 261,187.352492 C260.778747,187.994038 251.726622,189.80377 250.514542,190.225084 C247.830649,191.182614 244.12707,192.264624 241.779867,193.940302 C236.739151,197.559767 233.631992,206.637156 230.880762,212.056778 C223.646758,226.352708 217.509398,241.127403 211.372038,255.892523 Z" id="Path" fill="url(#linearGradient-4)"></path>
                <path d="M245.431431,222.792471 C245.409732,225.45645 246.76197,227.945604 249.013951,229.387054 C257.893621,236.801195 267.30971,243.557784 276.716221,250.352492 C279.289742,249.392406 281.490157,247.643783 283,245.358906 C275.707987,240.234128 268.843194,234.53275 262.47235,228.310193 C260.9493,226.871202 259.349618,225.270204 259.033514,223.21178 C258.774882,221.534545 259.42625,219.866839 259.991407,218.256312 C262.012561,212.262103 262.750139,205.934353 263.478138,199.654251 C263.880453,196.175894 264.244452,192.478353 262.683086,189.343067 C262.414966,188.718561 261.981215,188.178333 261.428246,187.780189 C260.374564,187.113107 259.004777,187.351351 257.797831,187.656302 C254.04043,188.525275 250.383985,189.780415 246.887429,191.401492 C244.013749,192.821424 243.946697,194.050761 244.013749,197.119339 C244.138275,205.65799 244.492696,214.22523 245.431431,222.792471 Z" id="Path" fill="#3E3E54"></path>
                <path d="M212.126736,258.352492 C209.698088,259.052786 207.762911,260.794057 205.914817,262.478547 C205.334263,263.008499 204.705331,263.831818 205.150421,264.475331 C205.448928,264.804045 205.871977,264.998957 206.321204,265.014746 C208.390007,265.344004 210.491351,265.432947 212.581503,265.279722 C213.8396,265.238168 215.071106,264.914388 216.180933,264.333379 C217.302836,263.734265 218.000541,262.583647 218,261.333472 C217.813771,259.995811 216.80045,258.910532 215.455241,258.608005 C214.127482,258.3404 212.746193,258.520528 211.536507,259.11903" id="Path" fill="#3E3E54"></path>
                <path d="M274.489954,251.400749 C273.593176,252.373129 272.615689,253.811012 273.153755,255.114416 C273.596569,255.942334 274.402188,256.416953 275.243247,256.345408 C276.564326,256.195693 277.831665,255.665711 278.929002,254.804081 C281.619335,253.055865 284.471087,251.442126 287,249.414609 C283.97786,241.180406 278.29229,247.356058 274.489954,251.400749 Z" id="Path" fill="#3E3E54"></path>
                <path d="M177.298931,165.038408 C177.02523,164.790944 176.716351,164.591399 176.383853,164.44724 C175.909337,164.275018 175.38724,164.339785 174.962561,164.623553 C174.19253,165.26139 173.842546,166.319196 174.066953,167.330481 C174.203241,168.367618 174.631575,169.280298 174.816538,170.27595 C174.853255,171.278821 175.117108,172.257351 175.585593,173.128076 C176.345197,173.844221 177.337113,174.216323 178.350297,174.165213 C180.540643,174.372641 184.911601,175.109008 183.83103,171.053803 C183.188529,168.647645 179.070678,166.4904 177.298931,165.038408 Z" id="Path" fill="url(#linearGradient-5)"></path>
                <path d="M73.6861125,82.3524923 L42.6056905,82.3524923 C42.6056905,82.3524923 42.6056905,82.3524923 42.6056905,82.3524923 C40.7538472,79.9342795 43.6461592,70.7604243 44.6484455,68.3614036 C45.0779968,67.3346227 51.6453587,57.8057125 51.9985453,58.4582461 C49.9748814,54.9556759 47.8748529,51.2132036 47.9989455,47.1540606 C48.1421293,42.0777328 52.027182,37.5579778 56.8190653,35.9362398 C62.0786821,34.1897527 68.8846836,36.4352361 70.574252,41.6938895 C71.0828743,43.5387725 71.1547943,45.4777396 70.7842549,47.3555783 C70.0153921,51.9646235 67.8521831,56.2234584 64.5891708,59.5521996 C69.5528745,61.1163611 71.815178,66.787646 73.0847407,71.8543777 C73.7815683,74.7427987 74.3924857,79.4544753 73.6861125,82.3524923 Z" id="Path" fill="url(#linearGradient-6)"></path>
                <path d="M108.96091,108.87323 C108.96091,109.954982 108.873607,111.169581 107.990881,111.87177 C107.216365,112.426911 106.188142,112.507671 105.333001,112.08053 C104.498957,111.651775 103.790998,111.0213 103.27654,110.249143 C102.637442,109.409799 102.109437,108.494752 101.705093,107.525785 C101.168381,106.235983 100.933074,104.845162 101.016372,103.454982 C101.046579,102.74402 101.224823,102.046572 101.540188,101.405347 C102.307589,100.086 103.76307,99.2954143 105.313601,99.3557115 C106.855947,99.4126458 109.028812,100.399507 108.999711,102.079069 C108.999711,104.337464 108.99001,106.605347 108.96091,108.87323 Z" id="Path" fill="url(#linearGradient-7)"></path>
                <path d="M105.514162,116.352492 C105.314458,117.020067 105.209851,117.910165 105.808964,118.239115 C106.069124,118.354162 106.354459,118.397539 106.636311,118.36489 C108.226781,118.263484 109.784024,118.858478 110.915692,119.999963 C111.723607,121.024179 112.198805,122.278458 112.275584,123.589383 C112.39921,124.876157 112.351662,126.18228 112.532347,127.459378 C112.817639,129.394376 117.287214,132.596797 117.610545,131.716373 C118.352036,129.586916 118.580324,127.307502 118.276226,125.069656 C118.171619,124.295657 118.095541,123.337834 118.732694,122.931484 C119.108784,122.747503 119.537123,122.706326 119.94043,122.815384 C121.18495,123.011681 122.389554,123.413657 123.50658,124.005408 C123.050113,125.147056 125.161274,135.305793 124.990099,137.80194 C124.324418,147.631728 112.40872,139.736938 110.383147,138.604964 C109.822072,138.30504 109.203939,137.70519 109.432173,137.115016 C108.947177,140.801187 108.281495,144.729232 107.796499,148.415402 C107.37807,151.569448 106.902584,154.878294 105.057695,157.451841 C103.541466,159.386926 101.540919,160.870798 99.2662666,161.747535 C94.2070878,163.924407 88.0257602,164.108232 83.5276557,160.915486 C82.5998638,160.329174 81.8546099,159.487097 81.3784557,158.487064 C81.0502401,157.504716 80.9334844,156.462052 81.0361052,155.429768 C81.2487962,148.841541 82.0895958,142.289875 83.5466752,135.866943 C84.6783336,130.855299 86.3995956,125.640481 90.2510382,122.32196 C93.9217957,119.206614 100.740276,116.903967 105.514162,116.352492 Z" id="Path" fill="#FFFFFF"></path>
                <path d="M101.157899,89.3524923 C97.994366,89.3323662 94.9671225,90.6190042 92.8125073,92.8996859 C90.6940938,95.1751895 89.0819161,97.8613476 88.0793001,100.786002 C87.121161,103.333018 86.3354869,106.021534 84.6874877,108.210081 C82.464605,111.172166 78.9386531,112.832443 75.7767941,114.813456 C72.614935,116.794468 69.5105643,119.530152 69.0698204,123.228042 C68.8302856,125.265654 69.4818202,127.331567 69.232704,129.359746 C68.9260995,131.831295 67.3164258,134.340577 68.3320533,136.632892 C68.7255383,137.459538 69.337819,138.166633 70.1046106,138.679938 C73.2984814,140.910011 77.574828,140.910011 80.7686988,138.679938 C84.0646973,136.264989 85.3294409,131.916196 88.3763232,129.199379 C91.7202287,126.218427 96.6163195,125.661857 100.391388,123.246908 C104.475622,120.587093 106.874328,116.038589 106.734268,111.219333 C106.667199,109.474156 106.255199,107.691245 106.734268,106.012101 C107.213338,104.332957 108.430175,103.106616 108.842174,101.493506 C109.35957,99.5124938 108.497244,95.8334708 107.807384,93.8901921 C106.906733,91.1922419 103.936502,89.4942313 101.157899,89.3524923 Z" id="Path" fill="#FE9F24"></path>
                <path d="M118.697095,120.457241 C118.392729,120.078677 118.16722,119.645906 118.033226,119.183216 C117.898619,118.699629 118.184814,118.199794 118.678128,118.056904 C118.904488,118.0633 119.130762,118.041583 119.351481,117.99228 C119.472087,117.934744 119.578763,117.852927 119.664448,117.752246 C120.054933,117.42249 120.579717,117.286263 121.087025,117.382963 C121.597822,117.497069 122.023245,117.839325 122.234571,118.30617 C122.530083,118.268032 122.823748,118.388027 123.002762,118.62006 C123.173259,118.849278 123.283923,119.115426 123.325213,119.395553 C123.341369,119.566666 123.399949,119.731404 123.495922,119.875621 C123.581277,119.986405 123.714051,120.041798 123.808889,120.14335 C123.990999,120.416467 124.04611,120.751763 123.960631,121.066557 L123.704567,122.977594 C123.700336,123.051359 123.680988,123.123554 123.647664,123.189931 C123.51489,123.411501 123.173472,123.36534 122.917408,123.291484 C122.239698,123.106911 121.543189,122.995456 120.840445,122.95913 C119.180772,122.885273 119.436836,121.648177 118.697095,120.457241 Z" id="Path" fill="url(#linearGradient-8)"></path>
                <path d="M87.3195232,222.560516 C87.2894733,222.990177 87.3479292,223.421635 87.4908179,223.824828 C87.9571199,224.937424 89.3940914,225.210515 90.6692846,225.281317 C93.1471898,225.414669 95.6308802,225.360589 98.1015677,225.119485 C98.6715102,225.124683 99.2270175,224.929061 99.6812847,224.563187 C100.153286,223.959618 100.094569,223.068078 99.5480556,222.540286 C98.9905537,222.002785 98.3224636,221.611374 97.5972002,221.397348 C96.8706381,221.185 96.1955629,220.809 95.6177958,220.294867 C95.036333,219.606065 94.7352272,218.700522 94.7803554,217.776356 C94.7803554,216.866051 94.8945518,215.96586 94.7803554,215.065669 C94.7813267,214.905686 94.7150171,214.753604 94.5995444,214.650975 C94.4923286,214.587471 94.3697612,214.559304 94.2474388,214.570059 C92.6582055,214.519486 88.737462,213.821585 87.5859815,215.227501 C86.4345011,216.633417 87.338556,220.84105 87.3195232,222.560516 Z" id="Path" fill="#3E3E54"></path>
                <path d="M52.7848139,172.806324 C52.390519,172.559813 51.9400975,172.404332 51.4700873,172.352492 C50.8205798,172.403127 50.2084989,172.659779 49.7338452,173.080514 C47.5685841,174.668689 45.6996507,176.585958 44.2039644,178.753413 C43.3810057,179.925812 42.6282996,181.466949 43.2003563,182.809535 C45.3781859,183.272822 47.6965207,183.755018 49.7539174,182.809535 C50.4354128,182.423269 51.1427665,182.079022 51.8715305,181.778958 C52.7464863,181.516758 53.698427,181.616403 54.4909478,182.053148 C55.2436539,182.459706 55.9562156,183.178273 56.7892104,183.07427 C57.3234466,182.946571 57.792633,182.645198 58.1139731,182.223335 C59.2982307,180.880749 60.7233543,178.072665 59.579241,176.39916 C58.4351277,174.725655 54.4206952,173.666714 52.7848139,172.806324 Z" id="Path" fill="#3E3E54"></path>
                <polygon id="Path" fill="#4A67C6" points="74.8304072 225.776006 101 225.352492 101 281.352492 22 281.352492 22 260.099828 39.8958791 260.099828 39.8958791 246.268271 64.5340161 246.268271 64.5340161 225.689378"></polygon>
            </g>
        </g>
    </g>
</svg>