<?xml version="1.0" encoding="UTF-8"?>
<svg width="320px" height="305px" viewBox="0 0 320 305" version="1.1" xmlns="http://www.w3.org/2000/svg" xmlns:xlink="http://www.w3.org/1999/xlink">
    <title>Profiling_Monochromatic</title>
    <defs>
        <linearGradient x1="9.81151693%" y1="-50.9111519%" x2="110.020609%" y2="199.194492%" id="linearGradient-1">
            <stop stop-color="#000000" offset="1%"></stop>
            <stop stop-color="#000000" stop-opacity="0.69" offset="13%"></stop>
            <stop stop-color="#000000" stop-opacity="0.32" offset="25%"></stop>
            <stop stop-color="#000000" stop-opacity="0" offset="100%"></stop>
        </linearGradient>
        <linearGradient x1="64.3962%" y1="34.4728351%" x2="-10.7621091%" y2="115.535592%" id="linearGradient-2">
            <stop stop-color="#000000" offset="1%"></stop>
            <stop stop-color="#000000" stop-opacity="0.69" offset="13%"></stop>
            <stop stop-color="#000000" stop-opacity="0.32" offset="25%"></stop>
            <stop stop-color="#000000" stop-opacity="0" offset="100%"></stop>
        </linearGradient>
        <linearGradient x1="76.7912715%" y1="15.0265013%" x2="8.62587228%" y2="99.6706403%" id="linearGradient-3">
            <stop stop-color="#000000" offset="1%"></stop>
            <stop stop-color="#000000" stop-opacity="0.69" offset="13%"></stop>
            <stop stop-color="#000000" stop-opacity="0.32" offset="25%"></stop>
            <stop stop-color="#000000" stop-opacity="0" offset="100%"></stop>
        </linearGradient>
        <linearGradient x1="260.773237%" y1="28.1213548%" x2="-175.344602%" y2="79.1617495%" id="linearGradient-4">
            <stop stop-color="#000000" offset="1%"></stop>
            <stop stop-color="#000000" stop-opacity="0.69" offset="13%"></stop>
            <stop stop-color="#000000" stop-opacity="0.32" offset="25%"></stop>
            <stop stop-color="#000000" stop-opacity="0" offset="100%"></stop>
        </linearGradient>
        <linearGradient x1="5.1289548%" y1="8.40951552%" x2="462.903479%" y2="421.034883%" id="linearGradient-5">
            <stop stop-color="#FFFFFF" offset="1%"></stop>
            <stop stop-color="#FFFFFF" stop-opacity="0.69" offset="13%"></stop>
            <stop stop-color="#FFFFFF" stop-opacity="0.61" offset="15%"></stop>
            <stop stop-color="#FFFFFF" stop-opacity="0.47" offset="20%"></stop>
            <stop stop-color="#FFFFFF" stop-opacity="0.34" offset="25%"></stop>
            <stop stop-color="#FFFFFF" stop-opacity="0.23" offset="30%"></stop>
            <stop stop-color="#FFFFFF" stop-opacity="0.15" offset="36%"></stop>
            <stop stop-color="#FFFFFF" stop-opacity="0.08" offset="44%"></stop>
            <stop stop-color="#FFFFFF" stop-opacity="0.03" offset="52%"></stop>
            <stop stop-color="#FFFFFF" stop-opacity="0.01" offset="65%"></stop>
            <stop stop-color="#FFFFFF" stop-opacity="0" offset="100%"></stop>
        </linearGradient>
        <linearGradient x1="5.29909281%" y1="8.39151749%" x2="461.213865%" y2="420.964648%" id="linearGradient-6">
            <stop stop-color="#FFFFFF" offset="1%"></stop>
            <stop stop-color="#FFFFFF" stop-opacity="0.69" offset="13%"></stop>
            <stop stop-color="#FFFFFF" stop-opacity="0.61" offset="15%"></stop>
            <stop stop-color="#FFFFFF" stop-opacity="0.47" offset="20%"></stop>
            <stop stop-color="#FFFFFF" stop-opacity="0.34" offset="25%"></stop>
            <stop stop-color="#FFFFFF" stop-opacity="0.23" offset="30%"></stop>
            <stop stop-color="#FFFFFF" stop-opacity="0.15" offset="36%"></stop>
            <stop stop-color="#FFFFFF" stop-opacity="0.08" offset="44%"></stop>
            <stop stop-color="#FFFFFF" stop-opacity="0.03" offset="52%"></stop>
            <stop stop-color="#FFFFFF" stop-opacity="0.01" offset="65%"></stop>
            <stop stop-color="#FFFFFF" stop-opacity="0" offset="100%"></stop>
        </linearGradient>
        <linearGradient x1="5.15580046%" y1="8.4337216%" x2="462.930325%" y2="421.059089%" id="linearGradient-7">
            <stop stop-color="#FFFFFF" offset="1%"></stop>
            <stop stop-color="#FFFFFF" stop-opacity="0.69" offset="13%"></stop>
            <stop stop-color="#FFFFFF" stop-opacity="0.61" offset="15%"></stop>
            <stop stop-color="#FFFFFF" stop-opacity="0.47" offset="20%"></stop>
            <stop stop-color="#FFFFFF" stop-opacity="0.34" offset="25%"></stop>
            <stop stop-color="#FFFFFF" stop-opacity="0.23" offset="30%"></stop>
            <stop stop-color="#FFFFFF" stop-opacity="0.15" offset="36%"></stop>
            <stop stop-color="#FFFFFF" stop-opacity="0.08" offset="44%"></stop>
            <stop stop-color="#FFFFFF" stop-opacity="0.03" offset="52%"></stop>
            <stop stop-color="#FFFFFF" stop-opacity="0.01" offset="65%"></stop>
            <stop stop-color="#FFFFFF" stop-opacity="0" offset="100%"></stop>
        </linearGradient>
    </defs>
    <g id="Page-1" stroke="none" stroke-width="1" fill="none" fill-rule="evenodd">
        <g id="Home-desktop" transform="translate(-970.000000, -146.000000)" fill-rule="nonzero">
            <g id="Profiling_Monochromatic" transform="translate(970.000000, 146.838762)">
                <path d="M116.223766,292.320003 C115.494668,292.320003 114.661413,292.424375 113.932315,292.528747 C98.829573,293.676837 83.5185172,295.138043 68.6240888,293.25935 C65.186913,292.841862 61.7497372,292.215631 58.4167183,291.485029 C56.646052,291.067541 54.9795425,290.545682 53.2088762,290.023823 C51.6465236,241.386548 93.4134172,176.884754 98.5171024,169.161238 L114.140629,169.787469 L163.510972,171.874905 C118.931843,214.354242 114.661413,265.496442 116.223766,292.320003 Z" id="Path" fill="#4F70C0"></path>
                <path d="M116.223766,292.320003 C115.494668,292.320003 114.661413,292.424375 113.932315,292.528747 C98.829573,293.676837 83.5185172,295.138043 68.6240888,293.25935 C65.186913,292.841862 61.7497372,292.215631 58.4167183,291.485029 C56.646052,291.067541 54.9795425,290.545682 53.2088762,290.023823 C51.6465236,241.386548 93.4134172,176.884754 98.5171024,169.161238 L114.140629,169.787469 L163.510972,171.874905 C118.931843,214.354242 114.661413,265.496442 116.223766,292.320003 Z" id="Path" fill="url(#linearGradient-1)"></path>
                <path d="M115.360502,168.161238 C114.841661,168.578949 114.32282,169.101087 113.907748,169.623226 C68.2497635,214.422725 66.3819369,268.098581 68.561068,293.161238 C65.1367192,292.743527 61.7123703,292.11696 58.3917897,291.385966 C56.6277312,290.968255 54.9674409,290.446117 53.2033824,289.923978 C51.7506284,241.260653 93.2578866,176.724312 98.3425257,168.99666 L98.8613664,168.265666 L115.360502,168.161238 L115.360502,168.161238 Z" id="Path" fill="#4F70C0"></path>
                <path d="M230.117195,64.9636987 C228.225645,68.3850989 228.856162,72.4285718 228.015473,76.2646871 C227.8053,77.301475 227.490042,78.338263 227.069697,79.3750509 C225.598491,83.5222026 223.812027,87.6693543 220.344184,90.3650029 C219.293323,90.9870757 218.347548,91.816506 217.822117,92.9569727 C217.506859,94.0974395 217.717031,95.341585 218.452634,96.2746941 C219.188237,97.2078032 220.028926,97.9335548 220.974701,98.5556275 C220.764529,100.525525 220.869615,102.806458 220.659443,104.776355 C220.239098,109.130864 219.92384,114.003768 222.866252,117.21781 C225.178147,119.706101 228.751076,120.63921 232.008746,121.053926 C235.371502,121.468641 238.944431,121.675998 241.886843,123.334859 C248.192011,126.859938 249.978476,135.672635 256.283644,139.197714 C258.175194,140.130823 260.171831,140.752896 262.37864,140.960254 C266.897344,141.582327 271.416048,140.752896 275.304235,138.575642 C279.192422,136.294708 291.697673,132.562272 288.334916,129.762944 C284.656901,126.65258 278.877164,117.839883 276.25001,113.070659 C273.307598,107.886719 271.310962,102.184385 270.2601,96.2746941 C269.419411,91.2981121 269.419411,86.32153 268.578722,81.4486267 C267.843119,76.4720447 266.266827,71.4954626 263.114243,67.6593473 C258.280281,61.9570137 250.39882,59.6760803 242.832618,59.2613651 C240.730895,59.0540075 238.629173,59.1576863 236.52745,59.6760803 C234.425727,60.1944742 232.744349,61.5422985 231.693487,63.4085168" id="Path" fill="#F9BA9F"></path>
                <path d="M303.95189,88.0306872 C303.639975,90.6362192 302.912174,93.2417511 301.768486,95.6388405 C301.144656,97.306381 300.208911,98.7654789 299.065223,100.016134 C296.777847,101.996339 296.673875,105.435641 295.322244,108.145394 C294.3865,109.812934 293.034868,111.376254 291.475294,112.418466 C285.029052,117.212645 276.503378,118.4633 268.913449,115.753547 L267.769761,115.336662 C264.442668,113.773343 261.219548,111.89736 258.308342,109.604492 C258.100399,109.500271 257.996427,109.291828 257.892455,109.083385 C257.684512,108.562279 258.100399,108.145394 258.516285,107.728509 C260.907633,105.227198 262.259264,101.892117 262.259264,98.3485938 C262.363236,96.8894959 261.843378,95.430398 261.011605,94.2839639 C260.07586,93.1375298 258.412314,92.7206447 257.060682,93.4501937 C255.916994,94.0755214 254.773306,95.6388405 253.837562,94.8050703 C253.525647,94.4924065 253.421675,94.0755214 253.317704,93.6586362 C253.005789,91.1573256 252.277987,88.6560149 251.342242,86.2589255 C249.990611,83.9660574 248.327065,81.8816318 246.455576,80.1098701 C241.984795,75.21147 238.44976,69.5835209 235.95444,63.5386868 C235.850469,63.0175804 235.434582,62.496474 235.018696,62.1838102 C234.602809,61.9753676 234.082951,61.9753676 233.667064,61.9753676 C231.587632,62.0795889 229.508199,62.0795889 227.428766,61.8711463 C226.38905,61.8711463 225.349334,61.5584825 224.51756,60.8289336 C223.061958,59.4740569 223.789759,57.0769675 224.829475,55.5136484 C227.428766,51.8659036 231.691603,49.9899206 235.850469,48.2181589 C234.810752,47.4886099 233.147206,46.029512 232.10749,45.2999631 C231.691603,45.0915205 231.48366,44.7788567 231.275717,44.4661929 C231.067774,43.7366439 231.691603,43.1113162 232.419405,42.6944311 C233.563093,42.0691035 234.914724,41.8606609 236.266355,42.0691035 C236.058412,38.9424651 232.73132,36.0242693 233.978979,33.1060735 C234.810752,31.2300905 237.410043,30.7089841 239.385504,31.2300905 C241.360965,31.7511969 243.128483,33.0018522 245.103944,33.6271799 C245.519831,32.2723033 244.272171,30.8132054 244.584086,29.3541075 C244.792029,28.3118947 245.623802,27.4781245 246.663519,27.2696819 C247.703235,27.0612394 248.742952,27.1654607 249.782668,27.4781245 C252.174016,28.1034522 254.35742,29.2498862 256.228909,30.9174267 C257.372597,32.0638607 258.516285,33.1060735 259.867917,33.9398438 C262.571179,35.2947204 265.690328,34.5651714 268.705506,34.5651714 C272.240541,34.6693927 275.671605,35.5031629 278.894726,36.8580395 C281.07813,37.6918098 283.157563,38.6298013 285.236996,39.6720141 C287.940258,41.0268907 290.539549,42.6944311 292.826925,44.7788567 C298.649337,49.8856993 302.288344,57.1811888 303.847918,64.7893421 C305.303521,72.5017167 305.303521,80.3183126 303.95189,88.0306872 Z" id="Path" fill="#FE9F24"></path>
                <polygon id="Path" fill="#4F70C0" points="37.1159875 52.2109067 42.9696858 46.1612378 181.472371 52.2109067 213.667712 166.111569 207.918544 172.161238 63.2485695 172.161238"></polygon>
                <polygon id="Path" fill="url(#linearGradient-2)" points="37.1159875 52.2109067 42.9696858 46.1612378 181.472371 52.2109067 213.667712 166.111569 207.918544 172.161238 63.2485695 172.161238"></polygon>
                <polygon id="Path" fill="#4F70C0" points="43.1347962 46.1612378 187.351548 46.1612378 213.667712 166.161238 69.2421011 166.161238"></polygon>
                <polygon id="Path" fill="#FFFFFF" points="49.153605 50.1612378 184.025144 50.1612378 208.652038 162.161238 73.5709078 162.161238"></polygon>
                <path d="M154.439231,208.038117 C154.229188,209.702481 153.178977,211.054777 151.708681,211.782936 C149.608258,213.031209 146.98273,213.031209 144.567244,213.135232 C142.886906,213.239255 141.101547,213.031209 139.52623,212.511096 C138.160955,211.782936 136.900702,210.846731 135.85049,209.702481 C129.864286,203.98123 121.987701,199.716297 118.942088,192.122636 C117.471792,188.377816 117.471792,184.320929 117.366771,180.368064 C117.366771,176.207154 117.366771,171.52613 120.202342,168.405447 C122.407785,165.908901 125.978504,164.660628 127.4488,161.643968 C125.033314,160.291673 122.82787,158.627308 121.042511,156.650876 C119.15213,154.570421 118.311961,151.865829 118.732046,149.161238 C122.092722,150.305488 125.243356,151.761807 128.183948,153.530193 C139.211166,160.291673 146.98273,171.110039 149.71328,183.59277 C150.868512,189.105976 150.973533,194.723204 152.443829,200.132388 C153.283998,202.628934 154.754294,205.541571 154.439231,208.038117 Z" id="Path" fill="#F9BA9F"></path>
                <path d="M154.439329,207.668236 C153.916476,207.875487 153.393623,208.289989 152.975341,208.704491 C151.406782,210.984251 147.642241,210.362499 145.6554,208.393615 C143.668559,206.424731 142.936565,203.626843 141.681718,201.139831 C138.335459,194.922303 131.22466,190.362782 131.22466,183.31625 C131.22466,177.927726 135.825765,173.160954 135.407483,167.772429 C135.198342,164.974542 133.629783,162.694781 131.956654,160.518646 C130.388095,158.238886 129.237819,155.751875 128.401254,153.161238 C139.381165,159.896893 147.119388,170.673943 149.838224,183.108999 C150.9885,188.601149 151.093071,194.196925 152.557059,199.585449 C153.289053,202.279712 154.753041,205.181225 154.439329,207.668236 Z" id="Path" fill="url(#linearGradient-3)"></path>
                <path d="M300.640566,280.974218 C299.278227,287.943188 297.077526,295.224202 292.990509,300.840984 C292.361737,300.944998 291.837761,301.049013 291.208989,301.049013 C287.645949,301.46507 284.082909,301.777114 280.415073,301.985143 C266.477298,302.505215 252.644319,301.881128 238.811339,300.008868 C223.406431,298.136607 208.106317,295.432231 192.701408,293.351941 C193.434975,292.519825 194.273337,291.791724 195.1117,291.271651 C204.438481,284.406696 210.202223,273.797219 210.830995,262.251611 C209.887837,261.627524 208.839884,261.315481 207.791931,261.315481 C204.857663,261.003437 201.085032,261.627524 198.989126,261.419495 C181.173925,259.235191 136.426332,215.861153 136.426332,215.861153 L158.642936,204.835618 L191.75825,215.861153 C191.75825,215.861153 227.388652,160.31742 241.850403,144.403205 C256.312154,128.488989 282.406184,128.176946 282.406184,128.176946 C285.550043,128.072931 288.693902,128.488989 291.62817,129.321105 L291.62817,129.321105 C309.338576,134.521829 318.455767,155.844797 319.71331,173.839303 C322.228398,209.308241 307.557056,246.649439 300.640566,280.974218 Z" id="Path" fill="#FFFFFF"></path>
                <path d="M303.968909,88.9173357 C303.658588,91.5330062 302.934506,94.1486767 301.796664,96.5550935 C301.176022,98.2291226 300.24506,99.6938981 299.107217,100.94942 C296.831531,102.93733 296.728091,106.390015 295.383367,109.110312 C294.452405,110.784341 293.107682,112.353743 291.556078,113.400011 C285.142782,118.212845 276.66068,119.468367 269.109542,116.74807 L267.971699,116.329562 C267.454497,115.597175 267.144177,114.76016 266.833856,113.818519 L271.385227,113.609265 C271.281787,112.039863 270.661145,110.470461 269.626743,109.319566 L279.970769,109.110312 C282.867096,109.424192 285.659983,107.750163 286.694386,105.029866 C288.24599,102.623449 289.901034,99.9031518 289.590713,96.9736008 C289.280392,95.2995717 288.763191,93.6255426 287.832229,92.1607671 C285.556543,87.6618139 283.280857,83.0582338 282.660216,78.0361465 C282.039574,73.1186859 283.487738,67.4688377 287.418467,64.4346599 C288.24599,63.9115258 288.970071,63.2837649 289.590713,62.4467504 C290.107914,61.505109 290.314795,60.4588408 290.107914,59.4125726 C289.590713,54.5997389 285.866864,50.9378002 282.453335,47.589742 L274.798756,40.1612378 C275.626278,40.9982523 279.557008,41.1028792 280.798291,41.5213864 C282.970536,42.2537742 285.039342,43.0907887 287.108147,44.1370569 C286.797826,43.1954156 285.970304,41.8352669 285.246222,40.2658646 C287.935669,41.6260133 290.521675,43.3000424 292.797361,45.3925788 C298.590016,50.5192929 302.210425,57.8431703 303.762029,65.4809281 C305.313632,73.3279396 305.313632,81.1749511 303.968909,88.9173357 Z" id="Path" fill="#C27818"></path>
                <path d="M300.507196,281.416042 C299.14714,288.399621 296.950128,295.695897 292.869963,301.324454 C292.242245,301.428686 291.719147,301.532919 291.091429,301.532919 C275.189245,303.096407 260.228638,304.451429 244.431075,301.011756 C241.920203,300.490593 239.095473,299.448268 238.676995,296.946688 C238.572375,295.487432 238.990854,294.13241 239.723191,292.881619 C250.603633,271.097022 257.508528,245.768519 257.194669,221.273876 C251.33597,220.544249 244.012596,231.905594 239.723191,235.762197 L223.925627,250.042053 C217.020732,256.191771 209.17426,262.75842 199.967732,262.028793 C194.527512,261.611863 189.715009,258.693352 185.111745,255.879074 L168.791083,245.664287 C163.97858,242.641543 158.747599,239.20187 157.492163,233.677547 C165.129396,234.302942 171.825052,238.680708 178.729948,242.120381 C185.634843,245.560054 193.899794,248.061635 200.804689,244.726194 C205.721812,242.328846 208.96502,237.429917 211.89437,232.739454 C231.249001,202.199325 252.486786,172.909986 275.503104,144.97567 C281.047945,138.200556 281.989521,128.194234 291.719147,129.236559 L291.719147,129.236559 C309.399864,134.448185 318.501772,155.815852 319.757207,173.848079 C322.058839,209.599834 307.412091,247.019309 300.507196,281.416042 Z" id="Path" fill="url(#linearGradient-4)"></path>
                <g class="screen">
                <polygon id="Path" fill="#4F70C0" opacity="0.32" points="0 10.1612378 19.1384283 104.161238 76.2382445 104.161238 60.0441898 10.1612378"></polygon>
                <polygon id="Path" fill="#4F70C0" opacity="0.32" points="17.0532915 138.161238 36.1653583 232.161238 93.2915361 232.161238 77.1197872 138.161238"></polygon>
                <polygon id="Path" fill="#4F70C0" opacity="0.32" points="132.413793 10.1612378 151.52586 104.161238 208.652038 104.161238 192.480289 10.1612378"></polygon>
                <polygon id="Path" fill="url(#linearGradient-5)" points="138.432602 0.161237785 157.57103 94.1612378 214.670846 94.1612378 198.476792 0.161237785"></polygon>
                <polygon id="Path" fill="url(#linearGradient-6)" points="10.031348 12.1612378 26.9124947 95.1612378 77.2413793 95.1612378 62.9815287 12.1612378"></polygon>
                <polygon id="Path" fill="url(#linearGradient-7)" points="21.0658307 134.161238 40.204259 228.161238 97.3040752 228.161238 81.1100205 134.161238"></polygon>
                </g>
                <g id="Group" opacity="0.18" transform="translate(81.253918, 67.161238)" fill="#4F70C0">
                    <path d="M70.4042991,44.1915493 C69.044335,44.1915493 67.9982087,44.1915493 66.9520824,44.1915493 C65.9059561,44.1915493 64.8598298,44.1915493 63.4998657,44.1915493 C63.4998657,42.8366197 63.4998657,42.2112676 63.4998657,40.856338 C63.4998657,39.9183099 63.0814151,39.084507 62.4537394,38.4591549 C61.8260636,37.8338028 60.9891626,37.5211268 59.9430363,37.5211268 C58.3738468,37.5211268 57.1184953,37.5211268 55.8631438,37.5211268 C54.6077922,37.5211268 53.5616659,37.5211268 52.3063144,37.5211268 C51.0509628,37.5211268 49.7956113,37.5211268 48.2264219,37.5211268 C47.1802956,37.5211268 46.3433945,37.9380282 45.7157188,38.6676056 C44.0419167,38.3549296 42.6819525,38.1464789 41.3219884,37.9380282 C40.0666368,37.7295775 38.8112853,37.5211268 37.5559337,37.3126761 C36.3005822,37.1042254 34.8360054,36.8957746 33.1622033,36.5830986 C33.1622033,35.4366197 33.1622033,34.8112676 33.1622033,33.6647887 C34.3129422,33.0394366 35.3590685,32.1014085 36.1959695,31.1633803 C37.0328706,30.2253521 37.765159,28.9746479 38.1836095,27.7239437 C38.7066726,26.4732394 38.9158979,25.1183099 38.9158979,23.6591549 C39.3343484,23.6591549 39.6481863,23.6591549 40.0666368,23.6591549 C41.0081505,23.6591549 41.9496641,23.3464789 42.5773399,22.7211268 C43.2050157,22.0957746 43.6234662,21.2619718 43.6234662,20.3239437 C43.6234662,19.3859155 43.2050157,18.5521127 42.5773399,17.8225352 C41.9496641,17.1971831 41.1127631,16.7802817 40.0666368,16.7802817 C39.8574116,16.7802817 39.7527989,16.7802817 39.5435737,16.7802817 C39.7527989,16.1549296 39.9620242,15.9464789 40.1712494,15.3211268 C40.7989252,13.9661972 41.0081505,12.5070423 40.9035378,11.0478873 C40.7989252,9.58873239 40.3804747,8.12957746 39.5435737,6.87887324 C39.0205105,6.04507042 38.4974474,5.31549296 37.765159,4.69014085 C37.0328706,4.06478873 36.3005822,3.54366197 35.3590685,3.02253521 C34.103717,2.3971831 33.3714286,2.08450704 32.116077,1.45915493 C30.8607255,0.833802817 29.5007613,0.416901408 28.0361845,0.312676056 C26.6762203,0.208450704 25.2116435,0.312676056 23.956292,0.625352113 C22.5963278,0.938028169 21.3409763,1.56338028 20.1902373,2.3971831 C19.4579489,2.91830986 19.0394984,3.23098592 18.30721,3.75211268 L18.30721,3.75211268 C17.3656964,3.96056338 16.5287953,4.37746479 15.7965069,4.89859155 C15.0642185,5.41971831 14.4365428,6.14929577 13.9134796,6.98309859 C13.2858039,8.02535211 12.971966,9.27605634 12.8673533,10.4225352 C12.8673533,11.6732394 13.0765786,12.9239437 13.5996417,14.0704225 C14.0180923,15.0084507 14.3319301,15.5295775 14.7503807,16.4676056 C14.5411554,16.4676056 14.4365428,16.4676056 14.3319301,16.4676056 C13.3904165,16.4676056 12.4489028,16.7802817 11.821227,17.5098592 C11.1935513,18.1352113 10.7751008,19.0732394 10.7751008,20.0112676 C10.7751008,20.9492958 11.1935513,21.8873239 11.821227,22.5126761 C12.4489028,23.1380282 13.2858039,23.5549296 14.3319301,23.5549296 C14.7503807,23.5549296 15.0642185,23.5549296 15.4826691,23.5549296 C15.4826691,25.0140845 15.6918943,26.3690141 16.2149575,27.7239437 C16.7380206,28.9746479 17.3656964,30.2253521 18.2025974,31.2676056 C19.0394984,32.3098592 20.0856247,33.143662 21.2363636,33.8732394 C21.2363636,35.0197183 21.2363636,35.6450704 21.2363636,36.7915493 C19.3533363,37.1042254 17.7841469,37.4169014 16.3195701,37.6253521 C14.8549933,37.8338028 13.4950291,38.1464789 12.0304523,38.3549296 C10.5658755,38.5633803 8.99668607,38.8760563 7.11365876,39.1887324 C5.75369458,39.3971831 4.60295567,39.9183099 3.55682938,40.7521127 C2.51070309,41.4816901 1.77841469,42.5239437 1.15073892,43.6704225 C0.523063144,44.8169014 0.313837886,46.171831 0.313837886,47.5267606 C0.313837886,49.5070423 0.313837886,51.3830986 0.313837886,53.0507042 C0.313837886,54.7183099 0.313837886,56.2816901 0.313837886,57.8450704 C0.313837886,59.4084507 0.313837886,60.8676056 0.313837886,62.4309859 C0.313837886,63.9943662 0.313837886,65.5577465 0.313837886,67.2253521 C0.313837886,68.8929577 0.313837886,70.7690141 0.313837886,72.7492958 C0.313837886,73.3746479 0.83690103,73.8957746 1.4645768,73.8957746 C3.55682938,73.7915493 5.4398567,73.6873239 7.21827138,73.6873239 C8.99668607,73.5830986 10.7751008,73.5830986 12.3442902,73.4788732 C14.0180923,73.3746479 15.5872817,73.3746479 17.1564711,73.2704225 C18.7256605,73.1661972 20.29485,73.1661972 21.7594268,73.0619718 C23.3286162,72.9577465 24.8978056,72.9577465 26.5716077,72.8535211 C28.2454098,72.7492958 29.9192118,72.7492958 31.6976265,72.6450704 C33.4760412,72.5408451 35.4636811,72.5408451 37.4513211,72.4366197 C37.8697716,72.4366197 38.1836095,72.4366197 38.60206,72.4366197 C40.3804747,72.3323944 42.0542768,72.3323944 43.6234662,72.228169 C45.1926556,72.1239437 46.6572324,72.1239437 48.1218092,72.0197183 C49.586386,71.915493 50.9463502,71.915493 52.3063144,71.8112676 C53.6662785,71.7070423 55.0262427,71.7070423 56.3862069,71.6028169 C57.7461711,71.4985915 59.1061352,71.4985915 60.570712,71.3943662 C62.0352888,71.2901408 63.4998657,71.2901408 65.0690551,71.1859155 C66.6382445,71.0816901 68.3120466,71.0816901 70.0904613,70.9774648 C71.3458128,70.9774648 72.3919391,69.9352113 72.3919391,68.684507 C72.3919391,66.9126761 72.3919391,65.3492958 72.3919391,63.7859155 C72.3919391,62.3267606 72.3919391,60.8676056 72.3919391,59.5126761 C72.3919391,58.1577465 72.3919391,56.8028169 72.3919391,55.4478873 C72.3919391,54.0929577 72.3919391,52.7380282 72.3919391,51.1746479 C72.3919391,49.6112676 72.3919391,48.0478873 72.3919391,46.2760563 C72.8103896,45.2338028 71.7642633,44.1915493 70.4042991,44.1915493 Z M61.1983878,40.9605634 C61.1983878,42.315493 61.1983878,42.9408451 61.1983878,44.2957746 C59.733811,44.2957746 58.5830721,44.2957746 57.5369458,44.2957746 C56.3862069,44.2957746 55.3400806,44.2957746 53.8755038,44.2957746 C53.5616659,43.3577465 53.0386028,42.4197183 52.410927,41.6901408 C51.7832512,40.9605634 50.9463502,40.2309859 50.1094492,39.8140845 C52.0970891,39.8140845 53.5616659,39.8140845 55.1308554,39.8140845 C56.5954322,39.8140845 58.1646216,39.8140845 60.1522615,39.8140845 C60.6753247,39.8140845 61.1983878,40.3352113 61.1983878,40.9605634 Z M47.1802956,41.2732394 C48.1218092,41.4816901 48.9587103,41.7943662 49.586386,42.4197183 C50.3186744,42.9408451 50.8417376,43.6704225 51.2601881,44.5042254 C49.586386,44.5042254 48.749485,44.5042254 47.1802956,44.5042254 C47.1802956,43.1492958 47.1802956,42.5239437 47.1802956,41.2732394 Z M41.426601,20.3239437 C41.426601,20.9492958 40.9035378,21.4704225 40.2758621,21.4704225 C39.8574116,21.4704225 39.5435737,21.4704225 39.1251232,21.4704225 C39.1251232,20.5323944 39.1251232,20.115493 39.1251232,19.1774648 C39.5435737,19.1774648 39.8574116,19.1774648 40.2758621,19.1774648 C40.9035378,19.1774648 41.426601,19.6985915 41.426601,20.3239437 Z M16.2149575,8.12957746 C17.0518585,6.67042254 18.7256605,5.73239437 20.3994626,5.83661972 C21.3409763,5.83661972 22.1778773,6.14929577 23.0147783,6.56619718 C23.8516794,6.98309859 24.4793551,7.6084507 25.0024183,8.44225352 C25.1070309,8.65070423 25.2116435,8.75492958 25.3162562,8.96338028 C26.0485446,8.44225352 26.4669951,8.23380282 27.1992835,7.71267606 C27.0946708,7.50422535 26.9900582,7.4 26.8854456,7.1915493 C26.3623824,6.35774648 25.7347067,5.73239437 25.0024183,5.10704225 C24.2701299,4.58591549 23.4332288,4.06478873 22.4917152,3.85633803 C23.8516794,3.12676056 25.3162562,2.6056338 26.8854456,2.6056338 C28.454635,2.50140845 30.0238245,2.91830986 31.3837886,3.54366197 C32.6391402,4.16901408 33.3714286,4.48169014 34.6267801,5.10704225 C35.8821317,5.73239437 37.0328706,6.77464789 37.765159,8.02535211 C38.3928348,8.96338028 38.7066726,10.1098592 38.7066726,11.1521127 C38.8112853,12.2985915 38.60206,13.3408451 38.1836095,14.3830986 C38.1836095,14.4873239 38.1836095,14.4873239 38.0789969,14.5915493 C37.4513211,13.4450704 37.2420958,12.8197183 36.6144201,11.5690141 C36.5098074,11.256338 36.1959695,11.0478873 35.8821317,10.943662 C35.5682938,10.8394366 35.1498433,10.943662 34.940618,11.1521127 C34.2083296,11.6732394 33.7898791,11.9859155 33.0575907,12.5070423 C32.2206897,13.1323944 31.3837886,13.5492958 30.442275,13.8619718 C29.5007613,14.1746479 28.454635,14.2788732 27.5131214,14.2788732 C26.4669951,14.2788732 25.5254814,14.0704225 24.5839678,13.7577465 C23.6424541,13.4450704 22.7009404,12.9239437 21.968652,12.2985915 C21.2363636,11.6732394 20.8179131,11.4647887 20.0856247,10.8394366 C19.7717868,10.6309859 19.4579489,10.5267606 19.1441111,10.6309859 C18.8302732,10.7352113 18.5164353,10.943662 18.4118227,11.256338 C17.7841469,12.5070423 17.470309,13.1323944 16.8426332,14.3830986 C16.5287953,13.8619718 16.4241827,13.5492958 16.2149575,13.028169 C15.2734438,11.3605634 15.3780564,9.48450704 16.2149575,8.12957746 L16.2149575,8.12957746 Z M14.645768,21.0535211 C14.0180923,21.0535211 13.4950291,20.5323944 13.4950291,19.8028169 C13.4950291,19.1774648 14.0180923,18.656338 14.645768,18.656338 C15.0642185,18.656338 15.3780564,18.656338 15.7965069,18.656338 C15.7965069,19.5943662 15.7965069,20.115493 15.7965069,21.0535211 C15.3780564,21.0535211 15.1688312,21.0535211 14.645768,21.0535211 Z M18.2025974,23.4507042 C18.2025974,22.0957746 18.2025974,21.0535211 18.2025974,20.0112676 C18.2025974,18.9690141 18.2025974,17.9267606 18.2025974,16.571831 C18.8302732,15.3211268 19.1441111,14.6957746 19.7717868,13.4450704 C20.0856247,13.6535211 20.1902373,13.7577465 20.5040752,14.0704225 C21.5502015,14.9042254 22.5963278,15.4253521 23.8516794,15.8422535 C25.1070309,16.2591549 26.2577698,16.4676056 27.5131214,16.571831 C28.7684729,16.6760563 30.0238245,16.4676056 31.1745634,16.0507042 C32.3253023,15.6338028 33.4760412,15.1126761 34.5221675,14.3830986 C34.8360054,14.1746479 34.940618,14.0704225 35.2544559,13.8619718 C35.8821317,15.1126761 36.1959695,15.7380282 36.8236453,17.0929577 C36.8236453,18.4478873 36.8236453,19.3859155 36.8236453,20.428169 C36.8236453,21.4704225 36.8236453,22.4084507 36.8236453,23.7633803 C36.8236453,25.4309859 36.4051948,27.0985915 35.5682938,28.4535211 C34.7313927,29.8084507 33.5806538,30.9549296 32.2206897,31.7887324 C30.8607255,32.6225352 29.2915361,33.0394366 27.5131214,33.0394366 C25.8393193,33.0394366 24.1655172,32.5183099 22.8055531,31.684507 C21.4455889,30.8507042 20.29485,29.7042254 19.4579489,28.2450704 C18.6210479,26.7859155 18.2025974,25.2225352 18.2025974,23.4507042 Z M27.4085087,35.228169 C28.6638603,35.228169 29.8145992,35.0197183 30.8607255,34.7070423 C30.8607255,35.6450704 30.8607255,36.1661972 30.8607255,37.1042254 C29.5007613,38.4591549 28.7684729,39.1887324 27.4085087,40.6478873 C26.0485446,39.2929577 25.3162562,38.5633803 23.956292,37.1042254 C23.956292,36.1661972 23.956292,35.6450704 23.956292,34.7070423 C25.1070309,35.0197183 26.2577698,35.228169 27.4085087,35.228169 L27.4085087,35.228169 Z M27.0946708,48.1521127 C27.4085087,48.1521127 27.5131214,48.1521127 27.8269592,48.1521127 C28.5592476,50.028169 28.9776982,50.9661972 29.7099866,52.8422535 C29.2915361,54.8225352 28.8730855,56.2816901 28.5592476,57.8450704 C28.2454098,59.3042254 27.8269592,60.8676056 27.4085087,62.8478873 C26.9900582,60.8676056 26.5716077,59.4084507 26.2577698,57.9492958 C25.9439319,56.4901408 25.5254814,55.0309859 25.1070309,53.0507042 C25.9439319,50.9661972 26.3623824,50.028169 27.0946708,48.1521127 Z M29.6053739,43.2535211 C28.9776982,44.2957746 28.5592476,44.8169014 27.9315719,45.7549296 C27.5131214,45.7549296 27.3038961,45.7549296 26.8854456,45.7549296 C26.2577698,44.7126761 25.8393193,44.2957746 25.2116435,43.2535211 C25.3162562,42.7323944 25.4208688,42.5239437 25.630094,42.1070423 C26.0485446,42.5239437 26.2577698,42.7323944 26.6762203,43.1492958 C26.8854456,43.3577465 27.1992835,43.4619718 27.5131214,43.4619718 C27.8269592,43.4619718 28.1407971,43.3577465 28.3500224,43.1492958 C28.7684729,42.7323944 28.9776982,42.5239437 29.3961487,42.1070423 C29.3961487,42.5239437 29.5007613,42.8366197 29.6053739,43.2535211 Z M14.645768,70.8732394 C14.645768,68.8929577 14.645768,67.1211268 14.645768,65.4535211 C14.645768,63.7859155 14.645768,62.3267606 14.645768,60.7633803 C14.645768,59.2 14.645768,57.7408451 14.645768,56.0732394 C14.645768,54.4056338 14.645768,52.6338028 14.645768,50.6535211 C13.7042544,50.6535211 13.2858039,50.6535211 12.3442902,50.6535211 C12.3442902,52.6338028 12.3442902,54.4056338 12.3442902,56.0732394 C12.3442902,57.7408451 12.3442902,59.2 12.3442902,60.7633803 C12.3442902,62.3267606 12.3442902,63.7859155 12.3442902,65.4535211 C12.3442902,67.1211268 12.3442902,68.8929577 12.3442902,70.8732394 C10.4612629,70.9774648 9.1012987,70.9774648 7.74133453,71.0816901 C6.38137035,71.0816901 4.91679355,71.1859155 3.13837886,71.2901408 C3.13837886,69.4140845 3.13837886,67.6422535 3.13837886,66.0788732 C3.13837886,64.515493 3.13837886,62.9521127 3.13837886,61.4929577 C3.13837886,60.0338028 3.13837886,58.5746479 3.13837886,57.2197183 C3.13837886,55.7605634 3.13837886,54.3014085 3.13837886,52.6338028 C3.13837886,51.0704225 3.13837886,49.2985915 3.13837886,47.4225352 C3.13837886,45.9633803 3.66144201,44.6084507 4.49834304,43.5661972 C5.33524407,42.5239437 6.59059561,41.7943662 7.95055979,41.4816901 C9.8335871,41.1690141 11.5073892,40.856338 12.971966,40.543662 C14.4365428,40.2309859 15.9011196,40.0225352 17.3656964,39.8140845 C18.8302732,39.6056338 20.5040752,39.2929577 22.3871026,38.9802817 C22.9101657,39.5014085 23.2240036,39.8140845 23.7470667,40.3352113 C23.3286162,41.4816901 23.2240036,42.0028169 22.8055531,43.1492958 C22.7009404,43.4619718 22.7009404,43.8788732 22.9101657,44.1915493 C23.7470667,45.3380282 24.0609046,45.9633803 24.8978056,47.2140845 C24.4793551,48.256338 24.1655172,49.0901408 23.8516794,49.9239437 C23.5378415,50.7577465 23.2240036,51.4873239 22.8055531,52.6338028 C22.7009404,52.8422535 22.7009404,53.0507042 22.7009404,53.3633803 C23.119391,55.343662 23.5378415,57.115493 23.956292,58.6788732 C24.2701299,60.2422535 24.6885804,61.7014085 25.0024183,63.2647887 C25.3162562,64.828169 25.7347067,66.4957746 26.2577698,68.5802817 C26.3623824,69.1014085 26.8854456,69.5183099 27.4085087,69.4140845 C27.9315719,69.3098592 28.454635,68.9971831 28.5592476,68.4760563 C28.8730855,66.9126761 29.1869234,65.5577465 29.5007613,64.4112676 C29.8145992,63.1605634 30.0238245,62.0140845 30.3376623,60.8676056 C30.5468876,59.7211268 30.8607255,58.5746479 31.1745634,57.3239437 C31.4884013,56.0732394 31.8022391,54.7183099 32.116077,53.2591549 C32.116077,53.0507042 32.116077,52.7380282 32.0114644,52.5295775 C31.5930139,51.4873239 31.279176,50.6535211 30.9653381,49.9239437 C30.6515002,49.0901408 30.3376623,48.3605634 29.9192118,47.3183099 C30.7561129,46.0676056 31.0699507,45.5464789 31.9068518,44.2957746 C32.116077,43.9830986 32.116077,43.6704225 32.0114644,43.2535211 C31.5930139,42.1070423 31.4884013,41.5859155 31.0699507,40.4394366 C31.5930139,39.9183099 31.9068518,39.6056338 32.4299149,39.084507 C34.103717,39.3971831 35.4636811,39.6056338 36.7190327,39.8140845 C37.9743842,40.0225352 39.2297358,40.2309859 40.4850873,40.4394366 C41.7404389,40.6478873 43.100403,40.856338 44.7742051,41.1690141 C44.7742051,41.2732394 44.7742051,41.2732394 44.7742051,41.3774648 C44.7742051,42.7323944 44.7742051,43.4619718 44.7742051,44.8169014 C43.4142409,44.8169014 42.3681146,44.8169014 41.3219884,44.8169014 C40.2758621,44.8169014 39.2297358,44.8169014 37.8697716,44.8169014 C36.6144201,44.8169014 35.5682938,45.8591549 35.5682938,47.1098592 C35.5682938,48.9859155 35.5682938,50.6535211 35.5682938,52.2169014 C35.5682938,53.7802817 35.5682938,55.2394366 35.5682938,56.5943662 C35.5682938,58.0535211 35.5682938,59.4084507 35.5682938,60.7633803 C35.5682938,62.1183099 35.5682938,63.5774648 35.5682938,65.1408451 C35.5682938,66.7042254 35.5682938,68.371831 35.5682938,70.2478873 C33.8944917,70.3521127 32.4299149,70.3521127 30.9653381,70.456338 C29.6053739,70.5605634 28.2454098,70.5605634 26.9900582,70.5605634 C25.7347067,70.5605634 24.4793551,70.6647887 23.2240036,70.6647887 C21.968652,70.6647887 20.6086879,70.7690141 19.2487237,70.7690141 C17.8887595,70.6647887 16.3195701,70.7690141 14.645768,70.8732394 Z M39.0205105,69.9352113 C38.60206,69.9352113 38.2882221,69.9352113 37.8697716,69.9352113 C37.8697716,68.9971831 37.8697716,68.5802817 37.8697716,67.6422535 C39.7527989,67.5380282 41.426601,67.5380282 43.100403,67.4338028 C44.7742051,67.3295775 46.2387819,67.3295775 47.7033587,67.2253521 C49.1679355,67.2253521 50.6325123,67.1211268 51.9924765,67.1211268 C53.3524407,67.1211268 54.8170175,67.0169014 56.1769816,67.0169014 C57.5369458,67.0169014 59.0015226,66.9126761 60.4660994,66.9126761 C61.9306762,66.9126761 63.4998657,66.8084507 65.0690551,66.7042254 C66.6382445,66.6 68.4166592,66.6 70.2996865,66.4957746 C70.2996865,67.4338028 70.2996865,67.8507042 70.2996865,68.684507 C68.5212718,68.7887324 66.8474698,68.7887324 65.2782803,68.8929577 C63.7090909,68.9971831 62.2445141,68.9971831 60.7799373,69.1014085 C59.3153605,69.2056338 57.9553963,69.2056338 56.5954322,69.2056338 C55.235468,69.2056338 53.8755038,69.3098592 52.5155396,69.3098592 C51.1555755,69.3098592 49.7956113,69.4140845 48.3310345,69.4140845 C46.8664577,69.5183099 45.4018809,69.5183099 43.8326914,69.6225352 C42.5773399,69.8309859 40.9035378,69.8309859 39.0205105,69.9352113 Z M70.4042991,64.3070423 C68.5212718,64.4112676 66.8474698,64.4112676 65.1736677,64.515493 C63.4998657,64.6197183 62.0352888,64.6197183 60.570712,64.6197183 C59.1061352,64.6197183 57.6415584,64.7239437 56.2815943,64.7239437 C54.9216301,64.7239437 53.4570533,64.828169 52.0970891,64.828169 C50.7371249,64.828169 49.2725481,64.9323944 47.8079713,64.9323944 C46.3433945,64.9323944 44.7742051,65.0366197 43.2050157,65.0366197 C41.5312136,65.1408451 39.8574116,65.1408451 37.9743842,65.2450704 C37.9743842,63.3690141 37.9743842,62.0140845 37.9743842,60.5549296 C37.9743842,59.2 37.9743842,57.7408451 37.9743842,55.8647887 C38.7066726,56.5943662 39.6481863,57.2197183 40.5897,57.6366197 C41.5312136,58.0535211 42.6819525,58.2619718 43.8326914,58.2619718 C45.1926556,58.2619718 46.2387819,58.1577465 47.2849082,58.1577465 C48.3310345,58.1577465 49.3771608,58.1577465 50.7371249,58.0535211 C50.7371249,58.4704225 50.7371249,58.7830986 50.7371249,59.2 C50.7371249,60.1380282 51.1555755,60.971831 51.7832512,61.5971831 C52.410927,62.2225352 53.247828,62.5352113 54.2939543,62.5352113 C55.235468,62.5352113 56.1769816,62.1183099 56.8046574,61.4929577 C57.4323332,60.8676056 57.8507837,60.0338028 57.8507837,59.0957746 C57.8507837,58.6788732 57.8507837,58.3661972 57.8507837,57.9492958 C59.2107479,57.9492958 60.2568742,57.8450704 61.3030004,57.8450704 C62.3491267,57.8450704 63.395253,57.8450704 64.7552172,57.7408451 C65.9059561,57.7408451 66.9520824,57.428169 67.9982087,57.0112676 C68.9397223,56.5943662 69.881236,55.9690141 70.6135244,55.2394366 C70.6135244,57.0112676 70.6135244,58.3661972 70.6135244,59.7211268 C70.4042991,61.0760563 70.4042991,62.4309859 70.4042991,64.3070423 Z M53.0386028,59.2 C53.0386028,58.0535211 53.0386028,57.2197183 53.0386028,56.3859155 C53.0386028,55.5521127 53.0386028,54.7183099 53.0386028,53.571831 C53.9801164,53.571831 54.398567,53.571831 55.3400806,53.571831 C55.3400806,54.7183099 55.3400806,55.5521127 55.3400806,56.3859155 C55.3400806,57.2197183 55.3400806,58.0535211 55.3400806,59.2 C55.3400806,59.8253521 54.8170175,60.3464789 54.1893417,60.3464789 C53.5616659,60.2422535 53.0386028,59.8253521 53.0386028,59.2 Z M70.4042991,49.8197183 C70.4042991,51.3830986 69.7766234,52.7380282 68.7304971,53.7802817 C67.6843708,54.8225352 66.219794,55.4478873 64.6506046,55.5521127 C63.2906404,55.5521127 62.2445141,55.656338 61.1983878,55.656338 C60.1522615,55.656338 59.1061352,55.656338 57.7461711,55.7605634 C57.7461711,54.4056338 57.7461711,53.6760563 57.7461711,52.3211268 C57.7461711,51.6957746 57.2231079,51.1746479 56.5954322,51.1746479 C54.7124048,51.1746479 53.7708912,51.1746479 51.9924765,51.2788732 C51.3648007,51.2788732 50.8417376,51.8 50.8417376,52.4253521 C50.8417376,53.7802817 50.8417376,54.5098592 50.8417376,55.8647887 C49.4817734,55.8647887 48.4356471,55.9690141 47.3895208,55.9690141 C46.3433945,55.9690141 45.2972682,55.9690141 43.9373041,56.0732394 C42.3681146,56.0732394 40.9035378,55.4478873 39.8574116,54.5098592 C38.8112853,53.4676056 38.1836095,52.0084507 38.1836095,50.4450704 C38.1836095,49.0901408 38.1836095,48.3605634 38.1836095,47.0056338 C40.0666368,47.0056338 41.7404389,47.0056338 43.4142409,46.9014085 C45.088043,46.9014085 46.5526198,46.9014085 48.0171966,46.7971831 C49.4817734,46.7971831 50.9463502,46.7971831 52.3063144,46.7971831 C53.6662785,46.7971831 55.1308554,46.7971831 56.4908195,46.7971831 C57.8507837,46.7971831 59.3153605,46.7971831 60.7799373,46.7971831 C62.2445141,46.7971831 63.8137035,46.7971831 65.382893,46.6929577 C67.056695,46.6929577 68.7304971,46.6929577 70.6135244,46.5887324 C70.4042991,47.8394366 70.4042991,48.4647887 70.4042991,49.8197183 Z" id="Shape"></path>
                </g>
            </g>
        </g>
    </g>
</svg>
