<svg height="305" viewBox="0 0 320 305" width="320" xmlns="http://www.w3.org/2000/svg" xmlns:xlink="http://www.w3.org/1999/xlink"><linearGradient id="a"><stop offset=".01"/><stop offset=".13" stop-opacity=".69"/><stop offset=".25" stop-opacity=".32"/><stop offset="1" stop-opacity="0"/></linearGradient><linearGradient id="b" x1="9.811517%" x2="110.020609%" xlink:href="#a" y1="-50.911152%" y2="199.194492%"/><linearGradient id="c" x1="64.3962%" x2="-10.762109%" xlink:href="#a" y1="34.472835%" y2="115.535592%"/><linearGradient id="d" x1="76.791272%" x2="8.625872%" xlink:href="#a" y1="15.026501%" y2="99.67064%"/><linearGradient id="e" x1="260.773237%" x2="-175.344602%" xlink:href="#a" y1="28.121355%" y2="79.16175%"/><linearGradient id="f"><stop offset=".01" stop-color="#fff"/><stop offset=".13" stop-color="#fff" stop-opacity=".69"/><stop offset=".15" stop-color="#fff" stop-opacity=".61"/><stop offset=".2" stop-color="#fff" stop-opacity=".47"/><stop offset=".25" stop-color="#fff" stop-opacity=".34"/><stop offset=".3" stop-color="#fff" stop-opacity=".23"/><stop offset=".36" stop-color="#fff" stop-opacity=".15"/><stop offset=".44" stop-color="#fff" stop-opacity=".08"/><stop offset=".52" stop-color="#fff" stop-opacity=".03"/><stop offset=".65" stop-color="#fff" stop-opacity=".01"/><stop offset="1" stop-color="#fff" stop-opacity="0"/></linearGradient><linearGradient id="g" x1="5.128955%" x2="462.903479%" xlink:href="#f" y1="8.409516%" y2="421.034883%"/><linearGradient id="h" x1="5.299093%" x2="461.213865%" xlink:href="#f" y1="8.391517%" y2="420.964648%"/><linearGradient id="i" x1="5.1558%" x2="462.930325%" xlink:href="#f" y1="8.433722%" y2="421.059089%"/><g fill="none" transform="translate(0 .838762)"><path d="m116.223766 292.320003c-.729098 0-1.562353.104372-2.291451.208744-15.102742 1.14809-30.4137978 2.609296-45.3082262.730603-3.4371758-.417488-6.8743516-1.043719-10.2073705-1.774321-1.7706663-.417488-3.4371758-.939347-5.2078421-1.461206-1.5623526-48.637275 40.204541-113.139069 45.3082262-120.862585l15.6235266.626231 49.370343 2.087436c-44.579129 42.479337-48.849559 93.621537-47.287206 120.445098z" fill="#4f70c0"/><path d="m116.223766 292.320003c-.729098 0-1.562353.104372-2.291451.208744-15.102742 1.14809-30.4137978 2.609296-45.3082262.730603-3.4371758-.417488-6.8743516-1.043719-10.2073705-1.774321-1.7706663-.417488-3.4371758-.939347-5.2078421-1.461206-1.5623526-48.637275 40.204541-113.139069 45.3082262-120.862585l15.6235266.626231 49.370343 2.087436c-44.579129 42.479337-48.849559 93.621537-47.287206 120.445098z" fill="url(#b)"/><path d="m115.360502 168.161238c-.518841.417711-1.037682.939849-1.452754 1.461988-45.6579845 44.799499-47.5258111 98.475355-45.34668 123.538012-3.4243488-.417711-6.8486977-1.044278-10.1692783-1.775272-1.7640585-.417711-3.4243488-.939849-5.1884073-1.461988-1.452754-48.663325 40.0545042-113.199666 45.1391433-120.927318l.5188407-.730994z" fill="#4f70c0"/><path d="m230.117195 64.9636987c-1.89155 3.4214002-1.261033 7.4648731-2.101722 11.3009884-.210173 1.0367879-.525431 2.0735759-.945776 3.1103638-1.471206 4.1471517-3.25767 8.2943034-6.725513 10.989952-1.050861.6220728-1.996636 1.4515031-2.522067 2.5919698-.315258 1.1404668-.105086 2.3846123.630517 3.3177214s1.576292 1.6588607 2.522067 2.2809334c-.210172 1.9698975-.105086 4.2508305-.315258 6.2207275-.420345 4.354509-.735603 9.227413 2.206809 12.441455 2.311895 2.488291 5.884824 3.4214 9.142494 3.836116 3.362756.414715 6.935685.622072 9.878097 2.280933 6.305168 3.525079 8.091633 12.337776 14.396801 15.862855 1.89155.933109 3.888187 1.555182 6.094996 1.76254 4.518704.622073 9.037408-.207358 12.925595-2.384612 3.888187-2.280934 16.393438-6.01337 13.030681-8.812698-3.678015-3.110364-9.457752-11.923061-12.084906-16.692285-2.942412-5.18394-4.939048-10.886274-5.98991-16.7959649-.840689-4.976582-.840689-9.9531641-1.681378-14.8260674-.735603-4.976582-2.311895-9.9531641-5.464479-13.7892794-4.833962-5.7023336-12.715423-7.983267-20.281625-8.3979822-2.101723-.2073576-4.203445-.1036788-6.305168.4147152-2.101723.5183939-3.783101 1.8662182-4.833963 3.7324365" fill="#f9ba9f"/><path d="m303.95189 88.0306872c-.311915 2.605532-1.039716 5.2110639-2.183404 7.6081533-.62383 1.6675405-1.559575 3.1266384-2.703263 4.3772935-2.287376 1.980205-2.391348 5.419507-3.742979 8.12926-.935744 1.66754-2.287376 3.23086-3.84695 4.273072-6.446242 4.794179-14.971916 6.044834-22.561845 3.335081l-1.143688-.416885c-3.327093-1.563319-6.550213-3.439302-9.461419-5.73217-.207943-.104221-.311915-.312664-.415887-.521107-.207943-.521106.207944-.937991.62383-1.354876 2.391348-2.501311 3.742979-5.836392 3.742979-9.3799152.103972-1.4590979-.415886-2.9181958-1.247659-4.0646299-.935745-1.1464341-2.599291-1.5633192-3.950923-.8337702-1.143688.6253277-2.287376 2.1886468-3.22312 1.3548766-.311915-.3126638-.415887-.7295489-.519858-1.1464341-.311915-2.5013106-1.039717-5.0026213-1.975462-7.3997107-1.351631-2.2928681-3.015177-4.3772937-4.886666-6.1490554-4.470781-4.8984001-8.005816-10.5263492-10.501136-16.5711833-.103971-.5211064-.519858-1.0422128-.935744-1.3548766-.415887-.2084426-.935745-.2084426-1.351632-.2084426-2.079432.1042213-4.158865.1042213-6.238298-.1042213-1.039716 0-2.079432-.3126638-2.911206-1.0422127-1.455602-1.3548767-.727801-3.7519661.311915-5.3152852 2.599291-3.6477448 6.862128-5.5237278 11.020994-7.2954895-1.039717-.729549-2.703263-2.1886469-3.742979-2.9181958-.415887-.2084426-.62383-.5211064-.831773-.8337702-.207943-.729549.415886-1.3548767 1.143688-1.7717618 1.143688-.6253276 2.495319-.8337702 3.84695-.6253276-.207943-3.1266384-3.535035-6.0448342-2.287376-8.96303.831773-1.875983 3.431064-2.3970894 5.406525-1.875983s3.742979 1.7717617 5.71844 2.3970894c.415887-1.3548766-.831773-2.8139745-.519858-4.2730724.207943-1.0422128 1.039716-1.875983 2.079433-2.0844256 1.039716-.2084425 2.079433-.1042212 3.119149.2084426 2.391348.6253277 4.574752 1.7717617 6.446241 3.4393022 1.143688 1.146434 2.287376 2.1886468 3.639008 3.0224171 2.703262 1.3548766 5.822411.6253276 8.837589.6253276 3.535035.1042213 6.966099.9379915 10.18922 2.2928681 2.183404.8337703 4.262837 1.7717618 6.34227 2.8139746 2.703262 1.3548766 5.302553 3.022417 7.589929 5.1068426 5.822412 5.1068426 9.461419 12.4023321 11.020993 20.0104854 1.455603 7.7123746 1.455603 15.5289705.103972 23.2413451z" fill="#fe9f24"/><path d="m37.1159875 52.2109067 5.8536983-6.0496689 138.5026852 6.0496689 32.195341 113.9006623-5.749168 6.049669h-144.6699745z" fill="#4f70c0"/><path d="m37.1159875 52.2109067 5.8536983-6.0496689 138.5026852 6.0496689 32.195341 113.9006623-5.749168 6.049669h-144.6699745z" fill="url(#c)"/><path d="m43.1347962 46.1612378h144.2167518l26.316164 120.0000002h-144.4256109z" fill="#4f70c0"/><path d="m49.153605 50.1612378h134.871539l24.626894 112.0000002h-135.0811302z" fill="#fff"/><path d="m154.439231 208.038117c-.210043 1.664364-1.260254 3.01666-2.73055 3.744819-2.100423 1.248273-4.725951 1.248273-7.141437 1.352296-1.680338.104023-3.465697-.104023-5.041014-.624136-1.365275-.72816-2.625528-1.664365-3.67574-2.808615-5.986204-5.721251-13.862789-9.986184-16.908402-17.579845-1.470296-3.74482-1.470296-7.801707-1.575317-11.754572 0-4.16091 0-8.841934 2.835571-11.962617 2.205443-2.496546 5.776162-3.744819 7.246458-6.761479-2.415486-1.352295-4.62093-3.01666-6.406289-4.993092-1.890381-2.080455-2.73055-4.785047-2.310465-7.489638 3.360676 1.14425 6.51131 2.600569 9.451902 4.368955 11.027218 6.76148 18.798782 17.579846 21.529332 30.062577 1.155232 5.513206 1.260253 11.130434 2.730549 16.539618.840169 2.496546 2.310465 5.409183 1.995402 7.905729z" fill="#f9ba9f"/><path d="m154.439329 207.668236c-.522853.207251-1.045706.621753-1.463988 1.036255-1.568559 2.27976-5.3331 1.658008-7.319941-.310876s-2.718835-4.766772-3.973682-7.253784c-3.346259-6.217528-10.457058-10.777049-10.457058-17.823581 0-5.388524 4.601105-10.155296 4.182823-15.543821-.209141-2.797887-1.7777-5.077648-3.450829-7.253783-1.568559-2.27976-2.718835-4.766771-3.5554-7.357408 10.979911 6.735655 18.718134 17.512705 21.43697 29.947761 1.150276 5.49215 1.254847 11.087926 2.718835 16.47645.731994 2.694263 2.195982 5.595776 1.88227 8.082787z" fill="url(#d)"/><path d="m300.640566 280.974218c-1.362339 6.96897-3.56304 14.249984-7.650057 19.866766-.628772.104014-1.152748.208029-1.78152.208029-3.56304.416057-7.12608.728101-10.793916.93613-13.937775.520072-27.770754-.104015-41.603734-1.976275-15.404908-1.872261-30.705022-4.576637-46.109931-6.656927.733567-.832116 1.571929-1.560217 2.410292-2.08029 9.326781-6.864955 15.090523-17.474432 15.719295-29.02004-.943158-.624087-1.991111-.93613-3.039064-.93613-2.934268-.312044-6.706899.312043-8.802805.104014-17.815201-2.184304-62.562794-45.558342-62.562794-45.558342l22.216604-11.025535 33.115314 11.025535s35.630402-55.543733 50.092153-71.457948c14.461751-15.914216 40.555781-16.226259 40.555781-16.226259 3.143859-.104015 6.287718.312043 9.221986 1.144159 17.710406 5.200724 26.827597 26.523692 28.08514 44.518198 2.515088 35.468938-12.156254 72.810136-19.072744 107.134915z" fill="#fff"/><path d="m303.968909 88.9173357c-.310321 2.6156705-1.034403 5.231341-2.172245 7.6377578-.620642 1.6740291-1.551604 3.1388046-2.689447 4.3943265-2.275686 1.98791-2.379126 5.440595-3.72385 8.160892-.930962 1.674029-2.275685 3.243431-3.827289 4.289699-6.413296 4.812834-14.895398 6.068356-22.446536 3.348059l-1.137843-.418508c-.517202-.732387-.827522-1.569402-1.137843-2.511043l4.551371-.209254c-.10344-1.569402-.724082-3.138804-1.758484-4.289699l10.344026-.209254c2.896327.31388 5.689214-1.360149 6.723617-4.080446 1.551604-2.406417 3.206648-5.1267142 2.896327-8.0562652-.310321-1.6740291-.827522-3.3480582-1.758484-4.8128337-2.275686-4.4989532-4.551372-9.1025333-5.172013-14.1246206-.620642-4.9174606.827522-10.5673088 4.758251-13.6014866.827523-.5231341 1.551604-1.150895 2.172246-1.9879095.517201-.9416414.724082-1.9879096.517201-3.0341778-.517201-4.8128337-4.24105-8.4747724-7.654579-11.8228306l-7.654579-7.4285042c.827522.8370145 4.758252.9416414 5.999535 1.3601486 2.172245.7323878 4.241051 1.5694023 6.309856 2.6156705-.310321-.9416413-1.137843-2.30179-1.861925-3.8711923 2.689447 1.3601487 5.275453 3.0341778 7.551139 5.1267142 5.792655 5.1267141 9.413064 12.4505915 10.964668 20.0883493 1.551603 7.8470115 1.551603 15.694023.20688 23.4364076z" fill="#c27818"/><path d="m300.507196 281.416042c-1.360056 6.983579-3.557068 14.279855-7.637233 19.908412-.627718.104232-1.150816.208465-1.778534.208465-15.902184 1.563488-30.862791 2.91851-46.660354-.521163-2.510872-.521163-5.335602-1.563488-5.75408-4.065068-.10462-1.459256.313859-2.814278 1.046196-4.065069 10.880442-21.784597 17.785337-47.1131 17.471478-71.607743-5.858699-.729627-13.182073 10.631718-17.471478 14.488321l-15.797564 14.279856c-6.904895 6.149718-14.751367 12.716367-23.957895 11.98674-5.44022-.41693-10.252723-3.335441-14.855987-6.149719l-16.320662-10.214787c-4.812503-3.022744-10.043484-6.462417-11.29892-11.98674 7.637233.625395 14.332889 5.003161 21.237785 8.442834 6.904895 3.439673 15.169846 5.941254 22.074741 2.605813 4.917123-2.397348 8.160331-7.296277 11.089681-11.98674 19.354631-30.540129 40.592416-59.829468 63.608734-87.763784 5.544841-6.775114 6.486417-16.781436 16.216043-15.739111 17.680717 5.211626 26.782625 26.579293 28.03806 44.61152 2.301632 35.751755-12.345116 73.17123-19.250011 107.567963z" fill="url(#e)"/><g fill="#4f70c0"><path d="m0 10.1612378 19.1384283 94.0000002h57.0998162l-16.1940547-94.0000002z" opacity=".32"/><path d="m17.0532915 138.161238 19.1120668 94h57.1261778l-16.1717489-94z" opacity=".32"/><path d="m132.413793 10.1612378 19.112067 94.0000002h57.126178l-16.171749-94.0000002z" opacity=".32"/></g><path d="m138.432602.16123779 19.138428 94.00000001h57.099816l-16.194054-94.00000001z" fill="url(#g)"/><path d="m10.031348 12.1612378 16.8811467 83h50.3288846l-14.2598506-83z" fill="url(#h)"/><path d="m21.0658307 134.161238 19.1384283 94h57.0998162l-16.1940547-94z" fill="url(#i)"/><path d="m70.4042991 44.1915493c-1.3599641 0-2.4060904 0-3.4522167 0s-2.0922526 0-3.4522167 0c0-1.3549296 0-1.9802817 0-3.3352113 0-.9380281-.4184506-1.771831-1.0461263-2.3971831-.6276758-.6253521-1.4645768-.9380281-2.5107031-.9380281-1.5691895 0-2.824541 0-4.0798925 0-1.2553516 0-2.3014779 0-3.5568294 0-1.2553516 0-2.5107031 0-4.0798925 0-1.0461263 0-1.8830274.4169014-2.5107031 1.1464788-1.6738021-.312676-3.0337663-.5211267-4.3937304-.7295774-1.2553516-.2084507-2.5107031-.4169014-3.7660547-.6253521-1.2553515-.2084507-2.7199283-.4169015-4.3937304-.7295775 0-1.1464789 0-1.771831 0-2.9183099 1.1507389-.6253521 2.1968652-1.5633802 3.0337662-2.5014084.8369011-.9380282 1.5691895-2.1887324 1.98764-3.4394366.5230631-1.2507043.7322884-2.6056338.7322884-4.0647888h1.1507389c.9415137 0 1.8830273-.312676 2.5107031-.9380281.6276758-.6253522 1.0461263-1.459155 1.0461263-2.3971831 0-.9380282-.4184505-1.771831-1.0461263-2.5014085-.6276758-.6253521-1.4645768-1.0422535-2.5107031-1.0422535-.2092252 0-.3138379 0-.5230631 0 .2092252-.6253521.4184505-.8338028.6276757-1.4591549.6276758-1.3549296.8369011-2.8140845.7322884-4.2732395-.1046126-1.45915491-.5230631-2.91830984-1.3599641-4.16901406-.5230632-.83380282-1.0461263-1.56338028-1.7784147-2.18873239-.7322884-.62535212-1.4645768-1.14647888-2.4060905-1.66760564-1.2553515-.62535211-1.9876399-.93802817-3.2429915-1.56338028-1.2553515-.62535211-2.6153157-1.04225352-4.0798925-1.14647887-1.3599642-.10422536-2.824541 0-4.0798925.31267605-1.3599642.31267606-2.6153157.93802817-3.7660547 1.77183099-.7322884.52112676-1.1507389.83380282-1.8830273 1.35492958-.9415136.2084507-1.7784147.62535211-2.5107031 1.14647887s-1.3599641 1.25070422-1.8830273 2.08450704c-.6276757 1.04225352-.9415136 2.29295775-1.0461263 3.43943661 0 1.2507042.2092253 2.5014085.7322884 3.6478873.4184506.9380282.7322884 1.459155 1.150739 2.3971831-.2092253 0-.3138379 0-.4184506 0-.9415136 0-1.8830273.3126761-2.5107031 1.0422536-.6276757.6253521-1.0461262 1.5633802-1.0461262 2.5014084s.4184505 1.8760563 1.0461262 2.5014085c.6276758.6253521 1.4645769 1.0422535 2.5107031 1.0422535h1.150739c0 1.4591549.2092252 2.8140845.7322884 4.1690141.5230631 1.2507042 1.1507389 2.5014084 1.9876399 3.5436619.836901 1.0422536 1.8830273 1.8760564 3.0337662 2.6056338v2.9183099c-1.8830273.3126761-3.4522167.6253521-4.9167935.8338028s-2.824541.5211268-4.2891178.7295775-3.03376623.5211267-4.91679354.8338028c-1.35996418.2084507-2.51070309.7295775-3.55682938 1.5633803-1.04612629.7295774-1.77841469 1.771831-2.40609046 2.9183098-.62767578 1.1464789-.83690103 2.5014085-.83690103 3.8563381v5.5239436 4.7943662 4.5859155 4.7943662 5.5239437c0 .6253521.52306314 1.1464788 1.15073891 1.1464788 2.09225258-.1042253 3.9752799-.2084507 5.75369458-.2084507 1.77841469-.1042253 3.55682942-.1042253 5.12601882-.2084507 1.6738021-.1042253 3.2429915-.1042253 4.8121809-.2084507 1.5691894-.1042253 3.1383789-.1042253 4.6029557-.2084507 1.5691894-.1042253 3.1383788-.1042253 4.8121809-.2084507 1.6738021-.1042253 3.3476041-.1042253 5.1260188-.2084507 1.7784147-.1042253 3.7660546-.1042253 5.7536946-.2084507h1.1507389c1.7784147-.1042253 3.4522168-.1042253 5.0214062-.2084507 1.5691894-.1042253 3.0337662-.1042253 4.498343-.2084507 1.4645768-.1042253 2.824541-.1042253 4.1845052-.2084507 1.3599641-.1042253 2.7199283-.1042253 4.0798925-.2084507s2.7199283-.1042254 4.1845051-.2084507c1.4645768-.1042254 2.9291537-.1042254 4.4983431-.2084507 1.5691894-.1042254 3.2429915-.1042254 5.0214062-.2084507 1.2553515 0 2.3014778-1.0422535 2.3014778-2.2929578 0-1.7718309 0-3.3352112 0-4.8985915 0-1.4591549 0-2.9183099 0-4.2732394 0-1.3549296 0-2.7098592 0-4.0647888s0-2.7098591 0-4.2732394 0-3.1267606 0-4.8985916c.4184505-1.0422535-.6276758-2.084507-1.98764-2.084507zm-9.2059113-3.2309859v3.3352112c-1.4645768 0-2.6153157 0-3.661442 0-1.1507389 0-2.1968652 0-3.661442 0-.3138379-.9380281-.836901-1.8760563-1.4645768-2.6056338-.6276758-.7295774-1.4645768-1.4591549-2.3014778-1.8760563h5.0214062 5.0214061c.5230632 0 1.0461263.5211268 1.0461263 1.1464789zm-14.0180922.312676c.9415136.2084507 1.7784147.5211268 2.4060904 1.1464789.7322884.5211268 1.2553516 1.2507042 1.6738021 2.0845071-1.6738021 0-2.5107031 0-4.0798925 0 0-1.3549296 0-1.9802817 0-3.230986zm-5.7536946-20.9492957c0 .6253521-.5230632 1.1464788-1.1507389 1.1464788-.4184505 0-.7322884 0-1.1507389 0 0-.9380281 0-1.3549295 0-2.2929577h1.1507389c.6276757 0 1.1507389.5211267 1.1507389 1.1464789zm-25.2116435-12.19436624c.836901-1.45915492 2.510703-2.39718309 4.1845051-2.29295774.9415137 0 1.7784147.31267605 2.6153157.72957746.8369011.41690141 1.4645768 1.04225352 1.98764 1.87605634.1046126.20845071.2092252.31267606.3138379.52112676.7322884-.52112676 1.1507389-.72957746 1.8830273-1.25070422-.1046127-.20845071-.2092253-.31267606-.3138379-.52112676-.5230632-.83380282-1.1507389-1.45915493-1.8830273-2.08450705-.7322884-.52112676-1.5691895-1.04225352-2.5107031-1.25070422 1.3599642-.72957747 2.824541-1.25070423 4.3937304-1.25070423 1.5691894-.10422535 3.1383789.31267606 4.498343.93802817 1.2553516.62535211 1.98764.93802817 3.2429915 1.56338028 1.2553516.62535212 2.4060905 1.66760564 3.1383789 2.91830986.6276758.93802817.9415136 2.08450709.9415136 3.12676059.1046127 1.1464788-.1046126 2.1887324-.5230631 3.2309859 0 .1042253 0 .1042253-.1046126.2084507-.6276758-1.1464789-.8369011-1.771831-1.4645768-3.0225352-.1046127-.3126761-.4184506-.5211268-.7322884-.6253521-.3138379-.1042254-.7322884 0-.9415137.2084507-.7322884.5211267-1.1507389.8338028-1.8830273 1.3549296-.836901.6253521-1.6738021 1.0422535-2.6153157 1.3549295-.9415137.3126761-1.98764.4169014-2.9291536.4169014-1.0461263 0-1.98764-.2084507-2.9291536-.5211267-.9415137-.3126761-1.8830274-.8338028-2.6153158-1.459155-.7322884-.6253521-1.1507389-.8338028-1.8830273-1.4591549-.3138379-.2084507-.6276758-.312676-.9415136-.2084507-.3138379.1042254-.6276758.3126761-.7322884.6253521-.6276758 1.2507043-.9415137 1.8760564-1.5691895 3.1267606-.3138379-.5211268-.4184505-.8338028-.6276757-1.3549296-.9415137-1.6676056-.8369011-3.54366196 0-4.89859154zm-1.5691895 12.92394364c-.6276757 0-1.1507389-.5211267-1.1507389-1.2507042 0-.6253521.5230632-1.1464789 1.1507389-1.1464789h1.1507389v2.3971831c-.4184505 0-.6276757 0-1.1507389 0zm3.5568294 2.3971831c0-1.3549296 0-2.3971831 0-3.4394366s0-2.084507 0-3.4394366c.6276758-1.2507042.9415137-1.8760564 1.5691894-3.1267606.3138379.2084507.4184505.3126761.7322884.6253521 1.0461263.8338029 2.0922526 1.3549296 3.3476042 1.771831 1.2553515.4169014 2.4060904.6253521 3.661442.7295775 1.2553515.1042253 2.5107031-.1042254 3.661442-.5211268s2.3014778-.9380281 3.3476041-1.6676056c.3138379-.2084507.4184505-.3126761.7322884-.5211268.6276758 1.2507043.9415136 1.8760564 1.5691894 3.2309859v3.3352113 3.3352113c0 1.6676056-.4184505 3.3352112-1.2553515 4.6901408-.8369011 1.3549296-1.98764 2.5014085-3.3476041 3.3352113-1.3599642.8338028-2.9291536 1.2507042-4.7075683 1.2507042-1.6738021 0-3.3476042-.5211267-4.7075683-1.3549296-1.3599642-.8338028-2.5107031-1.9802816-3.3476042-3.4394366-.836901-1.4591549-1.2553515-3.0225352-1.2553515-4.7943662zm9.2059113 11.7774648c1.2553516 0 2.4060905-.2084507 3.4522168-.5211267v2.3971831c-1.3599642 1.3549295-2.0922526 2.084507-3.4522168 3.5436619-1.3599641-1.3549296-2.0922525-2.084507-3.4522167-3.5436619 0-.9380282 0-1.459155 0-2.3971831 1.1507389.312676 2.3014778.5211267 3.4522167.5211267zm-.3138379 12.9239437h.7322884c.7322884 1.8760563 1.150739 2.8140845 1.8830274 4.6901408-.4184505 1.9802817-.8369011 3.4394366-1.150739 5.0028169-.3138378 1.459155-.7322884 3.0225352-1.1507389 5.0028169-.4184505-1.9802817-.836901-3.4394366-1.1507389-4.8985915-.3138379-1.459155-.7322884-2.9183099-1.1507389-4.8985916.836901-2.084507 1.2553515-3.0225352 1.9876399-4.8985915zm2.5107031-4.8985916c-.6276757 1.0422535-1.0461263 1.5633803-1.673802 2.5014085-.4184505 0-.6276758 0-1.0461263 0-.6276758-1.0422535-1.0461263-1.459155-1.6738021-2.5014085.1046127-.5211267.2092253-.7295774.4184505-1.1464788.4184506.4169014.6276758.6253521 1.0461263 1.0422535.2092253.2084507.5230632.312676.8369011.312676.3138378 0 .6276757-.1042253.836901-.312676.4184505-.4169014.6276758-.6253521 1.0461263-1.0422535 0 .4169014.1046126.7295774.2092252 1.1464788zm-14.9596059 27.6197183c0-1.9802817 0-3.7521126 0-5.4197183 0-1.6676056 0-3.1267605 0-4.6901408s0-3.0225352 0-4.6901409c0-1.6676056 0-3.4394366 0-5.4197183-.9415136 0-1.3599641 0-2.3014778 0v5.4197183 4.6901409 4.6901408 5.4197183c-1.8830273.1042254-3.2429915.1042254-4.60295567.2084507-1.35996418 0-2.82454098.1042254-4.60295567.2084507 0-1.8760563 0-3.6478873 0-5.2112676 0-1.5633802 0-3.1267605 0-4.5859155 0-1.4591549 0-2.9183098 0-4.2732394 0-1.4591549 0-2.9183098 0-4.5859155 0-1.5633803 0-3.3352113 0-5.2112676 0-1.4591549.52306315-2.8140845 1.35996418-3.856338s2.09225257-1.771831 3.45221675-2.0845071c1.88302731-.312676 3.55682941-.6253521 5.02140621-.9380281 1.4645768-.3126761 2.9291536-.5211268 4.3937304-.7295775s3.1383788-.5211268 5.0214062-.8338028c.5230631.5211268.836901.8338028 1.3599641 1.3549296-.4184505 1.1464788-.5230631 1.6676056-.9415136 2.8140845-.1046127.312676-.1046127.7295774.1046126 1.0422535.836901 1.1464789 1.1507389 1.771831 1.9876399 3.0225352-.4184505 1.0422535-.7322884 1.8760563-1.0461262 2.7098592-.3138379.8338028-.6276758 1.5633802-1.0461263 2.7098591-.1046127.2084507-.1046127.4169014-.1046127.7295775.4184506 1.9802817.8369011 3.7521127 1.2553516 5.3154929.3138379 1.5633803.7322884 3.0225353 1.0461263 4.5859155.3138379 1.5633803.7322884 3.2309859 1.2553515 5.315493.1046126.5211268.6276758.9380282 1.1507389.8338028.5230632-.1042253 1.0461263-.4169014 1.1507389-.9380282.3138379-1.5633802.6276758-2.9183098.9415137-4.0647887.3138379-1.2507042.5230632-2.3971831.836901-3.543662.2092253-1.1464788.5230632-2.2929577.8369011-3.5436619.3138379-1.2507043.6276757-2.6056338.9415136-4.0647888 0-.2084507 0-.5211267-.1046126-.7295774-.4184505-1.0422536-.7322884-1.8760564-1.0461263-2.6056338-.3138379-.8338029-.6276758-1.5633803-1.0461263-2.6056338.8369011-1.2507043 1.1507389-1.771831 1.98764-3.0225353.2092252-.312676.2092252-.6253521.1046126-1.0422535-.4184505-1.1464788-.5230631-1.6676056-.9415137-2.8140845.5230632-.5211267.8369011-.8338028 1.3599642-1.3549296 1.6738021.3126761 3.0337662.5211268 4.2891178.7295775 1.2553515.2084507 2.5107031.4169014 3.7660546.6253521 1.2553516.2084507 2.6153157.4169014 4.2891178.7295775v.2084507 3.4394366c-1.3599642 0-2.4060905 0-3.4522167 0-1.0461263 0-2.0922526 0-3.4522168 0-1.2553515 0-2.3014778 1.0422535-2.3014778 2.2929578v5.1070422 4.3774648 4.1690141 4.3774648 5.1070422c-1.6738021.1042254-3.1383789.1042254-4.6029557.2084507-1.3599642.1042254-2.7199283.1042254-3.9752799.1042254-1.2553515 0-2.5107031.1042253-3.7660546.1042253-1.2553516 0-2.6153157.1042254-3.9752799.1042254-1.3599642-.1042254-2.9291536 0-4.6029557.1042253zm24.3747425-.9380281c-.4184505 0-.7322884 0-1.1507389 0 0-.9380282 0-1.3549296 0-2.2929578 1.8830273-.1042253 3.5568294-.1042253 5.2306314-.2084507 1.6738021-.1042253 3.1383789-.1042253 4.6029557-.2084507 1.4645768 0 2.9291536-.1042253 4.2891178-.1042253s2.824541-.1042254 4.1845051-.1042254c1.3599642 0 2.824541-.1042253 4.2891178-.1042253s3.0337663-.1042254 4.6029557-.2084507c1.5691894-.1042254 3.3476041-.1042254 5.2306314-.2084508v2.1887324c-1.7784147.1042254-3.4522167.1042254-5.0214062.2084507-1.5691894.1042254-3.0337662.1042254-4.498343.2084508-1.4645768.1042253-2.824541.1042253-4.1845051.1042253-1.3599642 0-2.7199284.1042254-4.0798926.1042254-1.3599641 0-2.7199283.1042253-4.1845051.1042253-1.4645768.1042254-2.9291536.1042254-4.4983431.2084507-1.2553515.2084507-2.9291536.2084507-4.8121809.3126761zm31.3837886-5.628169c-1.8830273.1042253-3.5568293.1042253-5.2306314.2084507-1.673802.1042253-3.1383789.1042253-4.6029557.1042253s-2.9291536.1042254-4.2891177.1042254c-1.3599642 0-2.824541.1042253-4.1845052.1042253s-2.824541.1042254-4.2891178.1042254-3.0337662.1042253-4.6029556.1042253c-1.6738021.1042254-3.3476041.1042254-5.2306315.2084507 0-1.8760563 0-3.2309859 0-4.6901408 0-1.3549296 0-2.8140845 0-4.6901409.7322884.7295775 1.6738021 1.3549296 2.6153158 1.771831.9415136.4169014 2.0922525.6253521 3.2429914.6253521 1.3599642 0 2.4060905-.1042253 3.4522168-.1042253s2.0922526 0 3.4522167-.1042254v1.1464789c0 .9380282.4184506 1.771831 1.0461263 2.3971831.6276758.6253521 1.4645768.9380282 2.5107031.9380282.9415137 0 1.8830273-.4169014 2.5107031-1.0422536.6276758-.6253521 1.0461263-1.4591549 1.0461263-2.3971831 0-.4169014 0-.7295774 0-1.1464788 1.3599642 0 2.4060905-.1042254 3.4522167-.1042254 1.0461263 0 2.0922526 0 3.4522168-.1042253 1.1507389 0 2.1968652-.3126761 3.2429915-.7295775.9415136-.4169014 1.8830273-1.0422535 2.6153157-1.771831v4.4816902c-.2092253 1.3549295-.2092253 2.7098591-.2092253 4.5859155zm-17.3656963-5.1070423c0-1.1464789 0-1.9802817 0-2.8140845s0-1.6676056 0-2.8140845h2.3014778v2.8140845 2.8140845c0 .6253521-.5230631 1.1464789-1.1507389 1.1464789-.6276758-.1042254-1.1507389-.5211268-1.1507389-1.1464789zm17.3656963-9.3802817c0 1.5633803-.6276757 2.9183099-1.673802 3.9605634s-2.5107031 1.6676056-4.0798925 1.771831c-1.3599642 0-2.4060905.1042253-3.4522168.1042253s-2.0922526 0-3.4522167.1042254c0-1.3549296 0-2.0845071 0-3.4394366 0-.6253522-.5230632-1.1464789-1.1507389-1.1464789-1.8830274 0-2.824541 0-4.6029557.1042253-.6276758 0-1.1507389.5211268-1.1507389 1.1464789v3.4394366c-1.3599642 0-2.4060905.1042254-3.4522168.1042254s-2.0922526 0-3.4522167.1042253c-1.5691895 0-3.0337663-.6253521-4.0798925-1.5633802-1.0461263-1.0422536-1.6738021-2.5014085-1.6738021-4.0647888 0-1.3549296 0-2.084507 0-3.4394366 1.8830273 0 3.5568294 0 5.2306314-.1042253 1.6738021 0 3.1383789 0 4.6029557-.1042254h4.2891178 4.1845051 4.2891178c1.4645768 0 3.0337662 0 4.6029557-.1042254 1.673802 0 3.3476041 0 5.2306314-.1042253-.2092253 1.2507042-.2092253 1.8760563-.2092253 3.2309859z" fill="#4f70c0" opacity=".18" transform="translate(81.253918 67.161238)"/></g></svg>