<svg height="283" viewBox="0 0 321 283" width="321" xmlns="http://www.w3.org/2000/svg" xmlns:xlink="http://www.w3.org/1999/xlink"><linearGradient id="a"><stop offset="0" stop-opacity="0"/><stop offset=".99"/></linearGradient><linearGradient id="b" x1="0%" x2="100%" xlink:href="#a" y1="49.976426%" y2="49.976426%"/><linearGradient id="c" x1="81.486076%" x2="-22.842572%" xlink:href="#a" y1="24.386545%" y2="109.401709%"/><linearGradient id="d"><stop offset="0" stop-color="#e5c5d5"/><stop offset=".42" stop-color="#ead4d1"/><stop offset="1" stop-color="#f0e9cb"/></linearGradient><linearGradient id="e" x1=".010755%" x2="100.109251%" xlink:href="#d" y1="49.863408%" y2="49.863408%"/><linearGradient id="f" x1="34.234749%" x2="58.089122%" xlink:href="#a" y1="65.723828%" y2="40.282775%"/><linearGradient id="g" x1=".280133%" x2="100.062581%" xlink:href="#d" y1="50.211483%" y2="50.211483%"/><linearGradient id="h" x1="55.82549%" x2="42.785764%" xlink:href="#a" y1="-115.564771%" y2="352.315726%"/><linearGradient id="i" x1=".447159%" x2="100.481399%" xlink:href="#d" y1="50.024765%" y2="50.024765%"/><linearGradient id="j" x1=".237641%" x2="99.976107%" xlink:href="#d" y1="50.053258%" y2="50.053258%"/><g fill="none" transform="translate(0 .647508)"><path d="m233.873816 109.975564c7.899985 12.618779 12.32703 28.13055 24.301042 36.904693 16.811322 12.276188 25.418019 6.661497 41.733206 19.575285 7.537426 5.966798 11.85952 15.016918 15.33246 23.962357 5.066295 13.075567 8.730057 28.197165 2.404344 40.711263-7.308441 14.455449-25.016621 19.984491-41.026495 22.38263-22.17339 3.378331-27.936855 3.692373-49.680897 9.259481-8.67281 2.226843-17.173882 5.272099-25.942102 6.899408-8.768221 1.627308-17.584147 1.789087-26.419155 1.636825-42.700788-.75552-99.962215.672517-124.4820189-25.332722-13.9976313-14.845622-20.0006212-28.909433-36.9836819-58.419864-11.09414742-19.410316-15.32476173-41.976814-12.01217616-64.074085 1.8509628-12.085859 6.03948172-23.9528405 13.17618366-33.8689546 10.0085566-13.8749467 25.3314754-23.391371 41.5894167-28.8537986s-9.0995671-9.879513 8.0456914-10.7835733c35.3877372-1.9032849 80.0398292-5.0722542 112.8133202 10.4680667 9.770031 4.6440151 16.944897 10.9724373 24.806718 18.1478212 11.277516 10.2396726 24.119763 18.3096005 32.344144 31.3851676z" fill="#4a67c6" opacity=".18"/><rect fill="#b2b2b2" height="273" opacity=".43" rx="11.02" width="179" x="20" y=".352492"/><g fill="#4a67c6"><path d="m194.973139 188.113461 1.186037 18.239031c-2.378285-.904828-4.559599-2.263215-6.423575-4.000205-10.294797-8.800451-17.259204-20.772494-23.882033-32.554051-5.62972-10.051309-11.142418-20.156589-16.538094-30.315841-1.973565-3.704952-4.023036-7.543244-7.315474-10.143377 3.102672-1.761995 6.983384-2.762047 10.209403-1.238159 3.937642 1.857238 5.417815 6.562241 7.467287 10.410058 2.134865 4.009729 5.199584 7.428952 7.922724 11.05771 3.523867 4.694323 6.488549 9.786332 8.833601 15.172207.402884 1.081729.96585 2.096345 1.669939 3.009678 1.08592 1.064421 2.377585 1.894224 3.795317 2.43822 4.300062 2.010537 8.476087 4.278219 12.50557 6.790825 1.418582.798957 2.700027 1.821572 3.795317 3.028727 1.331047 1.663007 1.964107 3.781216 1.764823 5.905065-.322602 3.743049-2.096913 1.981054-4.990842 2.200112z" opacity=".34"/><path d="m52.4507079 181.848674c-1.7556571.390958-3.6346847.867737-4.7450192 2.250396s-.9490039 3.976336.759203 4.519864c.490932.116017.9958408.16097 1.4994261.133499 7.3073296.162104 11.8815282 8.639234 18.9800769 10.269818 2.5666353.460666 5.2021679.35656 7.7248913-.305139 2.2536363-.353128 4.3946696-1.228014 6.2539354-2.555535 1.2906452-1.048914 2.5433303-2.574606 4.194597-2.412501 1.8980077.181176 2.7710912 2.39343 3.198143 4.252868 3.8624456 16.897045 2.8470115 34.480651 1.736677 51.787726-.3606215 5.721347-.483992 11.69062-.5883824 17.440573 0 2.031079 0 4.243333 1.224215 5.854846 1.736677 2.240861 5.0107403 2.345752 7.838772 2.240861 1.822087-.076285 3.852955-.23839 5.10564-1.582906 1.252686-1.344517 1.271666-3.194419 1.281156-4.93943.11388-18.251097-.607363-36.476766-2.163729-54.677007-.417562-4.815467.778183-16.515622.721243-21.35016-.04745-5.091999 1.651266-12.958852 2.53384-17.974566 2.220669-12.720461 4.431848-15.132963 6.329856-27.901102 1.736802 1.267185 3.698389 2.189574 5.779433 2.717639 2.106789.390959 4.536239-.190711 5.750963-1.964329.736449-1.319226 1.094513-2.817767 1.034415-4.329152.172411-3.893398.121714-7.793539-.151841-11.681084.003732-.916118-.214492-1.819385-.635833-2.63182-.632344-.851537-1.486093-1.511419-2.46741-1.907115l-12.773591-6.388838c-1.340433-.820037-2.864274-1.288891-4.431848-1.363588-1.735831.195467-3.34648 1.002967-4.545729 2.279004-6.975178 6.550942-7.0131381 17.373824-7.962142 26.918938-.7971632 8.028957-2.6667008 16.15327-7.0700786 22.885388-4.4033779 6.732118-11.6822374 11.957615-19.7108099 12.300896-4.9735919.276153-9.955524-.363715-14.7000696-1.888044z" opacity=".34"/><path d="m81 28.6518887v47.3728177c0 2.9424549-2.3626048 5.3277859-5.2770256 5.3277859h-34.4459488c-2.9144208 0-5.2770256-2.385331-5.2770256-5.3277859v-47.3728177c.0205726-2.9292019 2.3756631-5.2942762 5.2770256-5.2993964h34.4459488c2.9013625.0051202 5.256453 2.3701945 5.2770256 5.2993964z"/><path d="m79.4553184 192.224286c-.5916312.899068-1.4317314 1.599219-2.4140443 2.011898-.9881054.21508-2.0164204.130607-2.9579199-.242983-7.2897855-2.235444-13.8721187-6.389113-19.0833542-12.042225.6714735-1.518852 1.5517758-2.932612 2.6144195-4.198742 3.3882285 1.399248 6.9864057 2.198023 10.63897 2.361793.4973854.065876 1.0027238-.022173 1.4503349-.252702.3035251-.237355.5485509-.543515.7156258-.894177 1.7175018-2.974109 3.3077814-6.019492 4.7708385-9.136151 1.9083354-4.130707 3.8166708-8.640466 7.6333417-11.060574.3381447-.254989.743708-.400594 1.1640846-.417931.435343.056852.8457626.238911 1.1831679.524843 2.8625032 1.943862 6.0685067 4.179303 7.3852581 7.6005 1.1354596 2.915793-.0954168 4.781901-1.5743767 7.279763-3.7880458 6.288393-6.9463409 12.683699-11.5263459 18.466688z"/><path d="m93.6659237 219.352492c-2.5895988-.739464-4.3816762-3.251749-5.0759889-5.887277s-1.7639296-10.42835-1.5950427-13.13024c.8079969-12.960635.4751707-25.96817-.994556-38.869303-.0844435-.720505 15.7721579-4.929766 17.2639919-3.972254 3.556007 2.275277.638017 13.329327.075061 16.893927-2.167382 13.670618-5.2917892 31.872828-9.6734653 44.965147z"/><path d="m98 35.352492h80v5h-80z"/><path d="m98 48.352492h58v5h-58z"/><path d="m98 60.352492h80v5h-80z"/><path d="m98 74.352492h72v5h-72z"/><path d="m36 91.352492h142v5h-142z"/><path d="m36 105.352492h111v5h-111z"/><path d="m36 117.352492h142v5h-142z"/><path d="m36 130.352492h125v5h-125z"/><path d="m203 201.00294-6.679389 3.349552-48.320611-77.049246c2.862595-1.374175 4.332061-1.908576 6.679389-3.950754z"/></g><path d="m203 201.001361-6.684028 3.351131-48.315972-77.047383c2.864583-1.365276 4.335069-1.909477 6.684028-3.952617z" fill="url(#b)"/><path d="m133.5 62.3524923c-19.052587 0-34.4982495 15.4442446-34.5 34.4968297-.0017505 19.052585 15.441074 34.499667 34.49366 34.50317 19.052585.0035 34.501087-15.437904 34.50634-34.4904883 0-19.0553628-15.444638-34.5042591-34.5-34.5095114zm-.694376 62.7030607c-11.396397.003846-21.67277-6.858216-26.036648-17.386009-4.363879-10.5277931-1.955734-22.647718 6.101375-30.7075477 8.057109-8.0598298 20.17622-10.4720664 30.705487-6.1117433 10.529266 4.360323 17.394799 14.6343781 17.394799 26.0307747 0 15.5418053-12.585181 28.1482883-28.126965 28.1745253z" fill="#4a67c6"/><path d="m133.5 62.3524923c-19.052587 0-34.4982495 15.4442446-34.5 34.4968297-.0017505 19.052585 15.441074 34.499667 34.49366 34.50317 19.052585.0035 34.501087-15.437904 34.50634-34.4904883 0-19.0553628-15.444638-34.5042591-34.5-34.5095114zm-.694376 62.7030607c-11.396397.003846-21.67277-6.858216-26.036648-17.386009-4.363879-10.5277931-1.955734-22.647718 6.101375-30.7075477 8.057109-8.0598298 20.17622-10.4720664 30.705487-6.1117433 10.529266 4.360323 17.394799 14.6343781 17.394799 26.0307747 0 15.5418053-12.585181 28.1482883-28.126965 28.1745253z" fill="url(#c)"/><path d="m161 96.3426318c.003822 11.3264972-6.816658 21.5396622-17.280245 25.8758912-10.463588 4.336229-22.509003 1.941304-30.518046-6.067739-8.009044-8.009044-10.403969-20.0544586-6.06774-30.5180462 4.336229-10.4635875 14.549395-17.2840671 25.875892-17.2802455 15.456364.005219 27.98492 12.5337748 27.990139 27.9901395z" fill="#fff" opacity=".53"/><path d="m214.318085 146.903742c-.438788.101406-.997246.165937-1.186722.525468-.121957.248065-.160186.524355-.109697.79281l.478678 5.11639c.014178.820401.228961 1.627206.628264 2.359993.867603 1.327496 2.742425 1.687026 4.407824 1.843745 1.6654.156718 3.530249.414842 4.587329 1.622495.568429.64531.85763 1.539526 1.635482 1.954369.726378.275684 1.534082.308289 2.283692.092187.519307-.04309 1.012646-.229365 1.416088-.534686.499413-.623901.542718-1.464578.109697-2.129525-.425999-.619257-.796226-1.26983-1.106942-1.94515-.408871-1.419683.498622-2.830148.997245-4.212956 1.146541-2.861503.439382-6.076474-1.824959-8.29685-1.960603-1.694568-4.798583-2.199911-7.299836-1.29984-2.273719.802029-2.423306 3.53999-5.016143 4.11155z" fill="url(#e)"/><path d="m218.260009 138.234787c-.148945-.156432-.367603-.239738-.591851-.22549-.224247.014249-.428668.124438-.553314.298254-.094578.183864-.131874.388661-.107665.591206.124724 1.347595.809302 2.59708 1.908609 3.483572 1.093857.8733 2.284923 1.635577 3.552947 2.273871.809624.378959 1.505686.938297 2.026061 1.628092.549907 1.131907.619818 2.414984.195755 3.592717-.068514.281961-.107665.654875.176179.791308.283845.136432.69493-.218292 1.086439-.291056.459723-.021011.854206.301259.890684.727639.013644.417888-.124241.827911-.39151 1.164222-.204034.374625-.515705.689438-.900471.909549-.137028.054573-.293632.118241-.322995.254674-.029364.136432.088089.227387.185967.309246.460023.391106.929834.773117 1.409433 1.136936.268699.244195.609336.408798.978774.472965.55507-.050381 1.060661-.318384 1.389858-.736734l3.063561-2.98332c.303961-.24741.539023-.559463.685142-.909548.077851-.314232.077851-.640795 0-.955026-.093615-.982829-.701042-1.860133-1.624764-2.346636.708704-.749771 1.061636-1.733681.978773-2.728646-.051067-1.651532-.859641-3.203956-2.221816-4.265783-1.33381-.851249-2.769093-1.556286-4.27724-2.101057-1.727711-.803727-3.267716-1.916451-4.531721-3.274376-.210001-.286438-.501384-.513133-.841745-.654875-.73408-.227387-1.536675.472966-1.869458 1.036886-.387654.887697-.489659 1.860882-.293632 2.80141z" fill="#fe9f24"/><path d="m210.843441 173.162183c-.651276.495818-1.390117.865516-2.178197 1.089916-.857563.130639-1.731629.107976-2.581212-.066925-6.304296-.956066-12.570211-2.218075-18.759361-3.766903-.477602-.197741-1.020417-.162392-1.468123.095607-.218883.237995-.365315.533109-.422206.850899l-1.276212 4.780334c-.20311.380951-.210978.835743-.021166 1.223443.189812.387699.554378.661477.980724.736494 5.443893 2.453905 10.913374 4.840885 16.408443 7.16094 1.760011.879943 3.677785 1.403138 5.642202 1.539268 1.522007-.061512 3.021853-.384973 4.433158-.956067 4.859591-1.734025 9.449796-4.14147 13.635321-7.15138l12.272748 12.199412c2.091837 2.084226 4.471541 4.29274 7.42698 4.455271 1.73249-.024636 3.438677-.425975 4.999298-1.175962 3.518379-1.38311 7.017568-2.814023 10.497565-4.29274.607475-.171045 1.128136-.563533 1.458529-1.099476.144091-.428074.144091-.891298 0-1.319372-.510907-1.624184-1.409836-3.100544-2.619594-4.302301-6.706642-7.708958-14.264555-14.639633-22.530424-20.660603-1.640845-1.195083-3.646321-2.676986-5.69018-3.088095-1.7368-.353745-3.780659.898703-5.267974 1.740041-3.540769 2.017301-6.515399 4.86638-9.547603 7.543367-1.70626 1.594481-3.507072 3.085441-5.392716 4.464832z" fill="#4a67c6"/><path d="m211.372038 255.892523c-.442959.718732-.493557 1.610888-.134676 2.374676.414679.447277.986624.718212 1.596868.756449 2.163741.374675 4.37118.429526 6.551007.16278 1.991275-6.214373 5.617897-11.768049 9.19642-17.235548 5.387024-8.247529 10.777255-16.485483 16.170693-24.713862 6.223937-9.517853 12.505592-19.150609 16.24765-29.884526-.221253.641546-9.273378 2.451278-10.485458 2.872592-2.683893.95753-6.387472 2.03954-8.734675 3.715218-5.040716 3.619465-8.147875 12.696854-10.899105 18.116476-7.234004 14.29593-13.371364 29.070625-19.508724 43.835745z" fill="#3e3e54"/><path d="m211.372038 255.892523c-.442959.718732-.493557 1.610888-.134676 2.374676.414679.447277.986624.718212 1.596868.756449 2.163741.374675 4.37118.429526 6.551007.16278 1.991275-6.214373 5.617897-11.768049 9.19642-17.235548 5.387024-8.247529 10.777255-16.485483 16.170693-24.713862 6.223937-9.517853 12.505592-19.150609 16.24765-29.884526-.221253.641546-9.273378 2.451278-10.485458 2.872592-2.683893.95753-6.387472 2.03954-8.734675 3.715218-5.040716 3.619465-8.147875 12.696854-10.899105 18.116476-7.234004 14.29593-13.371364 29.070625-19.508724 43.835745z" fill="url(#f)"/><g fill="#3e3e54"><path d="m245.431431 222.792471c-.021699 2.663979 1.330539 5.153133 3.58252 6.594583 8.87967 7.414141 18.295759 14.17073 27.70227 20.965438 2.573521-.960086 4.773936-2.708709 6.283779-4.993586-7.292013-5.124778-14.156806-10.826156-20.52765-17.048713-1.52305-1.438991-3.122732-3.039989-3.438836-5.098413-.258632-1.677235.392736-3.344941.957893-4.955468 2.021154-5.994209 2.758732-12.321959 3.486731-18.602061.402315-3.478357.766314-7.175898-.795052-10.311184-.26812-.624506-.701871-1.164734-1.25484-1.562878-1.053682-.667082-2.423469-.428838-3.630415-.123887-3.757401.868973-7.413846 2.124113-10.910402 3.74519-2.87368 1.419932-2.940732 2.649269-2.87368 5.717847.124526 8.538651.478947 17.105891 1.417682 25.673132z"/><path d="m212.126736 258.352492c-2.428648.700294-4.363825 2.441565-6.211919 4.126055-.580554.529952-1.209486 1.353271-.764396 1.996784.298507.328714.721556.523626 1.170783.539415 2.068803.329258 4.170147.418201 6.260299.264976 1.258097-.041554 2.489603-.365334 3.59943-.946343 1.121903-.599114 1.819608-1.749732 1.819067-2.999907-.186229-1.337661-1.19955-2.42294-2.544759-2.725467-1.327759-.267605-2.709048-.087477-3.918734.511025"/><path d="m274.489954 251.400749c-.896778.97238-1.874265 2.410263-1.336199 3.713667.442814.827918 1.248433 1.302537 2.089492 1.230992 1.321079-.149715 2.588418-.679697 3.685755-1.541327 2.690333-1.748216 5.542085-3.361955 8.070998-5.389472-3.02214-8.234203-8.70771-2.058551-12.510046 1.98614z"/></g><path d="m177.298931 165.038408c-.273701-.247464-.58258-.447009-.915078-.591168-.474516-.172222-.996613-.107455-1.421292.176313-.770031.637837-1.120015 1.695643-.895608 2.706928.136288 1.037137.564622 1.949817.749585 2.945469.036717 1.002871.30057 1.981401.769055 2.852126.759604.716145 1.75152 1.088247 2.764704 1.037137 2.190346.207428 6.561304.943795 5.480733-3.11141-.642501-2.406158-4.760352-4.563403-6.532099-6.015395z" fill="url(#g)"/><path d="m73.6861125 82.3524923h-31.080422c-1.8518433-2.4182128 1.0404687-11.592068 2.042755-13.9910887.4295513-1.0267809 6.9969132-10.5556911 7.3500998-9.9031575-2.0236639-3.5025702-4.1236924-7.2450425-3.9995998-11.3041855.1431838-5.0763278 4.0282365-9.5960828 8.8201198-11.2178208 5.2596168-1.7464871 12.0656183.4989963 13.7551867 5.7576497.5086223 1.844883.5805423 3.7838501.2100029 5.6616888-.7688628 4.6090452-2.9320718 8.8678801-6.1950841 12.1966213 4.9637037 1.5641615 7.2260072 7.2354464 8.4955699 12.3021781.6968276 2.888421 1.307745 7.6000976.6013718 10.4981146z" fill="url(#h)"/><path d="m108.96091 108.87323c0 1.081752-.087303 2.296351-.970029 2.99854-.774516.555141-1.802739.635901-2.65788.20876-.834044-.428755-1.542003-1.05923-2.056461-1.831387-.639098-.839344-1.167103-1.754391-1.571447-2.723358-.536712-1.289802-.772019-2.680623-.688721-4.070803.030207-.710962.208451-1.40841.523816-2.049635.767401-1.319347 2.222882-2.1099327 3.773413-2.0496355 1.542346.0569343 3.715211 1.0437955 3.68611 2.7233575 0 2.258395-.009701 4.526278-.038801 6.794161z" fill="url(#i)"/><path d="m105.514162 116.352492c-.199704.667575-.304311 1.557673.294802 1.886623.26016.115047.545495.158424.827347.125775 1.59047-.101406 3.147713.493588 4.279381 1.635073.807915 1.024216 1.283113 2.278495 1.359892 3.58942.123626 1.286774.076078 2.592897.256763 3.869995.285292 1.934998 4.754867 5.137419 5.078198 4.256995.741491-2.129457.969779-4.408871.665681-6.646717-.104607-.773999-.180685-1.731822.456468-2.138172.37609-.183981.804429-.225158 1.207736-.1161 1.24452.196297 2.449124.598273 3.56615 1.190024-.456467 1.141648 1.654694 11.300385 1.483519 13.796532-.665681 9.829788-12.581379 1.934998-14.606952.803024-.561075-.299924-1.179208-.899774-.950974-1.489948-.484996 3.686171-1.150678 7.614216-1.635674 11.300386-.418429 3.154046-.893915 6.462892-2.738804 9.036439-1.516229 1.935085-3.516776 3.418957-5.7914284 4.295694-5.0591788 2.176872-11.2405064 2.360697-15.7386109-.832049-.9277919-.586312-1.6730458-1.428389-2.1492-2.428422-.3282156-.982348-.4449713-2.025012-.3423505-3.057296.212691-6.588227 1.0534906-13.139893 2.51057-19.562825 1.1316584-5.011644 2.8529204-10.226462 6.704363-13.544983 3.6707575-3.115346 10.4892378-5.417993 15.2631238-5.969468z" fill="#fff"/><path d="m101.157899 89.3524923c-3.163533-.0201261-6.1907765 1.2665119-8.3453917 3.5471936-2.1184135 2.2755036-3.7305912 4.9616617-4.7332072 7.8863161-.9581391 2.547016-1.7438132 5.235532-3.3918124 7.424079-2.2228827 2.962085-5.7488346 4.622362-8.9106936 6.603375-3.1618591 1.981012-6.2662298 4.716696-6.7069737 8.414586-.2395348 2.037612.4119998 4.103525.1628836 6.131704-.3066045 2.471549-1.9162782 4.980831-.9006507 7.273146.393485.826646 1.0057657 1.533741 1.7725573 2.047046 3.1938708 2.230073 7.4702174 2.230073 10.6640882 0 3.2959985-2.414949 4.5607421-6.763742 7.6076244-9.480559 3.3439055-2.980952 8.2399963-3.537522 12.0150648-5.952471 4.084234-2.659815 6.48294-7.208319 6.34288-12.027575-.067069-1.745177-.479069-3.528088 0-5.207232.47907-1.679144 1.695907-2.905485 2.107906-4.518595.517396-1.9810122-.34493-5.6600352-1.03479-7.6033139-.900651-2.6979502-3.870882-4.3959608-6.649485-4.5376998z" fill="#fe9f24"/><path d="m118.697095 120.457241c-.304366-.378564-.529875-.811335-.663869-1.274025-.134607-.483587.151588-.983422.644902-1.126312.22636.006396.452634-.015321.673353-.064624.120606-.057536.227282-.139353.312967-.240034.390485-.329756.915269-.465983 1.422577-.369283.510797.114106.93622.456362 1.147546.923207.295512-.038138.589177.081857.768191.31389.170497.229218.281161.495366.322451.775493.016156.171113.074736.335851.170709.480068.085355.110784.218129.166177.312967.267729.18211.273117.237221.608413.151742.923207l-.256064 1.911037c-.004231.073765-.023579.14596-.056903.212337-.132774.22157-.474192.175409-.730256.101553-.67771-.184573-1.374219-.296028-2.076963-.332354-1.659673-.073857-1.403609-1.310953-2.14335-2.501889z" fill="url(#j)"/><path d="m87.3195232 222.560516c-.0300499.429661.028406.861119.1712947 1.264312.466302 1.112596 1.9032735 1.385687 3.1784667 1.456489 2.4779052.133352 4.9615956.079272 7.4322831-.161832.5699425.005198 1.1254498-.190424 1.579717-.556298.4720013-.603569.4132843-1.495109-.1332291-2.022901-.5575019-.537501-1.225592-.928912-1.9508554-1.142938-.7265621-.212348-1.4016373-.588348-1.9794044-1.102481-.5814628-.688802-.8825686-1.594345-.8374404-2.518511 0-.910305.1141964-1.810496 0-2.710687.0009713-.159983-.0653383-.312065-.180811-.414694-.1072158-.063504-.2297832-.091671-.3521056-.080916-1.5892333-.050573-5.5099768-.748474-6.6614573.657442-1.1514804 1.405916-.2474255 5.613549-.2664583 7.333015z" fill="#3e3e54"/><path d="m52.7848139 172.806324c-.3942949-.246511-.8447164-.401992-1.3147266-.453832-.6495075.050635-1.2615884.307287-1.7362421.728022-2.1652611 1.588175-4.0341945 3.505444-5.5298808 5.672899-.8229587 1.172399-1.5756648 2.713536-1.0036081 4.056122 2.1778296.463287 4.4961644.945483 6.5535611 0 .6814954-.386266 1.3888491-.730513 2.1176131-1.030577.8749558-.2622 1.8268965-.162555 2.6194173.27419.7527061.406558 1.4652678 1.125125 2.2982626 1.021122.5342362-.127699 1.0034226-.429072 1.3247627-.850935 1.1842576-1.342586 2.6093812-4.15067 1.4652679-5.824175s-5.1585458-2.732446-6.7944271-3.592836z" fill="#3e3e54"/><path d="m74.8304072 225.776006 26.1695928-.423514v56h-79v-21.252664h17.8958791v-13.831557h24.638137v-20.578893z" fill="#4a67c6"/></g></svg>