<?xml version="1.0" encoding="UTF-8"?>
<svg width="319px" height="347px" viewBox="0 0 319 347" version="1.1" xmlns="http://www.w3.org/2000/svg" xmlns:xlink="http://www.w3.org/1999/xlink">
    <title>proofiling</title>
    <defs>
        <linearGradient x1="103.501595%" y1="17.2184672%" x2="-20.6928884%" y2="119.784626%" id="linearGradient-1">
            <stop stop-color="#000000" offset="1%"></stop>
            <stop stop-color="#000000" stop-opacity="0.69" offset="8%"></stop>
            <stop stop-color="#000000" stop-opacity="0.32" offset="21%"></stop>
            <stop stop-color="#000000" stop-opacity="0" offset="100%"></stop>
        </linearGradient>
    </defs>
    <g id="Page-1" stroke="none" stroke-width="1" fill="none" fill-rule="evenodd">
        <g id="CDU-desktop" transform="translate(-971.000000, -120.000000)" fill-rule="nonzero">
            <g id="proofiling" transform="translate(971.000000, 120.000000)">
                <path d="M159.252016,1.30343122 C117.763665,7.50685443 78.582883,35.789709 58.5520431,77.5169163 C52.8070604,89.5238904 48.4887483,102.373839 42.274592,114.110629 C35.3040129,127.079458 25.9971409,138.383954 18.6627129,151.104213 C-3.57994531,189.362259 -5.53323944,240.383794 10.629312,281.873239 C22.8086754,313.160539 46.0567056,331.381744 76.4189395,331.511432 C91.3654696,331.565469 105.364078,325.621422 120.023359,324.81087 C140.255273,323.730135 161.502134,331.025101 180.939326,336.407165 C202.65536,342.416056 224.811844,348.295258 247.140677,346.749806 C269.46951,345.204354 292.363266,335.218356 305.682051,314.943753 C318.866786,294.885298 320.810506,267.920941 317.71779,243.193707 C314.625074,218.466473 307.012972,194.744323 302.943609,170.222429 C298.251873,141.853115 298.156124,112.262571 289.2514,85.2225622 C275.597491,43.7763462 241.299944,12.96457 203.134109,3.31359972 C188.726502,-0.274497745 173.869848,-0.955057304 159.252016,1.30343122 Z" id="Path" fill="#5B6EDC" opacity="0.18"></path>
                <path d="M236,57.2667834 L236,277.744016 C235.994043,288.372121 227.378969,296.988087 216.746007,297 L121.264798,297 C110.625146,297 102,288.378802 102,277.744016 L102,57.2667834 C101.997137,52.1597788 104.024066,47.2608057 107.63489,43.6475827 C111.245714,40.0343598 116.144652,38.0028635 121.253993,38 L216.746007,38 C221.855348,38.0028635 226.754286,40.0343598 230.36511,43.6475827 C233.975934,47.2608057 236.002863,52.1597788 236,57.2667834 Z" id="Path" fill="#5B6EDC"></path>
                <rect id="Rectangle" fill="#473F47" x="104" y="41" width="129" height="252" rx="17.24"></rect>
                <path d="M230,62.5884287 L230,270.411683 C229.898771,280.222234 221.832466,288.094963 211.980105,288 L126.041567,288 C122.902297,288.007511 119.814582,287.204464 117.08038,285.668527 C111.49835,282.599605 108.023373,276.760952 108,270.411683 L108,62.5884287 C108.107152,52.7718939 116.183195,44.8991285 126.041567,45 L140.561506,45 L140.561506,47.558171 C140.633908,50.9894356 142.770909,54.040906 145.979394,55.2944917 C147.015022,55.7006576 148.117092,55.9128214 149.230127,55.9203029 L189.149125,55.9203029 C193.886349,55.9208336 197.746687,52.1345169 197.817746,47.417903 L197.817746,45 L211.904254,45 C216.556987,44.974994 221.04311,46.7240001 224.441247,49.8887781 C227.984652,53.1697948 229.998326,57.770278 230,62.5884287 Z" id="Path" fill="#5B6EDC"></path>
                <path d="M229,161 L229,222 L176.480693,222 C175.026256,222.002876 173.630562,221.423292 172.602117,220.389348 C171.573673,219.355404 170.997171,217.952247 171,216.490033 L171,216.490033 L171,166.520803 C170.994305,165.058593 171.568059,163.654294 172.594479,162.618314 C173.6209,161.582334 175.015461,161 176.469905,161 L229,161 L229,161 Z" id="Path" fill="#020202" opacity="0.1"></path>
                <path d="M78.5427944,212 L117.457206,212 C118.131597,212 118.778366,212.263392 119.255233,212.732233 C119.732099,213.201074 120,213.836959 120,214.5 L120,214.5 C120,215.880712 118.861552,217 117.457206,217 L78.5427944,217 C77.1384478,217 76,215.880712 76,214.5 L76,214.5 C76,213.836959 76.2679008,213.201074 76.7447672,212.732233 C77.2216337,212.263392 77.8684034,212 78.5427944,212 L78.5427944,212 Z" id="Path" fill="#473F47"></path>
                <polygon id="Path" fill="#FCBDBA" points="85.2188498 199.074271 84 206.628647 87.3546326 207 91 199"></polygon>
                <path d="M88.5035857,205.763477 C88.3509859,205.641641 88.2143338,205.504298 88.0963203,205.354153 C87.7657857,205.535684 87.3663242,205.582785 86.9956032,205.483938 L85.3555347,205.224367 C85.062497,205.19593 84.7763631,205.125151 84.5079825,205.014713 C84.4705205,204.995096 84.4243655,204.995096 84.3869036,205.014713 L84.3869036,205.014713 L84.0236669,205.633691 C83.4277699,206.728008 83.0796949,207.919538 83,209.137906 C86.1250409,209.805298 89.3350441,210.087379 92.5432175,209.976522 C93.0675899,210.035907 93.5872833,209.838239 93.9081068,209.457379 C94.0306311,209.202749 94.0306311,208.913327 93.9081068,208.658697 C93.606823,208.073229 93.0536789,207.625667 92.37811,207.420741 C91.5305578,207.091285 90.6609912,206.831713 89.8244462,206.422389 C89.3498871,206.264735 88.9045117,206.042559 88.5035857,205.763477 Z" id="Path" fill="#5B6EDC"></path>
                <polygon id="Path" fill="#FCBDBA" points="106.076923 201.189225 105 208.695138 108.436989 209 112 201"></polygon>
                <path d="M216.989208,92.8484467 L216.989208,116.772493 C216.989208,123.322061 211.703242,128.631535 205.182673,128.631535 L136.059406,128.631535 L108,161 L108,81 L205.128713,81 C208.259016,80.9800602 211.268934,82.2105134 213.495557,84.420607 C215.72218,86.6307006 216.98288,89.6391634 217,92.7834063 L216.989208,92.8484467 Z" id="Path" fill="#020202" opacity="0.1"></path>
                <rect id="Rectangle" fill="#FFFFFF" x="112" y="71" width="102" height="48" rx="10.93"></rect>
                <path d="M125.60728,113.416084 C125.206872,113.447699 124.804586,113.385071 124.43336,113.233327 C123.848755,112.816423 123.457297,112.185344 123.346396,111.481011 C121.400732,105.557536 117.389837,99.7738172 111.389799,98 C109.824572,104.32124 109.944138,110.900489 110.063704,117.425986 C110.063704,119.167552 110.259358,121.156378 111.66154,122.188417 C112.584997,122.747177 113.656135,123.020447 114.737647,122.973196 C121.555622,123.218152 128.328046,121.780989 134.444292,118.791288 C136.29213,117.888254 140.074762,114.35137 136.553001,113.201076 C135.466038,112.846313 133.129066,113.383833 131.998624,113.394583 L125.60728,113.416084 Z" id="Path" fill="#020202" opacity="0.1"></path>
                <circle id="Oval" fill="#5B6EDC" cx="212.5" cy="71.5" r="8.5"></circle>
                <circle id="Oval" fill="#020202" opacity="0.28" cx="212.5" cy="71.5" r="8.5"></circle>
                <path d="M134.343834,86 L189.656166,86 C190.95063,86 192,87.1192881 192,88.5 L192,88.5 C192,89.8807119 190.95063,91 189.656166,91 L134.343834,91 C133.04937,91 132,89.8807119 132,88.5 L132,88.5 C132,87.1192881 133.04937,86 134.343834,86 Z" id="Path" fill="#5B6EDC"></path>
                <rect id="Rectangle" fill="#5B6EDC" x="132" y="99" width="60" height="5" rx="2.17"></rect>
                <polygon id="Path" fill="#473F47" points="85 144.961717 89.7660654 171.671251 85 200.407173 92.7328072 201 104 168.642446 100.176437 143"></polygon>
                <polygon id="Path" fill="#473F47" points="111.40223 143 120 178.526032 113.042453 203 106.170669 202.644524 107.124786 181.768402 95 148.030521"></polygon>
                <path d="M135.964938,113.447767 C136.982359,112.859712 138.07546,112.405692 139.21561,112.0976 C139.576438,111.94551 139.99051,111.97238 140.327404,112.169746 C140.505035,112.329945 140.620888,112.544568 140.655647,112.777837 C140.835719,113.526888 140.772832,114.311855 140.475643,115.024679 C141.760937,115.712249 143.107668,116.284896 144.499276,116.735577 C145.087162,116.831866 145.606125,117.164889 145.928724,117.652866 C146.107266,118.167617 145.943352,118.736271 145.515772,119.085486 C145.092782,119.416498 144.589715,119.636497 144.054558,119.724496 C140.560351,120.518106 134.874322,119.724496 134.048419,115.663689 C133.868414,114.77732 134.196658,114.633028 134.927265,114.10739 C135.266097,113.870338 135.604929,113.653899 135.964938,113.447767 Z" id="Path" fill="#FCBDBA"></path>
                <path d="M108.454089,80.5969356 C109.258731,82.2007117 109.772949,83.9362761 109.972571,85.7220496 C110.159639,87.5394004 109.380435,89.3212121 107.923151,90.4084795 C107.490418,90.6153897 107.083981,90.8740414 106.712612,91.1788516 C105.438361,92.5056034 106.90375,94.9130161 106.160437,96.624954 C105.563785,97.7920761 104.181701,98.3073409 102.974809,97.8126109 C101.808229,97.2806083 100.942098,96.2467031 100.617445,94.998613 C100.28722,93.7537584 100.140527,92.466728 100.182076,91.1788516 L100.054651,83.50723 C99.8753958,81.8030392 100.138861,80.0811643 100.819202,78.5105113 C101.752142,76.8764203 103.516856,75.9087754 105.385268,76.0068022 C107.275406,76.2849921 107.816963,79.0882903 108.454089,80.5969356 Z" id="Path" fill="#FCBDBA"></path>
                <path d="M135.896113,119.040121 C135.896113,119.040121 121.080169,132.346361 120.023427,132.346361 C118.966686,132.346361 112.399793,123.985227 112.399793,123.985227 L111.86064,142.91978 C110.027943,144.00044 108.121806,144.94988 106.156393,145.761047 C102.92147,147.08408 98.8993835,148.309512 95.373318,147.929953 C88.170224,147.268437 85,144.839262 85,144.839262 L89.4318438,100.235703 C89.4318438,100.235703 97.821076,94.1736093 100.689374,95.0953945 C102.739862,95.4642143 104.839154,95.4642143 106.889642,95.0953945 C111.030343,94.5423234 115.268091,100.235703 115.268091,100.235703 L120.767459,118.432827 L133.707149,113.813056 C135.444043,114.93028 136.314906,117.00983 135.896113,119.040121 L135.896113,119.040121 Z" id="Path" fill="#FFFFFF"></path>
                <path d="M109.978202,72.1387665 C110.074704,71.158029 109.849017,70.1724198 109.336322,69.3355689 C108.341408,67.9339701 106.330184,67.8035888 104.671994,68.1838675 C103.532885,68.5035934 102.428847,68.9404573 101.37701,69.4876804 C100.610412,69.8135646 99.7712092,69.9224502 98.9485642,69.8027685 C96.7622814,69.7728019 94.6441539,70.5751463 93.011174,72.0518456 C90.7859899,74.224867 90.2510899,77.3866132 90.0264319,80.3636525 C89.7803779,83.7318356 91.278098,86.513303 93.439094,89.0557381 C95.3112441,91.2939501 98.6918122,93.4887017 101.120258,90.6637739 C102.195094,89.2231856 102.685176,87.4188846 102.489602,85.6223642 C101.286697,85.52458 100.285803,84.6444685 100.018364,83.4493429 C99.8365846,82.7108403 100.090777,81.9321188 100.670942,81.4501632 C101.02374,81.2308252 101.448181,81.1636814 101.849949,81.2636521 C102.251717,81.3636229 102.59753,81.6224268 102.810542,81.9825534 C102.873866,82.0958276 102.924122,82.2161379 102.960314,82.3411019 C103.309726,81.6257797 103.561658,80.8654889 103.709174,80.0811597 C103.99802,79.3314673 104.928746,78.6795609 105.538532,79.1793558 C105.891566,79.4727137 106.105526,80.0920248 106.554842,79.9942388 C106.704443,79.9398104 106.834761,79.8414908 106.929272,79.711746 C107.815629,78.8440834 108.566041,77.8437827 109.154456,76.7455718 C109.688894,75.4438426 109.968681,74.0488884 109.978202,72.6385614 C109.967504,72.497315 109.978202,72.3126082 109.978202,72.1387665 Z" id="Path" fill="#FFA000"></path>
                <path d="M81.6349572,71.0572207 C78.4299664,70.6659897 75.3201757,72.3074665 73.845475,75.1688332 C72.1229052,78.6761142 73.3579553,82.8093099 73.6396333,86.7050897 C74.1691557,89.4883171 72.6939535,92.2659631 70.0861561,93.3959027 C67.3235442,95.0470227 64.1600827,96.158561 61.9499932,98.5003455 C60.2138326,100.427241 59.1895987,102.8865 59.0465422,105.471741 C58.9033951,106.552517 59.0922494,107.651136 59.5882308,108.622898 C60.0742426,109.335793 60.7054499,109.938807 61.4408059,110.392726 C65.5516308,113.373852 70.6947361,114.579745 75.7088838,113.738132 C80.6274164,112.734511 85.0584292,108.935855 86.0984713,104.025662 C87.1818486,98.8456778 84.5492419,93.6980685 83.5525349,88.5072926 C83.1719173,87.2779771 83.3169271,85.9467331 83.9533844,84.8273455 C84.7767511,83.7481821 86.3151468,83.4675996 87.496028,82.7661434 C93.9746237,78.9782799 86.3801494,71.726302 81.6349572,71.0572207 Z" id="Path" fill="#FFA000"></path>
                <rect id="Rectangle" fill="#5B6EDC" x="88" y="76" width="5" height="5" rx="2.27"></rect>
                <path d="M109.426535,207.70832 C109.270416,207.583303 109.130086,207.442096 109.008263,207.287434 C108.680503,207.479839 108.281411,207.535669 107.907546,207.441417 L106.25647,207.215576 C105.963432,207.186336 105.677299,207.113557 105.408918,207 L105.287839,207 L104.946617,207.646727 C104.376207,208.784031 104.054407,210.015905 104,211.270451 C107.141066,211.897335 110.359122,212.121822 113.565232,211.937708 C114.087778,211.995275 114.602459,211.782815 114.908107,211.383371 C115.030631,211.121549 115.030631,210.823953 114.908107,210.562131 C114.589579,209.97127 114.030653,209.523943 113.356096,209.320004 C112.497536,209.001774 111.616963,208.745136 110.780418,208.375578 C110.298951,208.211061 109.843535,207.98661 109.426535,207.70832 L109.426535,207.70832 Z" id="Path" fill="#5B6EDC"></path>
                <path d="M110.284415,218 L105.320641,218 L101.349622,228.693321 L80.8470788,228.693321 L84.8180977,218 L79.854324,218 L45,312 L49.9637737,312 L53.4168337,302.70661 L73.9193772,302.70661 L70.4663172,312 L75.430091,312 L78.8831509,302.70661 L79.0234315,302.70661 L79.0234315,302.308168 L110.025435,218.721503 L110.025435,312 L115,312 L115,218 L110.284415,218 Z M99.98998,232.311605 L94.8319716,246.310918 L74.3294281,246.310918 L79.509018,232.311605 L99.98998,232.311605 Z M67.8117774,263.863902 L72.9805765,249.929202 L93.4831201,249.929202 L88.3143209,263.863902 L67.8117774,263.863902 Z M86.9438878,267.514492 L81.7858795,281.449192 L61.2833359,281.449192 L66.452135,267.514492 L86.9438878,267.514492 Z M54.776476,299.077558 L59.9344844,285.078245 L80.4370279,285.078245 L75.257438,299.077558 L54.776476,299.077558 Z" id="Shape" fill="#5B6EDC"></path>
                <path d="M110.284415,218 L105.320641,218 L101.349622,228.693321 L80.8470788,228.693321 L84.8180977,218 L79.854324,218 L45,312 L49.9637737,312 L53.4168337,302.70661 L73.9193772,302.70661 L70.4663172,312 L75.430091,312 L78.8831509,302.70661 L79.0234315,302.70661 L79.0234315,302.308168 L110.025435,218.721503 L110.025435,312 L115,312 L115,218 L110.284415,218 Z M99.98998,232.311605 L94.8319716,246.310918 L74.3294281,246.310918 L79.509018,232.311605 L99.98998,232.311605 Z M67.8117774,263.863902 L72.9805765,249.929202 L93.4831201,249.929202 L88.3143209,263.863902 L67.8117774,263.863902 Z M86.9438878,267.514492 L81.7858795,281.449192 L61.2833359,281.449192 L66.452135,267.514492 L86.9438878,267.514492 Z M54.776476,299.077558 L59.9344844,285.078245 L80.4370279,285.078245 L75.257438,299.077558 L54.776476,299.077558 Z" id="Shape" fill="url(#linearGradient-1)"></path>
                <rect id="Rectangle" fill="#FFFFFF" x="171" y="154" width="86" height="61" rx="5.08"></rect>
                <path d="M186.343834,176 L241.656166,176 C242.95063,176 244,177.119288 244,178.5 L244,178.5 C244,179.880712 242.95063,181 241.656166,181 L186.343834,181 C185.04937,181 184,179.880712 184,178.5 L184,178.5 C184,177.119288 185.04937,176 186.343834,176 Z" id="Path" fill="#5B6EDC"></path>
                <rect id="Rectangle" fill="#5B6EDC" x="184" y="189" width="60" height="5" rx="2.17"></rect>
                <rect id="Rectangle" fill="#020202" opacity="0.1" x="125" y="161" width="39" height="6" rx="2.77"></rect>
                <rect id="Rectangle" fill="#020202" opacity="0.1" x="125" y="173" width="39" height="6" rx="2.77"></rect>
                <rect id="Rectangle" fill="#020202" opacity="0.1" x="125" y="185" width="39" height="6" rx="2.77"></rect>
            </g>
        </g>
    </g>
</svg>