<svg height="347" viewBox="0 0 319 347" width="319" xmlns="http://www.w3.org/2000/svg" xmlns:xlink="http://www.w3.org/1999/xlink"><linearGradient id="a" x1="103.501595%" x2="-20.692888%" y1="17.218467%" y2="119.784626%"><stop offset=".01"/><stop offset=".08" stop-opacity=".69"/><stop offset=".21" stop-opacity=".32"/><stop offset="1" stop-opacity="0"/></linearGradient><g fill="none"><path d="m159.252016 1.30343122c-41.488351 6.20342321-80.669133 34.48627778-100.6999729 76.21348508-5.7449827 12.0069741-10.0632948 24.8569227-16.2774511 36.5937127-6.9705791 12.968829-16.2774511 24.273325-23.6118791 36.993584-22.24265821 38.258046-24.19595234 89.279581-8.0334009 130.769026 12.1793634 31.2873 35.4273936 49.508505 65.7896275 49.638193 14.9465301.054037 28.9451385-5.89001 43.6044195-6.700562 20.231914-1.080735 41.478775 6.214231 60.915967 11.596295 21.716034 6.008891 43.872518 11.888093 66.201351 10.342641s45.222589-11.53145 58.541374-31.806053c13.184735-20.058455 15.128455-47.022812 12.035739-71.750046s-10.704818-48.449384-14.774181-72.971278c-4.691736-28.369314-4.787485-57.959858-13.692209-84.9998668-13.653909-41.446216-47.951456-72.2579922-86.117291-81.90896248-14.407607-3.58809747-29.264261-4.26865702-43.882093-2.0101685z" fill="#5b6edc" opacity=".18"/><path d="m236 57.2667834v220.4772326c-.005957 10.628105-8.621031 19.244071-19.253993 19.255984h-95.481209c-10.639652 0-19.264798-8.621198-19.264798-19.255984v-220.4772326c-.002863-5.1070046 2.024066-10.0059777 5.63489-13.6192007 3.610824-3.6132229 8.509762-5.6447192 13.619103-5.6475827h95.492014c5.109341.0028635 10.008279 2.0343598 13.619103 5.6475827 3.610824 3.613223 5.637753 8.5121961 5.63489 13.6192007z" fill="#5b6edc"/><rect fill="#473f47" height="252" rx="17.24" width="129" x="104" y="41"/><path d="m230 62.5884287v207.8232543c-.101229 9.810551-8.167534 17.68328-18.019895 17.588317h-85.938538c-3.13927.007511-6.226985-.795536-8.961187-2.331473-5.58203-3.068922-9.057007-8.907575-9.08038-15.256844v-207.8232543c.107152-9.8165348 8.183195-17.6893002 18.041567-17.5884287h14.519939v2.558171c.072402 3.4312646 2.209403 6.482735 5.417888 7.7363207 1.035628.4061659 2.137698.6183297 3.250733.6258112h39.918998c4.737224.0005307 8.597562-3.785786 8.668621-8.5023999v-2.417903h14.086508c4.652733-.025006 9.138856 1.7240001 12.536993 4.8887781 3.543405 3.2810167 5.557079 7.8814999 5.558753 12.6996506z" fill="#5b6edc"/><path d="m229 161v61h-52.519307c-1.454437.002876-2.850131-.576708-3.878576-1.610652-1.028444-1.033944-1.604946-2.437101-1.602117-3.899315v-49.96923c-.005695-1.46221.568059-2.866509 1.594479-3.902489 1.026421-1.03598 2.420982-1.618314 3.875426-1.618314z" fill="#020202" opacity=".1"/><path d="m78.5427944 212h38.9144116c.674391 0 1.32116.263392 1.798027.732233.476866.468841.744767 1.104726.744767 1.767767 0 1.380712-1.138448 2.5-2.542794 2.5h-38.9144116c-1.4043466 0-2.5427944-1.119288-2.5427944-2.5 0-.663041.2679008-1.298926.7447672-1.767767.4768665-.468841 1.1236362-.732233 1.7980272-.732233z" fill="#473f47"/><path d="m85.2188498 199.074271-1.2188498 7.554376 3.3546326.371353 3.6453674-8z" fill="#fcbdba"/><path d="m88.5035857 205.763477c-.1525998-.121836-.2892519-.259179-.4072654-.409324-.3305346.181531-.7299961.228632-1.1007171.129785l-1.6400685-.259571c-.2930377-.028437-.5791716-.099216-.8475522-.209654-.037462-.019617-.083617-.019617-.1210789 0l-.3632367.618978c-.595897 1.094317-.943972 2.285847-1.0236669 3.504215 3.1250409.667392 6.3350441.949473 9.5432175.838616.5243724.059385 1.0440658-.138283 1.3648893-.519143.1225243-.25463.1225243-.544052 0-.798682-.3012838-.585468-.8544279-1.03303-1.5299968-1.237956-.8475522-.329456-1.7171188-.589028-2.5536638-.998352-.4745591-.157654-.9199345-.37983-1.3208605-.658912z" fill="#5b6edc"/><path d="m106.076923 201.189225-1.076923 7.505913 3.436989.304862 3.563011-8z" fill="#fcbdba"/><path d="m216.989208 92.8484467v23.9240463c0 6.549568-5.285966 11.859042-11.806535 11.859042h-69.123267l-28.059406 32.368465v-80h97.128713c3.130303-.0199398 6.140221 1.2105134 8.366844 3.420607s3.487323 5.2185564 3.504443 8.3627993z" fill="#020202" opacity=".1"/><rect fill="#fff" height="48" rx="10.93" width="102" x="112" y="71"/><path d="m125.60728 113.416084c-.400408.031615-.802694-.031013-1.17392-.182757-.584605-.416904-.976063-1.047983-1.086964-1.752316-1.945664-5.923475-5.956559-11.7071938-11.956597-13.481011-1.565227 6.32124-1.445661 12.900489-1.326095 19.425986 0 1.741566.195654 3.730392 1.597836 4.762431.923457.55876 1.994595.83203 3.076107.784779 6.817975.244956 13.590399-1.192207 19.706645-4.181908 1.847838-.903034 5.63047-4.439918 2.108709-5.590212-1.086963-.354763-3.423935.182757-4.554377.193507z" fill="#020202" opacity=".1"/><circle cx="212.5" cy="71.5" fill="#5b6edc" r="8.5"/><circle cx="212.5" cy="71.5" fill="#020202" opacity=".28" r="8.5"/><path d="m134.343834 86h55.312332c1.294464 0 2.343834 1.1192881 2.343834 2.5s-1.04937 2.5-2.343834 2.5h-55.312332c-1.294464 0-2.343834-1.1192881-2.343834-2.5s1.04937-2.5 2.343834-2.5z" fill="#5b6edc"/><rect fill="#5b6edc" height="5" rx="2.17" width="60" x="132" y="99"/><path d="m85 144.961717 4.7660654 26.709534-4.7660654 28.735922 7.7328072.592827 11.2671928-32.357554-3.823563-25.642446z" fill="#473f47"/><path d="m111.40223 143 8.59777 35.526032-6.957547 24.473968-6.871784-.355476.954117-20.876122-12.124786-33.737881z" fill="#473f47"/><path d="m135.964938 113.447767c1.017421-.588055 2.110522-1.042075 3.250672-1.350167.360828-.15209.7749-.12522 1.111794.072146.177631.160199.293484.374822.328243.608091.180072.749051.117185 1.534018-.180004 2.246842 1.285294.68757 2.632025 1.260217 4.023633 1.710898.587886.096289 1.106849.429312 1.429448.917289.178542.514751.014628 1.083405-.412952 1.43262-.42299.331012-.926057.551011-1.461214.63901-3.494207.79361-9.180236 0-10.006139-4.060807-.180005-.886369.148239-1.030661.878846-1.556299.338832-.237052.677664-.453491 1.037673-.659623z" fill="#fcbdba"/><path d="m108.454089 80.5969356c.804642 1.6037761 1.31886 3.3393405 1.518482 5.125114.187068 1.8173508-.592136 3.5991625-2.04942 4.6864299-.432733.2069102-.83917.4655619-1.210539.7703721-1.274251 1.3267518.191138 3.7341645-.552175 5.4461024-.596652 1.1671221-1.978736 1.6823869-3.185628 1.1876569-1.16658-.5320026-2.032711-1.5659078-2.357364-2.8139979-.330225-1.2448546-.476918-2.531885-.435369-3.8197614l-.127425-7.6716216c-.1792552-1.7041908.08421-3.4260657.764551-4.9967187.93294-1.634091 2.697654-2.6017359 4.566066-2.5037091 1.890138.2781899 2.431695 3.0814881 3.068821 4.5901334z" fill="#fcbdba"/><path d="m135.896113 119.040121s-14.815944 13.30624-15.872686 13.30624c-1.056741 0-7.623634-8.361134-7.623634-8.361134l-.539153 18.934553c-1.832697 1.08066-3.738834 2.0301-5.704247 2.841267-3.234923 1.323033-7.2570095 2.548465-10.783075 2.168906-7.203094-.661516-10.373318-3.090691-10.373318-3.090691l4.4318438-44.603559s8.3892322-6.0620937 11.2575302-5.1403085c2.050488.3688198 4.14978.3688198 6.200268 0 4.140701-.5530711 8.378449 5.1403085 8.378449 5.1403085l5.499368 18.197124 12.93969-4.619771c1.736894 1.117224 2.607757 3.196774 2.188964 5.227065z" fill="#fff"/><path d="m109.978202 72.1387665c.096502-.9807375-.129185-1.9663467-.64188-2.8031976-.994914-1.4015988-3.006138-1.5319801-4.664328-1.1517014-1.139109.3197259-2.243147.7565898-3.294984 1.3038129-.766598.3258842-1.6058008.4347698-2.4284458.3150881-2.1862828-.0299666-4.3044103.7723778-5.9373902 2.2490771-2.2251841 2.1730214-2.7600841 5.3347676-2.9847421 8.3118069-.246054 3.3681831 1.2516661 6.1496505 3.4126621 8.6920856 1.8721501 2.238212 5.2527182 4.4329636 7.681164 1.6080358 1.074836-1.4405883 1.564918-3.2448893 1.369344-5.0414097-1.202905-.0977842-2.203799-.9778957-2.471238-2.1730213-.1817794-.7385026.072413-1.5172241.652578-1.9991797.352798-.219338.777239-.2864818 1.179007-.1865111.401768.0999708.747581.3587747.960593.7189013.063324.1132742.11358.2335845.149772.3585485.349412-.7153222.601344-1.475613.74886-2.2599422.288846-.7496924 1.219572-1.4015988 1.829358-.9018039.353034.2933579.566994.912669 1.01631.814883.149601-.0544284.279919-.152748.37443-.2824928.886357-.8676626 1.636769-1.8679633 2.225184-2.9661742.534438-1.3017292.814225-2.6966834.823746-4.1070104-.010698-.1412464 0-.3259532 0-.4997949z" fill="#ffa000"/><path d="m81.6349572 71.0572207c-3.2049908-.391231-6.3147815 1.2502458-7.7894822 4.1116125-1.7225698 3.507281-.4875197 7.6404767-.2058417 11.5362565.5295224 2.7832274-.9456798 5.5608734-3.5534772 6.690813-2.7626119 1.65112-5.9260734 2.7626583-8.1361629 5.1044428-1.7361606 1.9268955-2.7603945 4.3861545-2.903451 6.9713955-.1431471 1.080776.0457072 2.179395.5416886 3.151157.4860118.712895 1.1172191 1.315909 1.8525751 1.769828 4.1108249 2.981126 9.2539302 4.187019 14.2680779 3.345406 4.9185326-1.003621 9.3495454-4.802277 10.3895875-9.71247 1.0833773-5.1799842-1.5492294-10.3275935-2.5459364-15.5183694-.3806176-1.2293155-.2356078-2.5605595.4008495-3.6799471.8233667-1.0791634 2.3617624-1.3597459 3.5426436-2.0612021 6.4785957-3.7878635-1.1158786-11.0398414-5.8610708-11.7089227z" fill="#ffa000"/><g fill="#5b6edc"><rect height="5" rx="2.27" width="5" x="88" y="76"/><path d="m109.426535 207.70832c-.156119-.125017-.296449-.266224-.418272-.420886-.32776.192405-.726852.248235-1.100717.153983l-1.651076-.225841c-.293038-.02924-.579171-.102019-.847552-.215576h-.121079l-.341222.646727c-.57041 1.137304-.89221 2.369178-.946617 3.623724 3.141066.626884 6.359122.851371 9.565232.667257.522546.057567 1.037227-.154893 1.342875-.554337.122524-.261822.122524-.559418 0-.82124-.318528-.590861-.877454-1.038188-1.552011-1.242127-.85856-.31823-1.739133-.574868-2.575678-.944426-.481467-.164517-.936883-.388968-1.353883-.667258z"/><path d="m110.284415 218h-4.963774l-3.971019 10.693321h-20.5025432l3.9710189-10.693321h-4.9637737l-34.854324 94h4.9637737l3.45306-9.29339h20.5025435l-3.45306 9.29339h4.9637738l3.4530599-9.29339h.1402806v-.398442l31.0020035-83.586665v93.278497h4.974565v-94zm-10.294435 14.311605-5.1580084 13.999313h-20.5025435l5.1795899-13.999313zm-32.1782026 31.552297 5.1687991-13.9347h20.5025436l-5.1687992 13.9347zm19.1321104 3.65059-5.1580083 13.9347h-20.5025436l5.1687991-13.9347zm-32.1674118 31.563066 5.1580084-13.999313h20.5025435l-5.1795899 13.999313z"/></g><path d="m110.284415 218h-4.963774l-3.971019 10.693321h-20.5025432l3.9710189-10.693321h-4.9637737l-34.854324 94h4.9637737l3.45306-9.29339h20.5025435l-3.45306 9.29339h4.9637738l3.4530599-9.29339h.1402806v-.398442l31.0020035-83.586665v93.278497h4.974565v-94zm-10.294435 14.311605-5.1580084 13.999313h-20.5025435l5.1795899-13.999313zm-32.1782026 31.552297 5.1687991-13.9347h20.5025436l-5.1687992 13.9347zm19.1321104 3.65059-5.1580083 13.9347h-20.5025436l5.1687991-13.9347zm-32.1674118 31.563066 5.1580084-13.999313h20.5025435l-5.1795899 13.999313z" fill="url(#a)"/><rect fill="#fff" height="61" rx="5.08" width="86" x="171" y="154"/><path d="m186.343834 176h55.312332c1.294464 0 2.343834 1.119288 2.343834 2.5s-1.04937 2.5-2.343834 2.5h-55.312332c-1.294464 0-2.343834-1.119288-2.343834-2.5s1.04937-2.5 2.343834-2.5z" fill="#5b6edc"/><rect fill="#5b6edc" height="5" rx="2.17" width="60" x="184" y="189"/><g fill="#020202"><rect height="6" opacity=".1" rx="2.77" width="39" x="125" y="161"/><rect height="6" opacity=".1" rx="2.77" width="39" x="125" y="173"/><rect height="6" opacity=".1" rx="2.77" width="39" x="125" y="185"/></g></g></svg>