<svg enable-background="new 0 0 512 512" viewBox="0 0 512 512" xmlns="http://www.w3.org/2000/svg" xmlns:xlink="http://www.w3.org/1999/xlink"><linearGradient id="a"><stop offset="0" stop-color="#4cb5ea"/><stop offset="1" stop-color="#5a6cdd"/></linearGradient><linearGradient id="b" gradientUnits="userSpaceOnUse" x1="331.8493" x2="350.8493" xlink:href="#a" y1="-4.0685" y2="508.9315"/><linearGradient id="c" gradientUnits="userSpaceOnUse" x1="243.8063" x2="262.8063" xlink:href="#a" y1="-.8076" y2="512.1924"/><linearGradient id="d" gradientUnits="userSpaceOnUse" x1="417.0796" x2="436.0796" xlink:href="#a" y1="-7.2252" y2="505.7748"/><linearGradient id="e" gradientUnits="userSpaceOnUse" x1="223.6436" x2="242.6436" xlink:href="#a" y1="-.060873" y2="512.9391"/><linearGradient id="f" gradientUnits="userSpaceOnUse" x1="139.6685" x2="158.6685" xlink:href="#a" y1="3.0493" y2="516.0493"/><linearGradient id="g" gradientUnits="userSpaceOnUse" x1="331.4055" x2="350.4055" xlink:href="#a" y1="-4.0521" y2="508.9479"/><linearGradient id="h" gradientUnits="userSpaceOnUse" x1="239.0877" x2="258.0877" xlink:href="#a" y1="-.6329" y2="512.3671"/><linearGradient id="i" gradientUnits="userSpaceOnUse" x1="154.2905" x2="173.2905" xlink:href="#a" y1="2.5078" y2="515.5078"/><linearGradient id="j" gradientUnits="userSpaceOnUse" x1="316.784" x2="335.784" xlink:href="#a" y1="-3.5105" y2="509.4895"/><linearGradient id="k" gradientUnits="userSpaceOnUse" x1="286.5457" x2="305.5457" xlink:href="#a" y1="-2.3906" y2="510.6094"/><linearGradient id="l" gradientUnits="userSpaceOnUse" x1="320.3345" x2="339.3345" xlink:href="#a" y1="-3.642" y2="509.358"/><linearGradient id="m" gradientUnits="userSpaceOnUse" x1="150.7393" x2="169.7393" xlink:href="#a" y1="2.6393" y2="515.6393"/><linearGradient id="n" gradientUnits="userSpaceOnUse" x1="190.6777" x2="209.6777" xlink:href="#a" y1="1.1601" y2="514.1601"/><linearGradient id="o" gradientUnits="userSpaceOnUse" x1="282.5596" x2="301.5596" xlink:href="#a" y1="-2.2429" y2="510.757"/><linearGradient id="p" gradientUnits="userSpaceOnUse" x1="282.5836" x2="301.5836" xlink:href="#a" y1="-2.2438" y2="510.7562"/><linearGradient id="q" gradientUnits="userSpaceOnUse" x1="347.6794" x2="366.6794" xlink:href="#a" y1="-4.6548" y2="508.3452"/><linearGradient id="r" gradientUnits="userSpaceOnUse" x1="168.074" x2="187.074" xlink:href="#a" y1="1.9973" y2="514.9973"/><path d="m320 224h40c4.4 0 8-3.6 8-8s-3.6-8-8-8h-40c-4.4 0-8 3.6-8 8s3.6 8 8 8z" fill="url(#b)"/><path d="m488 208c-4.4 0-8 3.6-8 8v264h-408c-22.1 0-40-17.9-40-40s17.9-40 40-40 40 17.9 40 40c0 4.4 3.6 8 8 8s8-3.6 8-8v-216h24c4.4 0 8-3.6 8-8s-3.6-8-8-8h-24v-24c0-30.9-25.1-56-56-56s-56 25.1-56 56v256c0 30.9 25.1 56 56 56h416c4.4 0 8-3.6 8-8v-272c0-4.4-3.6-8-8-8zm-456-24c0-22.1 17.9-40 40-40s40 17.9 40 40v216.8c-21.6-22.1-57-22.5-79.1-.9-.3.3-.6.6-.9.9z" fill="url(#c)"/><path d="m384.6 307 12.8 32 19.2 48c1.6 4.1 6.3 6.1 10.4 4.5 2-.8 3.7-2.4 4.5-4.5l19.2-48 12.8-32c.3-.9.5-1.8.5-2.7 0-.1.1-.2.1-.3v-136c0-4.4-3.6-8-8-8s-8 3.6-8 8v128h-16v-184h16v24c0 4.4 3.6 8 8 8s8-3.6 8-8v-80c0-22.1-17.9-40-40-40s-40 17.9-40 40v248c0 .1.1.2.1.3-.1.9 0 1.8.4 2.7zm32 37h14.8l-7.4 18.5zm21.2-16h-27.6l-6.4-16h40.4zm-21.8-32h-16v-184h16zm-16-200v-16h48v16zm0-40c0-13.3 10.7-24 24-24s24 10.7 24 24v8h-48z" fill="url(#d)"/><path d="m192 173.6v3.8c-12.4 4.3-19 17.9-14.7 30.4 2.4 6.9 7.8 12.3 14.7 14.7v1.5c0 20.8 13.4 39.1 33.1 45.6-8.5 8.6-19.3 14.7-31 17.6l-12.2 3.1c-21.2 5.2-34.1 26.6-28.8 47.8 4.4 17.6 20.2 30 38.4 30h16.5c4.4 0 8-3.6 8-8s-3.6-8-8-8h-16.6c-12.9 0-23.4-10.5-23.4-23.5 0-10.7 7.3-20.1 17.7-22.7l12.2-3c18.5-4.6 34.9-15.6 46.2-31 24.9-2.3 43.9-23 43.9-47.9v-1.5c12.4-4.3 19-17.9 14.7-30.4-2.4-6.9-7.8-12.3-14.7-14.7v-3.9c25.6-22.8 31.5-60.6 14-90.2-2.2-3.8-7.2-5.1-11-2.8-3.8 2.2-5.1 7.2-2.8 11 14.2 24 8.6 54.7-13.2 72.1-1.9 1.5-3 3.8-3 6.2v6.1h-7.1l7-63.1c.5-4.4-2.7-8.3-7.1-8.8-1.1-.1-2.3 0-3.4.4l-21.5 7.2-21.5-7.2c-4.2-1.4-8.7.9-10.1 5.1-.4 1.1-.5 2.3-.4 3.4l7 63.1h-6.9v-6.1c0-2.4-1.1-4.7-3-6.2-24.2-19.3-28.1-54.5-8.9-78.6 17.4-21.8 48.2-27.5 72.3-13.3 3.8 2.2 8.7 1 11-2.8 2.2-3.8 1-8.7-2.8-11-34.2-20.2-78.3-8.7-98.5 25.5-17.5 29.5-11.6 67.2 13.9 90.1zm48 82.4c-17.7 0-32-14.3-32-32h64c0 17.7-14.3 32-32 32zm-14.7-132.5 12.1 4c1.6.5 3.4.5 5.1 0l12.1-4-5.8 52.5h-17.6zm-1.3 68.5h56c4.4 0 8 3.6 8 8s-3.6 8-8 8h-80c-4.4 0-8-3.6-8-8s3.6-8 8-8z" fill="url(#e)"/><circle cx="144" cy="120" fill="url(#f)" r="8"/><circle cx="336" cy="120" fill="url(#g)" r="8"/><circle cx="240" cy="24" fill="url(#h)" r="8"/><path d="m152.9 78.9c3.8 2.2 8.7.9 10.9-2.9s.9-8.7-2.9-10.9-8.7-.9-10.9 2.9c-2.3 3.8-1 8.7 2.9 10.9z" fill="url(#i)"/><path d="m319.1 174.9c3.8 2.2 8.7.9 10.9-2.9s.9-8.7-2.9-10.9-8.7-.9-10.9 2.9c-2.2 3.8-.9 8.7 2.9 10.9z" fill="url(#j)"/><circle cx="288" cy="36.9" fill="url(#k)" r="8"/><path d="m327.1 78.9c3.8-2.2 5.1-7.1 2.9-10.9s-7.1-5.1-10.9-2.9-5.1 7.1-2.9 10.9c2.2 3.8 7.1 5.1 10.9 2.9z" fill="url(#l)"/><path d="m163.8 164c-2.2-3.8-7.1-5.1-10.9-2.9s-5.1 7.1-2.9 10.9 7.1 5.1 10.9 2.9c3.8-2.2 5.1-7.1 2.9-10.9z" fill="url(#m)"/><path d="m196 43.8c3.8-2.2 5.1-7.1 2.9-10.9s-7.1-5.1-10.9-2.9-5.1 7.1-2.9 10.9c2.2 3.8 7.1 5.1 10.9 2.9z" fill="url(#n)"/><path d="m280 432h32c4.4 0 8-3.6 8-8v-13.4c2.7-1.3 5.3-2.8 7.8-4.5l11.6 6.7c3.8 2.2 8.7.9 10.9-2.9l16-27.7c2.2-3.8.9-8.7-2.9-10.9l-11.6-6.7c.1-1.5.2-3 .2-4.5s-.1-3-.2-4.5l11.6-6.7c3.8-2.2 5.1-7.1 2.9-10.9l-16-27.7c-2.2-3.8-7.1-5.1-10.9-2.9l-11.6 6.7c-2.5-1.7-5.1-3.2-7.8-4.5v-13.6c0-4.4-3.6-8-8-8h-32c-4.4 0-8 3.6-8 8v13.4c-2.7 1.3-5.3 2.8-7.8 4.5l-11.6-6.7c-3.8-2.2-8.7-.9-10.9 2.9l-16 27.7c-2.2 3.8-.9 8.7 2.9 10.9l11.6 6.7c-.1 1.5-.2 3-.2 4.5s.1 3 .2 4.5l-11.6 6.7c-3.8 2.2-5.2 7.1-3 10.9s7.1 5.2 10.9 3c0 0 .1 0 .1-.1l16.2-9.4c2.9-1.7 4.5-5 3.9-8.4-.9-4.8-.9-9.8 0-14.6.6-3.3-.9-6.7-3.9-8.4l-9.3-5.4 8-13.9 9.3 5.4c2.9 1.7 6.6 1.4 9.2-.8 3.7-3.2 8-5.7 12.6-7.3 3.2-1.1 5.4-4.1 5.4-7.5v-10.6h16v10.8c0 3.4 2.1 6.4 5.3 7.5 4.6 1.6 8.9 4.1 12.6 7.3 2.6 2.2 6.3 2.5 9.2.8l9.3-5.4 8 13.9-9.3 5.4c-2.9 1.7-4.5 5-3.9 8.4.9 4.8.9 9.8 0 14.6-.6 3.3.9 6.7 3.9 8.4l9.3 5.4-8 13.9-9.3-5.4c-2.9-1.7-6.6-1.4-9.2.8-3.7 3.2-8 5.7-12.6 7.3-3.2 1.1-5.3 4.1-5.3 7.5v10.8h-16v-10.8c0-3.4-2.1-6.4-5.3-7.5-4.6-1.6-8.9-4.1-12.6-7.3-2.6-2.2-6.3-2.5-9.2-.8l-16.3 9.4c-3.8 2.2-5.2 7.1-3 10.9s7.1 5.2 10.9 3c0 0 .1 0 .1-.1l11.6-6.7c2.5 1.7 5.1 3.2 7.8 4.5v13.4c0 4.4 3.6 8 8 8z" fill="url(#o)"/><path d="m320 360c0-13.3-10.7-24-24-24s-24 10.7-24 24 10.7 24 24 24 24-10.7 24-24zm-32 0c0-4.4 3.6-8 8-8s8 3.6 8 8-3.6 8-8 8-8-3.6-8-8z" fill="url(#p)"/><path d="m304 464h96c17.7 0 32-14.3 32-32v-16c0-4.4-3.6-8-8-8s-8 3.6-8 8v16c0 8.8-7.2 16-16 16h-96c-4.4 0-8 3.6-8 8s3.6 8 8 8z" fill="url(#q)"/><path d="m160 432c0 13.3 10.7 24 24 24s24-10.7 24-24-10.7-24-24-24-24 10.7-24 24zm32 0c0 4.4-3.6 8-8 8s-8-3.6-8-8 3.6-8 8-8 8 3.6 8 8z" fill="url(#r)"/></svg>