<?xml version="1.0" encoding="utf-8"?>
<!-- Generator: Adobe Illustrator 24.0.3, SVG Export Plug-In . SVG Version: 6.00 Build 0)  -->
<svg version="1.1" id="Calque_1" xmlns="http://www.w3.org/2000/svg" xmlns:xlink="http://www.w3.org/1999/xlink" x="0px" y="0px"
	 viewBox="0 0 512 512" style="enable-background:new 0 0 512 512;" xml:space="preserve">
<style type="text/css">
	.st0{fill:url(#SVGID_1_);}
	.st1{fill:url(#SVGID_2_);}
	.st2{fill:url(#SVGID_3_);}
	.st3{fill:url(#SVGID_4_);}
	.st4{fill:url(#SVGID_5_);}
	.st5{fill:url(#SVGID_6_);}
	.st6{fill:url(#SVGID_7_);}
	.st7{fill:url(#SVGID_8_);}
	.st8{fill:url(#SVGID_9_);}
	.st9{fill:url(#SVGID_10_);}
	.st10{fill:url(#SVGID_11_);}
	.st11{fill:url(#SVGID_12_);}
	.st12{fill:url(#SVGID_13_);}
	.st13{fill:url(#SVGID_14_);}
	.st14{fill:url(#SVGID_15_);}
	.st15{fill:url(#SVGID_16_);}
	.st16{fill:url(#SVGID_17_);}
</style>
<g id="Outline">
	<g>
		<linearGradient id="SVGID_1_" gradientUnits="userSpaceOnUse" x1="331.8493" y1="-4.0685" x2="350.8493" y2="508.9315">
			<stop  offset="0" style="stop-color:#4CB5EA"/>
			<stop  offset="1" style="stop-color:#5A6CDD"/>
		</linearGradient>
		<path class="st0" d="M320,224h40c4.4,0,8-3.6,8-8s-3.6-8-8-8h-40c-4.4,0-8,3.6-8,8S315.6,224,320,224z"/>
		<linearGradient id="SVGID_2_" gradientUnits="userSpaceOnUse" x1="243.8063" y1="-0.8076" x2="262.8063" y2="512.1924">
			<stop  offset="0" style="stop-color:#4CB5EA"/>
			<stop  offset="1" style="stop-color:#5A6CDD"/>
		</linearGradient>
		<path class="st1" d="M488,208c-4.4,0-8,3.6-8,8v264H72c-22.1,0-40-17.9-40-40s17.9-40,40-40s40,17.9,40,40c0,4.4,3.6,8,8,8
			s8-3.6,8-8V224h24c4.4,0,8-3.6,8-8s-3.6-8-8-8h-24v-24c0-30.9-25.1-56-56-56s-56,25.1-56,56v256c0,30.9,25.1,56,56,56h416
			c4.4,0,8-3.6,8-8V216C496,211.6,492.4,208,488,208z M32,184c0-22.1,17.9-40,40-40s40,17.9,40,40v216.8
			c-21.6-22.1-57-22.5-79.1-0.9c-0.3,0.3-0.6,0.6-0.9,0.9V184z"/>
		<linearGradient id="SVGID_3_" gradientUnits="userSpaceOnUse" x1="417.0796" y1="-7.2252" x2="436.0796" y2="505.7748">
			<stop  offset="0" style="stop-color:#4CB5EA"/>
			<stop  offset="1" style="stop-color:#5A6CDD"/>
		</linearGradient>
		<path class="st2" d="M384.6,307l12.8,32l0,0l19.2,48c1.6,4.1,6.3,6.1,10.4,4.5c2-0.8,3.7-2.4,4.5-4.5l19.2-48l0,0l12.8-32
			c0.3-0.9,0.5-1.8,0.5-2.7c0-0.1,0.1-0.2,0.1-0.3V168c0-4.4-3.6-8-8-8s-8,3.6-8,8v128h-16V112h16v24c0,4.4,3.6,8,8,8s8-3.6,8-8V56
			c0-22.1-17.9-40-40-40s-40,17.9-40,40v248c0,0.1,0.1,0.2,0.1,0.3C384.1,305.2,384.2,306.1,384.6,307z M416.6,344h14.8l-7.4,18.5
			L416.6,344z M437.8,328h-27.6l-6.4-16h40.4L437.8,328z M416,296h-16V112h16V296z M400,96V80h48v16H400z M400,56
			c0-13.3,10.7-24,24-24s24,10.7,24,24v8h-48V56z"/>
		<linearGradient id="SVGID_4_" gradientUnits="userSpaceOnUse" x1="223.6436" y1="-6.087348e-02" x2="242.6436" y2="512.9391">
			<stop  offset="0" style="stop-color:#4CB5EA"/>
			<stop  offset="1" style="stop-color:#5A6CDD"/>
		</linearGradient>
		<path class="st3" d="M192,173.6v3.8c-12.4,4.3-19,17.9-14.7,30.4c2.4,6.9,7.8,12.3,14.7,14.7v1.5c0,20.8,13.4,39.1,33.1,45.6
			c-8.5,8.6-19.3,14.7-31,17.6l-12.2,3.1c-21.2,5.2-34.1,26.6-28.8,47.8c4.4,17.6,20.2,30,38.4,30H208c4.4,0,8-3.6,8-8s-3.6-8-8-8
			h-16.6c-12.9,0-23.4-10.5-23.4-23.5c0-10.7,7.3-20.1,17.7-22.7l12.2-3c18.5-4.6,34.9-15.6,46.2-31C269,269.6,288,248.9,288,224
			v-1.5c12.4-4.3,19-17.9,14.7-30.4c-2.4-6.9-7.8-12.3-14.7-14.7v-3.9c25.6-22.8,31.5-60.6,14-90.2c-2.2-3.8-7.2-5.1-11-2.8
			c-3.8,2.2-5.1,7.2-2.8,11c14.2,24,8.6,54.7-13.2,72.1c-1.9,1.5-3,3.8-3,6.2v6.1h-7.1l7-63.1c0.5-4.4-2.7-8.3-7.1-8.8
			c-1.1-0.1-2.3,0-3.4,0.4l-21.5,7.2l-21.5-7.2c-4.2-1.4-8.7,0.9-10.1,5.1c-0.4,1.1-0.5,2.3-0.4,3.4l7,63.1H208v-6.1
			c0-2.4-1.1-4.7-3-6.2c-24.2-19.3-28.1-54.5-8.9-78.6c17.4-21.8,48.2-27.5,72.3-13.3c3.8,2.2,8.7,1,11-2.8c2.2-3.8,1-8.7-2.8-11
			c-34.2-20.2-78.3-8.7-98.5,25.5C160.6,113,166.5,150.7,192,173.6z M240,256c-17.7,0-32-14.3-32-32h64C272,241.7,257.7,256,240,256
			z M225.3,123.5l12.1,4c1.6,0.5,3.4,0.5,5.1,0l12.1-4l-5.8,52.5h-17.6L225.3,123.5z M224,192h56c4.4,0,8,3.6,8,8s-3.6,8-8,8h-80
			c-4.4,0-8-3.6-8-8s3.6-8,8-8H224z"/>
		<linearGradient id="SVGID_5_" gradientUnits="userSpaceOnUse" x1="139.6685" y1="3.0493" x2="158.6685" y2="516.0493">
			<stop  offset="0" style="stop-color:#4CB5EA"/>
			<stop  offset="1" style="stop-color:#5A6CDD"/>
		</linearGradient>
		<circle class="st4" cx="144" cy="120" r="8"/>
		<linearGradient id="SVGID_6_" gradientUnits="userSpaceOnUse" x1="331.4055" y1="-4.0521" x2="350.4055" y2="508.9479">
			<stop  offset="0" style="stop-color:#4CB5EA"/>
			<stop  offset="1" style="stop-color:#5A6CDD"/>
		</linearGradient>
		<circle class="st5" cx="336" cy="120" r="8"/>
		<linearGradient id="SVGID_7_" gradientUnits="userSpaceOnUse" x1="239.0877" y1="-0.6329" x2="258.0877" y2="512.3671">
			<stop  offset="0" style="stop-color:#4CB5EA"/>
			<stop  offset="1" style="stop-color:#5A6CDD"/>
		</linearGradient>
		<circle class="st6" cx="240" cy="24" r="8"/>
		<linearGradient id="SVGID_8_" gradientUnits="userSpaceOnUse" x1="154.2905" y1="2.5078" x2="173.2905" y2="515.5078">
			<stop  offset="0" style="stop-color:#4CB5EA"/>
			<stop  offset="1" style="stop-color:#5A6CDD"/>
		</linearGradient>
		<path class="st7" d="M152.9,78.9c3.8,2.2,8.7,0.9,10.9-2.9c2.2-3.8,0.9-8.7-2.9-10.9s-8.7-0.9-10.9,2.9c0,0,0,0,0,0
			C147.7,71.8,149,76.7,152.9,78.9z"/>
		<linearGradient id="SVGID_9_" gradientUnits="userSpaceOnUse" x1="316.784" y1="-3.5105" x2="335.784" y2="509.4895">
			<stop  offset="0" style="stop-color:#4CB5EA"/>
			<stop  offset="1" style="stop-color:#5A6CDD"/>
		</linearGradient>
		<path class="st8" d="M319.1,174.9c3.8,2.2,8.7,0.9,10.9-2.9c2.2-3.8,0.9-8.7-2.9-10.9c-3.8-2.2-8.7-0.9-10.9,2.9c0,0,0,0,0,0
			C314,167.8,315.3,172.7,319.1,174.9z"/>
		<linearGradient id="SVGID_10_" gradientUnits="userSpaceOnUse" x1="286.5457" y1="-2.3906" x2="305.5457" y2="510.6094">
			<stop  offset="0" style="stop-color:#4CB5EA"/>
			<stop  offset="1" style="stop-color:#5A6CDD"/>
		</linearGradient>
		<circle class="st9" cx="288" cy="36.9" r="8"/>
		<linearGradient id="SVGID_11_" gradientUnits="userSpaceOnUse" x1="320.3345" y1="-3.642" x2="339.3345" y2="509.358">
			<stop  offset="0" style="stop-color:#4CB5EA"/>
			<stop  offset="1" style="stop-color:#5A6CDD"/>
		</linearGradient>
		<path class="st10" d="M327.1,78.9c3.8-2.2,5.1-7.1,2.9-10.9c-2.2-3.8-7.1-5.1-10.9-2.9c-3.8,2.2-5.1,7.1-2.9,10.9c0,0,0,0,0,0
			C318.4,79.8,323.3,81.1,327.1,78.9z"/>
		<linearGradient id="SVGID_12_" gradientUnits="userSpaceOnUse" x1="150.7393" y1="2.6393" x2="169.7393" y2="515.6393">
			<stop  offset="0" style="stop-color:#4CB5EA"/>
			<stop  offset="1" style="stop-color:#5A6CDD"/>
		</linearGradient>
		<path class="st11" d="M163.8,164c-2.2-3.8-7.1-5.1-10.9-2.9c-3.8,2.2-5.1,7.1-2.9,10.9c2.2,3.8,7.1,5.1,10.9,2.9c0,0,0,0,0,0
			C164.7,172.7,166,167.8,163.8,164z"/>
		<linearGradient id="SVGID_13_" gradientUnits="userSpaceOnUse" x1="190.6777" y1="1.1601" x2="209.6777" y2="514.1601">
			<stop  offset="0" style="stop-color:#4CB5EA"/>
			<stop  offset="1" style="stop-color:#5A6CDD"/>
		</linearGradient>
		<path class="st12" d="M196,43.8c3.8-2.2,5.1-7.1,2.9-10.9s-7.1-5.1-10.9-2.9c-3.8,2.2-5.1,7.1-2.9,10.9c0,0,0,0,0,0
			C187.3,44.7,192.2,46,196,43.8z"/>
		<linearGradient id="SVGID_14_" gradientUnits="userSpaceOnUse" x1="282.5596" y1="-2.2429" x2="301.5596" y2="510.757">
			<stop  offset="0" style="stop-color:#4CB5EA"/>
			<stop  offset="1" style="stop-color:#5A6CDD"/>
		</linearGradient>
		<path class="st13" d="M280,432h32c4.4,0,8-3.6,8-8v-13.4c2.7-1.3,5.3-2.8,7.8-4.5l11.6,6.7c3.8,2.2,8.7,0.9,10.9-2.9l16-27.7
			c2.2-3.8,0.9-8.7-2.9-10.9l-11.6-6.7c0.1-1.5,0.2-3,0.2-4.5s-0.1-3-0.2-4.5l11.6-6.7c3.8-2.2,5.1-7.1,2.9-10.9l-16-27.7
			c-2.2-3.8-7.1-5.1-10.9-2.9l-11.6,6.7c-2.5-1.7-5.1-3.2-7.8-4.5V296c0-4.4-3.6-8-8-8h-32c-4.4,0-8,3.6-8,8v13.4
			c-2.7,1.3-5.3,2.8-7.8,4.5l-11.6-6.7c-3.8-2.2-8.7-0.9-10.9,2.9l-16,27.7c-2.2,3.8-0.9,8.7,2.9,10.9l11.6,6.7
			c-0.1,1.5-0.2,3-0.2,4.5s0.1,3,0.2,4.5l-11.6,6.7c-3.8,2.2-5.2,7.1-3,10.9c2.2,3.8,7.1,5.2,10.9,3c0,0,0.1,0,0.1-0.1l16.2-9.4
			c2.9-1.7,4.5-5,3.9-8.4c-0.9-4.8-0.9-9.8,0-14.6c0.6-3.3-0.9-6.7-3.9-8.4l-9.3-5.4l8-13.9l9.3,5.4c2.9,1.7,6.6,1.4,9.2-0.8
			c3.7-3.2,8-5.7,12.6-7.3c3.2-1.1,5.4-4.1,5.4-7.5V304h16v10.8c0,3.4,2.1,6.4,5.3,7.5c4.6,1.6,8.9,4.1,12.6,7.3
			c2.6,2.2,6.3,2.5,9.2,0.8l9.3-5.4l8,13.9l-9.3,5.4c-2.9,1.7-4.5,5-3.9,8.4c0.9,4.8,0.9,9.8,0,14.6c-0.6,3.3,0.9,6.7,3.9,8.4
			l9.3,5.4l-8,13.9l-9.3-5.4c-2.9-1.7-6.6-1.4-9.2,0.8c-3.7,3.2-8,5.7-12.6,7.3c-3.2,1.1-5.3,4.1-5.3,7.5V416h-16v-10.8
			c0-3.4-2.1-6.4-5.3-7.5c-4.6-1.6-8.9-4.1-12.6-7.3c-2.6-2.2-6.3-2.5-9.2-0.8l-16.3,9.4c-3.8,2.2-5.2,7.1-3,10.9
			c2.2,3.8,7.1,5.2,10.9,3c0,0,0.1,0,0.1-0.1l11.6-6.7c2.5,1.7,5.1,3.2,7.8,4.5V424C272,428.4,275.6,432,280,432L280,432z"/>
		<linearGradient id="SVGID_15_" gradientUnits="userSpaceOnUse" x1="282.5836" y1="-2.2438" x2="301.5836" y2="510.7562">
			<stop  offset="0" style="stop-color:#4CB5EA"/>
			<stop  offset="1" style="stop-color:#5A6CDD"/>
		</linearGradient>
		<path class="st14" d="M320,360c0-13.3-10.7-24-24-24s-24,10.7-24,24s10.7,24,24,24S320,373.3,320,360z M288,360c0-4.4,3.6-8,8-8
			s8,3.6,8,8s-3.6,8-8,8S288,364.4,288,360z"/>
		<linearGradient id="SVGID_16_" gradientUnits="userSpaceOnUse" x1="347.6794" y1="-4.6548" x2="366.6794" y2="508.3452">
			<stop  offset="0" style="stop-color:#4CB5EA"/>
			<stop  offset="1" style="stop-color:#5A6CDD"/>
		</linearGradient>
		<path class="st15" d="M304,464h96c17.7,0,32-14.3,32-32v-16c0-4.4-3.6-8-8-8s-8,3.6-8,8v16c0,8.8-7.2,16-16,16h-96
			c-4.4,0-8,3.6-8,8S299.6,464,304,464z"/>
		<linearGradient id="SVGID_17_" gradientUnits="userSpaceOnUse" x1="168.074" y1="1.9973" x2="187.074" y2="514.9973">
			<stop  offset="0" style="stop-color:#4CB5EA"/>
			<stop  offset="1" style="stop-color:#5A6CDD"/>
		</linearGradient>
		<path class="st16" d="M160,432c0,13.3,10.7,24,24,24s24-10.7,24-24s-10.7-24-24-24S160,418.7,160,432z M192,432c0,4.4-3.6,8-8,8
			s-8-3.6-8-8s3.6-8,8-8S192,427.6,192,432z"/>
	</g>
</g>
</svg>
