<?xml version="1.0" encoding="utf-8"?>
<!-- Generator: Adobe Illustrator 24.0.3, SVG Export Plug-In . SVG Version: 6.00 Build 0)  -->
<svg version="1.1" id="Capa_1" xmlns="http://www.w3.org/2000/svg" xmlns:xlink="http://www.w3.org/1999/xlink" x="0px" y="0px"
	 viewBox="0 0 40.1 40.1" style="enable-background:new 0 0 40.1 40.1;" xml:space="preserve">
<style type="text/css">
	.st0{fill:url(#SVGID_1_);stroke:#FFFFFF;stroke-width:0.5;stroke-miterlimit:10;}
	.st1{fill:url(#SVGID_2_);stroke:#FFFFFF;stroke-width:0.5;stroke-miterlimit:10;}
	.st2{fill:url(#SVGID_3_);}
</style>
<g>
	<g>
		<linearGradient id="SVGID_1_" gradientUnits="userSpaceOnUse" x1="19.2437" y1="-0.2447" x2="21.5284" y2="40.8797">
			<stop  offset="0" style="stop-color:#4DB8EC"/>
			<stop  offset="1" style="stop-color:#5774E1"/>
		</linearGradient>
		<path class="st0" d="M19.9,12.1c1.9,0,3,1,3,2.7c0,3-5.4,3.9-5.4,7.6c0,1,0.6,2.1,2,2.1c2,0,1.8-1.5,2.5-2.6c1-1.5,5.6-3,5.6-7
			c0-4.4-3.9-6.2-7.9-6.2c-3.8,0-7.2,2.7-7.2,5.7c0,1.2,0.9,1.9,2,1.9C17.5,16.2,16,12.1,19.9,12.1z"/>
		<linearGradient id="SVGID_2_" gradientUnits="userSpaceOnUse" x1="17.9787" y1="-0.1744" x2="20.2634" y2="40.9499">
			<stop  offset="0" style="stop-color:#4DB8EC"/>
			<stop  offset="1" style="stop-color:#5774E1"/>
		</linearGradient>
		<path class="st1" d="M22.1,29c0-1.4-1.1-2.5-2.5-2.5s-2.5,1.1-2.5,2.5c0,1.4,1.1,2.5,2.5,2.5S22.1,30.4,22.1,29z"/>
		<linearGradient id="SVGID_3_" gradientUnits="userSpaceOnUse" x1="18.9348" y1="-0.2275" x2="21.2195" y2="40.8968">
			<stop  offset="0" style="stop-color:#4DB8EC"/>
			<stop  offset="1" style="stop-color:#5774E1"/>
		</linearGradient>
		<path class="st2" d="M40.1,20.1C40.1,9,31.1,0,20.1,0S0,9,0,20.1s9,20.1,20.1,20.1S40.1,31.1,40.1,20.1z M2,20.1
			C2,10.1,10.1,2,20.1,2s18.1,8.1,18.1,18.1S30,38.1,20.1,38.1S2,30,2,20.1z"/>
	</g>
</g>
</svg>
