<svg enable-background="new 0 0 512 512" viewBox="0 0 512 512" xmlns="http://www.w3.org/2000/svg" xmlns:xlink="http://www.w3.org/1999/xlink"><linearGradient id="a"><stop offset="0" stop-color="#4cb5ea"/><stop offset="1" stop-color="#5a6cdd"/></linearGradient><linearGradient id="b" gradientUnits="userSpaceOnUse" x1="243.867" x2="257.867" xlink:href="#a" y1=".3136" y2="512.3136"/><linearGradient id="c" gradientUnits="userSpaceOnUse" x1="249.1865" x2="263.1865" xlink:href="#a" y1=".2137" y2="512.2136"/><linearGradient id="d" gradientUnits="userSpaceOnUse" x1="448.0943" x2="462.0943" xlink:href="#a" y1="-5.2252" y2="506.7747"/><linearGradient id="e" gradientUnits="userSpaceOnUse" x1="57.4953" x2="71.4953" xlink:href="#a" y1="5.4552" y2="517.4552"/><linearGradient id="f" gradientUnits="userSpaceOnUse" x1="210.2967" x2="224.2967" xlink:href="#a" y1="1.277" y2="513.277"/><linearGradient id="g" gradientUnits="userSpaceOnUse" x1="290.6246" x2="304.6246" xlink:href="#a" y1="-.9194" y2="511.0806"/><path d="m350.7 276.2c19-15.6 14.2-36.9 14.9-41.2h1.4c20.5 0 37.2-16.7 37.2-37.2 0-9.1-4.5-17.2-11.3-22.1v-21.1c0-57.1-38.6-105.3-91.1-120-5.7-20.3-24.3-34.6-45.8-34.6s-40.1 14.3-45.8 34.6c-52.5 14.7-91.1 62.9-91.1 120v21.1c-6.8 5-11.3 13-11.3 22.1 0 20.5 16.7 37.2 37.2 37.2h1.4v9.6c0 12.5 5.6 23.9 14.9 31.5-44.1 22.3-72.9 68-72.9 118.3v100.7c0 9.3 7.6 16.8 16.8 16.8h40.8c4.1 0 7.5-3.4 7.5-7.5s-3.4-7.5-7.5-7.5h-40.7c-1 0-1.8-.8-1.8-1.8v-100.6c0-48.5 30.2-92.3 75.3-109.6l13.4 4.4 22.4 34.5c1.4 2.2 3.8 3.4 6.3 3.4 1.4 0 2.8-.4 4.1-1.2 3.5-2.3 4.5-6.9 2.2-10.4l-12.2-18.8 28.3 9.3c8.1 2.7 17.2 2.8 25.6 0l28.3-9.3-41.2 63.3-12.5-19.3c-2.3-3.5-6.9-4.5-10.4-2.2s-4.5 6.9-2.2 10.4l16.3 25c-8.7 15-36.9 67.6-38.8 123h-32.4c-4.1 0-7.5 3.4-7.5 7.5s3.4 7.5 7.5 7.5h230.7c9.3 0 16.8-7.6 16.8-16.8v-100.7c0-50.3-28.7-96-72.8-118.3zm16.3-56.2h-1.4v-34.6h11.3c6.8 0 12.3 5.5 12.3 12.3 0 12.4-9.9 22.3-22.2 22.3zm-111-205c11.9 0 22.4 6.3 28.1 16-5.2-.7-10.4-1-15.8-1h-24.7c-5.3 0-10.6.3-15.8 1 5.8-9.7 16.3-16 28.2-16zm-121.9 139.6c0-60.4 49.1-109.6 109.6-109.6h24.7c60.4 0 109.6 49.2 109.6 109.6v15.9c-1.4-.1-.1 0-12.4 0v-24.7c0-2-.8-3.9-2.3-5.4-1.4-1.4-3.4-2.2-5.4-2.1-46.2.9-75.9-7.6-88.2-25.4-3.6-5.1-9.2-8.3-15.3-8.8-6.1-.4-11.9 1.9-16 6.4-18.1 19.7-45.6 28.8-84.2 27.7-2-.1-4 .7-5.4 2.1s-2.3 3.4-2.3 5.4v24.7c-12.3 0-11 0-12.4 0zm10.9 65.4c-12.3 0-22.2-10-22.2-22.2 0-6.8 5.5-12.3 12.3-12.3h11.3v34.5zm119.1 71.9c-5.2 1.7-11 1.7-16.2 0-12.1-4-49.6-16.3-68.7-22.6-10.6-3.5-17.8-13.4-17.8-24.6 0-11.1 0-81 0-91.3 39.2-.2 68-11 87.9-32.7 1.4-1.5 3.1-1.6 4-1.6 1.6.1 3.1 1 4 2.3 14.8 21.4 45.3 31.9 93.2 31.9v91.3c0 11.2-7.1 21.1-17.8 24.6zm144.4 203.3c0 1-.8 1.8-1.8 1.8h-183.3c2.2-59.2 37.8-117.3 38.9-119.1l57.6-88.6 13.4-4.4c45.1 17.4 75.3 61.1 75.3 109.6z" fill="url(#b)"/><path d="m274.3 242.5c-12.3 5.2-24.2 5.2-36.5 0-3.8-1.6-8.2.2-9.8 4s.2 8.2 4 9.8c8 3.4 16 5 24.1 5 8 0 16.1-1.7 24.1-5 3.8-1.6 5.6-6 4-9.8-1.7-3.8-6.1-5.6-9.9-4z" fill="url(#c)"/><path d="m486.8 0c-4.1 0-7.5 3.4-7.5 7.5v170c0 16.8-6.5 32.6-18.4 44.6l-24.7 24.7c-2.1 2.1-5.6 2.2-7.7-.1-2-2.1-2-5.4.1-7.5l22-22.3c4.4-4.4 7-10.3 7.4-16.5l5.2-75c.4-5.1-3-9.7-8-10.9s-10.1 1.4-12 6.2l-16.4 40c-1 2.5-4.8 1.8-4.8-1v-35.1c0-18.5 6.4-36.5 18.1-50.9 3.6-4.4 5.6-10 5.6-15.7v-50.5c0-4.1-3.4-7.5-7.5-7.5s-7.5 3.4-7.5 7.5v50.6c0 2.3-.8 4.5-2.2 6.2-13.9 17-21.5 38.4-21.5 60.4v35.1c0 9.7 7.9 17.5 17.5 17.5 7.1 0 13.5-4.3 16.2-10.9l5.6-13.7-3.3 46.6c-.2 2.6-1.3 5.1-3.2 7l-22 22.3c-7.8 7.9-7.9 20.4-.2 28.4 7.9 8.3 21.1 8.4 29.2.3l24.7-24.7c14.7-14.7 22.8-34.3 22.8-55.2v-169.9c0-4.1-3.4-7.5-7.5-7.5z" fill="url(#d)"/><path d="m94.3 228.6-22-22.3c-1.9-1.9-3-4.4-3.2-7l-3.3-46.6 5.6 13.7c2.7 6.6 9.1 10.9 16.2 10.9 9.7 0 17.5-7.9 17.5-17.5v-35.1c0-21.9-7.6-43.4-21.5-60.4-1.4-1.7-2.2-4-2.2-6.2v-50.6c.1-4.1-3.3-7.5-7.4-7.5s-7.5 3.4-7.5 7.5v50.6c0 5.7 2 11.3 5.6 15.7 11.7 14.3 18.1 32.4 18.1 50.9v35.1c0 2.7-3.8 3.5-4.8.9l-16.4-40c-2-4.8-7-7.4-12-6.2s-8.4 5.7-8 10.9l5.2 75c.4 6.2 3.1 12 7.4 16.5l22 22.3c2.1 2.1 2.1 5.4.1 7.5-2.1 2.2-5.6 2.2-7.7.1l-24.8-24.8c-11.9-11.9-18.4-27.7-18.4-44.6v-169.9c0-4.1-3.4-7.5-7.5-7.5s-7.5 3.4-7.5 7.5v170c0 20.8 8.1 40.4 22.8 55.2l24.7 24.7c8.1 8.1 21.3 8 29.2-.3 7.7-8.1 7.6-20.5-.2-28.5z" fill="url(#e)"/><path d="m231.2 200c-1.5-3.9-5.9-5.8-9.7-4.2-4.2 1.7-7.2 1.7-11.4 0-3.9-1.5-8.2.4-9.7 4.2-1.5 3.9.4 8.2 4.2 9.7 3.9 1.5 7.5 2.3 11.2 2.3s7.3-.8 11.2-2.3c3.8-1.5 5.7-5.8 4.2-9.7z" fill="url(#f)"/><path d="m301.9 195.8c-4.2 1.6-7.2 1.6-11.4 0-3.9-1.5-8.2.4-9.7 4.2-1.5 3.9.4 8.2 4.2 9.7 3.9 1.5 7.5 2.3 11.2 2.3s7.3-.8 11.2-2.3 5.8-5.9 4.2-9.7c-1.5-3.8-5.8-5.7-9.7-4.2z" fill="url(#g)"/></svg>