<?xml version="1.0" encoding="utf-8"?>
<!-- Generator: Adobe Illustrator 24.0.3, SVG Export Plug-In . SVG Version: 6.00 Build 0)  -->
<svg version="1.1" id="Capa_1" xmlns="http://www.w3.org/2000/svg" xmlns:xlink="http://www.w3.org/1999/xlink" x="0px" y="0px"
	 viewBox="0 0 512 512" style="enable-background:new 0 0 512 512;" xml:space="preserve">
<style type="text/css">
	.st0{fill:url(#SVGID_1_);}
	.st1{fill:url(#SVGID_2_);}
	.st2{fill:url(#SVGID_3_);}
	.st3{fill:url(#SVGID_4_);}
	.st4{fill:url(#SVGID_5_);}
	.st5{fill:url(#SVGID_6_);}
</style>
<g>
	<linearGradient id="SVGID_1_" gradientUnits="userSpaceOnUse" x1="243.867" y1="0.3136" x2="257.867" y2="512.3136">
		<stop  offset="0" style="stop-color:#4CB5EA"/>
		<stop  offset="1" style="stop-color:#5A6CDD"/>
	</linearGradient>
	<path class="st0" d="M350.7,276.2c19-15.6,14.2-36.9,14.9-41.2h1.4c20.5,0,37.2-16.7,37.2-37.2c0-9.1-4.5-17.2-11.3-22.1v-21.1
		c0-57.1-38.6-105.3-91.1-120C296.1,14.3,277.5,0,256,0s-40.1,14.3-45.8,34.6c-52.5,14.7-91.1,62.9-91.1,120v21.1
		c-6.8,5-11.3,13-11.3,22.1c0,20.5,16.7,37.2,37.2,37.2h1.4v9.6c0,12.5,5.6,23.9,14.9,31.5c-44.1,22.3-72.9,68-72.9,118.3v100.7
		c0,9.3,7.6,16.8,16.8,16.8H146c4.1,0,7.5-3.4,7.5-7.5s-3.4-7.5-7.5-7.5h-40.7c-1,0-1.8-0.8-1.8-1.8V394.5
		c0-48.5,30.2-92.3,75.3-109.6l13.4,4.4l22.4,34.5c1.4,2.2,3.8,3.4,6.3,3.4c1.4,0,2.8-0.4,4.1-1.2c3.5-2.3,4.5-6.9,2.2-10.4
		l-12.2-18.8l28.3,9.3c8.1,2.7,17.2,2.8,25.6,0l28.3-9.3L256,360.1l-12.5-19.3c-2.3-3.5-6.9-4.5-10.4-2.2c-3.5,2.3-4.5,6.9-2.2,10.4
		l16.3,25c-8.7,15-36.9,67.6-38.8,123H176c-4.1,0-7.5,3.4-7.5,7.5s3.4,7.5,7.5,7.5h230.7c9.3,0,16.8-7.6,16.8-16.8V394.5
		C423.5,344.2,394.8,298.5,350.7,276.2L350.7,276.2z M367,220h-1.4v-34.6h11.3c6.8,0,12.3,5.5,12.3,12.3
		C389.2,210.1,379.3,220,367,220L367,220z M256,15c11.9,0,22.4,6.3,28.1,16c-5.2-0.7-10.4-1-15.8-1h-24.7c-5.3,0-10.6,0.3-15.8,1
		C233.6,21.3,244.1,15,256,15z M134.1,154.6C134.1,94.2,183.2,45,243.7,45h24.7c60.4,0,109.6,49.2,109.6,109.6v15.9
		c-1.4-0.1-0.1,0-12.4,0v-24.7c0-2-0.8-3.9-2.3-5.4c-1.4-1.4-3.4-2.2-5.4-2.1c-46.2,0.9-75.9-7.6-88.2-25.4
		c-3.6-5.1-9.2-8.3-15.3-8.8c-6.1-0.4-11.9,1.9-16,6.4c-18.1,19.7-45.6,28.8-84.2,27.7c-2-0.1-4,0.7-5.4,2.1s-2.3,3.4-2.3,5.4v24.7
		c-12.3,0-11,0-12.4,0L134.1,154.6z M145,220c-12.3,0-22.2-10-22.2-22.2c0-6.8,5.5-12.3,12.3-12.3h11.3V220L145,220z M264.1,291.9
		c-5.2,1.7-11,1.7-16.2,0c-12.1-4-49.6-16.3-68.7-22.6c-10.6-3.5-17.8-13.4-17.8-24.6c0-11.1,0-81,0-91.3c39.2-0.2,68-11,87.9-32.7
		c1.4-1.5,3.1-1.6,4-1.6c1.6,0.1,3.1,1,4,2.3c14.8,21.4,45.3,31.9,93.2,31.9v91.3c0,11.2-7.1,21.1-17.8,24.6L264.1,291.9z
		 M408.5,495.2c0,1-0.8,1.8-1.8,1.8H223.4c2.2-59.2,37.8-117.3,38.9-119.1l57.6-88.6l13.4-4.4c45.1,17.4,75.3,61.1,75.3,109.6
		L408.5,495.2z"/>
	<linearGradient id="SVGID_2_" gradientUnits="userSpaceOnUse" x1="249.1865" y1="0.2137" x2="263.1865" y2="512.2136">
		<stop  offset="0" style="stop-color:#4CB5EA"/>
		<stop  offset="1" style="stop-color:#5A6CDD"/>
	</linearGradient>
	<path class="st1" d="M274.3,242.5c-12.3,5.2-24.2,5.2-36.5,0c-3.8-1.6-8.2,0.2-9.8,4s0.2,8.2,4,9.8c8,3.4,16,5,24.1,5
		c8,0,16.1-1.7,24.1-5c3.8-1.6,5.6-6,4-9.8C282.5,242.7,278.1,240.9,274.3,242.5L274.3,242.5z"/>
	<linearGradient id="SVGID_3_" gradientUnits="userSpaceOnUse" x1="448.0943" y1="-5.2252" x2="462.0943" y2="506.7747">
		<stop  offset="0" style="stop-color:#4CB5EA"/>
		<stop  offset="1" style="stop-color:#5A6CDD"/>
	</linearGradient>
	<path class="st2" d="M486.8,0c-4.1,0-7.5,3.4-7.5,7.5v170c0,16.8-6.5,32.6-18.4,44.6l-24.7,24.7c-2.1,2.1-5.6,2.2-7.7-0.1
		c-2-2.1-2-5.4,0.1-7.5l22-22.3c4.4-4.4,7-10.3,7.4-16.5l5.2-75c0.4-5.1-3-9.7-8-10.9c-5-1.2-10.1,1.4-12,6.2l-16.4,40
		c-1,2.5-4.8,1.8-4.8-1v-35.1c0-18.5,6.4-36.5,18.1-50.9c3.6-4.4,5.6-10,5.6-15.7V7.5c0-4.1-3.4-7.5-7.5-7.5s-7.5,3.4-7.5,7.5v50.6
		c0,2.3-0.8,4.5-2.2,6.2c-13.9,17-21.5,38.4-21.5,60.4v35.1c0,9.7,7.9,17.5,17.5,17.5c7.1,0,13.5-4.3,16.2-10.9l5.6-13.7l-3.3,46.6
		c-0.2,2.6-1.3,5.1-3.2,7l-22,22.3c-7.8,7.9-7.9,20.4-0.2,28.4c7.9,8.3,21.1,8.4,29.2,0.3l24.7-24.7c14.7-14.7,22.8-34.3,22.8-55.2
		V7.5C494.3,3.4,490.9,0,486.8,0L486.8,0z"/>
	<linearGradient id="SVGID_4_" gradientUnits="userSpaceOnUse" x1="57.4953" y1="5.4552" x2="71.4953" y2="517.4552">
		<stop  offset="0" style="stop-color:#4CB5EA"/>
		<stop  offset="1" style="stop-color:#5A6CDD"/>
	</linearGradient>
	<path class="st3" d="M94.3,228.6l-22-22.3c-1.9-1.9-3-4.4-3.2-7l-3.3-46.6l5.6,13.7c2.7,6.6,9.1,10.9,16.2,10.9
		c9.7,0,17.5-7.9,17.5-17.5v-35.1c0-21.9-7.6-43.4-21.5-60.4c-1.4-1.7-2.2-4-2.2-6.2V7.5C81.5,3.4,78.1,0,74,0s-7.5,3.4-7.5,7.5
		v50.6c0,5.7,2,11.3,5.6,15.7c11.7,14.3,18.1,32.4,18.1,50.9v35.1c0,2.7-3.8,3.5-4.8,0.9l-16.4-40c-2-4.8-7-7.4-12-6.2
		c-5,1.2-8.4,5.7-8,10.9l5.2,75c0.4,6.2,3.1,12,7.4,16.5l22,22.3c2.1,2.1,2.1,5.4,0.1,7.5c-2.1,2.2-5.6,2.2-7.7,0.1L51.2,222
		c-11.9-11.9-18.4-27.7-18.4-44.6V7.5c0-4.1-3.4-7.5-7.5-7.5s-7.5,3.4-7.5,7.5v170c0,20.8,8.1,40.4,22.8,55.2l24.7,24.7
		c8.1,8.1,21.3,8,29.2-0.3C102.2,249,102.1,236.6,94.3,228.6z"/>
	<linearGradient id="SVGID_5_" gradientUnits="userSpaceOnUse" x1="210.2967" y1="1.277" x2="224.2967" y2="513.277">
		<stop  offset="0" style="stop-color:#4CB5EA"/>
		<stop  offset="1" style="stop-color:#5A6CDD"/>
	</linearGradient>
	<path class="st4" d="M231.2,200c-1.5-3.9-5.9-5.8-9.7-4.2c-4.2,1.7-7.2,1.7-11.4,0c-3.9-1.5-8.2,0.4-9.7,4.2
		c-1.5,3.9,0.4,8.2,4.2,9.7c3.9,1.5,7.5,2.3,11.2,2.3s7.3-0.8,11.2-2.3C230.8,208.2,232.7,203.9,231.2,200L231.2,200z"/>
	<linearGradient id="SVGID_6_" gradientUnits="userSpaceOnUse" x1="290.6246" y1="-0.9194" x2="304.6246" y2="511.0806">
		<stop  offset="0" style="stop-color:#4CB5EA"/>
		<stop  offset="1" style="stop-color:#5A6CDD"/>
	</linearGradient>
	<path class="st5" d="M301.9,195.8c-4.2,1.6-7.2,1.6-11.4,0c-3.9-1.5-8.2,0.4-9.7,4.2c-1.5,3.9,0.4,8.2,4.2,9.7
		c3.9,1.5,7.5,2.3,11.2,2.3s7.3-0.8,11.2-2.3c3.9-1.5,5.8-5.9,4.2-9.7C310.1,196.2,305.8,194.3,301.9,195.8L301.9,195.8z"/>
</g>
</svg>
