<svg height="23" viewBox="0 0 23 23" width="23" xmlns="http://www.w3.org/2000/svg"><path d="m22.6503001 20.9493558-5.6698935-5.6932732c1.4578293-1.6731384 2.2565825-3.7782888 2.2565825-5.96984168 0-5.1203525-4.3149403-9.28624092-9.61849455-9.28624092-5.30355426 0-9.61849455 4.16588842-9.61849455 9.28624092 0 5.12035248 4.31494029 9.28624088 9.61849455 9.28624088 1.99102835 0 3.88838095-.5797844 5.51056095-1.6804058l5.7129676 5.7364744c.2387896.2394235.5599637.3714496.9041385.3714496.3257742 0 .6348206-.1199136.8694283-.3379384.4984889-.4631008.5143803-1.2310326.0347102-1.7127058zm-13.03180555-18.52685817c3.92016385 0 7.10932205 3.07899449 7.10932205 6.86374329 0 3.78474878-3.1891582 6.86374328-7.10932205 6.86374328-3.92016382 0-7.10932206-3.0789945-7.10932206-6.86374328 0-3.7847488 3.18915824-6.86374329 7.10932206-6.86374329z" fill="#fff"/></svg>