<svg height="351" viewBox="0 0 319 351" width="319" xmlns="http://www.w3.org/2000/svg" xmlns:xlink="http://www.w3.org/1999/xlink"><linearGradient id="a"><stop offset=".01" stop-color="#fff"/><stop offset="1" stop-color="#fff" stop-opacity="0"/></linearGradient><linearGradient id="b" x1="15.156308%" x2="91.608437%" xlink:href="#a" y1="-13.490227%" y2="125.391787%"/><linearGradient id="c"><stop offset=".01"/><stop offset=".08" stop-opacity=".69"/><stop offset=".21" stop-opacity=".32"/><stop offset="1" stop-opacity="0"/></linearGradient><linearGradient id="d" x1="-108.85029%" x2="309.649776%" xlink:href="#c" y1="-35.091197%" y2="212.140917%"/><linearGradient id="e" x1="119.144323%" x2="-54.839737%" xlink:href="#c" y1="118.419407%" y2="-62.966349%"/><linearGradient id="f" x1="55.130906%" x2="18.311767%" xlink:href="#c" y1="36.241085%" y2="126.860639%"/><linearGradient id="g" x1="11.080391%" x2="196.214377%" xlink:href="#c" y1="33.960206%" y2="105.262857%"/><linearGradient id="h" x1="-25.51409%" x2="388.068038%" xlink:href="#c" y1="52.31673%" y2="39.632554%"/><linearGradient id="i" x1="20.656314%" x2="186.903018%" xlink:href="#c" y1="23.676813%" y2="172.783044%"/><linearGradient id="j" x1="29.664855%" x2="122.282609%" xlink:href="#c" y1="34.383853%" y2="103.954202%"/><linearGradient id="k" x1="60.172043%" x2="-82.9799%" xlink:href="#c" y1="44.30271%" y2="124.371615%"/><linearGradient id="l" x1="35.122551%" x2="67.675485%" xlink:href="#a" y1="-1.831677%" y2="103.311736%"/><linearGradient id="m" x1="-74.076322%" x2="249.604577%" xlink:href="#c" y1="-28.829529%" y2="205.720201%"/><linearGradient id="n" x1="80.837904%" x2="13.328701%" xlink:href="#a" y1="10.009919%" y2="82.648757%"/><linearGradient id="o" x1="21.805098%" x2="95.414829%" xlink:href="#c" y1="-26.872363%" y2="200.190629%"/><g fill="none"><path d="m287.1661 230.56341-45.223068 33.550154c-2.003418 1.4839-4.827095 1.061626-6.311222-.943828l-18.757128-25.409633c-.353514-.47355-.604092-1.016118-.735574-1.592711-.44979-1.77286.212592-3.642532 1.677108-4.73389l45.23778-33.550153c1.082096-.797939 2.461606-1.073433 3.766137-.752114 1.015739.259481 1.913242.857541 2.545085 1.695942l18.757128 25.42438c.708595.963968 1.005953 2.170722.826602 3.354557s-.820705 2.247681-1.782848 2.957296z" fill="#4c6ac4"/><path d="m267 197.130674-8.400455 37.533055-42.459945 1.336271c-.451381-1.765284.213345-3.626965 1.683044-4.713658l45.397889-33.406769c1.085926-.794528 2.470319-1.068845 3.779467-.748899z" fill="url(#b)"/><path d="m243 235.052479 1.386059 26.947521 42.613941-31.725661-25.789544-9.274339-2.993298 13.562794z" fill="url(#d)"/><path d="m296 16.6601963-50.468729 71.6329883-9.699873-26.805641c-33.496331 8.8624623-66.472774 19.5709479-98.777032 32.0760019-37.2416307 14.7716505-73.1017644 33.1300745-83.4042045 52.1033735-23.6177193 43.582956 31.8626106 62.849053 31.8626106 62.849053-10.5551261.840797-21.1694214.585666-31.6715525-.761274-27.6740295-3.616053-62.03509211-16.967634-52.08537467-62.087779 7.86277524-35.648136 59.05164657-65.6306331 109.34401407-86.9902346h.073484c7.348388-3.1036569 14.696776-6.0169953 21.83941-8.7839347l.205754-.0878394c26.904927-10.2474624 54.344351-19.0441355 82.199069-26.3518044l-4.835239-23.4531059z" fill="#4c6ac4"/><path d="m53.8562649 145.744532c-23.5532106 43.529547 31.7755823 62.772033 31.7755823 62.772033-10.5262963.839767-21.1116001.584949-31.585046-.760341-4.1470961-4.816198-8.0224341-9.858813-11.608054-15.104475-31.7609256-46.088388 36.3631086-82.409313 36.3631086-82.409313 5.6721173-20.660816 32.3471912-37.7538761 32.3471912-37.7538761v-13.6276579h.073283l21.779758-8.7731703.205193-.0877317 4.792719 39.9471688-.967338 3.7285973c-37.1399101 14.7827919-72.9020967 33.1187179-83.1763971 52.0687659z" fill="url(#e)"/><path d="m208.461622 296.620002c-1.35734 2.299996-2.197235 4.866298-2.461622 7.521487.04558 2.657625.91013 5.237012 2.476451 7.388493 3.218284 4.757419 8.151904 8.096693 13.776186 9.324279.735876.225104 1.527365.188541 2.239186-.103439.487477-.297882.866743-.743119 1.08252-1.270821 1.349444-2.733742.800769-5.98468-.088974-8.866192s-2.105725-5.807356-1.972263-8.866192c.222435-5.718694 8.422899-16.757104-1.127008-19.446515-7.963199-2.30521-11.388709 9.22084-13.924476 14.3189z" fill="#b2857f"/><path d="m202.365454 304s-2.834875 2.281167-2.297741 4.796301c.537134 2.515133 10.727767 20.047952 25.245316 18.044619 14.517548-2.003333-9.32525-16.085155-9.32525-16.085155z" fill="#4c6ac4"/><path d="m206.735419 298c1.223478.044543 2.22884.981348 2.360785 2.199799.766252 3.451569 3.259257 6.261995 6.592381 7.431755 3.771317 1.025582 7.215984-2.125482 8.908622-1.233672 1.692639.891811 6.443904 13.30284 5.196697 16.840355s-7.097203 3.448334-12.293904 1.025583c-5.196692-2.422752-14.669527-12.098896-15.397064-15.918818-.727538-3.819922 2.568652-9.31942 4.632483-10.345002z" fill="#fff"/><path d="m147.347213 316.783766c-1.384104 2.609018-2.185043 5.488673-2.347213 8.439046.201709 2.911196 1.275431 5.693608 3.080717 7.983279 3.767322 5.117147 9.357854 8.582012 15.608968 9.674029.817206.216279 1.684235.138232 2.449903-.220532.516554-.367512.914358-.878634 1.144267-1.470217 1.349647-3.087456.572133-6.660084-.528123-9.835753s-2.567265-6.307232-2.625945-9.659327c0-6.321934 8.464637-18.951099-2.156502-21.465171-8.8754-2.10241-12.102818 10.806096-14.626072 16.554646z" fill="#b2857f"/><path d="m141.403884 326s-2.975182 2.718626-2.305766 5.526387c.669416 2.80776 12.837913 22.135257 28.844396 19.164082 16.006482-2.971176-11.097432-17.604215-11.097432-17.604215z" fill="#4c6ac4"/><path d="m146.68737 318c1.339829-.014439 2.48433.980877 2.679807 2.330654.984759 3.761596 3.822464 6.729368 7.488974 7.832235 4.142836.943999 7.749711-2.669745 9.574877-1.784746 1.825166.884998 7.619342 14.381223 6.402565 18.319465-1.216777 3.938243-7.546915 4.144742-13.297636 1.725747-5.75072-2.418995-16.484432-12.655476-17.38253-16.829718-.898097-4.174242 2.346642-10.354481 4.533943-11.593637z" fill="#fff"/><path d="m179.114216 164.126039c.397251.069585.787976.172564 1.16805.30785 9.227594 3.518287 20.33867 19.203981 26.616938 26.651022 8.161415 9.431218 14.954586 19.973007 20.178063 31.312751 10.600053 23.763095 11.578295 53.287384-3.314342 74.602338l-11.446889-2.404163c-.999614-.111086-1.941806-.525277-2.701116-1.187421-.789316-1.1618-1.069062-2.597971-.773833-3.972732.604749-8.210345.227308-16.463871-1.124248-24.584029-.755397-5.565348-2.454137-10.959784-5.022615-15.949566-3.591753-6.494171-9.256796-11.522389-14.775832-16.44799-17.520749-15.583079-33.231021-31.6939-41.918392-53.72717 7.840535-3.870116 24.660454-16.096162 33.114216-14.60089z" fill="#473f47"/><path d="m152.937195 175.826139c.381729.1515.743402.349046 1.076935.588224 8.246672 5.588131 15.490171 23.528974 19.915933 32.234694 5.796387 11.124419 9.997591 23.00481 12.480652 35.293461 4.824081 25.661287-1.121193 54.690158-20.756828 72.057482l-10.695594-5.044024c-.952073-.343646-1.779251-.963336-2.375159-1.779378-.500791-1.325058-.436842-2.796531.17703-4.073454 2.522944-7.867817 4.088102-16.009384 4.661804-24.249549.565411-5.605388.161222-11.265932-1.194956-16.734982-1.991593-7.161632-6.387851-13.39681-10.651336-19.514343-13.498577-19.293758-25.212096-38.719867-28.575676-62.248841 8.600733-1.94114 28.000327-9.91158 35.937195-6.52929z" fill="#473f47"/><path d="m200.45604 119.842481c.007243.063112.007243.126845 0 .189957.131476 2.440209.93494 4.588178.306777 7.072224-.671988 2.761674-3.243073 5.260332-6.047894 4.851195-2.33735-.336077-3.92967-2.44021-5.726508-3.974473-1.880495-1.506077-3.966162-2.736136-6.193979-3.653009-2.921688-1.358919-5.931026-2.630166-8.940365-3.799128-1.928314-.759826-5.609641-1.227411-6.427714-3.200036-.818072-1.972624-.55512-5.084987-.788855-7.174508l-3.637502-33.154703 33.847755 27.762863c1.388254 3.035914 2.46978 6.202972 3.228466 9.453985.323275 1.856725.45058 3.742291.379819 5.625633z" fill="#fff"/><path d="m174.979725 124.157253c.204743 1.964556.658104 3.914452.892097 5.864347 1.228462 10.834383-.102372 22.313844 4.284992 32.591114.994469 2.287095 2.281429 4.7208 1.696448 7.154504-.71459 2.062547-2.154881 3.793105-4.051 4.867409-8.950222 6.274852-19.81626 9.075078-30.404431 11.728696-7.970378 2.0232-19.187405 5.703078-27.143158 2.155147-3.392895-1.466087-4.85535-4.867408-6.244681-8.210087-4.387364-10.643791-6.698043-22.372487-8.774728-33.72-.263242-1.466087-.541108-2.932174-.789726-4.471565-1.725696-10.233287-3.076029-20.554539-4.050999-30.963757-.6727291-7.565009-.9798445-15.7750956 3.319772-21.9913043 5.703573-8.2980523 17.783448-14.6608697 27.187031-17.5930436 3.041062-.9814059 6.209369-1.5099453 9.403584-1.5687131 4.551036.2132059 9.032209 1.2048843 13.249839 2.9321739 5.016219 1.8326087 9.476706 3.3573392 12.328492 7.8142436 3.161697 5.1774711 5.583695 10.7737478 7.195277 16.6254262 1.517569 5.4797233 2.270578 11.1437863 2.237555 16.8306783 0 2.785565-.380238 5.600452-.365613 8.371357-.04619.527341-.036386 1.058108.029249 1.583374z" fill="#fff"/><path d="m137.386724 190.590437c-3.034649 1.275574-10.562912-.82106-12.999385-.982339-1.458966-.087971-2.917932-.674442-4.376898-.850383-7.294828-1.011663-10.402425-21.098296-11.671726-26.391197-3.41398-14.148613-7.878415-28.693095-9.6583531-43.061635-.6711242-5.556813-1.1525829-11.230921.087538-16.670439 1.2401211-5.4395193 4.3768971-10.688435 9.4103291-13.1955987 8.753795-4.3105621 14.662606 24.4118567 16.573851 30.2765667 2.392704 7.330888 4.799998 14.661776 7.178112 21.992664 1.050455 3.284238 1.386017 6.93502 3.180545 9.940684 2.728266 4.559812 5.033432 3.694768 9.599995 2.932355 9.585405-1.671442 18.543455-5.762078 27.982963-8.049315.784413-.294771 1.654937-.252355 2.407294.117295.508595.420398.85448 1.006641.977507 1.65678.555986 1.851472.860263 3.770001.904559 5.703431.055198.553494-.024934 1.112162-.233435 1.627457-.329457.526263-.786221.960064-1.327659 1.260913-6.379946 4.241284-13.38671 7.44282-20.761083 9.486169-5.835863 1.642119-11.365343 4.398533-15.30455 9.295566-3.545287 4.398533 1.065045 9.031654-.86079 13.796731-.20314.507707-.603604.910151-1.108814 1.114295z" fill="#020202" opacity=".1"/><path d="m131 167.943579 56.535059-18.943579 41.464941 23.5-57.69997 23.5z" fill="#4c6ac4"/><path d="m131 167.943579 56.535059-18.943579 41.464941 23.5-57.69997 23.5z" fill="url(#f)"/><path d="m133 164.943579 56.535059-18.943579 41.464941 23.5-57.69997 23.5z" fill="#4c6ac4"/><path d="m176.452148 190 46.547852-20.538872-22.716291-12.461128-46.283709 17.50422z" fill="url(#g)"/><path d="m174 193h55.350057l47.649943-30-45.717595 6.260483z" fill="#4c6ac4"/><path d="m154.807281 56.5884386c-.580119 2.0556328-1.204862 4.1112657-1.87423 6.1523195-1.487483 4.665266-4.462451 8.9223212-9.638895 10.0449009-1.144044.2157971-2.3022.3522061-3.465837.4082107-.223122 0-.475995 0-.773491 0-.032867.0156725-.071258.0156725-.104124 0h-.133874c-.580856-.0267727-1.162517.0322023-1.725481.1749475-.157335.0080093-.310393.0530133-.446245.1312106-1.487484.670632-1.368485 3.0324229-1.264361 4.3736869.36634 1.5090553.187612 3.0959158-.505745 4.4903185 0 0 0 .0874737-.089249.1457896-.832967.8905107-1.995966 1.4157944-3.22784 1.4578956-2.564636.2031343-5.112037-.5578729-7.125047-2.1285276-1.151928-1.0482962-2.077558-2.3124533-2.722095-3.7176339-.201689-.39934-.370799-.8137054-.505745-1.2392112-.168754-.721399-.23384-1.4623693-.193373-2.2014224.027162-1.1336156.13652-2.2639042.327247-3.3823179.548669-2.2072473.980615-4.4408049 1.294111-6.6917409.019563-1.1404074.099-2.2790723.237997-3.4114757.190335-.7235434.329498-1.4590983.416495-2.2014224 0-2.1431066-1.115612-4.2133184-1.130487-6.3855828-.019774-2.1481826.184577-4.2927189.609868-6.4001618.793627-4.1802403 2.650831-8.0965613 5.399566-11.3861648 5.10207-5.8315825 14.145971-8.7473737 21.256144-5.4233717 3.552987 1.6615326 6.309807 4.60915 7.690291 8.2225313 2.379974 6.1377405-.594994 12.975271-2.3056 18.967222z" fill="#b2857f"/><path d="m147.171718 162.441457c1.249018-.148693 2.512905-.282517 3.761923-.386603.744943-.104705 1.50331-.059203 2.230389.133824.72795.190481 1.296446.75898 1.486926 1.486934-.00783.271866.048189.541781.163562.788076.190342.220295.454863.363137.743463.401472 4.460778 1.159808 9.070249 2.973868 11.731847 6.646595.644564.707099.870397 1.70077.59477 2.617004-.60964 1.249025-2.393951 1.070593-3.732184.698859.393102.562652.393102 1.310886 0 1.873537-.406907.547709-1.057908.859301-1.739704.832684-.442344-.08162-.895889-.08162-1.338233 0-.303288.141114-.583915.326529-.832679.550165-1.265778.836093-2.819387 1.115636-4.297216.773206-1.486926-.22304-2.973852-.728598-4.460779-.847553-2.304735-.178432-4.371562.579905-6.512736-.356864-2.360792-1.168675-4.858344-2.037828-7.43463-2.587265-.819437-.13163-1.575095-.522489-2.156043-1.115201-.507192-1.020985-.507192-2.220531 0-3.241516.384917-1.824268 1.078901-3.569296 2.051958-5.159662 1.263887-1.784321 3.375322-2.096577 5.44215-2.453441 1.516664-.252779 2.869767-.44608 4.297216-.654251z" fill="#b2857f"/><path d="m104.030691 89.0591366c-10.7413961 17.8231244-21.3512647 38.4727594-24.4056209 59.2395554-.8037779 5.462634-1.2422022 11.906492 1.315273 17.032288 4.1796452 8.347724 18.3992074 9.973334 26.5831279 10.808106 9.800001.995683 19.668268 1.127997 29.491343.395419.436416.082751.885247-.058293 1.196366-.375954.31112-.317661.443452-.770002.352733-1.20572l.409196-9.4754c.06774-.442333.006855-.894858-.175369-1.303417-.519355-.605363-1.295603-.926313-2.089823-.864063-5.724018-.459494-11.348351-1.767382-16.689353-3.880959-5.071108-2.021028-14.979497-7.322566-14.263404-14.000746.394582-3.749153 4.501156-8.318434 6.532522-11.276751 4.881124-7.102888 10.142216-13.9861 15.520221-20.72286 0 0 .526109-38.3263084-23.777212-24.3694984z" fill="#fff"/><path d="m152.810962 48.5265455c1.474936-.3427861 2.733926-1.3017969 3.460269-2.6357906.601148 1.693385 3.445607 1.178007 4.164053-.4859278.718445-1.6639349 0-3.548746-.645135-5.2126808 1.368281-.3235114 2.481683-1.3184857 2.960643-2.6457321s.25882-2.8075924-.585374-3.9363817c-.483851-.5448283-1.15831-1.016031-1.29027-1.7522854-.031352-.5611316.053521-1.122695.249257-1.6492097.186248-1.7596267-.580255-3.4846378-2.008715-4.5206017-1.441431-.9985243-3.050869-1.7268776-4.750539-2.1498627.944138-1.5420102.598568-3.5486066-.806419-4.6825776-1.390404-1.066123-3.075697-1.6731688-4.82385-1.7375603-2.536553-.2797766-5.337025-.1619759-7.331078 1.4725087-2.801346-1.7460258-6.425699-1.3577688-8.797295.9424056-.409546.5702813-.982358 1.0017346-1.642161 1.2369073-.471609.0342084-.944461-.0466224-1.378243-.2356014-1.848725-.7940158-3.894188-1.0045756-5.864863-.6037286-2.041935.4889188-3.37261 2.4647242-3.064391 4.5500519-1.491118.1798659-2.713441 1.2723438-3.064391 2.7388662-.033355.4491529-.174191.8835793-.41054 1.2663574-.425203.500653-1.172973.4712028-1.803446.5301032-2.494187.2181901-4.401306 2.3269775-4.378474 4.8412485.023245 2.5142711 1.968684 4.5874533 4.466447 4.7595081-.280203 1.1960219-.051755 2.4552096.630473 3.4751205.777094 1.2516324 1.818108 1.3399829 2.844459 2.1204125.601148.4712028.366554.5153781.337229 1.4725087-.029557.8807576.014584 1.7624524.13196 2.6357906.200048 1.6822008.619054 3.3307612 1.246283 4.9034539.439865 1.1338317.997027 2.2234881 1.392905 3.3720449.545378 1.7591997.908961 3.5701159 1.085 5.4041069l2.477904-7.0385915c.027697-.0961968.027697-.198305 0-.2945018-.049653-.1306644-.142937-.2399629-.263919-.3092268-2.225997-1.7421042-2.945692-4.8047463-1.730134-7.3625434.335074-.7919467 1.057953-1.3503941 1.90608-1.4725087.997027 0 1.759459.8687801 2.24331 1.7375602.514872.9255347.904416 1.9159543 1.158311 2.9450174.670823-1.6113314 1.596718-3.1030997 2.741823-4.4175261.483851-.5448282 1.070338-1.4725087 1.847432-1.192732.777094.2797766 1.143648 1.693385 1.466216 2.208763 1.155114-.4512679 2.207441-1.1324555 3.093715-2.0026118-.208589 2.086649.810371 4.1045703 2.609864 5.1685055 1.847432.8687801 4.530606-.3681272 4.530606-2.4296393 0 .9276804 4.002769-.6331788 4.296012-.8098798.632723 1.2177017 1.937642 1.928295 3.298986 1.7964606z" fill="#fe9f24"/><path d="m133.393618 73.9654051c1.195303.1522702 2.402234.2004922 3.606382.1440903-.156978.0079159-.309689.0523954-.445232.1296812-1.484108.6628154-1.36538 2.9970784-1.261492 4.3227092.365509 1.4914665.187186 3.0598313-.504597 4.4379815-.462161.0034315-.922292-.0596942-1.365379-.1873174-.453887-.1555446-.872264-.3953481-1.23181-.7060425-2.753336-2.2006198-3.856938-5.8025952-2.790123-9.1065074 1.284805.4799443 2.625679.804194 3.992251.9654051z" fill="#96625e"/><path d="m191.678695 101s26.655062 19.911771 22.971976 39.794064c-3.421048 18.496871-6.492713 33.205936-6.492713 33.205936l-12.475909-7.369271s8.341536-27.870584-9.069417-39.985665c-17.410953-12.115082 5.066063-25.645064 5.066063-25.645064z" fill="#fff"/><path d="m193.363746 165.560757-1.18222 6.391309c-.208145.809678-.23772 1.658023-.086504 2.481332.164671.845733.860268 1.465871 1.686826 1.503837.865039 0 1.600323-.992532 2.465362-.812072.308943.095932.601037.243193.865039.436113 1.845416 1.052686 4.0801 0 6.026438-.947418.310801-.182296.671068-.251102 1.023629-.195498.418102.120307.677614.556419 1.038047.82711.737496.462827 1.672297.403007 2.350023-.150384.653209-.566261 1.150707-1.30314 1.441731-2.135449 1.577008-3.613775 1.289301-7.815186-.764117-11.158474-2.253145-2.905789-5.844889-4.300627-9.371256-3.639287-3.748502.616574-4.815384 3.684402-5.492998 7.398881z" fill="#b2857f"/><path d="m171 196h55.350057l47.649943-30-45.717595 6.260483z" fill="#4c6ac4"/><path d="m173.326479 193-2.326479 3h55.673521l2.326479-3z" fill="url(#h)"/><path d="m277 163-2.314679 3.057744-47.685321 29.942256 2.314679-3.057744z" fill="#4c6ac4"/><path d="m277 163-2.314679 3.057744-47.685321 29.942256 2.314679-3.057744z" fill="url(#i)"/><path d="m231.943617 171.293255 38.056383-5.293255-39.689894 24.252199-43.310106.747801z" fill="#fff"/><path d="m166.782609 168 21.217391-8.203966-10.231884-7.796034-21.768116 7.796034z" fill="url(#j)"/><path d="m120.613885 249.289392-85.1960825 39.02933c-3.7747639 1.725742-8.2293381.060198-9.9583647-3.723386l-21.79400569-47.918363c-.41698079-.88955-.64188904-1.857493-.65997999-2.84037-.11586437-3.055569 1.62353404-5.877322 4.39986657-7.137717l85.19608291-39.029329c2.0443587-.922667 4.3907953-.890339 6.409139.088301 1.5688324.759978 2.8241044 2.045617 3.5492254 3.635085l21.764674 47.93308c.824811 1.814951.897243 3.884376.20136 5.752923-.695884 1.868547-2.103066 3.383116-3.911915 4.210446z" fill="#4c6ac4"/><path d="m120.613885 249.289392-85.1960825 39.02933c-3.7747639 1.725742-8.2293381.060198-9.9583647-3.723386l-21.79400569-47.918363c-.41698079-.88955-.64188904-1.857493-.65997999-2.84037-.11586437-3.055569 1.62353404-5.877322 4.39986657-7.137717l85.19608291-39.029329c2.0443587-.922667 4.3907953-.890339 6.409139.088301 1.5688324.759978 2.8241044 2.045617 3.5492254 3.635085l21.764674 47.93308c.824811 1.814951.897243 3.884376.20136 5.752923-.695884 1.868547-2.103066 3.383116-3.911915 4.210446z" fill="url(#k)"/><path d="m124.602683 248.28736-85.177731 39.031327c-3.7739509 1.725831-8.2275655.060201-9.9562196-3.723577l-21.78931128-47.906097c-.41161662-.892108-.64096484-1.857959-.67450088-2.840515-.10980557-3.05779 1.6263682-5.880871 4.39891886-7.1528l85.1777314-39.016609c3.7702995-1.719032 8.2161645-.062873 9.9562195 3.708859l21.789311 47.935532c.823691 1.816866.893985 3.887878.195397 5.756799-.698587 1.86892-2.108743 3.38242-3.919815 4.207081z" fill="#4c6ac4"/><path d="m103 186.748805-26.6098825 58.251195-69.38519521-12.388263c-.10985134-3.042341 1.62704609-5.851159 4.40075231-7.116662l85.2132345-38.819486c2.0317453-.92575 4.3711989-.898907 6.3810909.073216z" fill="url(#l)"/><path d="m51.9584325 240.304031-6.9584325 43.695969 80-36.308888-38.6888848-23.691112-9.5074162 20.733366z" fill="url(#m)"/><path d="m307.558572 154.913542-54.943133-10.939061c-1.167709-.231752-2.196-.922283-2.858062-1.919284-.662062-.997-.903503-2.21856-.671068-3.395239l6.077132-31.001387c.106503-.581231.330836-1.134053.658966-1.623882 1.001537-1.534646 2.825176-2.305041 4.612763-1.948659l54.943134 10.939061c1.31772.249681 2.450198 1.092342 3.075175 2.288198.495226.924958.660636 1.993215.468598 3.026325l-6.091776 31.001387c-.226522 1.179907-.910087 2.220182-1.899452 2.890653-.989364.670472-2.202963.915866-3.372277.681888z" fill="#4c6ac4"/><path d="m318 118.106604-33.505618 18.893396-29.494382-29.996899c1.008616-1.510821 2.845144-2.269256 4.645365-1.918406l55.331461 10.769235c1.299593.265949 2.409361 1.092876 3.023174 2.252674z" fill="url(#n)"/><path d="m273.862167 126-18.862167 18.842714 52 10.157286-10.559274-24.977889-11.975043 6.776381z" fill="url(#o)"/></g></svg>