<svg height="35" viewBox="0 0 37 35" width="37" xmlns="http://www.w3.org/2000/svg" xmlns:xlink="http://www.w3.org/1999/xlink"><linearGradient id="a" x1="50%" x2="50%" y1="0%" y2="100%"><stop offset="0" stop-color="#4eb7ed"/><stop offset="1" stop-color="#5c6edd"/></linearGradient><path d="m35.1265124.3003838c-.2900484-.29011765-.7252236-.37932678-1.105848-.22702185l-32.94924007 13.17957195c-.37700142.150801-.62945223.509825-.64394439.9156753-.01442381.4057819.21198212.7818274.57729409.9590152l12.99291117 6.3014456 6.3014949 12.9929506c.1718552.3543755.5307414.5779794.9223717.5779794.012168 0 .0244043 0 .0366406-.0006836.4057123-.0144238.7648719-.2668754.9156041-.643878l13.1796687-32.94913486c.1523045-.38089904.0630956-.81587044-.2269528-1.10591974zm-31.13860786 13.9947588 26.15603686-10.46235079-15.5878977 15.58780819zm17.14375476 17.1438068-5.1255102-10.568308 15.587966-15.5878082z" fill="url(#a)" transform="translate(.573171)"/></svg>