<?xml version="1.0" encoding="UTF-8"?>
<svg width="314px" height="281px" viewBox="0 0 314 281" version="1.1" xmlns="http://www.w3.org/2000/svg" xmlns:xlink="http://www.w3.org/1999/xlink">
    <title>Settings_Monochromatic</title>
    <defs>
        <linearGradient x1="74.4993324%" y1="5.11486486%" x2="36.2483311%" y2="94.1283784%" id="linearGradient-1">
            <stop stop-color="#000000" offset="1%"></stop>
            <stop stop-color="#000000" stop-opacity="0.69" offset="13%"></stop>
            <stop stop-color="#000000" stop-opacity="0.32" offset="25%"></stop>
            <stop stop-color="#000000" stop-opacity="0" offset="100%"></stop>
        </linearGradient>
        <linearGradient x1="52.6493386%" y1="156.271845%" x2="49.4701323%" y2="25.592233%" id="linearGradient-2">
            <stop stop-color="#000000" offset="1%"></stop>
            <stop stop-color="#000000" stop-opacity="0.69" offset="13%"></stop>
            <stop stop-color="#000000" stop-opacity="0.32" offset="25%"></stop>
            <stop stop-color="#000000" stop-opacity="0" offset="100%"></stop>
        </linearGradient>
    </defs>
    <g id="Page-1" stroke="none" stroke-width="1" fill="none" fill-rule="evenodd">
        <g id="choice-before-going-setting-desktop" transform="translate(-980.000000, -159.000000)" fill-rule="nonzero">
            <g id="Settings_Monochromatic" transform="translate(980.000000, 159.660693)">
                <path d="M184.582196,3.85318153 C163.341515,11.3023099 147.098642,29.1248608 127.726408,40.9784818 C104.525578,55.106554 76.9803245,60.3775042 54.6506723,75.9617064 C31.3122884,92.2438884 15.6769467,118.670844 7.07980134,146.662238 C-0.290817944,170.730504 -2.82411011,197.061187 3.93897757,221.273862 C10.7020653,245.486538 27.7129502,267.352558 50.569894,275.355256 C74.0572951,283.574569 99.5621597,276.703079 124.299013,275.620007 C158.125914,274.127775 192.399867,283.63474 225.607773,276.715113 C253.530319,270.759798 278.189781,253.72931 294.453714,229.168254 C298.692191,223.041451 301.866497,216.176821 303.830333,208.89074 C305.962425,200.117857 305.515374,190.923779 305.847797,181.874111 C306.638734,159.827579 312.140907,138.226311 313.642542,116.215881 C314.788828,99.536573 313.413285,81.6658855 306.054128,66.5510144 C297.583074,49.1255899 282.326007,42.169861 268.123523,31.0142197 C243.22619,11.4226512 217.652548,-7.73568855 184.582196,3.85318153 Z" id="Path" fill="#4A67C6" opacity="0.18"></path>
                <g id="Q83r0t" transform="translate(218.000000, 37.339307)" fill="#4A67C6">
                    <path d="M62.6691079,91.7514601 C61.0759934,91.3335267 59.7211116,90.2861358 58.9153892,88.8496492 C58.3163916,87.7980755 57.7706382,86.7065687 57.1583294,85.668306 C56.0830197,83.5494691 53.7707031,82.3584383 51.4212629,82.7132509 C49.0582779,82.9105704 47.0752483,84.5737566 46.4695489,86.8663014 C46.0702172,88.1042299 45.7640628,89.3554694 45.35142,90.5800869 C44.8650736,92.1299197 43.7815903,93.4222901 42.3403983,94.17161 C40.8992063,94.9209299 39.2189523,95.0655113 37.6709389,94.5734046 C35.3548146,93.9211627 33.0253792,93.2422987 30.7092549,92.5368126 C29.1002162,92.097595 27.7365338,91.0275916 26.9271643,89.5692231 C26.1177948,88.1108546 25.9312461,86.3875622 26.4097828,84.7897761 C26.7425593,83.5518476 27.1685132,82.3272302 27.4879786,81.0759906 C28.1396635,78.8359939 27.3139395,76.4280761 25.4247645,75.0593919 C23.7046039,73.5504545 21.2127046,73.3093029 19.235122,74.4603943 C18.1569262,75.0061477 17.1186635,75.6317675 16.0404678,76.1908319 C14.5508484,76.9972341 12.7991356,77.1693985 11.1810238,76.6684351 C9.56291199,76.1674717 8.21491198,75.0356438 7.44152355,73.5286201 C6.21690611,71.3456064 5.00559973,69.1625927 3.82091547,66.9529569 C2.95859756,65.497521 2.73981133,63.7492154 3.21688185,62.126166 C3.69395236,60.5031165 4.82397966,59.151274 6.33670565,58.3939459 C7.34834614,57.8215703 8.39991981,57.302439 9.41156031,56.7167524 C11.4695277,55.7002043 12.644395,53.4792224 12.3266823,51.2059739 C12.2142956,48.8799702 10.6452025,46.8785759 8.41323087,46.2143268 C7.18861343,45.7883729 5.92406281,45.4955296 4.69944537,45.0961978 C3.02042331,44.6511327 1.6056797,43.5210412 0.800641787,41.9818493 C-0.0043961284,40.4426573 -0.125634486,38.6360285 0.466528567,37.0030738 C1.10545941,34.8067491 1.79763448,32.5971133 2.4099432,30.3475443 C3.24651166,27.1665777 6.46001417,25.2266835 9.66447043,25.9682058 C10.9955763,26.234427 12.2335048,26.6603809 13.5113665,27.0330905 C15.8190255,27.9161178 18.4327973,27.1993515 19.9672302,25.2627197 C21.5451194,23.368969 21.6965265,20.6652715 20.3399399,18.6071901 C19.7941864,17.6221717 19.235122,16.6504644 18.7293017,15.6388239 C17.9546476,14.2298616 17.7747919,12.569867 18.229698,11.0276853 C18.6846041,9.48550361 19.7365923,8.18887304 21.1519145,7.42590043 C23.5079719,6.09479452 25.9039626,4.76368861 28.3265753,3.60562646 C31.3085019,2.13135433 34.9227018,3.24836434 36.5528099,6.14803876 C37.1784297,7.22623455 37.7374942,8.35767457 38.376425,9.42255931 C39.4454115,11.4395409 41.6688656,12.5645981 43.9271367,12.2311928 C46.2564875,12.0895906 48.2395836,10.4860088 48.8655396,8.23787504 C49.2382492,7.0798129 49.5310925,5.90843969 49.8904911,4.75037755 C50.3308703,3.04943594 51.4647919,1.6113422 53.0160876,0.786346465 C54.5673832,-0.0386492643 56.3936764,-0.17482965 58.0501704,0.410972269 L64.5193451,2.31445373 C66.1847733,2.72247004 67.6083866,3.7989064 68.4547622,5.29013962 C69.3011378,6.78137285 69.4954301,8.55553197 68.991861,10.1946007 C68.7123288,11.3260408 68.3529302,12.4308587 68.0201537,13.5489876 C67.2966062,15.8343119 68.0490669,18.3294697 69.9154411,19.8337555 C71.7818152,21.3380413 74.3798624,21.5433717 76.4593652,20.3509389 C77.4443836,19.8184965 78.4294019,19.259432 79.4277314,18.7403007 C80.8891688,17.9383795 82.6093915,17.7501234 84.2096801,18.2169782 C85.8099687,18.6838331 87.1591242,19.7675241 87.9601203,21.2294688 C89.237982,23.4834748 90.4847845,25.7463548 91.7005279,28.0181089 C92.5197872,29.4510029 92.7187467,31.1561928 92.2513801,32.7392088 C91.7840135,34.3222247 90.6908119,35.6459194 89.2246709,36.4040762 C88.133164,37.0163849 87.0150351,37.5621383 85.9235282,38.1877581 C84.0205203,39.1838655 82.9024037,41.2258718 83.0882726,43.3657601 C83.0585625,45.6133242 84.4434857,47.6374428 86.549148,48.4239626 C87.8136986,48.9430939 89.2113598,49.2492482 90.5424658,49.6618911 C92.1136461,50.0156054 93.4617168,51.0177898 94.2530899,52.420448 C95.0444631,53.8231062 95.2051967,55.4951806 94.6955162,57.0229068 C94.0432743,59.5653191 93.297855,62.0944203 92.4858804,64.5835884 C92.0743778,66.1860992 90.9999408,67.5375565 89.5314572,68.2997451 C88.0629737,69.0619338 86.3394042,69.1627291 84.7920882,68.5769061 C83.6340261,68.2574407 82.4759639,67.8581089 81.3045907,67.5918877 C79.09851,66.9954683 76.7554149,67.8475028 75.4477247,69.7216572 C74.0077682,71.4415792 73.8001726,73.8794957 74.9285934,75.8181223 C75.5009689,76.9229402 76.1532108,77.9878249 76.7388974,79.0926428 C77.5525326,80.5295906 77.7498755,82.2346907 77.2859686,83.8194971 C76.8220616,85.4043035 75.7364139,86.7338447 74.2763515,87.5052322 C72.0267825,88.8363381 69.7505914,89.9944003 67.4744003,91.2190177 C66.0159892,92.055835 64.2753375,92.248705 62.6691079,91.7514601 Z M28.5129302,41.7950551 C25.4106293,52.3650918 31.4550014,63.4506263 42.0205114,66.5683084 C52.5860215,69.6859904 63.6803418,63.6577597 66.8133985,53.0967985 C69.9464553,42.5358374 63.9343785,31.4327548 53.3779886,28.2843301 C48.2889326,26.7665281 42.804883,27.3386118 38.1386532,29.8740632 C33.4724235,32.4095146 30.0084966,36.6994202 28.5129302,41.7950551 Z" id="Shape"></path>
                </g>
                <g id="Q83r0t-2" transform="translate(26.000000, 39.339307)" fill="#4A67C6">
                    <path d="M170.38654,196.712744 C166.638863,196.785562 163.020561,195.341013 160.352074,192.706646 C158.377206,190.810427 156.509087,188.780671 154.507531,186.911159 C150.317608,182.985183 145.487187,181.810061 140.136362,184.120244 C135.106559,186.053341 131.840032,190.948761 131.983358,196.338841 C131.91664,199.276646 132.050077,202.214451 131.91664,205.138902 C131.860715,208.83057 130.333975,212.347033 127.675589,214.907106 C125.017202,217.467179 121.447311,218.858861 117.758969,218.772988 C112.270259,218.772988 106.781549,218.772988 101.292838,218.772988 C97.5074323,218.841333 93.8543623,217.379483 91.1597191,214.718014 C88.4650759,212.056546 86.956467,208.420264 86.9750433,204.631463 C86.9083247,201.693659 86.9750433,198.755854 86.9750433,195.831402 C86.9924349,190.538676 83.6629427,185.813913 78.6752591,184.053476 C73.9482656,181.899801 68.3774323,182.970884 64.7844628,186.724207 C62.7829071,188.59372 60.9281322,190.623476 58.9399203,192.519695 C56.2314758,195.235856 52.5459766,196.7489 48.7117489,196.718766 C44.8775212,196.688632 41.2162225,195.117848 38.5507399,192.359451 C34.4942538,188.380061 30.4911424,184.373963 26.5414059,180.341159 C20.6568323,174.345366 20.6835197,166.052744 26.5414059,160.056951 C28.3961808,158.160732 30.3443617,156.371341 32.1724492,154.448415 C35.9610378,150.893631 37.1045308,145.33767 35.0280019,140.573963 C33.290751,135.572428 28.5899693,132.211457 23.2988858,132.187866 C20.3766145,132.054329 17.4409995,132.187866 14.5053845,132.107744 C5.72522703,131.787256 0.160902285,125.965061 0.14755858,117.178354 C0.14755858,111.970427 0.14755858,106.7625 0.14755858,101.554573 C-0.0735797128,94.0821738 5.69878978,87.7959658 13.1576704,87.3863415 C16.1733476,87.132622 19.2157122,87.2260976 22.2313894,87.2260976 C28.2627438,87.2260976 32.5727603,84.5553659 34.9612834,79.0002439 C37.2163695,73.7789634 35.9620613,68.7179268 31.5319514,64.3112195 C29.7305513,62.5084756 27.8757764,60.732439 26.1944696,58.8762805 C23.6122199,56.298402 22.160997,52.7982667 22.160997,49.1481402 C22.160997,45.4980138 23.6122199,41.9978784 26.1944696,39.42 C30.4822466,34.9687805 34.8767733,30.6644512 39.3780496,26.5070122 C44.9068504,21.3907017 53.463805,21.4785608 58.8865455,26.7073171 C60.9414759,28.6569512 62.8896568,30.7134146 64.957931,32.6897561 C68.5784306,36.4123249 74.1535338,37.4403655 78.862071,35.2536585 C83.8393422,33.4630752 87.1379778,28.7150697 87.0817929,23.4223171 C87.1485114,20.7515854 87.0817929,17.9339634 87.0817929,15.1964634 C87.2819485,6.36969512 93.2332406,0.507439024 102.066773,0.507439024 L117.398689,0.507439024 C125.871942,0.507439024 131.823234,6.28957317 132.076764,14.8359146 C132.183514,17.5066463 132.076764,20.177378 132.076764,22.8481098 C131.789621,28.3381602 135.079711,33.3849286 140.216424,35.3337805 C145.367094,37.6039024 150.584482,36.4421341 154.787749,32.3025 C156.602493,30.4997561 158.377206,28.6569512 160.218637,26.8809146 C162.893846,24.2029811 166.522645,22.6984725 170.306477,22.6984725 C174.090309,22.6984725 177.719109,24.2029811 180.394318,26.8809146 C184.610929,30.9671341 188.774164,35.1023171 192.884025,39.2864634 C195.584265,41.8824479 197.110497,45.4677347 197.110497,49.2149085 C197.110497,52.9620823 195.584265,56.5473691 192.884025,59.1433537 C190.909157,61.1864634 188.800852,63.1494512 186.825983,65.1257927 C183.287474,68.5022246 182.147584,73.6883682 183.943743,78.2390854 C185.356087,83.1329281 189.651158,86.6385757 194.725456,87.0391463 C197.807852,87.3729878 200.956966,87.1726829 204.06605,87.2394512 C212.299115,87.3863415 217.543191,92.3806098 217.810065,100.59311 C217.996877,106.548841 218.010221,112.517927 217.810065,118.487012 C217.516504,126.993293 212.138991,132.040976 203.612364,132.147805 C200.943623,132.147805 198.128101,132.054329 195.392642,132.147805 C190.20529,132.262341 185.644665,135.614632 183.983774,140.533902 C181.91858,145.197832 183.020567,150.658344 186.732578,154.154634 C188.694102,156.197744 190.735689,158.160732 192.777276,160.150427 C195.461791,162.760447 196.976531,166.346616 196.976531,170.092226 C196.976531,173.837835 195.461791,177.424004 192.777276,180.034024 C188.680758,184.25378 184.504179,188.353354 180.314256,192.479634 C177.705965,195.165609 174.129053,196.69078 170.38654,196.712744 L170.38654,196.712744 Z M50.4664824,109.5 C50.3857528,142.167713 76.7801804,168.717165 109.42353,168.803347 C142.066879,168.88911 168.600577,142.479053 168.691713,109.811366 C168.782379,77.143679 142.396068,50.5861482 109.752747,50.4894509 C94.0607808,50.412035 78.9843349,56.5937522 67.8582926,67.6679493 C56.7322503,78.7421463 50.4735726,93.7961353 50.4664824,109.5 Z" id="Shape"></path>
                </g>
                <g id="Q83r0t-3" opacity="0.19" transform="translate(26.000000, 39.339307)" fill="#020202">
                    <path d="M170.38654,196.712744 C166.638863,196.785562 163.020561,195.341013 160.352074,192.706646 C158.377206,190.810427 156.509087,188.780671 154.507531,186.911159 C150.317608,182.985183 145.487187,181.810061 140.136362,184.120244 C135.106559,186.053341 131.840032,190.948761 131.983358,196.338841 C131.91664,199.276646 132.050077,202.214451 131.91664,205.138902 C131.860715,208.83057 130.333975,212.347033 127.675589,214.907106 C125.017202,217.467179 121.447311,218.858861 117.758969,218.772988 C112.270259,218.772988 106.781549,218.772988 101.292838,218.772988 C97.5074323,218.841333 93.8543623,217.379483 91.1597191,214.718014 C88.4650759,212.056546 86.956467,208.420264 86.9750433,204.631463 C86.9083247,201.693659 86.9750433,198.755854 86.9750433,195.831402 C86.9924349,190.538676 83.6629427,185.813913 78.6752591,184.053476 C73.9482656,181.899801 68.3774323,182.970884 64.7844628,186.724207 C62.7829071,188.59372 60.9281322,190.623476 58.9399203,192.519695 C56.2314758,195.235856 52.5459766,196.7489 48.7117489,196.718766 C44.8775212,196.688632 41.2162225,195.117848 38.5507399,192.359451 C34.4942538,188.380061 30.4911424,184.373963 26.5414059,180.341159 C20.6568323,174.345366 20.6835197,166.052744 26.5414059,160.056951 C28.3961808,158.160732 30.3443617,156.371341 32.1724492,154.448415 C35.9610378,150.893631 37.1045308,145.33767 35.0280019,140.573963 C33.290751,135.572428 28.5899693,132.211457 23.2988858,132.187866 C20.3766145,132.054329 17.4409995,132.187866 14.5053845,132.107744 C5.72522703,131.787256 0.160902285,125.965061 0.14755858,117.178354 C0.14755858,111.970427 0.14755858,106.7625 0.14755858,101.554573 C-0.0735797128,94.0821738 5.69878978,87.7959658 13.1576704,87.3863415 C16.1733476,87.132622 19.2157122,87.2260976 22.2313894,87.2260976 C28.2627438,87.2260976 32.5727603,84.5553659 34.9612834,79.0002439 C37.2163695,73.7789634 35.9620613,68.7179268 31.5319514,64.3112195 C29.7305513,62.5084756 27.8757764,60.732439 26.1944696,58.8762805 C23.6122199,56.298402 22.160997,52.7982667 22.160997,49.1481402 C22.160997,45.4980138 23.6122199,41.9978784 26.1944696,39.42 C30.4822466,34.9687805 34.8767733,30.6644512 39.3780496,26.5070122 C44.9068504,21.3907017 53.463805,21.4785608 58.8865455,26.7073171 C60.9414759,28.6569512 62.8896568,30.7134146 64.957931,32.6897561 C68.5784306,36.4123249 74.1535338,37.4403655 78.862071,35.2536585 C83.8393422,33.4630752 87.1379778,28.7150697 87.0817929,23.4223171 C87.1485114,20.7515854 87.0817929,17.9339634 87.0817929,15.1964634 C87.2819485,6.36969512 93.2332406,0.507439024 102.066773,0.507439024 L117.398689,0.507439024 C125.871942,0.507439024 131.823234,6.28957317 132.076764,14.8359146 C132.183514,17.5066463 132.076764,20.177378 132.076764,22.8481098 C131.789621,28.3381602 135.079711,33.3849286 140.216424,35.3337805 C145.367094,37.6039024 150.584482,36.4421341 154.787749,32.3025 C156.602493,30.4997561 158.377206,28.6569512 160.218637,26.8809146 C162.893846,24.2029811 166.522645,22.6984725 170.306477,22.6984725 C174.090309,22.6984725 177.719109,24.2029811 180.394318,26.8809146 C184.610929,30.9671341 188.774164,35.1023171 192.884025,39.2864634 C195.584265,41.8824479 197.110497,45.4677347 197.110497,49.2149085 C197.110497,52.9620823 195.584265,56.5473691 192.884025,59.1433537 C190.909157,61.1864634 188.800852,63.1494512 186.825983,65.1257927 C183.287474,68.5022246 182.147584,73.6883682 183.943743,78.2390854 C185.356087,83.1329281 189.651158,86.6385757 194.725456,87.0391463 C197.807852,87.3729878 200.956966,87.1726829 204.06605,87.2394512 C212.299115,87.3863415 217.543191,92.3806098 217.810065,100.59311 C217.996877,106.548841 218.010221,112.517927 217.810065,118.487012 C217.516504,126.993293 212.138991,132.040976 203.612364,132.147805 C200.943623,132.147805 198.128101,132.054329 195.392642,132.147805 C190.20529,132.262341 185.644665,135.614632 183.983774,140.533902 C181.91858,145.197832 183.020567,150.658344 186.732578,154.154634 C188.694102,156.197744 190.735689,158.160732 192.777276,160.150427 C195.461791,162.760447 196.976531,166.346616 196.976531,170.092226 C196.976531,173.837835 195.461791,177.424004 192.777276,180.034024 C188.680758,184.25378 184.504179,188.353354 180.314256,192.479634 C177.705965,195.165609 174.129053,196.69078 170.38654,196.712744 L170.38654,196.712744 Z M50.4664824,109.5 C50.3857528,142.167713 76.7801804,168.717165 109.42353,168.803347 C142.066879,168.88911 168.600577,142.479053 168.691713,109.811366 C168.782379,77.143679 142.396068,50.5861482 109.752747,50.4894509 C94.0607808,50.412035 78.9843349,56.5937522 67.8582926,67.6679493 C56.7322503,78.7421463 50.4735726,93.7961353 50.4664824,109.5 Z" id="Shape"></path>
                </g>
                <path d="M92.5199497,123.488999 C93.3426739,124.759747 93.6796618,126.297578 93.4663123,127.807685 C93.3838131,129.262185 93.1815509,130.706905 92.8616917,132.126371 C92.2044955,134.947012 91.0872619,137.889117 91.9547609,140.642279 C92.6806186,142.308333 93.5890292,143.884023 94.6624094,145.33885 C95.6516173,146.947628 96.1123044,148.839722 95.9768018,150.737207 C95.8091284,152.655384 94.7458803,154.370943 93.1245702,155.339307 C90.9558227,151.209564 87.4989705,147.984045 84.6467389,144.313162 C81.7945073,140.642279 79.3891691,136.094163 80.1383728,131.465072 C80.6422434,128.437196 82.3709178,125.769845 84.8964735,124.123306 C86.7760547,122.949163 90.6272246,121.127218 92.5199497,123.488999 Z" id="Path" fill="#FF681C"></path>
                <path d="M92.5199497,123.488999 C93.3426739,124.759747 93.6796618,126.297578 93.4663123,127.807685 C93.3838131,129.262185 93.1815509,130.706905 92.8616917,132.126371 C92.2044955,134.947012 91.0872619,137.889117 91.9547609,140.642279 C92.6806186,142.308333 93.5890292,143.884023 94.6624094,145.33885 C95.6516173,146.947628 96.1123044,148.839722 95.9768018,150.737207 C95.8091284,152.655384 94.7458803,154.370943 93.1245702,155.339307 C90.9558227,151.209564 87.4989705,147.984045 84.6467389,144.313162 C81.7945073,140.642279 79.3891691,136.094163 80.1383728,131.465072 C80.6422434,128.437196 82.3709178,125.769845 84.8964735,124.123306 C86.7760547,122.949163 90.6272246,121.127218 92.5199497,123.488999 Z" id="Path" fill="#020202" opacity="0.19"></path>
                <g id="Q83r0t-4" transform="translate(22.000000, 39.339307)" fill="#4A67C6">
                    <path d="M170.322166,196.752805 C166.577417,196.831182 162.961169,195.385531 160.301044,192.746707 C158.326176,190.850488 156.458057,188.834085 154.456502,186.95122 C150.266579,183.025244 145.422814,181.850122 140.085332,184.160305 C135.058099,186.098801 131.789764,190.988926 131.918985,196.378902 C131.852266,199.316707 131.918985,202.254512 131.918985,205.178963 C131.855983,208.870678 130.325187,212.384997 127.66548,214.943929 C125.005773,217.502862 121.436556,218.895321 117.747971,218.813049 C112.268156,218.813049 106.783894,218.813049 101.295183,218.813049 C97.5097775,218.881394 93.8567075,217.419544 91.1620643,214.758075 C88.4674211,212.096607 86.9588122,208.460325 86.9773884,204.671524 C86.9773884,201.747073 87.044107,198.795915 86.9773884,195.871463 C86.99677,190.582208 83.6733661,185.85849 78.690948,184.093537 C73.9598825,181.937659 68.3840789,183.00867 64.786808,186.764268 C62.7852523,188.63378 60.9304774,190.663537 58.9422654,192.559756 C56.2338209,195.275917 52.5483218,196.788961 48.7140941,196.758827 C44.8798664,196.728693 41.2185677,195.157909 38.5530851,192.399512 C34.5499737,188.393415 30.4668002,184.387317 26.5437511,180.38122 C20.6591774,174.385427 20.6858649,166.092805 26.5437511,160.097012 C28.398526,158.200793 30.3600506,156.411402 32.1881381,154.488476 C35.9803781,150.935739 37.1243821,145.377295 35.0436908,140.614024 C33.2995106,135.555557 28.5282175,132.171803 23.1811376,132.20122 C20.2455226,132.067683 17.3099076,132.20122 14.3742927,132.121098 C5.60747885,131.840671 0.00312299465,126.005122 0.00312299465,117.218415 C0.00312299465,112.010488 0.00312299465,106.802561 0.00312299465,101.594634 C-0.210628699,94.1199863 5.56566007,87.8359553 13.0265785,87.4264024 C16.028912,87.1726829 19.0712766,87.2661585 22.1002975,87.2661585 C27.677008,87.588707 32.8207682,84.2614038 34.8168478,79.0403049 C37.0852776,73.8190244 35.8309694,68.7579878 31.3875158,64.3512805 C29.5861157,62.5485366 27.7446845,60.7725 26.050034,58.9163415 C23.4653023,56.3424981 22.0121337,52.8439161 22.0121337,49.194878 C22.0121337,45.54584 23.4653023,42.047258 26.050034,39.4734146 C30.3200194,35.0221951 34.7100982,30.7134146 39.2202703,26.5470732 C44.7872464,21.4331892 53.3782086,21.5680729 58.782141,26.8542073 C60.8370715,28.8038415 62.7852523,30.8603049 64.8401828,32.8366463 C68.4717015,36.5320768 74.0331611,37.5425475 78.7309791,35.3604878 C83.7155127,33.5716754 87.0166719,28.8146745 86.950701,23.5157927 C86.950701,20.845061 86.950701,18.027439 86.950701,15.289939 C87.1508566,6.46317073 93.1021488,0.600914634 101.949025,0.600914634 L117.267597,0.600914634 C125.74085,0.600914634 131.692142,6.38304878 132.025735,14.9293902 C132.132484,17.600122 132.025735,20.2708537 132.025735,22.9415854 C131.744542,28.4268343 135.033561,33.4665649 140.165394,35.4139024 C145.30272,37.6840244 150.520109,36.5222561 154.723376,32.382622 C156.551463,30.5932317 158.312832,28.7370732 160.154263,26.9610366 C165.732802,21.3902794 174.764749,21.3902794 180.343288,26.9610366 C184.546555,31.0472561 188.723135,35.1735366 192.819652,39.3665854 C195.516419,41.964468 197.040217,45.5490459 197.040217,49.2950305 C197.040217,53.0410151 195.516419,56.6255929 192.819652,59.2234756 C190.83144,61.2665854 188.723135,63.2295732 186.76161,65.2192683 C183.224051,68.5902265 182.079212,73.7696038 183.866026,78.3192073 C185.27837,83.2130501 189.573441,86.7186977 194.647739,87.1192683 C197.743479,87.4531098 200.879249,87.2528049 203.988333,87.3195732 C212.221398,87.4664634 217.478818,92.4740854 217.745692,100.673232 C217.932504,106.628963 217.932504,112.611402 217.745692,118.567134 C217.505505,127.113476 212.168023,132.20122 203.588021,132.267988 C200.839218,132.267988 198.090415,132.174512 195.354956,132.267988 C190.168932,132.386429 185.610306,135.737251 183.946088,140.654085 C181.880894,145.318015 182.982881,150.778527 186.694892,154.274817 C188.656416,156.317927 190.778065,158.280915 192.752933,160.27061 C195.438217,162.882945 196.953252,166.471312 196.953252,170.219085 C196.953252,173.966858 195.438217,177.555226 192.752933,180.167561 C188.66976,184.373963 184.479837,188.473537 180.303257,192.599817 C177.67125,195.273398 174.072436,196.770812 170.322166,196.752805 Z M50.4021414,109.580122 C50.3287784,142.244375 76.7237928,168.786392 109.363674,168.870074 C142.003555,168.953361 168.533796,142.546713 168.627371,109.88251 C168.720452,77.2183077 142.341541,50.6602622 109.701717,50.5562194 C94.0062122,50.4788034 78.9263723,56.6619274 67.7978276,67.7386288 C56.6692829,78.8153302 50.4091993,93.8727157 50.4021414,109.580122 Z" id="Shape"></path>
                </g>
                <path d="M142.60755,227.114579 C143.47664,228.259534 144.504518,229.282735 145.662102,230.155232 C146.351316,230.514758 146.949498,231.018319 147.413379,231.629488 C147.628753,232.119898 147.766076,232.639174 147.820653,233.169559 C148.37726,236.157561 151.336782,238.908628 154.391335,238.237315 L155.85752,228.286086 C156.047493,227.529291 156.047493,226.739356 155.85752,225.982561 C155.549538,225.309461 155.084854,224.714729 154.499941,224.245045 C150.823438,220.739973 147.629322,216.789093 144.996889,212.490485 C144.419359,211.283105 143.525278,210.243738 142.403913,209.476158 C141.304274,208.857497 142.403913,208.08088 141.15494,208.423118 C137.869599,209.318202 135.629594,209.26555 128,209.199735 C128,209.199735 130.402915,212.358855 131.461826,213.622503 L137.068627,220.375123 C137.774569,221.309696 141.562214,227.114579 142.60755,227.114579 Z" id="Path" fill="#020202" opacity="0.19"></path>
                <g id="Q83r0t-5" opacity="0.27" transform="translate(218.000000, 37.339307)" fill="#020202">
                    <path d="M62.6691079,91.7514601 C61.0759934,91.3335267 59.7211116,90.2861358 58.9153892,88.8496492 C58.3163916,87.7980755 57.7706382,86.7065687 57.1583294,85.668306 C56.0830197,83.5494691 53.7707031,82.3584383 51.4212629,82.7132509 C49.0582779,82.9105704 47.0752483,84.5737566 46.4695489,86.8663014 C46.0702172,88.1042299 45.7640628,89.3554694 45.35142,90.5800869 C44.8650736,92.1299197 43.7815903,93.4222901 42.3403983,94.17161 C40.8992063,94.9209299 39.2189523,95.0655113 37.6709389,94.5734046 C35.3548146,93.9211627 33.0253792,93.2422987 30.7092549,92.5368126 C29.1002162,92.097595 27.7365338,91.0275916 26.9271643,89.5692231 C26.1177948,88.1108546 25.9312461,86.3875622 26.4097828,84.7897761 C26.7425593,83.5518476 27.1685132,82.3272302 27.4879786,81.0759906 C28.1396635,78.8359939 27.3139395,76.4280761 25.4247645,75.0593919 C23.7046039,73.5504545 21.2127046,73.3093029 19.235122,74.4603943 C18.1569262,75.0061477 17.1186635,75.6317675 16.0404678,76.1908319 C14.5508484,76.9972341 12.7991356,77.1693985 11.1810238,76.6684351 C9.56291199,76.1674717 8.21491198,75.0356438 7.44152355,73.5286201 C6.21690611,71.3456064 5.00559973,69.1625927 3.82091547,66.9529569 C2.95859756,65.497521 2.73981133,63.7492154 3.21688185,62.126166 C3.69395236,60.5031165 4.82397966,59.151274 6.33670565,58.3939459 C7.34834614,57.8215703 8.39991981,57.302439 9.41156031,56.7167524 C11.4695277,55.7002043 12.644395,53.4792224 12.3266823,51.2059739 C12.2142956,48.8799702 10.6452025,46.8785759 8.41323087,46.2143268 C7.18861343,45.7883729 5.92406281,45.4955296 4.69944537,45.0961978 C3.02042331,44.6511327 1.6056797,43.5210412 0.800641787,41.9818493 C-0.0043961284,40.4426573 -0.125634486,38.6360285 0.466528567,37.0030738 C1.10545941,34.8067491 1.79763448,32.5971133 2.4099432,30.3475443 C3.24651166,27.1665777 6.46001417,25.2266835 9.66447043,25.9682058 C10.9955763,26.234427 12.2335048,26.6603809 13.5113665,27.0330905 C15.8190255,27.9161178 18.4327973,27.1993515 19.9672302,25.2627197 C21.5451194,23.368969 21.6965265,20.6652715 20.3399399,18.6071901 C19.7941864,17.6221717 19.235122,16.6504644 18.7293017,15.6388239 C17.9546476,14.2298616 17.7747919,12.569867 18.229698,11.0276853 C18.6846041,9.48550361 19.7365923,8.18887304 21.1519145,7.42590043 C23.5079719,6.09479452 25.9039626,4.76368861 28.3265753,3.60562646 C31.3085019,2.13135433 34.9227018,3.24836434 36.5528099,6.14803876 C37.1784297,7.22623455 37.7374942,8.35767457 38.376425,9.42255931 C39.4454115,11.4395409 41.6688656,12.5645981 43.9271367,12.2311928 C46.2564875,12.0895906 48.2395836,10.4860088 48.8655396,8.23787504 C49.2382492,7.0798129 49.5310925,5.90843969 49.8904911,4.75037755 C50.3308703,3.04943594 51.4647919,1.6113422 53.0160876,0.786346465 C54.5673832,-0.0386492643 56.3936764,-0.17482965 58.0501704,0.410972269 L64.5193451,2.31445373 C66.1847733,2.72247004 67.6083866,3.7989064 68.4547622,5.29013962 C69.3011378,6.78137285 69.4954301,8.55553197 68.991861,10.1946007 C68.7123288,11.3260408 68.3529302,12.4308587 68.0201537,13.5489876 C67.2966062,15.8343119 68.0490669,18.3294697 69.9154411,19.8337555 C71.7818152,21.3380413 74.3798624,21.5433717 76.4593652,20.3509389 C77.4443836,19.8184965 78.4294019,19.259432 79.4277314,18.7403007 C80.8891688,17.9383795 82.6093915,17.7501234 84.2096801,18.2169782 C85.8099687,18.6838331 87.1591242,19.7675241 87.9601203,21.2294688 C89.237982,23.4834748 90.4847845,25.7463548 91.7005279,28.0181089 C92.5197872,29.4510029 92.7187467,31.1561928 92.2513801,32.7392088 C91.7840135,34.3222247 90.6908119,35.6459194 89.2246709,36.4040762 C88.133164,37.0163849 87.0150351,37.5621383 85.9235282,38.1877581 C84.0205203,39.1838655 82.9024037,41.2258718 83.0882726,43.3657601 C83.0585625,45.6133242 84.4434857,47.6374428 86.549148,48.4239626 C87.8136986,48.9430939 89.2113598,49.2492482 90.5424658,49.6618911 C92.1136461,50.0156054 93.4617168,51.0177898 94.2530899,52.420448 C95.0444631,53.8231062 95.2051967,55.4951806 94.6955162,57.0229068 C94.0432743,59.5653191 93.297855,62.0944203 92.4858804,64.5835884 C92.0743778,66.1860992 90.9999408,67.5375565 89.5314572,68.2997451 C88.0629737,69.0619338 86.3394042,69.1627291 84.7920882,68.5769061 C83.6340261,68.2574407 82.4759639,67.8581089 81.3045907,67.5918877 C79.09851,66.9954683 76.7554149,67.8475028 75.4477247,69.7216572 C74.0077682,71.4415792 73.8001726,73.8794957 74.9285934,75.8181223 C75.5009689,76.9229402 76.1532108,77.9878249 76.7388974,79.0926428 C77.5525326,80.5295906 77.7498755,82.2346907 77.2859686,83.8194971 C76.8220616,85.4043035 75.7364139,86.7338447 74.2763515,87.5052322 C72.0267825,88.8363381 69.7505914,89.9944003 67.4744003,91.2190177 C66.0159892,92.055835 64.2753375,92.248705 62.6691079,91.7514601 Z M28.5129302,41.7950551 C25.4106293,52.3650918 31.4550014,63.4506263 42.0205114,66.5683084 C52.5860215,69.6859904 63.6803418,63.6577597 66.8133985,53.0967985 C69.9464553,42.5358374 63.9343785,31.4327548 53.3779886,28.2843301 C48.2889326,26.7665281 42.804883,27.3386118 38.1386532,29.8740632 C33.4724235,32.4095146 30.0084966,36.6994202 28.5129302,41.7950551 Z" id="Shape"></path>
                </g>
                <g id="Q83r0t-6" transform="translate(216.000000, 37.339307)" fill="#4A67C6">
                    <path d="M62.9733333,92.6266667 C61.3779657,92.1992924 60.0223865,91.1465554 59.2133333,89.7066667 C58.6133333,88.6533333 58.08,87.5733333 57.4533333,86.5333333 C56.3881807,84.4048092 54.0734436,83.2043758 51.72,83.56 C49.3458902,83.7579691 47.3537732,85.4296383 46.7466667,87.7333333 C46.36,88.96 46.0533333,90.2266667 45.6266667,91.44 C45.1424215,92.9914423 44.0596995,94.2858471 42.6182344,95.0366101 C41.1767694,95.7873731 39.4954919,95.9325515 37.9466667,95.44 C35.6177778,94.7733333 33.2933333,94.0933333 30.9733333,93.4 C29.361216,92.9597012 27.9944289,91.888557 27.1815627,90.4284084 C26.3686965,88.9682598 26.1782902,87.2422232 26.6533333,85.64 C26.9866667,84.3866667 27.4133333,83.16 27.7333333,81.9066667 C28.3952311,79.6695648 27.5719079,77.258404 25.68,75.8933333 C23.9472957,74.3947996 21.4589222,74.1491661 19.4666667,75.28 C18.3866667,75.8266667 17.3466667,76.4533333 16.2666667,77.0133333 C14.7843765,77.8270269 13.0374178,78.0113916 11.4179282,77.5250433 C9.79843853,77.038695 8.44208746,75.9223766 7.65333333,74.4266667 C6.42666667,72.24 5.21777778,70.0444444 4.02666667,67.84 C3.16245443,66.3800867 2.94303087,64.626941 3.4207761,62.9990683 C3.89852132,61.3711957 5.03056407,60.014676 6.54666667,59.2533333 C7.57333333,58.68 8.62666667,58.16 9.62666667,57.5866667 C11.66952,56.5481867 12.8425042,54.3408438 12.56,52.0666667 C12.4431691,49.7311009 10.86734,47.7225866 8.62666667,47.0533333 C7.4,46.64 6.13333333,46.3466667 4.90666667,45.9333333 C3.22821786,45.4876731 1.81435749,44.3570904 1.01045557,42.8177577 C0.206553652,41.278425 0.0866376559,39.4720921 0.68,37.84 C1.32,35.6266667 1.96444444,33.4044444 2.61333333,31.1733333 C3.44522987,27.9825052 6.66899384,26.0364165 9.88,26.7866667 C11.2133333,27.0533333 12.4666667,27.4666667 13.7466667,27.84 C16.0675552,28.6669588 18.6567346,27.8955991 20.1466667,25.9333333 C21.7445368,24.0432814 21.8968556,21.3233033 20.52,19.2666667 C19.9866667,18.28 19.4133333,17.3066667 18.9066667,16.3066667 C18.1343767,14.8945933 17.9562229,13.2330984 18.4115792,11.6893907 C18.8669354,10.145683 19.9183085,8.84686864 21.3333333,8.08 C23.6888889,6.72888889 26.0844444,5.44888889 28.52,4.24 C31.5114011,2.76909266 35.1308592,3.88592062 36.7733333,6.78666667 C37.4,7.88 37.9466667,9 38.6,10.0666667 C39.6558262,12.1021908 41.8945843,13.2349917 44.16,12.88 C46.4932486,12.7381608 48.4796632,11.1318957 49.1066667,8.88 C49.48,7.73333333 49.7733333,6.54666667 50.1466667,5.4 C50.584617,3.69715634 51.7177922,2.2566265 53.2696187,1.42999995 C54.8214452,0.603373401 56.6491575,0.466698466 58.3066667,1.05333333 L64.8,2.94666667 C66.4660912,3.35883279 67.889541,4.43767186 68.7367241,5.93032777 C69.5839072,7.42298369 69.7803461,9.1982343 69.28,10.84 C68.9866667,11.9733333 68.64,13.0933333 68.3066667,14.2133333 C67.5872991,16.4987316 68.340272,18.9915239 70.2045609,20.4965028 C72.0688499,22.0014817 74.6643729,22.2118196 76.7466667,21.0266667 C77.7466667,20.4933333 78.72,19.92 79.72,19.4 C81.1855036,18.5977844 82.909849,18.4112174 84.5130224,18.8814149 C86.1161958,19.3516124 87.4666128,20.4399818 88.2666667,21.9066667 C89.5466667,24.1466667 90.8,26.4133333 92.0266667,28.7066667 C92.8419254,30.1424227 93.0367835,31.8484417 92.5662767,33.4310552 C92.09577,35.0136688 91.000547,36.3361502 89.5333333,37.0933333 C88.4533333,37.72 87.32,38.2666667 86.2266667,38.88 C84.3204743,39.8777743 83.2004867,41.9231975 83.3866667,44.0666667 C83.3589493,46.3214006 84.7522249,48.3499244 86.8666667,49.1333333 C88.2,49.6533333 89.5333333,49.96 90.8666667,50.3733333 C92.4436858,50.7271265 93.7967257,51.7330335 94.5898185,53.1412815 C95.3829112,54.5495296 95.5416673,56.2280297 95.0266667,57.76 C94.3733333,60.3066667 93.6933333,62.84 92.8133333,65.3333333 C92.4011422,66.9385258 91.3249072,68.2922445 89.8539664,69.0557086 C88.3830256,69.8191727 86.6565719,69.9201366 85.1066667,69.3333333 C83.9466667,69 82.8,68.6133333 81.6133333,68.3333333 C79.4037379,67.7400454 77.0590622,68.5926548 75.7466667,70.4666667 C74.3043006,72.1894667 74.0963577,74.6314627 75.2266667,76.5733333 C75.8,77.6933333 76.4666667,78.76 77.0533333,79.8666667 C77.9017128,81.3244846 78.109343,83.0682782 77.6269886,84.684544 C77.1446343,86.3008098 76.0152578,87.6455905 74.5066667,88.4 C72.2533333,89.7333333 69.9733333,90.8933333 67.6933333,92.12 C66.2504182,92.9112416 64.5513102,93.0936318 62.9733333,92.6266667 Z M28.76,42.5866667 C25.6596029,53.1752466 31.7195616,64.2744777 42.3031489,67.3918753 C52.8867361,70.5092729 63.9956848,64.4671466 67.1300748,53.8885793 C70.2644649,43.3100121 64.2401867,32.1913745 53.6666667,29.04 C48.5673106,27.5201674 43.0725266,28.0950394 38.3981642,30.6374121 C33.7238017,33.1797848 30.2552474,37.4800476 28.76,42.5866667 L28.76,42.5866667 Z" id="Shape"></path>
                </g>
                <path d="M181.79952,173.363682 C182.19571,172.990331 182.650076,172.683189 183.144994,172.454169 C183.650193,172.240984 184.233116,172.32894 184.651924,172.681548 C184.986907,173.105213 185.087793,173.666833 184.921019,174.179568 C184.786471,174.687825 184.517377,175.169332 184.396284,175.677589 C184.330129,176.158579 184.222086,176.632951 184.07337,177.095358 C183.66851,177.7777 183.04918,178.308773 182.3108,178.606754 C179.191905,180.337423 176.404456,182.601287 174.076503,185.294346 C173.860811,185.56458 173.612245,185.807184 173.336493,186.016606 C172.380823,186.486226 171.250578,186.440881 170.336087,185.89623 C168.357936,184.795062 166.656035,183.263262 165.357835,181.415543 C165.1902,181.233176 165.070087,181.012741 165.008012,180.773534 C164.982089,180.549378 165.019356,180.32247 165.11565,180.11815 C166.461124,176.640602 170.053538,177.830993 172.95976,177.349487 C176.206016,176.811361 179.253794,175.437133 181.79952,173.363682 L181.79952,173.363682 Z" id="Path" fill="#FFBAA8"></path>
                <path d="M89,192.146971 C89,192.146971 96.8944064,201.758807 107.72564,197.032107 C118.556873,192.305408 131.247199,176.699378 131.247199,176.699378 C131.247199,176.699378 147.723067,182.495526 158.823734,182.310683 L166.287047,182.561541 C168.348417,181.437026 169.398687,179.108911 168.860138,176.857814 C168.860138,176.857814 136.164363,164.816613 133.065876,164.49974 C129.37511,164.017259 125.621478,164.628858 122.288529,166.255748 C117.910232,168.289021 101.016741,176.06563 101.016741,176.06563 L89,192.146971 Z" id="Path" fill="#473F47"></path>
                <path d="M89,192.146971 C89,192.146971 96.8944064,201.758807 107.72564,197.032107 C118.556873,192.305408 131.247199,176.699378 131.247199,176.699378 C131.247199,176.699378 147.723067,182.495526 158.823734,182.310683 L166.287047,182.561541 C168.348417,181.437026 169.398687,179.108911 168.860138,176.857814 C168.860138,176.857814 136.164363,164.816613 133.065876,164.49974 C129.37511,164.017259 125.621478,164.628858 122.288529,166.255748 C117.910232,168.289021 101.016741,176.06563 101.016741,176.06563 L89,192.146971 Z" id="Path" fill="#020202" opacity="0.19"></path>
                <path d="M90.2305464,182.941609 C90.2305464,182.941609 87.7810481,195.786813 98.8506389,199.806763 C109.92023,203.826713 131.283067,200.805095 131.283067,200.805095 C131.283067,200.805095 138.952808,216.33914 146.997335,223.833285 L152.137266,229.157722 C154.401634,229.767864 156.79764,228.804978 158,226.801659 C158,226.801659 143.155772,195.600458 141.174757,193.244395 C138.872511,190.341374 135.749051,188.190244 132.206649,187.068048 C127.655668,185.537272 101.661539,176.339307 101.661539,176.339307 L90.2305464,182.941609 Z" id="Path" fill="#473F47"></path>
                <path d="M170.500662,233.773933 C171.038313,233.779423 171.571325,233.878149 172.077784,234.066051 C172.59393,234.267716 172.952732,234.760212 173,235.331896 C172.946845,235.887235 172.623997,236.375501 172.144612,236.625561 C171.703552,236.91768 171.1823,237.084604 170.74124,237.376722 C170.3579,237.688306 169.951179,237.967407 169.524985,238.211345 C168.758837,238.424162 167.946843,238.370427 167.212763,238.058331 C163.796893,237.098841 160.244407,236.778563 156.720891,237.112425 C156.379435,237.16105 156.033207,237.16105 155.691752,237.112425 C154.678908,236.779731 153.901474,235.928566 153.633473,234.858943 C152.980868,232.605489 152.830033,230.226925 153.192414,227.90375 C153.199231,227.644462 153.268142,227.391049 153.392895,227.1665 C153.535878,226.987611 153.719693,226.848911 153.927513,226.763099 C157.295605,225.135584 159.033112,228.59927 161.452257,230.338068 C164.128644,232.285506 167.248128,233.470038 170.500662,233.773933 L170.500662,233.773933 Z" id="Path" fill="#FFBAA8"></path>
                <polygon id="Path" fill="#4A67C6" points="136 136.643638 130.872564 163.914287 109.310345 169.339307 109 167.473629 128.727136 162.128 133.517241 136.339307"></polygon>
                <polygon id="Path" fill="#4A67C6" points="129 153.339307 121.096128 154.825794 109 167.339307 128.519359 161.879848"></polygon>
                <polygon id="Path" fill="url(#linearGradient-1)" points="129 153.339307 121.096128 154.825794 109 167.339307 128.519359 161.879848"></polygon>
                <polygon id="Path" fill="#4A67C6" points="129 155.339307 125.762315 155.904214 118 164.339307 126.981527 162.567552"></polygon>
                <polygon id="Path" fill="#4A67C6" points="126 163.339307 130.96261 135.923434 145.03467 129.339307 146 129.771053 127.169273 162.691688"></polygon>
                <path d="M93.0080701,129.004578 C93.5298093,129.619035 94.4261305,129.886189 94.8274684,130.59415 C95.2288062,131.30211 94.8274684,132.477591 94.6535553,133.439348 C94.4127526,134.775123 94.7873346,136.110897 94.5599098,137.51346 C94.5247474,137.802306 94.4088421,138.07543 94.2254616,138.301566 C94.042547,138.466312 93.8288806,138.593411 93.596699,138.675583 C92.6880302,139.027347 91.7323771,139.243395 90.7605781,139.316755 C90.5645018,139.303619 90.3701238,139.360424 90.2120831,139.477048 C90.0915758,139.627821 90.0340607,139.819248 90.0515479,140.011357 C89.901502,142.501675 90.3606423,144.991045 91.3893408,147.264611 C91.723789,148.012644 92.1117489,148.934328 91.6301435,149.602215 C91.4479081,149.82157 91.2132621,149.991547 90.9478691,150.096452 C89.2087384,150.831128 87.228805,149.775866 85.7706108,148.573669 C84.4669414,147.494679 83.2949988,146.26622 82.2789715,144.913648 C81.9729962,144.545491 81.7372142,144.124441 81.5833192,143.671378 C81.462585,143.067331 81.462585,142.445415 81.5833192,141.841368 C81.7973988,139.776435 81.7973988,137.694951 81.5833192,135.630018 C81.2890048,132.95847 80.6468642,130.286922 81.248871,127.708878 C81.4035374,126.821949 81.8452928,126.010158 82.5063963,125.397988 C83.2982116,124.856453 84.2236795,124.542268 85.181982,124.489662 C87.1084037,124.249223 89.1953605,124.155718 90.7739561,125.3312 C91.1351601,125.74529 92.3659296,128.243187 93.0080701,129.004578 Z" id="Path" fill="#FFBAA8"></path>
                <path d="M81.3675605,143.339307 C81.3675605,143.339307 89.7548381,146.113146 92.5988757,148.900384 C95.4429133,151.687623 99.6563023,153.416247 99.1822961,159.700934 C98.7082898,165.985621 102,174.896744 102,174.896744 C102,174.896744 100.393645,186.2065 92.6120425,190.306957 C84.8304397,194.407414 86.9239673,193.161197 86.9239673,193.161197 C86.9239673,193.161197 79.3003665,173.998931 76.6933321,168.746059 C74.0862976,163.493186 73.6912924,143.727912 81.3675605,143.339307 Z" id="Path" fill="#FFFFFF"></path>
                <path d="M95.6638305,187.169079 C95.819383,187.789255 95.76717,188.442704 95.5150617,189.030928 C95.2271476,189.469934 94.8493195,189.844135 94.4060581,190.129285 C93.3987905,190.948303 92.2666979,191.603858 91.0519984,192.071502 C89.8179965,192.541507 88.4301632,192.386562 87.332779,191.656269 C86.7795353,191.177029 86.3209484,190.600215 85.9803356,189.955155 C82.8002457,185.084789 80.1697577,179.883302 78.1361637,174.44421 C76.1049409,168.979981 75.5092523,163.094108 76.4050362,157.339307 L81.7201388,163.273114 C83.88069,165.868926 86.3306481,168.214483 89.0233333,170.265095 C91.7391576,172.313365 95.0777667,173.385635 98.4904372,173.305669 C102.398999,173.037777 102.710061,175.43541 101.046555,178.663509 C99.3830499,181.891607 97.5031535,180.244071 94.7306445,179.77526 C93.3917255,181.891607 95.2716219,184.932181 95.6638305,187.169079 Z" id="Path" fill="#020202" opacity="0.19"></path>
                <path d="M87.4414662,142.893686 C87.7883219,144.204965 87.9209563,145.56271 87.8343416,146.915454 C87.8180474,147.462808 87.6889677,148.001104 87.4550137,148.49735 C87.1595741,148.965935 86.772709,149.371546 86.3170299,149.690474 C85.1646467,150.558815 83.9144618,151.292093 82.5914879,151.875635 C81.3411592,152.32919 80.1235764,152.866675 78.9472305,153.484342 L78.8523985,153.551371 C77.1030314,154.623401 75.8113488,156.292677 75.2216885,158.243434 C75.0862142,158.699234 74.0024202,157.385457 73.9617779,157.318427 C73.6573101,156.746122 73.3903272,156.155044 73.1624798,155.548849 C72.6893044,154.05001 72.3893462,152.502925 72.2683497,150.937222 C71.6993578,147.612561 67.5132034,141.90165 69.5588646,138.657424 C70.2633307,137.531329 71.5096939,136.861034 72.3902765,135.868998 L72.3902765,135.868998 C74.3004635,133.657026 74.0701573,130.399394 75.0997616,127.677997 C75.9836456,125.243739 77.81915,123.263168 80.1935936,122.181581 C83.4314283,120.733745 89.6767914,120.760556 89.9883822,125.439213 C90.1374039,127.517127 88.8233036,128.857716 87.7395096,130.439611 C86.5232991,132.018772 85.7814459,133.905138 85.5990164,135.882404 C85.5312792,138.282059 86.8318321,140.534249 87.4414662,142.893686 Z" id="Path" fill="#FF681C"></path>
                <path d="M86.2091073,153.665504 C86.2091073,153.665504 93.7117093,166.701207 94.9014876,167.533274 C96.0912659,168.36534 86.1111255,176.339307 86.1111255,176.339307 C86.1111255,176.339307 76.6768834,164.01086 76.0470008,158.089323 C75.4171181,152.167785 81.2400331,148.811785 86.2091073,153.665504 Z" id="Path" fill="#FFFFFF"></path>
                <path d="M86,173.904422 C86,173.904422 87.0791022,178.161038 92.4071691,177.197276 L116.079973,172.980817 C117.563738,171.883199 119.74892,171.387932 120.733601,169.835204 C121.205708,169.098997 121.354085,168.202162 121.799214,167.439184 C122.435438,166.48145 123.390153,165.775629 124.49697,165.444732 C125.572463,165.099221 126.687111,164.887889 127.815209,164.815609 C128.156461,164.215756 128.01425,163.459331 127.47799,163.021941 C126.929897,162.620488 126.270575,162.396164 125.589561,162.379433 C122.749409,162.134842 119.927118,163.015475 117.739093,164.828995 C117.128215,165.444082 116.43354,165.97124 115.67531,166.395108 C115.098589,166.609625 114.494977,166.744736 113.881302,166.796676 C106.975048,167.586425 99.9878619,167.251786 93.0950968,168.068307 C91.4639255,168.195311 89.8759278,168.650758 88.4279799,169.406865 C86.9385392,170.432801 86.0355128,172.105555 86,173.904422 Z" id="Path" fill="#FFBAA8"></path>
                <path d="M78.4641851,132.914818 C78.3702482,135.395057 79.3364572,137.848336 79.0546463,140.328575 C78.7313065,141.97816 78.2826757,143.60045 77.7126892,145.181216 C77.1624868,147.337945 76.907515,150.182132 78.0884372,152.177106 C78.3447832,152.609245 78.569051,153.059785 78.7594157,153.525062 C77.0265584,154.602983 75.7470662,156.281431 75.1629708,158.242907 C75.0287751,158.701212 73.9552094,157.380215 73.9149507,157.312818 C73.6133564,156.737367 73.3488931,156.143042 73.1231961,155.533516 C72.6544863,154.026441 72.357359,152.470854 72.2375044,150.896548 C71.6738824,147.553618 67.5272351,141.811326 69.5535903,138.549273 C70.251408,137.416991 71.4860085,136.743013 72.3582805,135.745526 L72.3582805,135.745526 C72.6583498,135.52023 72.9409717,135.272394 73.2037135,135.00415 C74.2822045,133.630632 75.2386602,132.164727 76.062082,130.623294 C77.7189395,128.129891 80.1626081,126.268769 83,125.339307 C80.3497147,126.971459 78.657209,129.798205 78.4641851,132.914818 Z" id="Path" fill="#020202" opacity="0.1"></path>
                <polygon id="Path" fill="#4A67C6" points="147 130.339307 132.870036 136.822414 128 162.556783 130.181227 164.339307 141.197112 156.760278"></polygon>
                <polygon id="Path" fill="url(#linearGradient-2)" points="147 130.339307 132.870036 136.822414 128 162.556783 130.181227 164.339307 141.197112 156.760278"></polygon>
                <polygon id="Path" fill="#4A67C6" points="118.435662 157.817014 122 157.339307 118.705882 162.148224 115 162.339307"></polygon>
            </g>
        </g>
    </g>
</svg>