<svg height="39" viewBox="0 0 38 39" width="38" xmlns="http://www.w3.org/2000/svg" xmlns:xlink="http://www.w3.org/1999/xlink"><linearGradient id="a" x1="50%" x2="50%" y1="0%" y2="100%"><stop offset="0" stop-color="#4db9ec"/><stop offset="1" stop-color="#5c6ddd"/></linearGradient><path d="m604.662552 218.550125v-3.514173c0-5.126543-3.342346-9.471645-7.921787-10.890838v-1.591078c0-1.821845-1.453791-3.304036-3.24073-3.304036s-3.240731 1.482191-3.240731 3.304036v1.591078c-4.579513 1.419193-7.921787 5.764222-7.921787 10.890838v3.514173c0 4.503182-1.683595 8.773171-4.740613 12.023462-.299587.318509-.383774.78849-.21396 1.194373.169814.405882.560862.669251.99368.669251h9.830865c.501809 2.51048 2.684189 4.405382 5.292546 4.405382 2.608428 0 4.790664-1.894902 5.292545-4.405382h9.830865c.432818 0 .823794-.263369.993608-.669251.169814-.405883.085627-.875864-.213888-1.194373-3.057017-3.250291-4.740613-7.520354-4.740613-12.023462zm-12.242761-15.996089c0-.607281.484597-1.101345 1.080244-1.101345.595646 0 1.080243.494064 1.080243 1.101345v1.154798c-.355544-.034949-.715841-.053452-1.080243-.053452-.364403 0-.7247.018503-1.080244.053452zm1.080244 32.085866c-1.408278 0-2.609005-.920799-3.054929-2.202691h6.109857c-.445924 1.281892-1.646651 2.202691-3.054928 2.202691zm0-28.781829c4.963719 0 9.00203 4.117196 9.00203 9.177879v3.514173c0 4.253396 1.332948 8.322207 3.793167 11.684395h-25.590323c2.460147-3.362188 3.793095-7.430999 3.793095-11.684395v-3.514173c0-5.060683 4.038311-9.177879 9.002031-9.177879zm11.76874-5.281018c3.69579 3.73668 5.731225 8.705812 5.731225 13.989562 0 .668563-.536873 1.211161-1.198382 1.211161s-1.198381-.542598-1.198381-1.211161c0-4.637955-1.786162-8.99648-5.029926-12.276313-.468118-.47311-.468118-1.24014 0-1.713249.468117-.47311 1.227054-.47311 1.695464 0zm-21.842006.000033c.468012.473155.468012 1.240553 0 1.713708-3.244495 3.278371-5.030547 7.63731-5.030547 12.275705 0 .668627-.536751 1.211277-1.198111 1.211277-.661359 0-1.198111-.54265-1.198111-1.211277 0-5.284251 2.035268-10.253856 5.731687-13.989413.468012-.473154 1.227069-.473154 1.695082 0z" fill="url(#a)" transform="matrix(.96592583 .25881905 -.25881905 .96592583 -497.342444 -344.179356)"/></svg>