<svg height="31" viewBox="0 0 29 31" width="29" xmlns="http://www.w3.org/2000/svg" xmlns:xlink="http://www.w3.org/1999/xlink"><linearGradient id="a" x1="50%" x2="50%" y1="0%" y2="100%"><stop offset="0" stop-color="#4db7eb"/><stop offset="1" stop-color="#5c6edd"/></linearGradient><g fill="url(#a)" transform="translate(0 .5)"><path d="m25.8421702.5h-13.684217c-1.7440566 0-3.1579532 1.39111301-3.1579532 3.10714069v6.21428138c0 .57202943.47133998 1.03573383 1.0527127 1.03573383.5813728 0 1.0526511-.4637044 1.0526511-1.03573383v-6.21428138c0-.57202946.4712783-1.03573379 1.052651-1.03573379h13.6842171c.5813727 0 1.052651.46370433 1.052651 1.03573379v22.78571861c0 .5720295-.4712783 1.0357338-1.052651 1.0357338h-13.6842787c-.5813728 0-1.0526511-.4637043-1.0526511-1.0357338v-6.2142814c0-.5720294-.4712783-1.0357338-1.052651-1.0357338-.5813728 0-1.0526511.4637044-1.0526511 1.0357338v6.2142814c0 1.7160277 1.4138349 3.1071407 3.1578915 3.1071407h13.684217c1.7440566 0 3.1578915-1.391113 3.1578915-3.1071407v-22.78571861c0-1.71602768-1.4137732-3.10714069-3.1578298-3.10714069z"/><path d="m20.9522421 13.4872801h-17.37670995l3.45002588-3.2927564c.40196384-.39723297.39042303-1.03022777-.02578265-1.41386808-.4060154-.37420749-1.04966091-.37420749-1.45561491 0l-5.23842118 4.99956908c-.09729882.0929221-.17421707.2033622-.22627347.3249928-.10595443.2446088-.10595443.5193323 0 .7639411.05230195.1220407.12958852.2328324.22731706.3259888l5.23835978 4.9995691c.40196384.397233 1.06519189.4082477 1.48139757.0246074s.42774648-1.0166351.02578265-1.4138681c-.00841006-.0083196-.01700427-.0165221-.02578265-.0246073l-3.45100808-3.2937525h17.37677135c.5786364 0 1.0476965-.447678 1.0476965-.9999372 0-.5522593-.4691215-.9998787-1.0477579-.9998787z"/></g></svg>