<svg enable-background="new 0 0 512 512" viewBox="0 0 512 512" xmlns="http://www.w3.org/2000/svg" xmlns:xlink="http://www.w3.org/1999/xlink"><linearGradient id="a"><stop offset="0" stop-color="#4cb5ea"/><stop offset="1" stop-color="#5a6cdd"/></linearGradient><linearGradient id="b" gradientUnits="userSpaceOnUse" x1="245.6806" x2="265.6805" xlink:href="#a" y1="1.3066" y2="511.3066"/><linearGradient id="c" gradientUnits="userSpaceOnUse" x1="361.2979" x2="381.2979" xlink:href="#a" y1="-3.2274" y2="506.7726"/><path d="m512 192.4v-35.6c0-9.6-7.8-17.4-17.4-17.4-6.2 0-11.9-2.4-16.3-6.7-4.4-4.4-6.8-10.1-6.8-16.3v-62.7c0-9.8-7.9-17.7-17.7-17.7h-21.3c-9.8 0-17.7 7.9-17.7 17.7v36.7c0 22.7-18.1 41.5-40.4 41.9-11.1.2-21.6-4-29.5-11.8s-12.3-18.2-12.3-29.3v-37.5c0-9.8-7.9-17.7-17.7-17.7h-21.3c-9.8 0-17.7 7.9-17.7 17.7v22.6c0 4.1 3.4 7.5 7.5 7.5s7.5-3.4 7.5-7.5v-22.6c0-1.5 1.2-2.7 2.7-2.7h21.3c1.5 0 2.7 1.2 2.7 2.7v37.5c0 15.2 6 29.4 16.8 40s25.1 16.3 40.3 16.1c30.4-.5 55.2-26.1 55.2-56.9v-36.7c0-1.5 1.2-2.7 2.7-2.7h21.3c1.5 0 2.7 1.2 2.7 2.7v62.6c0 10.2 4 19.7 11.1 26.9 7.2 7.2 16.7 11.1 26.9 11.1 1.3 0 2.4 1.1 2.4 2.4v31l-123.3 59.2-123.3-59.2v-31c0-.8.4-1.4.7-1.7s.8-.7 1.7-.7c21 0 38-17.1 38-38v-10c0-4.1-3.4-7.5-7.5-7.5s-7.5 3.4-7.5 7.5v10c0 12.7-10.3 23-23 23-4.7 0-9.1 1.8-12.3 5.1-3.3 3.3-5.1 7.7-5.1 12.3v35.5.5 124.6l-38.6 23.1c-5.4-3.1-11.7-4.8-18-4.8h-44.8v-129.5h44.8c19.9 0 36.1-16.2 36.1-36.1s-16.2-36-36-36h-7.9v-8.2c0-16.2-13.2-29.4-29.4-29.4h-7.5v-14.7c0-8.5-7-15.5-15.5-15.5h-22.3c-8.5 0-15.5 7-15.5 15.5v14.7h-7.5c-16.2 0-29.4 13.2-29.4 29.4v8.2h-7.9c-3.3 0-6.6.4-9.7 1.3-4 1.1-6.3 5.2-5.2 9.2s5.2 6.3 9.2 5.2c1.8-.5 3.7-.8 5.7-.8h142.8c11.6 0 21.1 9.4 21.1 21.1 0 11.6-9.4 21-21.1 21h-142.7c-11.6 0-21.1-9.4-21.1-21 0-1.2.1-2.4.3-3.6.7-4.1-2.1-8-6.1-8.6-4.1-.7-8 2.1-8.6 6.1-.3 2-.5 4-.5 6.1 0 19.9 16.2 36.1 36.1 36.1h44.8v129.6h-44.9c-19.9 0-36.1 16.2-36.1 36 0 9.6 3.7 18.7 10.6 25.5 6.8 6.8 15.9 10.6 25.5 10.6h7.9v8.2c0 16.2 13.2 29.4 29.4 29.4h7.5v14.7c0 8.5 7 15.5 15.5 15.5h22.3c8.5 0 15.5-7 15.5-15.5v-14.7h.3c1.6 2 3.3 4 5.1 5.8 10.1 9.8 23.1 14.8 36.5 14.8h270.4c15.8 0 28.6-12.8 28.6-28.6v-44.4h4c18.2 0 33-14.8 33-33v-167.4c-.1-.1-.1-.2-.1-.2zm-416.2-110.7c0-.3.2-.5.5-.5h22.3c.3 0 .5.2.5.5v14.7h-23.3zm-36.9 52.3v-8.2c0-8 6.5-14.4 14.4-14.4h14.8.2.2 38 .2.2 14.8c8 0 14.4 6.5 14.4 14.4v8.2zm255.6 166.4c3.4 0 6.4 2.1 7.5 5.3 8.7 24 31.7 40.2 57.3 40.2 26.1 0 49.3-16.6 57.7-41.3.8-2.5 3.2-4.1 5.8-4.1h4.7c6.9 0 12.6 5.7 12.6 12.6v94.5h-103.9l-24.6-35.2c-2.4-3.4-7-4.2-10.4-1.9-3.4 2.4-4.2 7-1.9 10.4l18.6 26.7h-18l-46.3-66.4 12.7-7.6 15.9 22.7c1.5 2.1 3.8 3.2 6.2 3.2 1.5 0 3-.4 4.3-1.4 3.4-2.4 4.2-7 1.9-10.4l-16-22.9c4.2-4.8 6.7-11 6.7-17.6v-6.8zm-30.4 107.1-35.8-51.3 12.3-7.4 40.9 58.7zm-36.3 0-25.1-35.9 12.7-7.6 30.4 43.5zm-69.4-38.5c.4.7.8 1.4 1.3 2 5 6.5 12.6 10 20.3 10 3.3 0 6.6-.6 9.7-1.9l19.8 28.4h-90.2c1.8-10.5 8.2-20 17.5-25.6zm111.8-67v5.2c0 3.9-2.1 7.6-5.4 9.7-.1.1-.3.2-.4.2l-25.2 15.1c-.1.1-.3.2-.4.2l-25 15s-.1.1-.1.1l-28.3 17c-4.6 2.8-10.5 1.6-13.8-2.6 0-.1-.2-.2-.1-.5 0-.2.2-.3.2-.4l8.6-5.1c.1-.1.2-.1.3-.2l89.2-53.5c.1 0 .3-.1.4-.2zm-194.4-95.9h23.3v129.6h-23.3zm-36.9 209.9v-8.2h42.4c4.1 0 7.5-3.4 7.5-7.5s-3.4-7.5-7.5-7.5h-65.2c-5.6 0-10.9-2.2-14.9-6.2s-6.2-9.3-6.2-14.9c0-11.6 9.4-21.1 21.1-21.1h142.8.9l-30.6 18.4c-15.6 9.4-25.4 26.5-25.4 44.8 0 5 .7 9.8 2 14.4 0 .1 0 .1.1.2v.1c.2.6.4 1.3.6 1.9h-53.2c-7.9 0-14.4-6.5-14.4-14.4zm60.2 44.1c0 .3-.2.5-.5.5h-22.3c-.3 0-.5-.2-.5-.5v-14.7h23.3zm340.9-22.7c0 7.5-6.1 13.6-13.6 13.6-173 0-270.6 0-271.4 0-17.1-.4-31.4-12.5-35.2-28.5h103.9.2s.1 0 .2 0h35.9.2s.1 0 .2 0h35.4.2.2 35.9.2s.1 0 .2 0h107.5zm19-59.4h-4v-65c0-15.2-12.4-27.6-27.6-27.6h-4.7c-9 0-17.1 5.7-20 14.3-6.3 18.6-23.8 31.1-43.5 31.1-19.3 0-36.6-12.2-43.2-30.3-3.3-9.1-12-15.2-21.6-15.2-16.7.4-23.1-1.6-32.4 3.9l-31.7 19v-104l120.1 57.8c1 .5 2.1.7 3.2.7s2.2-.2 3.2-.7l120.2-57.6v155.6c0 9.9-8.1 18-18 18z" fill="url(#b)"/><path d="m365.9 168.1h-5c-4.1 0-7.5 3.4-7.5 7.5s3.4 7.5 7.5 7.5h1.6v25.9h-.9c-4.1 0-7.5 3.4-7.5 7.5s3.4 7.5 7.5 7.5h16.8c4.1 0 7.5-3.4 7.5-7.5s-3.4-7.5-7.5-7.5h-.9v-29.4c-.1-6.3-5.3-11.5-11.6-11.5z" fill="url(#c)"/></svg>