<svg enable-background="new 0 0 512 512" viewBox="0 0 512 512" xmlns="http://www.w3.org/2000/svg" xmlns:xlink="http://www.w3.org/1999/xlink"><linearGradient id="a"><stop offset="0" stop-color="#4cb5ea"/><stop offset="1" stop-color="#5a6cdd"/></linearGradient><linearGradient id="b" gradientUnits="userSpaceOnUse" x1="248.1313" x2="256.1313" xlink:href="#a" y1=".8886" y2="512.8885"/><linearGradient id="c" gradientUnits="userSpaceOnUse" x1="249.6984" x2="257.6984" xlink:href="#a" y1=".8641" y2="512.8641"/><path d="m504.5 497h-48.6v-297.1c0-4.1-3.4-7.5-7.5-7.5h-80.2c-4.2 0-7.5 3.4-7.5 7.5v297.1h-57.1v-208.9c0-4.1-3.4-7.5-7.5-7.5h-80.2c-4.2 0-7.5 3.4-7.5 7.5v208.9h-57.1v-168.9c0-4.1-3.4-7.5-7.5-7.5h-80.2c-4.2 0-7.5 3.4-7.5 7.5v168.9h-48.6c-4.2 0-7.5 3.4-7.5 7.5s3.4 7.5 7.5 7.5h497c4.2 0 7.5-3.4 7.5-7.5 0-4.2-3.4-7.5-7.5-7.5zm-368.2 0h-65.2v-161.3h65.1zm152.3 0h-65.1v-201.4h65.1zm152.3 0h-65.1v-289.6h65.1z" fill="url(#b)"/><path d="m488 5.9c-5.1-4.5-11.8-6.6-18.5-5.7l-64.1 8c-12.7 1.6-22 13.5-20.4 26.3 1.6 12.9 13.4 22.1 26.3 20.4l5.2-.7c-78.7 91.3-172.3 138.4-238.4 162.1-82.4 29.6-146.6 32.1-147.2 32.1-13 .4-23.2 11.3-22.8 24.2.4 12.8 10.7 22.8 23.5 22.8h.7c2.9-.1 70.9-2.5 160.5-34.4 50.4-18 97.8-41.8 140.9-70.8 3.4-2.3 4.4-7 2-10.4-2.3-3.4-7-4.4-10.4-2-42.1 28.3-88.3 51.6-137.5 69.1-87.4 31.1-153.1 33.5-155.9 33.6h-.3c-4.6 0-8.4-3.6-8.5-8.3s3.6-8.6 8.2-8.8c.7 0 66.7-2.4 151.8-33 71.4-25.4 173.9-77.7 257.2-181.2 4.1-5.2-.2-13-6.8-12.2l-24.1 3c-4.2.5-8.2-2.2-9.3-6.3-1.3-4.9 2.2-10 7.2-10.6l64.1-8c5-.6 9.6 3.4 9.6 8.5v64.1c0 4.7-3.8 8.5-8.5 8.5s-8.5-3.8-8.5-8.5v-19.5c0-3.1-2-5.9-4.9-7-3-1.1-6.5-.2-8.5 2.3-28.1 34.4-60 65.5-95 92.5-3.3 2.5-3.9 7.3-1.4 10.5s7.3 3.9 10.5 1.4c30.5-23.5 58.7-50.1 84.1-79.1.6 12.5 10.9 22.5 23.5 22.5 13 0 23.5-10.6 23.5-23.5v-64.3c.2-6.7-2.7-13.1-7.8-17.6z" fill="url(#c)"/></svg>