<?xml version="1.0" encoding="UTF-8"?>
<svg width="319px" height="298px" viewBox="0 0 319 298" version="1.1" xmlns="http://www.w3.org/2000/svg" xmlns:xlink="http://www.w3.org/1999/xlink">
    <title>Success _Monochromatic</title>
    <defs>
        <linearGradient x1="55.7127496%" y1="44.3540772%" x2="45.7906969%" y2="56.0958454%" id="linearGradient-1">
            <stop stop-color="#FFFFFF" stop-opacity="0" offset="0%"></stop>
            <stop stop-color="#FFFFFF" stop-opacity="0.13" offset="6%"></stop>
            <stop stop-color="#FFFFFF" stop-opacity="0.33" offset="16%"></stop>
            <stop stop-color="#FFFFFF" stop-opacity="0.51" offset="26%"></stop>
            <stop stop-color="#FFFFFF" stop-opacity="0.66" offset="37%"></stop>
            <stop stop-color="#FFFFFF" stop-opacity="0.79" offset="48%"></stop>
            <stop stop-color="#FFFFFF" stop-opacity="0.88" offset="59%"></stop>
            <stop stop-color="#FFFFFF" stop-opacity="0.95" offset="71%"></stop>
            <stop stop-color="#FFFFFF" stop-opacity="0.99" offset="84%"></stop>
            <stop stop-color="#FFFFFF" offset="100%"></stop>
        </linearGradient>
        <linearGradient x1="0.17648163%" y1="49.866432%" x2="99.8953622%" y2="49.866432%" id="linearGradient-2">
            <stop stop-color="#ECC4D7" offset="0%"></stop>
            <stop stop-color="#EFD4D1" offset="42%"></stop>
            <stop stop-color="#F2EAC9" offset="100%"></stop>
        </linearGradient>
        <linearGradient x1="60.1903715%" y1="28.4070621%" x2="0.988578887%" y2="142.45281%" id="linearGradient-3">
            <stop stop-color="#000000" stop-opacity="0.07" offset="0%"></stop>
            <stop stop-color="#000000" stop-opacity="0.25" offset="8%"></stop>
            <stop stop-color="#000000" offset="100%"></stop>
        </linearGradient>
        <linearGradient x1="47.5247616%" y1="52.7097095%" x2="67.7895027%" y2="32.8077278%" id="linearGradient-4">
            <stop stop-color="#000000" stop-opacity="0.07" offset="0%"></stop>
            <stop stop-color="#000000" stop-opacity="0.25" offset="8%"></stop>
            <stop stop-color="#000000" offset="100%"></stop>
        </linearGradient>
        <linearGradient x1="87.3065015%" y1="-2.23780971%" x2="-277.55418%" y2="255.718073%" id="linearGradient-5">
            <stop stop-color="#000000" stop-opacity="0.07" offset="0%"></stop>
            <stop stop-color="#000000" stop-opacity="0.25" offset="8%"></stop>
            <stop stop-color="#000000" offset="100%"></stop>
        </linearGradient>
        <linearGradient x1="55.9247136%" y1="69.1082137%" x2="82.3731588%" y2="156.735176%" id="linearGradient-6">
            <stop stop-color="#000000" stop-opacity="0.07" offset="0%"></stop>
            <stop stop-color="#000000" stop-opacity="0.83" offset="52%"></stop>
            <stop stop-color="#000000" stop-opacity="0.87" offset="56%"></stop>
            <stop stop-color="#000000" offset="100%"></stop>
        </linearGradient>
        <linearGradient x1="0%" y1="50.0305584%" x2="99.9917755%" y2="50.0305584%" id="linearGradient-7">
            <stop stop-color="#ECC4D7" offset="0%"></stop>
            <stop stop-color="#EFD4D1" offset="42%"></stop>
            <stop stop-color="#F2EAC9" offset="100%"></stop>
        </linearGradient>
        <linearGradient x1="37.1589035%" y1="-8.11828426%" x2="119.494124%" y2="258.53778%" id="linearGradient-8">
            <stop stop-color="#ECC4D7" offset="0%"></stop>
            <stop stop-color="#EFD4D1" offset="42%"></stop>
            <stop stop-color="#F2EAC9" offset="100%"></stop>
        </linearGradient>
        <linearGradient x1="54.3514305%" y1="41.6043749%" x2="43.3682142%" y2="64.0638018%" id="linearGradient-9">
            <stop stop-color="#FFFFFF" stop-opacity="0" offset="2%"></stop>
            <stop stop-color="#FFFFFF" stop-opacity="0.13" offset="6%"></stop>
            <stop stop-color="#FFFFFF" stop-opacity="0.33" offset="13%"></stop>
            <stop stop-color="#FFFFFF" stop-opacity="0.51" offset="20%"></stop>
            <stop stop-color="#FFFFFF" stop-opacity="0.66" offset="27%"></stop>
            <stop stop-color="#FFFFFF" stop-opacity="0.79" offset="35%"></stop>
            <stop stop-color="#FFFFFF" stop-opacity="0.88" offset="43%"></stop>
            <stop stop-color="#FFFFFF" stop-opacity="0.95" offset="51%"></stop>
            <stop stop-color="#FFFFFF" stop-opacity="0.99" offset="60%"></stop>
            <stop stop-color="#FFFFFF" offset="71%"></stop>
        </linearGradient>
        <linearGradient x1="49.6754333%" y1="40.7395427%" x2="50.3886778%" y2="61.5624921%" id="linearGradient-10">
            <stop stop-color="#FFFFFF" stop-opacity="0" offset="0%"></stop>
            <stop stop-color="#FFFFFF" stop-opacity="0.13" offset="6%"></stop>
            <stop stop-color="#FFFFFF" stop-opacity="0.33" offset="16%"></stop>
            <stop stop-color="#FFFFFF" stop-opacity="0.51" offset="26%"></stop>
            <stop stop-color="#FFFFFF" stop-opacity="0.66" offset="37%"></stop>
            <stop stop-color="#FFFFFF" stop-opacity="0.79" offset="48%"></stop>
            <stop stop-color="#FFFFFF" stop-opacity="0.88" offset="59%"></stop>
            <stop stop-color="#FFFFFF" stop-opacity="0.95" offset="71%"></stop>
            <stop stop-color="#FFFFFF" stop-opacity="0.99" offset="84%"></stop>
            <stop stop-color="#FFFFFF" offset="100%"></stop>
        </linearGradient>
        <linearGradient x1="0.1377241%" y1="49.891273%" x2="100.054653%" y2="49.891273%" id="linearGradient-11">
            <stop stop-color="#ECC4D7" offset="0%"></stop>
            <stop stop-color="#EFD4D1" offset="42%"></stop>
            <stop stop-color="#F2EAC9" offset="100%"></stop>
        </linearGradient>
    </defs>
    <g id="Page-1" stroke="none" stroke-width="1" fill="none" fill-rule="evenodd">
        <g id="plans-desktop" transform="translate(-971.000000, -151.000000)" fill-rule="nonzero">
            <g id="Success-_Monochromatic" transform="translate(971.000000, 151.000000)">
                <path d="M107.490854,27.0089902 C101.026324,41.952528 99.6602867,58.9172538 90.7327499,72.634825 C77.1896628,93.4497484 50.1379845,101.494739 30.3718385,117.034693 C10.7229786,132.495125 -1.75763508,156.875292 0.201731575,181.202443 C2.16109823,205.529595 19.7402047,228.697049 44.0874051,235.641983 C52.5251002,238.054155 61.6803099,238.657198 69.2763052,242.931514 C86.2137881,252.460919 88.7733832,275.886819 103.937777,287.854903 C117.501562,298.55726 137.440187,297.23189 154.218989,292.301517 C170.997791,287.371143 187.121171,279.365913 204.638184,278.352006 C215.08354,277.748963 225.590989,279.677375 235.99495,278.63696 C249.255171,277.311591 261.43912,271.254654 273.098731,265.038672 C293.375416,254.22366 315.183719,239.763882 318.557417,217.722992 C322.420957,192.328918 299.708862,169.300628 300.067619,143.634853 C300.2332,131.70653 305.448979,120.222206 305.931921,108.274003 C306.621839,91.7930369 297.432133,75.2723098 282.819674,66.6176489 C270.863397,59.5269236 256.292333,57.6979141 243.797921,51.5283205 C226.860438,43.1652408 215.207726,27.6716748 200.836737,15.6903372 C174.833734,-5.98607613 122.55866,-7.84821986 107.490854,27.0089902 Z" id="Path" fill="#4A67C6" opacity="0.18"></path>
                <path d="M183.719188,146.570961 C185.307304,144.282314 188.649382,143.901719 191.257711,144.85067 C193.86604,145.799621 195.956724,147.758418 198.122793,149.499007 C200.288862,151.239596 202.7816,152.853321 205.550751,152.898992 C206.656401,152.898992 207.777128,152.67571 208.867701,152.868544 C210.936721,153.308981 212.409581,155.163728 212.385965,157.298674 C204.433276,156.838405 196.46528,157.870769 188.885589,160.343437 C185.151507,161.561342 180.844498,163.068499 177.542625,160.906718 C176.311333,160.094781 175.361479,158.82613 173.984442,158.313595 C171.144932,157.258077 167.953624,159.835976 165.073908,158.866727 C163.832564,158.44046 162.907839,157.41539 161.81224,156.679572 C158.188723,154.248837 153.158016,155.278982 149.328446,153.193319 C148.670991,152.909023 148.164663,152.355315 147.936332,151.670938 C147.735305,150.706763 148.57962,149.783185 149.519422,149.504082 C150.459225,149.224979 151.459335,149.387366 152.434318,149.45841 C154.937101,149.626899 157.439401,149.122618 159.686377,147.996924 C160.631205,147.519912 161.611213,146.916034 162.656555,147.068272 C164.732161,147.367673 166.259969,150.478406 168.124497,149.52438 C166.762537,150.219601 167.270131,145.591562 167.511364,145.144997 C168.29537,143.719033 170.848416,142.714261 172.320941,142.333666 C176.492257,141.242626 181.352092,142.871574 183.719188,146.570961 Z" id="Path" fill="#4A67C6"></path>
                <path d="M183.719188,146.570961 C185.307304,144.282314 188.649382,143.901719 191.257711,144.85067 C193.86604,145.799621 195.956724,147.758418 198.122793,149.499007 C200.288862,151.239596 202.7816,152.853321 205.550751,152.898992 C206.656401,152.898992 207.777128,152.67571 208.867701,152.868544 C210.936721,153.308981 212.409581,155.163728 212.385965,157.298674 C204.433276,156.838405 196.46528,157.870769 188.885589,160.343437 C185.151507,161.561342 180.844498,163.068499 177.542625,160.906718 C176.311333,160.094781 175.361479,158.82613 173.984442,158.313595 C171.144932,157.258077 167.953624,159.835976 165.073908,158.866727 C163.832564,158.44046 162.907839,157.41539 161.81224,156.679572 C158.188723,154.248837 153.158016,155.278982 149.328446,153.193319 C148.670991,152.909023 148.164663,152.355315 147.936332,151.670938 C147.735305,150.706763 148.57962,149.783185 149.519422,149.504082 C150.459225,149.224979 151.459335,149.387366 152.434318,149.45841 C154.937101,149.626899 157.439401,149.122618 159.686377,147.996924 C160.631205,147.519912 161.611213,146.916034 162.656555,147.068272 C164.732161,147.367673 166.259969,150.478406 168.124497,149.52438 C166.762537,150.219601 167.270131,145.591562 167.511364,145.144997 C168.29537,143.719033 170.848416,142.714261 172.320941,142.333666 C176.492257,141.242626 181.352092,142.871574 183.719188,146.570961 Z" id="Path" fill="url(#linearGradient-1)"></path>
                <polygon id="Path" fill="#4A67C6" points="145.582735 0 91.8538012 56.9591467 116.624379 56.9591467 116.624379 113 171.170808 113 171.170808 56.5 194.672515 56.5"></polygon>
                <polygon id="Path" fill="#4A67C6" points="28.245614 108.558648 61.2482608 72 95.3391813 107.843195 74.402394 107.843195 74.402394 154 45.338499 154 45.338499 108.558648"></polygon>
                <polygon id="Path" fill="#4A67C6" points="202.80117 123.558648 235.803816 87 269.894737 122.843195 248.95795 122.843195 248.95795 169 219.894055 169 219.894055 123.558648"></polygon>
                <path d="M137.971121,159.045468 C137.971121,159.045468 138.010824,203.882381 136.035561,208.08005 C134.48215,211.381081 120.89353,216.239958 115.161296,218.168481 C113.607885,218.694442 112.625217,219 112.625217,219 L113.726997,197.600906 C113.27601,200.497533 112.568431,203.347478 111.61277,206.116463 C110.27773,209.778152 108.267726,213.034101 105.448758,212.127444 C99.5279306,210.228976 97.8603716,209.121954 97.8603716,209.121954 L95.3391813,200.105481 C95.3391813,200.105481 104.81846,195.787593 104.997127,190.543011 C105.175794,185.29843 108.208171,169.59975 116.441743,166.133417 L118.13908,165.417108 L124.675315,162.667084 C124.675315,162.667084 130.134586,145.671034 128.953398,131.404971 C127.772211,117.138908 128.953398,115 128.953398,115 L137.271341,115 C137.271341,115 137.827194,129.611694 137.971121,133.689144 C138.115047,137.766593 137.971121,159.045468 137.971121,159.045468 Z" id="Path" fill="#3F3D56"></path>
                <path d="M131.651214,151.182554 C130.734799,154.890891 129.288349,158.439083 127.846853,161.972262 C127.103814,163.473613 126.65799,166.756566 125.14219,167.72744 C123.527318,168.763372 120.550207,166.561391 119.029453,165.870769 C118.687655,165.710625 118.33595,165.545477 117.994152,165.370319 L124.518037,162.622847 C124.518037,162.622847 129.966992,145.64257 128.788036,131.389746 C127.609081,117.136923 128.788036,115 128.788036,115 L129.630148,115 C129.76449,115.066277 129.889441,115.150433 130.001667,115.250225 C130.81901,115.95586 130.937897,117.16695 130.992386,118.252927 C131.180623,121.375736 131.363906,124.538582 130.764521,127.606342 C130.394912,129.040649 130.102224,130.49407 129.887734,131.960259 C129.758941,133.436588 130.016528,135.02802 130.987433,136.139019 C131.443163,136.639469 132.047502,137.059848 132.374439,137.670397 C132.627343,138.211415 132.754422,138.8037 132.745959,139.401955 C132.964529,143.362002 132.595531,147.332804 131.651214,151.182554 L131.651214,151.182554 Z" id="Path" fill="#25233A"></path>
                <path d="M117.784887,213.700225 C117.390886,214.357592 117.070356,215.059173 116.829469,215.791461 C116.764561,216.131492 116.663633,216.463082 116.528512,216.780225 C116.386085,217.032596 116.207274,217.260993 115.998256,217.457528 L115.310355,218.179326 C113.815126,218.698427 112.869263,219 112.869263,219 L113.929776,197.88 C113.495681,200.738848 112.814604,203.551623 111.894737,206.284494 C112.253018,202.606292 113.461622,197.27191 113.509393,195.111461 C113.590876,192.012607 114.110732,188.942839 115.052392,186 C115.821503,186.558652 116.074689,187.596854 116.218002,188.551011 C116.781698,192.258876 116.590615,196.105169 117.651128,199.694382 C118.343806,202.042697 119.561963,204.267416 119.719607,206.724494 C119.877251,209.181573 118.931388,211.549663 117.784887,213.700225 Z" id="Path" fill="#25233A"></path>
                <path d="M116.712125,201.888786 L112.673518,205.702553 C112.464768,205.900038 112.196182,206.025192 111.908517,206.059025 L87.6023598,208.988936 C86.9596999,209.07143 86.3505102,208.685278 86.1617742,208.07578 L80.5832305,190.227742 C80.4689652,189.853797 80.5285228,189.449333 80.7459656,189.122587 C80.9634084,188.795841 81.3165396,188.580166 81.7108613,188.533277 L104.263478,186.008671 C104.901807,185.936375 105.501577,186.322585 105.689161,186.92671 L109.370106,198.700067 C109.539002,199.251867 109.678093,199.627872 109.678093,199.627872 L115.798098,199.627872 C116.341343,199.632509 116.827659,199.959991 117.028294,200.456277 C117.22893,200.952564 117.103943,201.518857 116.712125,201.888786 L116.712125,201.888786 Z" id="Path" fill="#4A67C6"></path>
                <path d="M128.469194,110.977031 C128.405362,110.662448 128.505284,110.337918 128.737455,110.105765 C129.007163,109.945774 129.354513,109.969092 129.597914,110.163528 C129.836781,110.353002 130.027178,110.591686 130.154682,110.861504 L130.817742,112.002332 C130.972115,112.31992 131.198562,112.601033 131.480803,112.825462 C131.962527,113.075826 132.51679,113.170437 133.059999,113.095024 L135.762855,112.984311 C135.878867,112.971867 135.996238,112.990193 136.101977,113.037261 C136.248138,113.155656 136.317464,113.338796 136.284192,113.518623 C136.274391,113.936885 136.167215,114.34788 135.970377,114.722029 L132.933461,114.827928 C132.098309,114.85681 130.792435,115.145627 129.997775,114.904946 C128.793132,114.52467 128.524871,111.997519 128.469194,110.977031 Z" id="Path" fill="url(#linearGradient-2)"></path>
                <path d="M137.240101,258.100756 C136.96139,259.798489 134.253913,267.642317 134.253913,267.642317 L132.213352,266.302267 L129.540714,264.549118 C129.540714,264.549118 134.403223,242.030227 133.970225,239.72796 C133.537228,237.425693 130.152882,231.476071 130.152882,231.476071 L127.83361,285.667506 L121.861235,288 C121.861235,288 112.245712,229.531486 112.788203,218.982368 L136.264613,208 C136.264613,208 143.232383,228.760705 144.068516,233.148615 C144.904648,237.536524 137.523788,256.403023 137.240101,258.100756 Z" id="Path" fill="#4A67C6"></path>
                <path d="M128.450292,269.690722 L139.376454,276 C139.376454,276 140.661579,274.0682 138.632435,271.632038 C136.60329,269.195876 134.470087,266.921491 134.470087,266.921491 L129.532503,264 L128.450292,269.690722 Z" id="Path" fill="#3F3D56"></path>
                <path d="M122.046317,287.268873 C122.046317,287.268873 118.791124,293.458044 120.010008,296.755995 C121.228891,300.053946 123.981053,296.020939 125.57721,293.595254 C126.931525,291.527297 128.450292,287.268873 128.450292,287.268873 L127.836014,285 L122.046317,287.268873 Z" id="Path" fill="#3F3D56"></path>
                <path d="M138.906433,236.279014 L131.946337,266 L129.321637,264.240704 C129.321637,264.240704 134.096928,241.642846 133.671698,239.332506 C133.246467,237.022165 129.922826,231.05168 129.922826,231.05168 C129.922826,231.05168 132.630616,226.087229 133.593494,227.148873 C134.556373,228.210517 138.906433,236.279014 138.906433,236.279014 Z" id="Path" fill="url(#linearGradient-3)"></path>
                <path d="M116.863529,217 L123.222222,287.495703 L121.972653,288 C121.972653,288 112.253224,229.203992 112.787314,218.911286 L116.863529,217 Z" id="Path" fill="url(#linearGradient-4)"></path>
                <path d="M115.380117,199.877358 L110.909416,204 L109.280702,199 C109.441213,199.533019 109.573398,199.896226 109.573398,199.896226 L115.380117,199.877358 Z" id="Path" fill="url(#linearGradient-5)"></path>
                <path d="M80.5263158,189.511091 L103.042242,187.010301 C103.827877,186.922964 104.568837,187.398336 104.829141,188.156708 L111.023392,206.057895 L87.5641026,209 L80.5263158,189.511091 Z" id="Path" fill="url(#linearGradient-6)"></path>
                <path d="M123.968709,158.212926 C123.404641,159.524295 124.712695,162.71631 124.712695,162.71631 C124.712695,162.71631 126.127728,165.547445 125.651188,168.403993 L125.651188,168.403993 C125.651188,168.541229 125.597699,168.683549 125.568523,168.820785 C124.858575,171.81457 115.76541,168.647969 116.042582,164.464803 C116.319753,160.281636 111.894737,149.617866 111.894737,149.617866 C114.491395,137.637643 123.001041,141.434515 123.759615,142.074951 C124.518189,142.715387 127.348255,152.184693 126.575092,154.334729 C126.355396,154.957747 126.038252,155.538308 125.6366,156.052724 C125.004455,156.886308 124.338271,157.353928 123.968709,158.212926 Z" id="Path" fill="url(#linearGradient-7)"></path>
                <path d="M123.508294,142.165148 C123.508294,142.165148 124.825158,138.870933 123.508294,137.698758 C122.19143,136.526584 119.989955,136.21333 117.501987,136.107228 C115.014018,136.001126 114.234958,135.571666 112.289819,137.698758 C110.34468,139.825851 109.691274,143.155433 108.484986,143.726363 C107.278699,144.297293 106.223197,146.217234 106.856498,148.111913 C107.489799,150.006591 109.078078,153.02292 109.394728,153.12397 C109.711379,153.225019 111.882697,155.564316 111.988247,156.948694 C112.093797,158.333073 114.89339,159 114.89339,159 L114.737578,153.543325 C114.737578,153.543325 114.420927,154.978229 113.099037,153.755529 C111.777146,152.53283 113.732338,151.097926 113.88815,151.153504 C114.043962,151.209081 112.38029,148.354432 112.908041,146.959948 C113.435792,145.565464 116.46659,138.032222 123.508294,142.165148 Z" id="Path" fill="#3F3D56"></path>
                <path d="M125.735162,168.030228 L125.735162,168.030228 C125.65167,168.237162 125.525361,168.424843 125.364217,168.581408 C124.853892,169.002269 124.150034,169.115549 123.529546,168.876683 C122.925857,168.628718 122.396296,168.234142 121.990627,167.730032 C120.12912,165.614659 119.36198,162.776339 119.910329,160.033196 C119.99559,159.540018 120.179597,159.068328 120.451708,158.645403 C121.113393,157.700523 122.351546,157.360957 123.434303,156.922966 C124.51706,156.484974 125.309077,155.771393 125.720124,156.071589 C125.068464,156.868832 124.381716,157.321587 124.000745,158.153278 C123.419265,159.422961 124.767698,162.513506 124.767698,162.513506 C124.767698,162.513506 126.226413,165.2448 125.735162,168.030228 Z" id="Path" fill="url(#linearGradient-8)"></path>
                <path d="M183.839111,177.256816 C182.837066,181.681682 185.56263,186.598198 189.881447,188.146901 C193.513863,189.449778 197.532066,188.50089 201.404973,188.505807 C208.178802,188.505807 214.616946,191.514715 221.375745,191.947368 C225.850618,192.228176 230.324372,191.381978 234.372278,189.48911 C236.712055,188.392727 238.961647,186.937438 241.531895,186.617864 C243.686293,186.347456 245.935886,186.907939 248.020141,186.298291 C251.562372,185.265822 253.330983,180.845874 252.053375,177.448561 C250.775766,174.051248 247.12331,171.873231 243.440792,171.548741 C239.863488,171.25375 236.16594,172.45338 232.728923,171.440577 C228.886077,170.309778 226.250697,166.661723 222.432903,165.442427 C216.841488,163.662648 211.184939,167.586028 206.660703,171.273416 C205.671155,168.550167 203.091593,166.692572 200.147406,166.583059 C197.191371,166.524061 194.270407,168.933154 191.584925,170.02462 C188.007622,171.529075 184.791055,173.141692 183.839111,177.256816 Z" id="Path" fill="#4A67C6"></path>
                <path d="M183.839111,177.256816 C182.837066,181.681682 185.56263,186.598198 189.881447,188.146901 C193.513863,189.449778 197.532066,188.50089 201.404973,188.505807 C208.178802,188.505807 214.616946,191.514715 221.375745,191.947368 C225.850618,192.228176 230.324372,191.381978 234.372278,189.48911 C236.712055,188.392727 238.961647,186.937438 241.531895,186.617864 C243.686293,186.347456 245.935886,186.907939 248.020141,186.298291 C251.562372,185.265822 253.330983,180.845874 252.053375,177.448561 C250.775766,174.051248 247.12331,171.873231 243.440792,171.548741 C239.863488,171.25375 236.16594,172.45338 232.728923,171.440577 C228.886077,170.309778 226.250697,166.661723 222.432903,165.442427 C216.841488,163.662648 211.184939,167.586028 206.660703,171.273416 C205.671155,168.550167 203.091593,166.692572 200.147406,166.583059 C197.191371,166.524061 194.270407,168.933154 191.584925,170.02462 C188.007622,171.529075 184.791055,173.141692 183.839111,177.256816 Z" id="Path" fill="url(#linearGradient-9)"></path>
                <path d="M2.31276846,151.255065 C1.31078722,155.680437 4.0361762,160.597517 8.35972527,162.146397 C11.9919073,163.449423 16.0048422,162.49551 19.8825096,162.505344 C26.6508929,162.505344 33.0886224,165.50968 39.8469859,165.9473 C44.3231986,166.228329 48.7983318,165.382045 52.8476925,163.48876 C55.1873187,162.397168 57.4317567,160.936795 60.0068485,160.617185 C62.1611082,160.351663 64.4105561,160.91221 66.4946771,160.302492 C70.0316709,159.269905 71.8051777,154.844533 70.5276516,151.451748 C69.2501255,148.058963 65.592894,145.870862 61.9156228,145.551252 C58.3385498,145.25131 54.641239,146.451077 51.2044433,145.443076 C47.3568353,144.312148 44.7216246,140.658757 40.909086,139.444238 C35.3180307,137.659338 29.6618465,141.588085 25.1379012,145.270978 C24.1467798,142.549351 21.5677446,140.693751 18.6250231,140.585001 C15.6691785,140.525996 12.7484031,142.930448 10.0630934,144.026957 C6.48101044,145.526666 3.27467046,147.164054 2.31276846,151.255065 Z" id="Path" fill="#4A67C6"></path>
                <path d="M2.31276846,151.255065 C1.31078722,155.680437 4.0361762,160.597517 8.35972527,162.146397 C11.9919073,163.449423 16.0048422,162.49551 19.8825096,162.505344 C26.6508929,162.505344 33.0886224,165.50968 39.8469859,165.9473 C44.3231986,166.228329 48.7983318,165.382045 52.8476925,163.48876 C55.1873187,162.397168 57.4317567,160.936795 60.0068485,160.617185 C62.1611082,160.351663 64.4105561,160.91221 66.4946771,160.302492 C70.0316709,159.269905 71.8051777,154.844533 70.5276516,151.451748 C69.2501255,148.058963 65.592894,145.870862 61.9156228,145.551252 C58.3385498,145.25131 54.641239,146.451077 51.2044433,145.443076 C47.3568353,144.312148 44.7216246,140.658757 40.909086,139.444238 C35.3180307,137.659338 29.6618465,141.588085 25.1379012,145.270978 C24.1467798,142.549351 21.5677446,140.693751 18.6250231,140.585001 C15.6691785,140.525996 12.7484031,142.930448 10.0630934,144.026957 C6.48101044,145.526666 3.27467046,147.164054 2.31276846,151.255065 Z" id="Path" fill="url(#linearGradient-10)"></path>
                <path d="M95.614521,208.918124 C96.125624,209.007815 96.6503729,209.023949 97.1675662,208.965876 L99.9670685,208.796575 C100.328269,208.785204 100.686323,208.734148 101.032588,208.644639 C101.656711,208.446588 102.127089,207.994816 102.289097,207.437832 C102.31689,207.357099 102.31689,207.271126 102.289097,207.190393 C102.193603,206.942955 101.786494,206.960319 101.520114,207.107914 C101.253734,207.255509 101.072796,207.485584 100.77626,207.542017 C100.616656,207.55406 100.455886,207.53781 100.303813,207.494266 L98.7206115,207.146983 C98.6316986,207.12127 98.5374198,207.112387 98.4441794,207.120937 C98.0973829,207.168688 98.0672267,207.585427 98.1225131,207.884959 C97.9060716,207.636772 97.5722371,207.485435 97.2128005,207.472561 C96.8419824,207.474924 96.5420484,207.73398 96.5393117,208.054259 L95.9160831,207.620156 C95.8306405,207.563722 95.7150417,207.502948 95.619547,207.550699 C95.5738503,207.582675 95.5419761,207.627029 95.5290783,207.676589 L95.3179848,208.14108 C95.3732712,208.019531 94.5238711,207.706976 94.4685847,208.14108 C94.4384284,208.514408 95.3280369,208.853009 95.614521,208.918124 Z" id="Path" fill="url(#linearGradient-11)"></path>
            </g>
        </g>
    </g>
</svg>