<?xml version="1.0" encoding="utf-8"?>
<!-- Generator: Adobe Illustrator 24.0.3, SVG Export Plug-In . SVG Version: 6.00 Build 0)  -->
<svg version="1.1" id="Calque_1" xmlns="http://www.w3.org/2000/svg" xmlns:xlink="http://www.w3.org/1999/xlink" x="0px" y="0px"
	 viewBox="0 0 184 154" style="enable-background:new 0 0 184 154;" xml:space="preserve">
<style type="text/css">
	.st0{fill:url(#SVGID_1_);stroke:url(#SVGID_2_);stroke-miterlimit:10;}
</style>
<title>suitcase</title>
<linearGradient id="SVGID_1_" gradientUnits="userSpaceOnUse" x1="92.6302" y1="3.555220e-02" x2="92.6302" y2="155.7186">
	<stop  offset="8.073435e-08" style="stop-color:#4DBBED"/>
	<stop  offset="1" style="stop-color:#5870E0"/>
</linearGradient>
<linearGradient id="SVGID_2_" gradientUnits="userSpaceOnUse" x1="92.6302" y1="1.5" x2="92.6302" y2="152.5">
	<stop  offset="0" style="stop-color:#4DBBED"/>
	<stop  offset="1" style="stop-color:#586FE0"/>
</linearGradient>
<path class="st0" d="M162.4,24.5h-37.9v-9.9c0-6.8-5.6-12.6-12-12.6H72.7c-6.4,0-12,5.9-12,12.6v9.9H22.9
	c-10.3,0-18.4,8.2-18.4,18.7v90c0,10.5,8.1,18.7,18.4,18.7h139.6c10.3,0,18.4-8.2,18.3-18.7v-90C180.8,32.8,172.7,24.5,162.4,24.5z
	 M68.7,14.6c0-2.5,1.6-4.2,4-4.2h39.8c2.4,0,4,1.7,4,4.2v9.9H68.7V14.6z M22.9,32h37.9c0.2,2.3,1.7,3.8,4,3.8c2.2,0,3.8-1.5,4-3.8
	h47.9c0.2,2.2,1.7,3.7,4,3.7c2.2,0,3.7-1.5,3.9-3.7h37.9c5.9,0,11,5.2,11,11.3v11.5c0,0.7-0.4,1.2-1,1.5L93.6,86.7
	c-0.4,0.2-0.8,0.2-1.2,0L12.8,56c-0.6-0.2-1-0.8-1-1.5V43.2C11.8,37.2,17,32,22.9,32z M162.4,144.5H22.9c-5.9,0-11-5.2-11-11.3V67.1
	c0-1.1,1.1-1.9,2.1-1.5l78.1,29.6c0.4,0.1,0.8,0.1,1.1,0l78.1-30.4c1-0.4,2.1,0.4,2.1,1.5v66.9C173.4,139.3,168.3,144.5,162.4,144.5
	z"/>
</svg>
