<?xml version="1.0" encoding="UTF-8"?>
<svg width="184px" height="154px" viewBox="0 0 184 154" version="1.1" xmlns="http://www.w3.org/2000/svg" xmlns:xlink="http://www.w3.org/1999/xlink">
    <title>suitcase</title>
    <defs>
        <linearGradient x1="51.0261453%" y1="15.2703848%" x2="49.2851423%" y2="74.758555%" id="linearGradient-1">
            <stop stop-color="#4DBBED" offset="8.073434e-06%"></stop>
            <stop stop-color="#5870E0" offset="100%"></stop>
        </linearGradient>
        <linearGradient x1="50.6454599%" y1="37.4864606%" x2="45.4244874%" y2="172.764002%" id="linearGradient-2">
            <stop stop-color="#4DBBED" offset="8.073434e-06%"></stop>
            <stop stop-color="#5870E0" offset="100%"></stop>
        </linearGradient>
        <linearGradient x1="50.6641536%" y1="40.0452259%" x2="48.9213128%" y2="60.8257516%" id="linearGradient-3">
            <stop stop-color="#4DBBED" offset="8.073434e-06%"></stop>
            <stop stop-color="#5870E0" offset="100%"></stop>
        </linearGradient>
    </defs>
    <g id="Page-1" stroke="none" stroke-width="1" fill="none" fill-rule="evenodd">
        <g id="Sign-up-1step-desktop" transform="translate(-1026.000000, -737.000000)" fill-rule="nonzero">
            <g id="suitcase" transform="translate(1026.000000, 740.748361)">
                <path d="M165.43275,147.193648 L25.8514619,147.193648 C15.5911699,147.193648 7.5,138.965573 7.5,128.451921 L7.5,38.435374 C7.5,27.9217226 15.5911699,19.6936475 25.8514619,19.6936475 L165.39832,19.6936475 C175.693042,19.6936475 183.749891,27.9568853 183.749891,38.435374 L183.749891,128.451921 C183.784212,138.965573 175.693042,147.193648 165.43275,147.193648 Z M25.8514619,27.1833056 C19.9638447,27.1833056 14.8336987,32.4225499 14.8336987,38.435374 L14.8336987,128.451921 C14.8336987,134.464745 19.9638447,139.70399 25.8514619,139.70399 L165.39832,139.70399 C171.285937,139.70399 176.416083,134.464745 176.416083,128.451921 L176.416083,38.435374 C176.416083,32.4225499 171.285937,27.1833056 165.39832,27.1833056 L25.8514619,27.1833056 Z" id="Shape" fill="url(#linearGradient-1)"></path>
                <path d="M123.541301,30.9041276 C121.151142,30.9041276 119.545255,29.2047717 119.545255,26.6754977 L119.545255,9.84001756 C119.545255,7.31074356 117.939367,5.61138759 115.549209,5.61138759 L75.7381371,5.61138759 C73.3479789,5.61138759 71.7420914,7.31074356 71.7420914,9.84001756 L71.7420914,26.7150176 C71.7420914,29.2442916 70.1362039,30.9436475 67.7460457,30.9436475 C65.3558875,30.9436475 63.75,29.2442916 63.75,26.7150176 L63.75,9.84001756 C63.75,3.08211358 69.314587,-2.80635246 75.7007909,-2.80635246 L115.549209,-2.80635246 C121.935413,-2.80635246 127.5,3.08211358 127.5,9.84001756 L127.5,26.7150176 C127.5,29.2047717 125.931459,30.9041276 123.541301,30.9041276 Z" id="Path" fill="url(#linearGradient-2)"></path>
                <g id="Group" transform="translate(7.500000, 49.693648)" fill="url(#linearGradient-3)">
                    <path d="M88.125,40.9826389 L2.68505859,8.59375 C2.58178711,8.55555556 2.47851562,8.51736111 2.37524414,8.44097222 C0.998291016,7.5625 -0.309814453,5.34722222 0.240966797,3.05555556 C0.275390625,2.90277778 0.344238281,2.75 0.413085937,2.63541667 C1.23925781,1.06944444 3.33911133,-0.381944444 5.47338867,0.381944444 L87.8496094,32.1979167 C88.2626953,32.3506944 88.6757812,32.3506944 89.0888672,32.1979167 L171.465088,0.381944444 C173.668213,-0.420138889 175.148437,0.381944444 175.871338,2.82638889 C176.594238,5.27083333 175.871338,6.91319444 173.668213,7.71527778" id="Path"></path>
                </g>
            </g>
        </g>
    </g>
</svg>