<svg enable-background="new 0 0 184 154" viewBox="0 0 184 154" xmlns="http://www.w3.org/2000/svg" xmlns:xlink="http://www.w3.org/1999/xlink"><linearGradient id="a" gradientUnits="userSpaceOnUse" x1="92.6302" x2="92.6302" y1=".035552" y2="155.7186"><stop offset=".00000008073" stop-color="#4dbbed"/><stop offset="1" stop-color="#5870e0"/></linearGradient><linearGradient id="b" gradientUnits="userSpaceOnUse" x1="92.6302" x2="92.6302" y1="1.5" y2="152.5"><stop offset="0" stop-color="#4dbbed"/><stop offset="1" stop-color="#586fe0"/></linearGradient><path d="m162.4 24.5h-37.9v-9.9c0-6.8-5.6-12.6-12-12.6h-39.8c-6.4 0-12 5.9-12 12.6v9.9h-37.8c-10.3 0-18.4 8.2-18.4 18.7v90c0 10.5 8.1 18.7 18.4 18.7h139.6c10.3 0 18.4-8.2 18.3-18.7v-90c0-10.4-8.1-18.7-18.4-18.7zm-93.7-9.9c0-2.5 1.6-4.2 4-4.2h39.8c2.4 0 4 1.7 4 4.2v9.9h-47.8zm-45.8 17.4h37.9c.2 2.3 1.7 3.8 4 3.8 2.2 0 3.8-1.5 4-3.8h47.9c.2 2.2 1.7 3.7 4 3.7 2.2 0 3.7-1.5 3.9-3.7h37.9c5.9 0 11 5.2 11 11.3v11.5c0 .7-.4 1.2-1 1.5l-78.9 30.4c-.4.2-.8.2-1.2 0l-79.6-30.7c-.6-.2-1-.8-1-1.5v-11.3c0-6 5.2-11.2 11.1-11.2zm139.5 112.5h-139.5c-5.9 0-11-5.2-11-11.3v-66.1c0-1.1 1.1-1.9 2.1-1.5l78.1 29.6c.4.1.8.1 1.1 0l78.1-30.4c1-.4 2.1.4 2.1 1.5v66.9c0 6.1-5.1 11.3-11 11.3z" fill="url(#a)" stroke="url(#b)" stroke-miterlimit="10"/></svg>