<?xml version="1.0" encoding="utf-8"?>
<!-- Generator: Adobe Illustrator 24.0.3, SVG Export Plug-In . SVG Version: 6.00 Build 0)  -->
<svg version="1.1" id="Capa_1" xmlns="http://www.w3.org/2000/svg" xmlns:xlink="http://www.w3.org/1999/xlink" x="0px" y="0px"
	 viewBox="0 0 512 512" style="enable-background:new 0 0 512 512;" xml:space="preserve">
<style type="text/css">
	.st0{fill:url(#SVGID_1_);}
	.st1{fill:url(#SVGID_2_);}
	.st2{fill:url(#SVGID_3_);}
</style>
<g>
	<linearGradient id="SVGID_1_" gradientUnits="userSpaceOnUse" x1="339.4899" y1="-6.7878" x2="374.4899" y2="506.2122">
		<stop  offset="0" style="stop-color:#4CB5EA"/>
		<stop  offset="1" style="stop-color:#5A6CDD"/>
	</linearGradient>
	<path class="st0" d="M371.2,165h73c6.8,9.1,17.7,15,30,15c20.7,0,37.5-16.8,37.5-37.5S494.9,105,474.3,105c-12.2,0-23.1,5.9-30,15
		c0,0,0,0,0,0h-73c-2.3-3-4.9-5.6-8-7.8V86.3l26.8-26.8h53.8c6.8,9.4,17.9,15.5,30.3,15.5c20.7,0,37.5-16.8,37.5-37.5
		S494.9,0,474.2,0c-12,0-22.7,5.7-29.6,14.5h-63.9c-6,0-11.7,2.3-15.9,6.6l-40,40c-4.2,4.3-6.6,9.9-6.6,15.9v35.9
		c-11.3,8.6-17.5,25-13,40.2l-28.8,38.7c-6.5-2.1-13.5-3.3-20.7-3.3c-37.2,0-67.5,30.3-67.5,67.5s30.3,67.5,67.5,67.5
		c7.1,0,13.9-1.1,20.4-3.1l29.1,38.7c-1,3.3-1.5,6.8-1.5,10.4c0,12,5.7,22.7,14.5,29.6V435c0,6,2.3,11.7,6.6,15.9l40,40
		c4.2,4.2,9.9,6.6,15.9,6.6h63.9c6.9,8.8,17.6,14.5,29.6,14.5c20.7,0,37.5-16.8,37.5-37.5S494.9,437,474.3,437
		c-12.5,0-23.5,6.1-30.3,15.5h-53.8l-26.8-26.8v-25.8c3-2.2,5.7-4.8,8-7.8h73c6.8,9.1,17.7,15,30,15c20.7,0,37.5-16.8,37.5-37.5
		S494.9,332,474.3,332c-12.2,0-23.1,5.9-30,15c0,0,0,0,0,0h-73c-6.8-9.1-17.7-15-30-15c0,0,0,0-0.1,0L312,293.2
		c3-4.6,5.5-9.5,7.4-14.7h124.9c0,0,0,0,0,0c6.8,9.1,17.7,15,30,15c20.7,0,37.5-16.8,37.5-37.5s-16.8-37.5-37.5-37.5
		c-12.2,0-23.1,5.9-30,15c0,0,0,0,0,0h-43.5c-4.1,0-7.5,3.4-7.5,7.5s3.4,7.5,7.5,7.5h36.8c-0.7,3.9-1.2,8.9,0,15H322.8
		c0.4-3.9,0.7-8.9,0-15h41.9c4.1,0,7.5-3.4,7.5-7.5s-3.4-7.5-7.5-7.5h-45.4c-1.8-5.1-4.2-9.9-7.2-14.4l29.1-39.1
		C353.6,180,364.4,174.1,371.2,165L371.2,165z M474.2,120c12.4,0,22.5,10.1,22.5,22.5S486.7,165,474.2,165s-22.5-10.1-22.5-22.5
		S461.8,120,474.2,120z M378,135h59.5c-0.7,3.9-1.2,8.9,0,15H378c0.5-2.4,0.8-4.9,0.8-7.5S378.5,137.4,378,135z M474.2,15
		c12.4,0,22.5,10.1,22.5,22.5S486.7,60,474.2,60s-22.5-10.1-22.5-22.5S461.8,15,474.2,15z M474.2,452c12.4,0,22.5,10.1,22.5,22.5
		S486.7,497,474.2,497s-22.5-10.1-22.5-22.5S461.8,452,474.2,452z M474.2,347c12.4,0,22.5,10.1,22.5,22.5S486.7,392,474.2,392
		s-22.5-10.1-22.5-22.5S461.8,347,474.2,347z M378,362h59.5c-0.7,3.9-1.2,8.9,0,15H378C378.7,373.1,379.2,368.1,378,362z
		 M474.2,233.5c12.4,0,22.5,10.1,22.5,22.5c0,12.4-10.1,22.5-22.5,22.5s-22.5-10.1-22.5-22.5S461.8,233.5,474.2,233.5z M333.2,77
		c0-2,0.8-3.9,2.2-5.3l40-40c1.4-1.4,3.3-2.2,5.3-2.2h56.9c-0.6,2.6-0.9,5.3-0.9,8c0,2.4,0.2,4.7,0.7,7H387c-2,0-3.9,0.8-5.3,2.2
		l-31.2,31.2c-1.4,1.4-2.2,3.3-2.2,5.3v22.5c-4-0.7-8.8-1-15,0.2V77z M255.8,308.5c-28.9,0-52.5-23.6-52.5-52.5s23.6-52.5,52.5-52.5
		s52.5,23.6,52.5,52.5S284.7,308.5,255.8,308.5z M381.7,465.3c1.4,1.4,3.3,2.2,5.3,2.2h50.5c-0.7,4-1,8.8,0.2,15h-56.9
		c-2,0-3.9-0.8-5.3-2.2l-40-40c-1.4-1.4-2.2-3.3-2.2-5.3v-28.9c3.7,0.8,9.2,1.3,15,0.2v22.5c0,2,0.8,3.9,2.2,5.3L381.7,465.3z
		 M341.2,347c12.4,0,22.5,10.1,22.5,22.5S353.7,392,341.2,392s-22.5-10.1-22.5-22.5S328.8,347,341.2,347z M325.2,335.6
		c-4.6,2.2-8.6,5.3-12,9l-23-30.6c4.3-2.6,8.3-5.6,12-9.1L325.2,335.6z M302.3,207.2c-3.6-3.5-7.6-6.5-11.9-9.1l22.9-30.7
		c3.3,3.7,7.4,6.8,12,9L302.3,207.2z M318.8,142.5c0-12.4,10.1-22.5,22.5-22.5s22.5,10.1,22.5,22.5S353.7,165,341.2,165
		S318.8,154.9,318.8,142.5z"/>
	<linearGradient id="SVGID_2_" gradientUnits="userSpaceOnUse" x1="145.4874" y1="6.4482" x2="180.4874" y2="519.4482">
		<stop  offset="0" style="stop-color:#4CB5EA"/>
		<stop  offset="1" style="stop-color:#5A6CDD"/>
	</linearGradient>
	<path class="st1" d="M237.8,497h-9.8c-6.9,0-12.6-5.7-12.6-12.6v-21.6c0-11.9-7.6-22.4-18.9-26.2c-8.7-2.9-17.3-6.4-25.5-10.6
		c-10.7-5.4-23.5-3.3-31.9,5.1l-15.3,15.3c-2.4,2.4-5.5,3.7-8.9,3.7s-6.5-1.3-8.9-3.7l-40-40c-4.9-4.9-4.9-12.9,0-17.8l15.3-15.3
		c8.4-8.4,10.5-21.3,5.1-31.9c-4.1-8.2-7.7-16.8-10.6-25.5c-3.7-11.3-14.3-18.9-26.2-18.9H27.8c-6.9,0-12.6-5.7-12.6-12.6v-56.6
		c0-6.9,5.7-12.6,12.6-12.6h21.6c11.9,0,22.4-7.6,26.2-18.9c2.9-8.7,6.4-17.3,10.6-25.5c5.4-10.7,3.3-23.5-5.1-31.9l-15.3-15.3
		c-4.9-4.9-4.9-12.9,0-17.8l40-40c4.9-4.9,12.9-4.9,17.8,0L139,80.9c8.4,8.4,21.3,10.5,31.9,5.1c8.2-4.1,16.8-7.7,25.5-10.6
		c11.3-3.7,18.9-14.3,18.9-26.2V27.6c0-6.9,5.7-12.6,12.6-12.6h55.6c6.2,0,11.6,4.6,12.5,10.7c0.1,0.4,0,0.8-0.2,1.2l-7.6,19.7
		c-1.5,3.9,0.4,8.2,4.3,9.7c3.9,1.5,8.2-0.4,9.7-4.3l7.6-19.7c1.1-2.8,1.4-5.9,1-8.9C308.9,10.1,297.1,0,283.6,0h-55.6
		c-15.2,0-27.6,12.4-27.6,27.6v21.6c0,5.4-3.5,10.2-8.6,12c-9.4,3.1-18.7,7-27.5,11.4c-4.9,2.5-10.7,1.5-14.6-2.3L134.3,55
		c-10.8-10.7-28.3-10.7-39,0l-40,40c-10.7,10.8-10.7,28.3,0,39l15.3,15.3c3.8,3.8,4.8,9.7,2.3,14.6c-4.5,8.9-8.3,18.1-11.4,27.5
		c-1.7,5.2-6.5,8.6-11.9,8.6H27.9c-15.2,0-27.6,12.4-27.6,27.6v56.6c0,15.2,12.4,27.6,27.6,27.6h21.6c5.4,0,10.2,3.5,12,8.6
		c3.1,9.4,7,18.7,11.4,27.5c2.5,4.9,1.5,10.7-2.3,14.6L55.2,378c-10.7,10.8-10.7,28.3,0,39l40,40c10.8,10.8,28.3,10.8,39,0
		l15.3-15.3c3.8-3.8,9.7-4.8,14.6-2.3c8.9,4.5,18.1,8.3,27.5,11.4c5.2,1.7,8.6,6.5,8.6,11.9v21.6c0,15.2,12.4,27.6,27.6,27.6h9.8
		c4.1,0,7.5-3.4,7.5-7.5S241.9,497,237.8,497z"/>
	<linearGradient id="SVGID_3_" gradientUnits="userSpaceOnUse" x1="183.2448" y1="3.8722" x2="218.2448" y2="516.8722">
		<stop  offset="0" style="stop-color:#4CB5EA"/>
		<stop  offset="1" style="stop-color:#5A6CDD"/>
	</linearGradient>
	<path class="st2" d="M265.1,363c-2.5-6.4-8.4-10.8-15.3-11.2c-50.8-3-90.6-45.4-90.6-96.3c0-51,39.8-93.3,90.6-96.3
		c6.8-0.4,12.8-4.8,15.2-11.1l24.5-63.3c1.5-3.9-0.4-8.2-4.3-9.7c-3.9-1.5-8.2,0.4-9.7,4.3l-8,20.7c-3.9-0.3-7.9-0.5-11.9-0.5
		c-86.3,0-156.5,70.2-156.5,156.5c0,35.3,11.5,68.7,33.2,96.4c1.5,1.9,3.7,2.9,5.9,2.9c1.6,0,3.2-0.5,4.6-1.6
		c3.3-2.6,3.8-7.3,1.3-10.5c-19.7-25.1-30-55.2-30-87.2c0-78,63.5-141.5,141.5-141.5c2.1,0,4.1,0,6.2,0.1l-10.8,28
		c-0.4,0.9-1.2,1.5-2.1,1.6c-58.7,3.5-104.7,52.4-104.7,111.3c0,58.9,46,107.8,104.7,111.3c1,0.1,1.8,0.7,2.2,1.6l11.1,29
		c-33.3,1.7-68.2-9.3-94.5-30.5c-3.2-2.6-8-2-10.5,1.2c-2.6,3.2-2,8,1.2,10.5c30.8,24.6,69.6,36.4,109.4,33.5l28,73
		c0.2,0.4,0.2,0.8,0.1,1.2c-0.9,6.1-6.3,10.7-12.5,10.7h-10.8c-4.1,0-7.5,3.4-7.5,7.5s3.4,7.5,7.5,7.5h10.8
		c13.6,0,25.3-10.1,27.3-23.5c0.4-2.9,0.1-6-1-8.8L265.1,363z"/>
</g>
</svg>
