<svg enable-background="new 0 0 512 512" viewBox="0 0 512 512" xmlns="http://www.w3.org/2000/svg" xmlns:xlink="http://www.w3.org/1999/xlink"><linearGradient id="a"><stop offset="0" stop-color="#4cb5ea"/><stop offset="1" stop-color="#5a6cdd"/></linearGradient><linearGradient id="b" gradientUnits="userSpaceOnUse" x1="339.4899" x2="374.4899" xlink:href="#a" y1="-6.7878" y2="506.2122"/><linearGradient id="c" gradientUnits="userSpaceOnUse" x1="145.4874" x2="180.4874" xlink:href="#a" y1="6.4482" y2="519.4482"/><linearGradient id="d" gradientUnits="userSpaceOnUse" x1="183.2448" x2="218.2448" xlink:href="#a" y1="3.8722" y2="516.8722"/><path d="m371.2 165h73c6.8 9.1 17.7 15 30 15 20.7 0 37.5-16.8 37.5-37.5s-16.8-37.5-37.4-37.5c-12.2 0-23.1 5.9-30 15h-73c-2.3-3-4.9-5.6-8-7.8v-25.9l26.8-26.8h53.8c6.8 9.4 17.9 15.5 30.3 15.5 20.7 0 37.5-16.8 37.5-37.5s-16.8-37.5-37.5-37.5c-12 0-22.7 5.7-29.6 14.5h-63.9c-6 0-11.7 2.3-15.9 6.6l-40 40c-4.2 4.3-6.6 9.9-6.6 15.9v35.9c-11.3 8.6-17.5 25-13 40.2l-28.8 38.7c-6.5-2.1-13.5-3.3-20.7-3.3-37.2 0-67.5 30.3-67.5 67.5s30.3 67.5 67.5 67.5c7.1 0 13.9-1.1 20.4-3.1l29.1 38.7c-1 3.3-1.5 6.8-1.5 10.4 0 12 5.7 22.7 14.5 29.6v35.9c0 6 2.3 11.7 6.6 15.9l40 40c4.2 4.2 9.9 6.6 15.9 6.6h63.9c6.9 8.8 17.6 14.5 29.6 14.5 20.7 0 37.5-16.8 37.5-37.5s-16.8-37.5-37.4-37.5c-12.5 0-23.5 6.1-30.3 15.5h-53.8l-26.8-26.8v-25.8c3-2.2 5.7-4.8 8-7.8h73c6.8 9.1 17.7 15 30 15 20.7 0 37.5-16.8 37.5-37.5s-17-37.6-37.6-37.6c-12.2 0-23.1 5.9-30 15h-73c-6.8-9.1-17.7-15-30-15 0 0 0 0-.1 0l-29.2-38.8c3-4.6 5.5-9.5 7.4-14.7h124.9c6.8 9.1 17.7 15 30 15 20.7 0 37.5-16.8 37.5-37.5s-16.8-37.5-37.5-37.5c-12.2 0-23.1 5.9-30 15h-43.5c-4.1 0-7.5 3.4-7.5 7.5s3.4 7.5 7.5 7.5h36.8c-.7 3.9-1.2 8.9 0 15h-114.8c.4-3.9.7-8.9 0-15h41.9c4.1 0 7.5-3.4 7.5-7.5s-3.4-7.5-7.5-7.5h-45.4c-1.8-5.1-4.2-9.9-7.2-14.4l29.1-39.1c12.4 0 23.2-5.9 30-15zm103-45c12.4 0 22.5 10.1 22.5 22.5s-10 22.5-22.5 22.5-22.5-10.1-22.5-22.5 10.1-22.5 22.5-22.5zm-96.2 15h59.5c-.7 3.9-1.2 8.9 0 15h-59.5c.5-2.4.8-4.9.8-7.5s-.3-5.1-.8-7.5zm96.2-120c12.4 0 22.5 10.1 22.5 22.5s-10 22.5-22.5 22.5-22.5-10.1-22.5-22.5 10.1-22.5 22.5-22.5zm0 437c12.4 0 22.5 10.1 22.5 22.5s-10 22.5-22.5 22.5-22.5-10.1-22.5-22.5 10.1-22.5 22.5-22.5zm0-105c12.4 0 22.5 10.1 22.5 22.5s-10 22.5-22.5 22.5-22.5-10.1-22.5-22.5 10.1-22.5 22.5-22.5zm-96.2 15h59.5c-.7 3.9-1.2 8.9 0 15h-59.5c.7-3.9 1.2-8.9 0-15zm96.2-128.5c12.4 0 22.5 10.1 22.5 22.5s-10.1 22.5-22.5 22.5-22.5-10.1-22.5-22.5 10.1-22.5 22.5-22.5zm-141-156.5c0-2 .8-3.9 2.2-5.3l40-40c1.4-1.4 3.3-2.2 5.3-2.2h56.9c-.6 2.6-.9 5.3-.9 8 0 2.4.2 4.7.7 7h-50.4c-2 0-3.9.8-5.3 2.2l-31.2 31.2c-1.4 1.4-2.2 3.3-2.2 5.3v22.5c-4-.7-8.8-1-15 .2v-28.9zm-77.4 231.5c-28.9 0-52.5-23.6-52.5-52.5s23.6-52.5 52.5-52.5 52.5 23.6 52.5 52.5-23.6 52.5-52.5 52.5zm125.9 156.8c1.4 1.4 3.3 2.2 5.3 2.2h50.5c-.7 4-1 8.8.2 15h-56.9c-2 0-3.9-.8-5.3-2.2l-40-40c-1.4-1.4-2.2-3.3-2.2-5.3v-28.9c3.7.8 9.2 1.3 15 .2v22.5c0 2 .8 3.9 2.2 5.3zm-40.5-118.3c12.4 0 22.5 10.1 22.5 22.5s-10 22.5-22.5 22.5-22.5-10.1-22.5-22.5 10.1-22.5 22.5-22.5zm-16-11.4c-4.6 2.2-8.6 5.3-12 9l-23-30.6c4.3-2.6 8.3-5.6 12-9.1zm-22.9-128.4c-3.6-3.5-7.6-6.5-11.9-9.1l22.9-30.7c3.3 3.7 7.4 6.8 12 9zm16.5-64.7c0-12.4 10.1-22.5 22.5-22.5s22.5 10.1 22.5 22.5-10.1 22.5-22.6 22.5-22.4-10.1-22.4-22.5z" fill="url(#b)"/><path d="m237.8 497h-9.8c-6.9 0-12.6-5.7-12.6-12.6v-21.6c0-11.9-7.6-22.4-18.9-26.2-8.7-2.9-17.3-6.4-25.5-10.6-10.7-5.4-23.5-3.3-31.9 5.1l-15.3 15.3c-2.4 2.4-5.5 3.7-8.9 3.7s-6.5-1.3-8.9-3.7l-40-40c-4.9-4.9-4.9-12.9 0-17.8l15.3-15.3c8.4-8.4 10.5-21.3 5.1-31.9-4.1-8.2-7.7-16.8-10.6-25.5-3.7-11.3-14.3-18.9-26.2-18.9h-21.8c-6.9 0-12.6-5.7-12.6-12.6v-56.6c0-6.9 5.7-12.6 12.6-12.6h21.6c11.9 0 22.4-7.6 26.2-18.9 2.9-8.7 6.4-17.3 10.6-25.5 5.4-10.7 3.3-23.5-5.1-31.9l-15.3-15.3c-4.9-4.9-4.9-12.9 0-17.8l40-40c4.9-4.9 12.9-4.9 17.8 0l15.4 15.1c8.4 8.4 21.3 10.5 31.9 5.1 8.2-4.1 16.8-7.7 25.5-10.6 11.3-3.7 18.9-14.3 18.9-26.2v-21.6c0-6.9 5.7-12.6 12.6-12.6h55.6c6.2 0 11.6 4.6 12.5 10.7.1.4 0 .8-.2 1.2l-7.6 19.7c-1.5 3.9.4 8.2 4.3 9.7s8.2-.4 9.7-4.3l7.6-19.7c1.1-2.8 1.4-5.9 1-8.9-1.9-13.3-13.7-23.4-27.2-23.4h-55.6c-15.2 0-27.6 12.4-27.6 27.6v21.6c0 5.4-3.5 10.2-8.6 12-9.4 3.1-18.7 7-27.5 11.4-4.9 2.5-10.7 1.5-14.6-2.3l-15.4-15.3c-10.8-10.7-28.3-10.7-39 0l-40 40c-10.7 10.8-10.7 28.3 0 39l15.3 15.3c3.8 3.8 4.8 9.7 2.3 14.6-4.5 8.9-8.3 18.1-11.4 27.5-1.7 5.2-6.5 8.6-11.9 8.6h-21.7c-15.2 0-27.6 12.4-27.6 27.6v56.6c0 15.2 12.4 27.6 27.6 27.6h21.6c5.4 0 10.2 3.5 12 8.6 3.1 9.4 7 18.7 11.4 27.5 2.5 4.9 1.5 10.7-2.3 14.6l-15.4 15.5c-10.7 10.8-10.7 28.3 0 39l40 40c10.8 10.8 28.3 10.8 39 0l15.3-15.3c3.8-3.8 9.7-4.8 14.6-2.3 8.9 4.5 18.1 8.3 27.5 11.4 5.2 1.7 8.6 6.5 8.6 11.9v21.6c0 15.2 12.4 27.6 27.6 27.6h9.8c4.1 0 7.5-3.4 7.5-7.5s-3.2-7.4-7.3-7.4z" fill="url(#c)"/><path d="m265.1 363c-2.5-6.4-8.4-10.8-15.3-11.2-50.8-3-90.6-45.4-90.6-96.3 0-51 39.8-93.3 90.6-96.3 6.8-.4 12.8-4.8 15.2-11.1l24.5-63.3c1.5-3.9-.4-8.2-4.3-9.7s-8.2.4-9.7 4.3l-8 20.7c-3.9-.3-7.9-.5-11.9-.5-86.3 0-156.5 70.2-156.5 156.5 0 35.3 11.5 68.7 33.2 96.4 1.5 1.9 3.7 2.9 5.9 2.9 1.6 0 3.2-.5 4.6-1.6 3.3-2.6 3.8-7.3 1.3-10.5-19.7-25.1-30-55.2-30-87.2 0-78 63.5-141.5 141.5-141.5 2.1 0 4.1 0 6.2.1l-10.8 28c-.4.9-1.2 1.5-2.1 1.6-58.7 3.5-104.7 52.4-104.7 111.3s46 107.8 104.7 111.3c1 .1 1.8.7 2.2 1.6l11.1 29c-33.3 1.7-68.2-9.3-94.5-30.5-3.2-2.6-8-2-10.5 1.2-2.6 3.2-2 8 1.2 10.5 30.8 24.6 69.6 36.4 109.4 33.5l28 73c.2.4.2.8.1 1.2-.9 6.1-6.3 10.7-12.5 10.7h-10.8c-4.1 0-7.5 3.4-7.5 7.5s3.4 7.5 7.5 7.5h10.8c13.6 0 25.3-10.1 27.3-23.5.4-2.9.1-6-1-8.8z" fill="url(#d)"/></svg>