<?xml version="1.0" encoding="utf-8"?>
<!-- Generator: Adobe Illustrator 24.0.3, SVG Export Plug-In . SVG Version: 6.00 Build 0)  -->
<svg version="1.1" id="Layer_1" xmlns="http://www.w3.org/2000/svg" xmlns:xlink="http://www.w3.org/1999/xlink" x="0px" y="0px"
	 viewBox="0 0 406 306" style="enable-background:new 0 0 406 306;" xml:space="preserve">
<style type="text/css">
	.st0{opacity:0.18;fill:#4D6CC2;enable-background:new    ;}
	.st1{fill:url(#SVGID_1_);}
	.st2{fill:url(#SVGID_2_);}
	.st3{fill:#F5BBB9;}
	.st4{fill:#4D6CC2;}
	.st5{fill:url(#SVGID_3_);}
	.st6{fill:#FE9F24;}
	.st7{fill:#2E2E3F;}
	.st8{fill:url(#SVGID_4_);}
	.st9{fill:url(#SVGID_5_);}
	.st10{fill:url(#SVGID_6_);}
	.st11{fill:url(#SVGID_7_);}
	.st12{opacity:0.69;fill:url(#SVGID_8_);enable-background:new    ;}
	.st13{fill:none;stroke:#FFFFFF;stroke-width:0.6501;stroke-miterlimit:8.2289;}
	.st14{fill:url(#SVGID_9_);}
	.st15{fill:url(#SVGID_10_);}
</style>
<title>Thinking</title>
<path class="st0" d="M100.6,22.6c-23.2,19.3-36.9,49.1-38.2,79.2c-0.8,17.8,2.5,35.5,1.1,53.3c-2.6,32.9-21.2,65.6-11.9,97.2
	c9.5,32.5,45.6,50.5,79.4,53.2c33.8,2.7,67.4-5.8,101.3-7.1c18.4-0.7,37,0.8,55.3-1.2c18.4-1.9,37.1-7.7,50.3-20.6
	c13.2-12.9,19.3-31.5,19.3-49.8s-6-36.2-14.3-52.4c-8.8-17.1-20.6-33.2-24.7-52c-5.8-26.5,3.7-57.7-13.2-79
	c-10.4-13.2-27.9-18-44.2-22.2C233.6,14.3,205.9,4.6,178.1,1c-13.9-2-28.1-1-41.6,2.7C131.3,5.2,100.6,15.6,100.6,22.6z"/>
<radialGradient id="SVGID_1_" cx="217.66" cy="255.6386" r="42.55" gradientTransform="matrix(0.8229 0 0 -0.8229 76.0074 270.0468)" gradientUnits="userSpaceOnUse">
	<stop  offset="0" style="stop-color:#FFFFFF"/>
	<stop  offset="1" style="stop-color:#FFFFFF;stop-opacity:0"/>
</radialGradient>
<circle class="st1" cx="255.1" cy="59.7" r="52"/>
<linearGradient id="SVGID_2_" gradientUnits="userSpaceOnUse" x1="155.8126" y1="179.1685" x2="150.4726" y2="-133.5715" gradientTransform="matrix(0.8229 0 0 -0.8229 76.0074 270.0468)">
	<stop  offset="1.000000e-02" style="stop-color:#000000"/>
	<stop  offset="0.13" style="stop-color:#000000;stop-opacity:0.69"/>
	<stop  offset="1" style="stop-color:#000000;stop-opacity:0"/>
</linearGradient>
<ellipse class="st2" cx="202.1" cy="249.5" rx="119.5" ry="24.9"/>
<path class="st3" d="M254.8,250.9c0.2,0.8,0.7,1.5,1.3,2.1c0.6,0.4,1.3,0.7,2,0.8c2.5,0.4,5.8-2.1,5.4-3.5c-0.3-1.4,0.1-6.1-0.1-7.5
	c-0.1-0.6-0.2-1.2-0.5-1.8c-0.7-1.3-2.5-1.4-4-1.3c-2,0.2-5,0.8-5.6,3C252.8,245.2,254,248.7,254.8,250.9z"/>
<path class="st4" d="M177,114.2c-2.7,2-3.6,5.9-2.8,9.3c0.8,3.3,2.8,6.2,5,8.9c5.6,6.8,12.3,12.6,19.7,17.3c2.7,1.7,5.6,3.3,8.8,3.6
	c3.6,0.4,7.2-0.8,10.6-2c1.6-0.4,3.1-1.2,4.5-2.1c1.3-1.2,2.4-2.7,3-4.4c1.7-4.1,2.6-8.4,2.7-12.8c0.2-5.8-1-5.9-3-11.3
	c-1.5-4.1-4-8.9-8.2-7.7c-11.3,3.1-8,15.1-8,20.6c-3.7-4.4-10.6-10.6-14.9-14.4C190.9,115.9,181.7,110.7,177,114.2z"/>
<linearGradient id="SVGID_3_" gradientUnits="userSpaceOnUse" x1="184.5944" y1="155.705" x2="220.8244" y2="140.855" gradientTransform="matrix(0.8229 0 0 -0.8229 45.0832 254.634)">
	<stop  offset="1.000000e-02" style="stop-color:#000000"/>
	<stop  offset="0.13" style="stop-color:#000000;stop-opacity:0.69"/>
	<stop  offset="1" style="stop-color:#000000;stop-opacity:0"/>
</linearGradient>
<path class="st5" d="M177,114.2c-2.7,2-3.6,5.9-2.8,9.3c0.8,3.3,2.8,6.2,5,8.9c5.6,6.8,12.3,12.6,19.7,17.3c2.7,1.7,5.6,3.3,8.8,3.6
	c3.6,0.4,7.2-0.8,10.6-2c1.6-0.4,3.1-1.2,4.5-2.1c1.3-1.2,2.4-2.7,3-4.4c1.7-4.1,2.6-8.4,2.7-12.8c0.2-5.8-1-5.9-3-11.3
	c-1.5-4.1-4-8.9-8.2-7.7c-11.3,3.1-8,15.1-8,20.6c-3.7-4.4-10.6-10.6-14.9-14.4C190.9,115.9,181.7,110.7,177,114.2z"/>
<path class="st3" d="M212.3,96.5c-1.1,2-0.1,4.7-1.1,6.7c-0.6,1.1-1.6,1.9-2.8,2.4c-2,0.9-4.4,1-6.4,2c-1.8,0.9-3.2,2.3-3.9,4.1
	c-0.8,1.8-0.9,4-2.4,5.3c-1.7,1.6-4.5,1.3-6.7,0.7c-1.6-0.4-3.2-1.1-4.1-2.5c-0.5-0.9-0.7-2-0.6-3c0-2.5,0.7-5,1.2-7.4
	c0.7-3.5,0.9-7.2,1.8-10.7c0.8-3.5,2.3-7,5.1-9.4c2.7-2.4,8.7-8.5,12.2-7.9c3.3,0.6,4,7.9,5.9,10.7c0.6,1.1,1.2,2.2,1.6,3.3
	C213.3,93.2,213.6,94.1,212.3,96.5z"/>
<path class="st6" d="M207,78c-0.7,2.2-2.8,3.5-4.8,4.7c-2,1.2-4.1,2.6-4.6,4.8c-0.3,1.4,0,2.9-0.8,4.1c-0.3-0.6-0.6-1.2-1.1-1.6
	c-0.5-0.5-1.2-0.6-1.8-0.4c-0.7,0.4-1.1,1.1-1,1.8c0,1.7,1.2,3.1,2.8,3.4c-0.9,1.4-1.6,2.9-1.8,4.6c-0.2,1.7-0.1,3.6-1.2,4.9
	c-1.2,1.4-3.3,1.6-4.7,0.5c-0.2,0.6-0.7,1-1.2,1.3c-1.4-0.7-1.4-2.7-1.6-4.2c-0.7-4.1-4.6-7-5.8-11c-0.6-2.1-0.7-4.4-0.4-6.6
	c0-2.1,0.5-4.2,1.2-6.1c1.4-2.7,3.7-4.8,6.5-5.9c2.5-1,5.2-1.7,7.8-2.1c2.2-0.5,4.5-0.9,6.7-1.1C205.4,69,208.2,74.3,207,78z"/>
<path class="st7" d="M245.2,168.6c0.8,0,1.6,0.1,2.4,0.4c0.7,0.3,1.4,0.8,1.9,1.3c6.3,5.9,8.2,15,9.8,23.4
	c2.7,14.2,5.3,28.5,5.7,42.9c0.1,2.8,1.2,5.4-0.1,7.9c-1.3,2.5-7.4,2.8-10.1,1.8c-2.7-0.9-2-2-3.1-4.7c-2.2-5.4-5.3-10.3-8.4-15.3
	l-11.3-18c-1.8-2.9-3.7-5.8-6.5-7.8c-3.9-2.7-8.9-3.1-13.6-4c-4.7-0.9-9.8-2.7-11.9-7c-3.9-7.6,1.3-18,9.5-19
	C221.3,169.4,233.1,168.1,245.2,168.6z"/>
<linearGradient id="SVGID_4_" gradientUnits="userSpaceOnUse" x1="222.4258" y1="83.9067" x2="261.4658" y2="-3.4433" gradientTransform="matrix(0.8229 0 0 -0.8229 45.0832 254.634)">
	<stop  offset="1.000000e-02" style="stop-color:#000000"/>
	<stop  offset="0.13" style="stop-color:#000000;stop-opacity:0.69"/>
	<stop  offset="1" style="stop-color:#000000;stop-opacity:0"/>
</linearGradient>
<path class="st8" d="M245.2,168.6c0.8,0,1.6,0.1,2.4,0.4c0.7,0.3,1.4,0.8,1.9,1.3c6.3,5.9,8.2,15,9.8,23.4
	c2.7,14.2,5.3,28.5,5.7,42.9c0.1,2.8,0.6,5.3-0.7,7.8c-1.3,2.5-5.5,3.1-8.2,2.2c-2.7-0.9-3.4-2.2-4.5-4.9
	c-2.2-5.3-5.3-10.3-8.4-15.2l-11.3-18c-1.8-2.9-3.7-5.8-6.5-7.8c-3.9-2.7-8.9-3.1-13.6-4c-4.7-0.9-9.8-2.7-11.9-7
	c-3.9-7.6,1.3-18,9.5-19C221.3,169.4,233.1,168.1,245.2,168.6z"/>
<path class="st3" d="M258.5,215.2c0.1,0.9,0.4,1.8,0.8,2.6c1.1,2,3.6,2.8,5.9,2.8c1,0.1,1.9-0.1,2.8-0.6c1-0.6,1.7-1.7,2-2.8
	c0.2-1.2,0.3-2.4,0.2-3.5c-0.1-2.5-0.5-5.1-0.9-7.6c0-0.4-0.2-0.7-0.4-1c-0.5-0.6-1.5-0.4-2.3-0.2c-2,0.6-6.8,1.1-8.2,2.6
	C256.8,209.2,258.5,213.1,258.5,215.2z"/>
<path class="st7" d="M269.3,216.8c-1,0.3-2,0.7-3,1.1c-1.3,0.4-2.6,0.6-4,0.4c-1.4-0.2-3.2-0.7-4.1,0.4c-0.5,0.8-0.6,1.8-0.3,2.6
	c0.3,1.7,0.8,3.5,1.4,5.1c0.2,0.6,0.5,1.2,0.9,1.6c1,1.1,2.6,1.2,4.1,1.3c5.2,0.3,10.5,0.3,15.7,0c1.6-0.1,3.5-0.6,3.9-2.1
	c0.1-0.9-0.1-1.7-0.7-2.4c-1.6-2.5-4-4.1-6.6-5.4C274.5,218.3,271.9,216.3,269.3,216.8z"/>
<path class="st7" d="M263.1,249.3c-0.9,0.3-1.7,0.6-2.5,0.9c-1.1,0.4-2.3,0.5-3.4,0.3c-1.2-0.2-2.7-0.6-3.5,0.3
	c-0.4,0.7-0.5,1.5-0.3,2.3c0.3,1.5,0.7,2.9,1.2,4.4c0.2,0.5,0.4,1,0.8,1.4c0.8,0.9,2.2,1,3.5,1.1c4.5,0.3,9,0.3,13.4,0
	c1.3-0.1,3-0.5,3.3-1.8c0.1-0.7-0.1-1.5-0.6-2.1c-1.4-2-3.4-3.6-5.6-4.6C267.5,250.5,265.2,248.8,263.1,249.3z"/>
<path class="st4" d="M183.8,108.8c-6.1,2.5-10.4,8-13.7,13.7c-8,13.7-11.2,29.6-14.3,45.2c-0.6,3.2-1.3,6.5-1,9.8
	c0.1,1.4,0.4,2.8,0.9,4c2,4.8,7.4,7.4,12.6,7.7c4.6,0.3,9.1-0.8,13.7-1.5c3.8-0.5,7.7-0.7,11.4-1.6c3.7-0.9,7.4-2.7,9.7-5.8
	c2.7-3.6,3.2-8.3,3.5-12.7l2.1-24.1c0.6-7.2,1.2-14.8-1.6-21.5c-2-4.5-5.4-8.3-9.6-10.7C193.4,108.8,188.3,106.9,183.8,108.8z"/>
<linearGradient id="SVGID_5_" gradientUnits="userSpaceOnUse" x1="129.8923" y1="107.7039" x2="191.3723" y2="138.4439" gradientTransform="matrix(0.8229 0 0 -0.8229 45.0832 254.634)">
	<stop  offset="1.000000e-02" style="stop-color:#000000"/>
	<stop  offset="0.13" style="stop-color:#000000;stop-opacity:0.69"/>
	<stop  offset="1" style="stop-color:#000000;stop-opacity:0"/>
</linearGradient>
<path class="st9" d="M208.8,143.3l-0.4,4.9c-0.5,6.4-1.1,12.8-1.6,19.2c-0.3,3.3-0.6,6.7-1.8,9.7c-0.4,1.1-1,2.1-1.7,3.1
	c-2.3,3.1-6,4.9-9.7,5.8s-7.6,1.1-11.4,1.6c-4.6,0.7-9.1,1.8-13.7,1.5c-5.2-0.3-10.6-2.9-12.6-7.7c-0.5-1.3-0.8-2.7-0.9-4
	c-0.3-3.3,0.4-6.6,1-9.8c3.1-15.6,6.4-31.5,14.3-45.2c3.3-5.7,7.7-11.2,13.8-13.7c4.5-1.9,9.6,0.1,13.7,2.4
	c4.3,2.4,7.7,6.2,9.6,10.7C210,128.6,209.4,136.1,208.8,143.3z"/>
<linearGradient id="SVGID_6_" gradientUnits="userSpaceOnUse" x1="241.7475" y1="114.1864" x2="148.9675" y2="124.5864" gradientTransform="matrix(0.8229 0 0 -0.8229 45.0832 254.634)">
	<stop  offset="1.000000e-02" style="stop-color:#000000"/>
	<stop  offset="0.13" style="stop-color:#000000;stop-opacity:0.69"/>
	<stop  offset="1" style="stop-color:#000000;stop-opacity:0"/>
</linearGradient>
<path class="st10" d="M208.6,141.2c-0.1,2.3-0.2,4.7-0.3,7c-0.5,6.4-1.1,12.8-1.6,19.2c-0.3,3.3-0.6,6.7-1.8,9.7
	c-2.2,2.2-5.5,2.9-8.6,3.4c-0.5,0.2-1.1,0-1.4-0.5c-0.1-0.2-0.1-0.4-0.1-0.6c-0.6-7.6,2-15,2.5-22.6c0.3-5.5-0.4-10.9-2.3-16.1
	c-1-2.9-7.2-11.3-0.2-11c1.5,0.2,2.9,0.7,4.1,1.5c3,1.8,5.8,3.9,8.2,6.4c0.5,0.5,1,1.1,1.3,1.7C208.6,140,208.7,140.6,208.6,141.2z"
	/>
<path class="st3" d="M209.7,107.5c-0.4-0.8-0.3-1.8,0.1-2.6c0.5-0.5,1.2-0.9,1.9-1c1.1-0.3,2.3-0.6,3.4-0.8c0.5-0.1,1-0.2,1.6-0.2
	c1.3,0.1,2.2,1.2,3,2.1c0.9,0.9,1.6,2,2.1,3.2c0.3,1.1,0.4,2.3,0.3,3.5l-0.1,2.7c0,0.5-0.1,1-0.2,1.4c-0.2,0.5-0.6,0.9-1,1.3
	c-0.9,0.6-1.8,0.9-2.9,1c-1.2,0.1-2.9,0-3.7-1c-0.5-0.7-0.3-1.8-0.7-2.6C212.5,111.9,210.5,110,209.7,107.5z"/>
<path class="st7" d="M157.4,184.3h-0.3l0.2-1.1c-1.3,11.6,2.5,25.6,14.9,29c10.7,3,21,3.1,31.3-0.4c8.4-2.8,16.3-8.3,22.8-14.3
	c5.6-5.1,9.9-11.5,15.7-16.5c1.3,2.1,3.3,3.6,4.8,5.6c1.8,2.5,2,5.2,3,8c1.1,3,2.9,5.5,4.2,8.4c2.6,5.8,3.7,8.5,10.3,8.5
	c2.2,0,3.2,0.4,4.6-1.3c2.4-2.7,1.5-10.3,1.3-13.6c-0.6-11.4-2.3-23.4-6.3-34.2c-2.2-5.9-4.9-11.8-9.4-16.3
	c-6-6.1-12.8-3.6-19.3,0.2c-7.9,4.7-15,11.7-21.6,18.2c-2.7,2.7-4.5,5.1-7.7,7.3c-3.6,2.5-7.2,4.3-11,6.4
	C183.9,184.2,169.4,184.3,157.4,184.3z"/>
<path class="st4" d="M248.6,241.8c-0.1,1.1-0.3,2.2-0.6,3.3c-2.1,7.7-9.6,13-17.3,14.8c-7.8,1.8-15.9,0.8-23.8-0.2
	c-17.7-2.4-117.6-9.3-105.8-126.5c1.4-14.1,10-32.8,23.5-35.5c2.6-0.5,5.2-0.4,7.7,0.2c28,6.9,6.3,57,44.8,74.7
	c11.4,5.3,21,14.1,32.7,18.6c21,8.1,33.7,31.4,33.7,31.4C246.3,228.7,249.1,235.4,248.6,241.8z"/>
<path class="st3" d="M254.9,130.4c2.6,2.1,3.3,5.7,3.4,9.1c0.1,0.7-0.1,1.4-0.5,2c-0.3,0.3-0.6,0.5-0.9,0.7
	c-1.9,1.1-4.1,2.3-6.2,1.6c-1.8-0.6-3-2.5-4.8-3.2c-1.5-0.6-3.3-0.4-4.5-1.5c-0.5-0.5-0.8-1.2-1-1.9
	C238.2,128.2,249.3,125.7,254.9,130.4z"/>
<path class="st4" d="M216.4,125.9c0.9,0.8,1.9,1.4,3,1.9c1.2,0.3,2.4,0.4,3.7,0.3c7.1-0.6,14.3-2.9,21.2-1c1,0.2,1.9,0.7,2.6,1.4
	c0.6,0.8,0.9,1.8,0.8,2.8c0,4.9-4,9.1-8.4,11.3c-5.1,2.6-10.9,3.4-16.5,4.3c-3.8,0.6-7.7,1.1-11.6,0.8c-1.8-0.1-3.5-0.6-5-1.5
	c-33.5-24.2-21.8-27.8-19.5-34.7c1.2-3.6,16.1,3.6,19.6,6.4C209.7,120.6,213,123.2,216.4,125.9z"/>
<linearGradient id="SVGID_7_" gradientUnits="userSpaceOnUse" x1="73.8207" y1="3.6579" x2="206.2507" y2="136.7979" gradientTransform="matrix(0.8229 0 0 -0.8229 45.0832 254.634)">
	<stop  offset="1.000000e-02" style="stop-color:#000000"/>
	<stop  offset="0.13" style="stop-color:#000000;stop-opacity:0.69"/>
	<stop  offset="1" style="stop-color:#000000;stop-opacity:0"/>
</linearGradient>
<path class="st11" d="M248.6,241.8c-0.1,1.1-0.3,2.2-0.6,3.3c-2.1,7.7-9.6,13-17.3,14.8c-7.8,1.8-15.9,0.8-23.8-0.2
	c-17.7-2.4-117.6-9.3-105.8-126.5c1.4-14.1,10-32.8,23.5-35.5c0.6,3.7-2.6,8.1-3.9,12.1c-3.9,13-4.7,26.7-2.3,40
	c1.4,7.6,3.8,15,7.2,21.9c4.7,9.4,11.1,17.8,17.8,25.9c5,6.1,10.3,12.1,17.1,16.2c6.1,3.7,13.2,5.5,20.1,7c9.2,2,18.5,3.4,27.9,4.3
	c12.6,1.2,26.6,1.9,35.8,10.7C246.2,237.5,247.6,239.6,248.6,241.8z"/>
<path class="st4" d="M271.8,46.1c0,2.7-0.7,5.5-1.9,7.9l-7,17.5h-17.2L239.2,53c-1-2.2-1.5-4.5-1.5-6.9c0.2-9.4,8-16.9,17.4-16.7
	C264.2,29.6,271.6,37,271.8,46.1L271.8,46.1z"/>
<radialGradient id="SVGID_8_" cx="254.775" cy="248.3586" r="23.3923" gradientTransform="matrix(0.8229 0 0 -0.8229 45.0832 254.634)" gradientUnits="userSpaceOnUse">
	<stop  offset="0.34" style="stop-color:#FFFFFF"/>
	<stop  offset="1" style="stop-color:#FFFFFF;stop-opacity:0.39"/>
</radialGradient>
<path class="st12" d="M271.8,46.1c0,2.7-0.7,5.5-1.9,7.9l-7,17.5h-17.2L239.2,53c-1-2.2-1.5-4.5-1.5-6.9c0.2-9.4,8-16.9,17.4-16.7
	C264.2,29.6,271.6,37,271.8,46.1L271.8,46.1z"/>
<path class="st13" d="M251.9,71.8c-2.5-5.2-3.8-11-3.9-16.8c0-1.3,0.2-2.8,1.3-3.5c1.4-0.8,3.1,0.4,3.9,1.8c1,1.9,1.1,4,0.4,6
	c-0.8-1.2-1.3-2.6-1.3-4.1c-0.2-1.1-0.1-2.2,0.2-3.2c0.3-1.1,1.3-1.8,2.4-2c1.6-0.1,2.8,1.8,2.9,3.5c0.2,1.9-0.2,3.8-1.2,5.4
	c-0.7-2.2-0.2-4.6,1.3-6.3c0.5-0.6,1.2-1,1.9-1.2c0.8-0.2,1.6,0.1,2,0.7c0.2,0.4,0.4,0.8,0.4,1.2c0.4,3.1-0.7,6.3-2,9.2
	s-3,5.6-3.8,8.7"/>
<path class="st4" d="M246.3,71.3h15.4c1.1,0,1.9,0.9,1.9,1.9v5.4c0,1.1-0.9,1.9-1.9,1.9h-15.4c-1.1,0-1.9-0.9-1.9-1.9v-5.4
	C244.4,72.1,245.3,71.3,246.3,71.3z"/>
<linearGradient id="SVGID_9_" gradientUnits="userSpaceOnUse" x1="204.66" y1="235.9536" x2="228.11" y2="235.9536" gradientTransform="matrix(0.8229 0 0 -0.8229 76.0074 270.0468)">
	<stop  offset="1.000000e-02" style="stop-color:#000000"/>
	<stop  offset="0.13" style="stop-color:#000000;stop-opacity:0.69"/>
	<stop  offset="1" style="stop-color:#000000;stop-opacity:0"/>
</linearGradient>
<path class="st14" d="M246.3,71.3h15.4c1.1,0,1.9,0.9,1.9,1.9v5.4c0,1.1-0.9,1.9-1.9,1.9h-15.4c-1.1,0-1.9-0.9-1.9-1.9v-5.4
	C244.4,72.1,245.3,71.3,246.3,71.3z"/>
<path class="st4" d="M245,74.3h18.4c0.9,0,1.6,0.7,1.6,1.6v0.1c0,0.9-0.7,1.6-1.6,1.6H245c-0.9,0-1.6-0.7-1.6-1.6v-0.1
	C243.4,75.1,244.1,74.3,245,74.3z"/>
<linearGradient id="SVGID_10_" gradientUnits="userSpaceOnUse" x1="203.41" y1="235.8086" x2="229.63" y2="235.8086" gradientTransform="matrix(0.8229 0 0 -0.8229 76.0074 270.0468)">
	<stop  offset="1.000000e-02" style="stop-color:#000000"/>
	<stop  offset="0.13" style="stop-color:#000000;stop-opacity:0.69"/>
	<stop  offset="1" style="stop-color:#000000;stop-opacity:0"/>
</linearGradient>
<path class="st15" d="M245,74.3h18.4c0.9,0,1.6,0.7,1.6,1.6v0.1c0,0.9-0.7,1.6-1.6,1.6H245c-0.9,0-1.6-0.7-1.6-1.6v-0.1
	C243.4,75.1,244.1,74.3,245,74.3z"/>
</svg>
