<svg enable-background="new 0 0 406 306" viewBox="0 0 406 306" xmlns="http://www.w3.org/2000/svg" xmlns:xlink="http://www.w3.org/1999/xlink"><radialGradient id="a" cx="217.66" cy="255.6386" gradientTransform="matrix(.8229 0 0 -.8229 76.0074 270.0468)" gradientUnits="userSpaceOnUse" r="42.55"><stop offset="0" stop-color="#fff"/><stop offset="1" stop-color="#fff" stop-opacity="0"/></radialGradient><linearGradient id="b"><stop offset=".01"/><stop offset=".13" stop-opacity=".69"/><stop offset="1" stop-opacity="0"/></linearGradient><linearGradient id="c" gradientTransform="matrix(.8229 0 0 -.8229 76.0074 270.0468)" gradientUnits="userSpaceOnUse" x1="155.8126" x2="150.4726" xlink:href="#b" y1="179.1685" y2="-133.5715"/><linearGradient id="d" gradientTransform="matrix(.8229 0 0 -.8229 45.0832 254.634)" gradientUnits="userSpaceOnUse" x1="184.5944" x2="220.8244" xlink:href="#b" y1="155.705" y2="140.855"/><linearGradient id="e" gradientTransform="matrix(.8229 0 0 -.8229 45.0832 254.634)" gradientUnits="userSpaceOnUse" x1="222.4258" x2="261.4658" xlink:href="#b" y1="83.9067" y2="-3.4433"/><linearGradient id="f" gradientTransform="matrix(.8229 0 0 -.8229 45.0832 254.634)" gradientUnits="userSpaceOnUse" x1="129.8923" x2="191.3723" xlink:href="#b" y1="107.7039" y2="138.4439"/><linearGradient id="g" gradientTransform="matrix(.8229 0 0 -.8229 45.0832 254.634)" gradientUnits="userSpaceOnUse" x1="241.7475" x2="148.9675" xlink:href="#b" y1="114.1864" y2="124.5864"/><linearGradient id="h" gradientTransform="matrix(.8229 0 0 -.8229 45.0832 254.634)" gradientUnits="userSpaceOnUse" x1="73.8207" x2="206.2507" xlink:href="#b" y1="3.6579" y2="136.7979"/><radialGradient id="i" cx="254.775" cy="248.3586" gradientTransform="matrix(.8229 0 0 -.8229 45.0832 254.634)" gradientUnits="userSpaceOnUse" r="23.3923"><stop offset=".34" stop-color="#fff"/><stop offset="1" stop-color="#fff" stop-opacity=".39"/></radialGradient><linearGradient id="j" gradientTransform="matrix(.8229 0 0 -.8229 76.0074 270.0468)" gradientUnits="userSpaceOnUse" x1="204.66" x2="228.11" xlink:href="#b" y1="235.9536" y2="235.9536"/><linearGradient id="k" gradientTransform="matrix(.8229 0 0 -.8229 76.0074 270.0468)" gradientUnits="userSpaceOnUse" x1="203.41" x2="229.63" xlink:href="#b" y1="235.8086" y2="235.8086"/><path d="m100.6 22.6c-23.2 19.3-36.9 49.1-38.2 79.2-.8 17.8 2.5 35.5 1.1 53.3-2.6 32.9-21.2 65.6-11.9 97.2 9.5 32.5 45.6 50.5 79.4 53.2s67.4-5.8 101.3-7.1c18.4-.7 37 .8 55.3-1.2 18.4-1.9 37.1-7.7 50.3-20.6s19.3-31.5 19.3-49.8-6-36.2-14.3-52.4c-8.8-17.1-20.6-33.2-24.7-52-5.8-26.5 3.7-57.7-13.2-79-10.4-13.2-27.9-18-44.2-22.2-27.2-6.9-54.9-16.6-82.7-20.2-13.9-2-28.1-1-41.6 2.7-5.2 1.5-35.9 11.9-35.9 18.9z" fill="#4d6cc2" opacity=".18"/><circle cx="255.1" cy="59.7" fill="url(#a)" r="52"/><ellipse cx="202.1" cy="249.5" fill="url(#c)" rx="119.5" ry="24.9"/><path d="m254.8 250.9c.2.8.7 1.5 1.3 2.1.6.4 1.3.7 2 .8 2.5.4 5.8-2.1 5.4-3.5-.3-1.4.1-6.1-.1-7.5-.1-.6-.2-1.2-.5-1.8-.7-1.3-2.5-1.4-4-1.3-2 .2-5 .8-5.6 3-.5 2.5.7 6 1.5 8.2z" fill="#f5bbb9"/><path d="m177 114.2c-2.7 2-3.6 5.9-2.8 9.3.8 3.3 2.8 6.2 5 8.9 5.6 6.8 12.3 12.6 19.7 17.3 2.7 1.7 5.6 3.3 8.8 3.6 3.6.4 7.2-.8 10.6-2 1.6-.4 3.1-1.2 4.5-2.1 1.3-1.2 2.4-2.7 3-4.4 1.7-4.1 2.6-8.4 2.7-12.8.2-5.8-1-5.9-3-11.3-1.5-4.1-4-8.9-8.2-7.7-11.3 3.1-8 15.1-8 20.6-3.7-4.4-10.6-10.6-14.9-14.4-3.5-3.3-12.7-8.5-17.4-5z" fill="#4d6cc2"/><path d="m177 114.2c-2.7 2-3.6 5.9-2.8 9.3.8 3.3 2.8 6.2 5 8.9 5.6 6.8 12.3 12.6 19.7 17.3 2.7 1.7 5.6 3.3 8.8 3.6 3.6.4 7.2-.8 10.6-2 1.6-.4 3.1-1.2 4.5-2.1 1.3-1.2 2.4-2.7 3-4.4 1.7-4.1 2.6-8.4 2.7-12.8.2-5.8-1-5.9-3-11.3-1.5-4.1-4-8.9-8.2-7.7-11.3 3.1-8 15.1-8 20.6-3.7-4.4-10.6-10.6-14.9-14.4-3.5-3.3-12.7-8.5-17.4-5z" fill="url(#d)"/><path d="m212.3 96.5c-1.1 2-.1 4.7-1.1 6.7-.6 1.1-1.6 1.9-2.8 2.4-2 .9-4.4 1-6.4 2-1.8.9-3.2 2.3-3.9 4.1-.8 1.8-.9 4-2.4 5.3-1.7 1.6-4.5 1.3-6.7.7-1.6-.4-3.2-1.1-4.1-2.5-.5-.9-.7-2-.6-3 0-2.5.7-5 1.2-7.4.7-3.5.9-7.2 1.8-10.7.8-3.5 2.3-7 5.1-9.4 2.7-2.4 8.7-8.5 12.2-7.9 3.3.6 4 7.9 5.9 10.7.6 1.1 1.2 2.2 1.6 3.3 1.2 2.4 1.5 3.3.2 5.7z" fill="#f5bbb9"/><path d="m207 78c-.7 2.2-2.8 3.5-4.8 4.7s-4.1 2.6-4.6 4.8c-.3 1.4 0 2.9-.8 4.1-.3-.6-.6-1.2-1.1-1.6-.5-.5-1.2-.6-1.8-.4-.7.4-1.1 1.1-1 1.8 0 1.7 1.2 3.1 2.8 3.4-.9 1.4-1.6 2.9-1.8 4.6s-.1 3.6-1.2 4.9c-1.2 1.4-3.3 1.6-4.7.5-.2.6-.7 1-1.2 1.3-1.4-.7-1.4-2.7-1.6-4.2-.7-4.1-4.6-7-5.8-11-.6-2.1-.7-4.4-.4-6.6 0-2.1.5-4.2 1.2-6.1 1.4-2.7 3.7-4.8 6.5-5.9 2.5-1 5.2-1.7 7.8-2.1 2.2-.5 4.5-.9 6.7-1.1 4.2-.1 7 5.2 5.8 8.9z" fill="#fe9f24"/><path d="m245.2 168.6c.8 0 1.6.1 2.4.4.7.3 1.4.8 1.9 1.3 6.3 5.9 8.2 15 9.8 23.4 2.7 14.2 5.3 28.5 5.7 42.9.1 2.8 1.2 5.4-.1 7.9s-7.4 2.8-10.1 1.8c-2.7-.9-2-2-3.1-4.7-2.2-5.4-5.3-10.3-8.4-15.3l-11.3-18c-1.8-2.9-3.7-5.8-6.5-7.8-3.9-2.7-8.9-3.1-13.6-4s-9.8-2.7-11.9-7c-3.9-7.6 1.3-18 9.5-19 11.8-1.1 23.6-2.4 35.7-1.9z" fill="#2e2e3f"/><path d="m245.2 168.6c.8 0 1.6.1 2.4.4.7.3 1.4.8 1.9 1.3 6.3 5.9 8.2 15 9.8 23.4 2.7 14.2 5.3 28.5 5.7 42.9.1 2.8.6 5.3-.7 7.8s-5.5 3.1-8.2 2.2-3.4-2.2-4.5-4.9c-2.2-5.3-5.3-10.3-8.4-15.2l-11.3-18c-1.8-2.9-3.7-5.8-6.5-7.8-3.9-2.7-8.9-3.1-13.6-4s-9.8-2.7-11.9-7c-3.9-7.6 1.3-18 9.5-19 11.9-1.3 23.7-2.6 35.8-2.1z" fill="url(#e)"/><path d="m258.5 215.2c.1.9.4 1.8.8 2.6 1.1 2 3.6 2.8 5.9 2.8 1 .1 1.9-.1 2.8-.6 1-.6 1.7-1.7 2-2.8.2-1.2.3-2.4.2-3.5-.1-2.5-.5-5.1-.9-7.6 0-.4-.2-.7-.4-1-.5-.6-1.5-.4-2.3-.2-2 .6-6.8 1.1-8.2 2.6-1.6 1.7.1 5.6.1 7.7z" fill="#f5bbb9"/><path d="m269.3 216.8c-1 .3-2 .7-3 1.1-1.3.4-2.6.6-4 .4s-3.2-.7-4.1.4c-.5.8-.6 1.8-.3 2.6.3 1.7.8 3.5 1.4 5.1.2.6.5 1.2.9 1.6 1 1.1 2.6 1.2 4.1 1.3 5.2.3 10.5.3 15.7 0 1.6-.1 3.5-.6 3.9-2.1.1-.9-.1-1.7-.7-2.4-1.6-2.5-4-4.1-6.6-5.4-2.1-1.1-4.7-3.1-7.3-2.6z" fill="#2e2e3f"/><path d="m263.1 249.3c-.9.3-1.7.6-2.5.9-1.1.4-2.3.5-3.4.3-1.2-.2-2.7-.6-3.5.3-.4.7-.5 1.5-.3 2.3.3 1.5.7 2.9 1.2 4.4.2.5.4 1 .8 1.4.8.9 2.2 1 3.5 1.1 4.5.3 9 .3 13.4 0 1.3-.1 3-.5 3.3-1.8.1-.7-.1-1.5-.6-2.1-1.4-2-3.4-3.6-5.6-4.6-1.9-1-4.2-2.7-6.3-2.2z" fill="#2e2e3f"/><path d="m183.8 108.8c-6.1 2.5-10.4 8-13.7 13.7-8 13.7-11.2 29.6-14.3 45.2-.6 3.2-1.3 6.5-1 9.8.1 1.4.4 2.8.9 4 2 4.8 7.4 7.4 12.6 7.7 4.6.3 9.1-.8 13.7-1.5 3.8-.5 7.7-.7 11.4-1.6s7.4-2.7 9.7-5.8c2.7-3.6 3.2-8.3 3.5-12.7l2.1-24.1c.6-7.2 1.2-14.8-1.6-21.5-2-4.5-5.4-8.3-9.6-10.7-4.1-2.5-9.2-4.4-13.7-2.5z" fill="#4d6cc2"/><path d="m208.8 143.3-.4 4.9c-.5 6.4-1.1 12.8-1.6 19.2-.3 3.3-.6 6.7-1.8 9.7-.4 1.1-1 2.1-1.7 3.1-2.3 3.1-6 4.9-9.7 5.8s-7.6 1.1-11.4 1.6c-4.6.7-9.1 1.8-13.7 1.5-5.2-.3-10.6-2.9-12.6-7.7-.5-1.3-.8-2.7-.9-4-.3-3.3.4-6.6 1-9.8 3.1-15.6 6.4-31.5 14.3-45.2 3.3-5.7 7.7-11.2 13.8-13.7 4.5-1.9 9.6.1 13.7 2.4 4.3 2.4 7.7 6.2 9.6 10.7 2.6 6.8 2 14.3 1.4 21.5z" fill="url(#f)"/><path d="m208.6 141.2c-.1 2.3-.2 4.7-.3 7-.5 6.4-1.1 12.8-1.6 19.2-.3 3.3-.6 6.7-1.8 9.7-2.2 2.2-5.5 2.9-8.6 3.4-.5.2-1.1 0-1.4-.5-.1-.2-.1-.4-.1-.6-.6-7.6 2-15 2.5-22.6.3-5.5-.4-10.9-2.3-16.1-1-2.9-7.2-11.3-.2-11 1.5.2 2.9.7 4.1 1.5 3 1.8 5.8 3.9 8.2 6.4.5.5 1 1.1 1.3 1.7.2.7.3 1.3.2 1.9z" fill="url(#g)"/><path d="m209.7 107.5c-.4-.8-.3-1.8.1-2.6.5-.5 1.2-.9 1.9-1 1.1-.3 2.3-.6 3.4-.8.5-.1 1-.2 1.6-.2 1.3.1 2.2 1.2 3 2.1.9.9 1.6 2 2.1 3.2.3 1.1.4 2.3.3 3.5l-.1 2.7c0 .5-.1 1-.2 1.4-.2.5-.6.9-1 1.3-.9.6-1.8.9-2.9 1-1.2.1-2.9 0-3.7-1-.5-.7-.3-1.8-.7-2.6-1-2.6-3-4.5-3.8-7z" fill="#f5bbb9"/><path d="m157.4 184.3h-.3l.2-1.1c-1.3 11.6 2.5 25.6 14.9 29 10.7 3 21 3.1 31.3-.4 8.4-2.8 16.3-8.3 22.8-14.3 5.6-5.1 9.9-11.5 15.7-16.5 1.3 2.1 3.3 3.6 4.8 5.6 1.8 2.5 2 5.2 3 8 1.1 3 2.9 5.5 4.2 8.4 2.6 5.8 3.7 8.5 10.3 8.5 2.2 0 3.2.4 4.6-1.3 2.4-2.7 1.5-10.3 1.3-13.6-.6-11.4-2.3-23.4-6.3-34.2-2.2-5.9-4.9-11.8-9.4-16.3-6-6.1-12.8-3.6-19.3.2-7.9 4.7-15 11.7-21.6 18.2-2.7 2.7-4.5 5.1-7.7 7.3-3.6 2.5-7.2 4.3-11 6.4-11 6-25.5 6.1-37.5 6.1z" fill="#2e2e3f"/><path d="m248.6 241.8c-.1 1.1-.3 2.2-.6 3.3-2.1 7.7-9.6 13-17.3 14.8-7.8 1.8-15.9.8-23.8-.2-17.7-2.4-117.6-9.3-105.8-126.5 1.4-14.1 10-32.8 23.5-35.5 2.6-.5 5.2-.4 7.7.2 28 6.9 6.3 57 44.8 74.7 11.4 5.3 21 14.1 32.7 18.6 21 8.1 33.7 31.4 33.7 31.4 2.8 6.1 5.6 12.8 5.1 19.2z" fill="#4d6cc2"/><path d="m254.9 130.4c2.6 2.1 3.3 5.7 3.4 9.1.1.7-.1 1.4-.5 2-.3.3-.6.5-.9.7-1.9 1.1-4.1 2.3-6.2 1.6-1.8-.6-3-2.5-4.8-3.2-1.5-.6-3.3-.4-4.5-1.5-.5-.5-.8-1.2-1-1.9-2.2-9 8.9-11.5 14.5-6.8z" fill="#f5bbb9"/><path d="m216.4 125.9c.9.8 1.9 1.4 3 1.9 1.2.3 2.4.4 3.7.3 7.1-.6 14.3-2.9 21.2-1 1 .2 1.9.7 2.6 1.4.6.8.9 1.8.8 2.8 0 4.9-4 9.1-8.4 11.3-5.1 2.6-10.9 3.4-16.5 4.3-3.8.6-7.7 1.1-11.6.8-1.8-.1-3.5-.6-5-1.5-33.5-24.2-21.8-27.8-19.5-34.7 1.2-3.6 16.1 3.6 19.6 6.4 3.4 2.7 6.7 5.3 10.1 8z" fill="#4d6cc2"/><path d="m248.6 241.8c-.1 1.1-.3 2.2-.6 3.3-2.1 7.7-9.6 13-17.3 14.8-7.8 1.8-15.9.8-23.8-.2-17.7-2.4-117.6-9.3-105.8-126.5 1.4-14.1 10-32.8 23.5-35.5.6 3.7-2.6 8.1-3.9 12.1-3.9 13-4.7 26.7-2.3 40 1.4 7.6 3.8 15 7.2 21.9 4.7 9.4 11.1 17.8 17.8 25.9 5 6.1 10.3 12.1 17.1 16.2 6.1 3.7 13.2 5.5 20.1 7 9.2 2 18.5 3.4 27.9 4.3 12.6 1.2 26.6 1.9 35.8 10.7 1.9 1.7 3.3 3.8 4.3 6z" fill="url(#h)"/><path d="m271.8 46.1c0 2.7-.7 5.5-1.9 7.9l-7 17.5h-17.2l-6.5-18.5c-1-2.2-1.5-4.5-1.5-6.9.2-9.4 8-16.9 17.4-16.7 9.1.2 16.5 7.6 16.7 16.7z" fill="#4d6cc2"/><path d="m271.8 46.1c0 2.7-.7 5.5-1.9 7.9l-7 17.5h-17.2l-6.5-18.5c-1-2.2-1.5-4.5-1.5-6.9.2-9.4 8-16.9 17.4-16.7 9.1.2 16.5 7.6 16.7 16.7z" fill="url(#i)" opacity=".69"/><path d="m251.9 71.8c-2.5-5.2-3.8-11-3.9-16.8 0-1.3.2-2.8 1.3-3.5 1.4-.8 3.1.4 3.9 1.8 1 1.9 1.1 4 .4 6-.8-1.2-1.3-2.6-1.3-4.1-.2-1.1-.1-2.2.2-3.2.3-1.1 1.3-1.8 2.4-2 1.6-.1 2.8 1.8 2.9 3.5.2 1.9-.2 3.8-1.2 5.4-.7-2.2-.2-4.6 1.3-6.3.5-.6 1.2-1 1.9-1.2.8-.2 1.6.1 2 .7.2.4.4.8.4 1.2.4 3.1-.7 6.3-2 9.2s-3 5.6-3.8 8.7" fill="none" stroke="#fff" stroke-miterlimit="8.2289" stroke-width=".6501"/><path d="m246.3 71.3h15.4c1.1 0 1.9.9 1.9 1.9v5.4c0 1.1-.9 1.9-1.9 1.9h-15.4c-1.1 0-1.9-.9-1.9-1.9v-5.4c0-1.1.9-1.9 1.9-1.9z" fill="#4d6cc2"/><path d="m246.3 71.3h15.4c1.1 0 1.9.9 1.9 1.9v5.4c0 1.1-.9 1.9-1.9 1.9h-15.4c-1.1 0-1.9-.9-1.9-1.9v-5.4c0-1.1.9-1.9 1.9-1.9z" fill="url(#j)"/><path d="m245 74.3h18.4c.9 0 1.6.7 1.6 1.6v.1c0 .9-.7 1.6-1.6 1.6h-18.4c-.9 0-1.6-.7-1.6-1.6v-.1c0-.8.7-1.6 1.6-1.6z" fill="#4d6cc2"/><path d="m245 74.3h18.4c.9 0 1.6.7 1.6 1.6v.1c0 .9-.7 1.6-1.6 1.6h-18.4c-.9 0-1.6-.7-1.6-1.6v-.1c0-.8.7-1.6 1.6-1.6z" fill="url(#k)"/></svg>