<svg enable-background="new 0 0 512 512" viewBox="0 0 512 512" xmlns="http://www.w3.org/2000/svg" xmlns:xlink="http://www.w3.org/1999/xlink"><linearGradient id="a"><stop offset="0" stop-color="#4cb5ea"/><stop offset="1" stop-color="#5a6cdd"/></linearGradient><linearGradient id="b" gradientUnits="userSpaceOnUse" x1="220.2528" x2="236.2528" xlink:href="#a" y1="1.9001" y2="512.9001"/><linearGradient id="c" gradientUnits="userSpaceOnUse" x1="277.2906" x2="293.2906" xlink:href="#a" y1=".1142" y2="511.1142"/><linearGradient id="d" gradientUnits="userSpaceOnUse" x1="246.2649" x2="262.2649" xlink:href="#a" y1="1.0856" y2="512.0856"/><linearGradient id="e" gradientUnits="userSpaceOnUse" x1="294.2179" x2="310.2179" xlink:href="#a" y1="-.4158" y2="510.5842"/><linearGradient id="f" gradientUnits="userSpaceOnUse" x1="342.1709" x2="358.1709" xlink:href="#a" y1="-1.9173" y2="509.0827"/><linearGradient id="g" gradientUnits="userSpaceOnUse" x1="51.3188" x2="67.3188" xlink:href="#a" y1="7.1896" y2="518.1896"/><linearGradient id="h" gradientUnits="userSpaceOnUse" x1="445.5161" x2="461.5161" xlink:href="#a" y1="-5.1531" y2="505.8469"/><path d="m370.9 102.1c-.1-2.3-1.2-4.4-2.9-5.8-26.9-22.3-59.8-36-94.5-39.4-5.8-.6-11.6-.9-17.4-.9h-.1s-.1 0-.1 0c-5.8 0-11.7.3-17.4.9-52.8 5.2-100.5 34-129.5 78.5l-.1.1c-42.4 64.4-37.8 149 11.4 208.5 1.4 1.7 3.5 2.8 5.8 2.9h.4c2.1 0 4.2-.8 5.7-2.3l236.5-236.5c1.5-1.6 2.3-3.8 2.2-6zm-140.8 121.9h-49.1c.7-20.4 4-40.7 9.9-60.2 19 2.5 38 3.8 57.1 4.2v38.1zm-133.9 0c1.3-26.5 9.1-52.2 22.9-74.9 18.3 5.2 37 9.3 55.8 12.3-5.9 20.3-9.3 41.4-9.9 62.5h-68.8zm146.8-151.5c1.7-.1 3.3-.3 5-.3v79.7c-17.3-.3-34.7-1.5-51.9-3.6 10.6-28 26.6-53.8 46.9-75.8zm-28.9 167.5-30.1 30.1c-1.6-10-2.6-20-3-30.1zm49.9-72.1c7.7-.1 15.3-.4 23-.9l-23 23zm40.5-18.3c-13.4 1.3-27 2.1-40.5 2.3v-79.7c1.7.1 3.3.2 5 .3 18.6 20.1 33.4 43.3 44 68.5zm-85.8-73.2c-16.6 21-29.7 44.5-38.8 69.7-17.3-2.7-34.4-6.3-51.3-10.9 22.3-29.5 54.2-50.3 90.1-58.8zm-91.5 250.5c-18.6-25.3-29.4-55.5-31-86.9h68.7c.5 14.7 2.2 29.4 5.3 43.9zm198-198c-8.4-18.8-19.1-36.4-31.9-52.5 20.8 5 40.4 14.1 57.6 26.8z" fill="url(#b)"/><path d="m403.2 135.4c-3.5-5.4-7.3-10.5-11.4-15.5-2.8-3.4-7.9-3.9-11.3-1.1-.2.2-.4.3-.6.5l-236.5 236.6c-3.1 3.1-3.1 8.2 0 11.3.2.2.4.3.6.5 26.9 22.3 59.8 36 94.5 39.4 11.2 1.1 22.4 1.2 33.6.1v40.8c0 4.4 3.6 8 8 8 2.2 0 4.4-.9 5.9-2.6l71.7-77.7c77.3-54.8 97.5-161 45.5-240.3zm-55.5 227.7c-.5.3-.9.7-1.3 1.1l-58.4 63.3v-29.2c0-4.4-3.6-8-8-8-.4 0-.8 0-1.1.1-2.4.3-4.7.6-6.9.8-10.6 1.1-21.3 1.1-32 0-28.6-2.8-55.8-13.3-78.9-30.4l223.7-223.7c1.7 2.3 3.4 4.7 5 7.1 47.4 72.4 28.8 169.3-42.1 218.9z" fill="url(#c)"/><circle cx="256" cy="312" fill="url(#d)" r="16"/><circle cx="304" cy="312" fill="url(#e)" r="16"/><circle cx="352" cy="312" fill="url(#f)" r="16"/><path d="m80 340.1c-4.4-.5-8.4 2.6-8.9 6.9l-.7 5.4c-58.9-83-49.1-196.5 23.2-268.2 3.2-3.1 3.2-8.2.1-11.3s-8.2-3.2-11.3-.1c-77.7 77-88.5 198.8-25.4 288.2l-6.8-1c-4.4-.6-8.4 2.4-9.1 6.7s2.4 8.4 6.7 9.1l27 4c4.4.6 8.4-2.4 9.1-6.7 0-.1 0-.1 0-.2l3-24c.6-4.3-2.5-8.3-6.9-8.8z" fill="url(#g)"/><path d="m454.5 96c4.4 0 8-3.6 8-8s-3.6-8-8-8h-24c-4.4 0-8 3.6-8 8v24c0 4.4 3.6 8 8 8s8-3.6 8-8v-2.6c60.2 82.5 51.6 196.5-20.2 269-3.1 3.1-3.1 8.2.1 11.3 3.1 3.1 8.2 3.1 11.3-.1 78.7-79.5 86.7-204.8 18.8-293.6z" fill="url(#h)"/></svg>