<?xml version="1.0" encoding="UTF-8"?>
<svg width="25px" height="28px" viewBox="0 0 25 28" version="1.1" xmlns="http://www.w3.org/2000/svg" xmlns:xlink="http://www.w3.org/1999/xlink">
    <title>trash</title>
    <defs>
        <linearGradient x1="50%" y1="0%" x2="50%" y2="100%" id="linearGradient-1">
            <stop stop-color="#8ADDF7" offset="0%"></stop>
            <stop stop-color="#5B70DC" offset="100%"></stop>
        </linearGradient>
        <linearGradient x1="50%" y1="0%" x2="50%" y2="100%" id="linearGradient-2">
            <stop stop-color="#8ADDF7" offset="0%"></stop>
            <stop stop-color="#5B70DC" offset="100%"></stop>
        </linearGradient>
    </defs>
    <g id="Page-1" stroke="none" stroke-width="1" fill="none" fill-rule="evenodd">
        <g id="announcement-editing-desktop" transform="translate(-1111.000000, -1027.000000)" fill-rule="nonzero">
            <g id="trash" transform="translate(1111.800000, 1027.000000)">
                <path d="M20.9884615,3.5 L16.1230769,3.5 L16.1230769,2.625 C16.1230769,1.17758594 14.9325505,0 13.4692308,0 L9.93076923,0 C8.46744952,0 7.27692308,1.17758594 7.27692308,2.625 L7.27692308,3.5 L2.41153846,3.5 C1.19209615,3.5 0.2,4.4813125 0.2,5.6875 L0.2,8.75 C0.2,9.23321875 0.596086538,9.625 1.08461538,9.625 L1.56805769,9.625 L2.3323101,25.4998516 C2.39981731,26.9018203 3.56419231,28 4.98311538,28 L18.4168846,28 C19.835863,28 21.000238,26.9018203 21.0676899,25.4998516 L21.8319423,9.625 L22.3153846,9.625 C22.8039135,9.625 23.2,9.23321875 23.2,8.75 L23.2,5.6875 C23.2,4.4813125 22.2079038,3.5 20.9884615,3.5 Z M9.04615385,2.625 C9.04615385,2.14254687 9.44301442,1.75 9.93076923,1.75 L13.4692308,1.75 C13.9569856,1.75 14.3538462,2.14254687 14.3538462,2.625 L14.3538462,3.5 L9.04615385,3.5 L9.04615385,2.625 Z M1.96923077,5.6875 C1.96923077,5.44627344 2.16766106,5.25 2.41153846,5.25 L20.9884615,5.25 C21.2323389,5.25 21.4307692,5.44627344 21.4307692,5.6875 L21.4307692,7.875 C21.1581418,7.875 3.0989399,7.875 1.96923077,7.875 L1.96923077,5.6875 Z M19.3004495,25.4166172 C19.2779471,25.8839219 18.8898221,26.25 18.4168846,26.25 L4.98311538,26.25 C4.5101226,26.25 4.1219976,25.8839219 4.09955048,25.4166172 L3.33927885,9.625 L20.0607212,9.625 L19.3004495,25.4166172 Z" id="Shape" fill="url(#linearGradient-1)"></path>
                <path d="M11.95,25 C12.3641875,25 12.7,24.61195 12.7,24.1333333 L12.7,12.8666667 C12.7,12.38805 12.3641875,12 11.95,12 C11.5358125,12 11.2,12.38805 11.2,12.8666667 L11.2,24.1333333 C11.2,24.61195 11.5357656,25 11.95,25 Z" id="Path" fill="url(#linearGradient-2)"></path>
                <path d="M14.95,25 C15.3641875,25 15.7,24.61195 15.7,24.1333333 L15.7,12.8666667 C15.7,12.38805 15.3641875,12 14.95,12 C14.5358125,12 14.2,12.38805 14.2,12.8666667 L14.2,24.1333333 C14.2,24.61195 14.5357656,25 14.95,25 Z" id="Path" fill="url(#linearGradient-2)"></path>
                <path d="M8.95,25 C9.3641875,25 9.7,24.61195 9.7,24.1333333 L9.7,12.8666667 C9.7,12.38805 9.3641875,12 8.95,12 C8.5358125,12 8.2,12.38805 8.2,12.8666667 L8.2,24.1333333 C8.2,24.61195 8.53576563,25 8.95,25 Z" id="Path" fill="url(#linearGradient-2)"></path>
            </g>
        </g>
    </g>
</svg>