<?xml version="1.0" encoding="utf-8"?>
<!-- Generator: Adobe Illustrator 24.0.3, SVG Export Plug-In . SVG Version: 6.00 Build 0)  -->
<svg version="1.1" id="Layer_1" xmlns="http://www.w3.org/2000/svg" xmlns:xlink="http://www.w3.org/1999/xlink" x="0px" y="0px"
	 viewBox="0 0 512 512" style="enable-background:new 0 0 512 512;" xml:space="preserve">
<style type="text/css">
	.st0{fill:url(#SVGID_1_);}
	.st1{fill:url(#SVGID_2_);}
	.st2{fill:url(#SVGID_3_);}
	.st3{fill:url(#SVGID_4_);}
	.st4{fill:url(#SVGID_5_);}
	.st5{fill:url(#SVGID_6_);}
	.st6{fill:url(#SVGID_7_);}
	.st7{fill:url(#SVGID_8_);}
	.st8{fill:url(#SVGID_9_);}
	.st9{fill:url(#SVGID_10_);}
	.st10{fill:url(#SVGID_11_);}
	.st11{fill:url(#SVGID_12_);}
	.st12{fill:url(#SVGID_13_);}
	.st13{fill:url(#SVGID_14_);}
	.st14{fill:url(#SVGID_15_);}
	.st15{fill:url(#SVGID_16_);}
	.st16{fill:url(#SVGID_17_);}
	.st17{fill:url(#SVGID_18_);}
	.st18{fill:url(#SVGID_19_);}
	.st19{fill:url(#SVGID_20_);}
	.st20{fill:url(#SVGID_21_);}
	.st21{fill:url(#SVGID_22_);}
	.st22{fill:url(#SVGID_23_);}
</style>
<linearGradient id="SVGID_1_" gradientUnits="userSpaceOnUse" x1="258.9208" y1="-2.0216" x2="282.9208" y2="512.9785">
	<stop  offset="0" style="stop-color:#4CB5EA"/>
	<stop  offset="1" style="stop-color:#5A6CDD"/>
</linearGradient>
<path class="st0" d="M240.8,53.3c1.3,1.2,3.1,1.8,4.9,1.7c10.3-0.5,20.6-0.2,30.8,0.7c0.2,0,0.4,0,0.7,0c3.8,0,6.8-3.1,6.8-6.9
	c0-3.5-2.7-6.4-6.2-6.8c-10.9-1-21.8-1.3-32.8-0.8c-3.8,0.2-6.7,3.4-6.5,7.2C238.6,50.3,239.4,52.1,240.8,53.3L240.8,53.3z"/>
<linearGradient id="SVGID_2_" gradientUnits="userSpaceOnUse" x1="185.6255" y1="1.3942" x2="209.6255" y2="516.3942">
	<stop  offset="0" style="stop-color:#4CB5EA"/>
	<stop  offset="1" style="stop-color:#5A6CDD"/>
</linearGradient>
<path class="st1" d="M173.2,70.7c0.9,0,1.7-0.2,2.6-0.5c9.5-3.8,19.4-7,29.4-9.4c3.7-0.9,6-4.6,5.1-8.3c-0.9-3.7-4.6-6-8.3-5.1
	c-10.6,2.6-21.1,5.9-31.2,10c-3.5,1.4-5.2,5.4-3.8,8.9C167.8,69,170.4,70.7,173.2,70.7L173.2,70.7z"/>
<linearGradient id="SVGID_3_" gradientUnits="userSpaceOnUse" x1="118.7157" y1="4.5123" x2="142.7157" y2="519.5123">
	<stop  offset="0" style="stop-color:#4CB5EA"/>
	<stop  offset="1" style="stop-color:#5A6CDD"/>
</linearGradient>
<path class="st2" d="M139.2,89c3.2-2,4.2-6.3,2.2-9.5s-6.3-4.2-9.5-2.2c0,0-0.1,0.1-0.1,0.1c-9.2,5.9-18,12.5-26.2,19.7
	c-2.9,2.5-3.2,6.8-0.7,9.7s6.8,3.2,9.7,0.7l0,0C122.3,100.8,130.6,94.6,139.2,89z"/>
<linearGradient id="SVGID_4_" gradientUnits="userSpaceOnUse" x1="330.9564" y1="-5.3786" x2="354.9564" y2="509.6215">
	<stop  offset="0" style="stop-color:#4CB5EA"/>
	<stop  offset="1" style="stop-color:#5A6CDD"/>
</linearGradient>
<path class="st3" d="M337.9,45.3L337.9,45.3c-3.1-2.4-7.6-1.8-10,1.3c-2.4,3.1-1.8,7.6,1.3,10c3.1,2.4,7.6,1.8,10-1.3
	C341.6,52.2,341,47.7,337.9,45.3L337.9,45.3z"/>
<linearGradient id="SVGID_5_" gradientUnits="userSpaceOnUse" x1="347.8302" y1="-6.1649" x2="371.8302" y2="508.8351">
	<stop  offset="0" style="stop-color:#4CB5EA"/>
	<stop  offset="1" style="stop-color:#5A6CDD"/>
</linearGradient>
<path class="st4" d="M355.5,58.9L355.5,58.9c-3.1-2.4-7.6-1.8-10,1.3s-1.8,7.6,1.3,10c3.1,2.4,7.6,1.8,10-1.3
	c1.2-1.5,1.7-3.4,1.4-5.2C357.9,61.7,357,60,355.5,58.9L355.5,58.9z"/>
<linearGradient id="SVGID_6_" gradientUnits="userSpaceOnUse" x1="364.7091" y1="-6.9515" x2="388.7091" y2="508.0485">
	<stop  offset="0" style="stop-color:#4CB5EA"/>
	<stop  offset="1" style="stop-color:#5A6CDD"/>
</linearGradient>
<path class="st5" d="M373,72.4L373,72.4c-3.1-2.4-7.6-1.8-10,1.3c-2.4,3.1-1.8,7.6,1.3,10c3.1,2.4,7.6,1.8,10-1.3
	c1.2-1.5,1.7-3.4,1.4-5.2C375.5,75.3,374.5,73.6,373,72.4L373,72.4z"/>
<linearGradient id="SVGID_7_" gradientUnits="userSpaceOnUse" x1="381.5865" y1="-7.738" x2="405.5865" y2="507.262">
	<stop  offset="0" style="stop-color:#4CB5EA"/>
	<stop  offset="1" style="stop-color:#5A6CDD"/>
</linearGradient>
<path class="st6" d="M390.6,86L390.6,86c-3.1-2.4-7.6-1.8-10,1.3c-2.4,3.1-1.8,7.6,1.3,10c3.1,2.4,7.6,1.8,10-1.3
	C394.2,92.9,393.7,88.4,390.6,86L390.6,86z"/>
<linearGradient id="SVGID_8_" gradientUnits="userSpaceOnUse" x1="269.9162" y1="-2.534" x2="293.9162" y2="512.4661">
	<stop  offset="0" style="stop-color:#4CB5EA"/>
	<stop  offset="1" style="stop-color:#5A6CDD"/>
</linearGradient>
<path class="st7" d="M306.9,480.7c-10,2.4-20.2,4.1-30.4,5.1c-3.8,0.4-6.5,3.7-6.2,7.5c0.3,3.5,3.3,6.2,6.8,6.2c0.2,0,0.4,0,0.7,0
	c10.9-1,21.7-2.8,32.3-5.4c3.7-0.9,6-4.6,5.1-8.3S310.6,479.8,306.9,480.7L306.9,480.7z"/>
<linearGradient id="SVGID_9_" gradientUnits="userSpaceOnUse" x1="196.3107" y1="0.8962" x2="220.3107" y2="515.8962">
	<stop  offset="0" style="stop-color:#4CB5EA"/>
	<stop  offset="1" style="stop-color:#5A6CDD"/>
</linearGradient>
<path class="st8" d="M235.5,485.8c-10.2-1-20.4-2.7-30.4-5.1c-3.7-0.9-7.4,1.4-8.3,5.1c-0.9,3.7,1.4,7.4,5.1,8.3l0,0
	c10.6,2.6,21.4,4.4,32.3,5.4c0.2,0,0.4,0,0.6,0c3.8,0,6.8-3.1,6.8-6.9C241.6,489.1,238.9,486.2,235.5,485.8L235.5,485.8z"/>
<linearGradient id="SVGID_10_" gradientUnits="userSpaceOnUse" x1="438.172" y1="-10.375" x2="462.172" y2="504.625">
	<stop  offset="0" style="stop-color:#4CB5EA"/>
	<stop  offset="1" style="stop-color:#5A6CDD"/>
</linearGradient>
<path class="st9" d="M438.7,134.7c-3.7-0.6-7.3,1.9-7.9,5.6c-0.3,1.8,0.1,3.6,1.2,5.1c6,8.4,11.3,17.2,16.1,26.3
	c1.7,3.4,5.8,4.8,9.2,3.2c3.4-1.7,4.8-5.8,3.2-9.2c0-0.1-0.1-0.2-0.1-0.3c-5-9.7-10.7-19.1-17.1-28C442.1,136,440.5,135,438.7,134.7
	z"/>
<linearGradient id="SVGID_11_" gradientUnits="userSpaceOnUse" x1="340.5246" y1="-5.8244" x2="364.5246" y2="509.1755">
	<stop  offset="0" style="stop-color:#4CB5EA"/>
	<stop  offset="1" style="stop-color:#5A6CDD"/>
</linearGradient>
<path class="st10" d="M372.8,452.5c-8.6,5.6-17.7,10.5-27,14.8c-3.4,1.6-5,5.7-3.4,9.1s5.7,5,9.1,3.4l0,0
	c9.9-4.6,19.6-9.8,28.7-15.7c3.2-2.1,4-6.3,2-9.5C380.1,451.4,375.9,450.5,372.8,452.5L372.8,452.5z"/>
<linearGradient id="SVGID_12_" gradientUnits="userSpaceOnUse" x1="400.4957" y1="-8.6192" x2="424.4957" y2="506.3808">
	<stop  offset="0" style="stop-color:#4CB5EA"/>
	<stop  offset="1" style="stop-color:#5A6CDD"/>
</linearGradient>
<path class="st11" d="M435.4,403.1c-3-2.3-7.3-1.8-9.6,1.1c0,0,0,0,0,0c-6.4,8.1-13.3,15.7-20.7,22.8c-2.7,2.6-2.8,7-0.2,9.7
	c2.6,2.7,6.9,2.8,9.7,0.2c7.9-7.6,15.3-15.7,22.1-24.2C438.9,409.8,438.4,405.5,435.4,403.1z"/>
<linearGradient id="SVGID_13_" gradientUnits="userSpaceOnUse" x1="462.3018" y1="-11.4995" x2="486.3018" y2="503.5005">
	<stop  offset="0" style="stop-color:#4CB5EA"/>
	<stop  offset="1" style="stop-color:#5A6CDD"/>
</linearGradient>
<path class="st12" d="M469.8,240c0.5,3.4,3.4,5.9,6.8,5.9c0.3,0,0.7,0,1-0.1c3.8-0.5,6.4-4,5.8-7.8c-1.5-10.8-3.9-21.5-6.9-32
	c-1.1-3.6-4.9-5.7-8.5-4.7c-3.6,1.1-5.7,4.9-4.7,8.5l0,0C466.2,219.8,468.4,229.8,469.8,240z"/>
<linearGradient id="SVGID_14_" gradientUnits="userSpaceOnUse" x1="443.1499" y1="-10.607" x2="467.1499" y2="504.393">
	<stop  offset="0" style="stop-color:#4CB5EA"/>
	<stop  offset="1" style="stop-color:#5A6CDD"/>
</linearGradient>
<path class="st13" d="M468.9,337.2c-3.6-1.2-7.5,0.7-8.7,4.2c-3.4,9.7-7.4,19.2-12.1,28.3c-1.8,3.3-0.6,7.5,2.7,9.3
	c3.3,1.8,7.5,0.6,9.3-2.7c0.1-0.1,0.1-0.2,0.2-0.3c5-9.7,9.3-19.8,12.9-30.2C474.4,342.3,472.5,338.4,468.9,337.2L468.9,337.2
	L468.9,337.2z"/>
<linearGradient id="SVGID_15_" gradientUnits="userSpaceOnUse" x1="31.6991" y1="8.5674" x2="55.6991" y2="523.5674">
	<stop  offset="0" style="stop-color:#4CB5EA"/>
	<stop  offset="1" style="stop-color:#5A6CDD"/>
</linearGradient>
<path class="st14" d="M35.8,235.3c3.7,0.7,7.3-1.7,8-5.4c0,0,0,0,0,0c1.9-10.1,4.6-20.1,8-29.8c1.2-3.6-0.7-7.5-4.2-8.7
	c-3.6-1.2-7.5,0.7-8.7,4.2l0,0c-3.6,10.3-6.4,20.9-8.5,31.7C29.7,231,32.1,234.6,35.8,235.3L35.8,235.3z"/>
<linearGradient id="SVGID_16_" gradientUnits="userSpaceOnUse" x1="127.9294" y1="4.0829" x2="151.9294" y2="519.0829">
	<stop  offset="0" style="stop-color:#4CB5EA"/>
	<stop  offset="1" style="stop-color:#5A6CDD"/>
</linearGradient>
<path class="st15" d="M166.3,467.3c-9.4-4.3-18.4-9.2-27-14.8c-3.2-2.1-7.4-1.1-9.5,2.1c-2.1,3.2-1.1,7.4,2.1,9.5
	c9.2,5.9,18.8,11.2,28.8,15.7c0.9,0.4,1.9,0.6,2.9,0.6c3.8,0,6.9-3.1,6.9-6.9C170.3,470.9,168.7,468.4,166.3,467.3L166.3,467.3z"/>
<linearGradient id="SVGID_17_" gradientUnits="userSpaceOnUse" x1="21.2039" y1="9.0565" x2="45.2039" y2="524.0565">
	<stop  offset="0" style="stop-color:#4CB5EA"/>
	<stop  offset="1" style="stop-color:#5A6CDD"/>
</linearGradient>
<path class="st16" d="M42.2,301.5C40.7,291.3,40,281,40,270.8c0-3.8-3-6.9-6.8-6.9c-3.8,0-6.9,3-6.9,6.8c0,0.1,0,0.1,0,0.2
	c0,10.9,0.8,21.9,2.3,32.7c0.5,3.4,3.4,5.9,6.8,5.9c0.3,0,0.7,0,1-0.1C40.1,308.7,42.7,305.3,42.2,301.5z"/>
<linearGradient id="SVGID_18_" gradientUnits="userSpaceOnUse" x1="463.8408" y1="-11.5712" x2="487.8408" y2="503.4288">
	<stop  offset="0" style="stop-color:#4CB5EA"/>
	<stop  offset="1" style="stop-color:#5A6CDD"/>
</linearGradient>
<path class="st17" d="M478.9,263.9c-3.8,0-6.9,3.1-6.9,6.9c0,10.3-0.7,20.6-2.2,30.8c-0.5,3.8,2.1,7.2,5.8,7.8c0.3,0,0.6,0.1,1,0.1
	c3.4,0,6.3-2.5,6.8-5.9c1.5-10.8,2.3-21.8,2.3-32.7C485.7,267,482.6,263.9,478.9,263.9z"/>
<linearGradient id="SVGID_19_" gradientUnits="userSpaceOnUse" x1="35.3274" y1="8.3983" x2="59.3274" y2="523.3983">
	<stop  offset="0" style="stop-color:#4CB5EA"/>
	<stop  offset="1" style="stop-color:#5A6CDD"/>
</linearGradient>
<path class="st18" d="M51.8,341.4c-1.2-3.6-5.2-5.5-8.7-4.2c-3.6,1.2-5.5,5.2-4.2,8.7c3.6,10.3,7.9,20.4,12.9,30.1
	c1.7,3.4,5.8,4.8,9.2,3.2c3.4-1.7,4.8-5.8,3.2-9.2c0-0.1-0.1-0.2-0.1-0.3C59.2,360.6,55.2,351.1,51.8,341.4z"/>
<linearGradient id="SVGID_20_" gradientUnits="userSpaceOnUse" x1="72.2002" y1="6.68" x2="96.2002" y2="521.68">
	<stop  offset="0" style="stop-color:#4CB5EA"/>
	<stop  offset="1" style="stop-color:#5A6CDD"/>
</linearGradient>
<path class="st19" d="M86.2,404.3c-2.3-3-6.7-3.5-9.6-1.1c-3,2.3-3.5,6.7-1.1,9.6l0,0c6.8,8.6,14.1,16.7,22.1,24.2
	c2.8,2.6,7.1,2.4,9.7-0.3c2.5-2.7,2.4-7-0.2-9.6C99.5,420,92.6,412.4,86.2,404.3z"/>
<linearGradient id="SVGID_21_" gradientUnits="userSpaceOnUse" x1="65.409" y1="6.9965" x2="89.409" y2="521.9965">
	<stop  offset="0" style="stop-color:#4CB5EA"/>
	<stop  offset="1" style="stop-color:#5A6CDD"/>
</linearGradient>
<path class="st20" d="M85.1,127.6c-3-2.3-7.3-1.8-9.6,1.1c-6.8,8.6-12.9,17.7-18.4,27.1c-1.9,3.3-0.8,7.5,2.5,9.4
	c1,0.6,2.2,0.9,3.4,0.9c2.5,0,4.7-1.3,6-3.4c5.2-8.9,10.9-17.4,17.3-25.5C88.6,134.3,88,130,85.1,127.6z"/>
<linearGradient id="SVGID_22_" gradientUnits="userSpaceOnUse" x1="372.1946" y1="-7.3003" x2="396.1946" y2="507.6997">
	<stop  offset="0" style="stop-color:#4CB5EA"/>
	<stop  offset="1" style="stop-color:#5A6CDD"/>
</linearGradient>
<path class="st21" d="M408.4,163.2c4,1.1,8.3-0.3,10.8-3.6c0.4-0.6,0.8-1.2,1-1.8l10-31l27.6-17.6c0.6-0.4,1.1-0.8,1.5-1.4
	c3.5-4.5,2.6-10.9-1.9-14.4c-1.9-1.5-4.2-2.2-6.6-2.1l-32.1-4.3l-16-12.4l22-28.5c3.3-4.2,2.5-10.3-1.7-13.6c0,0,0,0,0,0l-6.9-5.3
	c-5.1-3.9-12.2-3.7-17,0.5L372.2,51l-42.5-32.9c-10.7-8.2-26.1-6.2-34.3,4.5c-8.2,10.7-6.3,26,4.4,34.3l42.5,32.9l-15.8,32
	c-2.8,5.7-1.2,12.6,3.8,16.5l6.9,5.3c1.7,1.3,3.8,2,5.9,2c0.4,0,0.8,0,1.3-0.1c2.6-0.3,4.9-1.6,6.4-3.7l22-28.5l16,12.4l12.3,29.9
	C401.9,159.2,404.7,162.2,408.4,163.2z M399.3,119.6c-0.4-1-1-1.8-1.9-2.5l-30.8-23.8c-2.6-2-6.4-1.5-8.4,1.1s-1.5,6.4,1.1,8.4
	l4,3.1l-20.6,26.7l-5.1-3.9c-0.5-0.4-0.7-1.1-0.4-1.7l18-36.4c1.3-2.6,0.6-5.7-1.7-7.4L307,47.3c-5.5-4.2-6.5-12-2.2-17.5
	s12-6.5,17.5-2.2l46.4,35.9c2.3,1.7,5.4,1.7,7.6-0.2l30.6-26.6c0.5-0.4,1.2-0.5,1.8-0.1l5.1,3.9l-20.6,26.7l-4-3.1
	c-2.6-2-6.4-1.5-8.4,1.1c-2,2.6-1.5,6.4,1.1,8.4l0,0l30.8,23.8c0.8,0.6,1.8,1.1,2.9,1.2l30,4l-23.7,15.1c-1.2,0.8-2.1,1.9-2.5,3.2
	l-8.6,26.7L399.3,119.6z"/>
<linearGradient id="SVGID_23_" gradientUnits="userSpaceOnUse" x1="243.3214" y1="-1.2946" x2="267.3214" y2="513.7054">
	<stop  offset="0" style="stop-color:#4CB5EA"/>
	<stop  offset="1" style="stop-color:#5A6CDD"/>
</linearGradient>
<path class="st22" d="M256,126.8c-79.4,0-144,64.6-144,144s64.6,144,144,144s144-64.6,144-144S335.4,126.8,256,126.8z M124,270.8
	c0-71.1,56.5-129.2,126.9-131.9l6.1,37.3c0.6,3.4-1,6.9-3.9,8.8L230,200.3c-7.1,4.6-10.6,13-9,21.3l3.1,16.3
	c1.3,6.5,5.5,12,11.4,14.9l16.3,7.8c3.6,1.7,5.6,5.6,4.9,9.5l-5.9,32.9c-0.2,1.4-0.8,2.6-1.6,3.7c-2.9,3.9-8.5,4.7-12.4,1.8
	c-1.2-0.9-2.1-2-2.7-3.4l-6-12.8c-3.4-7.3-10.8-12-18.9-12.1H185c-4.3,0-8.5,1.3-12,3.8l-16.2,11.4c-2.1,1.5-4.7,1.9-7.1,1.4
	l-24.1-5.7C124.6,284.4,124,277.6,124,270.8z M323.7,342.6l4.2,38.8c-21.4,14-46.4,21.4-71.9,21.4c-61.2,0-112.9-41.9-127.7-98.6
	l18.6,4.4c5.8,1.4,11.9,0.2,16.8-3.2l16.2-11.4c1.5-1,3.3-1.6,5.1-1.6h24.1c3.4,0,6.6,2,8,5.1l6,12.8c3.1,6.7,9.4,11.2,16.7,11.9
	c0.7,0.1,1.5,0.1,2.2,0.1c6.6,0,12.7-3.1,16.6-8.4c1.9-2.6,3.2-5.6,3.8-8.8l5.9-32.9c1.6-9.2-3-18.4-11.5-22.5l-16.3-7.8
	c-2.5-1.2-4.3-3.6-4.8-6.3l-3.1-16.3c-0.7-3.5,0.8-7.1,3.8-9l23.2-15.2c6.9-4.5,10.5-12.7,9.1-20.8l-5.8-35.3
	c36.8,2,71.1,19.3,94.5,47.7l-10.2,7.3c-5.8,4.2-10,10.3-11.8,17.2l-3.2,12.7c-3,11.7,1.2,24,10.7,31.5c5.6,4.4,8.2,11.6,6.6,18.5
	l-6.5,29.2c-0.8,3.4-2.5,6.6-5,9l-5.7,5.7C325.9,324.2,322.6,333.4,323.7,342.6L323.7,342.6z M388,270.8c0,39.8-18,77.4-48.9,102.5
	l-3.5-31.9c-0.6-5.6,1.3-11.1,5.3-15.1l5.7-5.7c4.1-4.1,7-9.3,8.3-14.9l6.5-29.2c2.5-11.5-1.7-23.3-10.9-30.6
	c-5.8-4.5-8.3-12-6.5-19l3.2-12.7c1.1-4.2,3.6-7.9,7.1-10.4l10.5-7.5C379.9,218.2,388,244.2,388,270.8L388,270.8z"/>
</svg>
