<svg enable-background="new 0 0 512 512" viewBox="0 0 512 512" xmlns="http://www.w3.org/2000/svg" xmlns:xlink="http://www.w3.org/1999/xlink"><linearGradient id="a"><stop offset="0" stop-color="#4cb5ea"/><stop offset="1" stop-color="#5a6cdd"/></linearGradient><linearGradient id="b" gradientUnits="userSpaceOnUse" x1="258.9208" x2="282.9208" xlink:href="#a" y1="-2.0216" y2="512.9785"/><linearGradient id="c" gradientUnits="userSpaceOnUse" x1="185.6255" x2="209.6255" xlink:href="#a" y1="1.3942" y2="516.3942"/><linearGradient id="d" gradientUnits="userSpaceOnUse" x1="118.7157" x2="142.7157" xlink:href="#a" y1="4.5123" y2="519.5123"/><linearGradient id="e" gradientUnits="userSpaceOnUse" x1="330.9564" x2="354.9564" xlink:href="#a" y1="-5.3786" y2="509.6215"/><linearGradient id="f" gradientUnits="userSpaceOnUse" x1="347.8302" x2="371.8302" xlink:href="#a" y1="-6.1649" y2="508.8351"/><linearGradient id="g" gradientUnits="userSpaceOnUse" x1="364.7091" x2="388.7091" xlink:href="#a" y1="-6.9515" y2="508.0485"/><linearGradient id="h" gradientUnits="userSpaceOnUse" x1="381.5865" x2="405.5865" xlink:href="#a" y1="-7.738" y2="507.262"/><linearGradient id="i" gradientUnits="userSpaceOnUse" x1="269.9162" x2="293.9162" xlink:href="#a" y1="-2.534" y2="512.4661"/><linearGradient id="j" gradientUnits="userSpaceOnUse" x1="196.3107" x2="220.3107" xlink:href="#a" y1=".8962" y2="515.8962"/><linearGradient id="k" gradientUnits="userSpaceOnUse" x1="438.172" x2="462.172" xlink:href="#a" y1="-10.375" y2="504.625"/><linearGradient id="l" gradientUnits="userSpaceOnUse" x1="340.5246" x2="364.5246" xlink:href="#a" y1="-5.8244" y2="509.1755"/><linearGradient id="m" gradientUnits="userSpaceOnUse" x1="400.4957" x2="424.4957" xlink:href="#a" y1="-8.6192" y2="506.3808"/><linearGradient id="n" gradientUnits="userSpaceOnUse" x1="462.3018" x2="486.3018" xlink:href="#a" y1="-11.4995" y2="503.5005"/><linearGradient id="o" gradientUnits="userSpaceOnUse" x1="443.1499" x2="467.1499" xlink:href="#a" y1="-10.607" y2="504.393"/><linearGradient id="p" gradientUnits="userSpaceOnUse" x1="31.6991" x2="55.6991" xlink:href="#a" y1="8.5674" y2="523.5674"/><linearGradient id="q" gradientUnits="userSpaceOnUse" x1="127.9294" x2="151.9294" xlink:href="#a" y1="4.0829" y2="519.0829"/><linearGradient id="r" gradientUnits="userSpaceOnUse" x1="21.2039" x2="45.2039" xlink:href="#a" y1="9.0565" y2="524.0565"/><linearGradient id="s" gradientUnits="userSpaceOnUse" x1="463.8408" x2="487.8408" xlink:href="#a" y1="-11.5712" y2="503.4288"/><linearGradient id="t" gradientUnits="userSpaceOnUse" x1="35.3274" x2="59.3274" xlink:href="#a" y1="8.3983" y2="523.3983"/><linearGradient id="u" gradientUnits="userSpaceOnUse" x1="72.2002" x2="96.2002" xlink:href="#a" y1="6.68" y2="521.68"/><linearGradient id="v" gradientUnits="userSpaceOnUse" x1="65.409" x2="89.409" xlink:href="#a" y1="6.9965" y2="521.9965"/><linearGradient id="w" gradientUnits="userSpaceOnUse" x1="372.1946" x2="396.1946" xlink:href="#a" y1="-7.3003" y2="507.6997"/><linearGradient id="x" gradientUnits="userSpaceOnUse" x1="243.3214" x2="267.3214" xlink:href="#a" y1="-1.2946" y2="513.7054"/><path d="m240.8 53.3c1.3 1.2 3.1 1.8 4.9 1.7 10.3-.5 20.6-.2 30.8.7h.7c3.8 0 6.8-3.1 6.8-6.9 0-3.5-2.7-6.4-6.2-6.8-10.9-1-21.8-1.3-32.8-.8-3.8.2-6.7 3.4-6.5 7.2.1 1.9.9 3.7 2.3 4.9z" fill="url(#b)"/><path d="m173.2 70.7c.9 0 1.7-.2 2.6-.5 9.5-3.8 19.4-7 29.4-9.4 3.7-.9 6-4.6 5.1-8.3s-4.6-6-8.3-5.1c-10.6 2.6-21.1 5.9-31.2 10-3.5 1.4-5.2 5.4-3.8 8.9.8 2.7 3.4 4.4 6.2 4.4z" fill="url(#c)"/><path d="m139.2 89c3.2-2 4.2-6.3 2.2-9.5s-6.3-4.2-9.5-2.2c0 0-.1.1-.1.1-9.2 5.9-18 12.5-26.2 19.7-2.9 2.5-3.2 6.8-.7 9.7s6.8 3.2 9.7.7c7.7-6.7 16-12.9 24.6-18.5z" fill="url(#d)"/><path d="m337.9 45.3c-3.1-2.4-7.6-1.8-10 1.3s-1.8 7.6 1.3 10 7.6 1.8 10-1.3 1.8-7.6-1.3-10z" fill="url(#e)"/><path d="m355.5 58.9c-3.1-2.4-7.6-1.8-10 1.3s-1.8 7.6 1.3 10 7.6 1.8 10-1.3c1.2-1.5 1.7-3.4 1.4-5.2-.3-2-1.2-3.7-2.7-4.8z" fill="url(#f)"/><path d="m373 72.4c-3.1-2.4-7.6-1.8-10 1.3s-1.8 7.6 1.3 10 7.6 1.8 10-1.3c1.2-1.5 1.7-3.4 1.4-5.2-.2-1.9-1.2-3.6-2.7-4.8z" fill="url(#g)"/><path d="m390.6 86c-3.1-2.4-7.6-1.8-10 1.3s-1.8 7.6 1.3 10 7.6 1.8 10-1.3c2.3-3.1 1.8-7.6-1.3-10z" fill="url(#h)"/><path d="m306.9 480.7c-10 2.4-20.2 4.1-30.4 5.1-3.8.4-6.5 3.7-6.2 7.5.3 3.5 3.3 6.2 6.8 6.2h.7c10.9-1 21.7-2.8 32.3-5.4 3.7-.9 6-4.6 5.1-8.3s-4.6-6-8.3-5.1z" fill="url(#i)"/><path d="m235.5 485.8c-10.2-1-20.4-2.7-30.4-5.1-3.7-.9-7.4 1.4-8.3 5.1s1.4 7.4 5.1 8.3c10.6 2.6 21.4 4.4 32.3 5.4h.6c3.8 0 6.8-3.1 6.8-6.9 0-3.5-2.7-6.4-6.1-6.8z" fill="url(#j)"/><path d="m438.7 134.7c-3.7-.6-7.3 1.9-7.9 5.6-.3 1.8.1 3.6 1.2 5.1 6 8.4 11.3 17.2 16.1 26.3 1.7 3.4 5.8 4.8 9.2 3.2 3.4-1.7 4.8-5.8 3.2-9.2 0-.1-.1-.2-.1-.3-5-9.7-10.7-19.1-17.1-28-1.2-1.4-2.8-2.4-4.6-2.7z" fill="url(#k)"/><path d="m372.8 452.5c-8.6 5.6-17.7 10.5-27 14.8-3.4 1.6-5 5.7-3.4 9.1s5.7 5 9.1 3.4c9.9-4.6 19.6-9.8 28.7-15.7 3.2-2.1 4-6.3 2-9.5-2.1-3.2-6.3-4.1-9.4-2.1z" fill="url(#l)"/><path d="m435.4 403.1c-3-2.3-7.3-1.8-9.6 1.1-6.4 8.1-13.3 15.7-20.7 22.8-2.7 2.6-2.8 7-.2 9.7s6.9 2.8 9.7.2c7.9-7.6 15.3-15.7 22.1-24.2 2.2-2.9 1.7-7.2-1.3-9.6z" fill="url(#m)"/><path d="m469.8 240c.5 3.4 3.4 5.9 6.8 5.9.3 0 .7 0 1-.1 3.8-.5 6.4-4 5.8-7.8-1.5-10.8-3.9-21.5-6.9-32-1.1-3.6-4.9-5.7-8.5-4.7-3.6 1.1-5.7 4.9-4.7 8.5 2.9 10 5.1 20 6.5 30.2z" fill="url(#n)"/><path d="m468.9 337.2c-3.6-1.2-7.5.7-8.7 4.2-3.4 9.7-7.4 19.2-12.1 28.3-1.8 3.3-.6 7.5 2.7 9.3s7.5.6 9.3-2.7c.1-.1.1-.2.2-.3 5-9.7 9.3-19.8 12.9-30.2 1.2-3.5-.7-7.4-4.3-8.6z" fill="url(#o)"/><path d="m35.8 235.3c3.7.7 7.3-1.7 8-5.4 1.9-10.1 4.6-20.1 8-29.8 1.2-3.6-.7-7.5-4.2-8.7-3.6-1.2-7.5.7-8.7 4.2-3.6 10.3-6.4 20.9-8.5 31.7-.7 3.7 1.7 7.3 5.4 8z" fill="url(#p)"/><path d="m166.3 467.3c-9.4-4.3-18.4-9.2-27-14.8-3.2-2.1-7.4-1.1-9.5 2.1s-1.1 7.4 2.1 9.5c9.2 5.9 18.8 11.2 28.8 15.7.9.4 1.9.6 2.9.6 3.8 0 6.9-3.1 6.9-6.9-.2-2.6-1.8-5.1-4.2-6.2z" fill="url(#q)"/><path d="m42.2 301.5c-1.5-10.2-2.2-20.5-2.2-30.7 0-3.8-3-6.9-6.8-6.9s-6.9 3-6.9 6.8v.2c0 10.9.8 21.9 2.3 32.7.5 3.4 3.4 5.9 6.8 5.9.3 0 .7 0 1-.1 3.7-.7 6.3-4.1 5.8-7.9z" fill="url(#r)"/><path d="m478.9 263.9c-3.8 0-6.9 3.1-6.9 6.9 0 10.3-.7 20.6-2.2 30.8-.5 3.8 2.1 7.2 5.8 7.8.3 0 .6.1 1 .1 3.4 0 6.3-2.5 6.8-5.9 1.5-10.8 2.3-21.8 2.3-32.7 0-3.9-3.1-7-6.8-7z" fill="url(#s)"/><path d="m51.8 341.4c-1.2-3.6-5.2-5.5-8.7-4.2-3.6 1.2-5.5 5.2-4.2 8.7 3.6 10.3 7.9 20.4 12.9 30.1 1.7 3.4 5.8 4.8 9.2 3.2 3.4-1.7 4.8-5.8 3.2-9.2 0-.1-.1-.2-.1-.3-4.9-9.1-8.9-18.6-12.3-28.3z" fill="url(#t)"/><path d="m86.2 404.3c-2.3-3-6.7-3.5-9.6-1.1-3 2.3-3.5 6.7-1.1 9.6 6.8 8.6 14.1 16.7 22.1 24.2 2.8 2.6 7.1 2.4 9.7-.3 2.5-2.7 2.4-7-.2-9.6-7.6-7.1-14.5-14.7-20.9-22.8z" fill="url(#u)"/><path d="m85.1 127.6c-3-2.3-7.3-1.8-9.6 1.1-6.8 8.6-12.9 17.7-18.4 27.1-1.9 3.3-.8 7.5 2.5 9.4 1 .6 2.2.9 3.4.9 2.5 0 4.7-1.3 6-3.4 5.2-8.9 10.9-17.4 17.3-25.5 2.3-2.9 1.7-7.2-1.2-9.6z" fill="url(#v)"/><path d="m408.4 163.2c4 1.1 8.3-.3 10.8-3.6.4-.6.8-1.2 1-1.8l10-31 27.6-17.6c.6-.4 1.1-.8 1.5-1.4 3.5-4.5 2.6-10.9-1.9-14.4-1.9-1.5-4.2-2.2-6.6-2.1l-32.1-4.3-16-12.4 22-28.5c3.3-4.2 2.5-10.3-1.7-13.6l-6.9-5.3c-5.1-3.9-12.2-3.7-17 .5l-26.9 23.3-42.5-32.9c-10.7-8.2-26.1-6.2-34.3 4.5s-6.3 26 4.4 34.3l42.5 32.9-15.8 32c-2.8 5.7-1.2 12.6 3.8 16.5l6.9 5.3c1.7 1.3 3.8 2 5.9 2 .4 0 .8 0 1.3-.1 2.6-.3 4.9-1.6 6.4-3.7l22-28.5 16 12.4 12.3 29.9c.8 3.6 3.6 6.6 7.3 7.6zm-9.1-43.6c-.4-1-1-1.8-1.9-2.5l-30.8-23.8c-2.6-2-6.4-1.5-8.4 1.1s-1.5 6.4 1.1 8.4l4 3.1-20.6 26.7-5.1-3.9c-.5-.4-.7-1.1-.4-1.7l18-36.4c1.3-2.6.6-5.7-1.7-7.4l-46.5-35.9c-5.5-4.2-6.5-12-2.2-17.5s12-6.5 17.5-2.2l46.4 35.9c2.3 1.7 5.4 1.7 7.6-.2l30.6-26.6c.5-.4 1.2-.5 1.8-.1l5.1 3.9-20.6 26.7-4-3.1c-2.6-2-6.4-1.5-8.4 1.1s-1.5 6.4 1.1 8.4l30.8 23.8c.8.6 1.8 1.1 2.9 1.2l30 4-23.7 15.1c-1.2.8-2.1 1.9-2.5 3.2l-8.6 26.7z" fill="url(#w)"/><path d="m256 126.8c-79.4 0-144 64.6-144 144s64.6 144 144 144 144-64.6 144-144-64.6-144-144-144zm-132 144c0-71.1 56.5-129.2 126.9-131.9l6.1 37.3c.6 3.4-1 6.9-3.9 8.8l-23.1 15.3c-7.1 4.6-10.6 13-9 21.3l3.1 16.3c1.3 6.5 5.5 12 11.4 14.9l16.3 7.8c3.6 1.7 5.6 5.6 4.9 9.5l-5.9 32.9c-.2 1.4-.8 2.6-1.6 3.7-2.9 3.9-8.5 4.7-12.4 1.8-1.2-.9-2.1-2-2.7-3.4l-6-12.8c-3.4-7.3-10.8-12-18.9-12.1h-24.2c-4.3 0-8.5 1.3-12 3.8l-16.2 11.4c-2.1 1.5-4.7 1.9-7.1 1.4l-24.1-5.7c-1-6.7-1.6-13.5-1.6-20.3zm199.7 71.8 4.2 38.8c-21.4 14-46.4 21.4-71.9 21.4-61.2 0-112.9-41.9-127.7-98.6l18.6 4.4c5.8 1.4 11.9.2 16.8-3.2l16.2-11.4c1.5-1 3.3-1.6 5.1-1.6h24.1c3.4 0 6.6 2 8 5.1l6 12.8c3.1 6.7 9.4 11.2 16.7 11.9.7.1 1.5.1 2.2.1 6.6 0 12.7-3.1 16.6-8.4 1.9-2.6 3.2-5.6 3.8-8.8l5.9-32.9c1.6-9.2-3-18.4-11.5-22.5l-16.3-7.8c-2.5-1.2-4.3-3.6-4.8-6.3l-3.1-16.3c-.7-3.5.8-7.1 3.8-9l23.2-15.2c6.9-4.5 10.5-12.7 9.1-20.8l-5.8-35.3c36.8 2 71.1 19.3 94.5 47.7l-10.2 7.3c-5.8 4.2-10 10.3-11.8 17.2l-3.2 12.7c-3 11.7 1.2 24 10.7 31.5 5.6 4.4 8.2 11.6 6.6 18.5l-6.5 29.2c-.8 3.4-2.5 6.6-5 9l-5.7 5.7c-6.4 6.4-9.7 15.6-8.6 24.8zm64.3-71.8c0 39.8-18 77.4-48.9 102.5l-3.5-31.9c-.6-5.6 1.3-11.1 5.3-15.1l5.7-5.7c4.1-4.1 7-9.3 8.3-14.9l6.5-29.2c2.5-11.5-1.7-23.3-10.9-30.6-5.8-4.5-8.3-12-6.5-19l3.2-12.7c1.1-4.2 3.6-7.9 7.1-10.4l10.5-7.5c15.1 21.9 23.2 47.9 23.2 74.5z" fill="url(#x)"/></svg>