<svg height="23" viewBox="0 0 28 23" width="28" xmlns="http://www.w3.org/2000/svg" xmlns:xlink="http://www.w3.org/1999/xlink"><linearGradient id="a" x1="50%" x2="50%" y1="0%" y2="100%"><stop offset="0" stop-color="#4ebbed"/><stop offset="1" stop-color="#5c6ddd"/></linearGradient><path d="m10.6539987 23c-4.67321276 0-8.36675125-.8123337-10.1338392-2.2282853l-.03439331-.0276304-.0311889-.0310311c-.41976883-.4178566-.55734192-.9660012-.37704426-1.5037312l.01644894-.0446338c.21874977-.5443188.7547294-.9107404 1.33556985-.914141 1.19543329-.0206165 2.2413306-.1623817 3.1904568-.437623-1.51394492-.7005369-2.56561007-1.9135113-3.19131129-3.6691043-.21041846-.547507-.02883909-1.1545255.45608473-1.5164837.11962878-.08948.25485201-.1570682.39797932-.2023395-.84124668-.9662138-1.46267544-2.0656911-1.81066705-3.22850574l-.01089472-.03613203-.00747682-.03698225c-.1181334-.58810234.14611801-1.19278301.63040095-1.45314636.20315526-.11604764.42382767-.1761969.64535452-.1812979-.23883034-.51179998-.41250567-1.03720261-.51547184-1.56579339-.28582736-1.46483615-.04998777-2.9332855.70068284-4.36454012l.17367533-.34559248c.13906847-.2765165.40481526-.47077948.71115035-.52030164.30633515-.04930963.62036066.05143502.83975131.26971517l.31637538.31519909c2.49938696 2.60703425 4.73815409 3.8440259 8.60878597 4.69036626.1728208-1.47822629.8151846-2.8523072 1.8514689-3.93371845 1.2332445-1.28672639 2.8800628-2.00872992 4.6371105-2.03338473h.0115356c1.2819506 0 2.8721588.72816727 3.8338888 1.24166758.8250113-.26865248 1.8189982-.68459627 2.8503692-1.12434466.4825739-.22529401 1.0775135-.12221138 1.4569076.25526235.3719174.37003477.4750971.89182422.2777097 1.39894831-.0749816.20765305-.1600035.41148038-.2546384.6108443.1412047.06440009.2704465.15175467.3796077.2603634.3300473.32837664.4676204.842302.3503415 1.30946829l-.0126038.04442116c-.3952022 1.26717252-1.1544177 2.29927414-2.1584449 2.94710069-.1676939 8.88444815-6.892113 16.05538645-15.1336813 16.05538645zm-8.55922539-3.1381756c1.66518982.9373082 4.83855678 1.5043689 8.55922539 1.5043689 3.5771141 0 6.9527818-1.527961 9.5049337-4.302478 2.5730868-2.7972589 3.9900469-6.511847 3.9900469-10.45959324v-.04442116c0-.35749487.1978148-.68374606.5161127-.85165388.6457818-.34027896 1.1687305-.9198797 1.508818-1.66101199-.3507687.05504826-.7073052-.08501661-.9258413-.37704863-.2539975-.3394288-.2567746-.7978809-.0070495-1.14028524.134796-.18491115.2569882-.37726121.3659359-.57620008-.8905936.37216022-1.7363263.70585038-2.4705479.9275312-.2668149.08034066-.5641779.04888452-.8079215-.08650442-1.307158-.72455402-2.5245945-1.15771367-3.2586025-1.15983906-2.7085237.04123303-4.9107613 2.34922141-4.9107613 5.14754308 0 .289269-.1290282.56047198-.3535458.74432038-.2247311.18363587-.5169672.25717526-.8023672.2010643-4.463008-.87482095-7.10765843-2.18662715-9.85783861-4.93627683-.39413408.93964604-.50179998 1.88609347-.31957973 2.82063852.18478372.9466599.67632981 1.89523272 1.42165986 2.74306088.28326383.32178783.32086145.78215279.09356677 1.14538623-.22644019.36195817-.65689012.53114124-1.07067756.42083221-.32342492-.08629188-.62078788-.1995765-.90277-.34516742.57443174 1.24145495 1.56243726 2.38960425 2.80444035 3.23636965.35995443.2454855.51034489.7030874.36593587 1.1128675-.14462264.4104176-.5485834.6746067-.98522844.6423004-.47573802-.0350693-.89721583-.1249744-1.28515486-.2765165.69641038 1.4110632 1.80917162 2.1874773 3.52349477 2.4841853.40823317.0707763.72610392.3915015.79104525.7980934.065155.4065919-.13714582.8095707-.50308174 1.0027709-1.46118008.7706755-3.0582242 1.1842813-4.98424752 1.2856636z" fill="url(#a)"/></svg>