<?xml version="1.0" encoding="UTF-8"?>
<svg width="126px" height="150px" viewBox="0 0 126 150" version="1.1" xmlns="http://www.w3.org/2000/svg" xmlns:xlink="http://www.w3.org/1999/xlink">
    <title>user</title>
    <defs>
        <linearGradient x1="49.7943251%" y1="-2.73292782%" x2="50.6050263%" y2="204.485239%" id="linearGradient-1">
            <stop stop-color="#4DBBED" offset="0%"></stop>
            <stop stop-color="#5C6DDD" offset="100%"></stop>
        </linearGradient>
        <linearGradient x1="49.6132226%" y1="-5.94077538%" x2="50.0812778%" y2="68.0393519%" id="linearGradient-2">
            <stop stop-color="#4DBBED" offset="0%"></stop>
            <stop stop-color="#5C6DDD" offset="100%"></stop>
        </linearGradient>
    </defs>
    <g id="Page-1" stroke="none" stroke-width="1" fill="none" fill-rule="evenodd">
        <g id="Sign-up-1step-desktop" transform="translate(-736.000000, -738.000000)" fill-rule="nonzero">
            <g id="user" transform="translate(736.000000, 738.000000)">
                <path d="M61.5145926,72 C71.4083908,72 79.9596676,68.4379562 86.9641265,61.459854 C93.9685853,54.4525547 97.5,45.8978102 97.5,36 C97.5,26.1021898 93.9394001,17.5474453 86.9641265,10.540146 C79.9596676,3.53284672 71.4083908,0 61.5145926,0 C51.6207945,0 43.0695176,3.5620438 36.0650588,10.540146 C29.0605999,17.5182482 25.5,26.1021898 25.5,36 C25.5,45.8978102 29.0605999,54.4525547 36.0358735,61.459854 C43.0403324,68.4671533 51.6207945,72 61.5145926,72 Z M42.2523308,16.729927 C47.6224159,11.3576642 53.9264289,8.75912409 61.5145926,8.75912409 C69.1027564,8.75912409 75.4067694,11.3576642 80.7768545,16.729927 C86.1469396,22.1021898 88.7444264,28.4087591 88.7444264,36 C88.7444264,43.5912409 86.1469396,49.8978102 80.7768545,55.270073 C75.4067694,60.6423358 69.1027564,63.2408759 61.5145926,63.2408759 C53.9264289,63.2408759 47.6224159,60.6423358 42.2523308,55.270073 C36.8822456,49.8978102 34.2845183,43.5912409 34.2845183,36 C34.2555736,28.4087591 36.8822456,22.1021898 42.2523308,16.729927 Z" id="Shape" fill="url(#linearGradient-1)"></path>
                <path d="M125.675638,115.140159 C125.469225,112.193427 125.056401,108.981488 124.466651,105.592747 C123.847414,102.174537 123.051252,98.9625992 122.107653,96.015867 C121.134566,92.9807329 119.807629,89.9455988 118.15633,87.0872686 C116.446057,84.0816018 114.440908,81.4884775 112.19986,79.3373631 C109.840861,77.0978466 106.980576,75.30034 103.648491,73.9743105 C100.345893,72.6777484 96.6599579,72 92.7381231,72 C91.2047742,72 89.7009127,72.6188138 86.8406272,74.5047223 C85.0713784,75.6539479 83.0072549,76.9799773 80.677744,78.4828107 C78.7020828,79.7499056 76.0187222,80.9285984 72.7161245,81.989422 C69.5019892,83.0207782 66.1993915,83.55119 62.9852563,83.55119 C59.7416335,83.55119 56.4685233,83.0207782 53.254388,81.989422 C49.9517903,80.9285984 47.2684297,79.7499056 45.2927685,78.4828107 C42.9927451,77.0094447 40.9286216,75.6834152 39.1298853,74.5047223 C36.2401123,72.6188138 34.7657384,72 33.2323894,72 C29.3105546,72 25.6246197,72.6777484 22.322022,73.9743105 C18.9899368,75.30034 16.1296513,77.0978466 13.7706529,79.3373631 C11.5296045,81.4884775 9.52445589,84.0816018 7.81418207,87.0872686 C6.16288322,89.9750661 4.83594664,92.9807329 3.86285982,96.015867 C2.91926047,98.9625992 2.12309853,102.174537 1.50386146,105.592747 C0.884624386,108.981488 0.471799672,112.193427 0.294874795,115.140159 C0.0884624386,118.027956 0,121.033623 0,124.03929 C0,131.907065 2.50643576,138.301473 7.43084484,142.986777 C12.3552539,147.642614 18.8130119,150 26.6566815,150 L99.3433185,150 C107.186988,150 113.644746,147.642614 118.539668,143.016245 C123.493564,138.330941 126,131.936532 126,124.068757 C126,121.004156 125.88205,118.027956 125.675638,115.140159 Z M112.435759,136.592369 C109.221624,139.65697 104.94594,141.159804 99.3433185,141.159804 L26.6566815,141.159804 C21.0835479,141.159804 16.8078633,139.65697 13.5642406,136.592369 C10.4090803,133.586702 8.87573134,129.490744 8.87573134,124.03929 C8.87573134,121.210427 8.96419377,118.411031 9.14111865,115.729505 C9.31804353,113.106913 9.70138076,110.219116 10.2616429,107.154515 C10.7924175,104.11938 11.500117,101.290518 12.3257664,98.6973933 C13.1219284,96.2221383 14.1834777,93.7763506 15.5399017,91.4189649 C16.8078633,89.1794484 18.2822373,87.2346052 19.9040487,85.7023045 C21.4079101,84.2584057 23.3245963,83.0502456 25.5951322,82.1662259 C27.6887433,81.3411409 30.0182542,80.8991311 32.5541774,80.8107291 C32.8785397,80.9875331 33.4093143,81.2822063 34.3234262,81.8715527 C36.1516499,83.0502456 38.2452609,84.4057423 40.5452843,85.8791084 C43.16967,87.5292784 46.5312427,89.0615791 50.5415399,90.3581413 C54.6402996,91.6841708 58.8570091,92.3619192 63.0147437,92.3619192 C67.1724784,92.3619192 71.3597004,91.6841708 75.4879476,90.3581413 C79.4982448,89.0615791 82.8893049,87.5587457 85.4842031,85.8791084 C87.8432015,84.376275 89.9073251,83.0502456 91.7060613,81.8715527 C92.5906857,81.2822063 93.1509478,80.9875331 93.4753101,80.8107291 C96.0112333,80.8696638 98.3702317,81.3411409 100.434355,82.1662259 C102.675404,83.0502456 104.59209,84.2584057 106.125439,85.7023045 C107.74725,87.2640725 109.221624,89.1794484 110.489586,91.4189649 C111.816522,93.7763506 112.907559,96.2221383 113.703721,98.6973933 C114.52937,101.290518 115.23707,104.11938 115.767845,107.154515 C116.328107,110.219116 116.681956,113.106913 116.888369,115.729505 L116.888369,115.729505 C117.065294,118.411031 117.183244,121.18096 117.183244,124.009822 C117.153756,129.490744 115.59092,133.586702 112.435759,136.592369 Z" id="Shape" fill="url(#linearGradient-2)"></path>
            </g>
        </g>
    </g>
</svg>