<svg height="32" viewBox="0 0 25 32" width="25" xmlns="http://www.w3.org/2000/svg"><g fill="#fff" transform="translate(0 .119048)"><path d="m13.0028375 14.8809524c1.923794 0 3.5865423-.6926196 4.9485204-2.0494728 1.3619781-1.3625305 2.0486421-3.02595301 2.0486421-4.95052722s-.6923389-3.58799675-2.0486421-4.95052717c-1.3619781-1.36253041-3.0247264-2.04947283-4.9485204-2.04947283-1.9237941 0-3.5865424.69261963-4.94852052 2.04947283-1.36197811 1.35685321-2.05431698 3.02595296-2.05431698 4.95052717s.69233887 3.58799672 2.04864208 4.95052722c1.36197811 1.3625304 3.03040132 2.0494728 4.95419542 2.0494728zm-3.74543985-10.74695866c1.04418325-1.04460665 2.26996355-1.54987834 3.74543985-1.54987834 1.4754762 0 2.7012565.50527169 3.7454398 1.54987834 1.0441832 1.04460665 1.5492501 2.27088403 1.5492501 3.74695864 0 1.47607462-.5050669 2.70235202-1.5492501 3.74695862-1.0441833 1.0446067-2.2699636 1.5498784-3.7454398 1.5498784-1.4754763 0-2.7012566-.5052717-3.74543985-1.5498784-1.04418322-1.0446066-1.54929687-2.270884-1.54929687-3.74695862-.00562814-1.47607461.50511365-2.70235199 1.54929687-3.74695864z"/><path d="m24.9356424 23.7302157c-.0409548-.6044579-.1228645-1.263317-.2398783-1.9584435-.1228645-.7011712-.2808331-1.3600302-.4680552-1.9644881-.1930728-.6225916-.4563539-1.2451832-.7839925-1.8315074-.3393401-.616547-.737187-1.14847-1.1818395-1.5897242-.4680552-.459388-1.0355722-.8281073-1.6967002-1.1001133-.6552773-.2659615-1.3866136-.4049868-2.1647555-.4049868-.3042359 0-.6026211.1269361-1.170138.5137892-.3510414.2357385-.7605898.5077446-1.2227943.8160181-.3919963.2599169-.9244091.5017-1.5796864.7193049-.6377253.2115602-1.2930026.3203627-1.9307278.3203627-.643576 0-1.2930026-.1088025-1.9307279-.3203627-.65527729-.2176049-1.18769012-.459388-1.57968637-.7193049-.45635385-.3022289-.86590218-.574235-1.22279429-.8160181-.57336766-.3868531-.86590218-.5137892-1.17013808-.5137892-.77814182 0-1.50947812.1390253-2.16475544.4049868-.66112801.272006-1.22864498.6407253-1.69670021 1.1001133-.44465247.4412542-.84249942.9731772-1.18183946 1.5897242-.32763866.5923687-.59091973 1.2089158-.78399251 1.8315074-.18722209.6044579-.34519073 1.2633169-.46805523 1.9644881-.1228645.6951265-.20477416 1.3539856-.23987831 1.9584435-.04095483.5923687-.0585069 1.2089158-.0585069 1.8254628 0 1.6139025.49730868 2.9255761 1.47437398 3.8866641.97706529.9550435 2.25836648 1.4386098 3.81465012 1.4386098h14.4219518c1.5562836 0 2.8375848-.4835663 3.8087994-1.4325652.982916-.961088 1.4802247-2.2727616 1.4802247-3.8866641 0-.6286362-.0234028-1.2391387-.0643576-1.8315074zm-2.62696 4.4004533c-.6377252.6286362-1.4860753.9369098-2.5977065.9369098h-14.4219518c-1.10578048 0-1.95413058-.3082736-2.59770652-.9369098-.62602388-.616547-.93025978-1.4567434-.93025978-2.5749905 0-.5802796.01755208-1.1545146.05265622-1.7045712.03510414-.5379675.11116312-1.1303363.22232623-1.7589724.10531243-.6225917.245729-1.2028712.40954833-1.7347942.15796864-.5077446.36859349-1.0094446.63772525-1.4930109.25157969-.459388.54411421-.8583302.86590218-1.1726483.29838521-.2961844.67868008-.5440121 1.12918324-.7253494.41539902-.1692482.87760356-.2599169 1.38076293-.2780507.0643576.0362675.16967002.0967133.35104142.2176049.36274281.2417831.77814182.5198337 1.23449567.8220627.52071145.3384964 1.18769015.6528145 1.98338403.918776.813246.272006 1.6498947.4110313 2.474842.4110313.8249474 0 1.6557454-.1390253 2.4748421-.4110313.7956939-.2659615 1.4685233-.574235 1.983384-.918776.4680552-.3082735.8776036-.5802796 1.2344957-.8220627.1755207-.1208916.2866838-.1813374.3510414-.2176049.5031594.0120892.9712146.1088025 1.3807629.2780507.4446525.1813373.8249474.429165 1.1291833.7253494.321788.3203627.6143225.7132603.8659022 1.1726483.263281.4835663.4797566.9852663.6377252 1.4930109.1638193.531923.3042359 1.1122025.4095483 1.7347942.1111632.6286361.1813714 1.2210049.2223263 1.7589724.0351041.5500566.0585069 1.118247.0585069 1.6985266-.0058507 1.1242917-.3159373 1.9644881-.9419612 2.5810351z"/></g></svg>