<svg height="160" viewBox="0 0 182 160" width="182" xmlns="http://www.w3.org/2000/svg" xmlns:xlink="http://www.w3.org/1999/xlink"><linearGradient id="a"><stop offset=".01"/><stop offset=".08" stop-opacity=".69"/><stop offset=".21" stop-opacity=".32"/><stop offset="1" stop-opacity="0"/></linearGradient><linearGradient id="b" x1="46.611127%" x2="58.960582%" xlink:href="#a" y1="44.258343%" y2="64.937257%"/><linearGradient id="c"><stop offset=".01"/><stop offset=".13" stop-opacity=".69"/><stop offset=".25" stop-opacity=".32"/><stop offset="1" stop-opacity="0"/></linearGradient><linearGradient id="d" x1="-112.495947%" x2="619.103102%" xlink:href="#c" y1="38.309588%" y2="90.944848%"/><linearGradient id="e" x1="16.49765%" x2="85.530547%" xlink:href="#a" y1="-84.272981%" y2="185.521983%"/><linearGradient id="f" x1="47.954706%" x2="56.231578%" xlink:href="#c" y1="50.933803%" y2="47.423487%"/><linearGradient id="g" x1="-106.744868%" x2="778.88563%" xlink:href="#c" y1="-23.529412%" y2="471.517028%"/><linearGradient id="h" x1="22.511797%" x2="92.2369%" xlink:href="#c" y1="25.630488%" y2="85.776699%"/><g fill="none" transform="translate(.123457)"><path d="m78.6630374 4.54747092c-3.9376037-1.75356245-8.0231915-3.02817585-12.1903191-3.803111-15.5365615-2.83300135-32.5420565 2.41824433-43.1415389 15.79591568-5.8574483 7.4023584-9.514544 16.7589956-12.4767915 26.1859307-6.35725136 20.2106175-9.99606158 41.1242131-9.97784469 62.5650427.07020211 12.508721 4.35923119 24.494764 11.95877149 33.419574 10.7031001 12.44271 26.5322293 17.124544 41.7030813 18.045445s30.3904653-1.370807 45.561317-.428816c14.354101.892782 28.64725 4.681833 42.97697 3.416473 14.32972-1.265361 29.518857-9.040297 35.187356-24.280861 6.143921-16.534042 1.060558-45.4686168-11.154142-56.6319075-13.781156-12.590336-30.993886-19.2686271-44.202097-32.7236261-5.802592-5.8979854-10.562911-13.0191526-15.951032-19.4162524-8.0029447-9.4831733-17.6393918-17.44088424-28.2937306-22.14380708z" fill="#4a67c6" opacity=".18"/><path d="m128.647802 135.040474c-29.1394931 5.256641-58.6653546 1.218719-88.0450227 1.336185-2.1250266 0-5.0384538 1.240744-4.6990761 4.192098 17.0889734 5.675115 34.8044904 6.122957 52.3581502 6.534091l31.9484966.734168c7.309674.168858 14.619348.345059 21.902916-.242275 2.720243-.212909 5.50314-.557968 7.946659-2.239212 6.881536-4.735381 3.472095-10.95378-2.459183-12.00364-6.301983-1.079226-12.718832.565309-18.95294 1.688585z" fill="url(#b)"/><rect fill="#4a67c6" height="117" rx="7.17" width="82" x="47.876543" y="18"/><rect fill="url(#d)" height="118" rx="7.17" width="82" x="45.876543" y="19"/><rect fill="#fff" height="117" rx="7.17" width="82" x="42.876543" y="23"/><path d="m124.876543 72v60.558608c-.005595 4.111446-3.263873 7.441392-7.281227 7.441392h-67.447687c-4.0157098 0-7.2710858-3.331625-7.2710858-7.441392v-31.737485c54.9134306 12.47497 81.9999998-28.821123 81.9999998-28.821123z" fill="url(#e)"/><path d="m82.8765432 82.4206512v65.5793488h-6v-65.5793488c.0026642-.2513832.0334791-.5016853.0918725-.7462599.0658781-.2439663.1582983-.4800381.2756176-.7040188l.0989397-.1830448 2.5370953-4.7873277 2.636035 4.9703725c.1158427.2238504.2059308.4600207.2685505.7040188.0618525.2439431.0927181.4946567.0918894.7462599z" fill="#4a67c6"/><path d="m82.8765432 82.4206512v65.5793488h-6v-65.5793488c.0026642-.2513832.0334791-.5016853.0918725-.7462599.0658781-.2439663.1582983-.4800381.2756176-.7040188l.0989397-.1830448 2.5370953-4.7873277 2.636035 4.9703725c.1158427.2238504.2059308.4600207.2685505.7040188.0618525.2439431.0927181.4946567.0918894.7462599z" fill="url(#f)"/><g fill="#4a67c6"><path d="m80.0864755 96.5935279v-14.5935279h2.7900677v66h-2.7900677v-49.0955968c0-.644244 0-1.2884881 0-1.9327321-.0693836-.3295757.05208-.6708813.3115124-.8753316.2930865-.2749134.6629875-.4465477 1.0564334-.4901857.2686794.0051871.5356845-.0447963.7855531-.1470557.2266216-.1654545.3801544-.4174576.4266365-.7002652.0693752-.2457897.1058321-.500255.1083522-.7562865.0162463-.0805034-.0065019-.1641408-.0609481-.2240849-.0435235-.0328967-.095192-.0523252-.1489842-.0560212-.3523459-.0497012-.7111253-.0063377-1.0428894.1260478-.236176.1264757-.4863073.2228817-.744921.2871087-.3556602.0442889-.7048029-.1240126-.9006772-.4341644"/><path d="m82.8765432 82.0273808c-1.800203 1.2968256-4.1997969 1.2968256-6 0l.3863913-.9422456 2.6172539-5.0851352 2.7193196 5.2795668c.1195027.2377755.212437.4886374.2770352.747814z"/><path d="m41.8765432 33.4728261c-2.0687687-.1103213-4.1358488.2394454-6.0142687 1.017663 1.8774768.7814856 3.944599 1.1345283 6.0142687 1.0271739v2.482337c-4.4839477 0-9-1.0842391-9-3.5s4.5160523-3.5 9-3.5z"/><path d="m50.8765432 34.2899064c0 2.5607711-4.5160906 3.7100936-9 3.7100936v-2.6212618c3.5721097 0 5.7818832-.7863785 6.2216925-1.2299767.090729-.6850019.731223-1.1864477 1.4644649-1.1465364.7332419.0399112 1.3078602.607497 1.3138426 1.2977631z"/><path d="m41.8765432 47.482337c-2.0687687-.1103213-4.1358488.2394454-6.0142687 1.017663 1.8784199.7782176 3.9455 1.1279843 6.0142687 1.017663v2.482337c-4.4839477 0-9-1.0842391-9-3.5s4.5160523-3.5 9-3.5z"/><path d="m50.8765432 49.2973722c0 2.5556181-4.5160906 3.7026278-9 3.7026278v-2.6260485c3.5721097 0 5.7818832-.7847961 6.2216925-1.2275016.090729-.6836235.731223-1.1840602 1.4644649-1.1442293s1.3078602.6062746 1.3138426 1.2951516z"/><path d="m41.8765432 63.4850949c-2.0697892-.1086769-4.1373556.2434848-6.0142687 1.0243902 1.8784199.7761086 3.9455 1.1249275 6.0142687 1.0149051v2.4756098c-4.4839477 0-9-1.0813008-9-3.4905149s4.5160523-3.5094851 9-3.5094851z"/><path d="m50.8765432 63.5568466c0 3.0667418-4.5160906 4.4431534-9 4.4431534v-3.1512582c3.5721097 0 5.7818832-.9417554 6.2216925-1.473002.090729-.8203481.731223-1.4208722 1.4644649-1.3730751s1.3078602.7275295 1.3138426 1.5541819z"/><path d="m41.8765432 79.4728261c-2.0697892-.1089721-4.1373556.2441465-6.0142687 1.0271739 1.8784199.7782176 3.9455 1.1279843 6.0142687 1.017663v2.482337c-4.4839477 0-9-1.0842391-9-3.5s4.5160523-3.5 9-3.5z"/><path d="m50.8765432 79.5568466c0 3.0667418-4.5160906 4.4431534-9 4.4431534v-3.1512582c3.5721097 0 5.7818832-.9417554 6.2216925-1.473002.090729-.8203481.731223-1.4208722 1.4644649-1.3730751s1.3078602.7275295 1.3138426 1.5541819z"/><path d="m41.8765432 93.8331072c-2.0697892-.1243706-4.1373556.278646-6.0142687 1.1723202 1.8802079.8825517 3.9458778 1.2814704 6.0142687 1.1614654v2.8331072c-4.4839477 0-9-1.2374491-9-3.9945726s4.5160523-4.0054274 9-4.0054274z"/><path d="m50.8765432 95.5654676c0 3.0607914-4.5160906 4.4345324-9 4.4345324v-3.1451439c3.5721097 0 5.7818832-.9399281 6.2216925-1.4821943.0911613-.8208751.73478-1.4206434 1.4697745-1.3696371.7349944.0510063 1.308005.7352048 1.308533 1.5624429z"/><path d="m41.8765432 109.833107c-2.0697892-.12437-4.1373556.278646-6.0142687 1.17232 1.8802079.882552 3.9458778 1.281471 6.0142687 1.161466v2.833107c-4.4839477 0-9-1.237449-9-3.994573 0-2.757123 4.5160523-4.005427 9-4.005427z"/><path d="m50.8765432 110.565468c0 3.060791-4.5160906 4.434532-9 4.434532v-3.145144c3.5721097 0 5.7818832-.939928 6.2216925-1.482194.0911613-.820875.73478-1.420644 1.4697745-1.369637.7349944.051006 1.308005.735204 1.308533 1.562443z"/><path d="m41.8765432 123.478969c-2.0697892-.108824-4.1373556.243815-6.0142687 1.02578 1.8802079.772233 3.9458778 1.121287 6.0142687 1.016282v2.478969c-4.4839477 0-9-1.082768-9-3.495251s4.5160523-3.504749 9-3.504749z"/><path d="m50.8765432 125.565468c0 3.060791-4.5160906 4.434532-9 4.434532v-3.145144c3.5721097 0 5.7818832-.939928 6.2216925-1.482194.0911613-.820875.73478-1.420644 1.4697745-1.369637.7349944.051006 1.308005.735204 1.308533 1.562443z"/></g><path d="m64.5633071 133.04247c-1.0058069 1.579889-2.1566446 3.06676-3.438231 4.442158-1.9760504 2.016233-4.0793065 3.909221-6.2973916 5.667826-1.0929955.921022-2.1715143 1.849128-3.2283179 2.833913-.8686057.807665-1.976078 1.360278-2.1715143 2.6072-.1302909.708478 0 1.6295-.5718321 2.125435-.4414649.331472-1.0423648.373284-1.5272984.106271-.4670272-.272994-.8575128-.655194-1.1364259-1.112311-.1228962-.165102-.2159326-.349622-.2750585-.545528-.0542589-.214021-.0542589-.437778 0-.6518.2316282-1.034378 1.0495653-1.813704 1.7589266-2.6072.6377743-.709131 1.216294-1.467281 1.7299731-2.26713.4290017-.615076.9135014-1.191251 1.4476762-1.721602l4.1837843-4.612193c1.4983449-1.650754 3.04012-3.372356 3.7205279-5.476537.1818546-.84111.4917352-1.650719.9192744-2.401741 1.0712804-1.530313 3.5685218-1.757026 5.2116343-1.034378 1.9977932.913937.4777332 3.393611-.3257271 4.647617z" fill="#ffbbab"/><path d="m55.3556929 130.498661s-1.0780868 9.208252 0 14.185495c.6567683 3.065672.9390524 6.196964.8409077 9.32793-.352175.478717 0 1.189751.5031071 1.513589.5397704.276312 1.1455296.405195 1.7536879.373117l2.4724123.08448c.2904709.053086.5900825-.021569.8193459-.204159.3234261-.344957 0-.922233-.4312347-1.126392-.4312347-.204158-.9415291-.218238-1.3440148-.457596-.7762225-.457597-.8768439-1.492469-.8912184-2.379502l-.0646852-3.857892c-.0934342-5.547478-.1796811-11.123117.7187245-16.600196.0501658-.248688.0501658-.504587 0-.753275-.1902764-.438693-.5453529-.789013-.9918398-.978552-.4507468-.295133-.9562029-.500825-1.4877598-.605436-.5456116-.093002-1.0956959.139101-1.4015128.591356" fill="#ffbbab"/><path d="m69.1730062 96.9095249 1.3886822.7810594c.6691577.3757927 1.4390488 1.0684303 2.1585732.7957963 1.2016058-.4789515 2.4319926-1.70212 3.4896935-2.4684424s2.2880877-1.6947515 3.4249363-2.5642327c.2994476-.1940449.5606119-.4440004.7698911-.7368485.3381765-.5747418.3453717-1.4221176.9353817-1.716857l.3309813 1.473697 1.8203968-.987377c.2139328-.1417421.4648231-.2136828.7195244-.2063176.4892766.0884218.7195244.7000061.6547672 1.2084315-.1439049 1.7021201-1.8491778 2.2473879-3.2018837 2.6747601-.3656946.0893426-.7204715.2203351-1.0577009.3905297-.2596043.1555584-.5010102.340972-.7195244.5526363-1.2367017 1.0170718-2.3524192 2.1794375-3.3242028 3.4631879-.438602.6395621-.919407 1.2476531-1.4390489 1.8200161-.4053658.616146-.9511351 1.121947-1.590149 1.473697-.4866779.159499-1.0066462.179881-1.503806.058948-1.8060063-.346319-3.475303-1.60633-4.8927661-2.748445-.1582954-.125265-.3309812-.3242136-.2302478-.5010573.0591385-.0764585.139361-.1329394.2302478-.1621067.555491-.2024789 1.0509683-.5475156 1.4390489-1.0021139.4334649-.4071985.6546739-.9994651.5972052-1.5989612z" fill="#ffbbab"/><path d="m65.5858035 88.1055572c-.2542836.4595845-.7076168.7738092-1.2258977.8497223-.1319294-.0154941-.2652635.0131824-.3792833.0815733-.0882784.1134422-.120649.2608945-.0880479.4010689l.1354583 1.7538269c.0272399.1382328.0081907.2816262-.0541833.4078667-.1061521.1283267-.2556056.2130053-.4199208.2379222-.636654.1767423-1.4155393.3126978-1.8625517-.1699444-.2111158-.2801818-.3380153-.6151055-.3657374-.9652846-.4374536-1.9873116-.5563438-4.0319265-.3521916-6.0568206.0908057-1.2410068.716584-2.3804796 1.7135476-3.1201803 1.2123518-.7341601 4.3143471-.9584867 4.1856617 1.0808468-.13223.8148798-.220407 1.6363472-.2641437 2.4607958.0067101 1.0990701-.35332 2.1687671-1.0227102 3.038607z" fill="#ffbbab"/><path d="m66.7765303 79.8369214c.1333505.3820725.1333505.8008672 0 1.1829396-.2142285.3490024-.5559789.5916764-.9460653.6717928-.9460653.2701776-1.9622096.1971566-2.8872512.5038446-.1519723.0402916-.2902452.1237051-.3994498.2409692-.0827064.1383478-.1286567.2971059-.13315.460032-.2103719 1.9066955-.1537168 3.8351261.1681894 5.7248433-1.7045596.5263874-3.5220305.5034789-5.2138711-.0657189-.5568932-.1096822-.9850995-.5764132-1.0651995-1.1610332-.7954941-2.7102044-.459747-5.6441098.9250417-8.0834203.6312585-1.2890234 1.8782451-2.1255068 3.2656773-2.1906288 2.2845726-.3431985 5.6904078-.1022293 6.2860785 2.7163797z" fill="#ffa300"/><path d="m64.712933 109.538598c-.1438332 4.459659 1.5318231 8.654111 2.7831715 12.946271.5537577 1.863425 1.1650486 3.782684.9564905 5.708922.0035852.051121.0035852.102419 0 .15354-6.0625674 1.695927-12.7076591 2.540401-18.5760518.279165.6250603-3.005963.9573404-6.062325.9924488-9.128691-.0533569-1.210378.0310564-2.422774.251708-3.615185.4746494-2.030925 1.826681-3.754768 3.2362459-5.32507.5689068-.544598 1.0146698-1.198235 1.3088817-1.919259.1708064-.685554.2001363-1.397132.0862999-2.093736-.2550119-2.303812-.3127429-4.624176-.1725998-6.937247.146467-2.095718.6978238-4.1460016 1.6253147-6.0439194.3944709-.8650963.9421307-1.6564031 1.618123-2.3380058.683706-.6829408 1.5918794-1.1124985 2.5674218-1.2143672.9906779-.087093 1.9536502.3468833 2.5242718 1.1375968 1.4742898 2.2054025 3.9338367 2.7009201 5.7533261 4.6829907.1081042.0930476.1814364.2181997.2085581.3559352-.0023894.1508262-.058265.2962459-.1582165.4117682-.6256742.9700979-1.2585401 1.9401958-1.8842143 2.9172729-.1952495.3080887-.4165559.5998906-.6616325.8723906-.2229414.223331-.4962244.404789-.7191657.628121-.5809897.700117-.9406707 1.548505-1.0355987 2.442692-.396917 2.005483-.6325546 4.03788-.7047825 6.078815z" fill="#4a67c6"/><path d="m62.6334139 154.696289-.5778942-.16273c-.4618693-.150471-.944291-.245732-1.4345374-.28327-.0837113-.00625-.1678554.006183-.2447552.036162-.098099.053941-.1742942.134153-.2175602.229027-.0800181.145723-.19624.273479-.3399378.373676-.312789.117904-.6662317.117904-.9790207 0-.3396931-.068211-.6685399-.173482-.9790208-.313405-.305944-.150676-.5642967-.367649-.8770395-.500243-.1750798-.08599-.3840064-.099219-.5710954-.036163-.0906656.047972-.1674812.114005-.224359.192865-.128027.120973-.2253872.264821-.2855477.421892-.0348037.155184-.0348037.314924 0 .470108.0075745.137794.0518404.27204.1291764.391757.1948883.169348.4619585.257035.7342656.241081l2.8282822.156702c.8838382.048216 1.7676764.096433 2.6583134.084379.4873812.00825.9739751-.038329 1.4481349-.138622.0679875 0 .1427738-.036162.1631701-.096432.0167395-.03881.0167395-.081731 0-.120541-.3333025-.505398-.8822894-.870401-1.5229212-1.01254" fill="#4a67c6"/><path d="m47.0697131 148.12101c.0863405.271801 0 .57675.0784914.848551.0843091.214295.2176541.41251.3924567.583379l.7849134.822034c.0869737.104409.1960842.194315.3218145.265173.3457692.114973.7326425.10296 1.0674823-.033147.0937373-.040159.2045297-.040159.2982671 0 .0517028.040797.0873219.094021.1020387.152474l.4552498 1.325862c.1881453.556731.2910223 1.131535.3061162 1.710361-.0626965.070546-.1467543.125509-.2433231.159103-.7221204.311578-1.9622836-1.073948-2.5823652-1.518111-.5835034-.484896-1.0313495-1.073783-1.3108054-1.72362-.1805301-.338095-.3453619-.662931-.5023446-1.020913-.1815616-.313353-.3034148-.648949-.3610601-.994396-.0042261-.195202.1237458-.375342.3296636-.464052.2119266-.072922.7692151-.411017.8634047-.112698z" fill="#4a67c6"/><path d="m78.8765432 78h2l-.9970674-2z" fill="url(#g)"/><path d="m68.8357038 129.82835c-.8607497.299407-1.8084547.203911-2.5933217-.261317-1.3527326-.854577-1.8924239-2.556669-2.1026932-4.145759-.5396913-3.481874-.2172783-7.253315-2.0396124-10.261992-.5537092-.911078-1.3246968-1.836282-1.2125531-2.909801.1121436-1.073519 1.1564813-1.871595 1.7522443-2.825049.5703131-1.089362.8754162-2.29975.8901402-3.531312.2032603-2.295352.4065207-4.597767.61679-6.89312 0 .5791351 2.5232318 1.815094 3.4414079 2.704985-.2172783.226004-.4836195.409632-.7008978.635636-.5662315.708494-.916776 1.567033-1.0092927 2.471918-.3747118 2.028083-.5926445 4.082413-.6518349 6.144482-.1401795 4.513016 1.4929122 8.757653 2.7124743 13.101166.5046463 1.878658 1.1004094 3.820879.8971491 5.770163z" fill="url(#h)"/></g></svg>