<?xml version="1.0" encoding="UTF-8"?>
<svg width="182px" height="160px" viewBox="0 0 182 160" version="1.1" xmlns="http://www.w3.org/2000/svg" xmlns:xlink="http://www.w3.org/1999/xlink">
    <title>Video tutorial _Monochromatic</title>
    <defs>
        <linearGradient x1="46.6111265%" y1="44.2583431%" x2="58.9605816%" y2="64.9372568%" id="linearGradient-1">
            <stop stop-color="#000000" offset="1%"></stop>
            <stop stop-color="#000000" stop-opacity="0.69" offset="8%"></stop>
            <stop stop-color="#000000" stop-opacity="0.32" offset="21%"></stop>
            <stop stop-color="#000000" stop-opacity="0" offset="100%"></stop>
        </linearGradient>
        <linearGradient x1="-112.495947%" y1="38.3095883%" x2="619.103102%" y2="90.9448475%" id="linearGradient-2">
            <stop stop-color="#000000" offset="1%"></stop>
            <stop stop-color="#000000" stop-opacity="0.69" offset="13%"></stop>
            <stop stop-color="#000000" stop-opacity="0.32" offset="25%"></stop>
            <stop stop-color="#000000" stop-opacity="0" offset="100%"></stop>
        </linearGradient>
        <linearGradient x1="16.4976503%" y1="-84.2729813%" x2="85.5305466%" y2="185.521983%" id="linearGradient-3">
            <stop stop-color="#000000" offset="1%"></stop>
            <stop stop-color="#000000" stop-opacity="0.69" offset="8%"></stop>
            <stop stop-color="#000000" stop-opacity="0.32" offset="21%"></stop>
            <stop stop-color="#000000" stop-opacity="0" offset="100%"></stop>
        </linearGradient>
        <linearGradient x1="47.9547064%" y1="50.9338027%" x2="56.2315775%" y2="47.4234868%" id="linearGradient-4">
            <stop stop-color="#000000" offset="1%"></stop>
            <stop stop-color="#000000" stop-opacity="0.69" offset="13%"></stop>
            <stop stop-color="#000000" stop-opacity="0.32" offset="25%"></stop>
            <stop stop-color="#000000" stop-opacity="0" offset="100%"></stop>
        </linearGradient>
        <linearGradient x1="-106.744868%" y1="-23.5294118%" x2="778.88563%" y2="471.517028%" id="linearGradient-5">
            <stop stop-color="#000000" offset="1%"></stop>
            <stop stop-color="#000000" stop-opacity="0.69" offset="13%"></stop>
            <stop stop-color="#000000" stop-opacity="0.32" offset="25%"></stop>
            <stop stop-color="#000000" stop-opacity="0" offset="100%"></stop>
        </linearGradient>
        <linearGradient x1="22.5117966%" y1="25.6304876%" x2="92.2368998%" y2="85.7766985%" id="linearGradient-6">
            <stop stop-color="#000000" offset="1%"></stop>
            <stop stop-color="#000000" stop-opacity="0.69" offset="13%"></stop>
            <stop stop-color="#000000" stop-opacity="0.32" offset="25%"></stop>
            <stop stop-color="#000000" stop-opacity="0" offset="100%"></stop>
        </linearGradient>
    </defs>
    <g id="Page-1" stroke="none" stroke-width="1" fill="none" fill-rule="evenodd">
        <g id="About-desktop" transform="translate(-562.000000, -660.000000)" fill-rule="nonzero">
            <g id="Video-tutorial-_Monochromatic" transform="translate(562.123457, 660.000000)">
                <path d="M78.6630374,4.54747092 C74.7254337,2.79390847 70.6398459,1.51929507 66.4727183,0.74435992 C50.9361568,-2.08864143 33.9306618,3.16260425 23.3311794,16.5402756 C17.4737311,23.942634 13.8166354,33.2992712 10.8543879,42.7262063 C4.49713654,62.9368238 0.858326317,83.8504194 0.87654321,105.291249 C0.946745318,117.79997 5.2357744,129.786013 12.8353147,138.710823 C23.5384148,151.153533 39.367544,155.835367 54.538396,156.756268 C69.709248,157.677169 84.9288613,155.385461 100.099713,156.327452 C114.453814,157.220234 128.746963,161.009285 143.076683,159.743925 C157.406403,158.478564 172.59554,150.703628 178.264039,135.463064 C184.40796,118.929022 179.324597,89.9944472 167.109897,78.8311565 C153.328741,66.2408205 136.116011,59.5625294 122.9078,46.1075304 C117.105208,40.209545 112.344889,33.0883778 106.956768,26.691278 C98.9538233,17.2081047 89.3173762,9.25039376 78.6630374,4.54747092 Z" id="Path" fill="#4A67C6" opacity="0.18"></path>
                <path d="M128.647802,135.040474 C99.5083089,140.297115 69.9824474,136.259193 40.6027793,136.376659 C38.4777527,136.376659 35.5643255,137.617403 35.9037032,140.568757 C52.9926766,146.243872 70.7081936,146.691714 88.2618534,147.102848 L120.21035,147.837016 C127.520024,148.005874 134.829698,148.182075 142.113266,147.594741 C144.833509,147.381832 147.616406,147.036773 150.059925,145.355529 C156.941461,140.620148 153.53202,134.401749 147.600742,133.351889 C141.298759,132.272663 134.88191,133.917198 128.647802,135.040474 Z" id="Path" fill="url(#linearGradient-1)"></path>
                <rect id="Rectangle" fill="#4A67C6" x="47.8765432" y="18" width="82" height="117" rx="7.17"></rect>
                <rect id="Rectangle" fill="url(#linearGradient-2)" x="45.8765432" y="19" width="82" height="118" rx="7.17"></rect>
                <rect id="Rectangle" fill="#FFFFFF" x="42.8765432" y="23" width="82" height="117" rx="7.17"></rect>
                <path d="M124.876543,72 L124.876543,132.558608 C124.870948,136.670054 121.61267,140 117.595316,140 L50.147629,140 C46.1319192,140 42.8765432,136.668375 42.8765432,132.558608 L42.8765432,100.821123 C97.7899738,113.296093 124.876543,72 124.876543,72 Z" id="Path" fill="url(#linearGradient-3)"></path>
                <path d="M82.8765432,82.4206512 L82.8765432,148 L76.8765432,148 L76.8765432,82.4206512 C76.8792074,82.169268 76.9100223,81.9189659 76.9684157,81.6743913 L76.9684157,81.6743913 C77.0342938,81.430425 77.126714,81.1943532 77.2440333,80.9703725 L77.342973,80.7873277 L79.8800683,76 L82.5161033,80.9703725 C82.631946,81.1942229 82.7220341,81.4303932 82.7846538,81.6743913 C82.8465063,81.9183344 82.8773719,82.169048 82.8765432,82.4206512 L82.8765432,82.4206512 Z" id="Path" fill="#4A67C6"></path>
                <path d="M82.8765432,82.4206512 L82.8765432,148 L76.8765432,148 L76.8765432,82.4206512 C76.8792074,82.169268 76.9100223,81.9189659 76.9684157,81.6743913 L76.9684157,81.6743913 C77.0342938,81.430425 77.126714,81.1943532 77.2440333,80.9703725 L77.342973,80.7873277 L79.8800683,76 L82.5161033,80.9703725 C82.631946,81.1942229 82.7220341,81.4303932 82.7846538,81.6743913 C82.8465063,81.9183344 82.8773719,82.169048 82.8765432,82.4206512 L82.8765432,82.4206512 Z" id="Path" fill="url(#linearGradient-4)"></path>
                <path d="M80.0864755,96.5935279 L80.0864755,82 L82.8765432,82 L82.8765432,148 L80.0864755,148 L80.0864755,98.9044032 C80.0864755,98.2601592 80.0864755,97.6159151 80.0864755,96.9716711 C80.0170919,96.6420954 80.1385555,96.3007898 80.3979879,96.0963395 C80.6910744,95.8214261 81.0609754,95.6497918 81.4544213,95.6061538 C81.7231007,95.6113409 81.9901058,95.5613575 82.2399744,95.4590981 C82.466596,95.2936436 82.6201288,95.0416405 82.6666109,94.7588329 C82.7359861,94.5130432 82.772443,94.2585779 82.7749631,94.0025464 C82.7912094,93.922043 82.7684612,93.8384056 82.714015,93.7784615 C82.6704915,93.7455648 82.618823,93.7261363 82.5650308,93.7224403 C82.2126849,93.6727391 81.8539055,93.7161026 81.5221414,93.8484881 C81.2859654,93.9749638 81.0358341,94.0713698 80.7772204,94.1355968 C80.4215602,94.1798857 80.0724175,94.0115842 79.8765432,93.7014324" id="Path" fill="#4A67C6"></path>
                <path d="M82.8765432,82.0273808 C81.0763402,83.3242064 78.6767463,83.3242064 76.8765432,82.0273808 L76.8765432,82.0273808 L77.2629345,81.0851352 L79.8801884,76 L82.599508,81.2795668 C82.7190107,81.5173423 82.811945,81.7682042 82.8765432,82.0273808 Z" id="Path" fill="#4A67C6"></path>
                <path d="M41.8765432,33.4728261 C39.8077745,33.3625048 37.7406944,33.7122715 35.8622745,34.4904891 C37.7397513,35.2719747 39.8068735,35.6250174 41.8765432,35.517663 L41.8765432,38 C37.3925955,38 32.8765432,36.9157609 32.8765432,34.5 C32.8765432,32.0842391 37.3925955,31 41.8765432,31 L41.8765432,33.4728261 Z" id="Path" fill="#4A67C6"></path>
                <path d="M50.8765432,34.2899064 C50.8765432,36.8506775 46.3604526,38 41.8765432,38 L41.8765432,35.3787382 C45.4486529,35.3787382 47.6584264,34.5923597 48.0982357,34.1487615 C48.1889647,33.4637596 48.8294587,32.9623138 49.5627006,33.0022251 C50.2959425,33.0421363 50.8705608,33.6097221 50.8765432,34.2999882 L50.8765432,34.2899064 Z" id="Path" fill="#4A67C6"></path>
                <path d="M41.8765432,47.482337 C39.8077745,47.3720157 37.7406944,47.7217824 35.8622745,48.5 C37.7406944,49.2782176 39.8077745,49.6279843 41.8765432,49.517663 L41.8765432,52 C37.3925955,52 32.8765432,50.9157609 32.8765432,48.5 C32.8765432,46.0842391 37.3925955,45 41.8765432,45 L41.8765432,47.482337 Z" id="Path" fill="#4A67C6"></path>
                <path d="M50.8765432,49.2973722 C50.8765432,51.8529903 46.3604526,53 41.8765432,53 L41.8765432,50.3739515 C45.4486529,50.3739515 47.6584264,49.5891554 48.0982357,49.1464499 C48.1889647,48.4628264 48.8294587,47.9623897 49.5627006,48.0022206 C50.2959425,48.0420515 50.8705608,48.6084952 50.8765432,49.2973722 L50.8765432,49.2973722 Z" id="Path" fill="#4A67C6"></path>
                <path d="M41.8765432,63.4850949 C39.806754,63.376418 37.7391876,63.7285797 35.8622745,64.5094851 C37.7406944,65.2855937 39.8077745,65.6344126 41.8765432,65.5243902 L41.8765432,68 C37.3925955,68 32.8765432,66.9186992 32.8765432,64.5094851 C32.8765432,62.100271 37.3925955,61 41.8765432,61 L41.8765432,63.4850949 Z" id="Path" fill="#4A67C6"></path>
                <path d="M50.8765432,63.5568466 C50.8765432,66.6235884 46.3604526,68 41.8765432,68 L41.8765432,64.8487418 C45.4486529,64.8487418 47.6584264,63.9069864 48.0982357,63.3757398 C48.1889647,62.5553917 48.8294587,61.9548676 49.5627006,62.0026647 C50.2959425,62.0504618 50.8705608,62.7301942 50.8765432,63.5568466 L50.8765432,63.5568466 Z" id="Path" fill="#4A67C6"></path>
                <path d="M41.8765432,79.4728261 C39.806754,79.363854 37.7391876,79.7169726 35.8622745,80.5 C37.7406944,81.2782176 39.8077745,81.6279843 41.8765432,81.517663 L41.8765432,84 C37.3925955,84 32.8765432,82.9157609 32.8765432,80.5 C32.8765432,78.0842391 37.3925955,77 41.8765432,77 L41.8765432,79.4728261 Z" id="Path" fill="#4A67C6"></path>
                <path d="M50.8765432,79.5568466 C50.8765432,82.6235884 46.3604526,84 41.8765432,84 L41.8765432,80.8487418 C45.4486529,80.8487418 47.6584264,79.9069864 48.0982357,79.3757398 C48.1889647,78.5553917 48.8294587,77.9548676 49.5627006,78.0026647 C50.2959425,78.0504618 50.8705608,78.7301942 50.8765432,79.5568466 L50.8765432,79.5568466 Z" id="Path" fill="#4A67C6"></path>
                <path d="M41.8765432,93.8331072 C39.806754,93.7087366 37.7391876,94.1117532 35.8622745,95.0054274 C37.7424824,95.8879791 39.8081523,96.2868978 41.8765432,96.1668928 L41.8765432,99 C37.3925955,99 32.8765432,97.7625509 32.8765432,95.0054274 C32.8765432,92.2483039 37.3925955,91 41.8765432,91 L41.8765432,93.8331072 Z" id="Path" fill="#4A67C6"></path>
                <path d="M50.8765432,95.5654676 C50.8765432,98.626259 46.3604526,100 41.8765432,100 L41.8765432,96.8548561 C45.4486529,96.8548561 47.6584264,95.914928 48.0982357,95.3726618 C48.189397,94.5517867 48.8330157,93.9520184 49.5680102,94.0030247 C50.3030046,94.054031 50.8760152,94.7382295 50.8765432,95.5654676 L50.8765432,95.5654676 Z" id="Path" fill="#4A67C6"></path>
                <path d="M41.8765432,109.833107 C39.806754,109.708737 37.7391876,110.111753 35.8622745,111.005427 C37.7424824,111.887979 39.8081523,112.286898 41.8765432,112.166893 L41.8765432,115 C37.3925955,115 32.8765432,113.762551 32.8765432,111.005427 C32.8765432,108.248304 37.3925955,107 41.8765432,107 L41.8765432,109.833107 Z" id="Path" fill="#4A67C6"></path>
                <path d="M50.8765432,110.565468 C50.8765432,113.626259 46.3604526,115 41.8765432,115 L41.8765432,111.854856 C45.4486529,111.854856 47.6584264,110.914928 48.0982357,110.372662 C48.189397,109.551787 48.8330157,108.952018 49.5680102,109.003025 C50.3030046,109.054031 50.8760152,109.738229 50.8765432,110.565468 L50.8765432,110.565468 Z" id="Path" fill="#4A67C6"></path>
                <path d="M41.8765432,123.478969 C39.806754,123.370145 37.7391876,123.722784 35.8622745,124.504749 C37.7424824,125.276982 39.8081523,125.626036 41.8765432,125.521031 L41.8765432,128 C37.3925955,128 32.8765432,126.917232 32.8765432,124.504749 C32.8765432,122.092266 37.3925955,121 41.8765432,121 L41.8765432,123.478969 Z" id="Path" fill="#4A67C6"></path>
                <path d="M50.8765432,125.565468 C50.8765432,128.626259 46.3604526,130 41.8765432,130 L41.8765432,126.854856 C45.4486529,126.854856 47.6584264,125.914928 48.0982357,125.372662 C48.189397,124.551787 48.8330157,123.952018 49.5680102,124.003025 C50.3030046,124.054031 50.8760152,124.738229 50.8765432,125.565468 L50.8765432,125.565468 Z" id="Path" fill="#4A67C6"></path>
                <path d="M64.5633071,133.04247 C63.5575002,134.622359 62.4066625,136.10923 61.1250761,137.484628 C59.1490257,139.500861 57.0457696,141.393849 54.8276845,143.152454 C53.734689,144.073476 52.6561702,145.001582 51.5993666,145.986367 C50.7307609,146.794032 49.6232886,147.346645 49.4278523,148.593567 C49.2975614,149.302045 49.4278523,150.223067 48.8560202,150.719002 C48.4145553,151.050474 47.8136554,151.092286 47.3287218,150.825273 C46.8616946,150.552279 46.471209,150.170079 46.1922959,149.712962 C46.0693997,149.54786 45.9763633,149.36334 45.9172374,149.167434 C45.8629785,148.953413 45.8629785,148.729656 45.9172374,148.515634 C46.1488656,147.481256 46.9668027,146.70193 47.676164,145.908434 C48.3139383,145.199303 48.892458,144.441153 49.4061371,143.641304 C49.8351388,143.026228 50.3196385,142.450053 50.8538133,141.919702 L55.0375976,137.307509 C56.5359425,135.656755 58.0777176,133.935153 58.7581255,131.830972 C58.9399801,130.989862 59.2498607,130.180253 59.6773999,129.429231 C60.7486803,127.898918 63.2459217,127.672205 64.8890342,128.394853 C66.8868274,129.30879 65.3667674,131.788464 64.5633071,133.04247 Z" id="Path" fill="#FFBBAB"></path>
                <path d="M55.3556929,130.498661 C55.3556929,130.498661 54.2776061,139.706913 55.3556929,144.684156 C56.0124612,147.749828 56.2947453,150.88112 56.1966006,154.012086 C55.8444256,154.490803 56.1966006,155.201837 56.6997077,155.525675 C57.2394781,155.801987 57.8452373,155.93087 58.4533956,155.898792 L60.9258079,155.983272 C61.2162788,156.036358 61.5158904,155.961703 61.7451538,155.779113 C62.0685799,155.434156 61.7451538,154.85688 61.3139191,154.652721 C60.8826844,154.448563 60.37239,154.434483 59.9699043,154.195125 C59.1936818,153.737528 59.0930604,152.702656 59.0786859,151.815623 L59.0140007,147.957731 C58.9205665,142.410253 58.8343196,136.834614 59.7327252,131.357535 C59.782891,131.108847 59.782891,130.852948 59.7327252,130.60426 C59.5424488,130.165567 59.1873723,129.815247 58.7408854,129.625708 C58.2901386,129.330575 57.7846825,129.124883 57.2531256,129.020272 C56.707514,128.92727 56.1574297,129.159373 55.8516128,129.611628" id="Path" fill="#FFBBAB"></path>
                <path d="M69.1730062,96.9095249 L70.5616884,97.6905843 C71.2308461,98.066377 72.0007372,98.7590146 72.7202616,98.4863806 C73.9218674,98.0074291 75.1522542,96.7842606 76.2099551,96.0179382 C77.267656,95.2516158 78.4980428,94.3231867 79.6348914,93.4537055 C79.934339,93.2596606 80.1955033,93.0097051 80.4047825,92.716857 C80.742959,92.1421152 80.7501542,91.2947394 81.3401642,91 L81.6711455,92.473697 L83.4915423,91.48632 C83.7054751,91.3445779 83.9563654,91.2726372 84.2110667,91.2800024 C84.7003433,91.3684242 84.9305911,91.9800085 84.8658339,92.4884339 C84.721929,94.190554 83.0166561,94.7358218 81.6639502,95.163194 C81.2982556,95.2525366 80.9434787,95.3835291 80.6062493,95.5537237 C80.346645,95.7092821 80.1052391,95.8946957 79.8867249,96.10636 C78.6500232,97.1234318 77.5343057,98.2857975 76.5625221,99.5695479 C76.1239201,100.20911 75.6431151,100.817201 75.1234732,101.389564 C74.7181074,102.00571 74.1723381,102.511511 73.5333242,102.863261 C73.0466463,103.02276 72.526678,103.043142 72.0295182,102.922209 C70.2235119,102.57589 68.5542152,101.315879 67.1367521,100.173764 C66.9784567,100.048499 66.8057709,99.8495504 66.9065043,99.6727067 C66.9656428,99.5962482 67.0458653,99.5397673 67.1367521,99.5106 C67.6922431,99.3081211 68.1877204,98.9630844 68.575801,98.5084861 C69.0092659,98.1012876 69.2304749,97.509021 69.1730062,96.9095249 Z" id="Path" fill="#FFBBAB"></path>
                <path d="M65.5858035,88.1055572 C65.3315199,88.5651417 64.8781867,88.8793664 64.3599058,88.9552795 C64.2279764,88.9397854 64.0946423,88.9684619 63.9806225,89.0368528 C63.8923441,89.150295 63.8599735,89.2977473 63.8925746,89.4379217 L64.0280329,91.1917486 C64.0552728,91.3299814 64.0362236,91.4733748 63.9738496,91.5996153 C63.8676975,91.727942 63.718244,91.8126206 63.5539288,91.8375375 C62.9172748,92.0142798 62.1383895,92.1502353 61.6913771,91.6675931 C61.4802613,91.3874113 61.3533618,91.0524876 61.3256397,90.7023085 C60.8881861,88.7149969 60.7692959,86.670382 60.9734481,84.6454879 C61.0642538,83.4044811 61.6900321,82.2650083 62.6869957,81.5253076 C63.8993475,80.7911475 67.0013428,80.5668209 66.8726574,82.6061544 C66.7404274,83.4210342 66.6522504,84.2425016 66.6085137,85.0669502 C66.6152238,86.1660203 66.2551937,87.2357173 65.5858035,88.1055572 L65.5858035,88.1055572 Z" id="Path" fill="#FFBBAB"></path>
                <path d="M66.7765303,79.8369214 C66.9098808,80.2189939 66.9098808,80.6377886 66.7765303,81.019861 C66.5623018,81.3688634 66.2205514,81.6115374 65.830465,81.6916538 C64.8843997,81.9618314 63.8682554,81.8888104 62.9432138,82.1954984 C62.7912415,82.23579 62.6529686,82.3192035 62.543764,82.4364676 C62.4610576,82.5748154 62.4151073,82.7335735 62.410614,82.8964996 C62.2002421,84.8031951 62.2568972,86.7316257 62.5788034,88.6213429 C60.8742438,89.1477303 59.0567729,89.1248218 57.3649323,88.555624 C56.8080391,88.4459418 56.3798328,87.9792108 56.2997328,87.3945908 C55.5042387,84.6843864 55.8399858,81.750481 57.2247745,79.3111705 C57.856033,78.0221471 59.1030196,77.1856637 60.4904518,77.1205417 C62.7750244,76.7773432 66.1808596,77.0183124 66.7765303,79.8369214 Z" id="Path" fill="#FFA300"></path>
                <path d="M64.712933,109.538598 C64.5690998,113.998257 66.2447561,118.192709 67.4961045,122.484869 C68.0498622,124.348294 68.6611531,126.267553 68.452595,128.193791 C68.4561802,128.244912 68.4561802,128.29621 68.452595,128.347331 C62.3900276,130.043258 55.7449359,130.887732 49.8765432,128.626496 C50.5016035,125.620533 50.8338836,122.564171 50.868992,119.497805 C50.8156351,118.287427 50.9000484,117.075031 51.1207,115.88262 C51.5953494,113.851695 52.947381,112.127852 54.3569459,110.55755 C54.9258527,110.012952 55.3716157,109.359315 55.6658276,108.638291 C55.836634,107.952737 55.8659639,107.241159 55.7521275,106.544555 C55.4971156,104.240743 55.4393846,101.920379 55.5795277,99.607308 C55.7259947,97.51159 56.2773515,95.4613064 57.2048424,93.5633886 C57.5993133,92.6982923 58.1469731,91.9069855 58.8229654,91.2253828 C59.5066714,90.542442 60.4148448,90.1128843 61.3903872,90.0110156 C62.3810651,89.9239226 63.3440374,90.3578989 63.914659,91.1486124 C65.3889488,93.3540149 67.8484957,93.8495325 69.6679851,95.8316031 C69.7760893,95.9246507 69.8494215,96.0498028 69.8765432,96.1875383 C69.8741538,96.3383645 69.8182782,96.4837842 69.7183267,96.5993065 C69.0926525,97.5694044 68.4597866,98.5395023 67.8341124,99.5165794 C67.6388629,99.8246681 67.4175565,100.11647 67.1724799,100.38897 L67.1724799,100.38897 C66.9495385,100.612301 66.6762555,100.793759 66.4533142,101.017091 C65.8723245,101.717208 65.5126435,102.565596 65.4177155,103.459783 C65.0207985,105.465266 64.7851609,107.497663 64.712933,109.538598 L64.712933,109.538598 Z" id="Path" fill="#4A67C6"></path>
                <path d="M62.6334139,154.696289 L62.0555197,154.533559 C61.5936504,154.383088 61.1112287,154.287827 60.6209823,154.250289 C60.537271,154.244039 60.4531269,154.256472 60.3762271,154.286451 C60.2781281,154.340392 60.2019329,154.420604 60.1586669,154.515478 C60.0786488,154.661201 59.9624269,154.788957 59.8187291,154.889154 C59.5059401,155.007058 59.1524974,155.007058 58.8397084,154.889154 C58.5000153,154.820943 58.1711685,154.715672 57.8606876,154.575749 C57.5547436,154.425073 57.2963909,154.2081 56.9836481,154.075506 C56.8085683,153.989516 56.5996417,153.976287 56.4125527,154.039343 C56.3218871,154.087315 56.2450715,154.153348 56.1881937,154.232208 C56.0601667,154.353181 55.9628065,154.497029 55.902646,154.6541 C55.8678423,154.809284 55.8678423,154.969024 55.902646,155.124208 C55.9102205,155.262002 55.9544864,155.396248 56.0318224,155.515965 C56.2267107,155.685313 56.4937809,155.773 56.766088,155.757046 L59.5943702,155.913748 C60.4782084,155.961964 61.3620466,156.010181 62.2526836,155.998127 C62.7400648,156.006377 63.2266587,155.959798 63.7008185,155.859505 C63.768806,155.859505 63.8435923,155.823343 63.8639886,155.763073 C63.8807281,155.724263 63.8807281,155.681342 63.8639886,155.642532 C63.5306861,155.137134 62.9816992,154.772131 62.3410674,154.629992" id="Path" fill="#4A67C6"></path>
                <path d="M47.0697131,148.12101 C47.1560536,148.392811 47.0697131,148.69776 47.1482045,148.969561 C47.2325136,149.183856 47.3658586,149.382071 47.5406612,149.55294 L48.3255746,150.374974 C48.4125483,150.479383 48.5216588,150.569289 48.6473891,150.640147 C48.9931583,150.75512 49.3800316,150.743107 49.7148714,150.607 C49.8086087,150.566841 49.9194011,150.566841 50.0131385,150.607 C50.0648413,150.647797 50.1004604,150.701021 50.1151772,150.759474 L50.570427,152.085336 C50.7585723,152.642067 50.8614493,153.216871 50.8765432,153.795697 C50.8138467,153.866243 50.7297889,153.921206 50.6332201,153.9548 C49.9110997,154.266378 48.6709365,152.880852 48.0508549,152.436689 C47.4673515,151.951793 47.0195054,151.362906 46.7400495,150.713069 C46.5595194,150.374974 46.3946876,150.050138 46.2377049,149.692156 C46.0561433,149.378803 45.9342901,149.043207 45.8766448,148.69776 C45.8724187,148.502558 46.0003906,148.322418 46.2063084,148.233708 C46.418235,148.160786 46.9755235,147.822691 47.0697131,148.12101 Z" id="Path" fill="#4A67C6"></path>
                <polygon id="Path" fill="url(#linearGradient-5)" points="78.8765432 78 80.8765432 78 79.8794758 76"></polygon>
                <path d="M68.8357038,129.82835 C67.9749541,130.127757 67.0272491,130.032261 66.2423821,129.567033 C64.8896495,128.712456 64.3499582,127.010364 64.1396889,125.421274 C63.5999976,121.9394 63.9224106,118.167959 62.1000765,115.159282 C61.5463673,114.248204 60.7753797,113.323 60.8875234,112.249481 C60.999667,111.175962 62.0440047,110.377886 62.6397677,109.424432 C63.2100808,108.33507 63.5151839,107.124682 63.5299079,105.89312 C63.7331682,103.597768 63.9364286,101.295353 64.1466979,99 C64.1466979,99.5791351 66.6699297,100.815094 67.5881058,101.704985 C67.3708275,101.930989 67.1044863,102.114617 66.887208,102.340621 C66.3209765,103.049115 65.970432,103.907654 65.8779153,104.812539 C65.5032035,106.840622 65.2852708,108.894952 65.2260804,110.957021 C65.0859009,115.470037 66.7189926,119.714674 67.9385547,124.058187 C68.443201,125.936845 69.0389641,127.879066 68.8357038,129.82835 Z" id="Path" fill="url(#linearGradient-6)"></path>
            </g>
        </g>
    </g>
</svg>