<svg height="19" viewBox="0 0 30 19" width="30" xmlns="http://www.w3.org/2000/svg" xmlns:xlink="http://www.w3.org/1999/xlink"><linearGradient id="a" x1="50%" x2="50%" y1="0%" y2="100%"><stop offset="0" stop-color="#4db7ec"/><stop offset="1" stop-color="#5b6edd"/></linearGradient><g fill="url(#a)" transform="translate(.786667 .151515)"><path d="m28.1096653 9.00363758c-.2205037-.33394717-5.5195931-8.15515273-13.8963829-8.15515273-7.18797282 0-13.59308087 7.77629601-13.86258542 8.10779564-.18315153.22585689-.18315153.55735652 0 .78440872.26950455.33149959 6.6746126 8.10779559 13.86258542 8.10779559 7.1879728 0 13.5930262-7.776296 13.8625307-8.10779559.169206-.20883794.1843547-.51119474.0338522-.73705163zm-13.8963829 7.63058192c-5.76224564 0-11.2410412-5.7192794-12.63286155-7.28570619 1.38952344-1.56762214 6.86246733-7.28570616 12.63286155-7.28570616 6.7422622 0 11.501194 5.71079832 12.6632136 7.25292048-1.3417257 1.51662217-6.8519671 7.31849187-12.6632136 7.31849187z"/><path d="m13.7133333 4.84848485c-2.4817421 0-4.49999997 2.01825788-4.49999997 4.5 0 2.48174215 2.01825787 4.49999995 4.49999997 4.49999995s4.5-2.0182578 4.5-4.49999995c0-2.48174212-2.0182579-4.5-4.5-4.5zm0 7.99999995c-1.9296484 0-3.5-1.5703515-3.5-3.49999995 0-1.92964844 1.5703516-3.5 3.5-3.5 1.9296485 0 3.5 1.57035156 3.5 3.5 0 1.92964845-1.5703515 3.49999995-3.5 3.49999995z"/></g></svg>