<?xml version="1.0" encoding="UTF-8"?>
<svg width="30px" height="19px" viewBox="0 0 30 19" version="1.1" xmlns="http://www.w3.org/2000/svg" xmlns:xlink="http://www.w3.org/1999/xlink">
    <title>visibility</title>
    <defs>
        <linearGradient x1="50%" y1="0%" x2="50%" y2="100%" id="linearGradient-1">
            <stop stop-color="#4DB7EC" offset="0%"></stop>
            <stop stop-color="#5B6EDD" offset="100%"></stop>
        </linearGradient>
        <linearGradient x1="50%" y1="0%" x2="50%" y2="100%" id="linearGradient-2">
            <stop stop-color="#4DB7EC" offset="0%"></stop>
            <stop stop-color="#5B6EDD" offset="100%"></stop>
        </linearGradient>
    </defs>
    <g id="Page-1" stroke="none" stroke-width="1" fill="none" fill-rule="evenodd">
        <g id="Ad-user-desktop" transform="translate(-623.000000, -289.000000)" fill-rule="nonzero">
            <g id="visibility" transform="translate(623.786667, 289.151515)">
                <path d="M28.1096653,9.00363758 C27.8891616,8.66969041 22.5900722,0.848484848 14.2132824,0.848484848 C7.02530958,0.848484848 0.620201525,8.62478086 0.350696979,8.95628049 C0.167545452,9.18213738 0.167545452,9.51363701 0.350696979,9.74068921 C0.620201525,10.0721888 7.02530958,17.8484848 14.2132824,17.8484848 C21.4012552,17.8484848 27.8063086,10.0721888 28.0758131,9.74068921 C28.2450191,9.53185127 28.2601678,9.22949447 28.1096653,9.00363758 Z M14.2132824,16.6342195 C8.45103676,16.6342195 2.9722412,10.9149401 1.58042085,9.34851331 C2.96994429,7.78089117 8.44288818,2.06280715 14.2132824,2.06280715 C20.9555446,2.06280715 25.7144764,7.77360547 26.876496,9.31572763 C25.5347703,10.8323498 20.0245289,16.6342195 14.2132824,16.6342195 Z" id="Shape" fill="url(#linearGradient-1)"></path>
                <path d="M13.7133333,4.84848485 C11.2315912,4.84848485 9.21333333,6.86674273 9.21333333,9.34848485 C9.21333333,11.830227 11.2315912,13.8484848 13.7133333,13.8484848 C16.1950754,13.8484848 18.2133333,11.830227 18.2133333,9.34848485 C18.2133333,6.86674273 16.1950754,4.84848485 13.7133333,4.84848485 Z M13.7133333,12.8484848 C11.7836849,12.8484848 10.2133333,11.2781333 10.2133333,9.34848485 C10.2133333,7.41883641 11.7836849,5.84848485 13.7133333,5.84848485 C15.6429818,5.84848485 17.2133333,7.41883641 17.2133333,9.34848485 C17.2133333,11.2781333 15.6429818,12.8484848 13.7133333,12.8484848 Z" id="Shape" fill="url(#linearGradient-2)"></path>
            </g>
        </g>
    </g>
</svg>