<svg enable-background="new 0 0 406 306" viewBox="0 0 406 306" xmlns="http://www.w3.org/2000/svg" xmlns:xlink="http://www.w3.org/1999/xlink"><linearGradient id="a"><stop offset=".01"/><stop offset=".13" stop-opacity=".69"/><stop offset="1" stop-opacity="0"/></linearGradient><linearGradient id="b" gradientTransform="matrix(.8028 0 0 -.8028 56.619 253.6679)" gradientUnits="userSpaceOnUse" x1="194.8596" x2="158.4595" xlink:href="#a" y1="220.4267" y2="232.0167"/><linearGradient id="c"><stop offset="0" stop-color="#e5c5d5"/><stop offset=".42" stop-color="#ead4d1"/><stop offset="1" stop-color="#f0e9cb"/></linearGradient><linearGradient id="d" gradientTransform="matrix(.7444 .3005 .3005 -.7444 601.2017 -210.9961)" gradientUnits="userSpaceOnUse" x1="-346.4136" x2="-329.9068" xlink:href="#c" y1="-538.4119" y2="-538.4119"/><linearGradient id="e"><stop offset=".02" stop-color="#fff" stop-opacity="0"/><stop offset=".32" stop-color="#fff" stop-opacity=".39"/><stop offset=".68" stop-color="#fff" stop-opacity=".68"/><stop offset="1" stop-color="#fff"/></linearGradient><linearGradient id="f" gradientTransform="matrix(.8028 0 0 -.8028 56.619 253.6679)" gradientUnits="userSpaceOnUse" x1="165.6537" x2="296.2352" xlink:href="#e" y1="77.8523" y2="77.8523"/><linearGradient id="g" gradientTransform="matrix(.8028 0 0 -.8028 67.8982 265.9666)" gradientUnits="userSpaceOnUse" x1="215.9749" x2="216.9749" xlink:href="#a" y1="192.3223" y2="211.9123"/><linearGradient id="h" gradientTransform="matrix(.8028 0 0 -.8028 67.8982 265.9666)" gradientUnits="userSpaceOnUse" x1="216.505" x2="216.505" xlink:href="#a" y1="6.6323" y2="-40.2877"/><linearGradient id="i" gradientTransform="matrix(.8028 0 0 -.8028 56.619 253.6679)" gradientUnits="userSpaceOnUse" x1="236.5751" x2="229.6867" xlink:href="#e" y1="55.4923" y2="21.1905"/><linearGradient id="j" gradientTransform="matrix(.8028 0 0 -.8028 56.619 253.6679)" gradientUnits="userSpaceOnUse" x1="237.3349" x2="222.1249" xlink:href="#a" y1="51.8064" y2="-23.9236"/><linearGradient id="k" gradientTransform="matrix(.8028 0 0 -.8028 56.619 253.6679)" gradientUnits="userSpaceOnUse" x1="230.3483" x2="229.1783" xlink:href="#a" y1="117.4524" y2="153.2724"/><linearGradient id="l" gradientTransform="matrix(.8028 0 0 -.8028 56.619 253.6679)" gradientUnits="userSpaceOnUse" x1="211.3449" x2="167.1649" xlink:href="#a" y1="230.9547" y2="229.2947"/><linearGradient id="m" gradientTransform="matrix(.8028 0 0 -.8028 56.619 253.6679)" gradientUnits="userSpaceOnUse" x1="173.6836" x2="194.5736" xlink:href="#c" y1="268.3185" y2="268.3185"/><linearGradient id="n" gradientTransform="matrix(.8028 0 0 -.8028 56.619 253.6679)" gradientUnits="userSpaceOnUse" x1="225.8668" x2="166.9568" xlink:href="#a" y1="227.6279" y2="230.6079"/><linearGradient id="o" gradientTransform="matrix(.7997 .07010746 .07010746 -.7997 167.3694 134.0062)" gradientUnits="userSpaceOnUse" x1="10.0604" x2="23.258" xlink:href="#c" y1="17.4866" y2="17.4866"/><linearGradient id="p" gradientTransform="matrix(.8028 0 0 -.8028 56.619 253.6679)" gradientUnits="userSpaceOnUse" x1="155.7669" x2="168.957" xlink:href="#c" y1="163.3673" y2="163.3673"/><linearGradient id="q" gradientTransform="matrix(.8028 0 0 -.8028 56.619 253.6679)" gradientUnits="userSpaceOnUse" x1="159.545" x2="176.075" xlink:href="#c" y1="203.2151" y2="203.2151"/><path d="m348.3 279.8c-4.8 2.9-10.2 5.6-15.9 8.4-21.5 11-46.7 12.2-70.4 13.1l-113.5 4.3c-19.1.7-39 1.3-56.6-6.1-10.2-4.4-19.1-11.2-26.3-19.6-11.4-13.3-19-30.4-22.8-47.6-6.2-28.1-4.3-57.4-4.7-86.2-.3-16.8-1.4-33.7 1.5-50.3 2.9-16.5 10.3-33 23.9-42.9 18.2-13.3 42.1-12 63.4-14.8 22.5-3 41.7-13.9 61.8-23.8 21-10.4 44.9-15.9 68.3-13.7 23.7 2.3 40.9 13.1 54.2 32.9 9.2 13.7 14.7 29.4 16.2 45.8 1.7 19.3-2.3 38.8.5 58 5.6 37.5 36.6 68 40.1 105.8 1.8 19.5-6.9 29-19.7 36.7z" fill="#4967c6" opacity=".18"/><path d="m348.3 279.8c-4.8 2.9-10.2 5.6-15.9 8.4-21.5 11-46.7 12.2-70.4 13.1l-113.5 4.3c-19.1.7-39 1.3-56.6-6.1-10.2-4.4-19.1-11.2-26.3-19.6z" fill="#4967c6" opacity=".41"/><path d="m198.7 62.6c-.1 3.6.4 7.2.5 10.9.1 1.4 0 2.7-.4 4-.9 2.5-3.3 4.1-5.6 5.5-1.4.9-3.1 2.1-2.9 3.8.3 1.3 1.4 2.3 2.7 2.4s2.6-.2 3.8-.7c2.4-.8 4.6-2.1 6.5-3.8 3.6-3.8 3.8-9.6 3.5-14.9-.2-4.4-.6-9.2-2.8-13.1-3.6-6.5-5.2 2.7-5.3 5.9z" fill="#4967c6"/><path d="m198.7 62.6c-.1 3.6.4 7.2.5 10.9.1 1.4 0 2.7-.4 4-.9 2.5-3.3 4.1-5.6 5.5-1.4.9-3.1 2.1-2.9 3.8.3 1.3 1.4 2.3 2.7 2.4s2.6-.2 3.8-.7c2.4-.8 4.6-2.1 6.5-3.8 3.6-3.8 3.8-9.6 3.5-14.9-.2-4.4-.6-9.2-2.8-13.1-3.6-6.5-5.2 2.7-5.3 5.9z" fill="url(#b)"/><path d="m188 84.3c-1.7-.6-3.4-1.4-5.1-.8-.3.1-.6.3-.7.6 0 .2 0 .4.1.7l1.9 5.7c.1.3.2.6.4.8.4.4.9.7 1.5.8 2.1.6 4.3.5 6.3-.3 2.1-.8 2.3-3.4 1.2-5.2s-3.7-1.6-5.6-2.3z" fill="url(#d)"/><path d="m184.1 74c.5.1.3.5.4 1 .4 3.5.1 7.5.8 10.9s3 6.5 3.5 10c-1.7-3.5-3.2-6.8-4.1-10.6-.2-.9-1.5-11.3-.6-11.3z" fill="#3e3e54"/><path d="m198.6 106.9s-15.9 19-5.3 35.4 29.5 28.5 36.7 40.8-5.8 25.7-10.4 28.2c-4.5 2.5-45.7 32.9-20.2 64h86.1s27.9-28.2-18.6-62.4c0 0-33.2-16.9-2.1-41s36.7-47 21.9-64.9z" fill="#4967c6"/><path d="m198.6 106.9s-15.9 19-5.3 35.4 29.5 28.5 36.7 40.8-5.8 25.7-10.4 28.2c-4.5 2.5-45.7 32.9-20.2 64h86.1s27.9-28.2-18.6-62.4c0 0-33.2-16.9-2.1-41s36.7-47 21.9-64.9z" fill="url(#f)"/><path d="m191.9 99.2h99.6c2.3 0 4.1 1.8 4.1 4.1 0 2.3-1.8 4.1-4.1 4.1h-99.6c-2.3 0-4.1-1.8-4.1-4.1 0-2.3 1.8-4.1 4.1-4.1z" fill="#4967c6"/><path d="m191.9 275.7h99.6c2.3 0 4.1 1.8 4.1 4.1 0 2.3-1.8 4.1-4.1 4.1h-99.6c-2.3 0-4.1-1.8-4.1-4.1 0-2.3 1.8-4.1 4.1-4.1z" fill="#4967c6"/><path d="m191.9 99.2h99.6c2.3 0 4.1 1.8 4.1 4.1 0 2.3-1.8 4.1-4.1 4.1h-99.6c-2.3 0-4.1-1.8-4.1-4.1 0-2.3 1.8-4.1 4.1-4.1z" fill="url(#g)"/><path d="m191.9 275.7h99.6c2.3 0 4.1 1.8 4.1 4.1 0 2.3-1.8 4.1-4.1 4.1h-99.6c-2.3 0-4.1-1.8-4.1-4.1 0-2.3 1.8-4.1 4.1-4.1z" fill="url(#h)"/><path d="m278.2 232c-14.6-7.8-62.9-9.1-72-2.4 8.5-11.3 20.3-18 20.3-18 11.6-7.2 24.7-.9 24.7-.9s16.7 8.6 27 21.3z" fill="url(#i)"/><path d="m277.9 274.8h-72.1l-2.8-2.5c-8.2-14.1-6.2-26.5-.8-36.5 1.2-2.1 2.5-4.2 4-6.1 9.2-6.7 57.4-5.4 72 2.4 1.5 1.8 2.8 3.8 4 5.9.8 1.4 1.5 2.8 2 4.2 7.2 18.1-6.3 32.6-6.3 32.6z" fill="#4967c6"/><path d="m282.2 237.9c-3.4 12.5-37.8-6.6-53.8-8-10.6-.9-21.7 5.5-21.7 5.5s-3.6 1.3-4.6.4c1.2-2.1 2.5-4.2 4-6.1 9.2-6.7 57.4-5.4 72 2.4 1.6 1.8 2.9 3.7 4.1 5.8z" fill="url(#j)"/><path d="m206 152.6s24.7 19.5 26.3 23.2 14.5 6 18.5 2.6c4-3.3 14.2-9.7 24.3-24.2 10.1-14.4-23.1-5-34.3-2.9-11.1 2.1-30.3-11.5-34.8 1.3z" fill="#4967c6"/><path d="m206 152.6s9.6 6.3 18.1 4.4 14.1-7.3 25.8-6.3 23.4 6.1 27.1.6-.3-9.8-12-8.4-31.1 1.7-40.4 1c-9.3-.5-26.3.9-18.6 8.7z" fill="#4967c6"/><path d="m206 152.6s9.6 6.3 18.1 4.4 14.1-7.3 25.8-6.3 23.4 6.1 27.1.6-.3-9.8-12-8.4-31.1 1.7-40.4 1c-9.3-.5-26.3.9-18.6 8.7z" fill="url(#k)"/><g fill="#4967c6"><path d="m240.6 184.9c-.7.4-1.2 1.1-1.6 1.8-.3.4-.3 1-.2 1.5.2.6.8.9 1.4.9.5 0 1-.2 1.4-.6.8-.5 1.7-1.2 1.6-2-.2-.8-1.5-1.3-2.6-1.6"/><path d="m245 192.4c-.3.1-.5.2-.7.4-.1.1-.2.2-.1.3.2.1.4.2.6.2s.4-.1.6-.1c.4-.1.8-.2.7-.4 0-.3-.5-.4-1.1-.4"/><path d="m240.7 194.7c-.3.1-.5.2-.7.4-.1.1-.2.2-.1.3.2.1.4.2.6.2s.4 0 .6-.1c.4-.1.8-.2.7-.4 0-.2-.6-.3-1.1-.4"/><path d="m247.6 205.7c-.3-.1-.7-.2-1.1-.2-.2 0-.4 0-.4.2 0 .3.1.5.4.6.2.2.4.3.7.4.5.2 1 .4 1.1.2.1-.3-.3-.8-.7-1.2"/><path d="m234.8 219.9c-.3-.1-.7-.2-1.1-.2-.2 0-.4.1-.4.2s.1.4.3.6.4.3.7.4c.4.2 1 .4 1.1.2s-.2-.7-.6-1.2"/><path d="m200.5 57.5c-.1-2.1.4-4.3 1.6-6 1.2-1.8 2.7-3.3 4.6-4.3 1-.7 2.2-1.1 3.4-1 1 .1 4.6-3.7 5.4-3.1 2.3 1.7 1.9 8.1 3.8 10.2.5 2.9.8 5.7 1 8.6l1.2 21.9c.2 3.6.3 7.6-1.9 10.4-5.5-2-10.8-4.3-15.9-7.1-1.2-.4-2-1.7-1.8-3-.2-5.4-.2-10.9 0-16.3.1-2.9-1.2-7.3-1.4-10.3z"/></g><path d="m200.5 57.5c-.1-2.1.4-4.3 1.6-6 1.2-1.8 2.7-3.3 4.6-4.3 1-.7 2.2-1.1 3.4-1 1 .1 4.6-3.7 5.4-3.1 2.3 1.7 1.9 8.1 3.8 10.2.5 2.9.8 5.7 1 8.6l1.2 21.9c.2 3.6.3 7.6-1.9 10.4-5.5-2-10.8-4.3-15.9-7.1-1.2-.4-2-1.7-1.8-3-.2-5.4-.2-10.9 0-16.3.1-2.9-1.2-7.3-1.4-10.3z" fill="url(#l)"/><path d="m196.1 41.1v.6c0 .8.2 1.6.6 2.2.8 1 2.3 1 3.5.9 1-.2 2-.3 3-.2 1 .2 2.1 4.3 3 4.4 1.7.3 5.4-1.8 6.6-2.9.1-.1-1.3-3.2-1.2-3.4 0-.2 0-.3 0-.5l-1.9-9c-.2-1.3-.6-2.5-1.4-3.6-.6-.7-1.3-1.2-2.1-1.6-2.7-1.2-6.7-.8-8.7 1.7-1.1 1.3-1 3.6-1.2 5.2-.2 2.1-.3 4.2-.2 6.2z" fill="url(#m)"/><path d="m210.3 103.8c-5.3 3.4-11.4 5.5-17.4 7.4-1.5.5-3.2 1-4.5.2-.7-.5-1.3-1.2-1.7-2.1-2.4-4.5-8.3-5.8-5.4-10 1.2-1.8 8.2-7.6 9.9-8.8 3.4-2.5 7-5.1 11.2-5.8 2-.3 4-.3 5.9 0 3.8.5 13.4 1.9 12.6 6.8s-6.8 9.8-10.6 12.3z" fill="#3e3e54"/><path d="m211.9 61.2c0 3.2.3 6.4-.7 9.4-1.4 4-5.1 6.8-8.8 8.9-2.3 1.3-4.8 2.7-6 5s-.4 6 2.2 6.4c1 .1 2 0 3-.4 5.1-1.7 9.9-3.8 14.6-6.4 1.9-1.1 3.8-2.3 5-4.1 1-1.9 1.6-3.9 1.6-6.1.4-4.5.2-9.1-.4-13.6-.7-3.6-2.1-7-4.1-10-6.4-8.6-6.4 6.1-6.4 10.9z" fill="#4967c6"/><path d="m211.9 61.2c0 3.2.3 6.4-.7 9.4-1.4 4-5.1 6.8-8.8 8.9-2.3 1.3-4.8 2.7-6 5s-.4 6 2.2 6.4c1 .1 2 0 3-.4 5.1-1.7 9.9-3.8 14.6-6.4 1.9-1.1 3.8-2.3 5-4.1 1-1.9 1.6-3.9 1.6-6.1.4-4.5.2-9.1-.4-13.6-.7-3.6-2.1-7-4.1-10-6.4-8.6-6.4 6.1-6.4 10.9z" fill="url(#n)"/><path d="m177 117.9-1.4 26.3c3.2-.2 4.7-3.9 5.4-7 2.2-8.7 4.4-17.4 6.6-26.2.6-2.6 1.3-5.3.8-7.9-.4-1.9-2-5.1-4.2-5.3-2.4-.2-3.6 2.8-4.4 4.7-2.2 4.8-2.5 10.2-2.8 15.4z" fill="url(#o)"/><path d="m181.8 119.7.9 26.3c3.1-.5 4.3-4.3 4.8-7.4 1.4-8.9 2.8-17.8 4.2-26.6.4-2.6.8-5.4.1-7.9-.5-1.8-2.5-4.9-4.7-4.9-2.4 0-3.3 3.1-4 5-1.6 4.9-1.5 10.3-1.3 15.5z" fill="url(#p)"/><path d="m180.4 138.8-3 .2c-.6 0-1.2.2-1.7.6-.2.4-.4.8-.3 1.3-.1 1.6-.1 3.2 0 4.8v.2c.1.1.2.2.4.1 1.1 0 2.3-.3 3.3-.9.4-.2.8-.5 1.1-.9.2-.5.4-1 .4-1.5-.1-1.2 0-2.6-.2-3.9z" fill="#4967c6"/><path d="m180.4 144.2c0-.1 0-.2-.1-.3-.2-.2-.4-.2-.6-.1s-.3.3-.5.5c-.5.6-1.2 1-2 1.1-.8 0-1.6 0-2.4.1-.6.2-1.1.6-1.5 1l-2.6 2.2c-.6.5-1.3 1.2-1.1 2 .2.7.9 1.2 1.6 1.3 1.3.1 2.6 0 3.9-.5 1.2-.3 2.3-.7 3.4-1.1.6-.2 1.1-.6 1.5-1 .8-1.1.5-3.7.4-5.2z" fill="#3e3e54"/><path d="m187.6 139.2-3 .2c-.6 0-1.2.2-1.7.6-.2.4-.4.8-.3 1.3-.1 1.6-.1 3.2 0 4.8v.2c.1.1.2.2.4.1 1.1 0 2.3-.3 3.3-.9.4-.2.8-.5 1.1-.9.2-.5.4-1 .4-1.5-.1-1.3-.1-2.6-.2-3.9z" fill="#4967c6"/><path d="m187.5 144.6c0-.1 0-.2-.1-.3-.2-.2-.4-.2-.6-.1s-.3.3-.5.5c-.5.6-1.2 1-2 1.1-.8 0-1.6 0-2.4.2-.6.2-1.1.6-1.5 1l-2.6 2.2c-.6.5-1.3 1.2-1.1 2 .2.7.9 1.2 1.6 1.3 1.3.1 2.7 0 3.9-.5 1.2-.3 2.3-.7 3.4-1.1.6-.2 1.1-.6 1.5-1 .9-1.3.6-3.9.4-5.3z" fill="#3e3e54"/><path d="m190.2 86.8c-1.8.1-3.7 0-5 1.2-.3.2-.4.5-.4.8 0 .2.2.4.3.6l3.9 4.6c.2.2.4.5.7.6.5.3 1.1.3 1.7.2 2.2-.2 4.2-1.2 5.8-2.6 1.6-1.5.9-4-.9-5.3s-4.1-.2-6.1-.1z" fill="url(#q)"/><path d="m210.3 21.3c5.5.5 10.4 4 13.8 8.4 3.5 4.6 6.3 10.7 11.9 11.9 2.5.5 5.2-.1 7.7.2 4.9.6 8.9 4.3 9.9 9.1.6 3.1-.1 6.4.2 9.5.6 6.2 5.3 12.2 3.6 18.2-1.4 4.8-7.2 7.6-11.9 5.8-4.9-1.9-7.1-7.6-10.4-11.7-1.5-1.8-3.6-3.5-5.9-3.1-1.1.2-2.1.9-3.2 1.2-2.6.7-5.2-1.1-6.6-3.5-1.3-2.3-1.6-5-2-7.7-.6-3.7-1.6-7.5-4-10.3-3-3.5-7.8-5.2-10.1-9.2-1.3-2.4-1.6-5.1-2.8-7.5-1.1-2.1-3.1-3.2-2.2-5.7 1.5-4.1 8.2-5.9 12-5.6z" fill="#fe9e24"/><path d="m195.2 26.8c-.3 1.4.2 2.8 1.1 3.8 1 1 2 1.8 3.2 2.6 1.2.7 2.1 1.8 2.8 3 .1.2.2.4.3.5.2.1.4.1.6 0 .1-.1.1-.2.1-.4.2-2.2-.2-4.5-.2-6.7 0-1.5.5-3.5-.5-4.8-1.7-2.6-6.7-.5-7.4 2z" fill="#fe9e24"/><path d="m180 76.2c-.1.6 0 1.3.4 1.8.7.9 2.3.7 3.1-.2.7-1 1-2.2.8-3.3-.1 1.1.1 2.1.6 3.1.6.9 1.9 1.4 2.7.7.4-.4.7-1.1.6-1.7 0-1.1-.5-2.1-1.2-2.9.4.6 1 1 1.8 1.2.4.1.7.1 1.1 0 .7-.3 1.2-1 1-1.8-.1-.8-.6-1.4-1.3-1.8s-1.4-.7-2.1-.8c.5-.4 1.2-.7 1.7-1 .6-.4.9-.9 1-1.6.1-1.1-1.2-1.9-2.3-1.8-1.1.2-2.1.7-2.9 1.5-.7-.7-1.6-1.2-2.5-1.5-1-.3-2 0-2.7.7-.7.9-.6 2.3.4 3 .1.1.2.1.3.2-.7.1-1.4.1-2.1.1s-1.4.4-1.8 1c-.3.8 0 1.6.7 2.1.7.4 1.5.5 2.3.2.5-.1 1.4-.9 1.8-.6-.5 1.2-1.2 2.1-1.4 3.4z" fill="#4967c6"/><ellipse cx="184.4" cy="70.9" fill="#fff" rx="2.7" ry="2"/></svg>