<?xml version="1.0" encoding="utf-8"?>
<!-- Generator: Adobe Illustrator 24.0.3, SVG Export Plug-In . SVG Version: 6.00 Build 0)  -->
<svg version="1.1" id="Layer_1" xmlns="http://www.w3.org/2000/svg" xmlns:xlink="http://www.w3.org/1999/xlink" x="0px" y="0px"
	 viewBox="0 0 406 306" style="enable-background:new 0 0 406 306;" xml:space="preserve">
<style type="text/css">
	.st0{opacity:0.18;fill:#4967C6;enable-background:new    ;}
	.st1{opacity:0.41;fill:#4967C6;enable-background:new    ;}
	.st2{fill:#4967C6;}
	.st3{fill:url(#SVGID_1_);}
	.st4{fill:url(#SVGID_2_);}
	.st5{fill:#3E3E54;}
	.st6{fill:url(#SVGID_3_);}
	.st7{fill:url(#SVGID_4_);}
	.st8{fill:url(#SVGID_5_);}
	.st9{fill:url(#SVGID_6_);}
	.st10{fill:url(#SVGID_7_);}
	.st11{fill:url(#SVGID_8_);}
	.st12{fill:url(#SVGID_9_);}
	.st13{fill:url(#SVGID_10_);}
	.st14{fill:url(#SVGID_11_);}
	.st15{fill:url(#SVGID_12_);}
	.st16{fill:url(#SVGID_13_);}
	.st17{fill:url(#SVGID_14_);}
	.st18{fill:#FE9E24;}
	.st19{fill:#FFFFFF;}
</style>
<title>Waiting</title>
<path class="st0" d="M348.3,279.8c-4.8,2.9-10.2,5.6-15.9,8.4c-21.5,11-46.7,12.2-70.4,13.1l-113.5,4.3c-19.1,0.7-39,1.3-56.6-6.1
	c-10.2-4.4-19.1-11.2-26.3-19.6c-11.4-13.3-19-30.4-22.8-47.6c-6.2-28.1-4.3-57.4-4.7-86.2c-0.3-16.8-1.4-33.7,1.5-50.3
	c2.9-16.5,10.3-33,23.9-42.9c18.2-13.3,42.1-12,63.4-14.8c22.5-3,41.7-13.9,61.8-23.8c21-10.4,44.9-15.9,68.3-13.7
	c23.7,2.3,40.9,13.1,54.2,32.9c9.2,13.7,14.7,29.4,16.2,45.8c1.7,19.3-2.3,38.8,0.5,58c5.6,37.5,36.6,68,40.1,105.8
	C369.8,262.6,361.1,272.1,348.3,279.8z"/>
<path class="st1" d="M348.3,279.8c-4.8,2.9-10.2,5.6-15.9,8.4c-21.5,11-46.7,12.2-70.4,13.1l-113.5,4.3c-19.1,0.7-39,1.3-56.6-6.1
	c-10.2-4.4-19.1-11.2-26.3-19.6L348.3,279.8z"/>
<path class="st2" d="M198.7,62.6c-0.1,3.6,0.4,7.2,0.5,10.9c0.1,1.4,0,2.7-0.4,4c-0.9,2.5-3.3,4.1-5.6,5.5c-1.4,0.9-3.1,2.1-2.9,3.8
	c0.3,1.3,1.4,2.3,2.7,2.4c1.3,0.1,2.6-0.2,3.8-0.7c2.4-0.8,4.6-2.1,6.5-3.8c3.6-3.8,3.8-9.6,3.5-14.9c-0.2-4.4-0.6-9.2-2.8-13.1
	C200.4,50.2,198.8,59.4,198.7,62.6z"/>
<linearGradient id="SVGID_1_" gradientUnits="userSpaceOnUse" x1="194.8596" y1="220.4267" x2="158.4595" y2="232.0167" gradientTransform="matrix(0.8028 0 0 -0.8028 56.619 253.6679)">
	<stop  offset="1.000000e-02" style="stop-color:#000000"/>
	<stop  offset="0.13" style="stop-color:#000000;stop-opacity:0.69"/>
	<stop  offset="1" style="stop-color:#000000;stop-opacity:0"/>
</linearGradient>
<path class="st3" d="M198.7,62.6c-0.1,3.6,0.4,7.2,0.5,10.9c0.1,1.4,0,2.7-0.4,4c-0.9,2.5-3.3,4.1-5.6,5.5c-1.4,0.9-3.1,2.1-2.9,3.8
	c0.3,1.3,1.4,2.3,2.7,2.4c1.3,0.1,2.6-0.2,3.8-0.7c2.4-0.8,4.6-2.1,6.5-3.8c3.6-3.8,3.8-9.6,3.5-14.9c-0.2-4.4-0.6-9.2-2.8-13.1
	C200.4,50.2,198.8,59.4,198.7,62.6z"/>
<linearGradient id="SVGID_2_" gradientUnits="userSpaceOnUse" x1="-346.4136" y1="-538.4119" x2="-329.9068" y2="-538.4119" gradientTransform="matrix(0.7444 0.3005 0.3005 -0.7444 601.2017 -210.9961)">
	<stop  offset="0" style="stop-color:#E5C5D5"/>
	<stop  offset="0.42" style="stop-color:#EAD4D1"/>
	<stop  offset="1" style="stop-color:#F0E9CB"/>
</linearGradient>
<path class="st4" d="M188,84.3c-1.7-0.6-3.4-1.4-5.1-0.8c-0.3,0.1-0.6,0.3-0.7,0.6c0,0.2,0,0.4,0.1,0.7l1.9,5.7
	c0.1,0.3,0.2,0.6,0.4,0.8c0.4,0.4,0.9,0.7,1.5,0.8c2.1,0.6,4.3,0.5,6.3-0.3c2.1-0.8,2.3-3.4,1.2-5.2S189.9,85,188,84.3z"/>
<path class="st5" d="M184.1,74c0.5,0.1,0.3,0.5,0.4,1c0.4,3.5,0.1,7.5,0.8,10.9c0.7,3.4,3,6.5,3.5,10c-1.7-3.5-3.2-6.8-4.1-10.6
	C184.5,84.4,183.2,74,184.1,74z"/>
<path class="st2" d="M198.6,106.9c0,0-15.9,19-5.3,35.4s29.5,28.5,36.7,40.8c7.2,12.3-5.8,25.7-10.4,28.2
	c-4.5,2.5-45.7,32.9-20.2,64h86.1c0,0,27.9-28.2-18.6-62.4c0,0-33.2-16.9-2.1-41s36.7-47,21.9-64.9L198.6,106.9z"/>
<linearGradient id="SVGID_3_" gradientUnits="userSpaceOnUse" x1="165.6537" y1="77.8523" x2="296.2352" y2="77.8523" gradientTransform="matrix(0.8028 0 0 -0.8028 56.619 253.6679)">
	<stop  offset="2.000000e-02" style="stop-color:#FFFFFF;stop-opacity:0"/>
	<stop  offset="0.32" style="stop-color:#FFFFFF;stop-opacity:0.39"/>
	<stop  offset="0.68" style="stop-color:#FFFFFF;stop-opacity:0.68"/>
	<stop  offset="1" style="stop-color:#FFFFFF"/>
</linearGradient>
<path class="st6" d="M198.6,106.9c0,0-15.9,19-5.3,35.4s29.5,28.5,36.7,40.8c7.2,12.3-5.8,25.7-10.4,28.2
	c-4.5,2.5-45.7,32.9-20.2,64h86.1c0,0,27.9-28.2-18.6-62.4c0,0-33.2-16.9-2.1-41s36.7-47,21.9-64.9L198.6,106.9z"/>
<path class="st2" d="M191.9,99.2h99.6c2.3,0,4.1,1.8,4.1,4.1v0c0,2.3-1.8,4.1-4.1,4.1h-99.6c-2.3,0-4.1-1.8-4.1-4.1v0
	C187.8,101,189.6,99.2,191.9,99.2z"/>
<path class="st2" d="M191.9,275.7h99.6c2.3,0,4.1,1.8,4.1,4.1v0c0,2.3-1.8,4.1-4.1,4.1h-99.6c-2.3,0-4.1-1.8-4.1-4.1v0
	C187.8,277.5,189.6,275.7,191.9,275.7z"/>
<linearGradient id="SVGID_4_" gradientUnits="userSpaceOnUse" x1="215.9749" y1="192.3223" x2="216.9749" y2="211.9123" gradientTransform="matrix(0.8028 0 0 -0.8028 67.8982 265.9666)">
	<stop  offset="1.000000e-02" style="stop-color:#000000"/>
	<stop  offset="0.13" style="stop-color:#000000;stop-opacity:0.69"/>
	<stop  offset="1" style="stop-color:#000000;stop-opacity:0"/>
</linearGradient>
<path class="st7" d="M191.9,99.2h99.6c2.3,0,4.1,1.8,4.1,4.1v0c0,2.3-1.8,4.1-4.1,4.1h-99.6c-2.3,0-4.1-1.8-4.1-4.1v0
	C187.8,101,189.6,99.2,191.9,99.2z"/>
<linearGradient id="SVGID_5_" gradientUnits="userSpaceOnUse" x1="216.505" y1="6.6323" x2="216.505" y2="-40.2877" gradientTransform="matrix(0.8028 0 0 -0.8028 67.8982 265.9666)">
	<stop  offset="1.000000e-02" style="stop-color:#000000"/>
	<stop  offset="0.13" style="stop-color:#000000;stop-opacity:0.69"/>
	<stop  offset="1" style="stop-color:#000000;stop-opacity:0"/>
</linearGradient>
<path class="st8" d="M191.9,275.7h99.6c2.3,0,4.1,1.8,4.1,4.1v0c0,2.3-1.8,4.1-4.1,4.1h-99.6c-2.3,0-4.1-1.8-4.1-4.1v0
	C187.8,277.5,189.6,275.7,191.9,275.7z"/>
<linearGradient id="SVGID_6_" gradientUnits="userSpaceOnUse" x1="236.5751" y1="55.4923" x2="229.6867" y2="21.1905" gradientTransform="matrix(0.8028 0 0 -0.8028 56.619 253.6679)">
	<stop  offset="2.000000e-02" style="stop-color:#FFFFFF;stop-opacity:0"/>
	<stop  offset="0.32" style="stop-color:#FFFFFF;stop-opacity:0.39"/>
	<stop  offset="0.68" style="stop-color:#FFFFFF;stop-opacity:0.68"/>
	<stop  offset="1" style="stop-color:#FFFFFF"/>
</linearGradient>
<path class="st9" d="M278.2,232c-14.6-7.8-62.9-9.1-72-2.4c8.5-11.3,20.3-18,20.3-18c11.6-7.2,24.7-0.9,24.7-0.9
	S267.9,219.3,278.2,232z"/>
<path class="st2" d="M277.9,274.8h-72.1l-2.8-2.5c-8.2-14.1-6.2-26.5-0.8-36.5c1.2-2.1,2.5-4.2,4-6.1c9.2-6.7,57.4-5.4,72,2.4
	c1.5,1.8,2.8,3.8,4,5.9c0.8,1.4,1.5,2.8,2,4.2C291.4,260.3,277.9,274.8,277.9,274.8z"/>
<linearGradient id="SVGID_7_" gradientUnits="userSpaceOnUse" x1="237.3349" y1="51.8064" x2="222.1249" y2="-23.9236" gradientTransform="matrix(0.8028 0 0 -0.8028 56.619 253.6679)">
	<stop  offset="1.000000e-02" style="stop-color:#000000"/>
	<stop  offset="0.13" style="stop-color:#000000;stop-opacity:0.69"/>
	<stop  offset="1" style="stop-color:#000000;stop-opacity:0"/>
</linearGradient>
<path class="st10" d="M282.2,237.9c-3.4,12.5-37.8-6.6-53.8-8c-10.6-0.9-21.7,5.5-21.7,5.5s-3.6,1.3-4.6,0.4c1.2-2.1,2.5-4.2,4-6.1
	c9.2-6.7,57.4-5.4,72,2.4C279.7,233.9,281,235.8,282.2,237.9z"/>
<path class="st2" d="M206,152.6c0,0,24.7,19.5,26.3,23.2s14.5,6,18.5,2.6c4-3.3,14.2-9.7,24.3-24.2c10.1-14.4-23.1-5-34.3-2.9
	C229.7,153.4,210.5,139.8,206,152.6z"/>
<path class="st2" d="M206,152.6c0,0,9.6,6.3,18.1,4.4c8.5-1.9,14.1-7.3,25.8-6.3c11.7,1,23.4,6.1,27.1,0.6s-0.3-9.8-12-8.4
	s-31.1,1.7-40.4,1C215.3,143.4,198.3,144.8,206,152.6z"/>
<linearGradient id="SVGID_8_" gradientUnits="userSpaceOnUse" x1="230.3483" y1="117.4524" x2="229.1783" y2="153.2724" gradientTransform="matrix(0.8028 0 0 -0.8028 56.619 253.6679)">
	<stop  offset="1.000000e-02" style="stop-color:#000000"/>
	<stop  offset="0.13" style="stop-color:#000000;stop-opacity:0.69"/>
	<stop  offset="1" style="stop-color:#000000;stop-opacity:0"/>
</linearGradient>
<path class="st11" d="M206,152.6c0,0,9.6,6.3,18.1,4.4c8.5-1.9,14.1-7.3,25.8-6.3c11.7,1,23.4,6.1,27.1,0.6s-0.3-9.8-12-8.4
	s-31.1,1.7-40.4,1C215.3,143.4,198.3,144.8,206,152.6z"/>
<path class="st2" d="M240.6,184.9c-0.7,0.4-1.2,1.1-1.6,1.8c-0.3,0.4-0.3,1-0.2,1.5c0.2,0.6,0.8,0.9,1.4,0.9c0.5,0,1-0.2,1.4-0.6
	c0.8-0.5,1.7-1.2,1.6-2C243,185.7,241.7,185.2,240.6,184.9"/>
<path class="st2" d="M245,192.4c-0.3,0.1-0.5,0.2-0.7,0.4c-0.1,0.1-0.2,0.2-0.1,0.3c0.2,0.1,0.4,0.2,0.6,0.2c0.2,0,0.4-0.1,0.6-0.1
	c0.4-0.1,0.8-0.2,0.7-0.4C246.1,192.5,245.6,192.4,245,192.4"/>
<path class="st2" d="M240.7,194.7c-0.3,0.1-0.5,0.2-0.7,0.4c-0.1,0.1-0.2,0.2-0.1,0.3c0.2,0.1,0.4,0.2,0.6,0.2c0.2,0,0.4,0,0.6-0.1
	c0.4-0.1,0.8-0.2,0.7-0.4C241.8,194.9,241.2,194.8,240.7,194.7"/>
<path class="st2" d="M247.6,205.7c-0.3-0.1-0.7-0.2-1.1-0.2c-0.2,0-0.4,0-0.4,0.2c0,0.3,0.1,0.5,0.4,0.6c0.2,0.2,0.4,0.3,0.7,0.4
	c0.5,0.2,1,0.4,1.1,0.2C248.4,206.6,248,206.1,247.6,205.7"/>
<path class="st2" d="M234.8,219.9c-0.3-0.1-0.7-0.2-1.1-0.2c-0.2,0-0.4,0.1-0.4,0.2c0,0.1,0.1,0.4,0.3,0.6c0.2,0.2,0.4,0.3,0.7,0.4
	c0.4,0.2,1,0.4,1.1,0.2S235.2,220.4,234.8,219.9"/>
<path class="st2" d="M200.5,57.5c-0.1-2.1,0.4-4.3,1.6-6c1.2-1.8,2.7-3.3,4.6-4.3c1-0.7,2.2-1.1,3.4-1c1,0.1,4.6-3.7,5.4-3.1
	c2.3,1.7,1.9,8.1,3.8,10.2c0.5,2.9,0.8,5.7,1,8.6l1.2,21.9c0.2,3.6,0.3,7.6-1.9,10.4c-5.5-2-10.8-4.3-15.9-7.1c-1.2-0.4-2-1.7-1.8-3
	c-0.2-5.4-0.2-10.9,0-16.3C202,64.9,200.7,60.5,200.5,57.5z"/>
<linearGradient id="SVGID_9_" gradientUnits="userSpaceOnUse" x1="211.3449" y1="230.9547" x2="167.1649" y2="229.2947" gradientTransform="matrix(0.8028 0 0 -0.8028 56.619 253.6679)">
	<stop  offset="1.000000e-02" style="stop-color:#000000"/>
	<stop  offset="0.13" style="stop-color:#000000;stop-opacity:0.69"/>
	<stop  offset="1" style="stop-color:#000000;stop-opacity:0"/>
</linearGradient>
<path class="st12" d="M200.5,57.5c-0.1-2.1,0.4-4.3,1.6-6c1.2-1.8,2.7-3.3,4.6-4.3c1-0.7,2.2-1.1,3.4-1c1,0.1,4.6-3.7,5.4-3.1
	c2.3,1.7,1.9,8.1,3.8,10.2c0.5,2.9,0.8,5.7,1,8.6l1.2,21.9c0.2,3.6,0.3,7.6-1.9,10.4c-5.5-2-10.8-4.3-15.9-7.1c-1.2-0.4-2-1.7-1.8-3
	c-0.2-5.4-0.2-10.9,0-16.3C202,64.9,200.7,60.5,200.5,57.5z"/>
<linearGradient id="SVGID_10_" gradientUnits="userSpaceOnUse" x1="173.6836" y1="268.3185" x2="194.5736" y2="268.3185" gradientTransform="matrix(0.8028 0 0 -0.8028 56.619 253.6679)">
	<stop  offset="0" style="stop-color:#E5C5D5"/>
	<stop  offset="0.42" style="stop-color:#EAD4D1"/>
	<stop  offset="1" style="stop-color:#F0E9CB"/>
</linearGradient>
<path class="st13" d="M196.1,41.1v0.6c0,0.8,0.2,1.6,0.6,2.2c0.8,1,2.3,1,3.5,0.9c1-0.2,2-0.3,3-0.2c1,0.2,2.1,4.3,3,4.4
	c1.7,0.3,5.4-1.8,6.6-2.9c0.1-0.1-1.3-3.2-1.2-3.4c0-0.2,0-0.3,0-0.5l-1.9-9c-0.2-1.3-0.6-2.5-1.4-3.6c-0.6-0.7-1.3-1.2-2.1-1.6
	c-2.7-1.2-6.7-0.8-8.7,1.7c-1.1,1.3-1,3.6-1.2,5.2C196.1,37,196,39.1,196.1,41.1z"/>
<path class="st5" d="M210.3,103.8c-5.3,3.4-11.4,5.5-17.4,7.4c-1.5,0.5-3.2,1-4.5,0.2c-0.7-0.5-1.3-1.2-1.7-2.1
	c-2.4-4.5-8.3-5.8-5.4-10c1.2-1.8,8.2-7.6,9.9-8.8c3.4-2.5,7-5.1,11.2-5.8c2-0.3,4-0.3,5.9,0c3.8,0.5,13.4,1.9,12.6,6.8
	C220.1,96.4,214.1,101.3,210.3,103.8z"/>
<path class="st2" d="M211.9,61.2c0,3.2,0.3,6.4-0.7,9.4c-1.4,4-5.1,6.8-8.8,8.9c-2.3,1.3-4.8,2.7-6,5s-0.4,6,2.2,6.4
	c1,0.1,2,0,3-0.4c5.1-1.7,9.9-3.8,14.6-6.4c1.9-1.1,3.8-2.3,5-4.1c1-1.9,1.6-3.9,1.6-6.1c0.4-4.5,0.2-9.1-0.4-13.6
	c-0.7-3.6-2.1-7-4.1-10C211.9,41.7,211.9,56.4,211.9,61.2z"/>
<linearGradient id="SVGID_11_" gradientUnits="userSpaceOnUse" x1="225.8668" y1="227.6279" x2="166.9568" y2="230.6079" gradientTransform="matrix(0.8028 0 0 -0.8028 56.619 253.6679)">
	<stop  offset="1.000000e-02" style="stop-color:#000000"/>
	<stop  offset="0.13" style="stop-color:#000000;stop-opacity:0.69"/>
	<stop  offset="1" style="stop-color:#000000;stop-opacity:0"/>
</linearGradient>
<path class="st14" d="M211.9,61.2c0,3.2,0.3,6.4-0.7,9.4c-1.4,4-5.1,6.8-8.8,8.9c-2.3,1.3-4.8,2.7-6,5s-0.4,6,2.2,6.4
	c1,0.1,2,0,3-0.4c5.1-1.7,9.9-3.8,14.6-6.4c1.9-1.1,3.8-2.3,5-4.1c1-1.9,1.6-3.9,1.6-6.1c0.4-4.5,0.2-9.1-0.4-13.6
	c-0.7-3.6-2.1-7-4.1-10C211.9,41.7,211.9,56.4,211.9,61.2z"/>
<linearGradient id="SVGID_12_" gradientUnits="userSpaceOnUse" x1="10.0604" y1="17.4866" x2="23.258" y2="17.4866" gradientTransform="matrix(0.7997 7.010746e-02 7.010746e-02 -0.7997 167.3694 134.0062)">
	<stop  offset="0" style="stop-color:#E5C5D5"/>
	<stop  offset="0.42" style="stop-color:#EAD4D1"/>
	<stop  offset="1" style="stop-color:#F0E9CB"/>
</linearGradient>
<path class="st15" d="M177,117.9l-1.4,26.3c3.2-0.2,4.7-3.9,5.4-7c2.2-8.7,4.4-17.4,6.6-26.2c0.6-2.6,1.3-5.3,0.8-7.9
	c-0.4-1.9-2-5.1-4.2-5.3c-2.4-0.2-3.6,2.8-4.4,4.7C177.6,107.3,177.3,112.7,177,117.9z"/>
<linearGradient id="SVGID_13_" gradientUnits="userSpaceOnUse" x1="155.7669" y1="163.3673" x2="168.957" y2="163.3673" gradientTransform="matrix(0.8028 0 0 -0.8028 56.619 253.6679)">
	<stop  offset="0" style="stop-color:#E5C5D5"/>
	<stop  offset="0.42" style="stop-color:#EAD4D1"/>
	<stop  offset="1" style="stop-color:#F0E9CB"/>
</linearGradient>
<path class="st16" d="M181.8,119.7l0.9,26.3c3.1-0.5,4.3-4.3,4.8-7.4c1.4-8.9,2.8-17.8,4.2-26.6c0.4-2.6,0.8-5.4,0.1-7.9
	c-0.5-1.8-2.5-4.9-4.7-4.9c-2.4,0-3.3,3.1-4,5C181.5,109.1,181.6,114.5,181.8,119.7z"/>
<path class="st2" d="M180.4,138.8l-3,0.2c-0.6,0-1.2,0.2-1.7,0.6c-0.2,0.4-0.4,0.8-0.3,1.3c-0.1,1.6-0.1,3.2,0,4.8
	c0,0.1,0,0.1,0,0.2c0.1,0.1,0.2,0.2,0.4,0.1c1.1,0,2.3-0.3,3.3-0.9c0.4-0.2,0.8-0.5,1.1-0.9c0.2-0.5,0.4-1,0.4-1.5
	C180.5,141.5,180.6,140.1,180.4,138.8L180.4,138.8z"/>
<path class="st5" d="M180.4,144.2c0-0.1,0-0.2-0.1-0.3c-0.2-0.2-0.4-0.2-0.6-0.1c-0.2,0.1-0.3,0.3-0.5,0.5c-0.5,0.6-1.2,1-2,1.1
	c-0.8,0-1.6,0-2.4,0.1c-0.6,0.2-1.1,0.6-1.5,1l-2.6,2.2c-0.6,0.5-1.3,1.2-1.1,2c0.2,0.7,0.9,1.2,1.6,1.3c1.3,0.1,2.6,0,3.9-0.5
	c1.2-0.3,2.3-0.7,3.4-1.1c0.6-0.2,1.1-0.6,1.5-1C180.8,148.3,180.5,145.7,180.4,144.2z"/>
<path class="st2" d="M187.6,139.2l-3,0.2c-0.6,0-1.2,0.2-1.7,0.6c-0.2,0.4-0.4,0.8-0.3,1.3c-0.1,1.6-0.1,3.2,0,4.8
	c0,0.1,0,0.1,0,0.2c0.1,0.1,0.2,0.2,0.4,0.1c1.1,0,2.3-0.3,3.3-0.9c0.4-0.2,0.8-0.5,1.1-0.9c0.2-0.5,0.4-1,0.4-1.5
	C187.7,141.8,187.7,140.5,187.6,139.2L187.6,139.2z"/>
<path class="st5" d="M187.5,144.6c0-0.1,0-0.2-0.1-0.3c-0.2-0.2-0.4-0.2-0.6-0.1c-0.2,0.1-0.3,0.3-0.5,0.5c-0.5,0.6-1.2,1-2,1.1
	c-0.8,0-1.6,0-2.4,0.2c-0.6,0.2-1.1,0.6-1.5,1l-2.6,2.2c-0.6,0.5-1.3,1.2-1.1,2c0.2,0.7,0.9,1.2,1.6,1.3c1.3,0.1,2.7,0,3.9-0.5
	c1.2-0.3,2.3-0.7,3.4-1.1c0.6-0.2,1.1-0.6,1.5-1C188,148.6,187.7,146,187.5,144.6z"/>
<linearGradient id="SVGID_14_" gradientUnits="userSpaceOnUse" x1="159.545" y1="203.2151" x2="176.075" y2="203.2151" gradientTransform="matrix(0.8028 0 0 -0.8028 56.619 253.6679)">
	<stop  offset="0" style="stop-color:#E5C5D5"/>
	<stop  offset="0.42" style="stop-color:#EAD4D1"/>
	<stop  offset="1" style="stop-color:#F0E9CB"/>
</linearGradient>
<path class="st17" d="M190.2,86.8c-1.8,0.1-3.7,0-5,1.2c-0.3,0.2-0.4,0.5-0.4,0.8c0,0.2,0.2,0.4,0.3,0.6l3.9,4.6
	c0.2,0.2,0.4,0.5,0.7,0.6c0.5,0.3,1.1,0.3,1.7,0.2c2.2-0.2,4.2-1.2,5.8-2.6c1.6-1.5,0.9-4-0.9-5.3C194.5,85.6,192.2,86.7,190.2,86.8
	z"/>
<path class="st18" d="M210.3,21.3c5.5,0.5,10.4,4,13.8,8.4c3.5,4.6,6.3,10.7,11.9,11.9c2.5,0.5,5.2-0.1,7.7,0.2
	c4.9,0.6,8.9,4.3,9.9,9.1c0.6,3.1-0.1,6.4,0.2,9.5c0.6,6.2,5.3,12.2,3.6,18.2c-1.4,4.8-7.2,7.6-11.9,5.8c-4.9-1.9-7.1-7.6-10.4-11.7
	c-1.5-1.8-3.6-3.5-5.9-3.1c-1.1,0.2-2.1,0.9-3.2,1.2c-2.6,0.7-5.2-1.1-6.6-3.5c-1.3-2.3-1.6-5-2-7.7c-0.6-3.7-1.6-7.5-4-10.3
	c-3-3.5-7.8-5.2-10.1-9.2c-1.3-2.4-1.6-5.1-2.8-7.5c-1.1-2.1-3.1-3.2-2.2-5.7C199.8,22.8,206.5,21,210.3,21.3z"/>
<path class="st18" d="M195.2,26.8c-0.3,1.4,0.2,2.8,1.1,3.8c1,1,2,1.8,3.2,2.6c1.2,0.7,2.1,1.8,2.8,3c0.1,0.2,0.2,0.4,0.3,0.5
	c0.2,0.1,0.4,0.1,0.6,0c0.1-0.1,0.1-0.2,0.1-0.4c0.2-2.2-0.2-4.5-0.2-6.7c0-1.5,0.5-3.5-0.5-4.8C200.9,22.2,195.9,24.3,195.2,26.8z"
	/>
<path class="st2" d="M180,76.2c-0.1,0.6,0,1.3,0.4,1.8c0.7,0.9,2.3,0.7,3.1-0.2c0.7-1,1-2.2,0.8-3.3c-0.1,1.1,0.1,2.1,0.6,3.1
	c0.6,0.9,1.9,1.4,2.7,0.7c0.4-0.4,0.7-1.1,0.6-1.7c0-1.1-0.5-2.1-1.2-2.9c0.4,0.6,1,1,1.8,1.2c0.4,0.1,0.7,0.1,1.1,0
	c0.7-0.3,1.2-1,1-1.8c-0.1-0.8-0.6-1.4-1.3-1.8c-0.7-0.4-1.4-0.7-2.1-0.8c0.5-0.4,1.2-0.7,1.7-1c0.6-0.4,0.9-0.9,1-1.6
	c0.1-1.1-1.2-1.9-2.3-1.8c-1.1,0.2-2.1,0.7-2.9,1.5c-0.7-0.7-1.6-1.2-2.5-1.5c-1-0.3-2,0-2.7,0.7c-0.7,0.9-0.6,2.3,0.4,3
	c0.1,0.1,0.2,0.1,0.3,0.2c-0.7,0.1-1.4,0.1-2.1,0.1c-0.7,0-1.4,0.4-1.8,1c-0.3,0.8,0,1.6,0.7,2.1c0.7,0.4,1.5,0.5,2.3,0.2
	c0.5-0.1,1.4-0.9,1.8-0.6C180.9,74,180.2,74.9,180,76.2z"/>
<ellipse class="st19" cx="184.4" cy="70.9" rx="2.7" ry="2"/>
</svg>
