<?xml version="1.0" encoding="UTF-8"?>
<svg width="319px" height="353px" viewBox="0 0 319 353" version="1.1" xmlns="http://www.w3.org/2000/svg" xmlns:xlink="http://www.w3.org/1999/xlink">
    <title>Waiting_Monochromatic</title>
    <defs>
        <linearGradient x1="69.6210866%" y1="64.4386668%" x2="29.9171363%" y2="37.6581376%" id="linearGradient-1">
            <stop stop-color="#000000" offset="1%"></stop>
            <stop stop-color="#000000" stop-opacity="0.69" offset="13%"></stop>
            <stop stop-color="#000000" stop-opacity="0" offset="100%"></stop>
        </linearGradient>
        <linearGradient x1="-5.24271842%" y1="35.5419627%" x2="96.6890419%" y2="68.9684261%" id="linearGradient-2">
            <stop stop-color="#E5C5D5" offset="0%"></stop>
            <stop stop-color="#EAD4D1" offset="42%"></stop>
            <stop stop-color="#F0E9CB" offset="100%"></stop>
        </linearGradient>
        <linearGradient x1="0.000957256936%" y1="50%" x2="99.9998459%" y2="50%" id="linearGradient-3">
            <stop stop-color="#FFFFFF" stop-opacity="0" offset="2%"></stop>
            <stop stop-color="#FFFFFF" stop-opacity="0.39" offset="32%"></stop>
            <stop stop-color="#FFFFFF" stop-opacity="0.68" offset="68%"></stop>
            <stop stop-color="#FFFFFF" offset="100%"></stop>
        </linearGradient>
        <linearGradient x1="49.6053024%" y1="50.5467142%" x2="50.3500149%" y2="49.5154064%" id="linearGradient-4">
            <stop stop-color="#000000" offset="1%"></stop>
            <stop stop-color="#000000" stop-opacity="0.69" offset="13%"></stop>
            <stop stop-color="#000000" stop-opacity="0" offset="100%"></stop>
        </linearGradient>
        <linearGradient x1="50%" y1="-184.562439%" x2="50%" y2="276.794494%" id="linearGradient-5">
            <stop stop-color="#000000" offset="1%"></stop>
            <stop stop-color="#000000" stop-opacity="0.69" offset="13%"></stop>
            <stop stop-color="#000000" stop-opacity="0" offset="100%"></stop>
        </linearGradient>
        <linearGradient x1="56.0535117%" y1="45.1327434%" x2="48.3723523%" y2="57.3447715%" id="linearGradient-6">
            <stop stop-color="#FFFFFF" stop-opacity="0" offset="2%"></stop>
            <stop stop-color="#FFFFFF" stop-opacity="0.39" offset="32%"></stop>
            <stop stop-color="#FFFFFF" stop-opacity="0.68" offset="68%"></stop>
            <stop stop-color="#FFFFFF" offset="100%"></stop>
        </linearGradient>
        <linearGradient x1="56.2305764%" y1="44.3915397%" x2="40.9824561%" y2="60.1484255%" id="linearGradient-7">
            <stop stop-color="#000000" offset="1%"></stop>
            <stop stop-color="#000000" stop-opacity="0.69" offset="13%"></stop>
            <stop stop-color="#000000" stop-opacity="0" offset="100%"></stop>
        </linearGradient>
        <linearGradient x1="50.4832819%" y1="52.5651918%" x2="49.2180697%" y2="44.7169662%" id="linearGradient-8">
            <stop stop-color="#000000" offset="1%"></stop>
            <stop stop-color="#000000" stop-opacity="0.69" offset="13%"></stop>
            <stop stop-color="#000000" stop-opacity="0" offset="100%"></stop>
        </linearGradient>
        <linearGradient x1="62.0086993%" y1="49.3515912%" x2="34.1548951%" y2="51.951355%" id="linearGradient-9">
            <stop stop-color="#000000" offset="1%"></stop>
            <stop stop-color="#000000" stop-opacity="0.69" offset="13%"></stop>
            <stop stop-color="#000000" stop-opacity="0" offset="100%"></stop>
        </linearGradient>
        <linearGradient x1="0.00686987477%" y1="50.060171%" x2="100.147289%" y2="50.060171%" id="linearGradient-10">
            <stop stop-color="#E5C5D5" offset="0%"></stop>
            <stop stop-color="#EAD4D1" offset="42%"></stop>
            <stop stop-color="#F0E9CB" offset="100%"></stop>
        </linearGradient>
        <linearGradient x1="90.4268278%" y1="53.6736804%" x2="23.5027398%" y2="48.1581898%" id="linearGradient-11">
            <stop stop-color="#000000" offset="1%"></stop>
            <stop stop-color="#000000" stop-opacity="0.69" offset="13%"></stop>
            <stop stop-color="#000000" stop-opacity="0" offset="100%"></stop>
        </linearGradient>
        <linearGradient x1="46.6183437%" y1="49.406862%" x2="53.128036%" y2="51.4020526%" id="linearGradient-12">
            <stop stop-color="#E5C5D5" offset="0%"></stop>
            <stop stop-color="#EAD4D1" offset="42%"></stop>
            <stop stop-color="#F0E9CB" offset="100%"></stop>
        </linearGradient>
        <linearGradient x1="-0.014744927%" y1="50.0085572%" x2="100.060541%" y2="50.0085572%" id="linearGradient-13">
            <stop stop-color="#E5C5D5" offset="0%"></stop>
            <stop stop-color="#EAD4D1" offset="42%"></stop>
            <stop stop-color="#F0E9CB" offset="100%"></stop>
        </linearGradient>
        <linearGradient x1="-0.0606234861%" y1="50.120268%" x2="100.149999%" y2="50.120268%" id="linearGradient-14">
            <stop stop-color="#E5C5D5" offset="0%"></stop>
            <stop stop-color="#EAD4D1" offset="42%"></stop>
            <stop stop-color="#F0E9CB" offset="100%"></stop>
        </linearGradient>
    </defs>
    <g id="Page-1" stroke="none" stroke-width="1" fill="none" fill-rule="evenodd">
        <g id="sign-up-independent-desktop" transform="translate(-971.000000, -121.000000)" fill-rule="nonzero">
            <g id="Waiting_Monochromatic" transform="translate(971.000000, 121.262136)">
                <path d="M277.882614,331.320361 C253.19415,343.90775 224.41088,345.270539 197.237926,346.30184 L126.993477,351.27418 C105.074758,352.102904 82.3370788,352.793507 62.1575032,344.220823 C50.5204713,339.136466 40.2182654,331.424283 32.0583733,321.688753 C19.0010009,306.458658 10.3144896,286.817912 5.93442666,267.085086 C-1.22458374,234.801703 1.04826403,201.30286 0.505357075,168.246002 C0.192495438,148.991994 -1.08655655,129.572241 2.21689426,110.594474 C5.52034508,91.616707 14.0504256,72.7033963 29.5922875,61.340677 C50.4896045,46.0737494 90.2576502,28.3851077 113.216173,17.0131803 C137.269712,5.11639479 164.663509,-1.25556775 191.532802,1.29505887 C218.696554,3.89172569 238.388433,16.2673292 253.608232,38.9835598 C264.106656,54.6593565 270.489734,72.7290063 272.168288,91.5246267 C274.128275,113.623919 269.508965,136.073116 272.78481,158.034288 C279.226079,201.063451 314.781884,236.017164 318.729461,279.350193 C320.799869,301.974343 284.351489,328.0423 277.882614,331.320361 Z" id="Path" fill="#4A67C6" opacity="0.18"></path>
                <path d="M124.617872,72.2000835 C124.452534,76.3777536 125.02203,80.5184532 125.205738,84.7238513 C125.347493,86.2790693 125.194765,87.8472294 124.755653,89.3451678 C123.726886,92.2288693 120.934521,94.0311827 118.325863,95.6209156 C116.672489,96.6283626 114.789479,98.0702134 115.019114,100.011166 C115.345537,101.513923 116.617224,102.620408 118.142155,102.7285 C119.63095,102.795315 121.114107,102.503807 122.468485,101.878178 C125.23995,100.971084 127.779769,99.4629406 129.90867,97.4601996 C134.069662,93.1069194 134.207443,86.3690399 133.895139,80.3336006 C133.628762,75.2686377 133.197048,69.7045726 130.643503,65.1941676 C126.528438,57.9849139 124.764838,68.586214 124.617872,72.2000835 Z" id="Path" fill="#4A67C6"></path>
                <path d="M124.617872,72.2000835 C124.452534,76.3777536 125.02203,80.5184532 125.205738,84.7238513 C125.347493,86.2790693 125.194765,87.8472294 124.755653,89.3451678 C123.726886,92.2288693 120.934521,94.0311827 118.325863,95.6209156 C116.672489,96.6283626 114.789479,98.0702134 115.019114,100.011166 C115.345537,101.513923 116.617224,102.620408 118.142155,102.7285 C119.63095,102.795315 121.114107,102.503807 122.468485,101.878178 C125.23995,100.971084 127.779769,99.4629406 129.90867,97.4601996 C134.069662,93.1069194 134.207443,86.3690399 133.895139,80.3336006 C133.628762,75.2686377 133.197048,69.7045726 130.643503,65.1941676 C126.528438,57.9849139 124.764838,68.586214 124.617872,72.2000835 Z" id="Path" fill="url(#linearGradient-1)"></path>
                <path d="M112.751284,96.9328198 C110.823001,96.2392722 108.773618,95.2952769 106.845335,95.9695593 C106.471532,96.0560579 106.162064,96.3257266 106.016266,96.6920047 C105.975726,96.9568487 106.011359,97.2281731 106.118736,97.4722457 L108.354426,104.321028 C108.455535,104.661927 108.602948,104.986251 108.792249,105.284288 C109.236357,105.807506 109.836013,106.163288 110.496963,106.295712 C112.924246,106.989196 115.502136,106.864348 117.856111,105.939306 C120.296739,104.976045 120.510993,101.874346 119.216156,99.6973775 C117.921318,97.5204087 114.986975,97.732326 112.751284,96.9328198 Z" id="Path" fill="url(#linearGradient-2)"></path>
                <path d="M107.337153,85.7378641 C107.99993,85.8933708 107.746516,86.2592691 107.814743,86.8904437 C108.272839,90.8970298 107.88297,95.4067261 108.789415,99.3309852 C109.69586,103.255244 112.483424,106.731278 113,110.737864 C110.943441,106.786163 109.10131,103.035705 108.058411,98.6998107 C107.873223,97.6295582 106.333241,85.7378641 107.337153,85.7378641 Z" id="Path" fill="#3E3E54"></path>
                <path d="M124.266006,123.737864 C124.266006,123.737864 106.015328,145.556375 118.182447,164.256642 C130.349566,182.956909 151.936092,196.86483 160.151654,211.011908 C168.367216,225.158987 153.461577,240.501852 148.287795,243.371741 C143.114012,246.241629 95.9802125,281.02063 125.175783,316.737864 L223.716578,316.737864 C223.716578,316.737864 255.65067,284.378032 202.424121,245.294198 C202.424121,245.294198 164.40647,225.876459 199.988859,198.299774 C235.571248,170.72309 241.958066,144.470969 225.085838,123.977021 L124.266006,123.737864 Z" id="Path" fill="#4A67C6"></path>
                <path d="M124.266006,123.737864 C124.266006,123.737864 106.015328,145.556375 118.182447,164.256642 C130.349566,182.956909 151.936092,196.86483 160.151654,211.011908 C168.367216,225.158987 153.461577,240.501852 148.287795,243.371741 C143.114012,246.241629 95.9802125,281.02063 125.175783,316.737864 L223.716578,316.737864 C223.716578,316.737864 255.65067,284.378032 202.424121,245.294198 C202.424121,245.294198 164.40647,225.876459 199.988859,198.299774 C235.571248,170.72309 241.958066,144.470969 225.085838,123.977021 L124.266006,123.737864 Z" id="Path" fill="url(#linearGradient-3)"></path>
                <rect id="Rectangle" fill="#4A67C6" x="112" y="113.737864" width="123" height="9" rx="4.5"></rect>
                <rect id="Rectangle" fill="#4A67C6" x="112" y="316.737864" width="123" height="9" rx="4.5"></rect>
                <rect id="Rectangle" fill="url(#linearGradient-4)" x="112" y="114.737864" width="123" height="9" rx="4.5"></rect>
                <rect id="Rectangle" fill="url(#linearGradient-5)" x="112" y="315.737864" width="123" height="9" rx="4.5"></rect>
                <path d="M216,266.737864 C199.187179,257.92877 143.557748,256.466642 133,264.013402 C142.854515,251.208431 156.39175,243.670753 156.39175,243.670753 C169.716165,235.497367 184.872687,242.599131 184.872687,242.599131 C184.872687,242.599131 204.146823,252.280052 216,266.737864 Z" id="Path" fill="url(#linearGradient-6)"></path>
                <path d="M215.299287,315.737864 L132.539273,315.737864 L129.343443,312.849951 C119.894102,296.596183 122.214993,282.239922 128.422455,270.817855 C129.783329,268.347695 131.322429,265.981048 133.027396,263.736915 C143.535874,255.998788 198.905694,257.489025 215.640053,266.513754 C217.352878,268.6383 218.892828,270.897917 220.244995,273.27073 C221.139093,274.8388 221.920844,276.468924 222.584305,278.148712 C230.836361,299.095339 215.299287,315.737864 215.299287,315.737864 Z" id="Path" fill="#4A67C6"></path>
                <path d="M219,272.948802 C215.086316,287.113674 176.058947,265.503629 157.877193,263.880382 C145.871579,262.819377 133.190877,270.083181 133.190877,270.083181 C133.190877,270.083181 129.094737,271.561334 128,270.572876 C129.348008,268.15281 130.872556,265.834158 132.561404,263.635535 C142.970526,256.054336 197.816842,257.514352 214.392982,266.356061 C216.104132,268.427197 217.64478,270.631898 219,272.948802 Z" id="Path" fill="url(#linearGradient-7)"></path>
                <path d="M133,175.923697 C133,175.923697 161.551615,198.444866 163.397545,202.802304 C165.243475,207.159741 180.094396,209.705451 184.73241,205.831141 C189.370425,201.956831 201.150981,194.570556 212.820224,177.856206 C224.489468,161.141856 186.114539,172.049387 173.220859,174.474315 C160.32718,176.899242 138.222404,161.151147 133,175.923697 Z" id="Path" fill="#4A67C6"></path>
                <path d="M133.22827,176.234189 C133.22827,176.234189 144.184791,183.516037 153.918815,181.327758 C163.652838,179.139479 170.041079,172.835373 183.424212,174.04591 C196.807345,175.256448 210.190479,181.085651 214.455433,174.781545 C218.720388,168.477439 214.152107,163.365247 200.759782,165.069311 C187.367457,166.773375 165.169471,167.00617 154.525468,166.279848 C143.881465,165.553526 124.413418,167.25759 133.22827,176.234189 Z" id="Path" fill="#4A67C6"></path>
                <path d="M133.22827,175.234189 C133.22827,175.234189 144.184791,182.516037 153.918815,180.327758 C163.652838,178.139479 170.041079,171.835373 183.424212,173.04591 C196.807345,174.256448 210.190479,180.085651 214.455433,173.781545 C218.720388,167.477439 214.152107,162.365247 200.759782,164.069311 C187.367457,165.773375 165.169471,166.00617 154.525468,165.279848 C143.881465,164.553526 124.413418,166.25759 133.22827,175.234189 Z" id="Path" fill="url(#linearGradient-8)"></path>
                <path d="M173.119545,211.841429 C172.351638,212.365023 171.726544,213.084815 171.304403,213.931555 C170.997465,214.457472 170.918389,215.093226 171.086586,215.682742 C171.349225,216.337384 171.973415,216.75659 172.656684,216.73722 C173.226403,216.680843 173.76838,216.455294 174.217706,216.087586 C175.125277,215.475612 176.123605,214.694169 175.987469,213.743256 C175.851334,212.792342 174.435523,212.114463 173.219378,211.737864" id="Path" fill="#4A67C6"></path>
                <path d="M177.860828,221.756325 C177.59499,221.835725 177.345544,221.976991 177.127374,222.171692 C177.016961,222.282457 176.953869,222.402452 177.040621,222.522447 C177.21949,222.679166 177.44087,222.7546 177.663663,222.734745 C177.874898,222.719845 178.083959,222.676484 178.286705,222.60552 C178.649489,222.476295 179.075365,222.319378 178.988613,222.13477 C178.90186,221.950163 178.373458,221.811707 177.892375,221.737864" id="Path" fill="#4A67C6"></path>
                <path d="M172.856242,223.756325 C172.59074,223.835725 172.341608,223.976991 172.123714,224.171692 C172.013441,224.282457 171.958304,224.411682 172.037071,224.522447 C172.215714,224.679166 172.436815,224.7546 172.659326,224.734745 C172.870746,224.724514 173.080036,224.68105 173.281581,224.60552 C173.643907,224.485525 174.069246,224.328608 173.99048,224.13477 C173.911713,223.940932 173.368224,223.811707 172.887749,223.737864" id="Path" fill="#4A67C6"></path>
                <path d="M180.399765,235.898293 C180.083713,235.796133 179.744472,235.741643 179.400974,235.737864 C179.211423,235.737864 179.043743,235.771056 179,235.876165 C179.009061,236.052302 179.128201,236.214619 179.32078,236.313197 C179.510965,236.422359 179.722526,236.508226 179.947758,236.56767 C180.363313,236.689375 180.829902,236.81108 180.96842,236.683843 C181.106939,236.556606 180.764288,236.191492 180.436218,235.898293" id="Path" fill="#4A67C6"></path>
                <path d="M165.401312,252.898293 C165.087138,252.796699 164.749952,252.742217 164.408413,252.737864 C164.211294,252.737864 164.043377,252.776588 164.006873,252.876165 C163.97037,252.975742 164.07988,253.163831 164.320804,253.313197 C164.512596,253.423936 164.727204,253.509917 164.955968,253.56767 C165.364808,253.689375 165.839356,253.81108 165.970769,253.683843 C166.102182,253.556606 165.766348,253.191492 165.445116,252.898293" id="Path" fill="#4A67C6"></path>
                <path d="M127.018617,66.5197373 C126.879758,64.0628806 127.520462,61.6253577 128.847482,59.5619239 C130.173575,57.5159466 131.947576,55.8055598 134.032313,54.5630168 C135.170674,53.7333034 136.553048,53.3165257 137.955228,53.3802809 C139.116557,53.5281229 143.14006,49.1113436 144.081925,49.813593 C146.733779,51.8002197 146.203408,59.1461183 148.452912,61.5947512 C149.043061,64.8796492 149.409693,68.2015588 149.550231,71.5371247 L150.894446,96.7257028 C151.11391,100.892999 151.223642,105.4299 148.754674,108.737864 C142.537102,106.455295 136.486802,103.731925 130.648914,100.588075 C129.260444,100.086955 128.419982,98.6598748 128.646307,97.187709 C128.39941,90.9229049 128.39941,84.6396206 128.646307,78.3748165 C128.756039,75.0114113 127.292947,69.8831425 127.018617,66.5197373 Z" id="Path" fill="#4A67C6"></path>
                <path d="M127.018617,66.5197373 C126.879758,64.0628806 127.520462,61.6253577 128.847482,59.5619239 C130.173575,57.5159466 131.947576,55.8055598 134.032313,54.5630168 C135.170674,53.7333034 136.553048,53.3165257 137.955228,53.3802809 C139.116557,53.5281229 143.14006,49.1113436 144.081925,49.813593 C146.733779,51.8002197 146.203408,59.1461183 148.452912,61.5947512 C149.043061,64.8796492 149.409693,68.2015588 149.550231,71.5371247 L150.894446,96.7257028 C151.11391,100.892999 151.223642,105.4299 148.754674,108.737864 C142.537102,106.455295 136.486802,103.731925 130.648914,100.588075 C129.260444,100.086955 128.419982,98.6598748 128.646307,97.187709 C128.39941,90.9229049 128.39941,84.6396206 128.646307,78.3748165 C128.756039,75.0114113 127.292947,69.8831425 127.018617,66.5197373 Z" id="Path" fill="url(#linearGradient-9)"></path>
                <path d="M121.046845,47.5332407 L121.046845,48.2580736 C121.02253,49.1684179 121.266866,50.0652156 121.748164,50.83216 C122.658967,51.9844585 124.316629,52.0309222 125.728374,51.8171894 C126.828638,51.5321613 127.970502,51.4534438 129.098346,51.5848711 C130.218634,51.8357748 131.457326,56.519311 132.532074,56.7051656 C134.490301,57.0489966 138.643564,54.5957158 139.991553,53.3597826 C140.128173,53.2389771 138.561592,49.6426905 138.61624,49.4475431 C138.661783,49.258304 138.661783,49.0606329 138.61624,48.8713938 L136.430312,38.5007067 C136.227652,37.0248374 135.701526,35.6145607 134.891055,34.3747344 C134.245756,33.572903 133.425383,32.9363942 132.495642,32.5161883 C129.408019,31.0758151 124.881327,31.5869153 122.622535,34.4490762 C121.429383,35.9637913 121.447599,38.593634 121.25633,40.4521801 C121.012528,42.803832 120.942502,45.1708673 121.046845,47.5332407 L121.046845,47.5332407 Z" id="Path" fill="url(#linearGradient-10)"></path>
                <path d="M136.875564,118.6301 C130.822136,122.520849 123.909158,124.817029 117.078477,127.06765 C115.395953,127.623471 113.420816,128.151957 111.93032,127.258998 C111.08774,126.669178 110.421038,125.863148 110.000904,124.926371 C107.312523,119.841972 100.591572,118.329409 103.892611,113.618596 C105.291666,111.613994 113.219645,105.044368 115.176493,103.595588 C119.053614,100.725363 123.113617,97.773131 127.87772,96.9804022 C130.115476,96.657018 132.388347,96.657018 134.626103,96.9804022 C138.951287,97.4997763 149.860259,99.1581285 148.945844,104.689007 C148.031429,110.219885 141.255613,115.78721 136.875564,118.6301 Z" id="Path" fill="#3E3E54"></path>
                <path d="M139.372859,71.2938602 C139.372859,74.9955318 139.757647,78.6972033 138.548314,82.1767746 C136.92671,86.803864 132.694046,89.9780474 128.470544,92.4766757 C125.859486,94.0313777 123.028549,95.5953339 121.626823,98.2975542 C120.225096,100.999774 121.21455,105.182663 124.192073,105.700897 C125.348531,105.820504 126.516311,105.648813 127.59103,105.201172 C133.355519,103.276424 138.923821,100.797277 144.21935,97.7978285 C146.390652,96.5577685 148.589438,95.1603875 149.927033,93.0411806 C151.086615,90.8955222 151.715259,88.4984129 151.759355,86.0542755 C152.193515,80.8095447 152.039848,75.5320616 151.301274,70.3221714 C150.447867,66.2186382 148.858091,62.3075409 146.61053,58.7822104 C139.372859,48.880239 139.372859,65.8338947 139.372859,71.2938602 Z" id="Path" fill="#4A67C6"></path>
                <path d="M139.372859,71.2938602 C139.372859,74.9955318 139.757647,78.6972033 138.548314,82.1767746 C136.92671,86.803864 132.694046,89.9780474 128.470544,92.4766757 C125.859486,94.0313777 123.028549,95.5953339 121.626823,98.2975542 C120.225096,100.999774 121.21455,105.182663 124.192073,105.700897 C125.348531,105.820504 126.516311,105.648813 127.59103,105.201172 C133.355519,103.276424 138.923821,100.797277 144.21935,97.7978285 C146.390652,96.5577685 148.589438,95.1603875 149.927033,93.0411806 C151.086615,90.8955222 151.715259,88.4984129 151.759355,86.0542755 C152.193515,80.8095447 152.039848,75.5320616 151.301274,70.3221714 C150.447867,66.2186382 148.858091,62.3075409 146.61053,58.7822104 C139.372859,48.880239 139.372859,65.8338947 139.372859,71.2938602 Z" id="Path" fill="url(#linearGradient-11)"></path>
                <path d="M99.5864803,135.690945 L98,165.737864 C101.711065,165.508358 103.399599,161.248728 104.290255,157.732697 C106.813779,147.756838 109.340396,137.78098 111.870105,127.805121 C112.612318,124.849085 113.373087,121.773705 112.797871,118.780947 C112.389654,116.660312 110.459901,112.979037 107.889988,112.749531 C105.153078,112.510845 103.71504,115.990155 102.768718,118.083249 C100.291583,123.582212 99.8926431,129.778872 99.5864803,135.690945 Z" id="Path" fill="url(#linearGradient-12)"></path>
                <path d="M104.116501,138.031378 L105.171841,167.737864 C108.729062,167.193623 110.048237,162.857837 110.630493,159.32027 C112.231697,149.288095 113.835934,139.252896 115.443204,129.214674 C115.916287,126.23949 116.35298,123.155458 115.570573,120.252839 C114.988317,118.202865 112.78666,114.746935 110.257485,114.737864 C107.528159,114.737864 106.463722,118.27543 105.708608,120.425182 C103.761689,126.021794 103.907253,132.226141 104.116501,138.031378 Z" id="Path" fill="url(#linearGradient-13)"></path>
                <path d="M102.863016,160.808621 L99.4243347,161.047426 C98.7038412,161.007287 97.9980262,161.253737 97.4739,161.728461 C97.1928498,162.143436 97.0539171,162.63189 97.076418,163.12591 C96.9839803,164.894833 96.9654928,166.663756 97.076418,168.361922 C97.0580278,168.431585 97.0580278,168.50453 97.076418,168.574193 C97.1829633,168.695249 97.3470741,168.755386 97.510875,168.733396 C98.8260146,168.722751 100.116999,168.394165 101.263844,167.778178 C101.751369,167.559858 102.171676,167.224727 102.484021,166.80527 C102.767467,166.299977 102.910689,165.733555 102.899991,165.160172 C102.992429,163.683121 103.029404,162.197226 102.973941,160.737864 L102.863016,160.808621 Z" id="Path" fill="#4A67C6"></path>
                <path d="M102.812803,167.239033 C102.805516,167.117439 102.766636,166.999171 102.699373,166.893996 C102.515923,166.719955 102.223702,166.687523 101.999885,166.816363 C101.790108,166.953109 101.605114,167.119015 101.451638,167.30804 C100.844242,167.962207 99.9916982,168.386565 99.0601465,168.498417 C98.1118074,168.478185 97.1632703,168.530121 96.2243856,168.653684 C95.5472051,168.895057 94.9323918,169.262235 94.4189512,169.731923 L91.3563294,172.147181 C90.6379366,172.707865 89.8533761,173.441068 90.0235217,174.295034 C90.2963907,175.058954 91.0379409,175.603699 91.914029,175.683807 C93.4623912,175.838134 95.0288588,175.660925 96.4890566,175.166252 C97.8512804,174.833358 99.1897678,174.424292 100.496932,173.941372 C101.182927,173.717915 101.794741,173.337789 102.274009,172.837254 C103.32324,171.551992 102.973497,168.748569 102.812803,167.239033 Z" id="Path" fill="#3E3E54"></path>
                <path d="M111.893292,160.782134 L108.431747,161.038897 C107.709773,161.000466 107.002795,161.246762 106.474819,161.720649 C106.202329,162.139143 106.067256,162.62653 106.087126,163.119567 C105.985588,164.890351 105.976357,166.661134 106.040972,168.361086 C106.042101,168.436956 106.057745,168.511983 106.087126,168.582433 C106.192577,168.698869 106.352693,168.755626 106.511743,168.73295 C107.82871,168.727685 109.12225,168.39845 110.268673,167.776727 C110.755339,167.562028 111.175287,167.22941 111.487137,166.81165 C111.759276,166.302254 111.89864,165.73718 111.893292,165.164822 C111.997908,163.677364 112.0256,162.201711 111.976369,160.737864 L111.893292,160.782134 Z" id="Path" fill="#4A67C6"></path>
                <path d="M111.812769,167.245746 C111.811862,167.12169 111.776053,166.999924 111.708773,166.892114 C111.521493,166.716292 111.223421,166.687286 110.999704,166.823113 C110.790618,166.957714 110.608352,167.123997 110.460811,167.314747 C109.851746,167.96565 108.999244,168.386799 108.068886,168.496396 C107.12021,168.482959 106.171848,168.537755 105.23261,168.660274 C104.55288,168.89825 103.93475,169.262451 103.417394,169.729796 L100.354216,172.144844 C99.6451474,172.714106 98.8604445,173.447245 99.0211668,174.292512 C99.2961707,175.055051 100.036733,175.598924 100.912017,175.681165 C102.463798,175.840402 104.034866,175.663087 105.497329,175.163655 C106.860661,174.833403 108.199569,174.424318 109.505932,173.93888 C110.189803,173.716226 110.798866,173.335886 111.273877,172.834858 C112.323299,171.549707 111.973492,168.772402 111.812769,167.245746 Z" id="Path" fill="#3E3E54"></path>
                <path d="M114.183596,100.309168 C112.201208,100.402161 110.009669,100.309168 108.500144,101.526531 C108.195555,101.71602 108.009027,102.031307 108,102.371921 C108.055056,102.600919 108.181589,102.809717 108.363741,102.972148 L112.810474,107.782421 C113.022783,108.0405 113.277491,108.265881 113.565236,108.450279 C114.150817,108.719639 114.815334,108.802801 115.456689,108.686989 C117.901403,108.432568 120.193478,107.454568 121.994932,105.8972 C123.813636,104.282504 122.967939,101.670247 121.021925,100.359892 C119.075911,99.0495364 116.49335,100.199268 114.183596,100.309168 Z" id="Path" fill="url(#linearGradient-14)"></path>
                <path d="M137.125224,24.7797866 C143.491873,25.3233375 149.190303,29.3216613 153.051128,34.3702361 C157.069727,39.6214909 160.280894,46.5955257 166.777475,47.9774349 C169.700936,48.6039004 172.754329,47.8945203 175.724195,48.1985404 C181.40114,48.8960593 186.007478,53.0912511 187.1953,58.6457735 C187.891363,62.2295246 187.037526,65.9330411 187.408759,69.5628559 C188.141945,76.7211453 193.580511,83.529351 191.548009,90.4296841 C189.933145,95.8836188 183.195263,99.1909881 177.821662,97.1089116 C172.104671,94.8886443 169.62669,88.4120967 165.756584,83.6583292 C164.076754,81.5854655 161.617334,79.6415799 158.981578,80.1298545 C157.672981,80.3785982 156.531439,81.1985309 155.269246,81.5301891 C152.299381,82.2948455 149.208864,80.2219818 147.696089,77.5687162 C146.183314,74.9154506 145.839923,71.7831232 145.366601,68.779774 C144.67982,64.5419193 143.510435,60.1935118 140.726186,56.9414189 C137.273718,52.9615206 131.658816,50.9807841 129.050902,46.4112712 C127.510285,43.7027292 127.241141,40.5059127 125.839735,37.7513072 C124.596104,35.3283598 122.210931,34.0662161 123.259665,31.2010578 C125.013742,26.4657157 132.71683,24.4112775 137.125224,24.7797866 Z" id="Path" fill="#FE9F24"></path>
                <path d="M120.084814,31.4364698 C119.797287,32.9893358 120.250261,34.591007 121.300144,35.7337541 C122.35094,36.8483964 123.524914,37.8294127 124.797498,38.6562716 C126.066221,39.4916821 127.114976,40.6431955 127.84894,42.0066967 C127.92448,42.236823 128.05017,42.4456086 128.216162,42.6166926 C128.394004,42.7782546 128.659099,42.7782546 128.836942,42.6166926 C128.921377,42.495172 128.964455,42.3477868 128.959349,42.1978894 C129.134217,39.648653 128.688305,37.1085209 128.688305,34.5592845 C128.688305,32.8294454 129.186677,30.6261768 128.189932,29.0966349 C126.27513,26.1376997 120.854232,28.5139523 120.084814,31.4364698 Z" id="Path" fill="#FE9F24"></path>
                <path d="M102.118229,87.1186287 C101.996516,87.8046814 102.155463,88.508525 102.563298,89.0894734 C103.415558,90.1104065 105.29053,89.8440761 106.180668,88.8586538 C106.987408,87.7826273 107.32607,86.458674 107.127623,85.1566617 C107.031869,86.340107 107.294463,87.5248518 107.885187,88.574568 C108.576465,89.5511127 110.16735,90.0748958 111.123774,89.3114154 C111.650633,88.82266 111.917903,88.1392999 111.85293,87.4471028 C111.828715,86.2540745 111.308902,85.1169891 110.404088,84.2777715 C110.897664,84.9502559 111.628817,85.4376198 112.468451,85.6538117 C112.886382,85.7646374 113.328909,85.7646374 113.746841,85.6538117 C114.60543,85.3303416 115.114785,84.4965206 114.977883,83.6385786 C114.816216,82.8015573 114.273354,82.0721973 113.491163,81.6411009 C112.712956,81.2101619 111.860556,80.9097399 110.972262,80.753333 C111.606722,80.3272045 112.335877,80.0342411 112.960868,79.5992348 C113.623021,79.2026053 114.066133,78.5535171 114.172971,77.823699 C114.239258,76.5985794 112.780946,75.7019338 111.474148,75.7995883 C110.18404,76.0184274 109.002611,76.6188887 108.102987,77.5129803 C107.262452,76.7641634 106.252548,76.2027702 105.148486,75.8706097 C104.019851,75.546601 102.792571,75.8257338 101.947777,76.5985794 C101.495581,77.1502524 101.321379,77.8589031 101.470417,78.5404744 C101.619454,79.2220458 102.077023,79.8092783 102.724281,80.1496509 C101.899947,80.2281737 101.071834,80.266695 100.243258,80.2650607 C99.3979489,80.2808488 98.6151744,80.6859599 98.1504862,81.3481375 C97.7833862,82.1824603 98.1064734,83.143492 98.91752,83.629701 C99.7286257,84.0837214 100.710388,84.1841875 101.606873,83.904909 C102.175046,83.7451108 103.235636,82.9194867 103.746992,83.2923492 C103.207228,84.6861447 102.279212,85.6094233 102.118229,87.1186287 Z" id="Path" fill="#4A67C6"></path>
                <ellipse id="Oval" fill="#FFFFFF" cx="107" cy="82.2378641" rx="3" ry="2.5"></ellipse>
            </g>
        </g>
    </g>
</svg>