<?xml version="1.0" encoding="UTF-8"?>
<svg width="319px" height="311px" viewBox="0 0 319 311" version="1.1" xmlns="http://www.w3.org/2000/svg" xmlns:xlink="http://www.w3.org/1999/xlink">
    <title>Waiting_Monochromatic</title>
    <defs>
        <linearGradient x1="70.6932219%" y1="64.4386668%" x2="28.8197686%" y2="37.6581376%" id="linearGradient-1">
            <stop stop-color="#000000" offset="1%"></stop>
            <stop stop-color="#000000" stop-opacity="0.69" offset="13%"></stop>
            <stop stop-color="#000000" stop-opacity="0" offset="100%"></stop>
        </linearGradient>
        <linearGradient x1="-5.24271842%" y1="35.5419627%" x2="96.6890419%" y2="68.9684261%" id="linearGradient-2">
            <stop stop-color="#E5C5D5" offset="0%"></stop>
            <stop stop-color="#EAD4D1" offset="42%"></stop>
            <stop stop-color="#F0E9CB" offset="100%"></stop>
        </linearGradient>
        <linearGradient x1="0.000957256936%" y1="50%" x2="99.9998459%" y2="50%" id="linearGradient-3">
            <stop stop-color="#FFFFFF" stop-opacity="0" offset="2%"></stop>
            <stop stop-color="#FFFFFF" stop-opacity="0.39" offset="32%"></stop>
            <stop stop-color="#FFFFFF" stop-opacity="0.68" offset="68%"></stop>
            <stop stop-color="#FFFFFF" offset="100%"></stop>
        </linearGradient>
        <linearGradient x1="49.6053024%" y1="50.5209901%" x2="50.3500149%" y2="49.5382076%" id="linearGradient-4">
            <stop stop-color="#000000" offset="1%"></stop>
            <stop stop-color="#000000" stop-opacity="0.69" offset="13%"></stop>
            <stop stop-color="#000000" stop-opacity="0" offset="100%"></stop>
        </linearGradient>
        <linearGradient x1="50%" y1="-184.562439%" x2="50%" y2="276.794494%" id="linearGradient-5">
            <stop stop-color="#000000" offset="1%"></stop>
            <stop stop-color="#000000" stop-opacity="0.69" offset="13%"></stop>
            <stop stop-color="#000000" stop-opacity="0" offset="100%"></stop>
        </linearGradient>
        <linearGradient x1="56.0535117%" y1="45.3590961%" x2="48.3723523%" y2="57.0032015%" id="linearGradient-6">
            <stop stop-color="#FFFFFF" stop-opacity="0" offset="2%"></stop>
            <stop stop-color="#FFFFFF" stop-opacity="0.39" offset="32%"></stop>
            <stop stop-color="#FFFFFF" stop-opacity="0.68" offset="68%"></stop>
            <stop stop-color="#FFFFFF" offset="100%"></stop>
        </linearGradient>
        <linearGradient x1="56.2305764%" y1="44.1759711%" x2="40.9824561%" y2="60.5384935%" id="linearGradient-7">
            <stop stop-color="#000000" offset="1%"></stop>
            <stop stop-color="#000000" stop-opacity="0.69" offset="13%"></stop>
            <stop stop-color="#000000" stop-opacity="0" offset="100%"></stop>
        </linearGradient>
        <linearGradient x1="50.4832819%" y1="52.4486076%" x2="49.2180697%" y2="44.9570724%" id="linearGradient-8">
            <stop stop-color="#000000" offset="1%"></stop>
            <stop stop-color="#000000" stop-opacity="0.69" offset="13%"></stop>
            <stop stop-color="#000000" stop-opacity="0" offset="100%"></stop>
        </linearGradient>
        <linearGradient x1="62.5995498%" y1="49.3515912%" x2="33.3752863%" y2="51.951355%" id="linearGradient-9">
            <stop stop-color="#000000" offset="1%"></stop>
            <stop stop-color="#000000" stop-opacity="0.69" offset="13%"></stop>
            <stop stop-color="#000000" stop-opacity="0" offset="100%"></stop>
        </linearGradient>
        <linearGradient x1="0.00686987477%" y1="50.060171%" x2="100.147289%" y2="50.060171%" id="linearGradient-10">
            <stop stop-color="#E5C5D5" offset="0%"></stop>
            <stop stop-color="#EAD4D1" offset="42%"></stop>
            <stop stop-color="#F0E9CB" offset="100%"></stop>
        </linearGradient>
        <linearGradient x1="91.4043422%" y1="53.6736804%" x2="22.8620401%" y2="48.1581898%" id="linearGradient-11">
            <stop stop-color="#000000" offset="1%"></stop>
            <stop stop-color="#000000" stop-opacity="0.69" offset="13%"></stop>
            <stop stop-color="#000000" stop-opacity="0" offset="100%"></stop>
        </linearGradient>
        <linearGradient x1="46.7424305%" y1="49.406862%" x2="53.0132556%" y2="51.4020526%" id="linearGradient-12">
            <stop stop-color="#E5C5D5" offset="0%"></stop>
            <stop stop-color="#EAD4D1" offset="42%"></stop>
            <stop stop-color="#F0E9CB" offset="100%"></stop>
        </linearGradient>
        <linearGradient x1="-0.014744927%" y1="50.0085572%" x2="100.060541%" y2="50.0085572%" id="linearGradient-13">
            <stop stop-color="#E5C5D5" offset="0%"></stop>
            <stop stop-color="#EAD4D1" offset="42%"></stop>
            <stop stop-color="#F0E9CB" offset="100%"></stop>
        </linearGradient>
        <linearGradient x1="-0.0606234861%" y1="50.120268%" x2="100.149999%" y2="50.120268%" id="linearGradient-14">
            <stop stop-color="#E5C5D5" offset="0%"></stop>
            <stop stop-color="#EAD4D1" offset="42%"></stop>
            <stop stop-color="#F0E9CB" offset="100%"></stop>
        </linearGradient>
    </defs>
    <g id="Page-1" stroke="none" stroke-width="1" fill="none" fill-rule="evenodd">
        <g id="sign-in-market-desktop" transform="translate(-971.000000, -121.000000)" fill-rule="nonzero">
            <g id="Waiting_Monochromatic" transform="translate(971.000000, 121.000000)">
                <path d="M278.044468,288.200126 C253.341624,299.173747 224.541589,300.36182 197.352808,301.260902 L127.067444,305.595763 C105.135959,306.31824 82.3850363,306.920304 62.193707,299.446682 C50.5498971,295.014166 40.2416907,288.290724 32.0770459,279.803339 C19.0120681,266.52582 10.3204973,249.403119 5.93788318,232.200142 C-1.225297,204.055655 1.0488746,174.851535 0.505651422,146.032736 C0.192607557,129.24719 -1.08718942,112.317149 2.2181855,95.7724292 C5.52356042,79.2277093 14.0586093,62.7391819 29.6095236,52.8332215 C50.5190123,39.5235923 90.3102211,24.1027252 113.282116,14.1887372 C137.349665,3.81718062 164.759418,-1.73786365 191.644361,0.485759564 C218.823935,2.74952038 238.527284,13.5385081 253.755947,33.3424014 C264.260486,47.0084806 270.647282,62.7615086 272.326814,79.147434 C274.287942,98.4134835 269.665941,117.984579 272.943694,137.130215 C279.388715,174.642819 314.96523,205.115288 318.915107,242.8928 C320.98672,262.616418 284.51711,285.342329 278.044468,288.200126 Z" id="Path" fill="#4A67C6" opacity="0.18"></path>
                <path d="M123.124075,50.6987749 C122.950036,54.9808868 123.549505,59.2251039 123.742882,63.5356369 C123.892098,65.1297353 123.731331,66.7370994 123.269108,68.2724863 C122.186196,71.2282804 119.246864,73.0756516 116.500909,74.7051278 C114.760515,75.737761 112.778399,77.215658 113.02012,79.2051348 C113.363723,80.7454599 114.702341,81.8796079 116.307532,81.9904023 C117.874684,82.0588873 119.435902,81.7600911 120.861563,81.118822 C123.778894,80.1890507 126.452389,78.6432034 128.693337,76.5903939 C133.073329,72.1282817 133.218361,65.2219553 132.88962,59.0356299 C132.609224,53.8440429 132.154787,48.1408762 129.466845,43.5177111 C125.135198,36.128226 123.278777,46.9945586 123.124075,50.6987749 Z" id="Path" fill="#4A67C6"></path>
                <path d="M123.124075,50.6987749 C122.950036,54.9808868 123.549505,59.2251039 123.742882,63.5356369 C123.892098,65.1297353 123.731331,66.7370994 123.269108,68.2724863 C122.186196,71.2282804 119.246864,73.0756516 116.500909,74.7051278 C114.760515,75.737761 112.778399,77.215658 113.02012,79.2051348 C113.363723,80.7454599 114.702341,81.8796079 116.307532,81.9904023 C117.874684,82.0588873 119.435902,81.7600911 120.861563,81.118822 C123.778894,80.1890507 126.452389,78.6432034 128.693337,76.5903939 C133.073329,72.1282817 133.218361,65.2219553 132.88962,59.0356299 C132.609224,53.8440429 132.154787,48.1408762 129.466845,43.5177111 C125.135198,36.128226 123.278777,46.9945586 123.124075,50.6987749 Z" id="Path" fill="url(#linearGradient-1)"></path>
                <path d="M111.751284,77.1949557 C109.823001,76.5014081 107.773618,75.5574128 105.845335,76.2316952 C105.471532,76.3181938 105.162064,76.5878625 105.016266,76.9541406 C104.975726,77.2189846 105.011359,77.490309 105.118736,77.7343816 L107.354426,84.5831639 C107.455535,84.9240627 107.602948,85.2483871 107.792249,85.5464244 C108.236357,86.069642 108.836013,86.4254242 109.496963,86.557848 C111.924246,87.251332 114.502136,87.1264838 116.856111,86.2014416 C119.296739,85.238181 119.510993,82.1364822 118.216156,79.9595134 C116.921318,77.7825446 113.986975,77.9944619 111.751284,77.1949557 Z" id="Path" fill="url(#linearGradient-2)"></path>
                <path d="M104.393345,65 C105.166585,65.161727 104.870935,65.5422613 104.950533,66.1986828 C105.484978,70.3655324 105.030131,75.0556165 106.087651,79.136846 C107.145171,83.2180754 110.397328,86.8331504 111,91 C108.600681,86.8902305 106.451529,82.9897548 105.234813,78.4804244 C105.01876,77.3673619 103.222114,65 104.393345,65 Z" id="Path" fill="#3E3E54"></path>
                <path d="M122.522656,104 C122.522656,104 103.815712,126.383758 116.287008,145.568487 C128.758305,164.753217 150.884495,179.021447 159.305446,193.53503 C167.726397,208.048613 152.448116,223.788962 147.14499,226.7332 C141.841863,229.677438 93.5297178,265.357449 123.455178,302 L224.459493,302 C224.459493,302 257.191936,268.80183 202.634724,228.705462 C202.634724,228.705462 163.666632,208.784673 200.13858,180.493566 C236.610529,152.202459 243.157018,125.270232 225.862984,104.245353 L122.522656,104 Z" id="Path" fill="#4A67C6"></path>
                <path d="M122.522656,104 C122.522656,104 103.815712,126.383758 116.287008,145.568487 C128.758305,164.753217 150.884495,179.021447 159.305446,193.53503 C167.726397,208.048613 152.448116,223.788962 147.14499,226.7332 C141.841863,229.677438 93.5297178,265.357449 123.455178,302 L224.459493,302 C224.459493,302 257.191936,268.80183 202.634724,228.705462 C202.634724,228.705462 163.666632,208.784673 200.13858,180.493566 C236.610529,152.202459 243.157018,125.270232 225.862984,104.245353 L122.522656,104 Z" id="Path" fill="url(#linearGradient-3)"></path>
                <rect id="Rectangle" fill="#4A67C6" x="110" y="94" width="126" height="9" rx="4.5"></rect>
                <rect id="Rectangle" fill="#4A67C6" x="110" y="302" width="126" height="9" rx="4.5"></rect>
                <rect id="Rectangle" fill="url(#linearGradient-4)" x="110" y="95" width="126" height="9" rx="4.5"></rect>
                <rect id="Rectangle" fill="url(#linearGradient-5)" x="110" y="301" width="126" height="9" rx="4.5"></rect>
                <path d="M217,249 C199.782051,240.190906 142.812152,238.728778 132,246.275538 C142.091973,233.470567 155.955407,225.932888 155.955407,225.932888 C169.600892,217.759502 185.122631,224.861267 185.122631,224.861267 C185.122631,224.861267 204.861204,234.542188 217,249 Z" id="Path" fill="url(#linearGradient-6)"></path>
                <path d="M216.109077,301 L131.726317,301 L128.467824,298.010757 C118.833202,281.186681 121.199601,266.326692 127.528777,254.503851 C128.916335,251.947018 130.485613,249.497331 132.224012,247.174456 C142.938538,239.164816 199.394041,240.707342 216.456525,250.048728 C218.202935,252.24782 219.77308,254.586722 221.15176,257.042792 C222.063389,258.665881 222.860468,260.353202 223.536939,262.09193 C231.9508,283.773526 216.109077,301 216.109077,301 Z" id="Path" fill="#4A67C6"></path>
                <path d="M220,256.958882 C215.957293,271.869273 175.643308,249.121858 156.862155,247.413177 C144.460752,246.29633 131.362005,253.942439 131.362005,253.942439 C131.362005,253.942439 127.130827,255.498389 126,254.457907 C127.392448,251.910469 128.967255,249.469783 130.711779,247.155443 C141.46406,239.175234 198.118496,240.712092 215.241103,250.019154 C217.008664,252.199298 218.600103,254.520036 220,256.958882 Z" id="Path" fill="url(#linearGradient-7)"></path>
                <path d="M132,157.370085 C132,157.370085 161.247996,180.46872 163.138949,184.937887 C165.029901,189.407054 180.24304,192.018038 184.994176,188.044387 C189.745313,184.070735 201.8132,176.495069 213.767059,159.352146 C225.720919,142.209223 186.410015,153.396433 173.201856,155.883539 C159.993696,158.370644 137.34978,142.218752 132,157.370085 Z" id="Path" fill="#4A67C6"></path>
                <path d="M132.2807,156.496325 C132.2807,156.496325 143.495022,163.778173 153.458081,161.589894 C163.421141,159.401615 169.959692,153.097509 183.657723,154.308046 C197.355754,155.518584 211.053784,161.347786 215.419091,155.043681 C219.784397,148.739575 215.108627,143.627383 201.401188,145.331447 C187.69375,147.035511 164.973459,147.268306 154.079008,146.541984 C143.184558,145.815662 123.258439,147.519726 132.2807,156.496325 Z" id="Path" fill="#4A67C6"></path>
                <path d="M132.2807,155.496325 C132.2807,155.496325 143.495022,162.778173 153.458081,160.589894 C163.421141,158.401615 169.959692,152.097509 183.657723,153.308046 C197.355754,154.518584 211.053784,160.347786 215.419091,154.043681 C219.784397,147.739575 215.108627,142.627383 201.401188,144.331447 C187.69375,146.035511 164.973459,146.268306 154.079008,145.541984 C143.184558,144.815662 123.258439,146.519726 132.2807,155.496325 Z" id="Path" fill="url(#linearGradient-8)"></path>
                <path d="M173.119545,193.103565 C172.351638,193.627159 171.726544,194.346951 171.304403,195.193691 C170.997465,195.719608 170.918389,196.355362 171.086586,196.944878 C171.349225,197.59952 171.973415,198.018726 172.656684,197.999356 C173.226403,197.942979 173.76838,197.71743 174.217706,197.349722 C175.125277,196.737748 176.123605,195.956305 175.987469,195.005391 C175.851334,194.054478 174.435523,193.376599 173.219378,193" id="Path" fill="#4A67C6"></path>
                <path d="M177.860828,204.018461 C177.59499,204.097861 177.345544,204.239127 177.127374,204.433828 C177.016961,204.544593 176.953869,204.664587 177.040621,204.784582 C177.21949,204.941302 177.44087,205.016736 177.663663,204.996881 C177.874898,204.981981 178.083959,204.93862 178.286705,204.867656 C178.649489,204.738431 179.075365,204.581514 178.988613,204.396906 C178.90186,204.212299 178.373458,204.073843 177.892375,204" id="Path" fill="#4A67C6"></path>
                <path d="M172.856242,206.018461 C172.59074,206.097861 172.341608,206.239127 172.123714,206.433828 C172.013441,206.544593 171.958304,206.673818 172.037071,206.784582 C172.215714,206.941302 172.436815,207.016736 172.659326,206.996881 C172.870746,206.986649 173.080036,206.943186 173.281581,206.867656 C173.643907,206.747661 174.069246,206.590744 173.99048,206.396906 C173.911713,206.203068 173.368224,206.073843 172.887749,206" id="Path" fill="#4A67C6"></path>
                <path d="M180.399765,218.160429 C180.083713,218.058269 179.744472,218.003779 179.400974,218 C179.211423,218 179.043743,218.033192 179,218.138301 C179.009061,218.314438 179.128201,218.476755 179.32078,218.575332 C179.510965,218.684495 179.722526,218.770362 179.947758,218.829806 C180.363313,218.951511 180.829902,219.073216 180.96842,218.945979 C181.106939,218.818742 180.764288,218.453627 180.436218,218.160429" id="Path" fill="#4A67C6"></path>
                <path d="M164.401312,235.160429 C164.087138,235.058835 163.749952,235.004353 163.408413,235 C163.211294,235 163.043377,235.038724 163.006873,235.138301 C162.97037,235.237878 163.07988,235.425967 163.320804,235.575332 C163.512596,235.686072 163.727204,235.772053 163.955968,235.829806 C164.364808,235.951511 164.839356,236.073216 164.970769,235.945979 C165.102182,235.818742 164.766348,235.453627 164.445116,235.160429" id="Path" fill="#4A67C6"></path>
                <path d="M125.019393,46.0663118 C124.874747,43.5678134 125.542148,41.0889766 126.92446,38.9905693 C128.305807,36.9099144 130.153725,35.170538 132.325326,33.906935 C133.511119,33.0631586 134.951092,32.6393169 136.411696,32.7041527 C137.621414,32.8545005 141.812562,28.3628605 142.793672,29.0770125 C145.55602,31.0973108 145.00355,38.5677162 147.346783,41.0578513 C147.961522,44.3984255 148.34343,47.7766387 148.489824,51.1687396 L149.890048,76.7842428 C150.118656,81.0221709 150.23296,85.6359684 147.661119,89 C141.184482,86.6787432 134.882085,83.9092149 128.800952,80.7120786 C127.35463,80.2024649 126.479148,78.7511973 126.714903,77.2540796 C126.457719,70.8830924 126.457719,64.4933117 126.714903,58.1223245 C126.829207,54.7019124 125.305153,49.4867238 125.019393,46.0663118 Z" id="Path" fill="#4A67C6"></path>
                <path d="M125.019393,46.0663118 C124.874747,43.5678134 125.542148,41.0889766 126.92446,38.9905693 C128.305807,36.9099144 130.153725,35.170538 132.325326,33.906935 C133.511119,33.0631586 134.951092,32.6393169 136.411696,32.7041527 C137.621414,32.8545005 141.812562,28.3628605 142.793672,29.0770125 C145.55602,31.0973108 145.00355,38.5677162 147.346783,41.0578513 C147.961522,44.3984255 148.34343,47.7766387 148.489824,51.1687396 L149.890048,76.7842428 C150.118656,81.0221709 150.23296,85.6359684 147.661119,89 C141.184482,86.6787432 134.882085,83.9092149 128.800952,80.7120786 C127.35463,80.2024649 126.479148,78.7511973 126.714903,77.2540796 C126.457719,70.8830924 126.457719,64.4933117 126.714903,58.1223245 C126.829207,54.7019124 125.305153,49.4867238 125.019393,46.0663118 Z" id="Path" fill="url(#linearGradient-9)"></path>
                <path d="M120.049311,25.4271916 L120.049311,26.1810179 C120.023716,27.127776 120.280911,28.0604456 120.787541,28.8580677 C121.746281,30.0564582 123.491188,30.1047804 124.977236,29.8824983 C126.135409,29.5860691 127.337371,29.5042029 128.524575,29.6408873 C129.703825,29.9018272 131.007712,34.7727048 132.139025,34.9659936 C134.200317,35.3235778 138.572173,32.7721658 139.991108,31.4867953 C140.134919,31.3611576 138.485886,27.6210194 138.54341,27.4180662 C138.591351,27.2212576 138.591351,27.0156796 138.54341,26.818871 L136.242434,16.0333563 C136.029107,14.4984523 135.475291,13.0317645 134.622163,11.7423451 C133.942901,10.9084405 133.07935,10.2464713 132.100676,9.80945721 C128.850546,8.31146906 124.085607,8.84301324 121.707932,11.8196606 C120.451982,13.3949643 120.471157,16.1300007 120.269821,18.0628886 C120.013188,20.5086067 119.939476,22.9703234 120.049311,25.4271916 L120.049311,25.4271916 Z" id="Path" fill="url(#linearGradient-10)"></path>
                <path d="M135.61199,98.5984367 C129.426965,102.614694 122.363705,104.984945 115.384531,107.308166 C113.66543,107.881917 111.647356,108.427451 110.124457,107.505687 C109.263561,106.89684 108.582365,106.064809 108.153097,105.097814 C105.406274,99.8494022 98.539215,98.2880468 101.912015,93.4252713 C103.341485,91.3560051 111.441811,84.5744555 113.4412,83.0789404 C117.402605,80.1161274 121.550869,77.0686627 126.41854,76.250362 C128.704943,75.916546 131.027224,75.916546 133.313627,76.250362 C137.732836,76.78649 148.878961,78.4983375 147.944667,84.207631 C147.010373,89.9169245 140.087257,95.663841 135.61199,98.5984367 Z" id="Path" fill="#3E3E54"></path>
                <path d="M138.965532,49.8671161 C138.965532,53.642821 139.362732,57.418526 138.114389,60.9676887 C136.440474,65.6873199 132.071274,68.9249869 127.71153,71.4735878 C125.016244,73.0593839 122.093986,74.6546193 120.647043,77.4108839 C119.200099,80.1671485 120.221471,84.4336952 123.295043,84.9622938 C124.488806,85.0842928 125.694256,84.9091683 126.803644,84.4525737 C132.754084,82.4893314 138.502009,79.9606015 143.968362,76.9011637 C146.209705,75.6363026 148.47942,74.2109739 149.860163,72.0493828 C151.057151,69.8608113 151.706074,67.4157598 151.751592,64.9227397 C152.199757,59.5731142 152.041133,54.1900815 151.278735,48.8759935 C150.397798,44.6903896 148.756739,40.7010703 146.436676,37.1052332 C138.965532,27.0052224 138.965532,44.2979512 138.965532,49.8671161 Z" id="Path" fill="#4A67C6"></path>
                <path d="M138.965532,49.8671161 C138.965532,53.642821 139.362732,57.418526 138.114389,60.9676887 C136.440474,65.6873199 132.071274,68.9249869 127.71153,71.4735878 C125.016244,73.0593839 122.093986,74.6546193 120.647043,77.4108839 C119.200099,80.1671485 120.221471,84.4336952 123.295043,84.9622938 C124.488806,85.0842928 125.694256,84.9091683 126.803644,84.4525737 C132.754084,82.4893314 138.502009,79.9606015 143.968362,76.9011637 C146.209705,75.6363026 148.47942,74.2109739 149.860163,72.0493828 C151.057151,69.8608113 151.706074,67.4157598 151.751592,64.9227397 C152.199757,59.5731142 152.041133,54.1900815 151.278735,48.8759935 C150.397798,44.6903896 148.756739,40.7010703 146.436676,37.1052332 C138.965532,27.0052224 138.965532,44.2979512 138.965532,49.8671161 Z" id="Path" fill="url(#linearGradient-11)"></path>
                <path d="M97.5864803,115.386158 L96,146 C99.7110649,145.766164 101.399599,141.426163 102.290255,137.843792 C104.813779,127.679709 107.340396,117.515627 109.870105,107.351545 C110.612318,104.339734 111.373087,101.206328 110.797871,98.1571037 C110.389654,95.9964567 108.459901,92.2457233 105.889988,92.0118871 C103.153078,91.7686974 101.71504,95.3136549 100.768718,97.4462415 C98.2915826,103.048958 97.8926431,109.362537 97.5864803,115.386158 Z" id="Path" fill="url(#linearGradient-12)"></path>
                <path d="M102.116501,117.733014 L103.171841,148 C106.729062,147.44549 108.048237,143.027897 108.630493,139.423584 C110.231697,129.202122 111.835934,118.97758 113.443204,108.749957 C113.916287,105.718638 114.35298,102.576416 113.570573,99.6190313 C112.988317,97.5303782 110.78666,94.0092418 108.257485,94 C105.528159,94 104.463722,97.6043129 103.708608,99.794626 C101.761689,105.496834 101.907253,111.818244 102.116501,117.733014 Z" id="Path" fill="url(#linearGradient-13)"></path>
                <path d="M101.840185,141.079602 L97.8283905,141.348257 C96.9878147,141.303101 96.1643639,141.580357 95.5528833,142.114421 C95.2249915,142.581269 95.0629033,143.130779 95.0891543,143.686552 C94.9813104,145.67659 94.9597416,147.666628 95.0891543,149.577065 C95.067699,149.655436 95.067699,149.737499 95.0891543,149.81587 C95.2134571,149.952058 95.4049197,150.019712 95.5960209,149.994973 C97.1303504,149.982997 98.6364985,149.613339 99.974485,148.920353 C100.543264,148.674744 101.033622,148.297721 101.398025,147.825832 C101.728711,147.257377 101.895803,146.620152 101.883323,145.975096 C101.991167,144.313414 102.034304,142.641782 101.969598,141 L101.840185,141.079602 Z" id="Path" fill="#4A67C6"></path>
                <path d="M100.812803,148.501169 C100.805516,148.379575 100.766636,148.261307 100.699373,148.156132 C100.515923,147.982091 100.223702,147.949659 99.9998853,148.078499 C99.790108,148.215245 99.605114,148.381151 99.4516382,148.570176 C98.8442419,149.224343 97.9916982,149.648701 97.0601465,149.760553 C96.1118074,149.740321 95.1632703,149.792256 94.2243856,149.915819 C93.5472051,150.157193 92.9323918,150.524371 92.4189512,150.994059 L89.3563294,153.409317 C88.6379366,153.970001 87.8533761,154.703204 88.0235217,155.55717 C88.2963907,156.32109 89.0379409,156.865835 89.914029,156.945943 C91.4623912,157.100269 93.0288588,156.923061 94.4890566,156.428388 C95.8512804,156.095494 97.1897678,155.686428 98.496932,155.203508 C99.1829273,154.980051 99.7947405,154.599925 100.274009,154.09939 C101.32324,152.814128 100.973497,150.010705 100.812803,148.501169 Z" id="Path" fill="#3E3E54"></path>
                <path d="M110.875507,141.049803 L106.837038,141.338662 C105.994735,141.295427 105.169927,141.57251 104.553956,142.105633 C104.23605,142.576439 104.078465,143.124749 104.101647,143.679416 C103.983186,145.671547 103.972416,147.663678 104.047801,149.576124 C104.049118,149.661478 104.067369,149.745884 104.101647,149.82514 C104.224673,149.95613 104.411475,150.019982 104.597033,149.994472 C106.133495,149.988549 107.642625,149.618159 108.980119,148.918721 C109.547896,148.677184 110.037835,148.302989 110.40166,147.833009 C110.719156,147.259939 110.881746,146.624231 110.875507,145.980328 C110.997559,144.306938 111.029867,142.646828 110.972431,141 L110.875507,141.049803 Z" id="Path" fill="#4A67C6"></path>
                <path d="M109.812769,148.507882 C109.811862,148.383826 109.776053,148.26206 109.708773,148.15425 C109.521493,147.978428 109.223421,147.949422 108.999704,148.085248 C108.790618,148.21985 108.608352,148.386133 108.460811,148.576883 C107.851746,149.227786 106.999244,149.648935 106.068886,149.758532 C105.12021,149.745095 104.171848,149.799891 103.23261,149.92241 C102.55288,150.160386 101.93475,150.524587 101.417394,150.991932 L98.3542163,153.40698 C97.6451474,153.976242 96.8604445,154.709381 97.0211668,155.554648 C97.2961707,156.317187 98.0367327,156.86106 98.9120171,156.943301 C100.463798,157.102538 102.034866,156.925223 103.497329,156.425791 C104.860661,156.095539 106.199569,155.686454 107.505932,155.201016 C108.189803,154.978362 108.798866,154.598022 109.273877,154.096994 C110.323299,152.811843 109.973492,150.034538 109.812769,148.507882 Z" id="Path" fill="#3E3E54"></path>
                <path d="M113.183596,80.5713042 C111.201208,80.6642972 109.009669,80.5713042 107.500144,81.7886666 C107.195555,81.9781559 107.009027,82.2934431 107,82.6340571 C107.055056,82.8630552 107.181589,83.0718532 107.363741,83.2342844 L111.810474,88.0445566 C112.022783,88.3026354 112.277491,88.5280165 112.565236,88.7124151 C113.150817,88.9817746 113.815334,89.0649368 114.456689,88.9491245 C116.901403,88.6947044 119.193478,87.7167037 120.994932,86.1593357 C122.813636,84.5446397 121.967939,81.932383 120.021925,80.6220276 C118.075911,79.3116723 115.49335,80.4614034 113.183596,80.5713042 Z" id="Path" fill="url(#linearGradient-14)"></path>
                <path d="M136.534651,3.04307106 C143.085841,3.6015138 148.949442,7.70938074 152.922175,12.8962726 C157.057256,18.2913974 160.3615,25.4565017 167.046387,26.8762714 C170.054587,27.5199003 173.196484,26.7910852 176.252432,27.1034345 C182.093927,27.8200636 186.833782,32.1301922 188.056034,37.8368933 C188.772272,41.5188293 187.893686,45.3238121 188.27568,49.0530737 C189.030117,56.4074807 194.626323,63.4022126 192.534908,70.4915959 C190.873236,76.0949535 183.940053,79.4929356 178.410696,77.353816 C172.527995,75.0727194 169.978188,68.4187321 165.995905,63.5347244 C164.267384,61.4050699 161.736677,59.4079273 159.024522,59.9095792 C157.677995,60.1651377 156.503365,61.0075344 155.204587,61.3482791 C152.148638,62.133885 148.968542,60.0042305 147.411918,57.2782727 C145.855294,54.552315 145.50195,51.3341704 145.014908,48.2485376 C144.30822,43.8945772 143.10494,39.4270353 140.239989,36.085844 C136.687448,31.9969073 130.909796,29.9619041 128.226291,25.2671991 C126.641018,22.4844505 126.364072,19.20005 124.922047,16.3699758 C123.642368,13.8806463 121.188059,12.5839233 122.267191,9.6402675 C124.072111,4.77519007 131.998477,2.66446582 136.534651,3.04307106 Z" id="Path" fill="#FE9F24"></path>
                <path d="M119.084814,9.69860573 C118.797287,11.2514717 119.250261,12.8531429 120.300144,13.9958901 C121.35094,15.1105323 122.524914,16.0915486 123.797498,16.9184076 C125.066221,17.753818 126.114976,18.9053315 126.84894,20.2688326 C126.92448,20.498959 127.05017,20.7077445 127.216162,20.8788285 C127.394004,21.0403905 127.659099,21.0403905 127.836942,20.8788285 C127.921377,20.7573079 127.964455,20.6099228 127.959349,20.4600254 C128.134217,17.9107889 127.688305,15.3706569 127.688305,12.8214204 C127.688305,11.0915814 128.186677,8.88831272 127.189932,7.35877084 C125.27513,4.39983566 119.854232,6.77608822 119.084814,9.69860573 Z" id="Path" fill="#FE9F24"></path>
                <path d="M100.118229,66.3807647 C99.9965163,67.0668173 100.155463,67.7706609 100.563298,68.3516093 C101.415558,69.3725424 103.29053,69.106212 104.180668,68.1207897 C104.987408,67.0447632 105.32607,65.7208099 105.127623,64.4187976 C105.031869,65.6022429 105.294463,66.7869877 105.885187,67.836704 C106.576465,68.8132486 108.16735,69.3370317 109.123774,68.5735513 C109.650633,68.0847959 109.917903,67.4014358 109.85293,66.7092388 C109.828715,65.5162104 109.308902,64.379125 108.404088,63.5399074 C108.897664,64.2123918 109.628817,64.6997557 110.468451,64.9159477 C110.886382,65.0267733 111.328909,65.0267733 111.746841,64.9159477 C112.60543,64.5924775 113.114785,63.7586565 112.977883,62.9007146 C112.816216,62.0636932 112.273354,61.3343332 111.491163,60.9032368 C110.712956,60.4722978 109.860556,60.1718758 108.972262,60.015469 C109.606722,59.5893404 110.335877,59.296377 110.960868,58.8613707 C111.623021,58.4647412 112.066133,57.815653 112.172971,57.085835 C112.239258,55.8607153 110.780946,54.9640697 109.474148,55.0617242 C108.18404,55.2805634 107.002611,55.8810247 106.102987,56.7751162 C105.262452,56.0262993 104.252548,55.4649061 103.148486,55.1327456 C102.019851,54.8087369 100.792571,55.0878697 99.9477771,55.8607153 C99.4955812,56.4123883 99.3213794,57.121039 99.4704167,57.8026104 C99.6194541,58.4841817 100.077023,59.0714143 100.724281,59.4117868 C99.8999465,59.4903096 99.0718339,59.5288309 98.2432575,59.5271966 C97.3979489,59.5429847 96.6151744,59.9480958 96.1504862,60.6102734 C95.7833862,61.4445962 96.1064734,62.4056279 96.91752,62.8918369 C97.7286257,63.3458573 98.7103879,63.4463234 99.6068732,63.1670449 C100.175046,63.0072467 101.235636,62.1816226 101.746992,62.5544851 C101.207228,63.9482807 100.279212,64.8715593 100.118229,66.3807647 Z" id="Path" fill="#4A67C6"></path>
                <ellipse id="Oval" fill="#FFFFFF" cx="105.5" cy="60.5" rx="3.5" ry="2.5"></ellipse>
            </g>
        </g>
    </g>
</svg>