<svg height="116" viewBox="0 0 129 116" width="129" xmlns="http://www.w3.org/2000/svg" xmlns:xlink="http://www.w3.org/1999/xlink"><linearGradient id="a"><stop offset="0" stop-color="#52bceb"/><stop offset="1" stop-color="#5d71d9"/></linearGradient><linearGradient id="b" x1="46.687606%" x2="52.675092%" xlink:href="#a" y1="-196.336342%" y2="214.924022%"/><linearGradient id="c" x1="46.018364%" x2="52.00585%" xlink:href="#a" y1="-199.576307%" y2="211.833764%"/><linearGradient id="d" x1="49.004679%" x2="50.659239%" xlink:href="#a" y1="-103.030906%" y2="150.255544%"/><linearGradient id="e" x1="49.061156%" x2="50.947948%" xlink:href="#a" y1="11.04493%" y2="89.32908%"/><linearGradient id="f" x1="49.473302%" x2="51.360094%" xlink:href="#a" y1="49.281009%" y2="51.856404%"/><linearGradient id="g" x1="47.762436%" x2="63.29838%" xlink:href="#a" y1="-71.719144%" y2="772.87545%"/><linearGradient id="h" x1="47.904201%" x2="63.440145%" xlink:href="#a" y1="-68.000225%" y2="776.594595%"/><linearGradient id="i" x1="47.521679%" x2="63.092692%" xlink:href="#a" y1="-75.834312%" y2="770.666817%"/><g fill="none" transform="translate(0 1.146809)"><path d="m50.8529919 81.8531915c-.4849864 0-.9699728-.1776645-1.3640242-.5033827l-13.7311765-11.429748c-.4849864-.3849397-.7577912-.9771546-.7577912-1.5693696 0-.6218256.2728048-1.1844298.7577912-1.5693695l13.7311765-11.429748c.8790378-.7402687 2.243062-.6514365 3.0008532.2368859.7577912.8587117.6668562 2.1911953-.2424932 2.9314639l-11.8215427 9.8307677 11.8215427 9.8307678c.8790378.7402686 1.0002844 2.0431414.2424932 2.9314638-.4546748.5033827-1.0305961.7402687-1.636829.7402687z" fill="url(#b)"/><path d="m78.1166965 81.8531915c-.606233 0-1.1821543-.2369722-1.6065174-.7405381-.7577912-.8590243-.6668562-2.1919929.2424932-2.932531l11.8215427-9.8343464-11.8215427-9.8343463c-.8790378-.7405382-1.0002844-2.0438853-.2424932-2.932531.7577912-.8590243 2.0915037-.9775104 3.0008532-.2369722l13.7311765 11.4339087c.4849864.3850798.7577912.9775103.7577912 1.5699408 0 .622052-.2728048 1.184861-.7577912 1.5699408l-13.7311765 11.4339088c-.4243631.3554583-.9093495.5035659-1.3943358.5035659z" fill="url(#c)"/><path d="m61.1725629 90.8531915c-.1540013 0-.3080026-.029719-.4620039-.0594379-1.1704101-.2377515-1.9096164-1.3373525-1.6632143-2.4666723l8.6856744-39.8233843c.2464022-1.1293199 1.3860119-1.8425745 2.5564219-1.604823 1.1704101.2377516 1.9096164 1.3373525 1.6632143 2.4666723l-8.6856744 39.8233844c-.2156019.9807251-1.1088095 1.6642608-2.094418 1.6642608z" fill="url(#d)"/><path d="m114.700472 113.853191h-100.4009437c-7.87995283 0-14.2995283-6.429831-14.2995283-14.3223732v-85.3552526c0-7.89254211 6.41957547-14.32237371 14.2995283-14.32237371h100.4009437c7.879953 0 14.299528 6.4298316 14.299528 14.32237371v85.3552526c0 7.8925422-6.419575 14.3223732-14.299528 14.3223732zm-100.4009437-109.73376054c-5.53726415 0-10.04009434 4.51002406-10.04009434 10.05613474v85.3552526c0 5.5461102 4.50283019 10.0561352 10.04009434 10.0561352h100.4009437c5.537264 0 10.040094-4.510025 10.040094-10.0561352v-85.3552526c0-5.54611068-4.50283-10.05613474-10.040094-10.05613474z" fill="url(#e)"/><path d="m126.870283 33.8531915h-124.74056602c-1.1865566 0-2.12971698-.8857143-2.12971698-2s.94316038-2 2.12971698-2h124.74056602c1.186557 0 2.129717.8857143 2.129717 2s-.94316 2-2.129717 2z" fill="url(#f)"/><path d="m36.5 24.8531915c-3.5720721 0-6.5-3.1216216-6.5-7 0-3.8468469 2.8986486-7 6.5-7 3.5720721 0 6.5 3.1216216 6.5 7s-2.9279279 7-6.5 7zm0-9.5540541c-1.3175676 0-2.4009009 1.1666667-2.4009009 2.5855856s1.0833333 2.5855856 2.4009009 2.5855856 2.4009009-1.1666667 2.4009009-2.5855856-1.0833333-2.5855856-2.4009009-2.5855856z" fill="url(#g)"/><path d="m15.5 24.8531915c-3.5720721 0-6.5-3.1216216-6.5-7s2.8986486-7 6.5-7 6.5 3.1531531 6.5 7c0 3.8468468-2.8986486 7-6.5 7zm0-9.5540541c-1.3175676 0-2.4009009 1.1666667-2.4009009 2.5855856s1.0833333 2.5855856 2.4009009 2.5855856 2.4009009-1.1666667 2.4009009-2.5855856c0-1.4504504-1.0833333-2.5855856-2.4009009-2.5855856z" fill="url(#h)"/><path d="m56.4853273 24.8531915c-3.5801354 0-6.4853273-3.1286682-6.4853273-7.0158014 0-3.8555304 2.9051919-6.9841986 6.4853273-6.9841986 3.5801355 0 6.5146727 3.1286682 6.5146727 6.9841986-.0293454 3.8871332-2.9345372 7.0158014-6.5146727 7.0158014zm0-9.5756208c-1.3205417 0-2.3769752 1.1693002-2.3769752 2.5914221s1.0857788 2.5914222 2.3769752 2.5914222c1.3205418 0 2.4063206-1.1693003 2.4063206-2.5914222s-1.0857788-2.5914221-2.4063206-2.5914221z" fill="url(#i)"/></g></svg>