<?xml version="1.0" encoding="UTF-8"?>
<svg width="34px" height="30px" viewBox="0 0 34 30" version="1.1" xmlns="http://www.w3.org/2000/svg" xmlns:xlink="http://www.w3.org/1999/xlink">
    <title>calendar</title>
    <defs>
        <linearGradient x1="50%" y1="0%" x2="50%" y2="100%" id="linearGradient-1">
            <stop stop-color="#4DBBED" offset="0%"></stop>
            <stop stop-color="#5C6DDD" offset="100%"></stop>
        </linearGradient>
        <linearGradient x1="50%" y1="0%" x2="50%" y2="100%" id="linearGradient-2">
            <stop stop-color="#4DBBED" offset="0%"></stop>
            <stop stop-color="#5C6DDD" offset="100%"></stop>
        </linearGradient>
    </defs>
    <g id="Page-1" stroke="none" stroke-width="1" fill="none" fill-rule="evenodd">
        <g id="workers-personnal-desktop" transform="translate(-833.000000, -961.000000)" fill-rule="nonzero">
            <g id="calendar" transform="translate(833.000000, 961.000000)">
                <path d="M30.4750578,2.55188541 L28.3406524,2.55188541 L28.3406524,0.876936568 C28.3406524,0.394621456 27.942112,0 27.455007,0 C26.9679021,0 26.5693616,0.394621456 26.5693616,0.876936568 L26.5693616,2.55188541 L17.8900368,2.55188541 L17.8900368,0.876936568 C17.8900368,0.394621456 17.4914964,0 17.0043915,0 C16.5172865,0 16.1187461,0.394621456 16.1187461,0.876936568 L16.1187461,2.55188541 L7.35085672,2.55188541 L7.35085672,0.876936568 C7.35085672,0.394621456 6.9523163,0 6.46521133,0 C5.97810637,0 5.57956595,0.394621456 5.57956595,0.876936568 L5.57956595,2.55188541 L3.5337251,2.55188541 C1.58530524,2.55188541 0,4.17421806 0,6.10347852 L0,26.4922537 C0,28.4302835 1.57644879,30 3.5337251,30 L30.4662014,30 C32.4234777,30 33.9999634,28.4302835 33.9999634,26.5010231 L33.9999634,6.10347852 C34.0087829,4.17421806 32.4234777,2.55188541 30.4750578,2.55188541 Z M32.2374921,26.4922537 C32.2374921,27.456884 31.4581242,28.2373575 30.4839143,28.2461269 L30.4750578,28.2461269 L3.5337251,28.2461269 C2.55951517,28.2461269 1.77129078,27.4656533 1.77129078,26.5010231 L1.77129078,26.4922537 L1.77129078,6.10347852 C1.77129078,5.13007892 2.55951517,4.30575855 3.5337251,4.30575855 L5.57956595,4.30575855 L5.57956595,5.57731657 C5.57956595,6.05963169 5.97810637,6.45425314 6.46521133,6.45425314 C6.9523163,6.45425314 7.35085672,6.05963169 7.35085672,5.57731657 L7.35085672,4.30575855 L16.1187461,4.30575855 L16.1187461,5.57731657 C16.1187461,6.05963169 16.5172865,6.45425314 17.0043915,6.45425314 C17.4914964,6.45425314 17.8900368,6.05963169 17.8900368,5.57731657 L17.8900368,4.30575855 L26.5693616,4.30575855 L26.5693616,5.57731657 C26.5693616,6.05963169 26.9679021,6.45425314 27.455007,6.45425314 C27.942112,6.45425314 28.3406524,6.05963169 28.3406524,5.57731657 L28.3406524,4.30575855 L30.4750578,4.30575855 C31.4581242,4.30575855 32.2374921,5.13884829 32.2374921,6.10347852 L32.2374921,26.4922537 Z" id="Shape" fill="url(#linearGradient-1)"></path>
                <path d="M14.2,10 L12.8,10 C12.36,10 12,10.45 12,11 C12,11.55 12.36,12 12.8,12 L14.2,12 C14.64,12 15,11.55 15,11 C15,10.45 14.64,10 14.2,10 Z" id="Path" fill="url(#linearGradient-2)"></path>
                <path d="M21.2,10 L19.8,10 C19.36,10 19,10.45 19,11 C19,11.55 19.36,12 19.8,12 L21.2,12 C21.64,12 22,11.55 22,11 C22,10.45 21.648,10 21.2,10 Z" id="Path" fill="url(#linearGradient-2)"></path>
                <path d="M27.2,10 L25.8,10 C25.36,10 25,10.45 25,11 C25,11.55 25.36,12 25.8,12 L27.2,12 C27.64,12 28,11.55 28,11 C28,10.45 27.64,10 27.2,10 Z" id="Path" fill="url(#linearGradient-2)"></path>
                <path d="M14.2,16 L12.8,16 C12.36,16 12,16.45 12,17 C12,17.55 12.36,18 12.8,18 L14.2,18 C14.64,18 15,17.55 15,17 C15,16.45 14.64,16 14.2,16 Z" id="Path" fill="url(#linearGradient-2)"></path>
                <path d="M8.208,16 L6.8,16 C6.36,16 6,16.45 6,17 C6,17.55 6.36,18 6.8,18 L8.2,18 C8.64,18 9,17.55 9,17 C9,16.45 8.648,16 8.208,16 Z" id="Path" fill="url(#linearGradient-2)"></path>
                <path d="M21.2,16 L19.8,16 C19.36,16 19,16.45 19,17 C19,17.55 19.36,18 19.8,18 L21.2,18 C21.64,18 22,17.55 22,17 C22,16.45 21.648,16 21.2,16 Z" id="Path" fill="url(#linearGradient-2)"></path>
                <path d="M27.2,16 L25.8,16 C25.36,16 25,16.45 25,17 C25,17.55 25.36,18 25.8,18 L27.2,18 C27.64,18 28,17.55 28,17 C28,16.45 27.64,16 27.2,16 Z" id="Path" fill="url(#linearGradient-2)"></path>
                <path d="M14.2,22 L12.8,22 C12.36,22 12,22.45 12,23 C12,23.55 12.36,24 12.8,24 L14.2,24 C14.64,24 15,23.55 15,23 C15,22.45 14.64,22 14.2,22 Z" id="Path" fill="url(#linearGradient-2)"></path>
                <path d="M8.208,22 L6.8,22 C6.36,22 6,22.45 6,23 C6,23.55 6.36,24 6.8,24 L8.2,24 C8.64,24 9,23.55 9,23 C9,22.45 8.648,22 8.208,22 Z" id="Path" fill="url(#linearGradient-2)"></path>
                <path d="M21.2,22 L19.8,22 C19.36,22 19,22.45 19,23 C19,23.55 19.36,24 19.8,24 L21.2,24 C21.64,24 22,23.55 22,23 C22,22.45 21.648,22 21.2,22 Z" id="Path" fill="url(#linearGradient-2)"></path>
            </g>
        </g>
    </g>
</svg>