<?xml version="1.0" encoding="UTF-8"?>
<svg width="34px" height="34px" viewBox="0 0 34 34" version="1.1" xmlns="http://www.w3.org/2000/svg" xmlns:xlink="http://www.w3.org/1999/xlink">
    <title>cross</title>
    <g id="Page-1" stroke="none" stroke-width="1" fill="none" fill-rule="evenodd">
        <g id="success-message" transform="translate(-24.000000, -23.000000)" fill="#F10000" fill-rule="nonzero">
            <g id="cross" transform="translate(24.000000, 23.000000)">
                <path d="M17,34 C7.62608339,34 0,26.3739166 0,17 C0,7.62608339 7.62608339,0 17,0 C26.3739166,0 34,7.62608339 34,17 C34,26.3739166 26.3739166,34 17,34 Z M17,2.42849728 C8.96536252,2.42849728 2.42849728,8.96536252 2.42849728,17 C2.42849728,25.0346375 8.96536252,31.5715027 17,31.5715027 C25.0346375,31.5715027 31.5715027,25.0346375 31.5715027,17 C31.5715027,8.96536252 25.0346375,2.42849728 17,2.42849728 Z" id="Shape"></path>
                <path d="M22.8334268,24 C22.5348518,24 22.2362769,23.8861026 22.0084826,23.6580586 L10.3418783,11.9914283 C9.88604057,11.5355896 9.88604057,10.7973751 10.3418783,10.3417856 C10.7974668,9.88619609 11.5359289,9.88594687 11.9915174,10.3417856 L23.6581217,22.0084159 C24.1139594,22.4642546 24.1139594,23.2024691 23.6581217,23.6580586 C23.4303274,23.8861026 23.1320017,24 22.8334268,24 L22.8334268,24 Z" id="Path"></path>
                <path d="M11.166581,24 C10.8680041,24 10.5696764,23.8861034 10.3418806,23.6580609 C9.88603981,23.2024745 9.88603981,22.4640157 10.3418806,22.0084292 L22.0085628,10.3418768 C22.4644035,9.88604108 23.2026214,9.88604108 23.6582129,10.3418768 C24.1138044,10.7974632 24.1140536,11.535922 23.6582129,11.9915085 L11.9915306,23.6580609 C11.7637349,23.8861034 11.4651579,24 11.166581,24 L11.166581,24 Z" id="Path"></path>
            </g>
        </g>
    </g>
</svg>