<?xml version="1.0" encoding="UTF-8"?>
<svg width="40px" height="42px" viewBox="0 0 40 42" version="1.1" xmlns="http://www.w3.org/2000/svg" xmlns:xlink="http://www.w3.org/1999/xlink">
    <title>filter</title>
    <defs>
        <linearGradient x1="50%" y1="0%" x2="50%" y2="100%" id="linearGradient-1">
            <stop stop-color="#4DBBED" offset="0%"></stop>
            <stop stop-color="#5C6DDD" offset="100%"></stop>
        </linearGradient>
    </defs>
    <g id="Page-1" stroke="none" stroke-width="1" fill="none" fill-rule="evenodd">
        <g id="mobile-workers" transform="translate(-140.000000, -709.000000)" fill="url(#linearGradient-1)" fill-rule="nonzero">
            <g id="filter" transform="translate(140.000000, 709.021673)">
                <path d="M38.4377217,0.978327131 L1.56258345,0.978327131 C0.699500248,0.978327131 0,1.67779165 0,2.54083078 C0,6.89203718 1.865334,11.0460997 5.11776598,13.9370366 L11.961088,20.0192041 C13.1476748,21.073894 13.8282532,22.5894005 13.8282532,24.1772338 L13.8282532,39.4140857 C13.8282532,40.6592058 15.2199291,41.4056676 16.2572769,40.7138324 L25.4762141,34.5684934 C25.9108076,34.2785758 26.172052,33.7909037 26.172052,33.2684416 L26.172052,24.1772338 C26.172052,22.5894005 26.8526303,21.073894 28.0392172,20.0192041 L34.882234,13.9370366 C38.134666,11.0460997 40,6.89203718 40,2.54083078 C40,1.67779165 39.3004998,0.978327131 38.4377217,0.978327131 Z M32.8060123,11.6012157 L25.9629955,17.6836884 C24.1098692,19.3310311 23.0468851,21.6976748 23.0468851,24.1769286 L23.0468851,32.432258 L16.9531149,36.4944623 L16.9531149,24.1772338 C16.9531149,21.6976748 15.8901308,19.3310311 14.0370045,17.6836884 L7.19398772,11.6015208 C5.00087739,9.65174823 3.60096138,6.98023325 3.2261855,4.10302927 L36.7738146,4.10302927 C36.3990386,6.98023325 34.9994278,9.65174823 32.8060123,11.6012157 Z" id="Shape"></path>
            </g>
        </g>
    </g>
</svg>