<?xml version="1.0" encoding="UTF-8"?>
<svg width="114px" height="116px" viewBox="0 0 114 116" version="1.1" xmlns="http://www.w3.org/2000/svg" xmlns:xlink="http://www.w3.org/1999/xlink">
    <title>finance</title>
    <defs>
        <linearGradient x1="48.0349213%" y1="12.9443002%" x2="52.2238999%" y2="91.5163466%" id="linearGradient-1">
            <stop stop-color="#53BCEB" offset="0.1261151%"></stop>
            <stop stop-color="#5E71DA" offset="100%"></stop>
        </linearGradient>
        <linearGradient x1="35.7952688%" y1="-642.010022%" x2="58.3962381%" y2="457.199564%" id="linearGradient-2">
            <stop stop-color="#53BCEB" offset="0.1261151%"></stop>
            <stop stop-color="#5E71DA" offset="100%"></stop>
        </linearGradient>
        <linearGradient x1="32.9340172%" y1="-767.930472%" x2="55.5349865%" y2="314.767382%" id="linearGradient-3">
            <stop stop-color="#53BCEB" offset="0.1261151%"></stop>
            <stop stop-color="#5E71DA" offset="100%"></stop>
        </linearGradient>
        <linearGradient x1="30.0980324%" y1="-903.709871%" x2="52.6990017%" y2="178.987983%" id="linearGradient-4">
            <stop stop-color="#53BCEB" offset="0.1261151%"></stop>
            <stop stop-color="#5E71DA" offset="100%"></stop>
        </linearGradient>
        <linearGradient x1="35.8875536%" y1="-644.890414%" x2="58.1538627%" y2="454.319172%" id="linearGradient-5">
            <stop stop-color="#53BCEB" offset="0.1261151%"></stop>
            <stop stop-color="#5E71DA" offset="100%"></stop>
        </linearGradient>
        <linearGradient x1="33.0650215%" y1="-770.767597%" x2="55.3311159%" y2="311.930258%" id="linearGradient-6">
            <stop stop-color="#53BCEB" offset="0.1261151%"></stop>
            <stop stop-color="#5E71DA" offset="100%"></stop>
        </linearGradient>
        <linearGradient x1="30.2742489%" y1="-906.54721%" x2="52.5405579%" y2="176.150858%" id="linearGradient-7">
            <stop stop-color="#53BCEB" offset="0.1261151%"></stop>
            <stop stop-color="#5E71DA" offset="100%"></stop>
        </linearGradient>
        <linearGradient x1="35.6708061%" y1="-647.773638%" x2="58.2766885%" y2="451.435948%" id="linearGradient-8">
            <stop stop-color="#53BCEB" offset="0.1261151%"></stop>
            <stop stop-color="#5E71DA" offset="100%"></stop>
        </linearGradient>
        <linearGradient x1="32.8050109%" y1="-773.607511%" x2="55.4108932%" y2="309.090343%" id="linearGradient-9">
            <stop stop-color="#53BCEB" offset="0.1261151%"></stop>
            <stop stop-color="#5E71DA" offset="100%"></stop>
        </linearGradient>
        <linearGradient x1="29.9718954%" y1="-909.38691%" x2="52.5777778%" y2="173.310944%" id="linearGradient-10">
            <stop stop-color="#53BCEB" offset="0.1261151%"></stop>
            <stop stop-color="#5E71DA" offset="100%"></stop>
        </linearGradient>
        <linearGradient x1="35.7133632%" y1="-650.606318%" x2="58.318051%" y2="448.603268%" id="linearGradient-11">
            <stop stop-color="#53BCEB" offset="0.1261151%"></stop>
            <stop stop-color="#5E71DA" offset="100%"></stop>
        </linearGradient>
        <linearGradient x1="46.4051717%" y1="-329.197361%" x2="50.7814393%" y2="129.890173%" id="linearGradient-12">
            <stop stop-color="#53BCEB" offset="0.1261151%"></stop>
            <stop stop-color="#5E71DA" offset="100%"></stop>
        </linearGradient>
        <linearGradient x1="48.68549%" y1="-1.14835983%" x2="50.7748038%" y2="100.444275%" id="linearGradient-13">
            <stop stop-color="#53BCEB" offset="0.1261151%"></stop>
            <stop stop-color="#5E71DA" offset="100%"></stop>
        </linearGradient>
        <linearGradient x1="49.2468431%" y1="47.5013241%" x2="55.4862297%" y2="68.4654737%" id="linearGradient-14">
            <stop stop-color="#53BCEB" offset="0.1261151%"></stop>
            <stop stop-color="#5E71DA" offset="100%"></stop>
        </linearGradient>
        <linearGradient x1="48.697715%" y1="45.6530748%" x2="54.9370415%" y2="66.6172244%" id="linearGradient-15">
            <stop stop-color="#53BCEB" offset="0.1261151%"></stop>
            <stop stop-color="#5E71DA" offset="100%"></stop>
        </linearGradient>
        <linearGradient x1="44.6785078%" y1="-223.566438%" x2="51.4383397%" y2="122.007055%" id="linearGradient-16">
            <stop stop-color="#53BCEB" offset="0.1261151%"></stop>
            <stop stop-color="#5E71DA" offset="100%"></stop>
        </linearGradient>
        <linearGradient x1="42.6237469%" y1="-395.310937%" x2="51.4968517%" y2="167.788616%" id="linearGradient-17">
            <stop stop-color="#53BCEB" offset="0.1261151%"></stop>
            <stop stop-color="#5E71DA" offset="100%"></stop>
        </linearGradient>
        <linearGradient x1="47.264758%" y1="-86.5909116%" x2="52.4929578%" y2="187.553139%" id="linearGradient-18">
            <stop stop-color="#53BCEB" offset="0.1261151%"></stop>
            <stop stop-color="#5E71DA" offset="100%"></stop>
        </linearGradient>
    </defs>
    <g id="Page-1" stroke="none" stroke-width="1" fill="none" fill-rule="evenodd">
        <g id="Home-desktop" transform="translate(-1207.000000, -784.000000)" fill-rule="nonzero">
            <g id="finance" transform="translate(1207.000000, 785.146809)">
                <path d="M8.69559952,64.8531915 L61.3044005,64.8531915 C62.3217602,64.8531915 63,64.1555171 63,63.1090054 L63,45.5973775 C63,44.5508659 62.1408962,43.8531915 61.3044005,43.8531915 L8.69559952,43.8531915 C7.67823981,43.8531915 7,44.5508659 7,45.5973775 L7,63.1090054 C7,64.1555171 7.67823981,64.8531915 8.69559952,64.8531915 Z M10.413807,47.3415636 L59.608801,47.3415636 L59.608801,61.3415925 L10.413807,61.3415925 C10.413807,61.3648194 10.413807,47.3415636 10.413807,47.3415636 Z" id="Shape" fill="url(#linearGradient-1)"></path>
                <path d="M17.3683339,66.8531915 L9.79699498,66.8531915 C8.71879799,66.8531915 8,67.5721457 8,68.6505771 L8,76.0558059 C8,77.1342372 8.71879799,77.8531915 9.79699498,77.8531915 L17.1766544,77.8531915 C18.2548514,77.8531915 18.9736494,77.1342372 18.9736494,76.0558059 L18.9736494,68.4828211 C19.1653288,67.5721457 18.2788113,66.8531915 17.3683339,66.8531915 Z M11.59399,74.2584202 L11.59399,70.2802067 L15.3796594,70.2802067 L15.3796594,74.2584202 L11.59399,74.2584202 Z" id="Shape" fill="url(#linearGradient-2)"></path>
                <path d="M17.3683339,80.8531915 L9.79699498,80.8531915 C8.71879799,80.8531915 8,81.561346 8,82.6235778 L8,90.0828052 C8,91.145037 8.71879799,91.8531915 9.79699498,91.8531915 L17.1766544,91.8531915 C18.2548514,91.8531915 18.9736494,91.145037 18.9736494,90.0828052 L18.9736494,82.6235778 C19.1653288,81.5849511 18.2788113,80.8531915 17.3683339,80.8531915 Z M11.59399,88.3360241 L11.59399,84.4175692 L15.3796594,84.4175692 L15.3796594,88.3360241 L11.59399,88.3360241 Z" id="Shape" fill="url(#linearGradient-3)"></path>
                <path d="M17.3683339,96.8531915 L9.79699498,96.8531915 C8.71879799,96.8531915 8,97.561346 8,98.6235778 L8,106.082805 C8,107.145037 8.71879799,107.853191 9.79699498,107.853191 L17.1766544,107.853191 C18.2548514,107.853191 18.9736494,107.145037 18.9736494,106.082805 L18.9736494,98.6235778 C19.1653288,97.7501872 18.2788113,96.8531915 17.3683339,96.8531915 Z M11.59399,104.312419 L11.59399,100.393964 L15.3796594,100.393964 L15.3796594,104.312419 L11.59399,104.312419 Z" id="Shape" fill="url(#linearGradient-4)"></path>
                <path d="M31.2296137,66.8531915 L23.7703863,66.8531915 C22.7081545,66.8531915 22,67.5721457 22,68.6505771 L22,76.0558059 C22,77.1342372 22.7081545,77.8531915 23.7703863,77.8531915 L31.2296137,77.8531915 C32.2918455,77.8531915 33,77.1342372 33,76.0558059 L33,68.4828211 C33,67.5721457 32.1266094,66.8531915 31.2296137,66.8531915 Z M29.4592275,74.2584202 L25.5407725,74.2584202 L25.5407725,70.2802067 L29.4592275,70.2802067 L29.4592275,74.2584202 Z" id="Shape" fill="url(#linearGradient-5)"></path>
                <path d="M31.2296137,80.8531915 L23.7703863,80.8531915 C22.7081545,80.8531915 22,81.561346 22,82.6235778 L22,90.0828052 C22,91.145037 22.7081545,91.8531915 23.7703863,91.8531915 L31.2296137,91.8531915 C32.2918455,91.8531915 33,91.145037 33,90.0828052 L33,82.6235778 C33,81.5849511 32.1266094,80.8531915 31.2296137,80.8531915 Z M29.4592275,88.3360241 L25.5407725,88.3360241 L25.5407725,84.4175692 L29.4592275,84.4175692 L29.4592275,88.3360241 Z" id="Shape" fill="url(#linearGradient-6)"></path>
                <path d="M31.2296137,96.8531915 L23.7703863,96.8531915 C22.7081545,96.8531915 22,97.561346 22,98.6235778 L22,106.082805 C22,107.145037 22.7081545,107.853191 23.7703863,107.853191 L31.2296137,107.853191 C32.2918455,107.853191 33,107.145037 33,106.082805 L33,98.6235778 C33,97.7501872 32.1266094,96.8531915 31.2296137,96.8531915 Z M29.4592275,104.312419 L25.5407725,104.312419 L25.5407725,100.393964 L29.4592275,100.393964 L29.4592275,104.312419 Z" id="Shape" fill="url(#linearGradient-7)"></path>
                <path d="M46.2026144,66.8531915 L38.7973856,66.8531915 C37.7189542,66.8531915 37,67.5721457 37,68.6505771 L37,76.0558059 C37,77.1342372 37.7189542,77.8531915 38.7973856,77.8531915 L46.2026144,77.8531915 C47.2810458,77.8531915 48,77.1342372 48,76.0558059 L48,68.4828211 C48,67.5721457 47.1132898,66.8531915 46.2026144,66.8531915 Z M44.4052288,74.2584202 L40.6187364,74.2584202 L40.6187364,70.2802067 L44.4052288,70.2802067 L44.4052288,74.2584202 Z" id="Shape" fill="url(#linearGradient-8)"></path>
                <path d="M46.2026144,80.8531915 L38.7973856,80.8531915 C37.7189542,80.8531915 37,81.561346 37,82.6235778 L37,90.0828052 C37,91.145037 37.7189542,91.8531915 38.7973856,91.8531915 L46.2026144,91.8531915 C47.2810458,91.8531915 48,91.145037 48,90.0828052 L48,82.6235778 C48,81.5849511 47.1132898,80.8531915 46.2026144,80.8531915 Z M44.4052288,88.3360241 L40.6187364,88.3360241 L40.6187364,84.4175692 L44.4052288,84.4175692 L44.4052288,88.3360241 Z" id="Shape" fill="url(#linearGradient-9)"></path>
                <path d="M46.2026144,96.8531915 L38.7973856,96.8531915 C37.7189542,96.8531915 37,97.561346 37,98.6235778 L37,106.082805 C37,107.145037 37.7189542,107.853191 38.7973856,107.853191 L46.2026144,107.853191 C47.2810458,107.853191 48,107.145037 48,106.082805 L48,98.6235778 C48,97.7501872 47.1132898,96.8531915 46.2026144,96.8531915 Z M44.4052288,104.312419 L40.6187364,104.312419 L40.6187364,100.393964 L44.4052288,100.393964 L44.4052288,104.312419 Z" id="Shape" fill="url(#linearGradient-10)"></path>
                <path d="M61.2021281,66.8531915 L53.7972906,66.8531915 C52.7189163,66.8531915 52,67.5721457 52,68.6505771 L52,76.0558059 C52,77.1342372 52.7189163,77.8531915 53.7972906,77.8531915 L61.2021281,77.8531915 C62.2805025,77.8531915 62.9994187,77.1342372 62.9994187,76.0558059 L62.9994187,68.4828211 C63.0233826,67.5721457 62.3044663,66.8531915 61.2021281,66.8531915 Z M59.4048374,74.2584202 L55.6185452,74.2584202 L55.6185452,70.2802067 L59.4048374,70.2802067 L59.4048374,74.2584202 Z" id="Shape" fill="url(#linearGradient-11)"></path>
                <path d="M61.2021281,81.8531915 L53.7972906,81.8531915 C52.7189163,81.8531915 52,82.5356301 52,83.5592879 L52,105.147095 C52,106.170753 52.7189163,106.853191 53.7972906,106.853191 L61.2021281,106.853191 C62.2805025,106.853191 62.9994187,106.170753 62.9994187,105.147095 L62.9994187,83.5592879 C63.0233826,82.558378 62.3044663,81.8531915 61.2021281,81.8531915 Z M59.4048374,103.440999 L55.6185452,103.440999 L55.6185452,85.2881323 L59.4048374,85.2881323 L59.4048374,103.440999 Z" id="Shape" fill="url(#linearGradient-12)"></path>
                <path d="M113.495271,29.9075284 L82.7526665,0.380863053 C82.4085329,0.0367294246 81.8808613,-0.146808511 81.5367277,-0.146808511 L22.1163212,-0.146808511 C21.0839203,-0.146808511 20.395653,0.541458746 20.395653,1.57385963 L20.395653,35.7807423 L1.72066814,35.7807423 C0.688267257,35.7807423 0,36.4690096 0,37.5014104 L0,112.132523 C0,113.164924 0.688267257,113.853191 1.72066814,113.853191 C2.75306903,113.853191 6.21734755,113.853191 112.279332,113.853191 C113.311733,113.853191 114,113.164924 114,112.132523 C114,104.882775 114,127.847959 114,31.1234672 C114,30.7793336 113.839404,30.0910663 113.495271,29.9075284 Z M83.2573959,5.54286748 L107.96619,29.2192611 L83.2573959,29.2192611 L83.2573959,5.54286748 Z M67.1978265,110.411855 L3.46427853,110.411855 L3.46427853,39.2450208 L67.1978265,39.2450208 L67.1978265,110.411855 L67.1978265,110.411855 Z M110.558664,110.411855 L70.6621051,110.411855 L70.6621051,37.5014104 C70.6621051,36.4690096 69.9738378,35.7807423 68.9414369,35.7807423 L23.8369893,35.7807423 L23.8369893,3.31747002 L79.8160596,3.31747002 L79.8160596,31.1234672 C79.8160596,32.1558681 80.5043268,32.8441353 81.5367277,32.8441353 L110.558664,32.8441353 C110.558664,92.1039462 110.558664,109.54005 110.558664,110.411855 Z" id="Shape" fill="url(#linearGradient-13)"></path>
                <path d="M67.2862297,11.8531915 L32.7137703,11.8531915 C31.6855081,11.8531915 31,12.4531915 31,13.3531915 C31,14.2531915 31.6855081,14.8531915 32.7137703,14.8531915 L67.2862297,14.8531915 C68.3144919,14.8531915 69,14.2531915 69,13.3531915 C69,12.4531915 68.3144919,11.8531915 67.2862297,11.8531915 Z" id="Path" fill="url(#linearGradient-14)"></path>
                <path d="M67.2862297,21.8531915 L32.7137703,21.8531915 C31.6855081,21.8531915 31,22.4531915 31,23.3531915 C31,24.2531915 31.6855081,24.8531915 32.7137703,24.8531915 L67.2862297,24.8531915 C68.3144919,24.8531915 69,24.2531915 69,23.3531915 C69,22.4531915 68.3144919,21.8531915 67.2862297,21.8531915 Z" id="Path" fill="url(#linearGradient-15)"></path>
                <path d="M90.5,72.8531915 C81.3941909,72.8531915 74,80.398397 74,89.8531915 C74,99.1449723 81.3941909,106.853191 90.5,106.853191 C99.6058091,106.853191 107,99.307986 107,89.8531915 C107,80.398397 99.6286307,72.8531915 90.5,72.8531915 Z M90.5,103.197027 C83.2883817,103.197027 77.4460581,97.2353833 77.4460581,89.6901778 C77.4460581,82.1449723 83.2883817,76.1833285 90.5,76.1833285 C97.7116183,76.1833285 103.553942,82.1449723 103.553942,89.6901778 C103.553942,97.2353833 97.7344398,103.197027 90.5,103.197027 Z" id="Shape" fill="url(#linearGradient-16)"></path>
                <path d="M96.5095986,90.1210486 C95.5811518,89.2728343 94.1151832,88.6031915 92.08726,88.2683701 L92.08726,83.7371201 C93.382199,83.9156915 94.6527051,84.4067629 95.7766143,85.0764058 L97.4380454,82.8889058 C95.7766143,81.8844415 93.9441536,81.2147986 92.1116928,81.0362272 L92.1116928,79.8531915 L90.4502618,79.8531915 L90.4502618,81.0362272 C88.7888307,81.0362272 87.3228621,81.5496201 86.3944154,82.5540843 C85.2949389,83.4022986 84.7329843,84.5630129 84.7329843,85.9246201 C84.7329843,87.2639058 85.0994764,88.2683701 86.0279232,89.1165843 C86.95637,89.7862272 88.4223386,90.4558701 90.2547993,90.7906915 L90.2547993,95.5005129 C88.7888307,95.3219415 87.1273997,94.6522986 85.8324607,93.4915843 L84,95.5005129 C85.8324607,97.0183701 88.0558464,97.8442629 90.4502618,98.1790843 L90.4502618,99.8531915 L92.1116928,99.8531915 L92.1116928,98.1790843 C93.9441536,98.1790843 95.2390925,97.6656915 96.3385689,96.6612272 C97.4380454,95.8130129 98,94.6522986 98,93.2906915 C98,91.9737272 97.4380454,90.7906915 96.5095986,90.1210486 Z M90.4502618,87.7772986 L90.4502618,87.7772986 C89.521815,87.4424772 88.7888307,87.2639058 88.4223386,86.9290843 C88.0558464,86.5942629 87.8603839,86.2594415 87.8603839,85.5897986 C87.8603839,85.0764058 88.0558464,84.5853343 88.5933682,84.2505129 C88.9598604,83.9156915 89.6928447,83.7371201 90.425829,83.5808701 L90.4502618,87.7772986 L90.4502618,87.7772986 Z M93.9441536,94.8308701 C93.382199,95.1656915 92.8446771,95.5005129 91.9162304,95.5005129 L91.9162304,91.1255129 C93.0157068,91.4603343 93.7486911,91.7951558 94.1151832,91.9737272 C94.4816754,92.3085486 94.6771379,92.8219415 94.6771379,93.3130129 C94.6771379,93.9826558 94.5061082,94.4960486 93.9441536,94.8308701 Z" id="Shape" fill="url(#linearGradient-17)"></path>
                <path d="M79.4051579,59.2488546 C79.2180367,59.2488546 79.4051579,59.2488546 79.4051579,59.4314227 L72.1776014,74.3791864 C71.8267492,75.0638168 71.9904802,75.9310153 72.7155749,76.4330776 C73.2535483,76.9579609 74.1189839,76.9579609 74.8206884,76.6156457 L88.7378278,67.3274933 L88.924949,67.1449252 C88.924949,67.1449252 89.1120702,67.1449252 89.1120702,66.9623571 L108.479115,44.8031533 C110.771349,42.2243788 110.420497,38.4360906 107.77741,36.2224523 C106.724853,35.3552538 105.321444,34.8531915 103.730914,34.8531915 C101.976653,34.8531915 100.199001,35.5378219 98.9827136,36.9070827 L79.6156692,59.0662865 C79.5688889,59.0891075 79.5688889,59.2488546 79.4051579,59.2488546 Z M101.766141,39.143542 C102.654967,38.1165964 104.409228,37.9340283 105.461785,38.8012268 C106.701463,39.8281724 106.701463,41.3800013 105.812637,42.589515 L87.4981498,63.379458 L83.4516538,59.933485 L101.766141,39.143542 Z M84.8550629,65.6159173 L78.1654799,70.0888359 L81.6973926,62.8773957 L84.8550629,65.6159173 Z" id="Shape" fill="url(#linearGradient-18)"></path>
            </g>
        </g>
    </g>
</svg>