<?xml version="1.0" encoding="UTF-8"?>
<svg width="50px" height="50px" viewBox="0 0 50 50" version="1.1" xmlns="http://www.w3.org/2000/svg" xmlns:xlink="http://www.w3.org/1999/xlink">
    <title>globe</title>
    <g id="Page-1" stroke="none" stroke-width="1" fill="none" fill-rule="evenodd">
        <g id="workers-personnal-desktop" transform="translate(-1309.000000, -821.000000)" fill="#FFFFFF" fill-rule="nonzero">
            <g id="globe" transform="translate(1309.000000, 821.000000)">
                <path d="M25,0 C14.4389764,0 0,7.98228346 0,25 C0,41.5846457 13.8877953,50 25,50 C44.0649606,50 50,33.2972441 50,25 C50,12.7559055 40.6299213,0 25,0 Z M19.5121951,2.43902439 C16.9382689,4.77030992 14.8014246,8.62827801 13.4221886,13.4146341 C11.6350097,12.2902531 9.99352471,10.897671 8.53658537,9.27814964 C11.5475934,5.92563726 15.3550615,3.57372089 19.5121951,2.43902439 Z M6.60377358,9.75609756 C8.2604694,11.5419941 10.1439748,13.0625574 12.195122,14.2667619 C11.4259418,17.3589142 10.9723227,20.7878355 10.913155,24.3902439 L1.2195122,24.3902439 C1.39701532,19.0121441 3.29038196,13.8789672 6.60377358,9.75609756 Z M6.60377358,40.2439024 C3.28052068,36.1210328 1.39701532,30.9878559 1.2195122,25.6097561 L10.913155,25.6097561 C10.9723227,29.2223696 11.4259418,32.6410858 12.195122,35.7332381 C10.153836,36.9476477 8.27033068,38.4580059 6.60377358,40.2439024 Z M8.53658537,40.7218504 C9.99352471,39.102329 11.6350097,37.7097469 13.4221886,36.5853659 C14.8014246,41.3614066 16.9382689,45.2296901 19.5121951,47.5609756 C15.3550615,46.4159637 11.5475934,44.0640473 8.53658537,40.7218504 Z M24.3902439,48.7804878 C20.1964018,48.2418076 16.5833969,43.4934411 14.6341463,36.6901092 C17.6466245,35.1438975 20.9741331,34.2760237 24.3902439,34.1463415 L24.3902439,48.7804878 Z M24.3902439,31.7486339 C20.9232537,31.8605891 17.5520368,32.6909236 14.4968714,34.1463415 C13.8551909,31.534053 13.4720981,28.6512062 13.4146341,25.6097561 L24.3902439,25.6097561 L24.3902439,31.7486339 L24.3902439,31.7486339 Z M24.3902439,24.3902439 L13.4146341,24.3902439 C13.4720981,21.3487938 13.8551909,18.465947 14.4968714,15.8536585 C17.5616141,17.3090764 20.9328311,18.1394109 24.3902439,18.2513661 L24.3902439,24.3902439 Z M24.3902439,15.8536585 C20.9642884,15.7339518 17.6466245,14.8561025 14.6341463,13.3098908 C16.5833969,6.49658337 20.1964018,1.75819243 24.3902439,1.2195122 L24.3902439,15.8536585 Z M43.3913845,9.75609756 C46.7077557,13.8789672 48.6028251,19.0121441 48.7804878,24.3902439 L39.0879979,24.3902439 C39.028777,20.7776304 38.57475,17.3589142 37.804878,14.2667619 C39.8479996,13.0523523 41.7331988,11.5419941 43.3913845,9.75609756 Z M41.4634146,9.27814964 C40.0064753,10.897671 38.3649903,12.2902531 36.5778114,13.4146341 C35.1985754,8.63859343 33.0617311,4.78062534 30.4878049,2.43902439 C34.6449385,3.58403631 38.4524066,5.93595269 41.4634146,9.27814964 Z M25.6097561,1.2195122 C29.8035982,1.75819243 33.4166031,6.50655893 35.3658537,13.3098908 C32.3533755,14.8561025 29.0357116,15.7239763 25.6097561,15.8536585 L25.6097561,1.2195122 L25.6097561,1.2195122 Z M25.6097561,18.2513661 C29.0767463,18.1394109 32.4479632,17.3090764 35.5031286,15.8536585 C36.1448091,18.465947 36.5279019,21.3487938 36.5853659,24.3902439 L25.6097561,24.3902439 L25.6097561,18.2513661 Z M25.6097561,25.6097561 L36.5853659,25.6097561 C36.5279019,28.6512062 36.1448091,31.534053 35.5031286,34.1463415 C32.4479632,32.681594 29.0767463,31.8512595 25.6097561,31.7486339 L25.6097561,25.6097561 L25.6097561,25.6097561 Z M25.6097561,48.7804878 L25.6097561,34.1463415 C29.0357116,34.2660482 32.3533755,35.1438975 35.3658537,36.6901092 C33.4166031,43.5034166 29.8035982,48.2418076 25.6097561,48.7804878 Z M30.4878049,47.5609756 C33.0617311,45.2296901 35.1985754,41.371722 36.5778114,36.5853659 C38.3649903,37.7097469 40.0064753,39.102329 41.4634146,40.7218504 C38.4524066,44.0743627 34.6449385,46.4262791 30.4878049,47.5609756 Z M43.3913845,40.2439024 C41.7331988,38.4580059 39.8479996,36.9476477 37.804878,35.7332381 C38.57475,32.6410858 39.028777,29.2121645 39.0879979,25.6097561 L48.7804878,25.6097561 C48.6028251,30.9878559 46.7077557,36.1210328 43.3913845,40.2439024 Z" id="Shape"></path>
            </g>
        </g>
    </g>
</svg>