<?xml version="1.0" encoding="UTF-8"?>
<svg width="36px" height="34px" viewBox="0 0 36 34" version="1.1" xmlns="http://www.w3.org/2000/svg" xmlns:xlink="http://www.w3.org/1999/xlink">
    <title>good</title>
    <g id="Page-1" stroke="none" stroke-width="1" fill="none" fill-rule="evenodd">
        <g id="success-message" transform="translate(-23.000000, -373.000000)" fill="#0CD300" fill-rule="nonzero">
            <g id="good" transform="translate(23.000000, 373.000000)">
                <path d="M18,34 C27.6573511,34 35.5151515,26.3740031 35.5151515,17 C35.5151515,15.3820393 35.2824572,13.7875977 34.8217009,12.2605998 C34.594708,11.509725 33.7868702,11.0784302 33.0111034,11.2987467 C32.2367622,11.5183716 31.7938232,12.3052164 32.0201034,13.0560913 C32.4017507,14.3247274 32.5959596,15.6521607 32.5959596,17 C32.5959596,24.811381 26.0480895,31.1666667 18,31.1666667 C9.95191048,31.1666667 3.4040404,24.811381 3.4040404,17 C3.4040404,9.188619 9.95191048,2.83333333 18,2.83333333 C20.9248935,2.83333333 23.7389631,3.66341146 26.1378889,5.23329673 C26.8056826,5.67081706 27.7136539,5.49892173 28.1637197,4.85076902 C28.6141419,4.20192462 28.438463,3.32135012 27.7699566,2.88417564 C24.8871121,0.997477214 21.5089457,0 18,0 C8.34264892,0 0.484848485,7.62599689 0.484848485,17 C0.484848485,26.3740031 8.34264892,34 18,34 Z" id="Path"></path>
                <path d="M33.0324098,3.42792352 L18.0604964,18.4709915 L13.2706205,13.6588368 C12.7024264,13.0882721 11.7819521,13.0882721 11.213758,13.6588368 C10.645919,14.2297584 10.645919,15.1546512 11.213758,15.7255727 L17.0320652,21.5718089 C17.3165173,21.8576264 17.6879742,22 18.0604964,22 C18.4330186,22 18.8044755,21.8576264 19.0889276,21.5718089 L35.0892723,5.49465936 C35.6571113,4.92373786 35.6571113,3.99884503 35.0892723,3.42792352 C34.5210782,2.85735883 33.6006039,2.85735883 33.0324098,3.42792352 Z" id="Path"></path>
            </g>
        </g>
    </g>
</svg>