<?xml version="1.0" encoding="UTF-8"?>
<svg width="300px" height="289px" viewBox="0 0 300 289" version="1.1" xmlns="http://www.w3.org/2000/svg" xmlns:xlink="http://www.w3.org/1999/xlink">
    <title>Great idea_Monochromatic</title>
    <defs>
        <linearGradient x1="148.284976%" y1="133.04024%" x2="-3.73401118%" y2="7.08596255%" id="linearGradient-1">
            <stop stop-color="#000000" offset="1%"></stop>
            <stop stop-color="#000000" stop-opacity="0.69" offset="13%"></stop>
            <stop stop-color="#000000" stop-opacity="0.32" offset="25%"></stop>
            <stop stop-color="#000000" stop-opacity="0" offset="100%"></stop>
        </linearGradient>
        <linearGradient x1="50.1383764%" y1="41.074542%" x2="49.8616236%" y2="58.621503%" id="linearGradient-2">
            <stop stop-color="#000000" offset="1%"></stop>
            <stop stop-color="#000000" stop-opacity="0.69" offset="13%"></stop>
            <stop stop-color="#000000" stop-opacity="0.32" offset="25%"></stop>
            <stop stop-color="#000000" stop-opacity="0" offset="100%"></stop>
        </linearGradient>
        <linearGradient x1="52.5541796%" y1="42.0024783%" x2="47.0588235%" y2="59.1771995%" id="linearGradient-3">
            <stop stop-color="#000000" offset="1%"></stop>
            <stop stop-color="#000000" stop-opacity="0.69" offset="13%"></stop>
            <stop stop-color="#000000" stop-opacity="0.32" offset="25%"></stop>
            <stop stop-color="#000000" stop-opacity="0" offset="100%"></stop>
        </linearGradient>
        <linearGradient x1="51.6205769%" y1="40.7500893%" x2="48.0820696%" y2="60.83375%" id="linearGradient-4">
            <stop stop-color="#000000" offset="1%"></stop>
            <stop stop-color="#000000" stop-opacity="0.69" offset="13%"></stop>
            <stop stop-color="#000000" stop-opacity="0.32" offset="25%"></stop>
            <stop stop-color="#000000" stop-opacity="0" offset="100%"></stop>
        </linearGradient>
        <linearGradient x1="103.859611%" y1="23.0261424%" x2="-6.20731818%" y2="76.2229792%" id="linearGradient-5">
            <stop stop-color="#000000" offset="1%"></stop>
            <stop stop-color="#000000" stop-opacity="0.69" offset="13%"></stop>
            <stop stop-color="#000000" stop-opacity="0.32" offset="25%"></stop>
            <stop stop-color="#000000" stop-opacity="0" offset="100%"></stop>
        </linearGradient>
    </defs>
    <g id="Page-1" stroke="none" stroke-width="1" fill="none" fill-rule="evenodd">
        <g id="mobile-edit-user" transform="translate(-11.000000, -81.000000)" fill-rule="nonzero">
            <g id="Great-idea_Monochromatic" transform="translate(11.000000, 81.000000)">
                <path d="M237.432865,17.8431918 C258.770213,43.3976999 255.280919,89.794036 271.424484,121.310084 C277.51067,133.209602 286.26514,142.670307 291.101963,155.477016 C296.242203,169.120225 296.384987,185.049084 295.715685,200.247477 C295.135623,213.560798 293.9755,227.08619 289.915067,239.303814 C282.481353,261.618354 265.936207,277.005255 248.195241,283.826859 C230.454276,290.648464 211.544263,289.71771 193.223236,286.760503 C174.902208,283.803296 156.732889,278.70182 138.304774,277.264452 C125.007974,276.227663 111.666553,277.087727 98.3876013,278.442622 C84.1894744,279.856426 69.7057787,281.75328 55.8556889,277.382269 C37.668522,271.656363 21.9443865,255.067729 12.2707413,233.860668 C2.5970961,212.653607 -1.11529911,187.31117 0.285773123,162.675634 C1.03539139,149.150242 3.32886631,135.577724 8.31739737,123.70177 C15.8403521,105.68755 28.8426593,92.9515317 41.5415497,81.0520143 C51.250891,71.9565416 61.0405485,63.014231 70.9105223,54.2250826 C88.1785144,38.8381819 105.857012,23.8047322 125.347087,14.061266 C146.291778,3.58733436 164.88945,4.29423639 186.690848,5.99080124 C205.315292,7.47529549 221.628413,-1.07821898 237.432865,17.8431918 Z" id="Path" fill="#4864C8" opacity="0.18"></path>
                <path d="M299.779523,101.770847 C298.926097,112.289328 294.432104,122.188816 287.062425,129.784406 C280.557096,136.566022 275.566545,144.188045 273.417673,153.409175 C272.771837,156.163842 272.443047,158.988542 271.938121,162 L231.285681,162 C230.980377,159.957345 230.780755,157.903017 230.381511,155.895378 C228.646402,147.250298 224.504666,139.263011 218.427674,132.842553 C213.167046,127.169807 208.669679,121.170237 205.957168,113.816677 C195.482883,85.7214113 213.953792,54.2878629 243.697475,49.6189363 C244.989147,49.4205069 246.280819,49.2570944 247.549006,49.1637159 C261.852684,47.9892134 275.944324,53.1775238 286.027051,63.3307001 C296.109778,73.4838763 301.146284,87.5573624 299.779523,101.759174 L299.779523,101.770847 Z" id="Path" fill="#FFFFFF"></path>
                <path d="M291.782014,101.683459 C290.929048,112.217202 286.437475,122.131053 279.071767,129.737664 C272.569942,136.52912 267.58208,144.162201 265.434365,153.39671 C264.788877,156.155374 264.460265,158.984173 263.955611,162 L231.270443,162 C230.965303,159.954381 230.765789,157.897073 230.36676,155.886521 C228.632586,147.228897 224.493081,139.230022 218.419363,132.800248 C213.161569,127.119272 208.666625,121.110996 205.955575,113.746767 C195.486933,85.6107376 213.947891,54.1315817 243.67555,49.4558808 C244.966526,49.2571635 246.257502,49.093514 247.525006,49 C251.565415,49.3239886 255.548314,50.1566625 259.378513,51.4781214 C280.507891,58.7726689 293.891844,79.5094993 291.782014,101.683459 Z" id="Path" fill="url(#linearGradient-1)"></path>
                <path d="M68.8276079,239.392124 C65.5786611,239.698715 62.414928,240.620881 59.4999579,242.110952 C56.5599921,243.64663 54.5253015,246.524656 54.0312087,249.846378 C53.6760952,253.828379 56.3986326,257.557745 59.7958858,259.54273 C63.1931391,261.527715 67.1940854,262.129225 71.0766605,262.694645 L98.9885879,266.724766 C104.634894,267.542821 110.2812,268.360875 115.974854,268.805993 C118.410615,269.064669 120.86627,269.064669 123.302031,268.805993 C126.007214,268.301209 128.68577,267.65879 131.327598,266.881159 C140.217274,264.739781 149.509413,265.678138 158.635832,265.437534 C160.867295,265.485059 163.085367,265.075939 165.158085,264.234512 C167.253861,263.349644 168.719056,261.387164 168.993311,259.097612 C169.241891,253.984771 162.50657,249.160656 157.972953,248.727569 C155.783086,248.523055 153.616893,248.727569 151.415189,248.306511 C147.722008,247.596729 144.088012,246.357617 140.44218,245.431291 C125.483414,241.427623 110.161879,238.984882 94.7153878,238.140982 C86.0666362,237.751224 77.4009403,238.170032 68.8276079,239.392124 L68.8276079,239.392124 Z" id="Path" fill="#4864C8" opacity="0.18"></path>
                <path d="M110.538969,249.367029 C110.449969,251.8789 110.917528,254.379459 111.908397,256.690873 C113.146708,258.841583 115.01225,260.566153 117.257357,261.635633 C122.067185,264.125687 127.655158,264.672857 132.859465,263.163378 C133.570311,263.026117 134.209116,262.641741 134.661959,262.078796 C134.922535,261.609597 135.036647,261.073588 134.989685,260.539389 C134.87264,257.682157 132.941397,255.233101 130.893108,253.227208 C128.844819,251.221314 126.539031,249.367029 125.26324,246.801351 C122.922338,241.984874 124.654605,229.168147 115.548499,231.220689 C107.940569,232.935028 110.28147,244.00243 110.538969,249.367029 Z" id="Path" fill="#FFBBAB"></path>
                <path d="M109.487567,258.340265 C109.487567,258.340265 108.218028,261.425331 109.776099,263.228734 C111.33417,265.032137 127.468857,274.888472 138.317646,266.948962 C149.166434,259.009452 123.602534,258 123.602534,258 L109.487567,258.340265 Z" id="Path" fill="#4864C8"></path>
                <path d="M109.992526,250.176828 C111.049902,249.638956 112.327455,249.980747 113.00208,250.981989 C115.22553,253.617034 118.604299,254.872658 121.935201,254.301731 C125.601603,253.397473 127.058609,249.024828 128.885838,249 C130.713068,248.975279 140.422462,257.54715 140.959883,261.238505 C141.497303,264.929859 136.553036,267.617859 131.059405,267.977085 C125.565775,268.336311 113.145393,264.397214 110.756858,261.411924 C108.368323,258.426634 108.726603,252.059666 109.992526,250.176828 Z" id="Path" fill="#FFFFFF"></path>
                <path d="M144.515849,243.367029 C144.426766,245.8789 144.894757,248.379459 145.88654,250.690873 C147.123047,252.843914 148.991143,254.569253 151.240437,255.635633 C156.054704,258.125687 161.647834,258.672857 166.856945,257.163378 C167.569954,257.030035 168.210622,256.644893 168.661102,256.078796 C168.923281,255.610104 169.037587,255.073675 168.989131,254.539389 C168.871978,251.682157 166.938952,249.233101 164.888773,247.227208 C162.838593,245.221314 160.530677,243.367029 159.253709,240.801351 C156.910647,235.984874 158.644512,223.168147 149.530001,225.220689 C141.926765,226.946691 144.304973,238.014092 144.515849,243.367029 Z" id="Path" fill="#FFBBAB"></path>
                <path d="M138.797538,128.399671 C141.817968,129.987533 141.85309,134.45707 142.789657,137.985652 C145.646188,148.845842 148.225651,159.776605 150.528046,170.777939 C152.830442,181.779273 154.851866,192.827655 156.592321,203.923085 C157.025484,206.734188 161.860513,236.421324 160.86541,236.680086 C159.37861,237.06823 140.342875,239.444142 140.331168,238.926617 C139.800149,219.759007 136.333212,200.787983 130.052339,182.681022 C123.566609,163.979538 116.074069,146.430724 112,127 L128.120668,127.564573 C131.059149,127.658669 134.173236,127.48224 137.076595,127.870384 C137.677606,127.939722 138.260885,128.119113 138.797538,128.399671 Z" id="Path" fill="#282328"></path>
                <path d="M126.706556,129.734237 C127.580505,132.987778 127.172662,137.238754 127.277536,140.421049 C127.487283,146.22755 127.510589,152.034051 127.545547,157.828677 L128,244 L108.062313,243.679396 C106.069709,223.19634 103.867358,171.460299 101.012458,160.725991 C98.0410322,149.599832 93.7412037,140.753527 95.3492696,128.665556 C97.0855148,115.603898 105.522035,112.86095 115.869589,119.439276 C118.899279,121.374776 123.863309,124.367083 125.809301,127.549378 C126.204423,128.232735 126.506287,128.967788 126.706556,129.734237 L126.706556,129.734237 Z" id="Path" fill="#282328"></path>
                <path d="M164.976412,82.6237305 C164.732263,85.487611 163.755669,87.9657443 161.070033,88.7255493 C160.851809,88.7992725 160.6271,88.8540435 160.398624,88.8891996 C155.588894,89.6840726 149.411932,86.0486978 145.114915,82.8925846 C143.328641,81.587273 141.620939,80.1862127 140,78.696123 L140.830106,48 L163.487105,71.3786161 C164.615822,75.0251065 165.118801,78.8228816 164.976412,82.6237305 Z" id="Path" fill="#FFFFFF"></path>
                <path d="M146.170874,82.9059224 C144.929337,88.5024211 144.098265,94.1792756 143.684067,99.8927167 C142.879158,109.336383 141.281354,118.780049 139.68355,128.152887 C130.517201,129.78192 121.170649,128.837553 111.932218,127.208521 C108.712583,126.641901 105.504962,126.028063 102.321367,125.355201 C101.240147,125.142719 100.279062,124.587903 99.2098544,124.304593 C93.9118728,122.864434 92.4462181,97.1540536 92.1699061,89.0679145 C91.9056077,81.4106753 91.9496574,73.7455663 92.3020553,66.0725877 C92.5663537,60.5126293 93.1670319,54.5159013 96.9753315,50.4197112 C102.033042,44.9541895 111.643893,41.4954468 118.900085,40.3740114 C121.251417,39.9612692 123.651649,39.8896796 126.024128,40.1615289 C129.37942,40.7778063 132.604483,41.947209 135.562898,43.6202716 C139.106899,45.4499819 142.254453,47.0081868 143.972392,50.537757 C145.796894,54.6096269 147.030321,58.9131164 147.636529,63.3221199 C148.54956,69.8736633 147.624516,76.4842295 146.170874,82.9059224 Z" id="Path" fill="#FFFFFF"></path>
                <path d="M113,127 C109.741641,126.436696 106.495441,125.82645 103.273556,125.157527 C102.179331,124.946288 101.206687,124.394719 100.12462,124.113067 C94.7629179,122.681336 93.2796353,97.1214173 93,89.0825999 L106.37386,75 C106.37386,75 101.620061,116.461521 113,127 Z" id="Path" fill="#020202" opacity="0.1"></path>
                <path d="M131.678634,34.7647313 C130.78962,35.6929584 129.596318,36.2591107 128.323916,36.3563491 C127.26003,36.459697 126.188839,36.459697 125.124954,36.3563491 L124.537878,36.3563491 C124.395108,36.3012352 124.237346,36.3012352 124.094576,36.3563491 C123.966053,36.4847093 123.892831,36.6594216 123.890897,36.8423393 C123.603397,38.9878023 123.507159,41.1551754 123.60335,43.3181584 L123.60335,43.3181584 L123.675237,44.5331338 C123.747427,44.9425513 123.701668,45.3643941 123.543444,45.7481092 C123.233295,46.1938841 122.757385,46.4922236 122.225519,46.5742925 C121.286239,46.8658666 120.308341,47.0092886 119.326085,46.9995339 C117.233465,46.7428943 115.23447,45.9712507 113.503254,44.7518294 C113.743164,41.0612354 113.646907,37.3560682 113.215707,33.6834032 C112.664575,28.944999 111.562311,24.1822953 112.18533,19.4560408 C112.344719,17.5843703 113.058949,15.8054322 114.234104,14.353144 C115.971368,12.4820818 118.703066,11.9231931 121.231085,12.0082414 C124.587467,12.0291111 127.867778,13.0241033 130.684199,14.8755834 C131.535283,15.5875716 132.027562,16.6483859 132.026086,17.767225 C132.349577,19.6382871 132.5892,21.5336488 132.744954,23.4290105 C132.924671,25.579517 132.996558,27.7421733 132.972596,29.9169793 C133.121119,31.63731 132.662568,33.3552447 131.678634,34.7647313 L131.678634,34.7647313 Z" id="Path" fill="#FFBBAB"></path>
                <path d="M127.384739,15.531248 C126.598597,15.7304684 125.801466,15.8828756 124.997497,15.9876764 C123.385378,15.9158049 121.772462,16.1105719 120.223012,16.5642175 C117.047979,17.7653448 115.603698,21.8371663 116.570531,25.1042325 C115.651443,25.4045144 115.53208,23.75897 114.851716,23.0743274 C114.171352,22.3896849 112.559964,23.2424852 112.464474,24.3835562 C112.501302,25.5317348 112.816846,26.6533922 113.383562,27.6506224 C114.192469,29.6929301 114.280944,31.9526113 113.634223,34.0526309 C113.490988,34.5450931 113.109029,35.1216342 112.619645,34.9774989 C112.13026,34.8333636 111.796046,33.9805632 111.497641,33.5962025 C110.471127,32.2629512 109.76689,31.0978577 107.916777,31.5542861 C107.299641,31.7835805 106.625134,31.8046596 105.995047,31.6143425 C105.398236,31.3500945 105.075959,30.4132152 105.589216,30.0288544 C104.366285,30.7278565 102.94584,30.9942789 101.554776,30.7855646 C100.21792,30.4012039 99.2630235,28.5634791 100.21792,27.5425209 C99.0305775,27.1147559 98.114388,26.1468796 97.7474718,24.9327022 C97.3805556,23.7185249 97.6061864,22.4012448 98.3558714,21.3807379 C97.072684,20.6140732 96.623999,18.9620905 97.3412933,17.645232 C98.0855424,16.4057504 99.2074499,15.4410772 100.540198,14.8946505 C101.881131,14.3740389 103.136559,13.6532972 104.264296,12.756644 C103.05266,11.4068073 103.137572,9.32940668 104.455276,8.08425879 C105.768904,6.92695329 107.488427,6.34729059 109.229761,6.47474822 C108.989003,4.01065105 110.3034,1.65759211 112.520436,0.583716084 C114.737471,-0.490159945 117.385024,-0.0561693436 119.148753,1.67023905 C120.664652,0.68531467 122.646063,1.08168668 124.38875,1.5140925 C126.2041,1.87102072 127.957531,2.49424659 129.592938,3.36382853 C131.261082,4.22482804 132.476024,5.77167941 132.923141,7.60380788 C133.29412,9.47946954 132.293708,11.3569701 130.535899,12.0840127 C131.102991,12.6819646 131.484596,13.4332785 131.634031,14.2460418 C131.634031,15.0628084 131.073029,15.9876764 130.24943,15.9035975 C129.839885,15.7745318 129.44083,15.6139062 129.055809,15.4231466 C128.497432,15.3404581 127.927998,15.3772948 127.384739,15.531248 Z" id="Path" fill="#473F47"></path>
                <path d="M125,35.3025974 L124.348347,35.3025974 C124.189872,35.2495767 124.014756,35.2495767 123.856282,35.3025974 C123.713621,35.4260825 123.632345,35.5941593 123.630198,35.7701299 C123.311073,37.8341091 123.204249,39.9191662 123.311021,42 L123.311021,42 C123.311021,42 116.581701,40.3285714 117.02057,33 C119.581811,33.9985645 122.256679,34.7547696 125,35.2558442 L125,35.3025974 Z" id="Path" fill="#E0A194"></path>
                <path d="M196.111256,58.6361152 C194.811573,59.3991191 193.046864,59.5869354 192.212205,60.8429572 C191.210614,62.3220109 192.092968,64.2471284 192.283747,66.0079065 C192.437054,67.9512378 191.812267,69.8765335 190.542887,71.3724107 C190.187116,71.8348183 189.787896,72.2632097 189.350516,72.6519096 C187.296575,74.1945357 184.779625,75.0204891 182.196294,74.9996138 C182.196294,74.9996138 180.920458,69.3651236 181.003924,68.7899361 C181.230474,66.8530801 182.649395,65.0570863 182.92364,63.0145836 C183.067318,60.8428937 183.326017,58.6800647 183.698681,56.5349199 C184.729231,52.3433228 187.707805,48.8758826 191.735257,47.1793185 C192.236053,46.9680251 192.927627,46.8623784 193.201873,47.3319193 C193.29328,47.5306806 193.314274,47.7538945 193.261491,47.9657994 L193.261491,47.9657994 C192.90378,50.1961184 191.365622,52.0625433 189.887083,53.83506 C191.206698,53.1419946 192.614122,52.6248746 194.072303,52.2973137 C194.716183,52.144713 195.670079,52.2973137 195.658156,52.9194554 C195.658156,53.2363954 195.38391,53.4711659 195.145436,53.6707207 C193.821905,54.8445728 192.510298,55.9010398 191.174843,57.0044608 C192.762479,56.5376579 194.431514,56.4017313 196.075485,56.605351 C196.352286,56.6145261 196.619189,56.7089548 196.838602,56.875337 C197.279779,57.4270475 196.743213,58.272221 196.111256,58.6361152 Z" id="Path" fill="#FFBBAB"></path>
                <path d="M196.27883,59.0911754 C195.162013,59.8799351 193.6456,60.0740913 192.928377,61.3725112 C192.06771,62.9014916 192.825917,64.8915931 192.989853,66.7118079 C193.12159,68.7207379 192.584711,70.7110237 191.493933,72.2573956 C191.094794,72.5253005 190.672218,72.7409515 190.23367,72.9005381 C189.925912,73.033154 189.588548,73.033154 189.280789,72.9005381 C188.762961,72.5480786 188.533896,71.8058699 188.737749,71.1409972 C188.949898,70.5112697 189.210565,69.9060203 189.516448,69.3329172 C189.947902,68.2952267 190.02853,67.1015872 189.741861,65.9958567 C189.368442,65.1438615 189.145332,64.2107744 189.086115,63.2533998 C189.181651,62.6627931 189.38442,62.1038304 189.680385,61.6152065 L190.704988,59.625105 C190.881239,59.3337906 191.006639,59.0037541 191.073845,58.6543238 C191.131403,58.2912755 190.987146,57.9251698 190.715234,57.7442164 C190.383102,57.6404444 190.029162,57.7406843 189.772599,58.0111813 C189.198821,58.4723023 187.815606,60.4381343 188.020527,58.5815152 C188.252784,57.2902708 188.675969,56.0578268 189.270543,54.9410857 C190.403598,52.6813266 191.717739,50.556026 193.194774,48.5946035 C193.35632,48.3813919 193.530981,48.1826469 193.717322,48 L193.717322,48 C193.409941,50.3056054 192.088203,52.235033 190.817694,54.0673826 C191.951639,53.3509222 193.161038,52.8163463 194.414052,52.4777283 C194.967338,52.3199764 195.787021,52.4777283 195.776775,53.1208709 C195.776775,53.4485096 195.541116,53.6912049 195.336195,53.8974959 C194.198885,55.1109724 193.071822,56.2031013 191.924266,57.3437692 C193.288521,56.861209 194.722722,56.7206941 196.135386,56.9311872 C196.373241,56.9406719 196.60259,57.0382881 196.791132,57.2102868 C197.282942,57.8412946 196.82187,58.7149976 196.27883,59.0911754 Z" id="Path" fill="#E0A194"></path>
                <path d="M184,75.3982533 C180.955812,79.4291689 177.223584,82.9085918 172.969817,85.6812989 C169.903671,87.6203511 166.387286,88.7600013 162.751023,88.9931807 C162.271951,89.0227835 161.791784,88.9557967 161.339912,88.7963206 C160.572618,88.5474761 159.905503,88.0649042 159.434913,87.4182998 C157.964793,85.6039758 157.113023,83.3793699 157.000747,81.0608764 C156.918432,75.0045331 163.668245,71.6579113 163.668245,71.6579113 C163.668245,71.6579113 178.955279,67.2806689 180.730927,68.1028493 C181.718704,68.5544696 182.588889,70.6736107 183.200371,72.5148317 C183.753056,74.0549726 184,75.3982533 184,75.3982533 Z" id="Path" fill="#FFFFFF"></path>
                <path d="M97.7812564,50.2077075 L101.258779,50.2085737 C106.603013,50.2147254 110.935037,54.5467515 110.941187,59.8909845 L110.949759,94.3469927 C110.955908,99.6931078 106.623102,104.028069 101.276986,104.029399 C101.27538,104.0294 101.273773,104.0294 101.272168,104.024581 L97.794645,104.023715 C92.4504119,104.017563 88.1183871,99.6855374 88.112237,94.3413043 L88.103665,59.8852961 C88.0975168,54.5391811 92.4303221,50.2042194 97.7764383,50.2028894 C97.7780448,50.202889 97.7796512,50.202889 97.7812564,50.2077075 Z" id="Rectangle" fill="#FFFFFF" transform="translate(99.526712, 77.116144) rotate(11.240000) translate(-99.526712, -77.116144) "></path>
                <path d="M88.0618449,87.5606499 L62.6949686,87 L61,100.665841 C61,100.665841 91.2327044,110.710818 97.5052411,105.501447 C103.777778,100.292075 105,96.7529721 105,96.7529721 C105,96.7529721 102.267296,86.1123043 88.0618449,87.5606499 Z" id="Path" fill="#FFFFFF"></path>
                <path d="M55.4581718,101.234369 C56.2922943,101.549853 57.1594752,101.735157 58.0364812,101.785314 C59.177326,101.903374 60.4208469,101.968962 61.6073255,101.98208 C62.9513996,102.056795 64.2975774,101.897586 65.6002824,101.509842 C66.9095295,101.117008 68.0468486,100.182923 68.7946479,98.8862945 C68.9238331,98.6598661 68.9949961,98.3962076 69,98.1254659 C69,97.2728131 67.9960565,97.0104584 67.243099,97.0104584 C63.6722546,97.0104584 60.1014103,97.0104584 56.530566,97.0104584 C55.4809887,97.0104584 53.4046511,96.7874569 53.0395808,98.4009383 C52.7087358,99.7258296 54.5340875,100.853955 55.4581718,101.234369 Z" id="Path" fill="#FFBBAB"></path>
                <rect id="Rectangle" fill="#4864C8" x="41" y="95" width="51" height="4" rx="1.62"></rect>
                <path d="M184,74.9119423 C180.87812,79.0661466 177.05064,82.6519903 172.688312,85.5095028 C169.543913,87.5078624 165.937785,88.6823697 162.20872,88.922681 C161.717421,88.9531893 161.224999,88.8841536 160.761596,88.7197998 C160.546019,88.7950675 160.324035,88.8509858 160.09833,88.8868785 C155.346939,89.6984034 149.244898,85.9868704 145,82.7646391 L145,82.6691656 L146.748609,73.4082344 C149.506647,76.3748566 152.737111,78.8743489 156.311688,80.807432 C158.829316,82.2331381 161.735025,82.8424702 164.620594,82.5498237 C165.401285,82.4525014 166.164392,82.2476371 166.887755,81.94118 C172.729971,79.3384834 178.20639,75.9968818 183.179963,72 C183.746753,73.5275763 184,74.9119423 184,74.9119423 Z" id="Path" fill="#020202" opacity="0.1"></path>
                <path d="M143.487496,252.340265 C143.487496,252.340265 142.218143,255.425331 143.775985,257.228734 C145.333827,259.032137 161.466149,268.888472 172.313346,260.948962 C183.160544,253.009452 157.65809,252 157.65809,252 L143.487496,252.340265 Z" id="Path" fill="#4864C8"></path>
                <path d="M143.992526,244.175974 C145.049902,243.638493 146.327455,243.980035 147.00208,244.980551 C149.227001,247.612158 152.602808,248.870449 155.935201,248.310262 C159.601603,247.394282 161.058609,243.02481 162.885838,243 C164.713068,242.975297 174.422462,251.553326 174.959883,255.229624 C175.497303,258.905922 170.553036,261.604349 165.059405,261.975693 C159.565775,262.347036 147.145393,258.386041 144.756858,255.402917 C142.368323,252.419793 142.726603,246.057446 143.992526,244.175974 Z" id="Path" fill="#FFFFFF"></path>
                <circle id="Oval" fill="#4864C8" cx="250.5" cy="155.5" r="5.5"></circle>
                <rect id="Rectangle" fill="#4864C8" x="249" y="89" width="3" height="61"></rect>
                <polygon id="Path" fill="#4864C8" points="245 88 256 88 250.327354 79"></polygon>
                <path d="M255.845498,107 L251,107 L251,104.539022 L255.845498,104.539022 C258.446209,104.539022 260.554502,102.417383 260.554502,99.8002081 L260.554502,96 L263,96 L263,99.8002081 C263,101.709712 262.246224,103.541007 260.904495,104.89123 C259.562765,106.241453 257.74299,107 255.845498,107 Z" id="Path" fill="#4864C8"></path>
                <rect id="Rectangle" fill="#4864C8" x="259" y="91" width="8" height="9"></rect>
                <path d="M252,126 L249.594664,126 L249.594664,121.478261 C249.588523,119.412878 247.999296,117.74016 246.037005,117.733696 C244.170675,117.733696 242.380786,116.953349 241.061091,115.564323 C239.741397,114.175296 239,112.291372 239,110.326993 L239,100 L241.405336,100 L241.405336,110.374094 C241.411486,113.063796 243.481557,115.242621 246.037005,115.249094 C249.330276,115.249094 252,118.059075 252,121.525362 L252,126 Z" id="Path" fill="#4864C8"></path>
                <rect id="Rectangle" fill="#4864C8" transform="translate(240.000000, 101.500000) rotate(-180.000000) translate(-240.000000, -101.500000) " x="236" y="97" width="8" height="9" rx="3.43"></rect>
                <rect id="Rectangle" fill="#4864C8" x="227" y="163" width="51" height="11" rx="4.51"></rect>
                <rect id="Rectangle" fill="#4864C8" x="228" y="172" width="45" height="9" rx="4.03"></rect>
                <rect id="Rectangle" fill="#4864C8" x="231" y="179" width="40" height="9" rx="3.5"></rect>
                <rect id="Rectangle" fill="url(#linearGradient-2)" x="227" y="163" width="51" height="11" rx="4.51"></rect>
                <rect id="Rectangle" fill="url(#linearGradient-3)" x="228" y="172" width="45" height="9" rx="4.03"></rect>
                <rect id="Rectangle" fill="url(#linearGradient-4)" x="231" y="179" width="40" height="9" rx="3.5"></rect>
                <path d="M80.8277903,93.2099595 L70.9249186,65.8130897 C70.5346454,64.776052 69.5856334,64.0730535 68.5044752,64.0201008 L32,62 L42.1239699,95.4691255 L78.1978855,96.9991426 C79.1054744,97.0221479 79.9650097,96.58098 80.4920336,95.8216407 C81.0190575,95.0623013 81.1448536,94.0837977 80.8277903,93.2099595 Z" id="Path" fill="#4864C8"></path>
                <path d="M80.8285247,93.1141033 L70.7481729,65.2154029 C70.5242768,64.5401475 69.9269428,64.0688475 69.2332068,64.0200858 L32,62 L42.1386197,95.4688779 L78.1015856,96.9988838 C79.0358906,97.0254762 79.9223462,96.5755406 80.4684752,95.7975287 C81.0146042,95.0195168 81.1494511,94.014511 80.8285247,93.1141033 Z" id="Path" fill="url(#linearGradient-5)"></path>
                <path d="M79.8250172,93.692955 L69.5053315,65.4172645 C69.1604737,64.5157168 68.3300268,63.9013984 67.3799957,63.8450593 L33.5635428,62.0088196 C32.766123,61.9392203 31.9882918,62.2848979 31.497087,62.9271776 C31.0058821,63.5694573 30.8681645,64.4209145 31.1312141,65.1892347 L39.8687054,93.7769659 C40.1703644,94.7551482 41.0346202,95.4426438 42.0412708,95.5051915 L77.463533,96.9933857 C78.2788309,97.0549551 79.0674602,96.6835159 79.548317,96.0114662 C80.0291739,95.3394166 80.1338436,94.4623732 79.8250172,93.692955 Z" id="Path" fill="#4864C8"></path>
            </g>
        </g>
    </g>
</svg>