<?xml version="1.0" encoding="UTF-8"?>
<svg width="23px" height="23px" viewBox="0 0 23 23" version="1.1" xmlns="http://www.w3.org/2000/svg" xmlns:xlink="http://www.w3.org/1999/xlink">
    <title>linkedin</title>
    <g id="Page-1" stroke="none" stroke-width="1" fill="none" fill-rule="evenodd">
        <g id="Home-desktop" transform="translate(-908.000000, -2604.000000)" fill="#FFFFFF" fill-rule="nonzero">
            <g id="linkedin" transform="translate(908.000000, 2604.000000)">
                <path d="M22.9941977,23 L22.9941977,22.9990259 L23,22.9990259 L23,14.4253014 C23,10.2309753 22.1035394,7 17.2353813,7 C14.8951067,7 13.3246083,8.29355899 12.6834505,9.51990746 L12.6157566,9.51990746 L12.6157566,7.39157433 L8,7.39157433 L8,22.9990259 L12.8062665,22.9990259 L12.8062665,15.2707902 C12.8062665,13.2359674 13.1892206,11.268355 15.6909935,11.268355 C18.1560183,11.268355 18.1927664,13.5905272 18.1927664,15.401315 L18.1927664,23 L22.9941977,23 Z" id="Path"></path>
                <polygon id="Path" points="1 8 6 8 6 23 1 23"></polygon>
                <path d="M3,0 C1.34385843,0 0,1.33759282 0,2.98601278 C0,4.63443274 1.34385843,6 3,6 C4.65614157,6 6,4.63443274 6,2.98601278 C5.99895906,1.33759282 4.65510062,0 3,0 Z" id="Path"></path>
            </g>
        </g>
    </g>
</svg>