<?xml version="1.0" encoding="utf-8"?>
<!-- Generator: Adobe Illustrator 24.0.3, SVG Export Plug-In . SVG Version: 6.00 Build 0)  -->
<svg version="1.1" id="Calque_1" xmlns="http://www.w3.org/2000/svg" xmlns:xlink="http://www.w3.org/1999/xlink" x="0px" y="0px"
	 viewBox="0 0 155.8 32" style="enable-background:new 0 0 155.8 32;" xml:space="preserve">
<style type="text/css">
	.st0{fill:#3DB8F4;}
	.st1{fill:#FE9F24;stroke:#FE9F24;}
	.st2{fill:#FFFFFF;}
	.st3{fill:#FE9F24;stroke:#FE9F24;stroke-width:0.2;}
	.st4{font-family:'Ubuntu-Medium';}
	.st5{font-size:40.4332px;}
</style>
<title>logo</title>
<g id="Page-1">
	<g id="Home-desktop" transform="translate(-510.000000, -24.000000)">
		<g id="logo" transform="translate(510.000000, 24.000000)">
			<g id="Group">
				<path id="Path" class="st0" d="M20.3,6.5c0.4,1.5,0.9,3,1.4,4.6c0.5,1.6,1,3.2,1.5,4.7c0.5,1.6,1.1,3.1,1.6,4.6
					c0.5,1.5,1,3,1.5,4.3c0.4-1.5,0.8-3,1.2-4.8c0.4-1.7,0.7-3.5,1.1-5.3s0.7-3.7,1.1-5.6s0.7-3.8,1-5.7h5.2
					c-0.9,5.1-2,9.9-3.1,14.6c-1.1,4.7-2.5,9.1-3.9,13.4H24C21.9,25.9,19.9,20,18,13.5c-1,3.3-2,6.4-3,9.3c-1,2.9-2,5.8-3.1,8.5H7.1
					c-1.4-4.3-2.7-8.7-3.9-13.4S1,8.4,0,3.3h5.4c0.3,1.8,0.7,3.7,1,5.6s0.7,3.8,1.1,5.6c0.4,1.8,0.8,3.6,1.2,5.4
					c0.4,1.7,0.8,3.3,1.2,4.8c0.5-1.4,1-2.8,1.6-4.3s1-3.1,1.6-4.6c0.5-1.6,1-3.2,1.5-4.7c0.5-1.6,0.9-3.1,1.3-4.5L20.3,6.5
					L20.3,6.5z"/>
				<path id="Path_1_" class="st0" d="M75.3,14.6c-0.4-0.1-1-0.3-1.7-0.4C73,14,72.1,14,71.2,14c-0.5,0-1.1,0-1.7,0.2
					c-0.6,0.1-1,0.2-1.3,0.3v16.9h-4.9V11.2c0.9-0.4,2.1-0.7,3.5-1c1.4-0.3,3-0.5,4.7-0.5c0.3,0,0.7,0,1.1,0.1
					c0.4,0,0.9,0.1,1.3,0.2c0.4,0.1,0.9,0.2,1.3,0.2c0.4,0.1,0.7,0.2,1,0.3L75.3,14.6z"/>
				<path id="Path_2_" class="st0" d="M84.5,18.5c0.6-0.7,1.3-1.3,2-2.1s1.4-1.5,2-2.2c0.7-0.7,1.3-1.5,1.9-2.1
					c0.6-0.7,1.1-1.3,1.6-1.8h5.8c-1.3,1.5-2.8,3.1-4.3,4.7c-1.5,1.6-3,3.2-4.5,4.7c0.8,0.7,1.6,1.5,2.5,2.4c0.9,0.9,1.8,2,2.6,3
					c0.8,1.1,1.6,2.2,2.3,3.2c0.7,1.1,1.3,2.1,1.8,3h-5.6c-0.5-0.8-1-1.7-1.7-2.6c-0.6-0.9-1.3-1.8-2-2.7c-0.7-0.9-1.5-1.7-2.2-2.4
					c-0.7-0.8-1.5-1.4-2.2-2v9.7h-4.9V0.8L84.5,0V18.5z"/>
				<path id="Shape" class="st0" d="M99.7,20.9c0-1.8,0.3-3.5,0.8-4.9c0.5-1.4,1.3-2.6,2.2-3.5s2-1.6,3.1-2.1
					c1.2-0.5,2.4-0.7,3.6-0.7c2.9,0,5.2,0.9,6.8,2.7s2.4,4.5,2.4,8.1c0,0.3,0,0.6,0,0.9c0,0.3,0,0.6-0.1,0.9h-13.9
					c0.1,1.7,0.7,3,1.8,3.9c1.1,0.9,2.6,1.4,4.6,1.4c1.2,0,2.3-0.1,3.2-0.3c1-0.2,1.8-0.5,2.3-0.7l0.7,4c-0.3,0.1-0.6,0.3-1.1,0.4
					c-0.5,0.2-1,0.3-1.6,0.4c-0.6,0.1-1.3,0.2-2,0.3c-0.7,0.1-1.4,0.1-2.1,0.1c-1.8,0-3.5-0.3-4.8-0.8c-1.4-0.6-2.5-1.3-3.4-2.3
					c-0.9-1-1.6-2.1-2-3.5C99.9,24,99.7,22.5,99.7,20.9z M113.9,18.7c0-0.7-0.1-1.3-0.3-1.9c-0.2-0.6-0.5-1.1-0.8-1.6
					c-0.4-0.5-0.8-0.8-1.3-1.1c-0.5-0.2-1.1-0.4-1.9-0.4c-0.7,0-1.4,0.1-2,0.4c-0.6,0.3-1,0.7-1.4,1.1c-0.4,0.5-0.7,1-0.9,1.6
					c-0.2,0.6-0.4,1.2-0.4,1.8H113.9L113.9,18.7z"/>
				<path id="Path_3_" class="st0" d="M135.9,14.6c-0.4-0.1-1-0.3-1.7-0.4c-0.7-0.2-1.5-0.2-2.5-0.2c-0.5,0-1.1,0-1.7,0.2
					c-0.6,0.1-1,0.2-1.3,0.3v16.9h-4.9V11.2c0.9-0.4,2.1-0.7,3.5-1c1.4-0.3,3-0.5,4.7-0.5c0.3,0,0.7,0,1.1,0.1
					c0.4,0,0.9,0.1,1.3,0.2c0.4,0.1,0.9,0.2,1.3,0.2c0.4,0.1,0.7,0.2,1,0.3L135.9,14.6z"/>
			</g>
			<path id="Path_4_" class="st1" d="M49.6,3C44.4,3,40,7.2,40,12.5c0,3.5,1.8,6.5,4.5,8.2c0,0,0,0,0,0l-4.4,9.1
				c-0.1,0.1,0,0.3,0.1,0.4l1.4,0.7c0.1,0.1,0.3,0,0.4-0.1l4.4-9.1c0,0,0,0,0,0c0.9,0.3,1.9,0.5,3,0.5c5.2,0,9.5-3.5,9.5-9.6
				C59,7.3,54.8,3,49.6,3z"/>
			<circle id="Oval" class="st2" cx="49.5" cy="12.5" r="7.5"/>
			<path id="Path_5_" class="st3" d="M47.8,6.5c0,0,0.1,0.1,0.1,0.2L47,13.8c0,0.1,0,0.3,0.1,0.4l1.9,3.8c0,0,0.1,0,0.1,0l1.8-3.8
				c0.1-0.1,0.1-0.3,0.1-0.4L50,6.7c0-0.1,0-0.1,0.1-0.2l1-1.4l-0.1,0c-1.4-0.2-2.5-0.2-3.9,0.1L47.8,6.5z"/>
		</g>
	</g>
</g>
<text transform="matrix(1 0 0 1 137.4576 31.3469)" class="st0 st4 st5">z</text>
</svg>
