<?xml version="1.0" encoding="UTF-8"?>
<svg width="318px" height="296px" viewBox="0 0 318 296" version="1.1" xmlns="http://www.w3.org/2000/svg" xmlns:xlink="http://www.w3.org/1999/xlink">
    <title>Personal data _Monochromatic</title>
    <defs>
        <linearGradient x1="0%" y1="50.0110011%" x2="100.004986%" y2="50.0110011%" id="linearGradient-1">
            <stop stop-color="#FFFFFF" stop-opacity="0" offset="0%"></stop>
            <stop stop-color="#FFFFFF" stop-opacity="0.23" offset="13%"></stop>
            <stop stop-color="#FFFFFF" stop-opacity="0.41" offset="23%"></stop>
            <stop stop-color="#FFFFFF" stop-opacity="0.59" offset="35%"></stop>
            <stop stop-color="#FFFFFF" stop-opacity="0.74" offset="48%"></stop>
            <stop stop-color="#FFFFFF" stop-opacity="0.85" offset="60%"></stop>
            <stop stop-color="#FFFFFF" stop-opacity="0.93" offset="72%"></stop>
            <stop stop-color="#FFFFFF" stop-opacity="0.98" offset="84%"></stop>
            <stop stop-color="#FFFFFF" offset="95%"></stop>
        </linearGradient>
        <linearGradient x1="0%" y1="49.9889989%" x2="100.004986%" y2="49.9889989%" id="linearGradient-2">
            <stop stop-color="#FFFFFF" stop-opacity="0" offset="0%"></stop>
            <stop stop-color="#FFFFFF" stop-opacity="0.23" offset="13%"></stop>
            <stop stop-color="#FFFFFF" stop-opacity="0.41" offset="23%"></stop>
            <stop stop-color="#FFFFFF" stop-opacity="0.59" offset="35%"></stop>
            <stop stop-color="#FFFFFF" stop-opacity="0.74" offset="48%"></stop>
            <stop stop-color="#FFFFFF" stop-opacity="0.85" offset="60%"></stop>
            <stop stop-color="#FFFFFF" stop-opacity="0.93" offset="72%"></stop>
            <stop stop-color="#FFFFFF" stop-opacity="0.98" offset="84%"></stop>
            <stop stop-color="#FFFFFF" offset="95%"></stop>
        </linearGradient>
        <linearGradient x1="47.1548361%" y1="79.6533465%" x2="62.9087771%" y2="-135.324561%" id="linearGradient-3">
            <stop stop-color="#010101" stop-opacity="0" offset="0%"></stop>
            <stop stop-color="#010101" offset="95%"></stop>
        </linearGradient>
        <linearGradient x1="49.6373906%" y1="73.6178049%" x2="50.9488356%" y2="-38.4637445%" id="linearGradient-4">
            <stop stop-color="#010101" stop-opacity="0" offset="0%"></stop>
            <stop stop-color="#010101" offset="95%"></stop>
        </linearGradient>
        <linearGradient x1="47.9174425%" y1="50.4400725%" x2="69.1169946%" y2="43.0494434%" id="linearGradient-5">
            <stop stop-color="#010101" stop-opacity="0" offset="0%"></stop>
            <stop stop-color="#010101" offset="95%"></stop>
        </linearGradient>
        <linearGradient x1="0%" y1="50%" x2="100.068166%" y2="50%" id="linearGradient-6">
            <stop stop-color="#FFFFFF" stop-opacity="0" offset="0%"></stop>
            <stop stop-color="#FFFFFF" stop-opacity="0.23" offset="13%"></stop>
            <stop stop-color="#FFFFFF" stop-opacity="0.41" offset="23%"></stop>
            <stop stop-color="#FFFFFF" stop-opacity="0.59" offset="35%"></stop>
            <stop stop-color="#FFFFFF" stop-opacity="0.74" offset="48%"></stop>
            <stop stop-color="#FFFFFF" stop-opacity="0.85" offset="60%"></stop>
            <stop stop-color="#FFFFFF" stop-opacity="0.93" offset="72%"></stop>
            <stop stop-color="#FFFFFF" stop-opacity="0.98" offset="84%"></stop>
            <stop stop-color="#FFFFFF" offset="95%"></stop>
        </linearGradient>
    </defs>
    <g id="Page-1" stroke="none" stroke-width="1" fill="none" fill-rule="evenodd">
        <g id="edit-user-desktop" transform="translate(-972.000000, -150.000000)" fill-rule="nonzero">
            <g id="Personal-data-_Monochromatic" transform="translate(972.000000, 150.065116)">
                <path d="M140.16063,1.81436011 C110.046393,0.386678465 110.369402,-0.83345475 82.7119353,11.2043544 C50.8177935,25.0912314 28.1302726,55.2863838 16.1033797,88.0224321 C4.07648674,120.75848 1.45676749,156.142344 0.222115113,191.010481 C-1.03133908,225.66478 2.20257273,266.570689 31.4393917,285.055078 C49.7711592,296.640054 73.0478035,295.520551 94.6573537,294.004818 L228.961592,282.382106 C253.635837,280.652536 280.415886,278.042457 298.446825,261.054932 C321.710934,239.149138 321.297295,201.689791 312.234821,170.991491 C303.172347,140.293191 287.165737,111.242699 284.777907,79.2991086 C282.70344,52.1354212 290.437252,14.4811039 257.634356,7.02822833 C221.61635,-1.13534338 177.162597,3.56908778 140.16063,1.81436011 Z" id="Path" fill="#4A67C6" opacity="0.24"></path>
                <path d="M98.0130299,258.033939 C88.3391116,258.091263 78.1979153,259.409713 70.3047051,265.040197 C68.9849604,265.982857 67.6841594,267.122966 67.2042522,268.677081 C65.9413386,272.753449 70.7846123,275.95722 74.8638233,277.097329 C86.1290128,280.250145 98.0067154,280.046327 109.688666,279.823401 L145.725906,279.129144 C148.769528,279.065451 152.267799,278.778831 154.048507,276.282056 C155.601891,274.103746 155.121984,270.931822 153.555971,268.759883 C151.989958,266.587943 149.565164,265.218538 147.146684,264.091167 C131.789655,256.944784 114.557198,257.938399 98.0130299,258.033939 Z" id="Path" fill="#4A67C6" opacity="0.24"></path>
                <rect id="Rectangle" fill="url(#linearGradient-1)" x="128" y="37.9348837" width="125" height="29"></rect>
                <rect id="Rectangle" fill="url(#linearGradient-2)" x="128" y="139.934884" width="125" height="29"></rect>
                <rect id="Rectangle" fill="url(#linearGradient-2)" x="128" y="235.934884" width="125" height="29"></rect>
                <path d="M132.195146,247.393671 L133,255.139438 C133,255.139438 129.780584,259.626025 125.608222,259.906064 C121.435859,260.186103 120,258.333077 120,258.333077 L120.682516,246.934884" id="Path" fill="#E9CAC5"></path>
                <path d="M120,258.196905 L120.27687,253.238399 L132.542843,249.934884 L133,254.731769 C133,254.731769 129.780584,259.599768 125.608222,259.903614 C121.435859,260.20746 120,258.196905 120,258.196905 Z" id="Path" fill="#FFFFFF"></path>
                <path d="M93.8027014,248.422144 L93,256.761786 C93,256.761786 96.2045345,261.596905 100.393632,261.903004 C104.58273,262.209103 106,260.210088 106,260.210088 L105.31645,247.934884" id="Path" fill="#E9CAC5"></path>
                <path d="M106,259.198498 L105.730342,254.249134 L93.4577906,250.934884 L93,255.727025 C93,255.727025 96.2045345,260.594634 100.393632,260.90279 C104.58273,261.210946 106,259.198498 106,259.198498 Z" id="Path" fill="#FFFFFF"></path>
                <path d="M103.344758,64.9348837 C103.344758,64.9348837 87.3981238,72.7797792 87.0400499,75.3507426 C86.6819761,77.9217059 88.8427667,141.10203 88.8427667,141.10203 C88.8427667,141.10203 94.0163167,147.934884 109.870346,147.934884 C126.107144,147.934884 130.28673,143.207831 131.009052,141.020312 C131.731373,138.832793 134.324322,75.8284766 133.966248,73.1317937 C133.608174,70.4351109 118.902451,64.9600276 118.902451,64.9600276 L103.344758,64.9348837 Z" id="Path" fill="#4A67C6"></path>
                <path d="M105,71.6101739 L105,145.519549 C105,145.519549 112.753817,149.175228 122,144.736189 L118.755725,66.9348837 L111.170611,72.138631 L105,71.6101739 Z" id="Path" fill="#F2FBFF"></path>
                <path d="M104.071277,55.0298471 C104.071277,55.0298471 103.952762,60.7051416 104.021376,64.8733301 C104.071277,67.9758245 105.119194,73.9348837 111.649967,73.9348837 C118.180739,73.9348837 118.947965,66.3678244 118.82945,64.8733301 C118.742124,63.8139418 119.253607,61.6447182 118.82945,58.264765 C118.399055,54.6451882 104.433058,52.5137999 104.071277,55.0298471 Z" id="Path" fill="#E9CAC5"></path>
                <path d="M107.303526,65.9256016 C107.937285,66.5376313 108.685991,67.0083824 109.503133,67.3086104 C110.697019,67.7790725 111.972307,67.9883714 113.24841,67.923281 C114.021737,67.8987269 114.778905,67.6882772 115.459906,67.3086104 C116.205096,66.8106705 116.847599,66.1651568 117.350379,65.4092783 C117.962941,64.6878736 118.438871,63.8538271 118.753372,62.9505958 C118.890768,62.4313513 118.966626,61.8967671 118.979277,61.358599 C119.028988,60.2159127 118.989226,59.070941 118.86038,57.9348837 C115.673922,58.2913927 112.487465,58.5495543 109.295062,58.7831292 C107.464038,58.9183567 104.31325,59.3486261 105.133644,62.0162965 C105.556079,63.4748022 106.29868,64.8126887 107.303526,65.9256016 L107.303526,65.9256016 Z" id="Path" fill="url(#linearGradient-3)"></path>
                <path d="M89.1448051,140.004081 C89.1448051,140.004081 88.4103363,151.956348 90.2496471,187.460872 C92.0889578,222.965397 93.0054744,247.80095 93.0054744,247.80095 C93.0054744,247.80095 93.2440199,250.700947 99.3394832,250.789016 C105.434946,250.877086 107.054544,246.838477 107.054544,246.838477 L113.011902,155.856562 L119.232916,248.706806 C119.232916,248.706806 126.552494,252.921552 132.258752,249.757347 C136.307746,247.511579 132.026484,139.934884 132.026484,139.934884 C132.026484,139.934884 112.465759,150.698215 89.1448051,140.004081 Z" id="Path" fill="#606161"></path>
                <path d="M89.1448051,140.004081 C89.1448051,140.004081 88.4103363,151.956348 90.2496471,187.460872 C92.0889578,222.965397 93.0054744,247.80095 93.0054744,247.80095 C93.0054744,247.80095 93.2440199,250.700947 99.3394832,250.789016 C105.434946,250.877086 107.054544,246.838477 107.054544,246.838477 L113.011902,155.856562 L119.232916,248.706806 C119.232916,248.706806 126.552494,252.921552 132.258752,249.757347 C136.307746,247.511579 132.026484,139.934884 132.026484,139.934884 C132.026484,139.934884 112.465759,150.698215 89.1448051,140.004081 Z" id="Path" fill="url(#linearGradient-4)"></path>
                <path d="M135.034709,72.9348837 C135.034709,72.9348837 142.383281,103.757172 142.953861,109.00059 C143.524442,114.244009 138.671374,126.733105 135.66799,125.894658 C128.996591,124.01754 130.06251,112.648458 130.06251,112.648458 L135.034709,72.9348837 Z" id="Path" fill="#4A67C6"></path>
                <path d="M139.139222,130.381306 C139.473332,129.995398 139.992519,129.843062 140.472819,129.990012 C140.950607,130.262307 141.29849,130.726521 141.43425,131.272942 C142.898105,135.121733 142.724427,138.534327 142.84228,142.492166 C142.929119,145.276124 143.233055,148.361571 142.656197,151.107042 C142.147569,153.53178 135.212864,159.600039 134.245231,158.875184 C133.277598,158.150328 135.392745,156.084811 136.775964,154.872442 C138.159183,153.660073 138.233617,150.625943 138.438308,149.657331 C138.643,148.688718 136.378986,148.682304 136.986858,145.776467 C137.439661,143.621145 138.345267,142.569142 138.190197,140.3176 C138.004896,137.649369 138.090132,134.96841 138.444511,132.31853 C138.486155,131.715332 138.664657,131.130769 138.965544,130.612233 C139.017687,130.530812 139.075747,130.453613 139.139222,130.381306 L139.139222,130.381306 Z" id="Path" fill="#E9CAC5"></path>
                <path d="M131.788027,121.898419 C131.684639,122.368783 137.437889,141.866917 137.437889,141.866917 C137.437889,141.866917 139.992186,142.412539 144,140.411926 C144,140.411926 143.251956,113.036771 142.589055,111.136503 C141.926154,109.236234 140.642924,109.67524 134.682897,111.851455 C128.72287,114.02767 131.788027,121.898419 131.788027,121.898419 Z" id="Path" fill="#4A67C6"></path>
                <path d="M86.9655219,73.9348837 C86.9655219,73.9348837 79.6096712,104.757172 79.0452837,110.00059 C78.4808962,115.244009 83.3220869,127.733105 86.3258827,126.894658 C92.9981974,125.01754 91.9384031,113.642201 91.9384031,113.642201 L86.9655219,73.9348837 Z" id="Path" fill="#4A67C6"></path>
                <path d="M81.8547457,131.381404 C81.5207577,130.995411 81.001761,130.843042 80.5216372,130.990024 C80.0413208,131.257599 79.6940015,131.724343 79.5667594,132.273236 C78.0972398,136.12287 78.2770545,139.529796 78.1530444,143.488503 C78.0724378,146.273072 77.7686131,149.365611 78.3390595,152.111684 C78.8475009,154.536953 85.7796651,160.600127 86.7531444,159.875113 C87.7266236,159.150098 85.5998505,157.084128 84.217138,155.871493 C82.8344254,154.658858 82.7600194,151.624064 82.5554027,150.655239 C82.350786,149.686414 84.6139703,149.686414 84.0063208,146.773524 C83.553684,144.624145 82.6546108,143.565496 82.8034229,141.31346 C82.9886314,138.646782 82.9034265,135.967364 82.5492022,133.319053 C82.5094632,132.716255 82.3331619,132.131599 82.0345603,131.612382 C81.9820392,131.52951 81.9218146,131.452149 81.8547457,131.381404 L81.8547457,131.381404 Z" id="Path" fill="#E9CAC5"></path>
                <path d="M89.2119732,122.898108 C89.3214431,123.368478 83.5621111,142.866916 83.5621111,142.866916 C83.5621111,142.866916 81.0078139,143.412546 77,141.411902 C77,141.411902 77.7480442,114.036322 78.4109451,112.136024 C79.0738461,110.235726 80.3570763,110.674738 86.3171031,112.857259 C92.2771298,115.039779 89.2119732,122.898108 89.2119732,122.898108 Z" id="Path" fill="#4A67C6"></path>
                <path d="M98.9917149,258.038019 C96.7225103,256.823824 94.2368965,255.454626 91.7636489,256.100474 C90.5072316,256.499413 89.3475047,257.17558 88.3629335,258.083228 C86.3286874,259.755975 84.3624556,261.712895 83.4535371,264.24462 C82.5446186,266.776345 82.9650707,270.012045 85.0487818,271.626665 C86.6007446,272.834401 88.6782726,272.918361 90.6135888,272.918361 C93.0193466,273.006245 95.4250829,272.743219 97.7612742,272.136885 C99.5248019,271.551685 101.214605,270.747217 102.794333,269.740788 C104.649269,268.623471 106.53512,267.312399 107.493503,265.31027 C108.216928,263.798985 108.371506,260.518076 106.553669,259.620347 C105.694216,259.200546 104.148436,259.814102 103.097306,259.620347 C101.65706,259.323813 100.271188,258.789687 98.9917149,258.038019 L98.9917149,258.038019 Z" id="Path" fill="#4A67C6"></path>
                <path d="M127.010435,258.038019 C129.273996,256.823824 131.760203,255.454626 134.234041,256.100474 C135.490758,256.499413 136.650762,257.17558 137.635568,258.083228 C139.670299,259.755975 141.637,261.712895 142.546136,264.24462 C143.455271,266.776345 143.034718,270.012045 140.956695,271.626665 C139.404362,272.834401 137.320153,272.918361 135.39056,272.918361 C132.984228,273.006245 130.577918,272.743219 128.241169,272.136885 C126.47722,271.551685 124.787014,270.747217 123.206909,269.740788 C121.351531,268.623471 119.496153,267.312399 118.506617,265.31027 C117.78302,263.798985 117.628405,260.518076 119.446676,259.620347 C120.306334,259.200546 121.852483,259.814102 122.903864,259.620347 C124.344283,259.323178 125.730392,258.789088 127.010435,258.038019 L127.010435,258.038019 Z" id="Path" fill="#4A67C6"></path>
                <polygon id="Path" fill="url(#linearGradient-5)" points="127.704348 94.9348837 126 142.934884 131.904348 140.723131 133 125.470737 130.923671 113.84661"></polygon>
                <path d="M99,36.5684391 C99.1127627,43.019736 100.038889,49.4299758 101.755868,55.6433479 C102.105921,57.2292229 102.755758,58.7314141 103.669493,60.0669698 C104.773363,61.4476202 106.32087,62.3914796 108.041724,62.7336922 C109.741303,63.0519802 111.488865,62.9920321 113.163304,62.5580023 C115.459837,62.1096235 117.546889,60.9079083 119.102354,59.1383229 C120.014337,57.9180933 120.710046,56.5465413 121.158418,55.0849048 C122.850202,50.1421918 123.38655,44.8690708 122.725237,39.6806611 C122.39701,37.1708047 121.684819,34.5291808 119.826931,32.9730698 C118.70862,32.1263219 117.403459,31.5685124 116.024452,31.3479378 C111.071821,30.3512071 105.930743,31.1719066 101.520535,33.6632803 C100.808714,34.0029665 100.197807,34.5267049 99.7493484,35.1817435 C99.3668133,35.9602507 99.1796289,36.8223106 99.2043677,37.6915999" id="Path" fill="#E9CAC5"></path>
                <path d="M99.9495508,48.9348837 C99.7459752,46.9334813 98.7217355,45.1179677 97.7738367,43.3582207 C96.8259379,41.5984737 95.9225713,39.6404453 96.0052739,37.6576318 C96.0879764,35.6748183 97.4875586,33.5556863 99.5360379,33.3202272 C100.051339,30.6124475 101.444559,27.9542381 103.785678,26.4299503 C107.144675,24.2302665 111.597891,24.8065217 115.478551,25.9404432 C118.614887,26.8574944 121.973884,28.4189601 123.150805,31.3683952 C123.522238,32.4386683 123.736416,33.5547225 123.786979,34.6834115 C124.117789,38.6862163 124.365897,43.0236209 122.094757,46.3696187 C122.176124,43.4785398 121.822479,40.5914331 121.045071,37.8001465 C115.782172,39.8339317 109.944843,39.9614492 104.593619,38.1595315 C98.8744172,36.2324846 99.5996552,45.4587638 99.9495508,48.9348837 Z" id="Path" fill="#FE9F24"></path>
                <rect id="Rectangle" fill="#4A67C6" x="222" y="148.934884" width="23" height="14" rx="4.57"></rect>
                <path d="M234.581295,152.934884 L232.418705,152.934884 C230.530606,152.934884 229,151.36788 229,149.434884 C229,147.501887 230.530606,145.934884 232.418705,145.934884 L234.581295,145.934884 C236.469394,145.934884 238,147.501887 238,149.434884 C238,151.36788 236.469394,152.934884 234.581295,152.934884 L234.581295,152.934884 Z M232.418705,148.294732 C231.785763,148.294732 231.272662,148.820034 231.272662,149.468028 C231.272662,150.116021 231.785763,150.641323 232.418705,150.641323 L234.581295,150.641323 C235.214237,150.641323 235.727338,150.116021 235.727338,149.468028 C235.727338,148.820034 235.214237,148.294732 234.581295,148.294732 L232.418705,148.294732 Z" id="Shape" fill="#4A67C6"></path>
                <path d="M230.00717,61.9348837 C234.64279,61.8012992 239.276279,61.7729631 243.907638,61.8498754 C244.390583,58.9428248 242.950096,56.0514418 240.277539,54.5634456 C239.638437,54.2112682 238.84595,53.8773068 238.641438,53.191168 C238.436925,52.5050292 238.871514,51.8796106 239.0952,51.235976 C239.567229,49.9102134 239.136049,48.4450808 238.008727,47.5441849 C236.833199,46.6839687 235.179802,46.7400712 234.071858,47.6777695 C233.633786,48.1113725 233.315429,48.6412113 233.14516,49.2200638 C232.751224,50.3055648 232.815364,51.493869 233.324109,52.5353893 C233.617563,52.9166576 233.790491,53.3695281 233.822609,53.8408746 C233.77148,54.3448527 233.311327,54.7031022 232.921475,55.0552796 C230.962086,56.8488318 229.901791,59.3518 230.00717,61.9348837 L230.00717,61.9348837 Z" id="Path" fill="#4A67C6"></path>
                <polygon id="Path" fill="#4A67C6" points="242 259.934884 225 259.934884 225 240.960456 239.276827 240.934884 242 243.677481"></polygon>
                <rect id="Rectangle" fill="url(#linearGradient-6)" x="229" y="246.934884" width="9" height="2"></rect>
                <rect id="Rectangle" fill="url(#linearGradient-6)" x="229" y="253.934884" width="9" height="2"></rect>
                <rect id="Rectangle" fill="#4A67C6" opacity="0.24" x="161" y="50.9348837" width="62" height="6" rx="3"></rect>
                <rect id="Rectangle" fill="#4A67C6" opacity="0.24" x="161" y="156.934884" width="62" height="6" rx="3"></rect>
                <rect id="Rectangle" fill="#4A67C6" opacity="0.24" x="161" y="253.934884" width="62" height="5" rx="2.5"></rect>
            </g>
        </g>
    </g>
</svg>