<?xml version="1.0" encoding="UTF-8"?>
<svg width="34px" height="34px" viewBox="0 0 34 34" version="1.1" xmlns="http://www.w3.org/2000/svg" xmlns:xlink="http://www.w3.org/1999/xlink">
    <title>phone</title>
    <defs>
        <linearGradient x1="51.1839674%" y1="-0.0592773437%" x2="48.8399371%" y2="100.136035%" id="linearGradient-1">
            <stop stop-color="#5BA6D7" offset="0%"></stop>
            <stop stop-color="#5A69E0" offset="100%"></stop>
        </linearGradient>
    </defs>
    <g id="Page-1" stroke="none" stroke-width="1" fill="none" fill-rule="evenodd">
        <g id="workers-personnal-desktop" transform="translate(-833.000000, -912.000000)" fill="url(#linearGradient-1)" fill-rule="nonzero">
            <g id="phone" transform="translate(833.000000, 912.000000)">
                <path d="M24.4429978,34 C23.3471637,34 22.2579709,33.8074219 21.1953438,33.4222656 C16.5065019,31.7222656 12.1563724,28.9464844 8.60985453,25.4003906 C5.06333669,21.8542969 2.28722348,17.5046875 0.580378757,12.8164062 C0.0357823857,11.3089844 -0.130253093,9.75507813 0.102196577,8.19453125 C0.314721991,6.73359375 0.885884039,5.3125 1.74262711,4.090625 C2.6060116,2.86210938 3.7483357,1.83945313 5.06333669,1.13554688 C6.45803472,0.378515625 7.98556113,0 9.59278457,0 C10.090891,0 10.5292247,0.351953125 10.628846,0.83671875 L12.2958422,8.61953125 C12.3688978,8.97148438 12.2626351,9.33671875 12.0102611,9.59570312 L9.16109232,12.4445313 C11.8508671,17.7902344 16.2142795,22.153125 21.5539805,24.8359375 L24.4031493,21.9871094 C24.6555232,21.7347656 25.0274427,21.621875 25.3794379,21.7015625 L33.1631812,23.3683594 C33.6546462,23.4746094 34,23.90625 34,24.4042969 C34,26.0179688 33.6214391,27.5386719 32.8643173,28.9398438 C32.1603269,30.2480469 31.1375483,31.396875 29.9088858,32.2601563 C28.6868647,33.1167969 27.265601,33.68125 25.8044887,33.9003906 C25.3528722,33.9667969 24.8946143,34 24.4429978,34 L24.4429978,34 Z M8.74268291,2.17148437 C6.61742878,2.40390625 4.73126574,3.51953125 3.48267893,5.30585937 C2.07469807,7.31796875 1.74262711,9.78828125 2.57944593,12.0859375 C5.85366558,21.1039062 12.9002113,28.1496094 21.9192585,31.4234375 C24.2171896,32.2601562 26.6944389,31.928125 28.7001475,30.5203125 C30.4866893,29.2652344 31.6024477,27.3792969 31.8348974,25.2609375 L25.5056249,23.8996094 L22.5302691,26.8746094 C22.211481,27.1933594 21.7332988,27.2730469 21.3281722,27.0871094 C15.0055412,24.11875 9.89164843,18.9988281 6.91629264,12.6769531 C6.72369149,12.271875 6.81002993,11.79375 7.12881805,11.475 L10.1041738,8.5 L8.74268291,2.17148437 Z" id="Shape"></path>
            </g>
        </g>
    </g>
</svg>