<?xml version="1.0" encoding="UTF-8"?>
<svg width="34px" height="34px" viewBox="0 0 34 34" version="1.1" xmlns="http://www.w3.org/2000/svg" xmlns:xlink="http://www.w3.org/1999/xlink">
    <title>search</title>
    <g id="Page-1" stroke="none" stroke-width="1" fill="none" fill-rule="evenodd">
        <g id="workers-desktop" transform="translate(-532.000000, -552.000000)" fill="#FE9F24" fill-rule="nonzero">
            <g id="search" transform="translate(532.000000, 552.000000)">
                <path d="M33.4830523,30.9686129 L25.1014707,22.5524699 C27.2565226,20.0791349 28.4372882,16.9671734 28.4372882,13.7274866 C28.4372882,6.15826985 22.0586808,0 14.2186441,0 C6.37860739,0 0,6.15826985 0,13.7274866 C0,21.2967033 6.37860739,27.4549731 14.2186441,27.4549731 C17.1619034,27.4549731 19.9666855,26.5979005 22.3646908,24.9708949 L30.8099472,33.4509005 C31.1629405,33.804831 31.6377196,34 32.1464997,34 C32.628079,34 33.0849302,33.8227364 33.4317415,33.5004389 C34.1686382,32.8158551 34.1921299,31.6806516 33.4830523,30.9686129 Z M14.5,4 C20.2898235,4 25,8.48588235 25,14 C25,19.5141176 20.2898235,24 14.5,24 C8.71017647,24 4,19.5141176 4,14 C4,8.48588235 8.71017647,4 14.5,4 Z" id="Shape"></path>
            </g>
        </g>
    </g>
</svg>