<?xml version="1.0" encoding="UTF-8"?>
<svg width="319px" height="351px" viewBox="0 0 319 351" version="1.1" xmlns="http://www.w3.org/2000/svg" xmlns:xlink="http://www.w3.org/1999/xlink">
    <title>Sending emails_Monochromatic</title>
    <defs>
        <linearGradient x1="15.1563076%" y1="-13.4902266%" x2="91.6084371%" y2="125.391787%" id="linearGradient-1">
            <stop stop-color="#FFFFFF" offset="1%"></stop>
            <stop stop-color="#FFFFFF" stop-opacity="0" offset="100%"></stop>
        </linearGradient>
        <linearGradient x1="-108.85029%" y1="-35.0911968%" x2="309.649776%" y2="212.140917%" id="linearGradient-2">
            <stop stop-color="#000000" offset="1%"></stop>
            <stop stop-color="#000000" stop-opacity="0.69" offset="8%"></stop>
            <stop stop-color="#000000" stop-opacity="0.32" offset="21%"></stop>
            <stop stop-color="#000000" stop-opacity="0" offset="100%"></stop>
        </linearGradient>
        <linearGradient x1="119.144323%" y1="118.419407%" x2="-54.8397366%" y2="-62.9663491%" id="linearGradient-3">
            <stop stop-color="#000000" offset="1%"></stop>
            <stop stop-color="#000000" stop-opacity="0.69" offset="8%"></stop>
            <stop stop-color="#000000" stop-opacity="0.32" offset="21%"></stop>
            <stop stop-color="#000000" stop-opacity="0" offset="100%"></stop>
        </linearGradient>
        <linearGradient x1="55.1309058%" y1="36.2410853%" x2="18.3117665%" y2="126.860639%" id="linearGradient-4">
            <stop stop-color="#000000" offset="1%"></stop>
            <stop stop-color="#000000" stop-opacity="0.69" offset="8%"></stop>
            <stop stop-color="#000000" stop-opacity="0.32" offset="21%"></stop>
            <stop stop-color="#000000" stop-opacity="0" offset="100%"></stop>
        </linearGradient>
        <linearGradient x1="11.0803913%" y1="33.9602059%" x2="196.214377%" y2="105.262857%" id="linearGradient-5">
            <stop stop-color="#000000" offset="1%"></stop>
            <stop stop-color="#000000" stop-opacity="0.69" offset="8%"></stop>
            <stop stop-color="#000000" stop-opacity="0.32" offset="21%"></stop>
            <stop stop-color="#000000" stop-opacity="0" offset="100%"></stop>
        </linearGradient>
        <linearGradient x1="-25.5140899%" y1="52.3167296%" x2="388.068038%" y2="39.6325544%" id="linearGradient-6">
            <stop stop-color="#000000" offset="1%"></stop>
            <stop stop-color="#000000" stop-opacity="0.69" offset="8%"></stop>
            <stop stop-color="#000000" stop-opacity="0.32" offset="21%"></stop>
            <stop stop-color="#000000" stop-opacity="0" offset="100%"></stop>
        </linearGradient>
        <linearGradient x1="20.6563141%" y1="23.6768129%" x2="186.903018%" y2="172.783044%" id="linearGradient-7">
            <stop stop-color="#000000" offset="1%"></stop>
            <stop stop-color="#000000" stop-opacity="0.69" offset="8%"></stop>
            <stop stop-color="#000000" stop-opacity="0.32" offset="21%"></stop>
            <stop stop-color="#000000" stop-opacity="0" offset="100%"></stop>
        </linearGradient>
        <linearGradient x1="29.6648551%" y1="34.3838527%" x2="122.282609%" y2="103.954202%" id="linearGradient-8">
            <stop stop-color="#000000" offset="1%"></stop>
            <stop stop-color="#000000" stop-opacity="0.69" offset="8%"></stop>
            <stop stop-color="#000000" stop-opacity="0.32" offset="21%"></stop>
            <stop stop-color="#000000" stop-opacity="0" offset="100%"></stop>
        </linearGradient>
        <linearGradient x1="60.1720432%" y1="44.3027104%" x2="-82.9798996%" y2="124.371615%" id="linearGradient-9">
            <stop stop-color="#000000" offset="1%"></stop>
            <stop stop-color="#000000" stop-opacity="0.69" offset="8%"></stop>
            <stop stop-color="#000000" stop-opacity="0.32" offset="21%"></stop>
            <stop stop-color="#000000" stop-opacity="0" offset="100%"></stop>
        </linearGradient>
        <linearGradient x1="35.1225514%" y1="-1.83167667%" x2="67.6754848%" y2="103.311736%" id="linearGradient-10">
            <stop stop-color="#FFFFFF" offset="1%"></stop>
            <stop stop-color="#FFFFFF" stop-opacity="0" offset="100%"></stop>
        </linearGradient>
        <linearGradient x1="-74.076322%" y1="-28.8295292%" x2="249.604577%" y2="205.720201%" id="linearGradient-11">
            <stop stop-color="#000000" offset="1%"></stop>
            <stop stop-color="#000000" stop-opacity="0.69" offset="8%"></stop>
            <stop stop-color="#000000" stop-opacity="0.32" offset="21%"></stop>
            <stop stop-color="#000000" stop-opacity="0" offset="100%"></stop>
        </linearGradient>
        <linearGradient x1="80.8379035%" y1="10.0099189%" x2="13.328701%" y2="82.6487572%" id="linearGradient-12">
            <stop stop-color="#FFFFFF" offset="1%"></stop>
            <stop stop-color="#FFFFFF" stop-opacity="0" offset="100%"></stop>
        </linearGradient>
        <linearGradient x1="21.8050981%" y1="-26.8723632%" x2="95.4148286%" y2="200.190629%" id="linearGradient-13">
            <stop stop-color="#000000" offset="1%"></stop>
            <stop stop-color="#000000" stop-opacity="0.69" offset="8%"></stop>
            <stop stop-color="#000000" stop-opacity="0.32" offset="21%"></stop>
            <stop stop-color="#000000" stop-opacity="0" offset="100%"></stop>
        </linearGradient>
    </defs>
    <g id="Page-1" stroke="none" stroke-width="1" fill="none" fill-rule="evenodd">
        <g id="Contact-desktop" transform="translate(-972.000000, -125.000000)" fill-rule="nonzero">
            <g id="Sending-emails_Monochromatic" transform="translate(972.000000, 125.000000)">
                <path d="M287.1661,230.56341 L241.943032,264.113564 C239.939614,265.597464 237.115937,265.17519 235.63181,263.169736 L216.874682,237.760103 C216.521168,237.286553 216.27059,236.743985 216.139108,236.167392 C215.689318,234.394532 216.3517,232.52486 217.816216,231.433502 L263.053996,197.883349 C264.136092,197.08541 265.515602,196.809916 266.820133,197.131235 C267.835872,197.390716 268.733375,197.988776 269.365218,198.827177 L288.122346,224.251557 C288.830941,225.215525 289.128299,226.422279 288.948948,227.606114 C288.769597,228.789949 288.128243,229.853795 287.1661,230.56341 Z" id="Path" fill="#4C6AC4"></path>
                <path d="M267,197.130674 L258.599545,234.663729 L216.1396,236 C215.688219,234.234716 216.352945,232.373035 217.822644,231.286342 L263.220533,197.879573 C264.306459,197.085045 265.690852,196.810728 267,197.130674 Z" id="Path" fill="url(#linearGradient-1)"></path>
                <polygon id="Path" fill="url(#linearGradient-2)" points="243 235.052479 244.386059 262 287 230.274339 261.210456 221 258.217158 234.562794"></polygon>
                <path d="M296,16.6601963 L245.531271,88.2931846 L235.831398,61.4875436 C202.335067,70.3500059 169.358624,81.0584915 137.054366,93.5635455 C99.8127353,108.335196 63.9526016,126.69362 53.6501615,145.666919 C30.0324422,189.249875 85.5127721,208.515972 85.5127721,208.515972 C74.957646,209.356769 64.3433507,209.101638 53.8412196,207.754698 C26.1671901,204.138645 -8.19387251,190.787064 1.75584493,145.666919 C9.61862017,110.018783 60.8074915,80.0362859 111.099859,58.6766844 L111.173343,58.6766844 C118.521731,55.5730275 125.870119,52.6596891 133.012753,49.8927497 L133.218507,49.8049103 C160.123434,39.5574479 187.562858,30.7607748 215.417576,23.4531059 L210.582337,0 L296,16.6601963 Z" id="Path" fill="#4C6AC4"></path>
                <path d="M53.8562649,145.744532 C30.3030543,189.274079 85.6318472,208.516565 85.6318472,208.516565 C75.1055509,209.356332 64.5202471,209.101514 54.0468012,207.756224 C49.8997051,202.940026 46.0243671,197.897411 42.4387472,192.651749 C10.6778216,146.563361 78.8018558,110.242436 78.8018558,110.242436 C84.4739731,89.58162 111.149047,72.4885599 111.149047,72.4885599 L111.149047,58.860902 L111.22233,58.860902 L133.002088,50.0877317 L133.207281,50 L138,89.9471688 L137.032662,93.6757661 C99.8927519,108.458558 64.1305653,126.794484 53.8562649,145.744532 Z" id="Path" fill="url(#linearGradient-3)"></path>
                <path d="M208.461622,296.620002 C207.104282,298.919998 206.264387,301.4863 206,304.141489 C206.04558,306.799114 206.91013,309.378501 208.476451,311.529982 C211.694735,316.287401 216.628355,319.626675 222.252637,320.854261 C222.988513,321.079365 223.780002,321.042802 224.491823,320.750822 C224.9793,320.45294 225.358566,320.007703 225.574343,319.480001 C226.923787,316.746259 226.375112,313.495321 225.485369,310.613809 C224.595626,307.732297 223.379644,304.806453 223.513106,301.747617 C223.735541,296.028923 231.936005,284.990513 222.386098,282.301102 C214.422899,279.995892 210.997389,291.521942 208.461622,296.620002 Z" id="Path" fill="#B2857F"></path>
                <path d="M202.365454,304 C202.365454,304 199.530579,306.281167 200.067713,308.796301 C200.604847,311.311434 210.79548,328.844253 225.313029,326.84092 C239.830577,324.837587 215.987779,310.755765 215.987779,310.755765 L202.365454,304 Z" id="Path" fill="#4C6AC4"></path>
                <path d="M206.735419,298 C207.958897,298.044543 208.964259,298.981348 209.096204,300.199799 C209.862456,303.651368 212.355461,306.461794 215.688585,307.631554 C219.459902,308.657136 222.904569,305.506072 224.597207,306.397882 C226.289846,307.289693 231.041111,319.700722 229.793904,323.238237 C228.546697,326.775752 222.696701,326.686571 217.5,324.26382 C212.303308,321.841068 202.830473,312.164924 202.102936,308.345002 C201.375398,304.52508 204.671588,299.025582 206.735419,298 Z" id="Path" fill="#FFFFFF"></path>
                <path d="M147.347213,316.783766 C145.963109,319.392784 145.16217,322.272439 145,325.222812 C145.201709,328.134008 146.275431,330.91642 148.080717,333.206091 C151.848039,338.323238 157.438571,341.788103 163.689685,342.88012 C164.506891,343.096399 165.37392,343.018352 166.139588,342.659588 C166.656142,342.292076 167.053946,341.780954 167.283855,341.189371 C168.633502,338.101915 167.855988,334.529287 166.755732,331.353618 C165.655476,328.177949 164.188467,325.046386 164.129787,321.694291 C164.129787,315.372357 172.594424,302.743192 161.973285,300.22912 C153.097885,298.12671 149.870467,311.035216 147.347213,316.783766 Z" id="Path" fill="#B2857F"></path>
                <path d="M141.403884,326 C141.403884,326 138.428702,328.718626 139.098118,331.526387 C139.767534,334.334147 151.936031,353.661644 167.942514,350.690469 C183.948996,347.719293 156.845082,333.086254 156.845082,333.086254 L141.403884,326 Z" id="Path" fill="#4C6AC4"></path>
                <path d="M146.68737,318 C148.027199,317.985561 149.1717,318.980877 149.367177,320.330654 C150.351936,324.09225 153.189641,327.060022 156.856151,328.162889 C160.998987,329.106888 164.605862,325.493144 166.431028,326.378143 C168.256194,327.263141 174.05037,340.759366 172.833593,344.697608 C171.616816,348.635851 165.286678,348.84235 159.535957,346.423355 C153.785237,344.00436 143.051525,333.767879 142.153427,329.593637 C141.25533,325.419395 144.500069,319.239156 146.68737,318 Z" id="Path" fill="#FFFFFF"></path>
                <path d="M179.114216,164.126039 C179.511467,164.195624 179.902192,164.298603 180.282266,164.433889 C189.50986,167.952176 200.620936,183.63787 206.899204,191.084911 C215.060619,200.516129 221.85379,211.057918 227.077267,222.397662 C237.67732,246.160757 238.655562,275.685046 223.762925,297 L212.316036,294.595837 C211.316422,294.484751 210.37423,294.07056 209.61492,293.408416 C208.825604,292.246616 208.545858,290.810445 208.841087,289.435684 C209.445836,281.225339 209.068395,272.971813 207.716839,264.851655 C206.961442,259.286307 205.262702,253.891871 202.694224,248.902089 C199.102471,242.407918 193.437428,237.3797 187.918392,232.454099 C170.397643,216.87102 154.687371,200.760199 146,178.726929 C153.840535,174.856813 170.660454,162.630767 179.114216,164.126039 Z" id="Path" fill="#473F47"></path>
                <path d="M152.937195,175.826139 C153.318924,175.977639 153.680597,176.175185 154.01413,176.414363 C162.260802,182.002494 169.504301,199.943337 173.930063,208.649057 C179.72645,219.773476 183.927654,231.653867 186.410715,243.942518 C191.234796,269.603805 185.289522,298.632676 165.653887,316 L154.958293,310.955976 C154.00622,310.61233 153.179042,309.99264 152.583134,309.176598 C152.082343,307.85154 152.146292,306.380067 152.760164,305.103144 C155.283108,297.235327 156.848266,289.09376 157.421968,280.853595 C157.987379,275.248207 157.58319,269.587663 156.227012,264.118613 C154.235419,256.956981 149.839161,250.721803 145.575676,244.60427 C132.077099,225.310512 120.36358,205.884403 117,182.355429 C125.600733,180.414289 145.000327,172.443849 152.937195,175.826139 Z" id="Path" fill="#473F47"></path>
                <path d="M200.45604,119.842481 C200.463283,119.905593 200.463283,119.969326 200.45604,120.032438 C200.587516,122.472647 201.39098,124.620616 200.762817,127.104662 C200.090829,129.866336 197.519744,132.364994 194.714923,131.955857 C192.377573,131.61978 190.785253,129.515647 188.988415,127.981384 C187.10792,126.475307 185.022253,125.245248 182.794436,124.328375 C179.872748,122.969456 176.86341,121.698209 173.854071,120.529247 C171.925757,119.769421 168.24443,119.301836 167.426357,117.329211 C166.608285,115.356587 166.871237,112.244224 166.637502,110.154703 L163,77 L196.847755,104.762863 C198.236009,107.798777 199.317535,110.965835 200.076221,114.216848 C200.399496,116.073573 200.526801,117.959139 200.45604,119.842481 Z" id="Path" fill="#FFFFFF"></path>
                <path d="M174.979725,124.157253 C175.184468,126.121809 175.637829,128.071705 175.871822,130.0216 C177.100284,140.855983 175.76945,152.335444 180.156814,162.612714 C181.151283,164.899809 182.438243,167.333514 181.853262,169.767218 C181.138672,171.829765 179.698381,173.560323 177.802262,174.634627 C168.85204,180.909479 157.986002,183.709705 147.397831,186.363323 C139.427453,188.386523 128.210426,192.066401 120.254673,188.51847 C116.861778,187.052383 115.399323,183.651062 114.009992,180.308383 C109.622628,169.664592 107.311949,157.935896 105.235264,146.588383 C104.972022,145.122296 104.694156,143.656209 104.445538,142.116818 C102.719842,131.883531 101.369509,121.562279 100.394539,111.153061 C99.7218099,103.588052 99.4146945,95.3779654 103.714311,89.1617567 C109.417884,80.8637044 121.497759,74.500887 130.901342,71.5687131 C133.942404,70.5873072 137.110711,70.0587678 140.304926,70 C144.855962,70.2132059 149.337135,71.2048843 153.554765,72.9321739 C158.570984,74.7647826 163.031471,76.2895131 165.883257,80.7464175 C169.044954,85.9238886 171.466952,91.5201653 173.078534,97.3718437 C174.596103,102.851567 175.349112,108.51563 175.316089,114.202522 C175.316089,116.988087 174.935851,119.802974 174.950476,122.573879 C174.904286,123.10122 174.91409,123.631987 174.979725,124.157253 L174.979725,124.157253 Z" id="Path" fill="#FFFFFF"></path>
                <path d="M137.386724,190.590437 C134.352075,191.866011 126.823812,189.769377 124.387339,189.608098 C122.928373,189.520127 121.469407,188.933656 120.010441,188.757715 C112.715613,187.746052 109.608016,167.659419 108.338715,162.366518 C104.924735,148.217905 100.4603,133.673423 98.6803619,119.304883 C98.0092377,113.74807 97.527779,108.073962 98.7678999,102.634444 C100.008021,97.1949247 103.144797,91.946009 108.178229,89.4388453 C116.932024,85.1282832 122.840835,113.850702 124.75208,119.715412 C127.144784,127.0463 129.552078,134.377188 131.930192,141.708076 C132.980647,144.992314 133.316209,148.643096 135.110737,151.64876 C137.839003,156.208572 140.144169,155.343528 144.710732,154.581115 C154.296137,152.909673 163.254187,148.819037 172.693695,146.5318 C173.478108,146.237029 174.348632,146.279445 175.100989,146.649095 C175.609584,147.069493 175.955469,147.655736 176.078496,148.305875 C176.634482,150.157347 176.938759,152.075876 176.983055,154.009306 C177.038253,154.5628 176.958121,155.121468 176.74962,155.636763 C176.420163,156.163026 175.963399,156.596827 175.421961,156.897676 C169.042015,161.13896 162.035251,164.340496 154.660878,166.383845 C148.825015,168.025964 143.295535,170.782378 139.356328,175.679411 C135.811041,180.077944 140.421373,184.711065 138.495538,189.476142 C138.292398,189.983849 137.891934,190.386293 137.386724,190.590437 L137.386724,190.590437 Z" id="Path" fill="#020202" opacity="0.1"></path>
                <polygon id="Path" fill="#4C6AC4" points="131 167.943579 187.535059 149 229 172.5 171.30003 196"></polygon>
                <polygon id="Path" fill="url(#linearGradient-4)" points="131 167.943579 187.535059 149 229 172.5 171.30003 196"></polygon>
                <polygon id="Path" fill="#4C6AC4" points="133 164.943579 189.535059 146 231 169.5 173.30003 193"></polygon>
                <polygon id="Path" fill="url(#linearGradient-5)" points="176.452148 190 223 169.461128 200.283709 157 154 174.50422"></polygon>
                <polygon id="Path" fill="#4C6AC4" points="174 193 229.350057 193 277 163 231.282405 169.260483"></polygon>
                <path d="M154.807281,56.5884386 C154.227162,58.6440714 153.602419,60.6997043 152.933051,62.7407581 C151.445568,67.4060241 148.4706,71.6630793 143.294156,72.785659 C142.150112,73.0014561 140.991956,73.1378651 139.828319,73.1938697 C139.605197,73.1938697 139.352324,73.1938697 139.054828,73.1938697 C139.021961,73.2095422 138.98357,73.2095422 138.950704,73.1938697 L138.81683,73.1938697 C138.235974,73.167097 137.654313,73.226072 137.091349,73.3688172 C136.934014,73.3768265 136.780956,73.4218305 136.645104,73.5000278 C135.15762,74.1706598 135.276619,76.5324507 135.380743,77.8737147 C135.747083,79.38277 135.568355,80.9696305 134.874998,82.3640332 C134.874998,82.3640332 134.874998,82.4515069 134.785749,82.5098228 C133.952782,83.4003335 132.789783,83.9256172 131.557909,83.9677184 C128.993273,84.1708527 126.445872,83.4098455 124.432862,81.8391908 C123.280934,80.7908946 122.355304,79.5267375 121.710767,78.1215569 C121.509078,77.7222169 121.339968,77.3078515 121.205022,76.8823457 C121.036268,76.1609467 120.971182,75.4199764 121.011649,74.6809233 C121.038811,73.5473077 121.148169,72.4170191 121.338896,71.2986054 C121.887565,69.0913581 122.319511,66.8578005 122.633007,64.6068645 C122.65257,63.4664571 122.732007,62.3277922 122.871004,61.1953888 C123.061339,60.4718454 123.200502,59.7362905 123.287499,58.9939664 C123.287499,56.8508598 122.171887,54.780648 122.157012,52.6083836 C122.137238,50.460201 122.341589,48.3156647 122.76688,46.2082218 C123.560507,42.0279815 125.417711,38.1116605 128.166446,34.822057 C133.268516,28.9904745 142.312417,26.0746833 149.42259,29.3986853 C152.975577,31.0602179 155.732397,34.0078353 157.112881,37.6212166 C159.492855,43.7589571 156.517887,50.5964876 154.807281,56.5884386 Z" id="Path" fill="#B2857F"></path>
                <path d="M147.171718,162.441457 C148.420736,162.292764 149.684623,162.15894 150.933641,162.054854 C151.678584,161.950149 152.436951,161.995651 153.16403,162.188678 C153.89198,162.379159 154.460476,162.947658 154.650956,163.675612 C154.643126,163.947478 154.699145,164.217393 154.814518,164.463688 C155.00486,164.683983 155.269381,164.826825 155.557981,164.86516 C160.018759,166.024968 164.62823,167.839028 167.289828,171.511755 C167.934392,172.218854 168.160225,173.212525 167.884598,174.128759 C167.274958,175.377784 165.490647,175.199352 164.152414,174.827618 C164.545516,175.39027 164.545516,176.138504 164.152414,176.701155 C163.745507,177.248864 163.094506,177.560456 162.41271,177.533839 C161.970366,177.452219 161.516821,177.452219 161.074477,177.533839 C160.771189,177.674953 160.490562,177.860368 160.241798,178.084004 C158.97602,178.920097 157.422411,179.19964 155.944582,178.85721 C154.457656,178.63417 152.97073,178.128612 151.483803,178.009657 C149.179068,177.831225 147.112241,178.589562 144.971067,177.652793 C142.610275,176.484118 140.112723,175.614965 137.536437,175.065528 C136.717,174.933898 135.961342,174.543039 135.380394,173.950327 C134.873202,172.929342 134.873202,171.729796 135.380394,170.708811 C135.765311,168.884543 136.459295,167.139515 137.432352,165.549149 C138.696239,163.764828 140.807674,163.452572 142.874502,163.095708 C144.391166,162.842929 145.744269,162.649628 147.171718,162.441457 Z" id="Path" fill="#B2857F"></path>
                <path d="M104.030691,89.0591366 C93.2892949,106.882261 82.6794263,127.531896 79.6250701,148.298692 C78.8212922,153.761326 78.3828679,160.205184 80.9403431,165.33098 C85.1199883,173.678704 99.3395505,175.304314 107.523471,176.139086 C117.323472,177.134769 127.191739,177.267083 137.014814,176.534505 C137.45123,176.617256 137.900061,176.476212 138.21118,176.158551 C138.5223,175.84089 138.654632,175.388549 138.563913,174.952831 L138.973109,165.477431 C139.040849,165.035098 138.979964,164.582573 138.79774,164.174014 C138.278385,163.568651 137.502137,163.247701 136.707917,163.309951 C130.983899,162.850457 125.359566,161.542569 120.018564,159.428992 C114.947456,157.407964 105.039067,152.106426 105.75516,145.428246 C106.149742,141.679093 110.256316,137.109812 112.287682,134.151495 C117.168806,127.048607 122.429898,120.165395 127.807903,113.428635 C127.807903,113.428635 128.334012,75.1023266 104.030691,89.0591366 Z" id="Path" fill="#FFFFFF"></path>
                <path d="M152.810962,48.5265455 C154.285898,48.1837594 155.544888,47.2247486 156.271231,45.8907549 C156.872379,47.5841399 159.716838,47.0687619 160.435284,45.4048271 C161.153729,43.7408922 160.435284,41.8560811 159.790149,40.1921463 C161.15843,39.8686349 162.271832,38.8736606 162.750792,37.5464142 C163.229752,36.2191678 163.009612,34.7388218 162.165418,33.6100325 C161.681567,33.0652042 161.007108,32.5940015 160.875148,31.8577471 C160.843796,31.2966155 160.928669,30.7350521 161.124405,30.2085374 C161.310653,28.4489107 160.54415,26.7238996 159.11569,25.6879357 C157.674259,24.6894114 156.064821,23.9610581 154.365151,23.538073 C155.309289,21.9960628 154.963719,19.9894664 153.558732,18.8554954 C152.168328,17.7893724 150.483035,17.1823266 148.734882,17.1179351 C146.198329,16.8381585 143.397857,16.9559592 141.403804,18.5904438 C138.602458,16.844418 134.978105,17.232675 132.606509,19.5328494 C132.196963,20.1031307 131.624151,20.534584 130.964348,20.7697567 C130.492739,20.8039651 130.019887,20.7231343 129.586105,20.5341553 C127.73738,19.7401395 125.691917,19.5295797 123.721242,19.9304267 C121.679307,20.4193455 120.348632,22.3951509 120.656851,24.4804786 C119.165733,24.6603445 117.94341,25.7528224 117.59246,27.2193448 C117.559105,27.6684977 117.418269,28.1029241 117.18192,28.4857022 C116.756717,28.9863552 116.008947,28.956905 115.378474,29.0158054 C112.884287,29.2339955 110.977168,31.3427829 111,33.8570539 C111.023245,36.371325 112.968684,38.4445072 115.466447,38.616562 C115.186244,39.8125839 115.414692,41.0717716 116.09692,42.0916825 C116.874014,43.3433149 117.915028,43.4316654 118.941379,44.212095 C119.542527,44.6832978 119.307933,44.7274731 119.278608,45.6846037 C119.249051,46.5653613 119.293192,47.4470561 119.410568,48.3203943 C119.610616,50.0025951 120.029622,51.6511555 120.656851,53.2238482 C121.096716,54.3576799 121.653878,55.4473363 122.049756,56.5958931 C122.595134,58.3550928 122.958717,60.166009 123.134756,62 L125.61266,54.9614085 C125.640357,54.8652117 125.640357,54.7631035 125.61266,54.6669067 C125.563007,54.5362423 125.469723,54.4269438 125.348741,54.3576799 C123.122744,52.6155757 122.403049,49.5529336 123.618607,46.9951365 C123.953681,46.2031898 124.67656,45.6447424 125.524687,45.5226278 C126.521714,45.5226278 127.284146,46.3914079 127.767997,47.260188 C128.282869,48.1857227 128.672413,49.1761423 128.926308,50.2052054 C129.597131,48.593874 130.523026,47.1021057 131.668131,45.7876793 C132.151982,45.2428511 132.738469,44.3151706 133.515563,44.5949473 C134.292657,44.8747239 134.659211,46.2883323 134.981779,46.8037103 C136.136893,46.3524424 137.18922,45.6712548 138.075494,44.8010985 C137.866905,46.8877475 138.885865,48.9056688 140.685358,49.969604 C142.53279,50.8383841 145.215964,49.6014768 145.215964,47.5399647 C145.215964,48.4676451 149.218733,46.9067859 149.511976,46.7300849 C150.144699,47.9477866 151.449618,48.6583799 152.810962,48.5265455 Z" id="Path" fill="#FE9F24"></path>
                <path d="M133.393618,73.9654051 C134.588921,74.1176753 135.795852,74.1658973 137,74.1094954 C136.843022,74.1174113 136.690311,74.1618908 136.554768,74.2391766 C135.07066,74.901992 135.189388,77.236255 135.293276,78.5618858 C135.658785,80.0533523 135.480462,81.6217171 134.788679,82.9998673 C134.326518,83.0032988 133.866387,82.9401731 133.4233,82.8125499 C132.969413,82.6570053 132.551036,82.4172018 132.19149,82.1065074 C129.438154,79.9058876 128.334552,76.3039122 129.401367,73 C130.686172,73.4799443 132.027046,73.804194 133.393618,73.9654051 Z" id="Path" fill="#96625E"></path>
                <path d="M191.678695,101 C191.678695,101 218.333757,120.911771 214.650671,140.794064 C211.229623,159.290935 208.157958,174 208.157958,174 L195.682049,166.630729 C195.682049,166.630729 204.023585,138.760145 186.612632,126.645064 C169.201679,114.529982 191.678695,101 191.678695,101 Z" id="Path" fill="#FFFFFF"></path>
                <path d="M193.363746,165.560757 L192.181526,171.952066 C191.973381,172.761744 191.943806,173.610089 192.095022,174.433398 C192.259693,175.279131 192.95529,175.899269 193.781848,175.937235 C194.646887,175.937235 195.382171,174.944703 196.24721,175.125163 C196.556153,175.221095 196.848247,175.368356 197.112249,175.561276 C198.957665,176.613962 201.192349,175.561276 203.138687,174.613858 C203.449488,174.431562 203.809755,174.362756 204.162316,174.41836 C204.580418,174.538667 204.83993,174.974779 205.200363,175.24547 C205.937859,175.708297 206.87266,175.648477 207.550386,175.095086 C208.203595,174.528825 208.701093,173.791946 208.992117,172.959637 C210.569125,169.345862 210.281418,165.144451 208.228,161.801163 C205.974855,158.895374 202.383111,157.500536 198.856744,158.161876 C195.108242,158.77845 194.04136,161.846278 193.363746,165.560757 Z" id="Path" fill="#B2857F"></path>
                <polygon id="Path" fill="#4C6AC4" points="171 196 226.350057 196 274 166 228.282405 172.260483"></polygon>
                <polygon id="Path" fill="url(#linearGradient-6)" points="173.326479 193 171 196 226.673521 196 229 193"></polygon>
                <polygon id="Path" fill="#4C6AC4" points="277 163 274.685321 166.057744 227 196 229.314679 192.942256"></polygon>
                <polygon id="Path" fill="url(#linearGradient-7)" points="277 163 274.685321 166.057744 227 196 229.314679 192.942256"></polygon>
                <polygon id="Path" fill="#FFFFFF" points="231.943617 171.293255 270 166 230.310106 190.252199 187 191"></polygon>
                <polygon id="Path" fill="url(#linearGradient-8)" points="166.782609 168 188 159.796034 177.768116 152 156 159.796034"></polygon>
                <path d="M120.613885,249.289392 L35.4178025,288.318722 C31.6430386,290.044464 27.1884644,288.37892 25.4594378,284.595336 L3.66543211,236.676973 C3.24845132,235.787423 3.02354307,234.81948 3.00545212,233.836603 C2.88958775,230.781034 4.62898616,227.959281 7.40531869,226.698886 L92.6014016,187.669557 C94.6457603,186.74689 96.9921969,186.779218 99.0105406,187.757858 C100.579373,188.517836 101.834645,189.803475 102.559766,191.392943 L124.32444,239.326023 C125.149251,241.140974 125.221683,243.210399 124.5258,245.078946 C123.829916,246.947493 122.422734,248.462062 120.613885,249.289392 L120.613885,249.289392 Z" id="Path" fill="#4C6AC4"></path>
                <path d="M120.613885,249.289392 L35.4178025,288.318722 C31.6430386,290.044464 27.1884644,288.37892 25.4594378,284.595336 L3.66543211,236.676973 C3.24845132,235.787423 3.02354307,234.81948 3.00545212,233.836603 C2.88958775,230.781034 4.62898616,227.959281 7.40531869,226.698886 L92.6014016,187.669557 C94.6457603,186.74689 96.9921969,186.779218 99.0105406,187.757858 C100.579373,188.517836 101.834645,189.803475 102.559766,191.392943 L124.32444,239.326023 C125.149251,241.140974 125.221683,243.210399 124.5258,245.078946 C123.829916,246.947493 122.422734,248.462062 120.613885,249.289392 L120.613885,249.289392 Z" id="Path" fill="url(#linearGradient-9)"></path>
                <path d="M124.602683,248.28736 L39.424952,287.318687 C35.6510011,289.044518 31.1973865,287.378888 29.4687324,283.59511 L7.67942112,235.689013 C7.2678045,234.796905 7.03845628,233.831054 7.00492024,232.848498 C6.89511467,229.790708 8.63128844,226.967627 11.4038391,225.695698 L96.5815705,186.679089 C100.35187,184.960057 104.797735,186.616216 106.53779,190.387948 L128.327101,238.32348 C129.150792,240.140346 129.221086,242.211358 128.522498,244.080279 C127.823911,245.949199 126.413755,247.462699 124.602683,248.28736 Z" id="Path" fill="#4C6AC4"></path>
                <path d="M103,186.748805 L76.3901175,245 L7.00492229,232.611737 C6.89507095,229.569396 8.63196838,226.760578 11.4056746,225.495075 L96.6189091,186.675589 C98.6506544,185.749839 100.990108,185.776682 103,186.748805 Z" id="Path" fill="url(#linearGradient-10)"></path>
                <polygon id="Path" fill="url(#linearGradient-11)" points="51.9584325 240.304031 45 284 125 247.691112 86.3111152 224 76.803699 244.733366"></polygon>
                <path d="M307.558572,154.913542 L252.615439,143.974481 C251.44773,143.742729 250.419439,143.052198 249.757377,142.055197 C249.095315,141.058197 248.853874,139.836637 249.086309,138.659958 L255.163441,107.658571 C255.269944,107.07734 255.494277,106.524518 255.822407,106.034689 C256.823944,104.500043 258.647583,103.729648 260.43517,104.08603 L315.378304,115.025091 C316.696024,115.274772 317.828502,116.117433 318.453479,117.313289 C318.948705,118.238247 319.114115,119.306504 318.922077,120.339614 L312.830301,151.341001 C312.603779,152.520908 311.920214,153.561183 310.930849,154.231654 C309.941485,154.902126 308.727886,155.14752 307.558572,154.913542 Z" id="Path" fill="#4C6AC4"></path>
                <path d="M318,118.106604 L284.494382,137 L255,107.003101 C256.008616,105.49228 257.845144,104.733845 259.645365,105.084695 L314.976826,115.85393 C316.276419,116.119879 317.386187,116.946806 318,118.106604 L318,118.106604 Z" id="Path" fill="url(#linearGradient-12)"></path>
                <polygon id="Path" fill="url(#linearGradient-13)" points="273.862167 126 255 144.842714 307 155 296.440726 130.022111 284.465683 136.798492"></polygon>
            </g>
        </g>
    </g>
</svg>