<?xml version="1.0" encoding="UTF-8"?>
<svg width="32px" height="28px" viewBox="0 0 32 28" version="1.1" xmlns="http://www.w3.org/2000/svg" xmlns:xlink="http://www.w3.org/1999/xlink">
    <title>suitcase</title>
    <defs>
        <linearGradient x1="51.0261453%" y1="16.5758919%" x2="49.2851423%" y2="73.827866%" id="linearGradient-1">
            <stop stop-color="#4DBBED" offset="8.073434e-06%"></stop>
            <stop stop-color="#5870E0" offset="100%"></stop>
        </linearGradient>
        <linearGradient x1="50.6454599%" y1="36.7165734%" x2="45.4244874%" y2="180.316976%" id="linearGradient-2">
            <stop stop-color="#4DBBED" offset="8.073434e-06%"></stop>
            <stop stop-color="#5870E0" offset="100%"></stop>
        </linearGradient>
        <linearGradient x1="50.6641536%" y1="40.7335274%" x2="48.9213128%" y2="60.0772283%" id="linearGradient-3">
            <stop stop-color="#4DBBED" offset="8.073434e-06%"></stop>
            <stop stop-color="#5870E0" offset="100%"></stop>
        </linearGradient>
    </defs>
    <g id="Page-1" stroke="none" stroke-width="1" fill="none" fill-rule="evenodd">
        <g id="workers-desktop" transform="translate(-747.000000, -1425.000000)" fill-rule="nonzero">
            <g id="suitcase" transform="translate(747.000000, 1425.727049)">
                <path d="M28.7782426,26.2729508 L4.22777487,26.2729508 C2.42312776,26.2729508 1,24.8532045 1,23.0390843 L1,7.50681734 C1,5.6926971 2.42312776,4.27295082 4.22777487,4.27295082 L28.7721867,4.27295082 C30.5828897,4.27295082 31.9999809,5.69876439 31.9999809,7.50681734 L31.9999809,23.0390843 C32.0060175,24.8532045 30.5828897,26.2729508 28.7782426,26.2729508 Z M4.22777487,5.56528397 C3.19222233,5.56528397 2.28989877,6.46931044 2.28989877,7.50681734 L2.28989877,23.0390843 C2.28989877,24.0765912 3.19222233,24.9806177 4.22777487,24.9806177 L28.7721867,24.9806177 C29.8077393,24.9806177 30.7100628,24.0765912 30.7100628,23.0390843 L30.7100628,7.50681734 C30.7100628,6.46931044 29.8077393,5.56528397 28.7721867,5.56528397 L4.22777487,5.56528397 Z" id="Shape" fill="url(#linearGradient-1)"></path>
                <path d="M21.3169303,6.26592506 C20.9045108,6.26592506 20.6274165,5.96381733 20.6274165,5.51416862 L20.6274165,2.52119438 C20.6274165,2.07154567 20.3503222,1.76943794 19.9379028,1.76943794 L13.0685413,1.76943794 C12.6561219,1.76943794 12.3790275,2.07154567 12.3790275,2.52119438 L12.3790275,5.52119438 C12.3790275,5.97084309 12.1019332,6.27295082 11.6895138,6.27295082 C11.2770943,6.27295082 11,5.97084309 11,5.52119438 L11,2.52119438 C11,1.31978923 11.960164,0.27295082 13.0620972,0.27295082 L19.9379028,0.27295082 C21.039836,0.27295082 22,1.31978923 22,2.52119438 L22,5.52119438 C22,5.96381733 21.7293497,6.26592506 21.3169303,6.26592506 Z" id="Path" fill="url(#linearGradient-2)"></path>
                <g id="Group" transform="translate(1.000000, 8.272951)" fill="url(#linearGradient-3)">
                    <path d="M15.5,6.95462963 L0.472265625,1.45833333 C0.454101562,1.45185185 0.4359375,1.44537037 0.417773437,1.43240741 C0.175585937,1.28333333 -0.0544921875,0.907407407 0.0423828125,0.518518519 C0.0484375,0.492592593 0.060546875,0.466666667 0.07265625,0.447222222 C0.21796875,0.181481481 0.587304687,-0.0648148148 0.962695312,0.0648148148 L15.4515625,5.46388889 C15.5242187,5.48981481 15.596875,5.48981481 15.6695312,5.46388889 L30.1583984,0.0648148148 C30.5458984,-0.0712962963 30.80625,0.0648148148 30.9333984,0.47962963 C31.0605469,0.894444444 30.9333984,1.17314815 30.5458984,1.30925926" id="Path"></path>
                </g>
            </g>
        </g>
    </g>
</svg>