<?xml version="1.0" encoding="UTF-8"?>
<svg width="350px" height="349px" viewBox="0 0 350 349" version="1.1" xmlns="http://www.w3.org/2000/svg" xmlns:xlink="http://www.w3.org/1999/xlink">
    <title>Thinking_Monochromatic</title>
    <defs>
        <linearGradient x1="50.9054603%" y1="38.5074437%" x2="49.0669972%" y2="61.8190409%" id="linearGradient-1">
            <stop stop-color="#000000" offset="1%"></stop>
            <stop stop-color="#000000" stop-opacity="0.69" offset="13%"></stop>
            <stop stop-color="#000000" stop-opacity="0" offset="100%"></stop>
        </linearGradient>
        <linearGradient x1="42.2724201%" y1="41.4653134%" x2="96.8377869%" y2="57.3694696%" id="linearGradient-2">
            <stop stop-color="#000000" offset="1%"></stop>
            <stop stop-color="#000000" stop-opacity="0.69" offset="13%"></stop>
            <stop stop-color="#000000" stop-opacity="0" offset="100%"></stop>
        </linearGradient>
        <linearGradient x1="46.1132544%" y1="21.7695324%" x2="79.7698045%" y2="113.209225%" id="linearGradient-3">
            <stop stop-color="#000000" offset="1%"></stop>
            <stop stop-color="#000000" stop-opacity="0.69" offset="13%"></stop>
            <stop stop-color="#000000" stop-opacity="0" offset="100%"></stop>
        </linearGradient>
        <linearGradient x1="24.6636627%" y1="71.4385649%" x2="67.3729188%" y2="40.288157%" id="linearGradient-4">
            <stop stop-color="#000000" offset="1%"></stop>
            <stop stop-color="#000000" stop-opacity="0.69" offset="13%"></stop>
            <stop stop-color="#000000" stop-opacity="0" offset="100%"></stop>
        </linearGradient>
        <linearGradient x1="80.734717%" y1="60.7073771%" x2="27.3454263%" y2="43.893759%" id="linearGradient-5">
            <stop stop-color="#000000" offset="1%"></stop>
            <stop stop-color="#000000" stop-opacity="0.69" offset="13%"></stop>
            <stop stop-color="#000000" stop-opacity="0" offset="100%"></stop>
        </linearGradient>
        <linearGradient x1="11.4285195%" y1="94.283547%" x2="72.7701492%" y2="27.1592678%" id="linearGradient-6">
            <stop stop-color="#000000" offset="1%"></stop>
            <stop stop-color="#000000" stop-opacity="0.69" offset="13%"></stop>
            <stop stop-color="#000000" stop-opacity="0" offset="100%"></stop>
        </linearGradient>
    </defs>
    <g id="Page-1" stroke="none" stroke-width="1" fill="none" fill-rule="evenodd">
        <g id="Home-desktop" transform="translate(-511.000000, -1586.000000)" fill-rule="nonzero">
            <g id="Thinking_Monochromatic" transform="translate(511.000000, 1586.435007)">
                <path d="M58.6860129,26.2715382 C32.3593045,48.1734084 16.7800986,81.8463688 15.2754482,115.994646 C14.3969567,136.107087 18.0791446,156.256808 16.4810377,176.322649 C13.4810826,213.602428 -7.59336805,250.574649 2.91114748,286.447116 C13.7053783,323.307498 54.7234554,343.615658 93.1154037,346.65396 C131.507352,349.692262 169.703041,340.036799 208.179101,338.601527 C229.132058,337.809332 250.187817,339.468282 271.037972,337.268775 C291.888127,335.069268 313.149491,328.526667 328.121229,313.894354 C343.092967,299.26204 350.074171,278.171005 350,257.443448 C349.924641,236.715891 343.233152,216.435691 333.70993,198.04744 C323.691389,178.661955 310.345794,160.478743 305.672967,139.164029 C299.131009,109.144487 309.841129,73.8125765 290.71992,49.6925594 C278.86963,34.7806478 259.010115,29.2539205 240.505719,24.5846282 C209.739825,16.8397541 178.263661,5.90745888 146.750114,1.77872335 C130.942222,-0.450014964 114.843139,0.600209743 99.461103,4.86362506 C93.5826864,6.51325529 58.6860129,18.368225 58.6860129,26.2715382 Z" id="Path" fill="#4D6DC2" opacity="0.18"></path>
                <ellipse id="Oval" fill="url(#linearGradient-1)" cx="174.433657" cy="282.112451" rx="135.92233" ry="28.8834951"></ellipse>
                <path d="M233.946725,283.821059 C234.207376,284.734209 234.692126,285.563374 235.354538,286.229127 C235.991983,286.72691 236.744566,287.046074 237.538454,287.155307 C240.245788,287.636921 243.855567,284.793548 243.503613,283.26535 C243.15166,281.737153 243.666053,276.383832 243.39532,274.837112 C243.33336,274.144494 243.156331,273.467872 242.871902,272.836563 C242.059702,271.400983 240.119446,271.243533 238.513094,271.400983 C236.374301,271.623267 233.04428,272.327164 232.385495,274.753755 C231.699638,277.365583 233.080378,281.394467 233.946725,283.821059 Z" id="Path" fill="#F5BBB9"></path>
                <path d="M145.111536,130.252132 C141.977763,132.527286 141.020743,136.88494 141.89332,140.609587 C142.765898,144.334235 145.130301,147.545138 147.62606,150.48082 C154.041405,158.040829 161.641745,164.558794 170.144186,169.792108 C173.240428,171.691128 176.561851,173.461711 180.202282,173.856194 C184.293075,174.296546 188.35572,172.938793 192.249479,171.67278 C194.075915,171.174559 195.797635,170.363894 197.334822,169.278364 C198.859505,167.939376 200.033837,166.262645 200.759454,164.388617 C202.696338,159.855413 203.746571,155.007249 203.855696,150.095512 C204.099643,143.627836 202.720408,143.526922 200.4123,137.462902 C198.68591,132.875898 195.880527,127.536625 191.086043,128.830161 C178.250711,132.279588 181.994349,145.710336 182.003732,151.811052 C177.772201,146.939653 169.909622,139.939885 164.993164,135.729015 C160.939902,132.21537 150.534651,126.325656 145.111536,130.252132 Z" id="Path" fill="#4D6DC2"></path>
                <path d="M145.111536,130.252132 C141.977763,132.527286 141.020743,136.88494 141.89332,140.609587 C142.765898,144.334235 145.130301,147.545138 147.62606,150.48082 C154.041405,158.040829 161.641745,164.558794 170.144186,169.792108 C173.240428,171.691128 176.561851,173.461711 180.202282,173.856194 C184.293075,174.296546 188.35572,172.938793 192.249479,171.67278 C194.075915,171.174559 195.797635,170.363894 197.334822,169.278364 C198.859505,167.939376 200.033837,166.262645 200.759454,164.388617 C202.696338,159.855413 203.746571,155.007249 203.855696,150.095512 C204.099643,143.627836 202.720408,143.526922 200.4123,137.462902 C198.68591,132.875898 195.880527,127.536625 191.086043,128.830161 C178.250711,132.279588 181.994349,145.710336 182.003732,151.811052 C177.772201,146.939653 169.909622,139.939885 164.993164,135.729015 C160.939902,132.21537 150.534651,126.325656 145.111536,130.252132 Z" id="Path" fill="url(#linearGradient-2)"></path>
                <path d="M184.831829,108.864435 C183.611888,111.14113 184.747372,114.109129 183.574352,116.404259 C182.870099,117.620675 181.754571,118.556588 180.421274,119.049649 C178.094003,120.026693 175.44767,120.164953 173.176703,121.243388 C171.163896,122.203062 169.566409,123.837538 168.672307,125.852082 C167.79958,127.879907 167.611897,130.313298 165.979053,131.82495 C164.017763,133.668427 160.883454,133.290514 158.284042,132.571558 C156.501052,132.083037 154.605452,131.36408 153.648267,129.806342 C153.100351,128.767007 152.850575,127.600857 152.925687,126.432778 C152.925687,123.612257 153.779646,120.856258 154.333311,118.091041 C155.130965,114.118347 155.403105,110.053479 156.350905,106.108436 C157.298705,102.163394 159.016006,98.2552215 162.131547,95.6006137 C165.247088,92.9460059 172.088141,86.0974864 176.020103,86.7703557 C179.773767,87.4247903 180.618341,95.6374833 182.720393,98.7529605 C183.429212,99.9393537 184.056229,101.171102 184.597225,102.439916 C185.920392,105.168263 186.267605,106.20061 184.831829,108.864435 Z" id="Path" fill="#F5BBB9"></path>
                <path d="M178.674782,87.7128479 C177.897617,90.1944099 175.423959,91.7057371 173.168287,93.049139 C170.912614,94.3925409 168.476866,96.0064891 167.879776,98.5346969 C167.500672,100.083341 167.879776,101.837227 166.932015,103.199287 C166.626784,102.506866 166.196485,101.874687 165.662014,101.333451 C165.10307,100.792667 164.286909,100.598995 163.539028,100.829675 C162.765198,101.236925 162.299935,102.04747 162.344848,102.910082 C162.3658,104.790004 163.743346,106.388953 165.624104,106.716388 C164.531703,108.272359 163.824152,110.058259 163.557983,111.9314 C163.283132,113.871869 163.425297,116.02691 162.174251,117.528908 C160.787782,119.096297 158.397715,119.321724 156.734099,118.042013 C156.452418,118.676749 155.979273,119.210879 155.3788,119.571998 C153.777083,118.75103 153.814993,116.558673 153.483277,114.814116 C152.696635,110.149526 148.242155,106.893642 146.763647,102.396978 C146.117167,99.962826 145.953058,97.4288867 146.280288,94.9336334 C146.327087,92.5538559 146.811973,90.2021625 147.711408,87.9927233 C149.308038,84.9654928 151.954475,82.6021358 155.170293,81.3316887 C158.072948,80.1743409 161.104868,79.3601196 164.202461,78.9061019 C166.748346,78.3023306 169.336693,77.8875711 171.945674,77.6653209 C176.760303,77.516054 179.973215,83.570692 178.674782,87.7128479 Z" id="Path" fill="#FE9F24"></path>
                <path d="M222.005554,191.049373 C222.926531,191.039192 223.842555,191.188348 224.714839,191.490525 C225.506489,191.856673 226.223203,192.372604 226.827162,193.011094 C233.84375,199.73163 235.965257,210.084635 237.728588,219.743059 C240.695025,235.943681 243.661462,252.219393 244.065559,268.692216 C244.148215,271.939849 245.433977,274.89651 243.946166,277.759308 C242.458356,280.622106 235.634633,280.903693 232.63146,279.852436 C229.628287,278.801179 230.372192,277.571583 229.159902,274.539833 C226.689402,268.401243 223.199476,262.769509 219.737102,257.137774 L207.081529,236.647648 C205.061046,233.381242 202.957907,230.020974 199.862894,227.787053 C195.50967,224.652054 189.907421,224.229674 184.672532,223.24412 C179.437644,222.258567 173.771106,220.165439 171.364895,215.312761 C167.057591,206.592959 172.770049,194.728773 181.935696,193.621198 C195.307622,191.978609 208.505052,190.495586 222.005554,191.049373 Z" id="Path" fill="#2E2E3F"></path>
                <path d="M222.287889,191.049133 C223.213856,191.038973 224.134844,191.187826 225.011854,191.48939 C225.807795,191.854794 226.528392,192.369678 227.135624,193.006872 C234.190233,199.713767 236.323237,210.045758 238.096123,219.684579 C241.078634,235.852318 244.061146,252.094995 244.467432,268.534382 C244.550536,271.775423 245.159966,274.585575 243.664093,277.45193 C242.168221,280.318284 237.505161,280.992721 234.47648,279.952965 C231.4478,278.913209 230.699864,277.395727 229.481005,274.332661 C226.997117,268.243999 223.48828,262.623696 220.007145,257.003393 L207.282994,236.554856 C205.251562,233.29508 203.137026,229.941632 200.025241,227.712245 C195.648429,224.58361 190.015822,224.162087 184.752566,223.178534 C179.489311,222.194981 173.792068,220.106101 171.372817,215.263273 C167.042173,206.56117 172.785585,194.721065 182.000899,193.615738 C195.445285,191.976483 208.71423,190.49647 222.287889,191.049133 Z" id="Path" fill="url(#linearGradient-3)"></path>
                <path d="M238.7392,243.334087 C238.872408,244.419361 239.174524,245.470579 239.632021,246.440677 C240.873042,248.79295 243.533648,249.765621 245.997833,249.815247 C247.052539,249.896561 248.107439,249.659964 249.05128,249.130407 C250.145068,248.346705 250.912953,247.1109 251.185121,245.696286 C251.454427,244.297797 251.523727,242.860854 251.39047,241.438373 C251.230155,238.379849 250.890158,235.336247 250.372654,232.327033 C250.327343,231.874918 250.176533,231.443817 249.935172,231.076457 C249.354839,230.332067 248.283454,230.560347 247.435274,230.848178 C245.310361,231.562792 240.08736,232.158305 238.578493,233.994468 C236.882133,236.088686 238.7392,240.852785 238.7392,243.334087 Z" id="Path" fill="#F5BBB9"></path>
                <path d="M250.824675,246.531243 C249.694734,246.862548 248.585747,247.253736 247.503062,247.702921 C246.065648,248.169878 244.528518,248.300958 243.0249,248.084801 C241.40573,247.841787 239.425715,247.312362 238.398699,248.501398 C237.851991,249.339473 237.717109,250.357989 238.028603,251.296067 C238.39226,253.137963 238.934227,254.944912 239.647773,256.694466 C239.861761,257.325024 240.197324,257.91338 240.63778,258.430286 C241.738816,259.584606 243.589296,259.723471 245.263981,259.784225 C251.155877,260.105355 257.062678,260.105355 262.954574,259.784225 C264.721783,259.662718 266.896097,259.15933 267.284698,257.536339 C267.406598,256.631525 267.144035,255.718055 266.553758,254.993363 C264.795802,252.389634 262.020081,250.653814 259.151837,249.282517 C256.644436,248.084801 253.702172,245.949743 250.824675,246.531243 Z" id="Path" fill="#2E2E3F"></path>
                <path d="M242.061268,282.763632 C241.102894,283.039077 240.162507,283.365694 239.244819,283.741846 C238.02737,284.127512 236.726971,284.232612 235.455916,284.04807 C234.088975,283.843921 232.410115,283.401598 231.520227,284.396824 C231.05703,285.098282 230.943312,285.951098 231.208307,286.736032 C231.51932,288.273309 231.976758,289.781982 232.575248,291.244323 C232.760459,291.764321 233.046486,292.248606 233.419266,292.673366 C234.336676,293.634568 235.914621,293.753655 237.309084,293.804692 C242.298672,294.072643 247.300802,294.072643 252.29039,293.804692 C253.785768,293.702617 255.620588,293.277307 255.96003,291.92482 C256.068591,291.168367 255.847367,290.403002 255.345365,289.798267 C253.754233,287.711536 251.586742,286.060297 249.070281,285.017778 C246.98776,284.04807 244.492405,282.270272 242.061268,282.763632 Z" id="Path" fill="#2E2E3F"></path>
                <path d="M153.324714,122.720439 C146.397304,125.582994 141.412949,131.754217 137.648868,138.185672 C128.553124,153.706669 124.864137,171.644109 121.306565,189.246964 C120.5744,192.890216 119.832848,196.589232 120.133223,200.297543 C120.242584,201.865323 120.603818,203.405796 121.203311,204.860902 C123.512448,210.260722 129.651371,213.179041 135.593174,213.532213 C140.830971,213.857504 146.021835,212.602812 151.212699,211.822115 C155.57753,211.208711 159.998681,210.985654 164.269645,209.963313 C168.540609,208.940972 172.717705,206.868408 175.383538,203.392448 C178.443613,199.358848 178.988043,194.03338 179.42922,189.014614 L181.78529,161.783164 C182.489295,153.623023 183.146366,145.053945 179.907943,137.544385 C177.66203,132.444737 173.804745,128.204824 168.916078,125.462172 C164.279032,122.720439 158.440484,120.554934 153.324714,122.720439 Z" id="Path" fill="#4D6DC2"></path>
                <path d="M181.783949,161.766599 L181.305236,167.289165 C180.679468,174.534821 180.053699,181.774279 179.42793,189.007538 C179.099402,192.726438 178.723941,196.53831 177.334734,199.913211 C176.840551,201.151988 176.18413,202.321056 175.382336,203.390382 C172.744721,206.867553 168.539556,208.903651 164.268685,209.963537 C159.997814,211.023424 155.567372,211.255855 151.212022,211.822987 C146.011885,212.55747 140.83052,213.859085 135.592837,213.533681 C129.688709,213.180385 123.502986,210.261049 121.1939,204.859348 C120.601851,203.401892 120.243953,201.861572 120.133222,200.294398 C119.832853,196.575499 120.574389,192.856599 121.306538,189.239969 C124.864033,171.640277 128.552939,153.68729 137.648487,138.160884 C141.403098,131.727188 146.396732,125.553814 153.333378,122.690262 C158.449036,120.570489 164.278071,122.755343 168.93379,125.386464 C173.823212,128.12901 177.680709,132.370724 179.925417,137.472888 C183.144996,145.096632 182.487939,153.603614 181.783949,161.766599 Z" id="Path" fill="url(#linearGradient-4)"></path>
                <path d="M181.219451,158.926701 C181.121537,161.621505 181.013832,164.316309 180.915918,167.011113 C180.26316,174.43214 179.610402,181.846818 178.957644,189.255149 C178.614946,193.064059 178.223291,196.968192 176.774168,200.424778 C174.169663,202.929137 170.174784,203.757575 166.493228,204.405089 C166.086069,204.598046 165.602018,204.552525 165.24042,204.287272 C164.878821,204.022019 164.700827,203.581894 164.779738,203.148149 C164.016011,194.378133 167.14925,185.750951 167.717149,176.961891 C168.120564,170.646528 167.20461,164.317126 165.024522,158.355364 C163.800601,155.003523 156.417907,145.271758 164.760155,145.633604 C166.514555,145.833349 168.193743,146.44084 169.655841,147.404747 C173.21983,149.474128 176.508347,151.96228 179.447213,154.813078 C180.098302,155.366107 180.610724,156.056616 180.945292,156.8318 C181.169739,157.507466 181.262713,158.2179 181.219451,158.926701 Z" id="Path" fill="url(#linearGradient-5)"></path>
                <path d="M182.626507,120.545523 C182.232562,119.551075 182.28162,118.408435 182.758969,117.460298 C183.300113,116.80699 184.020579,116.371626 184.807716,116.222278 C186.017536,115.839081 187.245018,115.505012 188.48133,115.239722 C189.02768,115.075845 189.594487,115.012779 190.159183,115.053037 C191.510296,115.220071 192.525839,116.458091 193.400089,117.597856 C194.347916,118.688983 195.097529,119.973427 195.60779,121.380695 C195.930404,122.735019 196.029147,124.143299 195.899206,125.536906 L195.784406,128.710561 C195.787173,129.294917 195.70364,129.87581 195.537143,130.430033 C195.298804,131.0392 194.909879,131.560527 194.415631,131.933344 C193.50187,132.612002 192.446696,133.018008 191.351342,133.112411 C190.106198,133.259794 188.189914,133.161538 187.37748,131.894041 C186.847632,131.07852 187.015417,129.712768 186.653354,128.759689 C185.575996,125.861149 183.509587,123.532492 182.626507,120.545523 Z" id="Path" fill="#F5BBB9"></path>
                <path d="M122.778802,208.854892 L122.413837,208.854892 L122.619715,207.585913 C121.084993,220.770224 125.492639,236.576467 139.613952,240.514032 C151.77943,243.901084 163.448931,243.985061 175.17458,240.094149 C184.691727,236.949696 193.712897,230.632797 201.096406,223.886685 C207.469245,218.064314 212.391585,210.823674 218.932869,205.225241 C220.458233,207.613905 222.676093,209.256113 224.351185,211.523478 C226.438033,214.322695 226.671984,217.420494 227.80431,220.574279 C229.002141,223.933339 231.135779,226.816532 232.586278,230.054292 C235.534067,236.585798 236.788047,239.683598 244.311928,239.692928 C246.819888,239.692928 247.924139,240.140803 249.599231,238.265328 C252.331785,235.19552 251.29304,226.555272 251.115237,222.888298 C250.469531,209.937255 248.532413,196.342393 243.993754,184.147139 C241.485793,177.419688 238.378917,170.794876 233.288133,165.653648 C226.428675,158.767575 218.698917,161.529469 211.287334,165.886916 C202.256806,171.205427 194.199516,179.155203 186.694352,186.498481 C183.587476,189.530966 181.622283,192.255537 177.897775,194.74684 C173.770871,197.546056 169.746905,199.673461 165.357975,202.043464 C152.949187,208.742923 136.450927,208.854892 122.778802,208.854892 Z" id="Path" fill="#2E2E3F"></path>
                <path d="M226.464259,273.56102 C226.357524,274.817102 226.135279,276.060844 225.800305,277.276684 C223.396978,285.962047 214.924551,291.934976 206.096768,293.997169 C197.268985,296.059363 188.039089,294.926085 179.052331,293.727784 C158.974736,291.043217 45.438599,283.268191 58.8673027,150.962705 C60.4757547,135.022509 70.2854415,113.945408 85.537681,110.889275 C88.4423575,110.3152 91.4395869,110.394551 94.3093552,111.121504 C126.179148,118.952265 101.472577,175.504662 145.218731,195.485643 C158.217267,201.421415 169.064967,211.360815 182.409507,216.469852 C206.23704,225.619673 220.750514,251.935859 220.750514,251.935859 C223.873903,258.781969 227.062753,266.241164 226.464259,273.56102 Z" id="Path" fill="#4D6DC2"></path>
                <path d="M233.862879,148.243187 C236.885987,150.671958 237.763664,154.785805 237.841679,158.59841 C237.932884,159.391396 237.743878,160.190868 237.305322,160.867145 C236.98682,161.206848 236.606768,161.487587 236.183846,161.695563 C233.931143,162.975845 231.307865,164.293783 228.830866,163.512434 C226.656179,162.825224 225.2714,160.688282 223.155225,159.850451 C221.409623,159.153827 219.25444,159.351517 217.850157,158.099477 C217.259792,157.514924 216.853911,156.780284 216.679922,155.981363 C214.076148,145.823831 227.212041,142.914954 233.862879,148.243187 Z" id="Path" fill="#F5BBB9"></path>
                <path d="M189.886539,142.613545 C190.895021,143.496131 192.047855,144.202529 193.295719,144.702516 C194.644278,145.073973 196.054328,145.174543 197.442776,144.998299 C205.503384,144.36976 213.722775,141.744681 221.512517,143.898355 C222.638521,144.125526 223.66798,144.686494 224.464026,145.506677 C225.12644,146.419134 225.455793,147.527307 225.398047,148.649377 C225.398047,154.195317 220.840021,158.816934 215.814984,161.358823 C210.033389,164.261199 203.485897,165.231738 197.069167,166.165305 C192.716625,166.793845 188.317383,167.422385 183.927481,167.015683 C181.91787,166.953195 179.961186,166.363034 178.257968,165.305684 C140.289983,138.149063 153.525072,134.10977 156.102972,126.345454 C157.447963,122.287674 174.381778,130.430963 178.32335,133.527446 C182.264922,136.62393 186.019689,139.581764 189.886539,142.613545 Z" id="Path" fill="#4D6DC2"></path>
                <path d="M226.537217,273.516663 C226.430435,274.775327 226.208094,276.021626 225.872976,277.239965 C223.46861,285.943183 214.992518,291.928391 206.160918,293.994823 C197.329317,296.061256 188.095429,294.925649 179.104785,293.724884 C159.018506,291.034799 45.4332672,283.243789 58.8677786,150.66632 C60.4769262,134.693355 70.2908555,113.572925 85.5496912,110.51051 C86.2700654,114.699224 82.5652837,119.716373 81.1619573,124.230877 C76.6716108,138.88219 75.7638843,154.38878 78.5143482,169.459686 C80.0601638,178.046465 82.825919,186.370772 86.7284854,194.18241 C92.0704812,204.803128 99.395845,214.306856 106.992519,223.475487 C112.699379,230.363595 118.724327,237.214471 126.414556,241.80344 C133.365699,245.954922 141.383371,248.058587 149.279421,249.75269 C159.761999,251.998077 170.367345,253.632904 181.041375,254.648831 C195.420793,256.017145 211.25967,256.817655 221.747196,266.749562 C223.811055,268.639217 225.444338,270.946636 226.537217,273.516663 Z" id="Path" fill="url(#linearGradient-6)"></path>
            </g>
        </g>
    </g>
</svg>