<?xml version="1.0" encoding="UTF-8"?>
<svg width="81px" height="98px" viewBox="0 0 81 98" version="1.1" xmlns="http://www.w3.org/2000/svg" xmlns:xlink="http://www.w3.org/1999/xlink">
    <title>user</title>
    <defs>
        <linearGradient x1="49.7943251%" y1="-2.73292782%" x2="50.6050263%" y2="204.485239%" id="linearGradient-1">
            <stop stop-color="#4DBBED" offset="0%"></stop>
            <stop stop-color="#5C6DDD" offset="100%"></stop>
        </linearGradient>
        <linearGradient x1="49.6132226%" y1="-5.62247858%" x2="50.0812778%" y2="67.93671%" id="linearGradient-2">
            <stop stop-color="#4DBBED" offset="0%"></stop>
            <stop stop-color="#5C6DDD" offset="100%"></stop>
        </linearGradient>
    </defs>
    <g id="Page-1" stroke="none" stroke-width="1" fill="none" fill-rule="evenodd">
        <g id="workers-desktop" transform="translate(-531.000000, -1267.000000)" fill-rule="nonzero">
            <g id="user" transform="translate(531.000000, 1267.820492)">
                <path d="M40.0093231,46.1795082 C46.3303608,46.1795082 51.7936765,43.903758 56.2687475,39.445526 C60.7438184,34.9686404 63,29.5031092 63,23.1795082 C63,16.8559072 60.7251723,11.390376 56.2687475,6.91349035 C51.7936765,2.43660471 46.3303608,0.179508197 40.0093231,0.179508197 C33.6882854,0.179508197 28.2249696,2.4552584 23.7498987,6.91349035 C19.2748277,11.3717223 17,16.8559072 17,23.1795082 C17,29.5031092 19.2748277,34.9686404 23.7312525,39.445526 C28.2063235,43.9224117 33.6882854,46.1795082 40.0093231,46.1795082 Z M27.702878,10.8680727 C31.1337657,7.43579368 35.1613296,5.77561525 40.0093231,5.77561525 C44.8573166,5.77561525 48.8848804,7.43579368 52.3157681,10.8680727 C55.7466559,14.3003517 57.4061613,18.3295487 57.4061613,23.1795082 C57.4061613,28.0294676 55.7466559,32.0586647 52.3157681,35.4909437 C48.8848804,38.9232227 44.8573166,40.5834011 40.0093231,40.5834011 C35.1613296,40.5834011 31.1337657,38.9232227 27.702878,35.4909437 C24.2719903,32.0586647 22.6123311,28.0294676 22.6123311,23.1795082 C22.5938387,18.3295487 24.2719903,14.3003517 27.702878,10.8680727 Z" id="Shape" fill="url(#linearGradient-1)"></path>
                <path d="M80.7914814,73.8334561 C80.6587877,71.9445252 80.3934004,69.8855906 80.0142757,67.7133201 C79.6161947,65.5221603 79.1043763,63.4632256 78.4977767,61.5742947 C77.8722209,59.628696 77.0191903,57.6830972 75.957641,55.8508342 C74.8581793,53.9241247 73.5691552,52.2618656 72.1284812,50.8829461 C70.6119822,49.4473586 68.7732272,48.2951108 66.6311725,47.4450919 C64.508074,46.6139623 62.1385443,46.1795082 59.6173648,46.1795082 C58.6316405,46.1795082 57.6648725,46.5761837 55.8261175,47.7850994 C54.6887433,48.5217825 53.3618067,49.3718014 51.864264,50.3351561 C50.5941961,51.1473964 48.8691786,51.9029687 46.74608,52.5829838 C44.6798502,53.2441096 42.5567517,53.5841172 40.4905219,53.5841172 C38.4053358,53.5841172 36.3011935,53.2441096 34.2349637,52.5829838 C32.1118652,51.9029687 30.3868476,51.1473964 29.1167798,50.3351561 C27.6381933,49.3906907 26.3112567,48.5406718 25.1549263,47.7850994 C23.2972151,46.5761837 22.3494032,46.1795082 21.3636789,46.1795082 C18.8424994,46.1795082 16.4729698,46.6139623 14.3498713,47.4450919 C12.2078165,48.2951108 10.3690615,49.4473586 8.8525626,50.8829461 C7.4118886,52.2618656 6.1228645,53.9241247 5.02340276,55.8508342 C3.9618535,57.7019865 3.10882284,59.628696 2.48326703,61.5742947 C1.87666745,63.4632256 1.36484905,65.5221603 0.966768079,67.7133201 C0.568687105,69.8855906 0.303299789,71.9445252 0.189562368,73.8334561 C0.0568687105,75.6846083 0,77.6113178 0,79.5380273 C0,84.5814727 1.61128013,88.6804527 4.77697168,91.6838527 C7.94266323,94.6683635 12.0940791,96.1795082 17.1364381,96.1795082 L63.8635619,96.1795082 C68.9059209,96.1795082 73.0573368,94.6683635 76.2040721,91.702742 C79.3887199,88.699342 81,84.600362 81,79.5569166 C81,77.5924285 80.9241751,75.6846083 80.7914814,73.8334561 Z M72.2801311,87.5848728 C70.2139012,89.5493609 67.4652469,90.5127156 63.8635619,90.5127156 L17.1364381,90.5127156 C13.5537093,90.5127156 10.805055,89.5493609 8.71986894,87.5848728 C6.6915516,85.6581633 5.70582729,83.0325494 5.70582729,79.5380273 C5.70582729,77.7246536 5.762696,75.9301693 5.87643342,74.2112422 C5.99017084,72.5300938 6.23660192,70.6789415 6.59677042,68.7144534 C6.93798268,66.7688546 7.39293237,64.955481 7.923707,63.2932218 C8.43552539,61.7065199 9.11794992,60.1387073 9.98993681,58.6275626 C10.805055,57.1919751 11.7528668,55.9452808 12.7954599,54.9630367 C13.7622279,54.0374606 14.9943833,53.2629989 16.4540136,52.6963197 C17.7999064,52.167419 19.2974491,51.8840794 20.9276855,51.8274115 C21.1362041,51.9407473 21.4774163,52.1296404 22.0650597,52.5074266 C23.2403464,53.2629989 24.5862392,54.1319071 26.0648256,55.0763726 C27.7519307,56.1341739 29.9129417,57.1164179 32.4909899,57.9475475 C35.1259069,58.7975664 37.8366487,59.2320205 40.5094781,59.2320205 C43.1823075,59.2320205 45.8740931,58.7975664 48.5279663,57.9475475 C51.1060145,57.1164179 53.2859817,56.1530632 54.9541306,55.0763726 C56.4706295,54.1130178 57.7975661,53.2629989 58.9538966,52.5074266 C59.5225837,52.1296404 59.8827522,51.9407473 60.0912708,51.8274115 C61.7215071,51.8651901 63.2380061,52.167419 64.5649427,52.6963197 C66.0056167,53.2629989 67.2377721,54.0374606 68.2234964,54.9630367 C69.2660894,55.9641701 70.2139012,57.1919751 71.0290194,58.6275626 C71.8820501,60.1387073 72.5834308,61.7065199 73.0952492,63.2932218 C73.6260239,64.955481 74.0809736,66.7688546 74.4221858,68.7144534 C74.7823543,70.6789415 75.0098292,72.5300938 75.1425228,74.2112422 L75.1425228,74.2112422 C75.2562602,75.9301693 75.3320852,77.7057643 75.3320852,79.519138 C75.3131289,83.0325494 74.3084484,85.6581633 72.2801311,87.5848728 Z" id="Shape" fill="url(#linearGradient-2)"></path>
            </g>
        </g>
    </g>
</svg>