<?xml version="1.0" encoding="UTF-8"?>
<svg width="129px" height="116px" viewBox="0 0 129 116" version="1.1" xmlns="http://www.w3.org/2000/svg" xmlns:xlink="http://www.w3.org/1999/xlink">
    <title>web-programming</title>
    <defs>
        <linearGradient x1="46.6876058%" y1="-196.336342%" x2="52.6750918%" y2="214.924022%" id="linearGradient-1">
            <stop stop-color="#52BCEB" offset="0%"></stop>
            <stop stop-color="#5D71D9" offset="100%"></stop>
        </linearGradient>
        <linearGradient x1="46.0183639%" y1="-199.576307%" x2="52.0058499%" y2="211.833764%" id="linearGradient-2">
            <stop stop-color="#52BCEB" offset="0%"></stop>
            <stop stop-color="#5D71D9" offset="100%"></stop>
        </linearGradient>
        <linearGradient x1="49.004679%" y1="-103.030906%" x2="50.6592386%" y2="150.255544%" id="linearGradient-3">
            <stop stop-color="#52BCEB" offset="0%"></stop>
            <stop stop-color="#5D71D9" offset="100%"></stop>
        </linearGradient>
        <linearGradient x1="49.0611557%" y1="11.0449301%" x2="50.9479481%" y2="89.3290803%" id="linearGradient-4">
            <stop stop-color="#52BCEB" offset="0%"></stop>
            <stop stop-color="#5D71D9" offset="100%"></stop>
        </linearGradient>
        <linearGradient x1="49.4733019%" y1="49.2810089%" x2="51.3600943%" y2="51.8564035%" id="linearGradient-5">
            <stop stop-color="#52BCEB" offset="0%"></stop>
            <stop stop-color="#5D71D9" offset="100%"></stop>
        </linearGradient>
        <linearGradient x1="47.7624356%" y1="-71.7191441%" x2="63.2983798%" y2="772.87545%" id="linearGradient-6">
            <stop stop-color="#52BCEB" offset="0%"></stop>
            <stop stop-color="#5D71D9" offset="100%"></stop>
        </linearGradient>
        <linearGradient x1="47.9042011%" y1="-68.0002252%" x2="63.4401452%" y2="776.594595%" id="linearGradient-7">
            <stop stop-color="#52BCEB" offset="0%"></stop>
            <stop stop-color="#5D71D9" offset="100%"></stop>
        </linearGradient>
        <linearGradient x1="47.5216785%" y1="-75.8343115%" x2="63.0926924%" y2="770.666817%" id="linearGradient-8">
            <stop stop-color="#52BCEB" offset="0%"></stop>
            <stop stop-color="#5D71D9" offset="100%"></stop>
        </linearGradient>
    </defs>
    <g id="Page-1" stroke="none" stroke-width="1" fill="none" fill-rule="evenodd">
        <g id="Home-desktop" transform="translate(-589.000000, -784.000000)" fill-rule="nonzero">
            <g id="web-programming" transform="translate(589.000000, 785.146809)">
                <path d="M50.8529919,81.8531915 C50.3680055,81.8531915 49.8830191,81.675527 49.4889677,81.3498088 L35.7577912,69.9200608 C35.2728048,69.5351211 35,68.9429062 35,68.3506912 C35,67.7288656 35.2728048,67.1662614 35.7577912,66.7813217 L49.4889677,55.3515737 C50.3680055,54.611305 51.7320297,54.7001372 52.4898209,55.5884596 C53.2476121,56.4471713 53.1566771,57.7796549 52.2473277,58.5199235 L40.425785,68.3506912 L52.2473277,78.181459 C53.1263655,78.9217276 53.2476121,80.2246004 52.4898209,81.1129228 C52.0351461,81.6163055 51.4592248,81.8531915 50.8529919,81.8531915 Z" id="Path" fill="url(#linearGradient-1)"></path>
                <path d="M78.1166965,81.8531915 C77.5104635,81.8531915 76.9345422,81.6162193 76.5101791,81.1126534 C75.7523879,80.2536291 75.8433229,78.9206605 76.7526723,78.1801224 L88.574215,68.345776 L76.7526723,58.5114297 C75.8736345,57.7708915 75.7523879,56.4675444 76.5101791,55.5788987 C77.2679703,54.7198744 78.6016828,54.6013883 79.5110323,55.3419265 L93.2422088,66.7758352 C93.7271952,67.160915 94,67.7533455 94,68.345776 C94,68.967828 93.7271952,69.530637 93.2422088,69.9157168 L79.5110323,81.3496256 C79.0866692,81.7050839 78.6016828,81.8531915 78.1166965,81.8531915 Z" id="Path" fill="url(#linearGradient-2)"></path>
                <path d="M61.1725629,90.8531915 C61.0185616,90.8531915 60.8645603,90.8234725 60.710559,90.7937536 C59.5401489,90.5560021 58.8009426,89.4564011 59.0473447,88.3270813 L67.7330191,48.503697 C67.9794213,47.3743771 69.119031,46.6611225 70.289441,46.898874 C71.4598511,47.1366256 72.1990574,48.2362265 71.9526553,49.3655463 L63.2669809,89.1889307 C63.051379,90.1696558 62.1581714,90.8531915 61.1725629,90.8531915 Z" id="Path" fill="url(#linearGradient-3)"></path>
                <path d="M114.700472,113.853191 L14.2995283,113.853191 C6.41957547,113.853191 0,107.42336 0,99.5308178 L0,14.1755652 C0,6.28302309 6.41957547,-0.146808511 14.2995283,-0.146808511 L114.700472,-0.146808511 C122.580425,-0.146808511 129,6.28302309 129,14.1755652 L129,99.5308178 C129,107.42336 122.580425,113.853191 114.700472,113.853191 Z M14.2995283,4.11943046 C8.76226415,4.11943046 4.25943396,8.62945452 4.25943396,14.1755652 L4.25943396,99.5308178 C4.25943396,105.076928 8.76226415,109.586953 14.2995283,109.586953 L114.700472,109.586953 C120.237736,109.586953 124.740566,105.076928 124.740566,99.5308178 L124.740566,14.1755652 C124.740566,8.62945452 120.237736,4.11943046 114.700472,4.11943046 L14.2995283,4.11943046 Z" id="Shape" fill="url(#linearGradient-4)"></path>
                <path d="M126.870283,33.8531915 L2.12971698,33.8531915 C0.943160377,33.8531915 0,32.9674772 0,31.8531915 C0,30.7389058 0.943160377,29.8531915 2.12971698,29.8531915 L126.870283,29.8531915 C128.05684,29.8531915 129,30.7389058 129,31.8531915 C129,32.9674772 128.05684,33.8531915 126.870283,33.8531915 Z" id="Path" fill="url(#linearGradient-5)"></path>
                <path d="M36.5,24.8531915 C32.9279279,24.8531915 30,21.7315699 30,17.8531915 C30,14.0063446 32.8986486,10.8531915 36.5,10.8531915 C40.0720721,10.8531915 43,13.9748131 43,17.8531915 C43,21.7315699 40.0720721,24.8531915 36.5,24.8531915 Z M36.5,15.2991374 C35.1824324,15.2991374 34.0990991,16.4658041 34.0990991,17.884723 C34.0990991,19.3036419 35.1824324,20.4703086 36.5,20.4703086 C37.8175676,20.4703086 38.9009009,19.3036419 38.9009009,17.884723 C38.9009009,16.4658041 37.8175676,15.2991374 36.5,15.2991374 Z" id="Shape" fill="url(#linearGradient-6)"></path>
                <path d="M15.5,24.8531915 C11.9279279,24.8531915 9,21.7315699 9,17.8531915 C9,13.9748131 11.8986486,10.8531915 15.5,10.8531915 C19.1013514,10.8531915 22,14.0063446 22,17.8531915 C22,21.7000383 19.1013514,24.8531915 15.5,24.8531915 Z M15.5,15.2991374 C14.1824324,15.2991374 13.0990991,16.4658041 13.0990991,17.884723 C13.0990991,19.3036419 14.1824324,20.4703086 15.5,20.4703086 C16.8175676,20.4703086 17.9009009,19.3036419 17.9009009,17.884723 C17.9009009,16.4342726 16.8175676,15.2991374 15.5,15.2991374 Z" id="Shape" fill="url(#linearGradient-7)"></path>
                <path d="M56.4853273,24.8531915 C52.9051919,24.8531915 50,21.7245233 50,17.8373901 C50,13.9818597 52.9051919,10.8531915 56.4853273,10.8531915 C60.0654628,10.8531915 63,13.9818597 63,17.8373901 C62.9706546,21.7245233 60.0654628,24.8531915 56.4853273,24.8531915 Z M56.4853273,15.2775707 C55.1647856,15.2775707 54.1083521,16.4468709 54.1083521,17.8689928 C54.1083521,19.2911147 55.1941309,20.460415 56.4853273,20.460415 C57.8058691,20.460415 58.8916479,19.2911147 58.8916479,17.8689928 C58.8916479,16.4468709 57.8058691,15.2775707 56.4853273,15.2775707 Z" id="Shape" fill="url(#linearGradient-8)"></path>
            </g>
        </g>
    </g>
</svg>