<?xml version="1.0" encoding="UTF-8"?>
<svg width="320px" height="305px" viewBox="0 0 320 305" version="1.1" xmlns="http://www.w3.org/2000/svg" xmlns:xlink="http://www.w3.org/1999/xlink">
    <title>us</title>
    <defs>
        <linearGradient x1="24.6399589%" y1="68.7537682%" x2="86.3658119%" y2="30.6675653%" id="linearGradient-1">
            <stop stop-color="#000000" offset="1%"></stop>
            <stop stop-color="#000000" stop-opacity="0.69" offset="13%"></stop>
            <stop stop-color="#000000" stop-opacity="0.32" offset="25%"></stop>
            <stop stop-color="#000000" stop-opacity="0" offset="100%"></stop>
        </linearGradient>
        <linearGradient x1="-51.7894737%" y1="61.8194646%" x2="262.526316%" y2="24.6202195%" id="linearGradient-2">
            <stop stop-color="#000000" offset="1%"></stop>
            <stop stop-color="#000000" stop-opacity="0.69" offset="13%"></stop>
            <stop stop-color="#000000" stop-opacity="0.32" offset="25%"></stop>
            <stop stop-color="#000000" stop-opacity="0" offset="100%"></stop>
        </linearGradient>
        <linearGradient x1="74.7396113%" y1="40.6573038%" x2="-17.5951266%" y2="73.764882%" id="linearGradient-3">
            <stop stop-color="#000000" offset="1%"></stop>
            <stop stop-color="#000000" stop-opacity="0.69" offset="8%"></stop>
            <stop stop-color="#000000" stop-opacity="0.32" offset="21%"></stop>
            <stop stop-color="#000000" stop-opacity="0" offset="100%"></stop>
        </linearGradient>
        <linearGradient x1="-22.9019211%" y1="20.0083817%" x2="301.162791%" y2="151.691697%" id="linearGradient-4">
            <stop stop-color="#000000" offset="1%"></stop>
            <stop stop-color="#000000" stop-opacity="0.69" offset="8%"></stop>
            <stop stop-color="#000000" stop-opacity="0.32" offset="21%"></stop>
            <stop stop-color="#000000" stop-opacity="0" offset="100%"></stop>
        </linearGradient>
        <linearGradient x1="51.6658619%" y1="47.2506529%" x2="47.1269918%" y2="54.9326666%" id="linearGradient-5">
            <stop stop-color="#000000" offset="1%"></stop>
            <stop stop-color="#000000" stop-opacity="0.69" offset="8%"></stop>
            <stop stop-color="#000000" stop-opacity="0.32" offset="21%"></stop>
            <stop stop-color="#000000" stop-opacity="0" offset="100%"></stop>
        </linearGradient>
        <linearGradient x1="-94.0874036%" y1="-23.791863%" x2="495.886889%" y2="362.858374%" id="linearGradient-6">
            <stop stop-color="#000000" offset="1%"></stop>
            <stop stop-color="#000000" stop-opacity="0.69" offset="8%"></stop>
            <stop stop-color="#000000" stop-opacity="0.32" offset="21%"></stop>
            <stop stop-color="#000000" stop-opacity="0" offset="100%"></stop>
        </linearGradient>
        <linearGradient x1="-52.9562982%" y1="-9.39476637%" x2="302.399314%" y2="195.697307%" id="linearGradient-7">
            <stop stop-color="#000000" offset="1%"></stop>
            <stop stop-color="#000000" stop-opacity="0.69" offset="8%"></stop>
            <stop stop-color="#000000" stop-opacity="0.32" offset="21%"></stop>
            <stop stop-color="#000000" stop-opacity="0" offset="100%"></stop>
        </linearGradient>
        <linearGradient x1="101.898734%" y1="72.1722939%" x2="-1.26582278%" y2="28.9551109%" id="linearGradient-8">
            <stop stop-color="#000000" offset="1%"></stop>
            <stop stop-color="#000000" stop-opacity="0.69" offset="8%"></stop>
            <stop stop-color="#000000" stop-opacity="0.32" offset="21%"></stop>
            <stop stop-color="#000000" stop-opacity="0" offset="100%"></stop>
        </linearGradient>
        <linearGradient x1="187.238388%" y1="177.534095%" x2="-120.826453%" y2="-117.273907%" id="linearGradient-9">
            <stop stop-color="#000000" offset="1%"></stop>
            <stop stop-color="#000000" stop-opacity="0.69" offset="13%"></stop>
            <stop stop-color="#000000" stop-opacity="0.32" offset="25%"></stop>
            <stop stop-color="#000000" stop-opacity="0" offset="100%"></stop>
        </linearGradient>
        <linearGradient x1="23.0683372%" y1="25.7139864%" x2="91.4245392%" y2="85.7920685%" id="linearGradient-10">
            <stop stop-color="#000000" offset="1%"></stop>
            <stop stop-color="#000000" stop-opacity="0.69" offset="13%"></stop>
            <stop stop-color="#000000" stop-opacity="0.32" offset="25%"></stop>
            <stop stop-color="#000000" stop-opacity="0" offset="100%"></stop>
        </linearGradient>
        <linearGradient x1="33.427467%" y1="30.548584%" x2="76.5483245%" y2="81.0463972%" id="linearGradient-11">
            <stop stop-color="#000000" offset="1%"></stop>
            <stop stop-color="#000000" stop-opacity="0.69" offset="13%"></stop>
            <stop stop-color="#000000" stop-opacity="0.32" offset="25%"></stop>
            <stop stop-color="#000000" stop-opacity="0" offset="100%"></stop>
        </linearGradient>
        <linearGradient x1="70.8294501%" y1="-65.726778%" x2="20.0372787%" y2="216.869881%" id="linearGradient-12">
            <stop stop-color="#000000" offset="1%"></stop>
            <stop stop-color="#000000" stop-opacity="0.69" offset="8%"></stop>
            <stop stop-color="#000000" stop-opacity="0.32" offset="21%"></stop>
            <stop stop-color="#000000" stop-opacity="0" offset="100%"></stop>
        </linearGradient>
        <linearGradient x1="67.0474517%" y1="127.092139%" x2="25.483304%" y2="-65.4488588%" id="linearGradient-13">
            <stop stop-color="#000000" offset="1%"></stop>
            <stop stop-color="#000000" stop-opacity="0.69" offset="8%"></stop>
            <stop stop-color="#000000" stop-opacity="0.32" offset="21%"></stop>
            <stop stop-color="#000000" stop-opacity="0" offset="100%"></stop>
        </linearGradient>
    </defs>
    <g id="Page-1" stroke="none" stroke-width="1" fill="none" fill-rule="evenodd">
        <g id="About-desktop" transform="translate(-971.000000, -146.000000)" fill-rule="nonzero">
            <g id="us" transform="translate(971.000000, 146.384664)">
                <path d="M134.632373,20.8277129 C106.321816,43.2172846 89.4373702,81.9395476 60.1807019,102.929771 C48.135979,111.680919 34.3263949,116.944139 23.1186165,126.96932 C-18.5830525,164.292235 0.721254132,251.093597 44.5698677,275.885035 C65.7663967,287.894367 90.6745925,285.053899 114.309177,285.4925 C131.235719,285.780536 148.102075,287.878179 164.689597,291.758239 C193.800709,298.608779 224.512933,310.806083 252.022935,298.023977 C266.305575,291.424066 273.237658,278.850818 283.972381,267.61426 C295.281761,256.115254 304.187343,241.837449 310.026827,225.842671 C317.304605,205.604337 319.906411,183.48628 320,161.597968 C320.124744,132.08634 315.612522,102.219654 304.368355,75.6738092 C293.124187,49.1279644 274.802381,26.0700474 251.604463,13.4132559 C236.99471,5.81760533 221.236027,1.56119808 205.208627,0.881779217 C182.46557,-0.559340601 158.921957,3.70136147 139.417512,17.1935847 C137.743623,18.3631892 136.124317,19.5536795 134.632373,20.8277129 Z" id="Path" fill="#4A67C6" opacity="0.18"></path>
                <path d="M104.353154,69.6153356 L106.565321,66.642687 C108.582052,63.672614 110.862197,60.8857 113.378797,58.3148992 C118.488904,53.3531989 121.807155,46.8833165 126.408463,41.4407465 C126.691414,41.1565433 126.89031,40.8012902 126.983626,40.4134341 C127.138478,39.4954103 126.165124,38.8396789 125.324501,38.4680979 C124.211106,37.8971023 122.973051,37.6044151 121.718668,37.6153356 C120.437231,37.6469828 119.297707,38.4291149 118.820729,39.6046988 C118.670173,40.3233963 118.603373,41.0567601 118.621634,41.7904699 C118.220077,43.7002734 117.231116,45.44084 115.790059,46.7740279 L104.220424,59.6482196 C102.713755,61.0663518 101.614568,62.8538426 101.034903,64.828497 C100.755487,67.0239305 102.180376,69.0794455 104.353154,69.6153356 L104.353154,69.6153356 Z" id="Path" fill="#FFBBAB"></path>
                <path d="M104.349062,69.6153356 C105.294622,68.6294616 105.809702,67.3374441 105.789332,66.0025873 C105.857143,64.257902 106.204052,62.5332647 106.818096,60.8881543 C107.666988,59.3556947 108.069561,57.6348713 107.984029,55.9043026 C108.005324,55.8257904 108.005324,55.7434158 107.984029,55.6649036 C107.863782,55.598813 107.715632,55.598813 107.595385,55.6649036 C106.970852,55.9061769 106.459222,56.3545815 106.155115,56.9271892 C104.783429,58.9511988 101.034155,62.3680753 101.034155,64.8926465 C100.75929,67.0308791 102.168732,69.0388862 104.349062,69.6153356 Z" id="Path" fill="url(#linearGradient-1)"></path>
                <polygon id="Path" fill="#4A67C6" points="97 70.8481516 103.021053 65.6153356 108 71.7350696 101.608421 75.6153356"></polygon>
                <polygon id="Path" fill="url(#linearGradient-2)" points="97 70.8481516 103.021053 65.6153356 108 71.7350696 101.608421 75.6153356"></polygon>
                <path d="M298,174.055166 C298,232.17907 278.964474,279.314487 255.5,279.314487 C253.442105,279.314487 243.622368,279.991396 241.653947,279.314487 C221.052632,272.048999 213,227.102254 213,174.055166 C213,119.699388 220.113158,74.3916242 241.452632,68.7958447 C242.928947,68.3896994 253.978947,68.7958447 255.5,68.7958447 C278.942105,68.7507174 298,115.908698 298,174.055166 Z" id="Path" fill="#4A67C6"></path>
                <path d="M298,174.055166 C298,232.17907 278.964474,279.314487 255.5,279.314487 C253.442105,279.314487 243.622368,279.991396 241.653947,279.314487 C221.052632,272.048999 213,227.102254 213,174.055166 C213,119.699388 220.113158,74.3916242 241.452632,68.7958447 C242.928947,68.3896994 253.978947,68.7958447 255.5,68.7958447 C278.942105,68.7507174 298,115.908698 298,174.055166 Z" id="Path" fill="url(#linearGradient-3)"></path>
                <ellipse id="Oval" fill="#4A67C6" cx="242.5" cy="174.615336" rx="42.5" ry="105"></ellipse>
                <ellipse id="Oval" fill="#FFFFFF" cx="241" cy="174.615336" rx="35" ry="85"></ellipse>
                <ellipse id="Oval" fill="#4A67C6" cx="241" cy="175.115336" rx="25" ry="62.5"></ellipse>
                <ellipse id="Oval" fill="#FFFFFF" cx="241" cy="175.115336" rx="17" ry="41.5"></ellipse>
                <ellipse id="Oval" fill="#4A67C6" cx="240" cy="174.115336" rx="9" ry="21.5"></ellipse>
                <polygon id="Path" fill="url(#linearGradient-4)" opacity="0.36" points="202.778564 201.615336 217.326593 190.199643 217.326593 195.907489 246 175.615336 212.899899 180.650394 217.460061 184.231362 202 193.021012"></polygon>
                <polygon id="Path" fill="#4A67C6" points="0 156.615336 23.9264831 156.615336 42.5160375 171.065589 232.268521 171.065589 237 178.302238 43.5475447 178.302238 28.0525121 197.615336 4.79875106 197.615336 15.6520011 182.01275 15.6520011 175.74406"></polygon>
                <polygon id="Path" fill="url(#linearGradient-5)" points="17.4531144 174.615336 41.4619025 174.615336 44.8595847 174.615336 235.2648 174.615336 239 178.126964 44.8820859 178.126964 29.3337518 197.615336 6 197.615336 16.8905843 181.87115 16.8905843 175.545568"></polygon>
                <polygon id="Path" fill="#4A67C6" points="225.213368 171.297617 220.33419 163.615336 246 175.747719 220 186.615336 224.968295 175.817983"></polygon>
                <polygon id="Path" fill="url(#linearGradient-6)" points="225.213368 171.297617 220.33419 163.615336 246 175.747719 220 186.615336 224.968295 175.817983"></polygon>
                <polygon id="Path" fill="url(#linearGradient-7)" points="246 175.615336 224.968295 175.679991 220 185.615336"></polygon>
                <polygon id="Path" fill="url(#linearGradient-8)" points="13.335443 172.615336 43 172.615336 24.1988397 156.615336 0 156.615336"></polygon>
                <path d="M96,132.383141 C96,132.383141 96.7372803,146.743178 99.641718,154.093338 C101.38614,158.620172 102.593648,163.341766 103.238752,168.158461 C102.836599,168.997831 103.529196,169.996001 104.378186,170.427029 C105.254755,170.678105 106.182636,170.678105 107.059205,170.427029 L110.723265,169.95063 C111.163502,169.940743 111.581666,169.75294 111.88504,169.428859 C112.264851,168.816346 111.63928,168.022347 110.946683,167.818176 C110.254086,167.614005 109.516806,167.818176 108.846551,167.455205 C107.595409,166.95612 107.193256,165.390808 106.947496,164.029667 L105.875088,158.13139 C104.100058,149.716198 103.031266,141.16328 102.680207,132.564627 C102.688308,132.171284 102.627797,131.779589 102.501472,131.407657 C102.12055,130.770047 101.498696,130.319029 100.781151,130.159945 C100.079752,129.828646 99.3200507,129.643512 98.5469684,129.615336 C97.7188458,129.605408 96.9639087,130.095648 96.6255712,130.863201" id="Path" fill="#FFBBAB"></path>
                <path d="M111.814361,166.922888 L110.931699,166.778938 C110.239039,166.63234 109.533168,166.58399 108.830123,166.634988 C108.523628,166.653081 108.269757,166.912919 108.220665,167.258771 C108.138911,167.559519 108.002892,167.837388 107.821366,168.074486 C107.402149,168.396965 106.882877,168.501577 106.392294,168.362386 C105.87143,168.332752 105.355948,168.227955 104.858144,168.050494 C104.374781,167.83457 103.93345,167.522679 103.429072,167.354737 C103.162844,167.211822 102.854669,167.211822 102.588441,167.354737 C102.472589,167.481686 102.373484,167.62715 102.294221,167.786587 C102.156444,168.063289 102.057185,168.362762 102,168.674277 C102.00069,168.97592 102.043249,169.275533 102.126095,169.561967 C102.166225,169.935029 102.357204,170.265051 102.642046,170.453558 C102.926887,170.642066 103.272657,170.667263 103.576182,170.521632 L107.779335,170.017808 C109.103327,169.849867 110.406305,169.705917 111.709282,169.442009 C112.428333,169.301967 113.132656,169.076831 113.810858,168.770243 C113.810858,168.770243 114,168.770243 114,168.530327 C114,168.290411 114,168.386377 114,168.314402 C113.377156,167.452501 112.474773,166.915778 111.499124,166.826921" id="Path" fill="#4A67C6"></path>
                <path d="M84.6918816,131.866396 C84.6918816,131.866396 83.135148,146.250089 84.6918816,154.035548 C85.6208199,158.824261 86.0216301,163.713146 85.8860883,168.601891 C85.3742854,169.355323 85.8860883,170.474054 86.6111423,170.885017 C87.3787351,171.315043 88.2414663,171.512407 89.1061812,171.455798 L92.646151,171.592786 C93.0617282,171.668313 93.4877597,171.552209 93.8190325,171.273148 C94.26686,170.725198 93.8190325,169.834779 93.1792789,169.515141 C92.5395254,169.195504 91.8571216,169.172672 91.2813434,168.807372 C90.1724372,168.099603 90.0231613,166.524246 90.0018362,165.085877 L90.0018362,159.058425 C89.6182805,150.45521 89.9107531,141.832701 90.8761661,133.281934 C90.9613669,132.899162 90.9613669,132.500312 90.8761661,132.11754 C90.6209604,131.423853 90.1127231,130.871476 89.4687083,130.587846 C88.8235125,130.126238 88.0983624,129.807929 87.3361964,129.651764 C86.557031,129.494546 85.766069,129.854897 85.3316352,130.565015" id="Path" fill="#FFBBAB"></path>
                <path d="M107.310108,80.642054 L109.30789,81.7936759 C109.995298,82.2001307 111.305671,83.4646568 112.143451,82.9001362 C112.98123,82.3356157 112.659007,80.0775334 112.680489,79.2872046 C112.770545,76.45756 112.568875,73.625983 112.079006,70.841977 C111.582471,69.4610891 111.676415,67.9222121 112.336784,66.6193632 C112.799242,65.8914886 113.620206,65.5101096 114.443563,65.6406585 C115.266919,65.7712075 115.94434,66.3901658 116.181977,67.2290454 C116.38321,67.9630236 116.484464,68.7232781 116.482718,69.4871276 C116.655316,70.0525032 116.655316,70.6604753 116.482718,71.225851 C116.319295,71.4607245 116.175546,71.7100467 116.053088,71.9710181 C115.978398,72.2669774 115.978398,72.5782917 116.053088,72.874251 L117.621239,81.0710896 C118.126254,82.8539314 118.126254,84.7528069 117.621239,86.5356487 C116.449413,88.9065506 113.870836,90.1070637 111.413079,89.425994 C108.796062,88.6646034 106.383698,87.2729975 104.367139,85.3614459 C104.152324,85.1807993 103.894546,84.8872486 104.044916,84.6388596 C104.120945,84.5185577 104.235134,84.4305342 104.367139,84.3904705 C105.187276,84.0946957 105.925191,83.5905055 106.515292,82.9227171 C107.081035,82.3187665 107.370823,81.4872432 107.310108,80.642054 Z" id="Path" fill="#FFBBAB"></path>
                <path d="M102.188071,66.3835329 C102.07558,66.6948941 101.866521,66.9616591 101.59174,67.14447 C101.186755,67.3176021 100.745885,67.3888359 100.307334,67.3519983 C99.8577385,67.3380795 99.413116,67.4498307 99.0229289,67.67482 C98.8631901,67.848314 98.8026414,68.0918068 98.8623782,68.3204636 L99.0917363,71.1797424 C99.1618471,71.3970708 99.1618471,71.6311162 99.0917363,71.8484446 C98.9359835,72.1204275 98.6661574,72.3069269 98.3577903,72.355736 C97.3256788,72.6324404 96.0642092,72.8630274 95.3302632,72.0790316 C94.982911,71.6176602 94.7758017,71.065079 94.7339321,70.4879814 C94.017487,67.2426824 93.8238922,63.902796 94.1605368,60.5957993 C94.3024059,58.5660807 95.3259118,56.7020911 96.9587058,55.4998267 C98.4750029,54.6303409 100.269051,54.3904044 101.958713,54.8311245 C102.726732,55.007149 103.360578,55.5496655 103.655963,56.2838225 C103.839449,56.8141726 103.655963,57.2753466 103.655963,57.8056967 C103.601284,58.5733371 103.601284,59.3439262 103.655963,60.1115666 C103.694726,60.4839077 103.756001,60.8535307 103.839449,61.2183842 C103.937313,61.5321747 103.991346,61.8581112 104,62.1868496 C103.920484,62.783775 103.700308,63.3529745 103.357797,63.8470759 C103.009941,64.4457826 102.72551,65.0795211 102.509172,65.7378893 C102.348622,65.8993002 102.279814,66.1529459 102.188071,66.3835329 Z" id="Path" fill="#FFBBAB"></path>
                <path d="M104.757932,55.7439968 C104.404981,56.9533197 103.483984,57.8862299 102.320952,58.2124976 C100.915847,58.6508295 99.3790127,58.535479 97.9299976,58.9968811 C96.4809826,59.4582831 96.5468469,60.4041572 96.6127112,61.5115221 C96.6127112,62.0421344 96.7224851,62.5727467 96.7883494,63.0572188 L96.7883494,63.0572188 C96.8491741,63.3774105 96.8931504,63.7008829 96.9200781,64.0261631 C96.9521409,64.7124786 96.8704237,65.3994272 96.6785755,66.0563319 C95.8572823,67.7989364 95.3793605,69.697883 95.27347,71.6392964 C95.4219922,72.5814311 95.6497507,73.5078655 95.954068,74.4077085 C96.0446776,74.7938687 96.1034411,75.1875174 96.1297062,75.5842836 C96.1210132,76.9028926 95.6876586,78.1795535 94.9002389,79.2062895 C94.6978326,79.4614759 94.4776801,79.7005236 94.2415957,79.9214626 C93.6332576,80.422845 93.0742761,80.9870374 92.5730329,81.60558 C92.1339374,82.2515428 91.980254,83.1051365 91.5631133,83.7741694 C90.9503584,84.6988792 90.2104844,85.5229872 89.3676359,86.2196001 L88.9944047,86.4964414 C87.0432113,88.0053006 84.6505974,88.748121 82.2323344,88.5958205 C81.2774228,88.5618186 80.3409837,88.3099118 79.4879877,87.8575773 C78.6980707,87.3514408 78.0055002,86.6941147 77.4461938,85.9196888 C76.1368928,84.219523 75.3145552,82.1632535 75.0750782,79.9906729 C74.7861212,77.7754634 75.3381569,75.5297264 76.6119124,73.7386755 C77.4154507,72.8061517 78.281197,71.9349723 79.2025757,71.1317541 C80.3623314,70.0754107 81.2337375,68.7138424 81.7273746,67.1867669 C82.2981988,64.8797568 81.5736912,62.5727467 81.8810581,60.2657366 C82.4243216,57.062039 84.8721981,54.5923241 87.9405756,54.1521599 C89.3660021,54.2481361 90.7947044,54.0280529 92.1339374,53.506197 C92.9716498,52.8571499 93.7117459,52.0794561 94.3294148,51.1991869 C95.6091522,49.5639987 97.5179299,48.6161358 99.5326961,48.6153356 C101.556902,48.6478746 103.419482,49.7837503 104.450565,51.6144488 C105.055379,52.8979816 105.165483,54.3772623 104.757932,55.7439968 Z" id="Path" fill="#FFA200"></path>
                <path d="M96.998137,62.8562455 L96.998137,62.8562455 C96.998137,63.8553681 96.998137,65.0282512 96.998137,65.6798529 C96.1342105,67.3204815 95.6314799,69.1083033 95.5200927,70.9361066 C95.6763246,71.8231084 95.915906,72.6953286 96.2360204,73.5425135 C95.8598757,75.3347507 95.2550442,77.0777255 94.4346538,78.733607 C94.0608749,79.4823129 93.6366125,80.2077927 93.1644595,80.9056127 C92.1534782,82.3698829 90.8612278,83.6441553 89.3538763,84.6631826 L88.9612708,84.9238232 C87.6703393,85.7223356 86.199848,86.2279412 84.6657044,86.4007871 C82.9984419,86.8836172 81.1846289,86.5398238 79.8463699,85.4873217 C78.5081109,84.4348196 77.8273589,82.8167095 78.0375991,81.1879735 C78.281413,78.5126757 79.8462006,76.1001107 82.2638823,74.6719564 C83.8741378,73.8734425 85.5500321,73.1979458 87.2753764,72.6519911 C89.0009447,72.092872 90.4476311,70.9564686 91.3399985,69.4591428 C91.6945588,68.5997012 91.9350178,67.7024007 92.0559262,66.7875758 C92.3792484,65.1151314 93.4184983,61.3792816 95.4046205,60.7059599 C95.6903103,60.579792 96.0221168,60.5856374 96.3025822,60.7217791 C96.5830477,60.8579207 96.7803271,61.1089008 96.8364759,61.4010017 C96.9567221,61.8775194 97.0110582,62.3666427 96.998137,62.8562455 L96.998137,62.8562455 Z" id="Path" fill="url(#linearGradient-9)"></path>
                <path d="M101.27272,100.896632 C101.066964,107.774449 103.558898,114.33862 105.547872,120.902791 C107.171058,126.436409 108.862829,134.098342 101.318444,136.04743 C98.2253754,136.512565 95.0962527,136.707493 91.9679782,136.629916 C89.6818008,136.831546 87.3956234,137.414032 84.9494135,137.570855 C82.3045474,137.74905 79.6506066,137.390593 77.1535485,136.5179 C76.2864856,136.246255 75.5012175,135.769152 74.8673711,135.128894 C73.1070145,133.179806 74.3872738,130.155359 75.5303625,127.803011 C79.6683437,119.200139 78.9367669,109.880361 85.4752343,102.464864 C86.3619039,101.637983 87.0492024,100.627709 87.4870705,99.507627 C87.7272571,98.4321334 87.7505559,97.3209977 87.5556558,96.2367433 C87.1521116,92.6737469 87.0679633,89.08295 87.3041763,85.5055565 C87.5360745,82.2688463 88.3974279,79.105447 89.8418332,76.1857784 C90.380185,74.840162 91.1538284,73.5968304 92.1280106,72.5116351 C93.1736142,71.452709 94.5651414,70.7867541 96.0602358,70.6297568 C97.5718304,70.5073463 99.0382402,71.1705785 99.9238756,72.3772152 C102.210053,75.8049221 105.936522,76.5666347 108.679935,79.6358885 C108.837329,79.7810984 108.948487,79.9678332 109,80.1735681 C108.993638,80.4079927 108.913821,80.6348214 108.771382,80.8232641 C107.788326,82.3242861 106.828131,83.825308 105.867937,85.3039267 C105.573929,85.7929491 105.229174,86.250912 104.839157,86.6705288 C104.49623,87.0065784 104.084719,87.2978215 103.741792,87.6338712 C102.849683,88.7177323 102.301263,90.0340271 102.16433,91.4200311 C101.62268,94.5522165 101.324619,97.7201981 101.27272,100.896632 L101.27272,100.896632 Z" id="Path" fill="#4A67C6"></path>
                <path d="M95.1685926,170.038206 L94.2954797,169.716333 C93.6132765,169.40693 92.895851,169.215081 92.1659362,169.146864 C92.0400075,169.111172 91.9085471,169.111172 91.7826184,169.146864 C91.6384237,169.252593 91.5266304,169.408567 91.4631869,169.592535 C91.3487534,169.885801 91.1730607,170.141142 90.9520964,170.33532 C90.48551,170.583243 89.9492978,170.583243 89.4827114,170.33532 C88.9651675,170.203665 88.4642163,169.995651 87.9920309,169.716333 C87.5448268,169.419219 87.1402135,168.998307 86.6717139,168.725953 C86.4019434,168.578463 86.0896671,168.578463 85.8198965,168.725953 C85.6796484,168.831519 85.5569965,168.965734 85.4578741,169.122105 C85.2763166,169.363759 85.1322087,169.640216 85.0319654,169.939168 C84.9893449,170.250831 84.9893449,170.568366 85.0319654,170.880029 C85.0402244,171.150378 85.1060804,171.414114 85.2236243,171.647573 C85.5122977,171.991496 85.9196094,172.16453 86.330987,172.118004 L90.590074,172.439877 C91.9316864,172.439877 93.2732988,172.637953 94.6149113,172.613194 C95.3319062,172.629963 96.0477389,172.538413 96.7444548,172.340839 C96.8531392,172.329881 96.9494981,172.255192 97,172.142763 C97,172.142763 97,171.994206 97,171.919928 C96.4846205,170.921042 95.6500803,170.199999 94.6787976,169.914409" id="Path" fill="#4A67C6"></path>
                <path d="M106.981953,130.358069 C105.689407,130.808602 104.267614,130.662516 103.090005,129.958179 C101.189068,128.430538 100.019821,126.151459 99.8758679,123.69323 C99.0668674,118.405792 99.5478947,112.696247 96.8147849,108.141941 C95.7494424,106.901404 95.112182,105.341168 95,103.698715 C95.174919,102.01029 96.7273254,100.877267 97.6237854,99.4332187 C98.4736581,97.7787965 98.9304377,95.945152 98.957543,94.0791319 L99.8758679,83.6153356 C99.8758679,84.5039808 103.680357,86.3701355 105.057844,87.7253193 C104.729871,88.0585612 104.336303,88.3473709 104.00833,88.6806128 C103.155122,89.755418 102.630616,91.0607149 102.499653,92.4351384 C101.962926,95.5174895 101.655946,98.6366077 101.581328,101.765912 C101.384544,108.586263 103.767816,115.095589 105.670061,121.604914 C106.652796,124.410913 107.098099,127.38204 106.981953,130.358069 L106.981953,130.358069 Z" id="Path" fill="url(#linearGradient-10)"></path>
                <path d="M125.942132,60.1288458 C126.173573,62.9583293 125.708389,65.8022374 124.589637,68.3973363 C124.437483,68.484522 124.272828,68.5462033 124.101852,68.5800654 C123.972736,68.6270924 123.831871,68.6270924 123.702755,68.5800654 C122.705013,68.1917661 117.36155,63.2123989 110.177806,64.5371846 C109.136688,64.7848548 108.054663,64.3495552 107.451998,63.4405899 C106.849334,62.5316246 106.849334,61.3349661 107.451998,60.4260008 C108.054663,59.5170355 109.136688,59.0817359 110.177806,59.3294061 C110.177806,59.3294061 119.756131,57.7533678 122.483293,52.4770659 C122.882389,51.7004673 123.414519,51.4948971 123.990992,51.6776262 C124.338493,51.8144371 124.649894,52.0335182 124.900046,52.3171779 L124.900046,52.3171779 C125.713544,54.8322264 126.066889,57.4809647 125.942132,60.1288458 Z" id="Path" fill="#4A67C6"></path>
                <path d="M125.93291,60.0767376 C126.201233,62.92777 125.661919,65.793337 124.364887,68.4081998 C124.247963,68.5300552 124.081226,68.604699 123.902192,68.6153356 L123.902192,68.6153356 C122.848275,68.3851848 122,64.6567403 122,60.0997527 C122,55.542765 122.771159,52.1365318 123.773665,51.6301999 C123.849193,51.6103809 123.929486,51.6103809 124.005013,51.6301999 C124.287771,51.6301999 124.57053,51.8833659 124.827583,52.3436676 L124.827583,52.3436676 C125.717126,54.8399384 126.091675,57.4603489 125.93291,60.0767376 Z" id="Path" fill="url(#linearGradient-11)"></path>
                <path d="M142.900902,77.6153356 L136.46606,100.355507 C135.844647,102.069852 135.844647,103.941161 136.46606,105.655507 C137.659084,107.427471 139.482077,108.702784 141.581528,109.234139 C151.965856,113.478595 160.596462,121.006677 166.094107,130.615336 C164.450676,127.71619 173.755734,117.637131 174.843639,115.213626 C177.713856,108.939695 174.843639,106.742686 170.584608,101.465336 C162.714658,92.1110621 153.965125,83.2324297 142.900902,77.6153356 Z" id="Path" fill="#FFFFFF"></path>
                <path d="M73,240.731524 L109.439162,246.281551 C112.837406,247.209464 116.479531,246.167426 118.830466,243.594633 C128.762277,235.754119 138.964342,227.60527 145,216.615336 L119.461057,218.993919 C112.051611,219.698684 105.340319,227.49515 98.8542383,230.974929 C94.6480299,233.226324 90.2916055,235.198253 85.8145136,236.877339 C82.6840788,238.044606 76.4006881,241.260098 73,240.731524 Z" id="Path" fill="#FFFFFF"></path>
                <path d="M33.7855863,123.240281 C33.890503,123.000996 34.069363,122.800512 34.2966423,122.66744 C34.5473171,122.597968 34.8125515,122.597968 35.0632263,122.66744 C39.337513,123.217367 43.6040565,123.836036 47.8628566,124.523445 C46.3779854,126.692892 45.811148,129.348723 46.2832289,131.924552 C46.7901021,134.480557 48.0887699,136.818367 50,138.615336 C49.0026934,138.589026 48.015454,138.411269 47.0730428,138.088322 L39.5698112,135.934439 C37.9901835,135.476167 35.3187543,135.201203 34.3895616,133.643075 C33.828115,132.218041 33.4761061,130.721147 33.3442197,129.197828 C32.7643001,127.223819 32.9208911,125.11016 33.7855863,123.240281 L33.7855863,123.240281 Z" id="Path" fill="#FFFFFF"></path>
                <polygon id="Path" fill="url(#linearGradient-12)" points="20 196.615336 32.5116496 178.046123 45 177.615336 28.7138863 196.615336"></polygon>
                <polygon id="Path" fill="url(#linearGradient-12)" points="5 196.615336 18.6999068 178.000777 30 177.615336 13.6905871 196.615336"></polygon>
                <polygon id="Path" fill="url(#linearGradient-13)" points="9 156.615336 26.0439367 172.615336 35 172.615336 17.5219684 156.615336"></polygon>
            </g>
        </g>
    </g>
</svg>